<svg width="1332" height="57" viewBox="0 0 1332 57" fill="none" xmlns="http://www.w3.org/2000/svg">
<mask id="mask0_10504_73378" style="mask-type:alpha" maskUnits="userSpaceOnUse" x="0" y="0" width="1332" height="57">
<rect y="57" width="57" height="1332" rx="5" transform="rotate(-90 0 57)" fill="#7E54F1"/>
</mask>
<g mask="url(#mask0_10504_73378)">
<path d="M706.95 24.8451C606.236 12.0432 504.324 36.6842 465.957 50.605L427.59 76.7552L1281.26 83L1410.75 62.314C1378.77 53.0769 1292.29 31.0899 1202.12 17.039C1089.42 -0.524518 1037.87 24.8451 977.917 34.6026C917.969 44.3602 832.842 40.8474 706.95 24.8451Z" fill="#94D0CF" fill-opacity="0.4"/>
<path opacity="0.5" d="M1042.85 24.8451C942.139 12.0432 840.226 36.6842 801.859 50.605L763.492 76.7552L1617.16 83L1746.65 62.314C1714.68 53.0769 1628.19 31.0899 1538.03 17.039C1425.32 -0.524518 1373.77 24.8451 1313.82 34.6026C1253.87 44.3602 1168.74 40.8474 1042.85 24.8451Z" fill="#77CBC9"/>
</g>
</svg>
