<svg width="1340" height="109" viewBox="0 0 1340 109" fill="none" xmlns="http://www.w3.org/2000/svg">
<mask id="mask0_9100_63866" style="mask-type:alpha" maskUnits="userSpaceOnUse" x="0" y="0" width="1340" height="109">
<rect y="109" width="109" height="1340" rx="5" transform="rotate(-90 0 109)" fill="#4EB7B5"/>
</mask>
<g mask="url(#mask0_9100_63866)">
<path d="M283.646 92.8451C179.303 80.0432 73.7181 104.684 33.9684 118.605L-5.78125 144.755L878.649 151L1012.8 130.314C979.679 121.077 890.077 99.0899 796.665 85.039C679.9 67.4755 626.487 92.8451 564.378 102.603C502.269 112.36 414.074 108.847 283.646 92.8451Z" fill="#94D0CF" fill-opacity="0.4"/>
<path d="M631.654 92.8451C527.311 80.0432 421.726 104.684 381.976 118.605L342.227 144.755L1226.66 151L1360.81 130.314C1327.69 121.077 1238.08 99.0899 1144.67 85.039C1027.91 67.4755 974.495 92.8451 912.386 102.603C850.277 112.36 762.082 108.847 631.654 92.8451Z" fill="#77CBC9"/>
</g>
</svg>
