<svg width="339" height="132" viewBox="0 0 339 132" fill="none" xmlns="http://www.w3.org/2000/svg">
<g clip-path="url(#clip0_27654_14603)">
<rect width="339" height="140" transform="translate(0 -8)" fill="url(#paint0_linear_27654_14603)"/>
<g opacity="0.1" filter="url(#filter0_f_27654_14603)">
<mask id="path-1-inside-1_27654_14603" fill="white">
<rect x="-55.3164" y="68.6836" width="183.848" height="183.848" rx="1.43212" transform="rotate(-45 -55.3164 68.6836)"/>
</mask>
<rect x="-55.3164" y="68.6836" width="183.848" height="183.848" rx="1.43212" transform="rotate(-45 -55.3164 68.6836)" stroke="white" stroke-width="21.4818" mask="url(#path-1-inside-1_27654_14603)"/>
</g>
<g opacity="0.1" filter="url(#filter1_f_27654_14603)">
<mask id="path-2-inside-2_27654_14603" fill="white">
<rect x="155" y="142" width="65.0538" height="65.0538" rx="1.43212" transform="rotate(-45 155 142)"/>
</mask>
<rect x="155" y="142" width="65.0538" height="65.0538" rx="1.43212" transform="rotate(-45 155 142)" stroke="white" stroke-width="21.4818" mask="url(#path-2-inside-2_27654_14603)"/>
</g>
<g opacity="0.5">
<circle opacity="0.15" cx="66.9194" cy="66.9194" r="66.9194" transform="matrix(-0.384265 0.923223 0.923223 0.384265 319.662 -25.7684)" fill="url(#paint1_linear_27654_14603)"/>
<circle opacity="0.15" cx="89.492" cy="89.492" r="89.492" transform="matrix(-0.384265 0.923223 0.923223 0.384265 307.497 -55.2816)" fill="url(#paint2_linear_27654_14603)"/>
<circle opacity="0.15" cx="111.457" cy="111.457" r="111.457" transform="matrix(-0.384265 0.923223 0.923223 0.384265 295.658 -84)" fill="url(#paint3_linear_27654_14603)"/>
<circle opacity="0.15" cx="44.9715" cy="44.9715" r="44.9715" transform="matrix(0.926625 0.375986 0.375986 -0.926625 297.279 86.9327)" fill="url(#paint4_linear_27654_14603)"/>
</g>
</g>
<defs>
<filter id="filter0_f_27654_14603" x="-56.7231" y="-62.7231" width="262.813" height="262.813" filterUnits="userSpaceOnUse" color-interpolation-filters="sRGB">
<feFlood flood-opacity="0" result="BackgroundImageFix"/>
<feBlend mode="normal" in="SourceGraphic" in2="BackgroundImageFix" result="shape"/>
<feGaussianBlur stdDeviation="1" result="effect1_foregroundBlur_27654_14603"/>
</filter>
<filter id="filter1_f_27654_14603" x="153.593" y="94.5933" width="94.8135" height="94.8135" filterUnits="userSpaceOnUse" color-interpolation-filters="sRGB">
<feFlood flood-opacity="0" result="BackgroundImageFix"/>
<feBlend mode="normal" in="SourceGraphic" in2="BackgroundImageFix" result="shape"/>
<feGaussianBlur stdDeviation="1" result="effect1_foregroundBlur_27654_14603"/>
</filter>
<linearGradient id="paint0_linear_27654_14603" x1="-14.4492" y1="8.95349" x2="359.761" y2="80.8244" gradientUnits="userSpaceOnUse">
<stop stop-color="#8673FF"/>
<stop offset="0.31" stop-color="#8443EF"/>
<stop offset="1" stop-color="#231572"/>
</linearGradient>
<linearGradient id="paint1_linear_27654_14603" x1="66.9194" y1="0" x2="66.9194" y2="133.839" gradientUnits="userSpaceOnUse">
<stop stop-color="white"/>
<stop offset="1" stop-color="white" stop-opacity="0"/>
</linearGradient>
<linearGradient id="paint2_linear_27654_14603" x1="89.492" y1="0" x2="89.492" y2="178.984" gradientUnits="userSpaceOnUse">
<stop stop-color="white"/>
<stop offset="1" stop-color="white" stop-opacity="0"/>
</linearGradient>
<linearGradient id="paint3_linear_27654_14603" x1="111.457" y1="0" x2="111.457" y2="222.914" gradientUnits="userSpaceOnUse">
<stop stop-color="white"/>
<stop offset="1" stop-color="white" stop-opacity="0"/>
</linearGradient>
<linearGradient id="paint4_linear_27654_14603" x1="44.9715" y1="0" x2="44.9715" y2="89.9431" gradientUnits="userSpaceOnUse">
<stop stop-color="white"/>
<stop offset="1" stop-color="white" stop-opacity="0"/>
</linearGradient>
<clipPath id="clip0_27654_14603">
<rect width="339" height="140" fill="white" transform="translate(0 -8)"/>
</clipPath>
</defs>
</svg>
