<svg width="536" height="56" viewBox="0 0 536 56" fill="none" xmlns="http://www.w3.org/2000/svg">
<path fill-rule="evenodd" clip-rule="evenodd" d="M525.07 1.51954L536 7.04102L525.608 12.291L525.07 11.942V1.51954ZM524.773 1.36914H525.07V1.51954L524.773 1.36914ZM524 1.36914V0.978838L524.773 1.36914H524ZM524 11.2468V1.36914H12V1.24679L11.8116 1.36914H11.0703V1.85064L0 9.04102L10.7772 16.041L0 23.041L10.7772 30.041L0 37.041L10.3923 43.791L0 49.041L11.0703 54.6335V55.0391H11.8732L12 55.1032V55.0391H525.07V54.2457L536 47.541L525.07 40.8364V40.1401L536 33.041L525.223 26.041L536 19.041L525.608 12.291L525.07 12.5625V11.942L524 11.2468ZM524 13.1032V25.2468L525.07 25.942V26.1401L524 26.8352V40.1798L524.519 40.4982L524 40.8352V54.9022L525.07 54.2457V40.8364L524.519 40.4982L525.07 40.1401V26.1401L525.223 26.041L525.07 25.942V12.5625L524 13.1032ZM11.0703 44.2314L12 44.8352V55.0391H11.8732L11.0703 54.6335V44.2314ZM11.0703 43.4485V44.2314L10.3923 43.791L11.0703 43.4485ZM11.0703 30.2314L10.7772 30.041L11.0703 29.8506V30.2314ZM11.0703 16.2314L12 16.8352L12 29.2468L11.0703 29.8506V16.2314ZM11.0703 15.8506V1.85064L11.8116 1.36914H12V15.2468L11.0703 15.8506ZM11.0703 15.8506V16.2314L10.7772 16.041L11.0703 15.8506ZM11.0703 30.2314L12 30.8352L12 42.9788L11.0703 43.4485V30.2314Z" fill="#B39BFF"/>
</svg>
