<svg width="122" height="57" viewBox="0 0 122 57" fill="none" xmlns="http://www.w3.org/2000/svg">
<path d="M0.00501895 37.142C0.106586 39.6658 1.64856 41.9265 4 43C2.39955 39.2502 2.24155 35.2502 3.52601 31C1.26383 32.2469 -0.0934706 34.6153 0.00501895 37.142Z" fill="white"/>
<path fill-rule="evenodd" clip-rule="evenodd" d="M4.44812 44C4.58911 44 4.7241 43.9457 4.82909 43.8402C4.99408 43.6707 5.04508 43.415 4.95808 43.1912C3.45219 39.3262 3.3022 35.1415 4.51411 30.7522C4.57711 30.5221 4.50212 30.2759 4.32813 30.1256C4.15114 29.9786 3.90816 29.9594 3.71318 30.0745C1.31935 31.5227 -0.0995445 34.2432 0.00544786 37.1747C0.11044 40.1062 1.72432 42.6989 4.21414 43.9457C4.28913 43.984 4.37013 44 4.44812 44ZM3.07122 32.0246C2.35427 35.4996 2.46227 38.8467 3.3892 42.018C2.0213 40.8319 1.17536 39.0673 1.10636 37.13C1.03437 35.1703 1.76632 33.3225 3.07122 32.0246Z" fill="black"/>
<path d="M27.5015 10C15.0747 10 5 20.0724 5 32.5C5 44.9246 15.0747 55 27.5015 55C39.9253 55 50 44.9246 50 32.5C50 20.0724 39.9253 10 27.5015 10Z" fill="white"/>
<path d="M27.3604 10C14.5098 10 4.27037 19.3006 3.637 31.7076L3.42277 32.264C2.93222 33.7507 3.00363 33.0955 3.00363 36.8849C3.00363 40.6744 5.89416 47.8887 11.3834 51.1434L12.0198 51.604C30.0833 61.9988 51 53.1618 51 33.4818C51 20.5123 40.211 10 27.3604 10Z" fill="#FFC50A"/>
<path fill-rule="evenodd" clip-rule="evenodd" d="M27.7711 57C32.2992 57 36.5968 55.8512 40.2514 53.6636C47.0815 49.5718 51 42.2191 51 33.491C51 26.9693 48.513 20.819 43.997 16.1701C39.5053 11.5464 33.5942 9 27.3525 9C14.487 9 4.30251 18.6944 3.62617 31.5647L3.45026 32.0463C3.44622 32.0547 3.44318 32.0631 3.44116 32.0715C3.3896 32.232 3.34715 32.3642 3.30772 32.4838C2.99533 33.4375 2.99533 33.5225 3.00139 35.6974C3.00139 36.0531 3.00139 36.4686 3.00139 36.9565C3.00139 41.0546 5.9342 48.5426 11.4389 51.9576L12.0364 52.4109C12.0526 52.4235 12.0698 52.435 12.088 52.4455C16.7829 55.2626 21.9236 56.8332 26.9461 56.9874C27.2211 56.9937 27.4961 56.9979 27.7711 57ZM27.3525 10.1551C39.7783 10.1551 49.8869 20.6239 49.8869 33.491C49.8869 41.7974 46.1716 48.7849 39.6964 52.6627C31.9807 57.2833 21.6264 56.8237 12.6703 51.4603L12.0728 51.0102C12.0607 50.9997 12.0465 50.9903 12.0303 50.9819C6.93505 47.8312 4.11446 40.6894 4.11446 36.9565C4.11446 36.4686 4.11446 36.05 4.11446 35.6943C4.1084 33.6264 4.1084 33.6264 4.36013 32.8552C4.39956 32.7356 4.44505 32.6034 4.49358 32.446L4.69678 31.8889C4.71801 31.8323 4.73014 31.7725 4.73318 31.7127C5.33369 19.4247 15.0602 10.1551 27.3525 10.1551Z" fill="black"/>
<path d="M25 19C12.851 19 3 27.0597 3 37.0015C3 46.9403 12.851 55 25 55C37.1521 55 47 46.9403 47 37.0015C47 27.0597 37.1521 19 25 19Z" fill="white"/>
<path fill-rule="evenodd" clip-rule="evenodd" d="M25 55C37.1324 55 47 46.9232 47 37C47 27.0738 37.1324 19 25 19C12.8706 19 3 27.0738 3 37C3 46.9232 12.8706 55 25 55ZM25 19.9171C36.6207 19.9171 46.0735 27.579 46.0735 37C46.0735 46.418 36.6207 54.0798 25 54.0798C13.3793 54.0798 3.9265 46.418 3.9265 37C3.9265 27.579 13.3793 19.9171 25 19.9171Z" fill="black"/>
<path d="M25 53C14.5066 53 6 46.0604 6 37.5C6 28.9396 14.5066 22 25 22C35.4934 22 44 28.9396 44 37.5C44 46.0604 35.4934 53 25 53Z" fill="black"/>
<path fill-rule="evenodd" clip-rule="evenodd" d="M25 53C36.0291 53 45 46.048 45 37.5015C45 28.955 36.0291 22 25 22C13.9709 22 5 28.955 5 37.5015C5 46.048 13.9709 53 25 53ZM25 23.1083C35.397 23.1083 43.8572 29.565 43.8572 37.5015C43.8572 45.435 35.397 51.8917 25 51.8917C14.603 51.8917 6.14278 45.435 6.14278 37.5015C6.14278 29.565 14.603 23.1083 25 23.1083Z" fill="black"/>
<path d="M6 36.0311C6.0614 36.6168 6.15658 37.2056 6.28552 37.7944C6.69692 39.6767 7.42453 41.4118 8.39775 42.959C8.17057 43.4037 7.98943 43.8547 7.85435 44.3026C10.9674 49.4515 17.5068 53 25.0685 53C26.4163 53 27.7303 52.8841 28.9982 52.6711C37.8678 50.1812 43.9835 44.4091 42.869 39.3291C42.5559 37.8915 41.6932 36.6544 40.4129 35.6584C40.6493 33.8325 40.5818 31.9502 40.1673 30.0648C39.934 28.9968 39.5994 27.9789 39.1757 27.0142C35.6758 23.9324 30.65 22 25.0685 22C15.0998 22 6.91183 28.1605 6 36.0311Z" fill="#B0401E"/>
<path fill-rule="evenodd" clip-rule="evenodd" d="M24.5682 53C25.918 53 27.2679 52.8937 28.5808 52.6779C28.5972 52.6759 28.6136 52.6719 28.63 52.6658C37.9098 50.144 44.0257 44.3438 42.8572 39.1726C42.5405 37.778 41.7257 36.5444 40.4343 35.5114C40.6403 33.731 40.545 31.9414 40.1483 30.1883C39.9116 29.1401 39.5672 28.1161 39.1275 27.1408C39.0967 27.077 39.0568 27.0223 39.0045 26.9798C35.2962 23.8139 30.0352 22 24.5682 22C19.6608 22 14.9655 23.431 11.3403 26.0319C7.71507 28.6357 5.46122 32.1845 5.00307 36.0219C4.99897 36.0583 4.99897 36.0938 5.00307 36.1282C5.06765 36.7176 5.16603 37.3101 5.29825 37.8874C5.6949 39.6405 6.37751 41.2994 7.33379 42.8247C7.14622 43.2045 6.99556 43.5873 6.87872 43.9671C6.83875 44.0947 6.85719 44.2314 6.92791 44.3469C8.52989 46.9112 10.9959 49.0745 14.0646 50.6058C17.204 52.1736 20.8353 53 24.5682 53ZM28.4025 51.7664C27.148 51.97 25.8565 52.0733 24.5682 52.0733C17.4315 52.0733 11.0451 48.9985 7.84113 44.04C7.95797 43.6967 8.10864 43.3533 8.29006 43.01C8.36693 42.8642 8.3577 42.6849 8.26546 42.5451C7.29689 41.0533 6.60813 39.4187 6.21455 37.6838C6.09464 37.1582 6.00547 36.6174 5.9409 36.0796C6.87564 28.578 14.8702 22.9297 24.5682 22.9297C29.7739 22.9297 34.7735 24.6342 38.3096 27.6148C38.7062 28.505 39.0168 29.4378 39.232 30.3918C39.6225 32.1237 39.7055 33.895 39.4688 35.6542C39.4473 35.8183 39.518 35.9824 39.6502 36.0826C40.8863 37.0154 41.655 38.1213 41.9379 39.3762C42.9772 43.9731 37.0335 49.4117 28.4025 51.7664Z" fill="black"/>
<path d="M26.422 24.1933C24.2144 24.6752 22.4187 25.9919 21.3023 27.7262C19.513 26.5475 17.2487 26.0595 14.9751 26.5567C8.98748 27.8643 6.02199 36.6552 12.0756 40.802C10.2391 40.713 8.50319 41.6185 7.55662 43.1594C7.32391 43.5952 7.13837 44.0372 7 44.4762C10.1888 49.5223 16.8871 53 24.6326 53C26.0131 53 27.3591 52.8864 28.6579 52.6777C37.7431 50.2375 44.0074 44.5805 42.8659 39.6019C42.5451 38.193 41.6614 36.9806 40.3501 36.0045C38.7588 35.2801 37.0386 35.278 35.1895 35.9983C36.2116 34.3163 36.6047 32.269 36.133 30.2094C35.1549 25.9306 30.8057 23.2356 26.422 24.1933Z" fill="#FFCAA1"/>
<path fill-rule="evenodd" clip-rule="evenodd" d="M24.6391 53C25.9846 53 27.3331 52.8886 28.6415 52.6719C28.6538 52.6698 28.6672 52.6667 28.6816 52.6626C37.924 50.1057 44.0168 44.2429 42.8592 39.0271C42.5298 37.5505 41.6554 36.2535 40.2546 35.1794C40.2341 35.1629 40.2115 35.1495 40.1869 35.1392C38.8014 34.4891 37.3082 34.3839 35.7381 34.8172C36.4739 33.1736 36.6617 31.3379 36.2676 29.5581C35.2639 25.0449 30.7967 22.1939 26.3078 23.2031C24.242 23.6674 22.4655 24.8715 21.271 26.6143C19.4145 25.4689 17.2409 25.1068 15.1042 25.5866C12.0532 26.2707 9.55325 29.0102 8.88516 32.3966C8.30943 35.3187 9.21766 38.0892 11.3328 39.9929C9.79339 40.2219 8.41719 41.1289 7.59824 42.5033C7.59413 42.5095 7.59003 42.5167 7.58592 42.525C7.34886 42.9862 7.1549 43.4536 7.01635 43.9179C6.98557 44.0201 6.99788 44.1346 7.05638 44.2275C8.65117 46.8246 11.108 49.0192 14.1652 50.5701C17.2932 52.158 20.9169 53 24.6391 53ZM28.4999 51.9259C27.2376 52.1364 25.9384 52.2416 24.6391 52.2416C17.4441 52.2416 11.0033 49.078 7.78913 43.9767C7.9092 43.6146 8.06313 43.2462 8.25094 42.884C9.10683 41.4539 10.6708 40.6181 12.3272 40.7017C12.4935 40.7079 12.6474 40.6058 12.7028 40.4448C12.7582 40.2869 12.6997 40.1105 12.5643 40.0114C10.1382 38.2996 9.0391 35.5075 9.62406 32.5452C10.2367 29.4466 12.5027 26.9455 15.2674 26.3233C17.324 25.8621 19.4207 26.2614 21.1694 27.4469C21.2525 27.5058 21.3572 27.5243 21.4588 27.5027C21.5573 27.4841 21.6466 27.4222 21.6989 27.3355C22.7857 25.5959 24.4791 24.3886 26.471 23.9398C30.5534 23.0235 34.6205 25.6175 35.5318 29.7221C35.9567 31.6289 35.6426 33.6038 34.6513 35.2816C34.5805 35.3992 34.5804 35.5447 34.6451 35.6623C34.7375 35.8233 34.9437 35.8945 35.1131 35.8264C36.8249 35.1423 38.3673 35.1361 39.8297 35.8078C41.0643 36.7643 41.8371 37.9034 42.1234 39.1911C43.1763 43.9272 37.1912 49.5176 28.4999 51.9259Z" fill="black"/>
<path d="M13.0979 43.6777C11.4084 43.2664 10.1972 44.2302 11.6445 46.2623C17.8546 54.9862 35.9642 50.8821 37.9171 40.3042C38.3713 37.8423 36.8725 37.4924 35.5161 38.5975C29.5845 43.426 20.4949 45.4857 13.0979 43.6777Z" fill="white"/>
<path fill-rule="evenodd" clip-rule="evenodd" d="M22.6587 52C24.0586 52 25.5074 51.8344 26.9776 51.5C33.2986 50.0531 37.9843 45.853 38.9105 40.7967C39.2253 39.0748 38.6384 38.4279 38.2563 38.1935C37.6328 37.8122 36.725 38.0029 35.8875 38.6904C29.9455 43.5655 20.9806 45.6155 13.5746 43.7905C12.5323 43.5311 11.6306 43.7561 11.2271 44.3749C10.9795 44.7499 10.7167 45.5936 11.7162 47.0155C13.978 50.2156 18.0341 52 22.6587 52ZM37.5258 38.7623C37.6573 38.7623 37.7765 38.7904 37.8743 38.8498C38.2349 39.0716 38.345 39.731 38.1769 40.656C37.3058 45.4124 32.8462 49.375 26.8126 50.7531C20.7819 52.1344 15.0937 50.4906 12.3244 46.5655C11.7865 45.803 11.6122 45.1593 11.8476 44.7999C12.0707 44.4592 12.679 44.3561 13.4003 44.5311C21.0173 46.4093 30.242 44.2999 36.3552 39.2841C36.7678 38.9466 37.1927 38.7623 37.5258 38.7623Z" fill="black"/>
<path d="M6 38.0458C6 40.179 6.56345 42.1988 7.57106 44C7.6802 43.6265 7.82487 43.253 8 42.8794C7.19543 41.5154 6.59645 39.9826 6.25635 38.317C6.16498 37.8798 6.09645 37.4399 6.04315 37C6.01523 37.3458 6 37.6945 6 38.0458Z" fill="#FFCAA1"/>
<path fill-rule="evenodd" clip-rule="evenodd" d="M7.82199 45C7.84392 45 7.86586 44.9989 7.88779 44.9968C8.10711 44.9746 8.28989 44.8445 8.35569 44.6636C8.5019 44.2638 8.69564 43.8576 8.9369 43.4545C9.02828 43.299 9.02097 43.115 8.91131 42.969C7.75985 41.4109 6.93738 39.7035 6.47314 37.8915C6.34886 37.4123 6.25015 36.9205 6.17705 36.4254C6.14049 36.1779 5.89924 35.9938 5.61411 36.0002C5.32899 36.0065 5.09504 36.1937 5.0658 36.4413C5.02193 36.8602 5 37.2759 5 37.6852C5 40.1669 5.78957 42.5501 7.34678 44.7683C7.44914 44.9143 7.62825 45 7.82199 45ZM7.80006 43.2578C7.77813 43.3001 7.75497 43.3424 7.7306 43.3847C7.5064 43.006 7.30536 42.6231 7.12746 42.2359C7.33704 42.5829 7.56124 42.9235 7.80006 43.2578Z" fill="black"/>
<path d="M7.31503 44C7.53203 43.87 7.72287 43.702 7.88758 43.5023C7.92418 43.4072 7.96078 43.3184 8 43.2233C7.32026 41.9394 6.7817 40.5223 6.41568 39.0006C6.27974 38.9974 6.13856 39.0069 6 39.0355C6.15425 40.7886 6.61177 42.4593 7.31503 44Z" fill="#FF9999"/>
<path fill-rule="evenodd" clip-rule="evenodd" d="M7.45015 44C7.53606 44 7.62197 43.9867 7.70414 43.9575C8.06273 43.8301 8.39143 43.6655 8.67532 43.461C8.72014 43.4291 8.75376 43.392 8.78364 43.3522C8.8322 43.2778 8.88449 43.2035 8.93679 43.1291C9.03017 43.0017 9.01896 42.8477 8.91064 42.7255C7.95067 41.6608 7.21109 40.5059 6.71429 39.2925C6.64332 39.1225 6.42669 39.0057 6.18016 39.0004C5.9411 38.9977 5.70577 39.0084 5.47792 39.0349C5.1791 39.0694 4.96993 39.2633 5.00354 39.4783C5.22766 40.9732 5.88507 42.4229 6.95336 43.7902C7.05795 43.923 7.25218 44 7.45015 44ZM7.76391 42.9565C7.73154 42.9778 7.69916 42.9981 7.66679 43.0176C7.46011 42.7255 7.2721 42.4308 7.10277 42.1334C7.31194 42.4131 7.53232 42.6875 7.76391 42.9565Z" fill="black"/>
<path d="M24.4952 41C24.6804 41 24.8591 40.8994 24.9436 40.7297C25.2133 40.1858 25.8112 39.884 26.4254 39.9783C26.6951 40.0192 26.9485 39.84 26.994 39.5791C27.0362 39.3182 26.851 39.0698 26.5813 39.029C25.5285 38.8687 24.5115 39.3842 24.05 40.3116C23.9298 40.5505 24.0338 40.8365 24.2807 40.9528C24.349 40.9843 24.4237 41 24.4952 41Z" fill="black"/>
<path d="M24.5414 41C24.6762 41 24.808 40.9563 24.8979 40.869C25.0567 40.7196 25.0268 40.499 24.832 40.3749C24.0799 39.9084 22.9982 39.874 22.2012 40.2899C21.9914 40.4002 21.9375 40.6185 22.0783 40.7794C22.2222 40.938 22.5068 40.9816 22.7166 40.8713C23.184 40.6277 23.8162 40.6484 24.2537 40.9219C24.3376 40.9747 24.4395 41 24.5414 41Z" fill="black"/>
<path d="M24.7153 44C24.7363 44 24.7567 43.9959 24.7765 43.9877C24.9304 43.9321 25.0268 43.679 24.9934 43.4258C24.8043 42.0089 24.7227 41.4379 24.5577 40.3574C24.5188 40.1043 24.3649 39.95 24.2129 40.0148C24.0609 40.0796 23.9701 40.3389 24.009 40.589C24.1721 41.657 24.2519 42.225 24.4391 43.6296C24.4688 43.8487 24.5856 44 24.7153 44Z" fill="black"/>
<path d="M38.0953 40.1927C37.3627 41.1255 36.4175 41.9357 35.3971 42.6537C34.3702 43.3718 33.2648 44.0008 32.1266 44.5777C32.0089 44.636 31.9664 44.7741 32.0285 44.8815C32.0906 44.9859 32.2247 45.0288 32.3392 44.9797C33.5329 44.4673 34.7038 43.8996 35.819 43.2245C36.931 42.5463 37.9939 41.7577 38.8802 40.7726C39.0601 40.5732 39.034 40.2786 38.8246 40.1098C38.6121 39.9441 38.2981 39.9687 38.1182 40.1651C38.1117 40.1732 38.1051 40.1814 38.0986 40.1896L38.0953 40.1927Z" fill="black"/>
<path opacity="0.3" d="M36.8725 38.5211C36.4624 40.9339 34.6098 43.0745 33 45C36.361 43.2145 38.0276 41.2979 37.9997 39.2503C37.9494 37.8658 38.1336 37.644 36.8725 38.5211Z" fill="black"/>
<path d="M11.2822 46.8851C12.4884 47.4043 13.7566 47.6759 15.0155 47.8299C16.2775 47.9838 17.5426 48.017 18.7984 47.9929C18.9131 47.9899 19.003 47.8993 18.9999 47.7876C18.9968 47.682 18.9131 47.5975 18.8046 47.5914C17.5643 47.528 16.3271 47.4073 15.124 47.1749C13.9241 46.9424 12.7458 46.5953 11.7008 46.055H11.6977C11.4652 45.9343 11.1799 46.0188 11.0559 46.2452C10.9319 46.4685 11.0218 46.7493 11.2512 46.87C11.2636 46.873 11.2729 46.8791 11.2822 46.8851Z" fill="black"/>
<path opacity="0.3" d="M11.3991 45.3113C12.2081 47.2071 14.7417 48.1003 19 47.9911C16.5214 47.0591 13.703 46.0555 12.2825 44.0517C10.5967 43.9015 10.8846 44.0107 11.3991 45.3113Z" fill="black"/>
<path fill-rule="evenodd" clip-rule="evenodd" d="M24.5682 53C25.918 53 27.2679 52.8937 28.5808 52.6779C28.5972 52.6759 28.6136 52.6719 28.63 52.6658C37.9098 50.144 44.0257 44.3438 42.8572 39.1726C42.5405 37.778 41.7257 36.5444 40.4343 35.5114C40.6403 33.731 40.545 31.9414 40.1483 30.1883C39.9116 29.1401 39.5672 28.1161 39.1275 27.1408C39.0967 27.077 39.0568 27.0223 39.0045 26.9798C35.2962 23.8139 30.0352 22 24.5682 22C19.6608 22 14.9655 23.431 11.3403 26.0319C7.71507 28.6357 5.46122 32.1845 5.00307 36.0219C4.99897 36.0583 4.99897 36.0938 5.00307 36.1282C5.06765 36.7176 5.16603 37.3101 5.29825 37.8874C5.6949 39.6405 6.37751 41.2994 7.33379 42.8247C7.14622 43.2045 6.99556 43.5873 6.87872 43.9671C6.83875 44.0947 6.85719 44.2314 6.92791 44.3469C8.52989 46.9112 10.9959 49.0745 14.0646 50.6058C17.204 52.1736 20.8353 53 24.5682 53ZM28.4025 51.7664C27.148 51.97 25.8565 52.0733 24.5682 52.0733C17.4315 52.0733 11.0451 48.9985 7.84113 44.04C7.95797 43.6967 8.10864 43.3533 8.29006 43.01C8.36693 42.8642 8.3577 42.6849 8.26546 42.5451C7.29689 41.0533 6.60813 39.4187 6.21455 37.6838C6.09464 37.1582 6.00547 36.6174 5.9409 36.0796C6.87564 28.578 14.8702 22.9297 24.5682 22.9297C29.7739 22.9297 34.7735 24.6342 38.3096 27.6148C38.7062 28.505 39.0168 29.4378 39.232 30.3918C39.6225 32.1237 39.7055 33.895 39.4688 35.6542C39.4473 35.8183 39.518 35.9824 39.6502 36.0826C40.8863 37.0154 41.655 38.1213 41.9379 39.3762C42.9772 43.9731 37.0335 49.4117 28.4025 51.7664Z" fill="black"/>
<path d="M49.1878 26.0366C46.4636 26.368 44.6179 28.8578 45.0674 31.5997C45.5169 34.3416 48.0879 36.2947 50.8122 35.9634C53.5364 35.6349 55.3821 33.1422 54.9326 30.4003C54.4831 27.6583 51.9087 25.7053 49.1878 26.0366Z" fill="white"/>
<path fill-rule="evenodd" clip-rule="evenodd" d="M50.1812 37C50.3871 37 50.5939 36.9841 50.8018 36.9524C52.1338 36.7554 53.2993 35.9391 54.0804 34.6559C54.8433 33.4013 55.146 31.8418 54.9341 30.2695C54.4951 26.9852 51.9189 24.6443 49.2004 25.0445C46.4788 25.4479 44.6231 28.4463 45.0651 31.7306C45.277 33.3028 45.9793 34.7131 47.0419 35.6977C47.9622 36.549 49.0581 37 50.1812 37ZM49.8119 26.1658C51.7524 26.1658 53.5052 27.9762 53.8352 30.4315C54.0107 31.7306 53.7655 33.0074 53.1449 34.0302C52.5395 35.0212 51.6525 35.6501 50.6444 35.7994C49.6393 35.9487 48.6191 35.6024 47.7776 34.8243C46.9117 34.0207 46.3396 32.8645 46.164 31.5654C45.8098 28.9196 47.2417 26.512 49.3548 26.1975C49.5082 26.1764 49.6605 26.1658 49.8119 26.1658Z" fill="black"/>
<path d="M52.7809 35.6696C54.3578 34.6322 55.2604 32.665 54.9334 30.5562C54.5588 28.1704 52.7264 26.354 50.5602 26C50.4512 26 50.3388 26.0092 50.2264 26.0246C48.0569 26.3017 46.6502 28.7522 47.076 31.5013C47.5051 34.2474 49.61 36.2515 51.7795 35.9744C52.1372 35.9313 52.4709 35.8266 52.7809 35.6696Z" fill="white"/>
<path fill-rule="evenodd" clip-rule="evenodd" d="M51.3283 36C51.471 36 51.6127 35.9897 51.7534 35.9691C52.1182 35.9165 52.471 35.7958 52.7996 35.607C52.8157 35.5988 52.8318 35.5885 52.8478 35.5761C54.4216 34.4003 55.2417 32.2065 54.9372 29.9879C54.5875 27.4537 52.8448 25.4053 50.6922 25.0062C50.662 25.0021 50.6309 25 50.5987 25C50.4781 25.0031 50.3605 25.0124 50.249 25.0278C48.0842 25.3435 46.6582 28.0509 47.0712 31.0678C47.2672 32.5004 47.8461 33.7969 48.6963 34.7159C49.4711 35.5544 50.3937 36 51.3283 36ZM52.3293 34.7932C52.1062 34.917 51.868 34.9975 51.6268 35.0315C50.8489 35.1429 50.047 34.7994 49.3656 34.0661C48.645 33.2864 48.1536 32.1755 47.9847 30.9347C47.641 28.4346 48.7144 26.2067 50.3786 25.9654C50.4429 25.9571 50.5083 25.951 50.5746 25.9468C52.3202 26.2965 53.7342 28.0045 54.0237 30.121C54.2799 31.9868 53.6167 33.8155 52.3293 34.7932Z" fill="black"/>
<path d="M32.1997 14.0036C31.513 16.2694 32.6639 16.579 34.635 15.0725C36.0911 13.962 37.8079 13.4112 39.4611 13.0211C41.0157 11.3419 39.0001 9.19528 36.0561 10.3058C34.5746 10.7733 32.8546 11.8451 32.1997 14.0036Z" fill="#FFC50A"/>
<path fill-rule="evenodd" clip-rule="evenodd" d="M32.2585 17C32.8644 17 33.6232 16.6535 34.5226 15.9605C35.9341 14.8798 37.5986 14.3836 39.0413 14.0429C39.1538 14.0136 39.2568 13.9549 39.3349 13.8726C40.1218 13.0181 40.2186 11.9228 39.5816 11.0859C38.8946 10.1785 37.3207 9.59709 35.3564 10.3371C34.1385 10.7247 31.9962 11.7584 31.2155 14.3425C30.8376 15.5993 30.9563 16.4303 31.5746 16.815C31.7766 16.9383 32.0045 17 32.2585 17ZM38.5729 13.0416C37.1302 13.394 35.3252 13.9549 33.7981 15.1265C32.7769 15.9106 32.2804 15.9458 32.2023 15.9135C32.2054 15.9135 32.0087 15.658 32.3179 14.6361C32.958 12.516 34.7349 11.6703 35.7374 11.3531C35.7478 11.3492 35.7582 11.3453 35.7686 11.3414C37.1645 10.8128 38.22 11.1476 38.651 11.7114C38.9539 12.1137 38.9258 12.5894 38.5729 13.0416Z" fill="black"/>
<path d="M8.00631 18.8806C7.93991 19.4175 8.4077 19.8817 8.93887 19.9788C9.46701 20.0789 10.0766 19.821 10.2004 19.2932C10.7074 17.1332 12.2103 15.0188 14 13.6901C11.5102 12.3068 8.7608 12.5252 8.00631 18.8806Z" fill="#FFC50A"/>
<path fill-rule="evenodd" clip-rule="evenodd" d="M8.68244 21C9.35703 21 10.0732 20.6172 10.2456 19.8815C10.6973 17.9525 12.0524 15.9548 13.779 14.6748C13.9276 14.5641 14.0108 14.3847 13.9989 14.1963C13.987 14.0108 13.883 13.8434 13.7195 13.7537C12.2129 12.9133 10.8904 12.7757 9.7909 13.3409C8.32584 14.0976 7.38975 16.0953 7.00937 19.2834C6.91724 20.0699 7.51455 20.8116 8.37041 20.9701C8.47145 20.991 8.57843 21 8.68244 21ZM12.4387 14.3548C10.8488 15.7723 9.63043 17.7252 9.18467 19.6303C9.13712 19.8336 8.81618 19.9383 8.56952 19.8935C8.32287 19.8456 8.0673 19.6333 8.09405 19.415C8.42094 16.6516 9.1817 14.8871 10.2872 14.3189C10.8756 14.0138 11.5977 14.0288 12.4387 14.3548Z" fill="black"/>
<path opacity="0.3" d="M52.763 30.5734C53.1265 32.5658 52.3961 34.5954 50.8142 36C53.6079 35.3596 55.3985 32.8505 54.9239 30.2393C54.4493 27.628 51.8711 25.7903 49 26.0192C50.9926 26.8731 52.3995 28.5779 52.763 30.5734Z" fill="black"/>
<path opacity="0.3" d="M11 20C12.0253 18.1038 13.5734 16.381 15.6442 14.8315C16.4366 12.764 15.9056 12.447 14.0485 13.8802C12.8489 14.5397 11.8309 16.5786 11 20Z" fill="black"/>
<path opacity="0.3" d="M39.4185 10.4879C38.7223 9.85805 37.6406 9.83521 36.9172 10.4357C37.4359 10.2073 38.0501 10.3835 38.3504 10.8469C38.6473 11.3136 38.6302 12.0741 38.0945 12.2568C35.8867 13.0172 33.8017 14.0975 32 15.9937C33.0032 16.0916 35.5386 15.0516 39.6061 12.8736C40.1965 12.1524 40.1146 11.1178 39.4185 10.4879Z" fill="black"/>
<path opacity="0.3" d="M12.4247 14C9.84263 15.9934 8.72063 17.9934 9.05871 20C10.1441 18.0615 11.455 16.2837 12.9912 14.6667C13.0446 14.6648 12.8557 14.4426 12.4247 14Z" fill="black"/>
<path opacity="0.3" d="M8 43.3861C11.0374 48.4782 17.5487 52 25.0876 52C35.5335 52 44 45.2431 44 36.9097C44 33.1166 42.2479 29.6497 39.3499 27C40.5231 28.9606 41.1778 31.159 41.1778 33.4764C41.1778 41.8097 32.7083 48.5667 22.2624 48.5667C20.6922 48.5667 19.1674 48.4142 17.7093 48.1245C18.1883 47.9385 18.6763 47.7251 19.1704 47.4751C17.2001 47.5076 15.1822 47.2149 13.1169 46.5969C13.1351 46.6365 13.1563 46.6731 13.1714 46.7097C11.2102 45.8529 9.45807 44.7247 8 43.3861Z" fill="black"/>
<path fill-rule="evenodd" clip-rule="evenodd" d="M25.5 53C36.2523 53 45 46.0462 45 37.5C45 28.9538 36.2523 22 25.5 22C14.7477 22 6 28.9538 6 37.5C6 46.0462 14.7477 53 25.5 53ZM25.5 22.7458C35.8385 22.7458 44.2491 29.3664 44.2491 37.5C44.2491 45.6336 35.8385 52.2511 25.5 52.2511C15.1615 52.2511 6.75095 45.6336 6.75095 37.5C6.75095 29.3664 15.1615 22.7458 25.5 22.7458Z" fill="black"/>
<path d="M14.3322 37.4499C15.0194 39.3097 16.5461 40.3924 17.7444 39.8677C18.9393 39.3429 19.3557 37.41 18.6685 35.5501C17.9813 33.6903 16.4547 32.6076 15.2563 33.1323C14.058 33.6571 13.645 35.59 14.3322 37.4499Z" fill="black"/>
<path d="M15.0007 34.9268C14.9795 35.4754 15.4124 35.9547 15.9641 35.9973C16.5157 36.0373 16.9783 35.6245 16.9995 35.0732C17.0165 34.5246 16.5836 34.0426 16.032 34.0027C15.4803 33.9627 15.0177 34.3755 15.0007 34.9268Z" fill="white"/>
<path d="M28.6556 31.0012C27.5656 31.0446 26.8389 32.4253 27.0307 34.0811C27.2197 35.7397 28.2574 37.0451 29.3445 36.9988C30.4316 36.9554 31.1612 35.5747 30.9694 33.919C30.7775 32.2603 29.7427 30.9549 28.6556 31.0012Z" fill="black"/>
<path d="M28.3417 32.0687C27.9263 32.2691 27.8832 32.8499 28.2477 33.3638C28.6121 33.8778 29.2429 34.1334 29.6583 33.9301C30.0737 33.7297 30.1168 33.149 29.7523 32.635C29.3879 32.121 28.7571 31.8683 28.3417 32.0687Z" fill="white"/>
<path d="M28.0948 35.0784C27.9322 35.2289 27.9841 35.5384 28.209 35.7699C28.4339 36.0013 28.7452 36.0708 28.9078 35.9203C29.067 35.7699 29.0151 35.4603 28.7902 35.2289C28.5653 34.9974 28.254 34.9309 28.0948 35.0784Z" fill="white"/>
<path opacity="0.2" d="M40 33.5426C39.994 32.4101 39.8731 31.2681 39.6283 30.123C39.3987 29.0473 39.0693 28.0221 38.6523 27.0505C35.2076 23.9464 30.2611 22 24.7677 22C14.9563 22 6.89744 28.205 6 36.1325C6.06043 36.7224 6.15411 37.3155 6.28102 37.9085C6.28706 37.9401 6.29612 37.9685 6.30217 38C7.56523 30.3943 15.4428 24.5331 24.9762 24.5331C30.4696 24.5331 35.4161 26.4795 38.8608 29.5836C39.2778 30.5552 39.6072 31.5804 39.8368 32.6562C39.9003 32.9527 39.9517 33.2461 40 33.5426Z" fill="black"/>
<path opacity="0.2" d="M7.05556 44C7.03536 44.0334 7.01515 44.0669 7 44.1003C7.31313 44.4063 7.64647 44.7062 8 45C7.66667 44.6748 7.34849 44.3404 7.05556 44Z" fill="black"/>
<path opacity="0.2" d="M42.933 41C43.0455 40.3757 43.0184 39.7515 42.836 39.1417C42.4752 37.9309 41.5441 36.8769 40.1668 36C40.1746 36.6969 40.1203 37.3879 40 38.0703C41.4238 38.8833 42.4364 39.8676 42.933 41Z" fill="black"/>
<path fill-rule="evenodd" clip-rule="evenodd" d="M23.9874 4.95889C24.9355 6.75155 25.0967 8.715 24.9554 10L23.3435 9.82134C23.4564 8.79397 23.3215 7.17173 22.5551 5.72257C21.8089 4.31186 20.4492 3.02812 18 2.60469L18.2752 1C21.2456 1.51354 23.0189 3.12777 23.9874 4.95889Z" fill="black"/>
<path d="M21 2C21 3.10457 20.1046 4 19 4C17.8954 4 17 3.10457 17 2C17 0.895431 17.8954 0 19 0C20.1046 0 21 0.895431 21 2Z" fill="black"/>
<path fill-rule="evenodd" clip-rule="evenodd" d="M27.7339 1.94843C27.7346 1.94811 27.7331 1.95531 27.7275 1.97098C27.7304 1.95659 27.7332 1.94875 27.7339 1.94843ZM27.159 2.78611C27.0604 2.80726 26.9552 2.83211 26.8434 2.86107C25.7069 3.15538 24.182 3.79499 22.5687 4.73321C20.9554 5.67143 19.6454 6.68041 18.8275 7.52266C18.747 7.60554 18.6734 7.68468 18.6063 7.75991C18.7049 7.73876 18.81 7.71391 18.9219 7.68495C20.0584 7.39064 21.5832 6.75103 23.1966 5.81281C24.8099 4.87459 26.1199 3.86561 26.9378 3.02336C27.0182 2.94048 27.0919 2.86134 27.159 2.78611ZM17.5939 7.84529C17.5945 7.84485 17.6027 7.84629 17.6166 7.85092C17.6002 7.84805 17.5933 7.84573 17.5939 7.84529ZM18.0314 8.59759C18.0307 8.59791 18.0321 8.59071 18.0377 8.57504C18.0349 8.58943 18.0321 8.59727 18.0314 8.59759ZM28.1486 2.6951C28.165 2.69797 28.172 2.70029 28.1714 2.70073C28.1708 2.70117 28.1626 2.69973 28.1486 2.6951ZM23.8799 6.98793C27.2581 5.02337 29.5501 2.66299 28.9993 1.71587C28.4486 0.768746 25.2635 1.59354 21.8853 3.55809C18.5072 5.52265 16.2151 7.88303 16.7659 8.83015C17.3167 9.77727 20.5018 8.95248 23.8799 6.98793Z" fill="black"/>
<path d="M121.047 10L73.0468 24.1473L73.7379 25.4393L110.052 18.4625L106.596 24.1473V25.4393L108.984 28.7339L104.209 33.9664L105.089 35L112.816 28.7339V27.4419L111.56 24.1473L121.047 11.7442V10Z" fill="black"/>
<path d="M121.047 9L73.0468 22.5814L73.7379 23.8217L110.052 17.124L106.596 22.5814V23.8217L108.984 26.9845L104.209 32.0078L105.089 33L112.816 26.9845V25.7442L111.56 22.5814L121.047 10.6744V9Z" fill="#FFC50A"/>
<path d="M84.6452 40.566L84.7336 41.0493L81.7772 41.59L80.736 40.0262L77.4424 40.6286L77.0221 42.4597L74.0657 43.0004L73.9773 42.517L75.27 42.2806L77.1139 34.3224L78.8113 34.012L83.3412 40.8045L84.6452 40.566ZM78.3958 36.5044L77.8239 38.9673L79.7912 38.6075L78.3958 36.5044Z" fill="black"/>
<path d="M91.1103 39.3836L91.1987 39.867L83.4647 41.2814L83.3763 40.798L84.4667 40.5986L83.118 33.2244L85.8946 32.7166C87.1012 32.4959 88.0212 32.5716 88.6546 32.9437C89.2941 33.3069 89.703 33.9756 89.8812 34.9499C90.058 35.9166 89.9027 36.6769 89.4154 37.2307C88.9356 37.7832 88.1148 38.1656 86.9532 38.378L85.9078 38.5692L86.2203 40.2779L91.1103 39.3836ZM86.8106 36.8358C87.3951 36.7289 87.7711 36.5401 87.9384 36.2694C88.1044 35.9912 88.1463 35.6273 88.0641 35.1776C87.9804 34.7205 87.7829 34.4236 87.4713 34.287C87.1659 34.1414 86.7247 34.1215 86.1476 34.227L85.1471 34.41L85.6303 37.0517L86.8106 36.8358Z" fill="black"/>
<path d="M92.0743 39.2073L90.7256 31.833L96.3912 30.7969L96.677 32.3594L92.765 33.0748L93.0611 34.6936L96.5796 34.0501L96.853 35.5452L93.3345 36.1887L93.6326 37.8186L97.6682 37.0806L97.8635 38.1485L98.9539 37.9491L99.0423 38.4325L91.0723 39.8901L90.9839 39.4067L92.0743 39.2073Z" fill="black"/>
<path d="M105.635 36.7273L105.723 37.2106L98.5511 38.5223L98.4627 38.0389L99.9915 37.7593C99.5409 37.6249 99.1169 37.4236 98.7193 37.1555L99.5304 35.6828C100.513 36.2699 101.364 36.4976 102.083 36.366C102.406 36.3071 102.644 36.1937 102.799 36.026C102.961 35.8493 103.02 35.6448 102.978 35.4125C102.934 35.1727 102.802 35.0031 102.583 34.9039C102.362 34.7971 101.95 34.7253 101.347 34.6885C100.393 34.6384 99.6705 34.48 99.1803 34.2134C98.6962 33.9379 98.3863 33.4292 98.2506 32.6873C98.1136 31.9379 98.2741 31.3122 98.7322 30.8102C99.1977 30.3068 99.8315 29.9818 100.633 29.8351C101.158 29.7392 101.699 29.7332 102.256 29.8171C102.814 29.901 103.318 30.0722 103.768 30.3307L103.114 31.7746C102.337 31.3822 101.586 31.2525 100.859 31.3855C100.567 31.4389 100.347 31.5526 100.201 31.7265C100.061 31.8916 100.012 32.0903 100.054 32.3226C100.095 32.5474 100.23 32.7088 100.457 32.8066C100.691 32.9032 101.196 32.9773 101.973 33.0289C102.755 33.0717 103.386 33.239 103.865 33.5309C104.344 33.8227 104.644 34.2946 104.763 34.9466C104.911 35.756 104.722 36.4372 104.196 36.9904L105.635 36.7273Z" fill="black"/>
<path d="M72.6296 34.0861L72.7239 34.5683L65.5687 35.968L65.4743 35.4858L66.9996 35.1874C66.5474 35.0585 66.1209 34.8625 65.7201 34.5993L66.513 33.1168C67.5027 33.6917 68.3564 33.9089 69.0742 33.7685C69.3957 33.7056 69.633 33.5893 69.7861 33.4197C69.9452 33.241 70.0021 33.0358 69.9568 32.8041C69.91 32.5648 69.7762 32.3969 69.5555 32.3003C69.3333 32.1963 68.9204 32.1296 68.3169 32.1001C67.3624 32.0618 66.6384 31.9123 66.1449 31.6517C65.6575 31.3822 65.3413 30.8774 65.1965 30.1372C65.0503 29.3895 65.2031 28.7619 65.6549 28.2543C66.1143 27.7452 66.744 27.4124 67.544 27.2559C68.0674 27.1536 68.6083 27.1409 69.1668 27.218C69.7252 27.295 70.231 27.46 70.6842 27.7129L70.0483 29.1648C69.267 28.782 68.5137 28.6615 67.7885 28.8034C67.4969 28.8604 67.279 28.9768 67.1348 29.1525C66.9967 29.3193 66.9502 29.5185 66.9956 29.7503C67.0395 29.9746 67.1755 30.1343 67.4037 30.2294C67.6394 30.323 68.1456 30.3909 68.9224 30.433C69.7051 30.4662 70.338 30.6257 70.8209 30.9117C71.3038 31.1976 71.6088 31.6658 71.7361 32.3163C71.894 33.1237 71.7134 33.8073 71.194 34.3669L72.6296 34.0861Z" fill="black"/>
<path d="M79.7403 28.0722L78.4588 32.7711L77.4158 32.9751L74.4692 29.1034L75.4346 34.0381L72.5971 34.5931L72.5028 34.1109L73.5907 33.8981L72.1514 26.5409L74.5178 26.078L77.379 29.9897L78.5665 25.286L80.9217 24.8253L82.3609 32.1824L83.4488 31.9696L83.5431 32.4518L80.7057 33.0069L79.7403 28.0722Z" fill="black"/>
<path d="M92.8258 30.1352L92.9201 30.6175L89.9705 31.1945L88.9102 29.6436L85.6242 30.2864L85.2265 32.1225L82.2769 32.6995L82.1826 32.2173L83.4723 31.965L85.2182 23.9848L86.9117 23.6535L91.5248 30.3897L92.8258 30.1352ZM86.5269 26.1508L85.9853 28.6205L87.948 28.2366L86.5269 26.1508Z" fill="black"/>
<path d="M92.6476 30.1701L91.2084 22.813L94.1804 22.2316C95.3991 21.9932 96.3067 22.0291 96.903 22.3394C97.5068 22.6483 97.8979 23.2588 98.0764 24.1709C98.3221 25.427 97.9836 26.3355 97.0608 26.8964L99.1524 28.8976L100.207 28.6914L100.301 29.1736L97.4411 29.7331L95.2135 27.5722L94.0023 27.8091L94.4915 30.3101L91.6541 30.8652L91.5598 30.3829L92.6476 30.1701ZM94.9846 26.045C95.5828 25.928 95.9712 25.751 96.15 25.5142C96.3288 25.2774 96.3773 24.9497 96.2954 24.531C96.212 24.1048 96.0428 23.8351 95.7878 23.722C95.5328 23.6089 95.1249 23.6072 94.5641 23.7169L93.252 23.9735L93.7061 26.2951L94.9846 26.045Z" fill="black"/>
<path d="M106.65 27.4308L106.745 27.9131L99.926 29.247L99.8316 28.7647L102.366 28.2689L101.223 22.4258L99.0026 22.8602L98.7064 21.3462L104.897 20.1351L105.193 21.6492L102.973 22.0836L104.116 27.9267L106.65 27.4308Z" fill="black"/>
</svg>
