<svg width="144" height="41" viewBox="0 0 144 41" fill="none" xmlns="http://www.w3.org/2000/svg">
<path d="M0.00459909 26.651C0.0774822 28.462 1.18398 30.0842 2.87134 30.8546C1.72288 28.1637 1.6095 25.2934 2.53121 22.2435C0.907906 23.1383 -0.0660756 24.8378 0.00459909 26.651Z" fill="white"/>
<path fill-rule="evenodd" clip-rule="evenodd" d="M3.19187 31.5743C3.29304 31.5743 3.38991 31.5353 3.46525 31.4596C3.58364 31.338 3.62024 31.1545 3.55781 30.9939C2.47721 28.2204 2.36958 25.2176 3.23923 22.0679C3.28443 21.9027 3.23062 21.7261 3.10577 21.6183C2.97876 21.5127 2.8044 21.499 2.66448 21.5816C0.946713 22.6208 -0.0714664 24.573 0.00387454 26.6766C0.0792153 28.7802 1.23731 30.6406 3.02397 31.5353C3.07778 31.5628 3.1359 31.5743 3.19187 31.5743ZM2.20383 22.9809C1.68936 25.4745 1.76685 27.8763 2.432 30.152C1.45042 29.3009 0.843386 28.0346 0.793876 26.6445C0.742214 25.2382 1.26745 23.9123 2.20383 22.9809Z" fill="black"/>
<path d="M19.7345 7.17526C10.8174 7.17526 3.58811 14.403 3.58811 23.3209C3.58811 32.2366 10.8174 39.4666 19.7345 39.4666C28.6494 39.4666 35.8787 32.2366 35.8787 23.3209C35.8787 14.403 28.6494 7.17526 19.7345 7.17526Z" fill="white"/>
<path d="M19.6349 7.17526C10.4137 7.17526 3.06623 13.8492 2.61174 22.7523L2.45802 23.1516C2.10601 24.2184 2.15725 23.7482 2.15725 26.4675C2.15725 29.1868 4.2314 34.3636 8.17028 36.6992L8.62699 37.0297C21.5887 44.4888 36.5979 38.1475 36.5979 24.0255C36.5979 14.7187 28.856 7.17526 19.6349 7.17526Z" fill="#FF8B13"/>
<path fill-rule="evenodd" clip-rule="evenodd" d="M19.9296 40.9036C23.1788 40.9036 26.2626 40.0792 28.8851 38.5094C33.7861 35.5732 36.5979 30.297 36.5979 24.0339C36.5979 19.354 34.8133 14.9406 31.5728 11.6046C28.3497 8.2867 24.1081 6.45947 19.6292 6.45947C10.3973 6.45947 3.08928 13.416 2.60397 22.6516L2.47774 22.9972C2.47484 23.0032 2.47266 23.0092 2.47121 23.0152C2.43421 23.1304 2.40375 23.2253 2.37546 23.3111C2.1513 23.9955 2.15129 24.0564 2.15565 25.6172C2.15565 25.8724 2.15565 26.1705 2.15565 26.5206C2.15565 29.4613 4.26014 34.8346 8.21013 37.2852L8.63887 37.6105C8.65047 37.6195 8.66281 37.6278 8.67587 37.6353C12.0448 39.6568 15.7336 40.7839 19.3376 40.8945C19.5349 40.899 19.7322 40.9021 19.9296 40.9036ZM19.6292 7.28839C28.5456 7.28839 35.7992 14.8006 35.7992 24.0339C35.7992 29.9944 33.1332 35.0085 28.4868 37.7912C22.9503 41.1068 15.5204 40.7771 9.09372 36.9284L8.66499 36.6054C8.65628 36.5979 8.64612 36.5911 8.63451 36.5851C4.97832 34.3242 2.95435 29.1993 2.95435 26.5206C2.95435 26.1705 2.95435 25.8701 2.95435 25.6149C2.95 24.131 2.95 24.131 3.13063 23.5776C3.15893 23.4918 3.19157 23.3969 3.22639 23.284L3.3722 22.8842C3.38744 22.8436 3.39614 22.8007 3.39832 22.7577C3.82923 13.9401 10.8086 7.28839 19.6292 7.28839Z" fill="black"/>
<path d="M17.941 13.6355C9.2233 13.6355 2.15455 19.419 2.15455 26.5532C2.15455 33.6851 9.2233 39.4686 17.941 39.4686C26.661 39.4686 33.7275 33.6851 33.7275 26.5532C33.7275 19.419 26.661 13.6355 17.941 13.6355Z" fill="white"/>
<path fill-rule="evenodd" clip-rule="evenodd" d="M17.941 39.4686C26.6469 39.4686 33.7275 33.6728 33.7275 26.5521C33.7275 19.4292 26.6469 13.6355 17.941 13.6355C9.2374 13.6355 2.15455 19.4292 2.15455 26.5521C2.15455 33.6728 9.2374 39.4686 17.941 39.4686ZM17.941 14.2937C26.2797 14.2937 33.0627 19.7917 33.0627 26.5521C33.0627 33.3103 26.2797 38.8083 17.941 38.8083C9.60241 38.8083 2.81938 33.3103 2.81938 26.5521C2.81938 19.7917 9.60241 14.2937 17.941 14.2937Z" fill="black"/>
<path d="M17.9395 38.033C10.4097 38.033 4.30567 33.0533 4.30567 26.9105C4.30567 20.7676 10.4097 15.7879 17.9395 15.7879C25.4692 15.7879 31.5732 20.7676 31.5732 26.9105C31.5732 33.0533 25.4692 38.033 17.9395 38.033Z" fill="black"/>
<path fill-rule="evenodd" clip-rule="evenodd" d="M17.9406 38.033C25.8548 38.033 32.292 33.0444 32.292 26.9116C32.292 20.7787 25.8548 15.7879 17.9406 15.7879C10.0265 15.7879 3.58928 20.7787 3.58928 26.9116C3.58928 33.0444 10.0265 38.033 17.9406 38.033ZM17.9406 16.5832C25.4012 16.5832 31.472 21.2165 31.472 26.9116C31.472 32.6045 25.4012 37.2377 17.9406 37.2377C10.4801 37.2377 4.4093 32.6045 4.4093 26.9116C4.4093 21.2165 10.4801 16.5832 17.9406 16.5832Z" fill="black"/>
<path d="M4.30619 25.8564C4.35025 26.2767 4.41854 26.6992 4.51107 27.1217C4.80628 28.4724 5.32839 29.7175 6.02674 30.8278C5.86372 31.1469 5.73374 31.4705 5.63681 31.7919C7.87067 35.4867 12.5631 38.033 17.9891 38.033C18.9563 38.033 19.8991 37.9499 20.809 37.7971C27.1735 36.0103 31.5619 31.8683 30.7622 28.223C30.5375 27.1914 29.9185 26.3037 28.9998 25.589C29.1694 24.2787 29.121 22.928 28.8236 21.5751C28.6561 20.8087 28.416 20.0783 28.112 19.3861C25.6006 17.1746 21.9942 15.7879 17.9891 15.7879C10.8359 15.7879 4.96049 20.2086 4.30619 25.8564Z" fill="#B0401E"/>
<path fill-rule="evenodd" clip-rule="evenodd" d="M17.6301 38.033C18.5987 38.033 19.5673 37.9567 20.5095 37.8019C20.5212 37.8005 20.533 37.7976 20.5448 37.7932C27.2037 35.9836 31.5922 31.8215 30.7538 28.1107C30.5265 27.11 29.9418 26.2248 29.0151 25.4835C29.1629 24.2059 29.0945 22.9217 28.8099 21.6637C28.64 20.9115 28.3929 20.1768 28.0774 19.4769C28.0553 19.4311 28.0267 19.3919 27.9891 19.3613C25.3282 17.0895 21.5531 15.7879 17.6301 15.7879C14.1087 15.7879 10.7395 16.8148 8.13821 18.6811C5.53687 20.5496 3.91958 23.0961 3.59083 25.8498C3.58789 25.8759 3.58789 25.9014 3.59083 25.9261C3.63717 26.3491 3.70777 26.7742 3.80264 27.1885C4.08727 28.4465 4.57709 29.6369 5.26328 30.7314C5.12868 31.0039 5.02058 31.2786 4.93674 31.5511C4.90805 31.6427 4.92129 31.7408 4.97203 31.8237C6.12156 33.6638 7.8911 35.2162 10.0931 36.315C12.3458 37.44 14.9516 38.033 17.6301 38.033ZM20.3815 37.1479C19.4813 37.2939 18.5546 37.3681 17.6301 37.3681C12.5091 37.3681 7.92639 35.1616 5.62733 31.6035C5.71117 31.3571 5.81929 31.1107 5.94947 30.8644C6.00463 30.7597 5.998 30.6311 5.93181 30.5308C5.2368 29.4603 4.74257 28.2873 4.46015 27.0424C4.3741 26.6652 4.31012 26.2771 4.26378 25.8912C4.93453 20.5082 10.6712 16.4551 17.6301 16.4551C21.3655 16.4551 24.9531 17.6782 27.4905 19.817C27.7751 20.4558 27.998 21.1252 28.1524 21.8098C28.4326 23.0525 28.4922 24.3236 28.3223 25.586C28.3069 25.7037 28.3576 25.8214 28.4525 25.8934C29.3395 26.5627 29.8911 27.3563 30.094 28.2568C30.8398 31.5555 26.5748 35.4582 20.3815 37.1479Z" fill="black"/>
<path d="M18.9603 17.3597C17.3762 17.7055 16.0877 18.6504 15.2866 19.8949C14.0027 19.0491 12.3779 18.6989 10.7464 19.0557C6.44991 19.994 4.32197 26.3022 8.66586 29.2779C7.34803 29.214 6.1024 29.8638 5.42317 30.9695C5.25618 31.2823 5.12304 31.5995 5.02376 31.9144C7.31192 35.5355 12.1184 38.031 17.6763 38.031C18.667 38.031 19.6328 37.9495 20.5648 37.7997C27.084 36.0487 31.5791 31.9893 30.7599 28.4167C30.5298 27.4057 29.8957 26.5357 28.9547 25.8353C27.8129 25.3155 26.5785 25.314 25.2517 25.8309C25.985 24.6239 26.2671 23.1547 25.9286 21.6768C25.2268 18.6064 22.106 16.6725 18.9603 17.3597Z" fill="#FFCAA1"/>
<path fill-rule="evenodd" clip-rule="evenodd" d="M17.681 38.0316C18.6465 38.0316 19.6141 37.9517 20.553 37.7962C20.5619 37.7947 20.5714 37.7925 20.5817 37.7895C27.2138 35.9548 31.5858 31.7477 30.7552 28.0049C30.5188 26.9453 29.8914 26.0146 28.8862 25.2439C28.8715 25.232 28.8553 25.2224 28.8376 25.215C27.8434 24.7485 26.772 24.673 25.6453 24.984C26.1733 23.8045 26.308 22.4873 26.0253 21.21C25.3051 17.9715 22.0995 15.9257 18.8784 16.6498C17.3961 16.983 16.1213 17.8471 15.2642 19.0976C13.932 18.2758 12.3723 18.0159 10.8391 18.3602C8.64977 18.8511 6.85589 20.8169 6.37649 23.2469C5.96336 25.3438 6.61508 27.3318 8.13281 28.6979C7.02821 28.8623 6.04069 29.5131 5.45303 30.4994C5.45009 30.5038 5.44714 30.509 5.4442 30.5149C5.27409 30.8459 5.13491 31.1813 5.03549 31.5145C5.0134 31.5878 5.02224 31.67 5.06421 31.7366C6.20859 33.6002 7.97154 35.1751 10.1653 36.288C12.4099 37.4275 15.0101 38.0316 17.681 38.0316ZM20.4514 37.2609C19.5456 37.4119 18.6133 37.4874 17.681 37.4874C12.5181 37.4874 7.89643 35.2173 5.59001 31.5567C5.67617 31.2968 5.78663 31.0325 5.92139 30.7726C6.53555 29.7463 7.65784 29.1466 8.84639 29.2066C8.96569 29.211 9.07615 29.1377 9.11592 29.0222C9.15568 28.9089 9.1137 28.7823 9.0165 28.7112C7.27564 27.4829 6.48695 25.4793 6.9067 23.3536C7.34633 21.1301 8.97232 19.3353 10.9562 18.8888C12.4319 18.5579 13.9364 18.8444 15.1913 19.6952C15.2509 19.7374 15.326 19.7507 15.3989 19.7351C15.4696 19.7218 15.5337 19.6774 15.5712 19.6152C16.3511 18.3668 17.5662 17.5005 18.9955 17.1785C21.9249 16.521 24.8433 18.3824 25.4972 21.3278C25.8021 22.6961 25.5768 24.1132 24.8654 25.3172C24.8146 25.4016 24.8146 25.506 24.861 25.5904C24.9273 25.7059 25.0753 25.757 25.1968 25.7081C26.4251 25.2172 27.5319 25.2128 28.5813 25.6948C29.4672 26.3811 30.0217 27.1986 30.2272 28.1226C30.9827 31.5211 26.688 35.5327 20.4514 37.2609Z" fill="black"/>
<path d="M9.39985 31.3422C8.1875 31.047 7.31842 31.7387 8.35697 33.1969C12.8131 39.457 25.808 36.512 27.2093 28.9214C27.5352 27.1548 26.4598 26.9037 25.4864 27.6967C21.2301 31.1616 14.7077 32.6396 9.39985 31.3422Z" fill="white"/>
<path fill-rule="evenodd" clip-rule="evenodd" d="M16.2593 37.3141C17.2639 37.3141 18.3035 37.1953 19.3585 36.9553C23.8942 35.9171 27.2565 32.9032 27.9211 29.2748C28.147 28.0392 27.7259 27.575 27.4517 27.4068C27.0043 27.1332 26.3529 27.27 25.7519 27.7634C21.4882 31.2616 15.0552 32.7327 9.74087 31.4231C8.99295 31.237 8.34593 31.3984 8.05641 31.8425C7.87876 32.1116 7.69013 32.717 8.40734 33.7374C10.0304 36.0337 12.9409 37.3141 16.2593 37.3141ZM26.9275 27.8149C27.0218 27.8149 27.1074 27.8351 27.1776 27.8777C27.4364 28.0369 27.5153 28.5101 27.3947 29.1739C26.7696 32.587 23.5696 35.4304 19.24 36.4194C14.9127 37.4106 10.8309 36.231 8.84381 33.4144C8.45779 32.8673 8.33277 32.4053 8.50165 32.1474C8.66176 31.903 9.09823 31.829 9.61585 31.9546C15.0815 33.3023 21.7009 31.7886 26.0875 28.1894C26.3836 27.9472 26.6885 27.8149 26.9275 27.8149Z" fill="black"/>
<path d="M4.30506 27.3026C4.30506 28.8334 4.70939 30.2827 5.43244 31.5753C5.51075 31.3072 5.61457 31.0392 5.74023 30.7712C5.16289 29.7923 4.73307 28.6924 4.48902 27.4972C4.42345 27.1835 4.37427 26.8678 4.33603 26.5522C4.31599 26.8003 4.30506 27.0505 4.30506 27.3026Z" fill="#FFCAA1"/>
<path fill-rule="evenodd" clip-rule="evenodd" d="M5.61342 32.2915C5.62916 32.2915 5.6449 32.2908 5.66063 32.2892C5.81802 32.2733 5.94917 32.1799 5.99639 32.0501C6.10131 31.7632 6.24033 31.4717 6.41346 31.1825C6.47903 31.0709 6.47379 30.9389 6.3951 30.8341C5.56883 29.716 4.97863 28.4909 4.6455 27.1906C4.55632 26.8467 4.48549 26.4938 4.43303 26.1385C4.4068 25.9609 4.23368 25.8288 4.02908 25.8334C3.82448 25.8379 3.6566 25.9723 3.63562 26.1499C3.60414 26.4505 3.5884 26.7488 3.5884 27.0426C3.5884 28.8233 4.15498 30.5335 5.27242 32.1253C5.34586 32.23 5.47439 32.2915 5.61342 32.2915ZM5.59768 31.0413C5.58194 31.0717 5.56533 31.1021 5.54784 31.1324C5.38696 30.8607 5.24269 30.5859 5.11503 30.3081C5.26542 30.557 5.42631 30.8015 5.59768 31.0413Z" fill="black"/>
<path d="M5.24871 31.5732C5.40442 31.4799 5.54137 31.3594 5.65956 31.2161C5.68583 31.1478 5.71209 31.0841 5.74023 31.0159C5.25246 30.0945 4.866 29.0777 4.60335 27.9857C4.5058 27.9834 4.40449 27.9903 4.30506 28.0107C4.41575 29.2688 4.74406 30.4676 5.24871 31.5732Z" fill="#FF9999"/>
<path fill-rule="evenodd" clip-rule="evenodd" d="M5.34659 31.5732C5.40824 31.5732 5.46988 31.5637 5.52885 31.5427C5.78617 31.4513 6.02204 31.3332 6.22575 31.1864C6.25792 31.1636 6.28204 31.1369 6.30349 31.1083C6.33833 31.055 6.37585 31.0016 6.41338 30.9483C6.48039 30.8568 6.47235 30.7463 6.39462 30.6587C5.70576 29.8947 5.17504 29.0659 4.81855 28.1952C4.76762 28.0732 4.61217 27.9894 4.43526 27.9856C4.26372 27.9837 4.09485 27.9913 3.93135 28.0103C3.71692 28.0351 3.56682 28.1742 3.59094 28.3285C3.75177 29.4012 4.22351 30.4415 4.9901 31.4227C5.06515 31.518 5.20453 31.5732 5.34659 31.5732ZM5.57174 30.8244C5.54851 30.8397 5.52528 30.8543 5.50205 30.8683C5.35373 30.6587 5.21883 30.4472 5.09732 30.2338C5.24742 30.4345 5.40556 30.6314 5.57174 30.8244Z" fill="black"/>
<path d="M17.5776 29.4205C17.7105 29.4205 17.8388 29.3483 17.8994 29.2265C18.0929 28.8362 18.5219 28.6197 18.9626 28.6873C19.1562 28.7167 19.338 28.5881 19.3707 28.4008C19.401 28.2136 19.2681 28.0354 19.0746 28.0061C18.3191 27.891 17.5893 28.261 17.2582 28.9264C17.1719 29.0979 17.2465 29.3032 17.4237 29.3866C17.4727 29.4092 17.5263 29.4205 17.5776 29.4205Z" fill="black"/>
<path d="M17.6108 29.4225C17.7076 29.4225 17.8022 29.3911 17.8667 29.3285C17.9807 29.2213 17.9592 29.063 17.8194 28.9739C17.2797 28.6392 16.5035 28.6145 15.9315 28.9129C15.781 28.9921 15.7423 29.1487 15.8434 29.2642C15.9466 29.378 16.1509 29.4093 16.3014 29.3301C16.6368 29.1553 17.0905 29.1702 17.4044 29.3664C17.4646 29.4043 17.5377 29.4225 17.6108 29.4225Z" fill="black"/>
<path d="M17.7357 31.5752C17.7507 31.5752 17.7654 31.5723 17.7796 31.5664C17.89 31.5265 17.9592 31.3449 17.9352 31.1632C17.7995 30.1465 17.741 29.7367 17.6226 28.9614C17.5946 28.7798 17.4842 28.669 17.3752 28.7155C17.2661 28.762 17.2009 28.9481 17.2288 29.1275C17.3459 29.894 17.4031 30.3015 17.5374 31.3094C17.5587 31.4667 17.6425 31.5752 17.7357 31.5752Z" fill="black"/>
<path d="M27.3362 28.8432C26.8105 29.5126 26.1322 30.0939 25.4 30.6092C24.6631 31.1244 23.8698 31.5758 23.0531 31.9898C22.9686 32.0317 22.9381 32.1307 22.9827 32.2078C23.0273 32.2827 23.1235 32.3135 23.2057 32.2783C24.0623 31.9105 24.9024 31.5032 25.7027 31.0187C26.5007 30.5321 27.2634 29.9662 27.8994 29.2593C28.0285 29.1162 28.0097 28.9048 27.8595 28.7837C27.707 28.6648 27.4817 28.6824 27.3526 28.8233C27.3479 28.8292 27.3432 28.8351 27.3385 28.8409L27.3362 28.8432Z" fill="black"/>
<path opacity="0.3" d="M26.4597 27.6418C26.1654 29.3732 24.8361 30.9093 23.6809 32.291C26.0927 31.0098 27.2886 29.6345 27.2686 28.1651C27.2325 27.1716 27.3646 27.0125 26.4597 27.6418Z" fill="black"/>
<path d="M8.09735 33.6444C8.96289 34.017 9.87292 34.2119 10.7763 34.3224C11.6819 34.4329 12.5897 34.4567 13.4908 34.4394C13.5731 34.4372 13.6377 34.3722 13.6354 34.2921C13.6332 34.2163 13.5731 34.1556 13.4953 34.1513C12.6053 34.1058 11.7175 34.0192 10.8542 33.8524C9.99308 33.6856 9.14756 33.4365 8.39773 33.0488H8.39551C8.22863 32.9621 8.02392 33.0228 7.93492 33.1852C7.84592 33.3455 7.91045 33.547 8.0751 33.6336C8.084 33.6358 8.09068 33.6401 8.09735 33.6444Z" fill="black"/>
<path opacity="0.3" d="M8.18123 32.5149C8.76172 33.8752 10.5798 34.5162 13.6355 34.4378C11.8569 33.7691 9.83446 33.0489 8.81512 31.611C7.60539 31.5032 7.81204 31.5816 8.18123 32.5149Z" fill="black"/>
<path fill-rule="evenodd" clip-rule="evenodd" d="M17.6301 38.033C18.5987 38.033 19.5673 37.9567 20.5095 37.8019C20.5212 37.8005 20.533 37.7976 20.5448 37.7932C27.2037 35.9836 31.5922 31.8215 30.7538 28.1107C30.5265 27.11 29.9418 26.2248 29.0151 25.4835C29.1629 24.2059 29.0945 22.9217 28.8099 21.6637C28.64 20.9115 28.3929 20.1768 28.0774 19.4769C28.0553 19.4311 28.0267 19.3919 27.9891 19.3613C25.3282 17.0895 21.5531 15.7879 17.6301 15.7879C14.1087 15.7879 10.7395 16.8148 8.13821 18.6811C5.53687 20.5496 3.91958 23.0961 3.59083 25.8498C3.58789 25.8759 3.58789 25.9014 3.59083 25.9261C3.63717 26.3491 3.70777 26.7742 3.80264 27.1885C4.08727 28.4465 4.57709 29.6369 5.26328 30.7314C5.12868 31.0039 5.02058 31.2786 4.93674 31.5511C4.90805 31.6427 4.92129 31.7408 4.97203 31.8237C6.12156 33.6638 7.8911 35.2162 10.0931 36.315C12.3458 37.44 14.9516 38.033 17.6301 38.033ZM20.3815 37.1479C19.4813 37.2939 18.5546 37.3681 17.6301 37.3681C12.5091 37.3681 7.92639 35.1616 5.62733 31.6035C5.71117 31.3571 5.81929 31.1107 5.94947 30.8644C6.00463 30.7597 5.998 30.6311 5.93181 30.5308C5.2368 29.4603 4.74257 28.2873 4.46015 27.0424C4.3741 26.6652 4.31012 26.2771 4.26378 25.8912C4.93453 20.5082 10.6712 16.4551 17.6301 16.4551C21.3655 16.4551 24.9531 17.6782 27.4905 19.817C27.7751 20.4558 27.998 21.1252 28.1524 21.8098C28.4326 23.0525 28.4922 24.3236 28.3223 25.586C28.3069 25.7037 28.3576 25.8214 28.4525 25.8934C29.3395 26.5627 29.8911 27.3563 30.094 28.2568C30.8398 31.5555 26.5748 35.4582 20.3815 37.1479Z" fill="black"/>
<path d="M35.2963 18.6843C33.3414 18.9221 32.017 20.7087 32.3396 22.6763C32.6621 24.6438 34.507 26.0453 36.4619 25.8075C38.4168 25.5719 39.7412 23.7831 39.4187 21.8156C39.0961 19.848 37.2488 18.4465 35.2963 18.6843Z" fill="white"/>
<path fill-rule="evenodd" clip-rule="evenodd" d="M36.0087 26.5517C36.1564 26.5517 36.3048 26.5403 36.454 26.5175C37.4098 26.3762 38.2462 25.7904 38.8066 24.8696C39.3541 23.9693 39.5713 22.8502 39.4192 21.722C39.1043 19.3653 37.2556 17.6855 35.3048 17.9726C33.3519 18.2621 32.0203 20.4137 32.3374 22.7704C32.4895 23.8987 32.9935 24.9106 33.756 25.6172C34.4163 26.228 35.2027 26.5517 36.0087 26.5517ZM35.7436 18.7772C37.1361 18.7772 38.3939 20.0764 38.6307 21.8382C38.7567 22.7704 38.5807 23.6867 38.1354 24.4206C37.7009 25.1317 37.0644 25.583 36.341 25.6901C35.6198 25.7973 34.8877 25.5488 34.2838 24.9904C33.6625 24.4138 33.252 23.5841 33.126 22.6519C32.8718 20.7533 33.8993 19.0257 35.4156 18.8C35.5257 18.7848 35.635 18.7772 35.7436 18.7772Z" fill="black"/>
<path d="M37.8746 25.5968C39.0062 24.8523 39.6539 23.4407 39.4193 21.9275C39.1504 20.2154 37.8355 18.912 36.2811 18.658C36.2029 18.658 36.1223 18.6646 36.0416 18.6757C34.4847 18.8745 33.4754 20.6329 33.7809 22.6057C34.0888 24.5762 35.5992 26.0143 37.1561 25.8155C37.4127 25.7845 37.6522 25.7094 37.8746 25.5968Z" fill="white"/>
<path fill-rule="evenodd" clip-rule="evenodd" d="M36.8318 25.8341C36.9342 25.8341 37.0359 25.8267 37.1369 25.8119C37.3986 25.7742 37.6518 25.6876 37.8876 25.5521C37.8991 25.5462 37.9107 25.5388 37.9222 25.5299C39.0515 24.6862 39.64 23.1119 39.4215 21.5199C39.1705 19.7014 37.92 18.2315 36.3753 17.9451C36.3537 17.9422 36.3313 17.9407 36.3082 17.9407C36.2217 17.9429 36.1373 17.9496 36.0573 17.9607C34.5039 18.1871 33.4806 20.13 33.777 22.2948C33.9176 23.3229 34.333 24.2532 34.9431 24.9127C35.4991 25.5144 36.1611 25.8341 36.8318 25.8341ZM37.5501 24.9682C37.39 25.057 37.2191 25.1147 37.046 25.1391C36.4878 25.2191 35.9123 24.9726 35.4234 24.4464C34.9063 23.8868 34.5537 23.0897 34.4325 22.1994C34.1859 20.4053 34.9561 18.8066 36.1503 18.6334C36.1965 18.6275 36.2433 18.6231 36.2909 18.6201C37.5436 18.871 38.5583 20.0967 38.766 21.6154C38.9499 22.9543 38.4739 24.2665 37.5501 24.9682Z" fill="black"/>
<path d="M23.1052 10.0482C22.6125 11.6741 23.4383 11.8963 24.8528 10.8152C25.8976 10.0183 27.1296 9.62306 28.3159 9.34318C29.4315 8.13821 27.9851 6.59781 25.8726 7.39471C24.8094 7.73014 23.5752 8.49927 23.1052 10.0482Z" fill="#FF8B13"/>
<path fill-rule="evenodd" clip-rule="evenodd" d="M23.1475 12.1984C23.5822 12.1984 24.1267 11.9497 24.7721 11.4524C25.785 10.677 26.9794 10.3209 28.0147 10.0764C28.0954 10.0553 28.1693 10.0132 28.2254 9.9542C28.7901 9.34101 28.8595 8.55503 28.4024 7.95448C27.9094 7.30336 26.78 6.88614 25.3704 7.41715C24.4965 7.6953 22.9592 8.43703 22.399 10.2914C22.1279 11.1932 22.213 11.7896 22.6567 12.0656C22.8016 12.1541 22.9652 12.1984 23.1475 12.1984ZM27.6786 9.35787C26.6433 9.61073 25.348 10.0132 24.2522 10.854C23.5195 11.4166 23.1632 11.4419 23.1071 11.4187C23.1094 11.4187 22.9682 11.2354 23.19 10.5021C23.6494 8.98068 24.9245 8.37381 25.6438 8.14624C25.6513 8.14343 25.6588 8.14062 25.6662 8.13781C26.6679 7.75852 27.4254 7.99873 27.7346 8.40331C27.952 8.692 27.9318 9.03336 27.6786 9.35787Z" fill="black"/>
<path d="M5.74711 13.5475C5.69947 13.9328 6.03515 14.2659 6.4163 14.3355C6.79529 14.4074 7.23275 14.2223 7.32154 13.8435C7.68537 12.2936 8.76386 10.7764 10.0481 9.82288C8.26143 8.83024 6.28852 8.98697 5.74711 13.5475Z" fill="#FF8B13"/>
<path fill-rule="evenodd" clip-rule="evenodd" d="M6.2323 15.0683C6.71637 15.0683 7.2303 14.7937 7.35398 14.2657C7.67811 12.8815 8.65052 11.448 9.88948 10.5295C9.99611 10.4501 10.0558 10.3213 10.0473 10.1861C10.0388 10.053 9.96412 9.93286 9.84684 9.86848C8.76567 9.26544 7.81672 9.16672 7.02771 9.57232C5.9764 10.1153 5.30468 11.5488 5.03172 13.8365C4.96561 14.4009 5.39424 14.9331 6.00839 15.0469C6.08089 15.0619 6.15766 15.0683 6.2323 15.0683ZM8.92774 10.2998C7.78687 11.3171 6.91256 12.7184 6.59269 14.0855C6.55857 14.2314 6.32826 14.3065 6.15127 14.2743C5.97427 14.24 5.79088 14.0876 5.81007 13.9309C6.04464 11.948 6.59055 10.6818 7.38383 10.2741C7.80606 10.0552 8.32425 10.0659 8.92774 10.2998Z" fill="black"/>
<path opacity="0.3" d="M37.8618 21.9398C38.1227 23.3695 37.5986 24.8259 36.4634 25.8338C38.4681 25.3743 39.753 23.5738 39.4124 21.7C39.0719 19.8263 37.2218 18.5075 35.1615 18.6718C36.5914 19.2845 37.601 20.5078 37.8618 21.9398Z" fill="black"/>
<path opacity="0.3" d="M7.89376 14.3508C8.62952 12.9901 9.7404 11.7538 11.2264 10.6419C11.795 9.15835 11.414 8.93081 10.0813 9.95928C9.2205 10.4326 8.49001 11.8956 7.89376 14.3508Z" fill="black"/>
<path opacity="0.3" d="M28.2853 7.5254C27.7858 7.0734 27.0096 7.05701 26.4905 7.48793C26.8627 7.32399 27.3034 7.45046 27.5189 7.78301C27.7319 8.11791 27.7197 8.66358 27.3353 8.79472C25.751 9.3404 24.2548 10.1156 22.962 11.4762C23.6819 11.5465 25.5012 10.8002 28.42 9.23735C28.8436 8.71978 28.7849 7.97739 28.2853 7.5254Z" fill="black"/>
<path opacity="0.3" d="M8.91654 10.0469C7.06367 11.4773 6.25853 12.9125 6.50114 14.3524C7.28003 12.9614 8.22065 11.6856 9.32301 10.5253C9.36132 10.5239 9.22583 10.3645 8.91654 10.0469Z" fill="black"/>
<path opacity="0.3" d="M5.7408 31.1346C7.92033 34.7886 12.5926 37.3158 18.0023 37.3158C25.498 37.3158 31.5732 32.4671 31.5732 26.4872C31.5732 23.7653 30.316 21.2775 28.2365 19.3761C29.0783 20.783 29.5481 22.3606 29.5481 24.0235C29.5481 30.0034 23.4707 34.852 15.975 34.852C14.8483 34.852 13.7542 34.7426 12.7079 34.5348C13.0516 34.4013 13.4018 34.2481 13.7563 34.0687C12.3425 34.0921 10.8945 33.882 9.4125 33.4386C9.42555 33.467 9.44078 33.4933 9.45166 33.5195C8.04432 32.9047 6.78706 32.0951 5.7408 31.1346Z" fill="black"/>
<path fill-rule="evenodd" clip-rule="evenodd" d="M18.2994 38.033C26.0149 38.033 32.292 33.0431 32.292 26.9105C32.292 20.7778 26.0149 15.7879 18.2994 15.7879C10.5839 15.7879 4.30684 20.7778 4.30684 26.9105C4.30684 33.0431 10.5839 38.033 18.2994 38.033ZM18.2994 16.3231C25.718 16.3231 31.7531 21.0739 31.7531 26.9105C31.7531 32.747 25.718 37.4957 18.2994 37.4957C10.8808 37.4957 4.8457 32.747 4.8457 26.9105C4.8457 21.0739 10.8808 16.3231 18.2994 16.3231Z" fill="black"/>
<path d="M10.286 26.8733C10.7791 28.2079 11.8746 28.9848 12.7345 28.6082C13.592 28.2317 13.8907 26.8447 13.3976 25.5101C12.9045 24.1755 11.809 23.3985 10.9491 23.7751C10.0892 24.1516 9.79286 25.5387 10.286 26.8733Z" fill="black"/>
<path d="M10.7651 25.0629C10.7498 25.4566 11.0605 25.8005 11.4563 25.8311C11.8522 25.8598 12.1841 25.5636 12.1994 25.168C12.2115 24.7743 11.9009 24.4284 11.5051 24.3998C11.1092 24.3711 10.7773 24.6673 10.7651 25.0629Z" fill="white"/>
<path d="M20.5635 22.2444C19.7813 22.2755 19.2599 23.2663 19.3976 24.4544C19.5331 25.6446 20.2778 26.5814 21.0579 26.5482C21.838 26.517 22.3615 25.5262 22.2239 24.3381C22.0862 23.1479 21.3436 22.2112 20.5635 22.2444Z" fill="black"/>
<path d="M20.3393 23.0125C20.0413 23.1562 20.0103 23.573 20.2718 23.9418C20.5333 24.3107 20.986 24.494 21.2841 24.3482C21.5822 24.2044 21.6131 23.7876 21.3516 23.4188C21.0901 23.05 20.6374 22.8687 20.3393 23.0125Z" fill="white"/>
<path d="M20.1613 25.1714C20.0446 25.2794 20.0818 25.5015 20.2432 25.6676C20.4046 25.8337 20.628 25.8835 20.7447 25.7756C20.8589 25.6676 20.8216 25.4455 20.6603 25.2794C20.4989 25.1133 20.2755 25.0656 20.1613 25.1714Z" fill="white"/>
<path opacity="0.2" d="M28.7026 24.0707C28.6983 23.258 28.6116 22.4386 28.4359 21.6169C28.2712 20.845 28.0348 20.1093 27.7356 19.412C25.2638 17.1846 21.7143 15.7879 17.7724 15.7879C10.7321 15.7879 4.9493 20.2406 4.30533 25.9292C4.3487 26.3525 4.41591 26.778 4.50698 27.2036C4.51132 27.2263 4.51782 27.2466 4.52216 27.2693C5.42849 21.8115 11.0812 17.6056 17.922 17.6056C21.8639 17.6056 25.4134 19.0023 27.8852 21.2298C28.1844 21.927 28.4208 22.6627 28.5855 23.4346C28.6311 23.6474 28.6679 23.8579 28.7026 24.0707Z" fill="black"/>
<path opacity="0.2" d="M5.06252 31.5739C5.04802 31.5979 5.03352 31.6219 5.02265 31.6459C5.24735 31.8654 5.48654 32.0806 5.74023 32.2915C5.50104 32.0581 5.27272 31.8182 5.06252 31.5739Z" fill="black"/>
<path opacity="0.2" d="M30.8081 29.4212C30.8889 28.9732 30.8694 28.5252 30.7385 28.0877C30.4796 27.2188 29.8115 26.4625 28.8232 25.8333C28.8287 26.3333 28.7897 26.8292 28.7034 27.3188C29.7252 27.9022 30.4518 28.6086 30.8081 29.4212Z" fill="black"/>
<path fill-rule="evenodd" clip-rule="evenodd" d="M17.2134 3.55895C17.8938 4.84534 18.0095 6.25427 17.9081 7.17637L16.7514 7.04817C16.8324 6.31094 16.7356 5.14685 16.1856 4.10696C15.6502 3.09465 14.6745 2.17346 12.917 1.86961L13.1145 0.718109C15.246 1.08661 16.5185 2.24497 17.2134 3.55895Z" fill="black"/>
<path d="M15.07 1.43517C15.07 2.22779 14.4275 2.87034 13.6349 2.87034C12.8423 2.87034 12.1997 2.22779 12.1997 1.43517C12.1997 0.642548 12.8423 0 13.6349 0C14.4275 0 15.07 0.642548 15.07 1.43517Z" fill="black"/>
<path fill-rule="evenodd" clip-rule="evenodd" d="M19.9012 1.39814C19.9017 1.39791 19.9007 1.40307 19.8967 1.41432C19.8987 1.40399 19.9007 1.39837 19.9012 1.39814ZM19.4887 1.99924C19.418 2.01442 19.3425 2.03226 19.2622 2.05304C18.4467 2.26424 17.3525 2.72322 16.1948 3.39649C15.0371 4.06975 14.0971 4.79379 13.5102 5.39819C13.4524 5.45766 13.3996 5.51445 13.3514 5.56844C13.4222 5.55326 13.4976 5.53543 13.5779 5.51465C14.3934 5.30345 15.4876 4.84446 16.6453 4.1712C17.803 3.49794 18.7431 2.77389 19.3299 2.1695C19.3877 2.11003 19.4405 2.05323 19.4887 1.99924ZM12.625 5.62971C12.6254 5.62939 12.6313 5.63042 12.6413 5.63375C12.6295 5.63169 12.6245 5.63003 12.625 5.62971ZM12.9389 6.16955C12.9384 6.16978 12.9394 6.16462 12.9434 6.15337C12.9414 6.1637 12.9394 6.16932 12.9389 6.16955ZM20.1988 1.93393C20.2106 1.936 20.2156 1.93766 20.2152 1.93798C20.2147 1.93829 20.2088 1.93726 20.1988 1.93393ZM17.1357 5.01445C19.5598 3.60469 21.2045 1.91089 20.8093 1.23125C20.4141 0.5516 18.1285 1.14348 15.7044 2.55324C13.2803 3.963 11.6356 5.6568 12.0308 6.33644C12.4261 7.01609 14.7116 6.42421 17.1357 5.01445Z" fill="black"/>
<path d="M57.5955 40.7886L63.0929 28.4547H65.912L71.427 40.7886H68.4317L63.921 29.8995H65.0487L60.5204 40.7886H57.5955ZM60.3442 38.1456L61.1018 35.9783H67.445L68.2202 38.1456H60.3442Z" fill="black"/>
<path d="M73.1472 40.7886V28.4547H78.486C79.5902 28.4547 80.5416 28.6367 81.3404 29.0009C82.1392 29.3533 82.7559 29.8643 83.1905 30.5338C83.6251 31.2034 83.8424 32.0021 83.8424 32.9301C83.8424 33.8463 83.6251 34.6392 83.1905 35.3088C82.7559 35.9783 82.1392 36.4952 81.3404 36.8593C80.5416 37.2117 79.5902 37.3879 78.486 37.3879H74.733L76.0016 36.1017V40.7886H73.1472ZM76.0016 36.4188L74.733 35.0621H78.3274C79.2084 35.0621 79.8662 34.8742 80.3008 34.4983C80.7355 34.1224 80.9528 33.5997 80.9528 32.9301C80.9528 32.2488 80.7355 31.7202 80.3008 31.3443C79.8662 30.9684 79.2084 30.7805 78.3274 30.7805H74.733L76.0016 29.4238V36.4188Z" fill="black"/>
<path d="M88.9461 33.4235H94.884V35.6436H88.9461V33.4235ZM89.1576 38.498H95.8707V40.7886H86.3208V28.4547H95.6417V30.7452H89.1576V38.498Z" fill="black"/>
<path d="M102.635 41C101.648 41 100.703 40.8708 99.7982 40.6124C98.8937 40.3422 98.1654 39.9957 97.6133 39.5728L98.5824 37.4232C99.111 37.7991 99.7336 38.1103 100.45 38.357C101.178 38.592 101.913 38.7094 102.653 38.7094C103.216 38.7094 103.669 38.6566 104.009 38.5508C104.362 38.4334 104.62 38.2748 104.785 38.0751C104.949 37.8754 105.031 37.6464 105.031 37.3879C105.031 37.059 104.902 36.8006 104.644 36.6127C104.385 36.413 104.045 36.2544 103.622 36.1369C103.199 36.0077 102.729 35.8902 102.212 35.7845C101.707 35.6671 101.196 35.5261 100.679 35.3616C100.174 35.1972 99.7101 34.9858 99.2872 34.7273C98.8643 34.4689 98.5178 34.1283 98.2476 33.7054C97.9892 33.2825 97.86 32.7422 97.86 32.0844C97.86 31.3796 98.0479 30.7394 98.4238 30.1638C98.8115 29.5765 99.387 29.1125 100.151 28.7718C100.926 28.4194 101.895 28.2432 103.058 28.2432C103.833 28.2432 104.597 28.3372 105.348 28.5251C106.1 28.7013 106.764 28.9715 107.339 29.3357L106.458 31.5029C105.883 31.174 105.307 30.9332 104.732 30.7805C104.156 30.616 103.592 30.5338 103.04 30.5338C102.488 30.5338 102.036 30.5984 101.684 30.7276C101.331 30.8568 101.079 31.0272 100.926 31.2386C100.773 31.4383 100.697 31.6732 100.697 31.9434C100.697 32.2606 100.826 32.519 101.084 32.7187C101.343 32.9066 101.684 33.0593 102.106 33.1768C102.529 33.2943 102.993 33.4117 103.498 33.5292C104.015 33.6466 104.526 33.7817 105.031 33.9344C105.548 34.0871 106.018 34.2927 106.441 34.5511C106.864 34.8096 107.204 35.1502 107.463 35.5731C107.733 35.996 107.868 36.5304 107.868 37.1765C107.868 37.8695 107.674 38.5039 107.287 39.0794C106.899 39.655 106.318 40.119 105.542 40.4714C104.779 40.8238 103.81 41 102.635 41Z" fill="black"/>
<path d="M50.1518 26.204C49.1651 26.204 48.2195 26.0748 47.315 25.8163C46.4105 25.5462 45.6822 25.1996 45.1301 24.7768L46.0992 22.6271C46.6278 23.003 47.2504 23.3143 47.9669 23.561C48.6952 23.7959 49.4294 23.9134 50.1694 23.9134C50.7332 23.9134 51.1855 23.8605 51.5261 23.7548C51.8785 23.6374 52.137 23.4788 52.3014 23.2791C52.4659 23.0794 52.5481 22.8503 52.5481 22.5919C52.5481 22.263 52.4189 22.0046 52.1604 21.8166C51.902 21.6169 51.5614 21.4584 51.1385 21.3409C50.7156 21.2117 50.2458 21.0942 49.7289 20.9885C49.2238 20.871 48.7128 20.7301 48.196 20.5656C47.6909 20.4012 47.2269 20.1897 46.804 19.9313C46.3811 19.6729 46.0346 19.3322 45.7644 18.9094C45.506 18.4865 45.3768 17.9461 45.3768 17.2883C45.3768 16.5835 45.5648 15.9434 45.9406 15.3678C46.3283 14.7804 46.9039 14.3164 47.6674 13.9758C48.4427 13.6234 49.4118 13.4472 50.5747 13.4472C51.3499 13.4472 52.1135 13.5412 52.8652 13.7291C53.617 13.9053 54.2807 14.1755 54.8563 14.5396L53.9753 16.7069C53.3997 16.378 52.8241 16.1372 52.2485 15.9845C51.673 15.82 51.1091 15.7378 50.557 15.7378C50.005 15.7378 49.5527 15.8024 49.2003 15.9316C48.8479 16.0608 48.5954 16.2311 48.4427 16.4426C48.29 16.6423 48.2136 16.8772 48.2136 17.1474C48.2136 17.4645 48.3428 17.723 48.6012 17.9226C48.8597 18.1106 49.2003 18.2633 49.6232 18.3808C50.0461 18.4982 50.5101 18.6157 51.0152 18.7332C51.532 18.8506 52.043 18.9857 52.5481 19.1384C53.0649 19.2911 53.5348 19.4967 53.9577 19.7551C54.3806 20.0135 54.7212 20.3542 54.9796 20.7771C55.2498 21.1999 55.3849 21.7344 55.3849 22.3805C55.3849 23.0735 55.1911 23.7078 54.8034 24.2834C54.4158 24.859 53.8343 25.323 53.0591 25.6754C52.2955 26.0278 51.3264 26.204 50.1518 26.204Z" fill="black"/>
<path d="M57.7758 25.9925V13.6586H60.1369L65.3876 22.3629H64.1366L69.2992 13.6586H71.6426L71.6779 25.9925H68.9997L68.982 17.7641H69.4754L65.3524 24.6887H64.0661L59.855 17.7641H60.454V25.9925H57.7758Z" fill="black"/>
<path d="M73.4236 25.9925L78.921 13.6586H81.7402L87.2552 25.9925H84.2598L79.7491 15.1035H80.8768L76.3485 25.9925H73.4236ZM76.1723 23.3496L76.93 21.1823H83.2731L84.0484 23.3496H76.1723Z" fill="black"/>
<path d="M88.9753 25.9925V13.6586H94.3142C95.4183 13.6586 96.3698 13.8407 97.1686 14.2049C97.9673 14.5573 98.584 15.0682 99.0187 15.7378C99.4533 16.4073 99.6706 17.2061 99.6706 18.1341C99.6706 19.0503 99.4533 19.8432 99.0187 20.5128C98.584 21.1706 97.9673 21.6757 97.1686 22.0281C96.3698 22.3805 95.4183 22.5567 94.3142 22.5567H90.5611L91.8298 21.3057V25.9925H88.9753ZM96.8162 25.9925L93.7327 21.5171H96.7809L99.8997 25.9925H96.8162ZM91.8298 21.6228L90.5611 20.2837H94.1556C95.0366 20.2837 95.6944 20.0958 96.129 19.7199C96.5636 19.3322 96.7809 18.8036 96.7809 18.1341C96.7809 17.4528 96.5636 16.9242 96.129 16.5483C95.6944 16.1724 95.0366 15.9845 94.1556 15.9845H90.5611L91.8298 14.6277V21.6228Z" fill="black"/>
<path d="M104.755 25.9925V15.9845H100.809V13.6586H111.557V15.9845H107.61V25.9925H104.755Z" fill="black"/>
<g clip-path="url(#clip0_12451_82816)">
<path d="M143.115 2.25229L62.4551 10.5697L63.1806 12.8184L123.118 12.4268L115.951 20.415L115.575 22.4609L118.421 28.3787L109.283 35.2636L110.384 37.1585L124.532 29.5034L124.909 27.4574L123.865 21.8715L142.607 5.01433L143.115 2.25229Z" fill="black"/>
<path d="M143.504 0.140042L62.9535 7.86L63.689 10.0542L123.572 9.95722L116.449 17.7053L116.083 19.6967L118.955 25.4754L109.857 32.1393L110.967 33.9906L125.066 26.6001L125.433 24.6087L124.364 19.1619L143.009 2.82843L143.504 0.140042Z" fill="#FF8B13"/>
</g>
<defs>
<clipPath id="clip0_12451_82816">
<rect width="82.3889" height="40.3448" fill="white" transform="translate(61.115 0.143555)"/>
</clipPath>
</defs>
</svg>
