<svg width="135" height="59" viewBox="0 0 733 209" fill="none" xmlns="http://www.w3.org/2000/svg">
<path d="M0.0240507 136.363C0.396329 145.614 6.04819 153.9 14.667 157.835C8.80079 144.09 8.22168 129.429 12.9297 113.851C4.63803 118.421 -0.336946 127.102 0.0240507 136.363Z" fill="white"/>
<path fill-rule="evenodd" clip-rule="evenodd" d="M16.3043 161.511C16.8211 161.511 17.3159 161.312 17.7007 160.925C18.3054 160.304 18.4924 159.367 18.1735 158.546C12.6539 144.38 12.1042 129.042 16.5462 112.953C16.7771 112.11 16.5022 111.208 15.8645 110.657C15.2158 110.118 14.3252 110.048 13.6105 110.469C4.83635 115.777 -0.364388 125.749 0.020443 136.494C0.405275 147.239 6.32069 156.742 15.4467 161.312C15.7216 161.452 16.0185 161.511 16.3043 161.511ZM11.2575 117.617C8.62967 130.354 9.02551 142.622 12.423 154.246C7.40921 149.899 4.30856 143.431 4.05567 136.33C3.79179 129.147 6.47461 122.374 11.2575 117.617Z" fill="black"/>
<path d="M100.802 36.8838C55.2549 36.8838 18.3286 73.8023 18.3286 119.354C18.3286 164.894 55.2549 201.824 100.802 201.824C146.338 201.824 183.265 164.894 183.265 119.354C183.265 73.8023 146.338 36.8838 100.802 36.8838Z" fill="white"/>
<path d="M100.293 36.8838C53.1921 36.8838 15.6619 70.9737 13.3404 116.45L12.5552 118.489C10.7572 123.938 11.019 121.536 11.019 135.426C11.019 149.316 21.6135 175.758 41.7328 187.688L44.0656 189.376C110.273 227.477 186.938 195.086 186.938 122.953C186.938 75.4148 147.393 36.8838 100.293 36.8838Z" fill="#FF8B13"/>
<path fill-rule="evenodd" clip-rule="evenodd" d="M101.798 209.164C118.394 209.164 134.146 204.953 147.541 196.935C172.575 181.937 186.938 154.987 186.938 122.995C186.938 99.0911 177.822 76.5482 161.27 59.5083C144.807 42.5608 123.141 33.2275 100.264 33.2275C53.1082 33.2275 15.7797 68.7609 13.3007 115.935L12.656 117.7C12.6412 117.731 12.6301 117.761 12.6226 117.792C12.4337 118.381 12.278 118.865 12.1335 119.304C10.9886 122.799 10.9885 123.111 11.0108 131.083C11.0108 132.386 11.0108 133.909 11.0108 135.697C11.0108 150.718 21.7602 178.164 41.9363 190.682L44.1263 192.343C44.1855 192.389 44.2486 192.431 44.3152 192.47C61.5233 202.795 80.3654 208.552 98.774 209.117C99.7819 209.141 100.79 209.156 101.798 209.164ZM100.264 37.4615C145.807 37.4615 182.858 75.8329 182.858 122.995C182.858 153.441 169.24 179.053 145.507 193.266C117.227 210.202 79.276 208.518 46.4496 188.859L44.2597 187.209C44.2152 187.171 44.1633 187.136 44.104 187.105C25.4286 175.557 15.0905 149.38 15.0905 135.697C15.0905 133.909 15.0905 132.375 15.0905 131.071C15.0682 123.491 15.0682 123.491 15.9909 120.665C16.1354 120.226 16.3021 119.742 16.48 119.165L17.2248 117.123C17.3026 116.915 17.3471 116.696 17.3582 116.477C19.5592 71.4374 55.2092 37.4615 100.264 37.4615Z" fill="black"/>
<path d="M91.639 69.8818C47.1098 69.8818 11.0036 99.4232 11.0036 135.864C11.0036 172.293 47.1098 201.834 91.639 201.834C136.179 201.834 172.274 172.293 172.274 135.864C172.274 99.4232 136.179 69.8818 91.639 69.8818Z" fill="white"/>
<path fill-rule="evenodd" clip-rule="evenodd" d="M91.639 201.834C136.107 201.834 172.274 172.23 172.274 135.858C172.274 99.4752 136.107 69.8818 91.639 69.8818C47.1819 69.8818 11.0036 99.4752 11.0036 135.858C11.0036 172.23 47.1819 201.834 91.639 201.834ZM91.639 73.2435C134.232 73.2435 168.879 101.327 168.879 135.858C168.879 170.378 134.232 198.461 91.639 198.461C49.0463 198.461 14.3994 170.378 14.3994 135.858C14.3994 101.327 49.0463 73.2435 91.639 73.2435Z" fill="black"/>
<path d="M91.6318 194.501C53.1709 194.501 21.9921 169.065 21.9921 137.689C21.9921 106.312 53.1709 80.876 91.6318 80.876C130.093 80.876 161.271 106.312 161.271 137.689C161.271 169.065 130.093 194.501 91.6318 194.501Z" fill="black"/>
<path fill-rule="evenodd" clip-rule="evenodd" d="M91.6384 194.501C132.063 194.501 164.943 169.02 164.943 137.694C164.943 106.368 132.063 80.876 91.6384 80.876C51.214 80.876 18.3335 106.368 18.3335 137.694C18.3335 169.02 51.214 194.501 91.6384 194.501ZM91.6384 84.9384C129.746 84.9384 160.755 108.604 160.755 137.694C160.755 166.773 129.746 190.439 91.6384 190.439C53.5308 190.439 22.522 166.773 22.522 137.694C22.522 108.604 53.5308 84.9384 91.6384 84.9384Z" fill="black"/>
<path d="M21.9953 132.305C22.2203 134.451 22.5692 136.61 23.0418 138.768C24.5496 145.667 27.2165 152.027 30.7836 157.698C29.9509 159.328 29.287 160.981 28.7919 162.622C40.2022 181.495 64.1705 194.501 91.886 194.501C96.8259 194.501 101.642 194.077 106.289 193.296C138.799 184.17 161.214 163.013 157.129 144.393C155.982 139.124 152.82 134.589 148.127 130.939C148.994 124.246 148.746 117.347 147.227 110.436C146.372 106.521 145.145 102.791 143.592 99.2549C130.764 87.9589 112.343 80.876 91.886 80.876C55.3484 80.876 25.3373 103.456 21.9953 132.305Z" fill="#B0401E"/>
<path fill-rule="evenodd" clip-rule="evenodd" d="M90.0522 194.501C94.9997 194.501 99.9473 194.112 104.76 193.321C104.82 193.313 104.88 193.299 104.94 193.276C138.953 184.033 161.369 162.774 157.086 143.819C155.925 138.708 152.939 134.186 148.205 130.4C148.96 123.874 148.611 117.314 147.157 110.889C146.289 107.047 145.027 103.294 143.416 99.7189C143.303 99.485 143.156 99.2846 142.965 99.1287C129.373 87.5245 110.09 80.876 90.0522 80.876C72.0653 80.876 54.856 86.1212 41.5687 95.6541C28.2814 105.198 20.0205 118.205 18.3413 132.271C18.3263 132.404 18.3263 132.534 18.3413 132.661C18.578 134.821 18.9386 136.993 19.4232 139.109C20.877 145.534 23.379 151.615 26.8839 157.205C26.1965 158.597 25.6443 160.001 25.216 161.393C25.0695 161.86 25.1371 162.362 25.3963 162.785C31.268 172.184 40.3065 180.113 51.5539 185.726C63.0606 191.472 76.3704 194.501 90.0522 194.501ZM104.106 189.98C99.5077 190.726 94.7743 191.105 90.0522 191.105C63.8946 191.105 40.4868 179.835 28.7435 161.66C29.1717 160.401 29.724 159.143 30.3889 157.885C30.6706 157.35 30.6368 156.693 30.2987 156.181C26.7487 150.713 24.2242 144.721 22.7817 138.362C22.3421 136.436 22.0153 134.454 21.7786 132.482C25.2047 104.986 54.5067 84.2837 90.0522 84.2837C109.132 84.2837 127.457 90.5313 140.418 101.456C141.872 104.719 143.01 108.138 143.799 111.635C145.23 117.983 145.534 124.475 144.667 130.923C144.588 131.525 144.847 132.126 145.332 132.494C149.862 135.912 152.68 139.966 153.716 144.565C157.526 161.415 135.741 181.349 104.106 189.98Z" fill="black"/>
<path d="M96.8468 88.9046C88.7554 90.671 82.1738 95.4975 78.082 101.854C71.5236 97.5338 63.2247 95.745 54.8912 97.5676C32.9451 102.36 22.0759 134.582 44.2639 149.781C37.5326 149.455 31.1701 152.774 27.7007 158.422C26.8477 160.019 26.1677 161.639 25.6605 163.248C37.3482 181.744 61.8991 194.491 90.2883 194.491C95.3484 194.491 100.282 194.075 105.042 193.31C138.341 184.366 161.302 163.631 157.118 145.382C155.942 140.218 152.703 135.774 147.897 132.197C142.064 129.542 135.76 129.534 128.982 132.174C132.728 126.009 134.169 118.505 132.44 110.956C128.855 95.2724 112.914 85.3945 96.8468 88.9046Z" fill="#FFCAA1"/>
<path fill-rule="evenodd" clip-rule="evenodd" d="M90.3123 194.494C95.2436 194.494 100.186 194.086 104.982 193.292C105.027 193.284 105.076 193.273 105.129 193.258C139.004 183.886 161.336 162.397 157.093 143.279C155.886 137.867 152.681 133.113 147.547 129.176C147.472 129.115 147.389 129.066 147.299 129.028C142.221 126.646 136.748 126.26 130.993 127.848C133.69 121.824 134.378 115.096 132.934 108.572C129.255 92.0293 112.881 81.5797 96.4285 85.2785C88.8567 86.9804 82.3456 91.3939 77.9672 97.7817C71.1627 93.5837 63.1959 92.2562 55.3646 94.0148C44.1817 96.5223 35.0188 106.563 32.5701 118.976C30.4599 129.686 33.7888 139.841 41.5412 146.819C35.899 147.658 30.8548 150.983 27.8532 156.02C27.8382 156.043 27.8231 156.069 27.8081 156.1C26.9392 157.79 26.2283 159.503 25.7205 161.205C25.6076 161.58 25.6528 162 25.8672 162.34C31.7125 171.859 40.7174 179.903 51.9228 185.588C63.3878 191.408 76.6695 194.494 90.3123 194.494ZM104.463 190.557C99.8364 191.329 95.0743 191.714 90.3123 191.714C63.9407 191.714 40.3338 180.119 28.5529 161.421C28.993 160.093 29.5572 158.743 30.2455 157.416C33.3826 152.174 39.115 149.111 45.186 149.417C45.7954 149.44 46.3596 149.065 46.5627 148.475C46.7659 147.897 46.5514 147.25 46.0549 146.887C37.1628 140.612 33.1343 130.378 35.2783 119.52C37.5239 108.163 45.8293 98.9957 55.9626 96.7152C63.5006 95.0246 71.1853 96.4882 77.5948 100.834C77.8995 101.049 78.2832 101.117 78.6556 101.038C79.0167 100.97 79.3439 100.743 79.5357 100.425C83.5191 94.0489 89.7255 89.624 97.0265 87.9788C111.99 84.6204 126.896 94.1283 130.237 109.173C131.794 116.162 130.643 123.401 127.009 129.55C126.75 129.981 126.75 130.515 126.987 130.946C127.325 131.536 128.081 131.797 128.702 131.547C134.976 129.04 140.629 129.017 145.99 131.479C150.515 134.985 153.347 139.16 154.396 143.88C158.256 161.239 136.319 181.73 104.463 190.557Z" fill="black"/>
<path d="M48.0128 160.325C41.8203 158.818 37.3811 162.351 42.6859 169.799C65.4475 201.775 131.823 186.732 138.981 147.96C140.646 138.937 135.153 137.654 130.181 141.705C108.44 159.403 75.1247 166.952 48.0128 160.325Z" fill="white"/>
<path fill-rule="evenodd" clip-rule="evenodd" d="M83.0513 190.829C88.1823 190.829 93.4926 190.222 98.8813 188.997C122.049 183.693 139.224 168.299 142.618 149.765C143.772 143.454 141.621 141.083 140.221 140.224C137.935 138.826 134.608 139.525 131.538 142.045C109.759 159.914 76.9008 167.428 49.7558 160.739C45.9355 159.788 42.6306 160.613 41.1518 162.881C40.2443 164.255 39.2809 167.348 42.9443 172.56C51.2346 184.289 66.101 190.829 83.0513 190.829ZM137.543 142.309C138.025 142.309 138.462 142.412 138.82 142.629C140.142 143.443 140.546 145.859 139.929 149.25C136.736 166.684 120.391 181.208 98.2763 186.259C76.1726 191.322 55.3237 185.297 45.1737 170.91C43.202 168.115 42.5634 165.756 43.426 164.438C44.2438 163.19 46.4733 162.812 49.1172 163.453C77.0353 170.337 110.846 162.606 133.252 144.221C134.765 142.984 136.322 142.309 137.543 142.309Z" fill="black"/>
<path d="M21.9896 139.692C21.9896 147.511 24.0549 154.914 27.7481 161.516C28.1481 160.147 28.6784 158.778 29.3203 157.409C26.3713 152.409 24.1758 146.791 22.9292 140.686C22.5943 139.083 22.3431 137.471 22.1478 135.858C22.0455 137.126 21.9896 138.404 21.9896 139.692Z" fill="#FFCAA1"/>
<path fill-rule="evenodd" clip-rule="evenodd" d="M28.6724 165.175C28.7528 165.175 28.8332 165.171 28.9136 165.163C29.7175 165.081 30.3874 164.605 30.6286 163.942C31.1645 162.476 31.8746 160.987 32.7589 159.51C33.0939 158.94 33.0671 158.265 32.6652 157.73C28.4447 152.019 25.43 145.761 23.7284 139.12C23.2729 137.363 22.9111 135.56 22.6432 133.746C22.5092 132.838 21.6249 132.164 20.5798 132.187C19.5348 132.21 18.6773 132.897 18.5701 133.804C18.4093 135.339 18.3289 136.863 18.3289 138.364C18.3289 147.459 21.2229 156.195 26.9306 164.325C27.3058 164.86 27.9623 165.175 28.6724 165.175ZM28.5921 158.789C28.5117 158.944 28.4268 159.099 28.3375 159.254C27.5157 157.866 26.7788 156.462 26.1267 155.043C26.8949 156.315 27.7167 157.564 28.5921 158.789Z" fill="black"/>
<path d="M26.8097 161.505C27.605 161.029 28.3046 160.413 28.9083 159.681C29.0424 159.332 29.1766 159.007 29.3203 158.659C26.8288 153.952 24.8548 148.758 23.5133 143.181C23.015 143.169 22.4975 143.204 21.9896 143.309C22.555 149.734 24.232 155.858 26.8097 161.505Z" fill="#FF9999"/>
<path fill-rule="evenodd" clip-rule="evenodd" d="M27.3095 161.505C27.6244 161.505 27.9393 161.457 28.2405 161.35C29.5548 160.883 30.7596 160.279 31.8002 159.53C31.9645 159.413 32.0877 159.277 32.1972 159.131C32.3752 158.858 32.5669 158.586 32.7585 158.313C33.1008 157.846 33.0597 157.282 32.6627 156.834C29.1441 152.932 26.4333 148.698 24.6124 144.251C24.3522 143.628 23.5582 143.2 22.6546 143.18C21.7783 143.17 20.9158 143.209 20.0806 143.307C18.9854 143.433 18.2187 144.144 18.3419 144.932C19.1633 150.411 21.573 155.725 25.4886 160.737C25.872 161.223 26.5839 161.505 27.3095 161.505ZM28.4596 157.681C28.3409 157.759 28.2222 157.833 28.1036 157.905C27.346 156.834 26.6569 155.754 26.0362 154.664C26.8029 155.689 27.6107 156.695 28.4596 157.681Z" fill="black"/>
<path d="M89.784 150.509C90.4628 150.509 91.1179 150.141 91.4276 149.518C92.4161 147.525 94.6075 146.419 96.8586 146.765C97.8471 146.914 98.7761 146.258 98.9428 145.301C99.0977 144.345 98.4188 143.435 97.4303 143.285C93.5714 142.697 89.8435 144.587 88.1523 147.986C87.7116 148.862 88.0927 149.91 88.9979 150.337C89.248 150.452 89.5219 150.509 89.784 150.509Z" fill="black"/>
<path d="M89.9528 150.52C90.447 150.52 90.9302 150.36 91.2597 150.04C91.8418 149.492 91.732 148.684 91.0181 148.229C88.2614 146.519 84.2966 146.393 81.3751 147.917C80.6063 148.321 80.4087 149.122 80.9249 149.711C81.452 150.292 82.4954 150.452 83.2642 150.048C84.9775 149.155 87.2949 149.231 88.8984 150.233C89.2059 150.427 89.5793 150.52 89.9528 150.52Z" fill="black"/>
<path d="M90.5904 161.516C90.6674 161.516 90.7421 161.501 90.8146 161.471C91.3786 161.267 91.7319 160.339 91.6096 159.411C90.9165 154.218 90.6175 152.125 90.0128 148.165C89.8701 147.237 89.3061 146.671 88.7489 146.909C88.1917 147.146 87.8588 148.097 88.0015 149.013C88.5994 152.928 88.8916 155.01 89.5779 160.158C89.6866 160.961 90.1147 161.516 90.5904 161.516Z" fill="black"/>
<path d="M139.63 147.561C136.945 150.98 133.481 153.949 129.741 156.581C125.976 159.213 121.925 161.519 117.753 163.633C117.321 163.847 117.166 164.353 117.393 164.747C117.621 165.129 118.113 165.287 118.532 165.107C122.908 163.229 127.199 161.148 131.287 158.673C135.363 156.188 139.259 153.297 142.507 149.686C143.167 148.955 143.071 147.876 142.304 147.257C141.524 146.65 140.374 146.74 139.714 147.459C139.69 147.489 139.666 147.519 139.642 147.549L139.63 147.561Z" fill="black"/>
<path opacity="0.3" d="M135.152 141.424C133.649 150.268 126.859 158.114 120.958 165.172C133.278 158.627 139.386 151.603 139.284 144.097C139.1 139.023 139.775 138.21 135.152 141.424Z" fill="black"/>
<path d="M41.3593 172.085C45.7803 173.988 50.4287 174.984 55.043 175.548C59.6686 176.112 64.3056 176.234 68.9084 176.145C69.329 176.134 69.6585 175.802 69.6472 175.393C69.6358 175.006 69.3289 174.696 68.9312 174.674C64.3851 174.442 59.8504 173.999 55.4407 173.147C51.0424 172.295 46.7237 171.023 42.8936 169.042H42.8822C42.0299 168.6 40.9842 168.91 40.5296 169.739C40.075 170.558 40.4046 171.587 41.2457 172.03C41.2911 172.041 41.3252 172.063 41.3593 172.085Z" fill="black"/>
<path opacity="0.3" d="M41.7877 166.315C44.7528 173.264 54.0394 176.538 69.6475 176.137C60.5625 172.722 50.2322 169.043 45.0256 161.698C38.8464 161.148 39.902 161.548 41.7877 166.315Z" fill="black"/>
<path fill-rule="evenodd" clip-rule="evenodd" d="M90.0522 194.501C94.9997 194.501 99.9473 194.112 104.76 193.321C104.82 193.313 104.88 193.299 104.94 193.276C138.953 184.033 161.369 162.774 157.086 143.819C155.925 138.708 152.939 134.186 148.205 130.4C148.96 123.874 148.611 117.314 147.157 110.889C146.289 107.047 145.027 103.294 143.416 99.7189C143.303 99.485 143.156 99.2846 142.965 99.1287C129.373 87.5245 110.09 80.876 90.0522 80.876C72.0653 80.876 54.856 86.1212 41.5687 95.6541C28.2814 105.198 20.0205 118.205 18.3413 132.271C18.3263 132.404 18.3263 132.534 18.3413 132.661C18.578 134.821 18.9386 136.993 19.4232 139.109C20.877 145.534 23.379 151.615 26.8839 157.205C26.1965 158.597 25.6443 160.001 25.216 161.393C25.0695 161.86 25.1371 162.362 25.3963 162.785C31.268 172.184 40.3065 180.113 51.5539 185.726C63.0606 191.472 76.3704 194.501 90.0522 194.501ZM104.106 189.98C99.5077 190.726 94.7743 191.105 90.0522 191.105C63.8946 191.105 40.4868 179.835 28.7435 161.66C29.1717 160.401 29.724 159.143 30.3889 157.885C30.6706 157.35 30.6368 156.693 30.2987 156.181C26.7487 150.713 24.2242 144.721 22.7817 138.362C22.3421 136.436 22.0153 134.454 21.7786 132.482C25.2047 104.986 54.5067 84.2837 90.0522 84.2837C109.132 84.2837 127.457 90.5313 140.418 101.456C141.872 104.719 143.01 108.138 143.799 111.635C145.23 117.983 145.534 124.475 144.667 130.923C144.588 131.525 144.847 132.126 145.332 132.494C149.862 135.912 152.68 139.966 153.716 144.565C157.526 161.415 135.741 181.349 104.106 189.98Z" fill="black"/>
<path d="M180.288 95.6704C170.303 96.8851 163.538 106.011 165.186 116.061C166.833 126.111 176.257 133.27 186.242 132.055C196.227 130.851 202.992 121.715 201.345 111.665C199.697 101.615 190.261 94.4558 180.288 95.6704Z" fill="white"/>
<path fill-rule="evenodd" clip-rule="evenodd" d="M183.927 135.856C184.682 135.856 185.44 135.798 186.202 135.681C191.084 134.96 195.356 131.968 198.219 127.264C201.015 122.666 202.125 116.949 201.348 111.187C199.739 99.1487 190.297 90.5685 180.332 92.0354C170.357 93.5139 163.555 104.504 165.175 116.542C165.952 122.305 168.526 127.474 172.421 131.083C175.794 134.203 179.811 135.856 183.927 135.856ZM182.574 96.145C189.686 96.145 196.111 102.781 197.32 111.78C197.964 116.542 197.065 121.222 194.79 124.971C192.571 128.603 189.32 130.908 185.625 131.455C181.941 132.003 178.202 130.734 175.117 127.881C171.944 124.936 169.847 120.698 169.203 115.937C167.905 106.239 173.153 97.414 180.898 96.2614C181.46 96.1838 182.019 96.145 182.574 96.145Z" fill="black"/>
<path d="M193.458 130.979C199.238 127.176 202.546 119.966 201.348 112.236C199.975 103.491 193.258 96.8338 185.319 95.5361C184.919 95.5361 184.507 95.57 184.095 95.6264C176.143 96.642 170.987 105.624 172.548 115.7C174.12 125.765 181.836 133.111 189.788 132.096C191.099 131.938 192.322 131.554 193.458 130.979Z" fill="white"/>
<path fill-rule="evenodd" clip-rule="evenodd" d="M188.132 132.191C188.655 132.191 189.174 132.153 189.69 132.077C191.027 131.885 192.32 131.442 193.525 130.75C193.584 130.72 193.643 130.682 193.701 130.637C199.47 126.327 202.476 118.286 201.36 110.154C200.078 100.866 193.69 93.3578 185.8 91.8947C185.69 91.8796 185.575 91.8721 185.458 91.8721C185.016 91.8834 184.585 91.9174 184.176 91.9741C176.241 93.131 171.014 103.055 172.528 114.113C173.247 119.364 175.368 124.116 178.485 127.484C181.325 130.558 184.706 132.191 188.132 132.191ZM191.801 127.768C190.983 128.221 190.11 128.516 189.226 128.641C186.375 129.049 183.435 127.79 180.938 125.102C178.297 122.244 176.495 118.173 175.877 113.625C174.617 104.461 178.551 96.2952 184.651 95.4106C184.887 95.3803 185.126 95.3577 185.369 95.3425C191.768 96.6241 196.95 102.885 198.011 110.642C198.951 117.481 196.519 124.184 191.801 127.768Z" fill="black"/>
<path d="M118.018 51.5585C115.501 59.8632 119.719 60.9981 126.944 55.4762C132.281 51.4057 138.573 49.3868 144.633 47.9572C150.331 41.8024 142.943 33.9342 132.153 38.0047C126.722 39.718 120.418 43.6467 118.018 51.5585Z" fill="#FF8B13"/>
<path fill-rule="evenodd" clip-rule="evenodd" d="M118.233 62.5411C120.454 62.5411 123.235 61.2711 126.532 58.7309C131.706 54.7701 137.806 52.9511 143.095 51.7025C143.507 51.5949 143.884 51.3796 144.171 51.0783C147.055 47.9462 147.41 43.9315 145.075 40.864C142.557 37.5381 136.788 35.407 129.588 38.1193C125.124 39.5401 117.272 43.3287 114.41 52.8004C113.025 57.4071 113.46 60.4531 115.727 61.863C116.467 62.3151 117.302 62.5411 118.233 62.5411ZM141.378 48.0323C136.089 49.3239 129.474 51.3796 123.876 55.6742C120.133 58.548 118.313 58.6771 118.027 58.5587C118.039 58.5587 117.318 57.6223 118.451 53.8767C120.797 46.1057 127.31 43.0058 130.984 41.8434C131.023 41.8291 131.061 41.8147 131.099 41.8004C136.215 39.863 140.084 41.09 141.664 43.1565C142.774 44.6311 142.671 46.3747 141.378 48.0323Z" fill="black"/>
<path d="M29.3553 69.4323C29.112 71.4004 30.8266 73.1016 32.7735 73.4574C34.7093 73.8243 36.9438 72.8792 37.3973 70.9445C39.2557 63.0277 44.7645 55.2776 51.3242 50.4074C42.1982 45.3371 32.1208 46.1377 29.3553 69.4323Z" fill="#FF8B13"/>
<path fill-rule="evenodd" clip-rule="evenodd" d="M31.8336 77.2006C34.3062 77.2006 36.9312 75.7975 37.563 73.1009C39.2187 66.0306 44.1856 58.7082 50.5141 54.0165C51.0587 53.6109 51.3637 52.9532 51.3201 52.2627C51.2765 51.583 50.8953 50.9692 50.2962 50.6403C44.7738 47.5601 39.9267 47.0558 35.8965 49.1276C30.5265 51.9009 27.0954 59.2234 25.7012 70.9086C25.3635 73.7915 27.5529 76.51 30.6899 77.091C31.0602 77.1677 31.4524 77.2006 31.8336 77.2006ZM45.6016 52.8436C39.7742 58.0395 35.3083 65.1975 33.6744 72.1801C33.5001 72.9255 32.3238 73.3092 31.4197 73.1448C30.5156 72.9694 29.5789 72.1911 29.6769 71.3909C30.8751 61.2622 33.6635 54.7948 37.7155 52.7121C39.8722 51.594 42.5191 51.6488 45.6016 52.8436Z" fill="black"/>
<path opacity="0.3" d="M193.393 112.299C194.725 119.602 192.048 127.041 186.249 132.189C196.489 129.842 203.052 120.645 201.313 111.074C199.573 101.503 190.123 94.7675 179.6 95.6067C186.903 98.7365 192.06 104.985 193.393 112.299Z" fill="black"/>
<path opacity="0.3" d="M40.3208 73.5353C44.079 66.5851 49.7532 60.2703 57.3435 54.5908C60.2478 47.0131 58.3015 45.8508 51.4945 51.1041C47.0976 53.5216 43.3663 60.9948 40.3208 73.5353Z" fill="black"/>
<path opacity="0.3" d="M144.477 38.6722C141.925 36.3635 137.96 36.2798 135.309 38.4808C137.21 37.6435 139.461 38.2894 140.562 39.9881C141.65 41.6987 141.588 44.4859 139.624 45.1558C131.532 47.943 123.89 51.9025 117.286 58.8526C120.963 59.2115 130.256 55.3995 145.165 47.4167C147.329 44.773 147.028 40.981 144.477 38.6722Z" fill="black"/>
<path opacity="0.3" d="M45.5448 51.5518C36.0805 58.8582 31.968 66.1888 33.2072 73.5438C37.1856 66.4384 41.9903 59.9222 47.621 53.9953C47.8166 53.9884 47.1246 53.1739 45.5448 51.5518Z" fill="black"/>
<path opacity="0.3" d="M29.3226 159.265C40.4554 177.929 64.3208 190.837 91.9528 190.837C130.24 190.837 161.271 166.071 161.271 135.527C161.271 121.623 154.85 108.916 144.228 99.2041C148.528 106.39 150.928 114.448 150.928 122.942C150.928 153.487 119.885 178.253 81.5977 178.253C75.8425 178.253 70.2539 177.694 64.9097 176.633C66.6652 175.951 68.454 175.168 70.265 174.252C63.0431 174.371 55.6472 173.298 48.0772 171.033C48.1439 171.179 48.2217 171.313 48.2772 171.447C41.0887 168.306 34.6668 164.171 29.3226 159.265Z" fill="black"/>
<path fill-rule="evenodd" clip-rule="evenodd" d="M93.471 194.501C132.881 194.501 164.943 169.013 164.943 137.689C164.943 106.364 132.881 80.876 93.471 80.876C54.0613 80.876 21.9987 106.364 21.9987 137.689C21.9987 169.013 54.0613 194.501 93.471 194.501ZM93.471 83.6096C131.364 83.6096 162.191 107.876 162.191 137.689C162.191 167.501 131.364 191.757 93.471 191.757C55.5779 191.757 24.7511 167.501 24.7511 137.689C24.7511 107.876 55.5779 83.6096 93.471 83.6096Z" fill="black"/>
<path d="M52.5385 137.499C55.0572 144.316 60.653 148.284 65.0452 146.361C69.4251 144.437 70.9512 137.353 68.4325 130.536C65.9138 123.719 60.318 119.75 55.9257 121.674C51.5334 123.597 50.0197 130.682 52.5385 137.499Z" fill="black"/>
<path d="M54.9865 128.251C54.9088 130.262 56.4953 132.019 58.5174 132.175C60.5395 132.322 62.2349 130.809 62.3127 128.788C62.3749 126.777 60.7883 125.011 58.7663 124.864C56.7442 124.718 55.0487 126.231 54.9865 128.251Z" fill="white"/>
<path d="M105.036 113.855C101.041 114.014 98.377 119.075 99.0802 125.144C99.7727 131.223 103.576 136.008 107.561 135.838C111.546 135.679 114.22 130.618 113.517 124.55C112.813 118.47 109.021 113.685 105.036 113.855Z" fill="black"/>
<path d="M103.89 117.778C102.367 118.513 102.209 120.641 103.545 122.525C104.881 124.409 107.193 125.346 108.715 124.601C110.238 123.866 110.396 121.738 109.06 119.854C107.724 117.97 105.412 117.044 103.89 117.778Z" fill="white"/>
<path d="M102.981 128.806C102.385 129.357 102.575 130.492 103.4 131.34C104.224 132.189 105.365 132.443 105.961 131.892C106.544 131.34 106.354 130.206 105.53 129.357C104.706 128.509 103.564 128.265 102.981 128.806Z" fill="white"/>
<path opacity="0.2" d="M146.608 123.183C146.586 119.032 146.143 114.847 145.246 110.65C144.404 106.707 143.197 102.949 141.669 99.3877C129.043 88.0101 110.913 80.876 90.7782 80.876C54.817 80.876 25.2794 103.62 21.99 132.676C22.2115 134.838 22.5549 137.012 23.02 139.186C23.0422 139.302 23.0754 139.406 23.0975 139.521C27.727 111.644 56.6001 90.1607 91.5424 90.1607C111.677 90.1607 129.807 97.2948 142.433 108.672C143.961 112.234 145.169 115.991 146.01 119.934C146.243 121.021 146.431 122.097 146.608 123.183Z" fill="black"/>
<path opacity="0.2" d="M25.8586 161.509C25.7846 161.631 25.7105 161.754 25.655 161.876C26.8027 162.998 28.0245 164.097 29.3203 165.174C28.0985 163.982 26.9323 162.757 25.8586 161.509Z" fill="black"/>
<path opacity="0.2" d="M157.364 150.513C157.776 148.225 157.677 145.937 157.008 143.702C155.686 139.264 152.273 135.401 147.225 132.187C147.253 134.741 147.054 137.274 146.613 139.775C151.832 142.755 155.544 146.363 157.364 150.513Z" fill="black"/>
<path fill-rule="evenodd" clip-rule="evenodd" d="M87.9242 18.412C91.3994 24.9827 91.9902 32.1794 91.4724 36.8894L85.5641 36.2345C85.9781 32.4689 85.4836 26.5228 82.6743 21.2112C79.9396 16.0404 74.9557 11.3351 65.9785 9.78311L66.9872 3.90137C77.8748 5.78365 84.3745 11.7004 87.9242 18.412Z" fill="black"/>
<path d="M76.9758 7.56407C76.9758 11.6127 73.6937 14.8947 69.6451 14.8947C65.5965 14.8947 62.3145 11.6127 62.3145 7.56407C62.3145 3.51545 65.5965 0.233398 69.6451 0.233398C73.6937 0.233398 76.9758 3.51545 76.9758 7.56407Z" fill="black"/>
<path fill-rule="evenodd" clip-rule="evenodd" d="M101.653 7.37502C101.656 7.37385 101.651 7.40023 101.63 7.45767C101.64 7.40491 101.651 7.37619 101.653 7.37502ZM99.5462 10.4454C99.1848 10.5229 98.7992 10.614 98.3893 10.7202C94.2236 11.799 88.6347 14.1434 82.7213 17.5823C76.808 21.0213 72.0063 24.7196 69.0086 27.8068C68.7136 28.1106 68.4438 28.4006 68.1977 28.6764C68.5591 28.5989 68.9446 28.5078 69.3545 28.4016C73.5202 27.3229 79.1092 24.9784 85.0225 21.5395C90.9359 18.1005 95.7375 14.4022 98.7352 11.315C99.0302 11.0113 99.3001 10.7212 99.5462 10.4454ZM64.487 28.9894C64.4893 28.9877 64.5193 28.993 64.5704 29.01C64.5103 28.9995 64.4848 28.991 64.487 28.9894ZM66.0906 31.7468C66.088 31.748 66.0933 31.7216 66.1138 31.6642C66.1034 31.7169 66.0931 31.7456 66.0906 31.7468ZM103.173 10.1118C103.234 10.1223 103.259 10.1308 103.257 10.1325C103.255 10.1341 103.225 10.1288 103.173 10.1118ZM87.5273 25.8467C99.9093 18.6458 108.31 9.9941 106.292 6.52256C104.273 3.05102 92.5986 6.07425 80.2166 13.2751C67.8345 20.476 59.4334 29.1277 61.4522 32.5993C63.4711 36.0708 75.1453 33.0476 87.5273 25.8467Z" fill="black"/>
<path d="M731.015 11.7378L319.012 54.2218L322.718 65.7082L628.869 63.708L592.263 104.511L590.34 114.961L604.88 145.188L558.201 180.356L563.827 190.034L636.094 150.933L638.018 140.483L632.688 111.95L728.419 25.8459L731.015 11.7378Z" fill="black"/>
<path d="M733 0.948718L321.558 40.3812L325.315 51.589L631.19 51.0936L594.809 90.67L592.937 100.842L607.608 130.359L561.137 164.397L566.804 173.853L638.822 136.103L640.694 125.931L635.234 98.1097L730.472 14.6807L733 0.948718Z" fill="#FF8B13"/>
<path d="M294.19 207L322.27 144H336.67L364.84 207H349.54L326.5 151.38H332.26L309.13 207H294.19ZM308.23 193.5L312.1 182.43H344.5L348.46 193.5H308.23ZM373.626 207V144H400.896C406.536 144 411.396 144.93 415.476 146.79C419.556 148.59 422.706 151.2 424.926 154.62C427.146 158.04 428.256 162.12 428.256 166.86C428.256 171.54 427.146 175.59 424.926 179.01C422.706 182.43 419.556 185.07 415.476 186.93C411.396 188.73 406.536 189.63 400.896 189.63H381.726L388.206 183.06V207H373.626ZM388.206 184.68L381.726 177.75H400.086C404.586 177.75 407.946 176.79 410.166 174.87C412.386 172.95 413.496 170.28 413.496 166.86C413.496 163.38 412.386 160.68 410.166 158.76C407.946 156.84 404.586 155.88 400.086 155.88H381.726L388.206 148.95V184.68ZM454.325 169.38H484.655V180.72H454.325V169.38ZM455.405 195.3H489.695V207H440.915V144H488.525V155.7H455.405V195.3ZM524.246 208.08C519.206 208.08 514.376 207.42 509.756 206.1C505.136 204.72 501.416 202.95 498.596 200.79L503.546 189.81C506.246 191.73 509.426 193.32 513.086 194.58C516.806 195.78 520.556 196.38 524.336 196.38C527.216 196.38 529.526 196.11 531.266 195.57C533.066 194.97 534.386 194.16 535.226 193.14C536.066 192.12 536.486 190.95 536.486 189.63C536.486 187.95 535.826 186.63 534.506 185.67C533.186 184.65 531.446 183.84 529.286 183.24C527.126 182.58 524.726 181.98 522.086 181.44C519.506 180.84 516.896 180.12 514.256 179.28C511.676 178.44 509.306 177.36 507.146 176.04C504.986 174.72 503.216 172.98 501.836 170.82C500.516 168.66 499.856 165.9 499.856 162.54C499.856 158.94 500.816 155.67 502.736 152.73C504.716 149.73 507.656 147.36 511.556 145.62C515.516 143.82 520.466 142.92 526.406 142.92C530.366 142.92 534.266 143.4 538.106 144.36C541.946 145.26 545.336 146.64 548.276 148.5L543.776 159.57C540.836 157.89 537.896 156.66 534.956 155.88C532.016 155.04 529.136 154.62 526.316 154.62C523.496 154.62 521.186 154.95 519.386 155.61C517.586 156.27 516.296 157.14 515.516 158.22C514.736 159.24 514.346 160.44 514.346 161.82C514.346 163.44 515.006 164.76 516.326 165.78C517.646 166.74 519.386 167.52 521.546 168.12C523.706 168.72 526.076 169.32 528.656 169.92C531.296 170.52 533.906 171.21 536.486 171.99C539.126 172.77 541.526 173.82 543.686 175.14C545.846 176.46 547.586 178.2 548.906 180.36C550.286 182.52 550.976 185.25 550.976 188.55C550.976 192.09 549.986 195.33 548.006 198.27C546.026 201.21 543.056 203.58 539.096 205.38C535.196 207.18 530.246 208.08 524.246 208.08Z" fill="black"/>
<path d="M256.17 134.08C251.13 134.08 246.3 133.42 241.68 132.1C237.06 130.72 233.34 128.95 230.52 126.79L235.47 115.81C238.17 117.73 241.35 119.32 245.01 120.58C248.73 121.78 252.48 122.38 256.26 122.38C259.14 122.38 261.45 122.11 263.19 121.57C264.99 120.97 266.31 120.16 267.15 119.14C267.99 118.12 268.41 116.95 268.41 115.63C268.41 113.95 267.75 112.63 266.43 111.67C265.11 110.65 263.37 109.84 261.21 109.24C259.05 108.58 256.65 107.98 254.01 107.44C251.43 106.84 248.82 106.12 246.18 105.28C243.6 104.44 241.23 103.36 239.07 102.04C236.91 100.72 235.14 98.9799 233.76 96.8199C232.44 94.6599 231.78 91.8999 231.78 88.5399C231.78 84.9399 232.74 81.6699 234.66 78.7299C236.64 75.7299 239.58 73.3599 243.48 71.6199C247.44 69.8199 252.39 68.9199 258.33 68.9199C262.29 68.9199 266.19 69.3999 270.03 70.3599C273.87 71.2599 277.26 72.6399 280.2 74.4999L275.7 85.5699C272.76 83.8899 269.82 82.6599 266.88 81.8799C263.94 81.0399 261.06 80.6199 258.24 80.6199C255.42 80.6199 253.11 80.9499 251.31 81.6099C249.51 82.2699 248.22 83.1399 247.44 84.2199C246.66 85.2399 246.27 86.4399 246.27 87.8199C246.27 89.4399 246.93 90.7599 248.25 91.7799C249.57 92.7399 251.31 93.5199 253.47 94.1199C255.63 94.7199 258 95.3199 260.58 95.9199C263.22 96.5199 265.83 97.2099 268.41 97.9899C271.05 98.7699 273.45 99.8199 275.61 101.14C277.77 102.46 279.51 104.2 280.83 106.36C282.21 108.52 282.9 111.25 282.9 114.55C282.9 118.09 281.91 121.33 279.93 124.27C277.95 127.21 274.98 129.58 271.02 131.38C267.12 133.18 262.17 134.08 256.17 134.08Z" fill="black"/>
<path d="M295.112 133V69.9999H307.172L333.992 114.46H327.602L353.972 69.9999H365.942L366.122 133H352.442L352.352 90.9699H354.872L333.812 126.34H327.242L305.732 90.9699H308.792V133H295.112Z" fill="black"/>
<path d="M375.039 133L403.119 69.9999H417.519L445.689 133H430.389L407.349 77.3799H413.109L389.979 133H375.039ZM389.079 119.5L392.949 108.43H425.349L429.309 119.5H389.079Z" fill="black"/>
<path d="M454.475 133V69.9999H481.745C487.385 69.9999 492.245 70.9299 496.325 72.7899C500.405 74.5899 503.555 77.1999 505.775 80.6199C507.995 84.0399 509.105 88.1199 509.105 92.8599C509.105 97.5399 507.995 101.59 505.775 105.01C503.555 108.37 500.405 110.95 496.325 112.75C492.245 114.55 487.385 115.45 481.745 115.45H462.575L469.055 109.06V133H454.475ZM494.525 133L478.775 110.14H494.345L510.275 133H494.525ZM469.055 110.68L462.575 103.84H480.935C485.435 103.84 488.795 102.88 491.015 100.96C493.235 98.9799 494.345 96.2799 494.345 92.8599C494.345 89.3799 493.235 86.6799 491.015 84.7599C488.795 82.8399 485.435 81.8799 480.935 81.8799H462.575L469.055 74.9499V110.68Z" fill="black"/>
<path d="M535.078 133V81.8799H514.918V69.9999H569.818V81.8799H549.658V133H535.078Z" fill="black"/>
</svg>
