<svg width="128" height="118" viewBox="0 0 128 118" fill="none" xmlns="http://www.w3.org/2000/svg">
<g filter="url(#filter0_f_16684_32732)">
<path d="M101.311 5.65985C83.2432 -1.83726 69.463 18.1067 51.4733 24.8163C38.4178 29.6856 25.4414 22.4256 18.9954 27.1017C7.85914 35.1802 2.30242 45.6035 4.45778 59.1915C8.15198 82.4808 43.167 96.5446 72.0409 91.6703C97.257 87.4134 114.846 74.1685 122.315 49.7104C127.808 31.7206 118.914 12.9642 101.311 5.65985Z" fill="url(#paint0_linear_16684_32732)"/>
</g>
<mask id="mask0_16684_32732" style="mask-type:alpha" maskUnits="userSpaceOnUse" x="5" y="4" width="120" height="89">
<path d="M102.381 5.65985C84.3135 -1.83726 70.5333 18.1067 52.5436 24.8163C39.4881 29.6856 26.5118 22.4256 20.0657 27.1017C8.92945 35.1802 3.37274 45.6035 5.52809 59.1915C9.22229 82.4808 44.2373 96.5446 73.1112 91.6703C98.3273 87.4134 115.917 74.1685 123.385 49.7104C128.879 31.7206 119.984 12.9642 102.381 5.65985Z" fill="url(#paint1_linear_16684_32732)"/>
</mask>
<g mask="url(#mask0_16684_32732)">
<g opacity="0.2">
<g filter="url(#filter1_f_16684_32732)">
<path d="M118.809 14.8392L121.565 21.374C121.565 21.374 104.965 27.1541 94.0571 30.0077C74.4959 35.1249 63.3903 32.5059 43.97 38.9099C33.2737 42.437 34.959 42.3259 14.3424 46.1621C8.03621 47.3356 -1.92233 48.5735 -1.92233 48.5735L-6.92131 44.5716C-6.92131 44.5716 11.9891 40.4206 22.6741 37.2081C40.072 31.9773 48.4148 29.6766 65.2659 24.6153C85.5692 18.5171 118.809 14.8392 118.809 14.8392Z" fill="#B0A9CC"/>
</g>
<g filter="url(#filter2_f_16684_32732)">
<path d="M-1.8802 59.5517L0.875469 66.0865C0.875469 66.0865 17.3017 60.1312 28.3163 57.5303C48.0685 52.8662 59.2817 51.7723 79.9021 48.2139C91.2593 46.254 90.2113 48.5776 109.841 42.4004C115.845 40.5109 124.857 37.0288 124.857 37.0288L125.852 31.5356C125.852 31.5356 107.365 36.6895 96.2568 38.8991C78.1703 42.4971 68.4306 42.0009 50.9165 45.4898C29.8143 49.6936 -1.8802 59.5517 -1.8802 59.5517Z" fill="#B0A9CC"/>
</g>
</g>
<g opacity="0.4">
<path d="M154.227 122.965H-41.0861L-70.4844 120.495C-28.4526 80.867 14.1172 61.7637 58.5171 61.7637C99.7971 61.7637 158.561 86.317 183.095 120.495L154.227 122.965Z" fill="url(#paint2_linear_16684_32732)" style="mix-blend-mode:screen"/>
<path style="mix-blend-mode:screen" fill-rule="evenodd" clip-rule="evenodd" d="M102.584 76.3768C102.301 78.5377 97.8659 79.6182 92.6833 78.795C87.5265 77.9718 83.5816 75.5278 83.891 73.3669C84.1746 71.2059 88.6094 70.1254 93.7662 70.9486C98.9488 71.7719 102.894 74.1901 102.584 76.3768ZM17.3685 73.4955C18.1163 75.5535 14.7386 78.8464 9.86544 80.853C4.99229 82.8597 0.454316 82.8339 -0.293417 80.7759C-1.01537 78.7435 2.36233 75.4506 7.23548 73.444C12.1086 71.4374 16.6466 71.4632 17.3685 73.4955ZM30.9824 77.2C31.4723 78.6664 29.0229 80.9559 25.4905 82.3194C21.9839 83.6571 18.7351 83.5542 18.2452 82.0879C17.7553 80.6215 20.2048 78.3319 23.7372 76.9685C27.2438 75.6307 30.4925 75.7336 30.9824 77.2ZM37.0159 66.6267C37.3511 67.7329 35.4431 69.3794 32.7873 70.2798C30.1316 71.1544 27.7337 71.0001 27.3985 69.8682C27.0633 68.7619 28.9713 67.1412 31.627 66.2408C34.2828 65.3404 36.6807 65.4948 37.0159 66.6267ZM120.685 83.1169C120.246 84.1717 117.823 84.0688 115.27 82.8596C112.717 81.6248 111.016 79.7726 111.454 78.7178C111.892 77.6373 114.316 77.766 116.869 78.9751C119.421 80.1842 121.123 82.0364 120.685 83.1169ZM110.191 86.6671C110.062 87.9791 107.406 88.7251 104.26 88.3392C101.115 87.9533 98.6909 86.5642 98.8198 85.2521C98.9746 83.9401 101.63 83.1684 104.776 83.58C107.922 83.9659 110.345 85.355 110.191 86.6671Z" fill="url(#paint3_radial_16684_32732)"/>
<path style="mix-blend-mode:screen" fill-rule="evenodd" clip-rule="evenodd" d="M11.3577 80.6976C9.14025 81.6238 6.9744 82.1126 5.19531 82.1897C6.63921 81.9582 8.23782 81.5209 9.86221 80.852C14.7354 78.8454 18.113 75.5525 17.3653 73.4944C16.9786 72.3882 15.4573 71.8737 13.3688 71.9509C16.205 71.5136 18.3967 72.0024 18.8608 73.3658C19.6085 75.3981 16.2308 78.691 11.3577 80.6976ZM32.4747 77.0446C32.9646 78.5367 30.5151 80.8263 26.9827 82.164C25.4099 82.7814 23.8629 83.0901 22.5994 83.1159C23.5019 82.9615 24.4817 82.7043 25.4872 82.3184C29.0196 80.9549 31.4691 78.6653 30.9792 77.1989C30.6956 76.4015 29.6127 75.9898 28.1172 76.0156C30.3604 75.6554 32.1137 75.9898 32.4747 77.0446ZM89.5087 70.6903C91.1588 70.4331 93.1442 70.4588 95.2843 70.7932C100.441 71.6165 104.386 74.0604 104.077 76.2214C103.87 77.7392 101.601 78.7425 98.4557 78.8968C100.802 78.5367 102.401 77.6363 102.581 76.3757C102.891 74.189 98.9456 71.7708 93.763 70.9476C92.2675 70.6903 90.8236 70.6132 89.5087 70.6903ZM122.177 82.9615C121.945 83.5275 121.146 83.759 120.037 83.6818C120.346 83.5532 120.578 83.3731 120.681 83.1159C121.12 82.0354 119.418 80.1831 116.865 78.974C115.679 78.4081 114.519 78.0993 113.591 77.9964C114.545 77.6106 116.427 77.9193 118.361 78.8197C120.913 80.0545 122.615 81.9068 122.177 82.9615ZM111.683 86.5117C111.58 87.5407 109.904 88.2353 107.686 88.2867C109.13 88.0295 110.11 87.4378 110.187 86.666C110.342 85.354 107.918 83.9648 104.773 83.5789C104.102 83.476 103.432 83.4503 102.839 83.476C103.819 83.2959 105.005 83.2702 106.268 83.4246C109.414 83.8105 111.838 85.1997 111.683 86.5117ZM38.5081 66.4713C38.8433 67.5775 36.9611 69.224 34.3053 70.1244C33.1451 70.5103 32.0621 70.6903 31.1339 70.6903C31.6668 70.6046 32.2168 70.4674 32.7841 70.2787C35.4398 69.3783 37.3478 67.7319 37.0126 66.6257C36.8322 65.9825 35.9555 65.6481 34.7694 65.6481C36.7032 65.3137 38.2503 65.5966 38.5081 66.4713Z" fill="url(#paint4_radial_16684_32732)"/>
<path opacity="0.5" d="M104.259 88.3363C102.764 88.1562 101.449 87.7446 100.469 87.2301C101.552 86.7155 103.331 86.5097 105.29 86.767C106.786 86.9471 108.101 87.3587 109.081 87.8732C107.998 88.3877 106.219 88.5935 104.259 88.3363Z" fill="url(#paint5_radial_16684_32732)"/>
<path opacity="0.5" d="M92.6774 78.7915C89.2481 78.2513 86.3603 76.9907 84.8906 75.5758C86.2314 74.0837 89.9958 73.4406 94.3017 74.1352C97.731 74.6754 100.619 75.936 102.088 77.3509C100.748 78.843 96.9833 79.4861 92.6774 78.7915Z" fill="url(#paint6_radial_16684_32732)"/>
<path opacity="0.5" d="M117.376 82.1624C118.33 82.6255 119.181 83.1657 119.826 83.7317C118.82 84.0147 117.067 83.706 115.262 82.857C114.308 82.394 113.483 81.8537 112.812 81.2878C113.844 81.0048 115.571 81.3135 117.376 82.1624Z" fill="url(#paint7_radial_16684_32732)"/>
<path opacity="0.5" d="M7.74682 76.6302C11.5886 75.0352 15.2242 74.7265 16.9517 75.6783C15.8945 77.4534 13.2388 79.46 9.8611 80.8492C6.0193 82.4184 2.38377 82.7529 0.65625 81.801C1.71339 80.026 4.36913 78.0194 7.74682 76.6302Z" fill="url(#paint8_radial_16684_32732)"/>
<path opacity="0.5" d="M35.5913 68.8621C34.8435 69.4023 33.8895 69.8911 32.7808 70.277C31.5174 70.6886 30.3056 70.8687 29.3516 70.8429C30.0735 70.3027 31.0275 69.7882 32.1362 69.428C33.3996 68.9907 34.6373 68.8106 35.5913 68.8621Z" fill="url(#paint9_radial_16684_32732)"/>
<path opacity="0.5" d="M24.2505 80.181C26.571 79.2806 28.7884 79.0233 30.155 79.3835C29.1752 80.4383 27.525 81.5445 25.4881 82.3162C23.1675 83.2166 20.9759 83.4482 19.6094 83.1137C20.5634 82.0332 22.2135 80.9528 24.2505 80.181Z" fill="url(#paint10_radial_16684_32732)"/>
<path opacity="0.3" d="M14.506 83.1159C14.7381 83.9134 13.3457 85.1225 11.3862 85.7914C9.40081 86.4603 7.62172 86.3317 7.38966 85.5084C7.13182 84.7109 8.54995 83.5018 10.5095 82.833C12.4691 82.1641 14.274 82.2927 14.506 83.1159Z" fill="url(#paint11_radial_16684_32732)"/>
<path opacity="0.3" d="M88.1183 68.0148C87.9894 68.8638 86.2619 69.3011 84.2249 68.9924C82.1622 68.6837 80.5894 67.7576 80.7183 66.9086C80.8215 66.0597 82.5748 65.6223 84.6117 65.931C86.6486 66.2397 88.2214 67.1659 88.1183 68.0148Z" fill="url(#paint12_radial_16684_32732)"/>
<path opacity="0.3" d="M130.925 85.1732C130.512 85.9193 128.759 85.5591 126.98 84.4014C125.227 83.2438 124.144 81.726 124.556 80.9799C124.969 80.2596 126.722 80.6198 128.476 81.7517C130.255 82.9093 131.338 84.4529 130.925 85.1732Z" fill="url(#paint13_radial_16684_32732)"/>
<path opacity="0.3" d="M92.9664 68.8888C92.9406 69.2489 92.1929 69.4547 91.3162 69.3261C90.4653 69.1975 89.795 68.7859 89.8465 68.4257C89.8723 68.0655 90.6201 67.8855 91.4967 68.0141C92.3476 68.1427 93.018 68.5286 92.9664 68.8888Z" fill="url(#paint14_radial_16684_32732)"/>
<path opacity="0.3" d="M101.43 81.1108C101.378 81.4709 100.63 81.651 99.7795 81.5224C98.9029 81.3938 98.2325 81.0079 98.284 80.6477C98.3356 80.2875 99.0833 80.0817 99.9342 80.2104C100.811 80.339 101.481 80.7506 101.43 81.1108Z" fill="url(#paint15_radial_16684_32732)"/>
<path opacity="0.3" d="M109.623 73.006C109.597 73.3661 108.849 73.5462 107.972 73.4176C107.122 73.2889 106.451 72.9031 106.503 72.5429C106.529 72.1827 107.276 72.0027 108.153 72.1313C109.004 72.2599 109.674 72.6458 109.623 73.006Z" fill="url(#paint16_radial_16684_32732)"/>
<path opacity="0.3" d="M116.536 85.6372C116.433 85.9716 115.659 85.9459 114.834 85.6114C114.035 85.2513 113.467 84.711 113.596 84.3766C113.725 84.0422 114.473 84.0422 115.298 84.4023C116.123 84.7368 116.665 85.3027 116.536 85.6372Z" fill="url(#paint17_radial_16684_32732)"/>
<path opacity="0.3" d="M114.728 75.9371C114.599 76.5031 113.387 76.6317 112.02 76.2458C110.654 75.86 109.674 75.0625 109.829 74.5222C109.957 73.9562 111.169 73.8276 112.536 74.2135C113.877 74.5994 114.882 75.3712 114.728 75.9371Z" fill="url(#paint18_radial_16684_32732)"/>
<path opacity="0.3" d="M89.3786 79.7207C89.2754 80.3124 88.0894 80.5697 86.697 80.3381C85.3047 80.1066 84.2476 79.4377 84.3507 78.8718C84.4281 78.2801 85.6141 78.0228 87.0065 78.2544C88.3988 78.5116 89.4559 79.1548 89.3786 79.7207Z" fill="url(#paint19_radial_16684_32732)"/>
<path opacity="0.3" d="M33.4549 72.5933C33.5581 73.1078 32.6814 73.8024 31.4438 74.1368C30.2319 74.4713 29.1232 74.3426 29.0201 73.8281C28.8912 73.3136 29.7936 72.619 31.0054 72.2846C32.2431 71.9501 33.326 72.0788 33.4549 72.5933Z" fill="url(#paint20_radial_16684_32732)"/>
<path opacity="0.3" d="M32.1952 82.2398C32.2983 82.7543 31.4217 83.4231 30.1841 83.7576C28.9722 84.1177 27.8635 83.9634 27.7346 83.4746C27.6315 82.9601 28.5339 82.2655 29.7457 81.9311C30.9834 81.5966 32.0663 81.7253 32.1952 82.2398Z" fill="url(#paint21_radial_16684_32732)"/>
<path opacity="0.3" d="M34.6956 79.875C34.773 80.2095 34.2315 80.6211 33.458 80.8269C32.7103 81.0584 32.0141 80.9555 31.9367 80.6468C31.8594 80.3381 32.4266 79.9007 33.2002 79.6949C33.9479 79.4891 34.6441 79.5663 34.6956 79.875Z" fill="url(#paint22_radial_16684_32732)"/>
<path opacity="0.3" d="M27.1722 67.166C27.2495 67.5005 26.7081 67.9121 25.9346 68.1436C25.1611 68.3494 24.4907 68.2465 24.4133 67.9378C24.336 67.6291 24.9032 67.1918 25.651 66.986C26.4245 66.7802 27.0948 66.8573 27.1722 67.166Z" fill="url(#paint23_radial_16684_32732)"/>
<path opacity="0.3" d="M17.5003 79.875C17.5777 80.2095 17.0362 80.6211 16.2627 80.8269C15.4892 81.0584 14.8188 80.9555 14.7414 80.6468C14.6641 80.3381 15.2313 79.9007 15.9791 79.6949C16.7526 79.4891 17.423 79.5663 17.5003 79.875Z" fill="url(#paint24_radial_16684_32732)"/>
<path opacity="0.3" d="M44.0842 71.28C44.3162 72.0775 42.9239 73.2866 40.9385 73.9555C38.9789 74.6243 37.1998 74.4957 36.9678 73.6725C36.7099 72.875 38.1281 71.6659 40.0876 70.997C42.0472 70.3281 43.8521 70.4568 44.0842 71.28Z" fill="url(#paint25_radial_16684_32732)"/>
<path opacity="0.3" d="M47.0706 68.041C47.148 68.3755 46.6065 68.7871 45.833 68.9929C45.0595 69.2244 44.3891 69.1215 44.3118 68.8128C44.2344 68.5041 44.8016 68.0668 45.5494 67.861C46.3229 67.6552 46.9933 67.7323 47.0706 68.041Z" fill="url(#paint26_radial_16684_32732)"/>
<path opacity="0.3" d="M18.0397 69.6631C18.117 69.9718 17.5498 70.3834 16.802 70.6149C16.0285 70.8207 15.3581 70.7436 15.2808 70.4091C15.2034 70.1004 15.7449 69.6631 16.5184 69.4573C17.2919 69.2515 17.9623 69.3287 18.0397 69.6631Z" fill="url(#paint27_radial_16684_32732)"/>
</g>
<g opacity="0.5">
<path d="M25.5913 40.5869C25.7111 41.3237 25.7619 42.0543 25.7477 42.7748C25.7213 44.5243 25.3212 46.2088 24.6186 47.735C24.3262 48.3622 23.9911 48.9589 23.6033 49.5271C21.7513 52.2488 18.823 54.2316 15.3161 54.7959C12.8082 55.1997 10.3612 54.8243 8.21273 53.844C5.72311 52.7135 3.6437 50.7733 2.35218 48.3114C1.74907 47.1546 1.31653 45.8861 1.09925 44.5304C1.05255 44.2422 1.01803 43.954 0.989597 43.6658C0.959139 43.3045 0.938831 42.9453 0.938831 42.5861C0.938831 41.7377 1.02006 40.9076 1.18657 40.0978C1.56022 38.2347 2.36234 36.5014 3.49546 35.0199C5.35353 32.5925 8.1112 30.8431 11.3704 30.3174C14.5505 29.806 17.6412 30.5528 20.141 32.1846C20.5776 32.4748 20.9979 32.7914 21.4 33.1324C21.8955 33.5525 22.3605 34.0173 22.789 34.5186C24.2145 36.1909 25.2156 38.2611 25.5913 40.5869Z" fill="url(#paint28_linear_16684_32732)"/>
<g style="mix-blend-mode:overlay" opacity="0.38">
<path d="M21.3984 33.1314C19.3617 33.793 16.6994 34.6962 14.2849 35.6359C11.4582 36.7359 5.53879 38.6863 1.18501 40.0968C1.55865 38.2337 2.36077 36.5005 3.49389 35.0189C5.39462 34.408 7.52277 33.9737 9.54533 34.0833C12.8269 34.2639 17.1015 33.1557 20.1394 32.1836C20.576 32.4738 20.9964 32.7904 21.3984 33.1314Z" fill="white"/>
</g>
<g style="mix-blend-mode:overlay" opacity="0.38">
<path d="M0.938831 42.5851C1.72674 42.1994 8.51937 40.933 12.5259 39.5407C15.4826 38.5097 20.1958 35.9687 22.789 34.5176C24.2145 36.1899 25.2156 38.2601 25.5913 40.5859C25.7111 41.3227 25.7619 42.0533 25.7477 42.7738C22.1107 42.6074 17.2087 42.3253 13.5575 41.9072C8.43002 41.3166 3.08526 42.9301 0.989597 43.6648L0.938831 42.5851Z" fill="white"/>
</g>
<g style="mix-blend-mode:overlay" opacity="0.38">
<path d="M24.6094 47.7376C24.317 48.3648 23.9819 48.9615 23.594 49.5297L14.7098 50.9098L8.20343 53.8466C5.71381 52.7161 3.63438 50.7759 2.34286 48.314C3.4171 47.8208 5.16146 47.4271 8.00645 47.5063C12.6141 47.6321 17.6746 47.7336 23.1899 47.8087L24.6094 47.7376Z" fill="white"/>
</g>
<path d="M24.1681 36.5001C24.4747 37.0461 24.7387 37.6184 24.9621 38.2172C27.7218 38.1806 29.4478 38.4384 29.5412 39.0148C29.6306 39.5749 28.1604 40.336 25.6626 41.1397C22.6877 42.0936 18.2608 43.1043 13.2735 43.908C8.58257 44.663 4.30392 45.0892 1.21526 45.1603C-1.74548 45.2252 -3.61574 44.9695 -3.71321 44.3687C-3.81069 43.7558 -2.02369 42.8932 0.947205 42.0023C0.977665 41.365 1.05483 40.7318 1.1787 40.1168C-4.54173 41.8298 -8.20102 43.8147 -7.95124 45.3652C-7.70756 46.8793 -3.79241 47.614 1.95849 47.4882C5.34973 47.4171 9.3786 47.0417 13.6674 46.3516C18.21 45.621 22.3628 44.6407 25.7073 43.5792C30.8734 41.9373 34.1123 40.0884 33.8788 38.6292C33.6371 37.1334 29.8052 36.3946 24.1681 36.5001Z" fill="url(#paint29_linear_16684_32732)"/>
</g>
<g style="mix-blend-mode:luminosity">
<path d="M58.644 76.1985C57.7639 76.0841 57.3048 75.9316 57.3048 75.7791C57.3048 74.8641 76.2455 74.1016 99.5867 74.1016C122.928 74.1016 137.054 75.9697 137.054 76.9229C137.054 77.3804 137.315 76.656 129.892 76.9229C133.68 77.2279 136.167 77.7617 136.167 78.3717C136.167 79.3248 130.121 80.0873 122.698 80.0873C115.275 80.0873 109.229 79.3248 109.229 78.3717C109.229 77.9904 110.186 77.6473 111.831 77.3423C107.928 77.3804 103.834 77.4185 99.5484 77.4185C95.4924 77.4185 91.5512 77.3804 87.8396 77.3423C87.763 78.2573 80.1867 78.9817 70.812 78.9817C61.399 78.9817 53.7845 78.2192 53.7845 77.3041C53.8227 76.9229 55.6594 76.5035 58.644 76.1985Z" fill="#D8AAFF"/>
<path d="M104.672 79.7844C103.214 79.7844 102.032 79.5284 102.032 79.2125C102.032 78.8967 103.214 78.6406 104.672 78.6406C106.13 78.6406 107.312 78.8967 107.312 79.2125C107.312 79.5284 106.13 79.7844 104.672 79.7844Z" fill="#835BF2"/>
<path d="M108.732 81.0027C107.971 81.0027 107.354 80.8491 107.354 80.6595C107.354 80.47 107.971 80.3164 108.732 80.3164C109.493 80.3164 110.109 80.47 110.109 80.6595C110.109 80.8491 109.493 81.0027 108.732 81.0027Z" fill="#835BF2"/>
<path d="M112.961 67.2246H131.812V29.5181L114.115 23.6562L112.961 67.2246Z" fill="url(#paint30_linear_16684_32732)"/>
<path d="M114.219 23.6562V67.2246H72.9545V24.743L114.219 23.6562Z" fill="url(#paint31_linear_16684_32732)"/>
<path d="M115.426 78.4619L138.039 77.6966V28.8917L116.688 22.4785L115.426 78.4619Z" fill="#9565FF"/>
<path d="M117.531 21.9545L116.741 75.6975H66.6861V9.83594L117.531 21.9545Z" fill="#908EA4"/>
<path d="M116.688 22.4802V78.3318H66.1614L66.791 13.1289L116.688 22.4802Z" fill="#BA9BFF"/>
<path d="M94.5316 45.5859H111.023V75.6673H94.5316V45.5859Z" fill="#AD9DDC"/>
<path d="M95.9857 47.0723H109.531V75.6668H95.9857V47.0723Z" fill="#D5CCF1"/>
<g opacity="0.2">
<path d="M95.7848 47.1152H96.9684L109.609 67.6899V69.5278L95.7848 47.1152Z" fill="white"/>
<path d="M109.609 61.8615V65.548L98.2984 47.1152H100.57L109.609 61.8615Z" fill="white"/>
</g>
<path d="M102.563 47.0723H102.984V75.6668H102.563V47.0723Z" fill="#D5CCF1"/>
<path d="M116.688 22.4805L64.3804 24.0055L57.3015 41.5435H109.264L116.688 22.4805Z" fill="#9E8DD0"/>
<path d="M109.227 41.5059C109.227 43.4503 107.581 45.0516 105.515 45.0516C103.449 45.0516 101.803 43.4884 101.803 41.5059C101.803 43.4503 100.158 45.0516 98.0917 45.0516C96.0254 45.0516 94.3801 43.4884 94.3801 41.5059C94.3801 43.4503 92.7347 45.0516 90.6684 45.0516C88.6022 45.0516 86.9568 43.4884 86.9568 41.5059C86.9568 43.4503 85.3115 45.0516 83.2452 45.0516C81.1789 45.0516 79.5336 43.4884 79.5336 41.5059C79.5336 43.4503 77.8882 45.0516 75.822 45.0516C73.7557 45.0516 72.1103 43.4884 72.1103 41.5059C72.1103 43.4503 70.465 45.0516 68.3987 45.0516C66.3324 45.0516 64.6871 43.4884 64.6871 41.5059C64.6871 43.4503 63.0417 45.0516 60.9755 45.0516C58.9092 45.0516 57.2638 43.4884 57.2638 41.5059H109.227Z" fill="url(#paint32_linear_16684_32732)"/>
<path d="M102.337 40.9141L109.416 23.3762L116.266 23.1855L109.761 40.876V40.9141C109.761 42.8586 106.049 44.4217 106.049 44.4217C106.049 44.4217 102.337 42.8586 102.337 40.9141Z" fill="url(#paint33_linear_16684_32732)"/>
<path d="M87.8843 41.1231L94.9632 23.5852L101.812 23.3945L95.3076 41.085V41.1231C95.3076 43.0675 91.596 44.6307 91.596 44.6307C91.596 44.6307 87.8843 43.0675 87.8843 41.1231Z" fill="url(#paint34_linear_16684_32732)"/>
<path d="M72.5953 41.3321L79.6742 23.7941L86.5234 23.6035L80.0185 41.294V41.3321C80.0185 43.2765 76.3069 44.8397 76.3069 44.8397C76.3069 44.8397 72.5953 43.2765 72.5953 41.3321Z" fill="url(#paint35_linear_16684_32732)"/>
<path d="M57.3062 41.543L64.3851 24.0051L71.2344 23.8145L64.7295 41.5049V41.543C64.7295 43.4875 61.0178 45.0506 61.0178 45.0506C61.0178 45.0506 57.3062 43.4875 57.3062 41.543Z" fill="url(#paint36_linear_16684_32732)"/>
<path d="M109.227 41.5059C109.227 43.4503 107.581 45.0516 105.515 45.0516C103.449 45.0516 101.803 43.4884 101.803 41.5059C101.803 43.4503 100.158 45.0516 98.0917 45.0516C96.0254 45.0516 94.3801 43.4884 94.3801 41.5059C94.3801 43.4503 92.7347 45.0516 90.6684 45.0516C88.6022 45.0516 86.9568 43.4884 86.9568 41.5059C86.9568 43.4503 85.3115 45.0516 83.2452 45.0516C81.1789 45.0516 79.5336 43.4884 79.5336 41.5059C79.5336 43.4503 77.8882 45.0516 75.8219 45.0516C73.7557 45.0516 72.1103 43.4884 72.1103 41.5059C72.1103 43.4503 70.465 45.0516 68.3987 45.0516C66.3324 45.0516 64.6871 43.4884 64.6871 41.5059C64.6871 43.4503 60.9754 45.0516 60.9754 45.0516C60.9754 45.0516 57.2638 43.4884 57.2638 41.5059H109.227Z" fill="#C4B8E8"/>
<path d="M68.9708 45.6504H93.6875V71.2049H68.9708V45.6504Z" fill="#AD9DDC"/>
<path d="M70.2266 47.3262H92.4297V69.9482H70.2266V47.3262Z" fill="#D5CCF1"/>
<path d="M70.2266 65.5488H92.4297V66.3867H70.2266V65.5488Z" fill="#AD9DDC"/>
<path d="M70.2266 54.8672H92.4297V55.705H70.2266V54.8672Z" fill="#AD9DDC"/>
</g>
</g>
<g opacity="0.4" filter="url(#filter3_f_16684_32732)">
<path d="M55.6932 95.4394C55.1041 99.396 47.1234 101.487 37.8678 100.109C33.4235 99.4469 21.8058 94.0307 21.8058 94.0307L22.1756 90.4494C22.1756 90.4494 30.7454 84.4022 40.001 85.7802C49.2566 87.1581 56.2823 91.4827 55.6932 95.4394Z" fill="#5B47A4"/>
</g>
<g opacity="0.1" filter="url(#filter4_f_16684_32732)">
<path d="M21.4297 91.4543L31.073 94.4209L43.7193 91.3164V92.5767L31.073 96.6658L21.4297 92.92V91.4543Z" fill="black"/>
</g>
<path d="M31.0781 82.2089L44.0099 79.1719V92.7894L31.0781 96.3163L31.0781 82.2089Z" fill="url(#paint37_linear_16684_32732)"/>
<path d="M31.0781 82.2089L21.2813 79.1719V92.7894L31.0781 96.3163V82.2089Z" fill="url(#paint38_linear_16684_32732)"/>
<path d="M26.1686 80.6894L25.3585 80.4468V81.9983H25.5189L25.7594 82.1486L25.9198 82.3891L26.1686 82.309L26.8017 82.6577V80.8855L26.1686 80.6894Z" fill="#DCD1FE"/>
<path fill-rule="evenodd" clip-rule="evenodd" d="M39.3096 77.738L44.1726 79.1741L33.9144 81.5452L31.0603 82.2047L26.8017 80.8855L33.0557 79.3118L39.3096 77.738ZM37.8664 77.3118L33.9002 76.1406L21.1094 79.1741L25.3585 80.4468L37.8664 77.3118Z" fill="url(#paint39_linear_16684_32732)"/>
<path d="M25.3585 80.4468L26.1686 80.6894L26.8017 80.8855L33.0557 79.3118L39.3096 77.738L37.8664 77.3118L25.3585 80.4468Z" fill="#D0C3FB"/>
<g opacity="0.1" filter="url(#filter5_f_16684_32732)">
<path d="M32.4375 95.4797L42.0808 98.4463L54.7271 95.3418V96.6021L42.0808 100.691L32.4375 96.9454V95.4797Z" fill="black"/>
</g>
<path d="M42.0781 86.2343L55.0099 83.1973V96.8148L42.0781 100.342L42.0781 86.2343Z" fill="url(#paint40_linear_16684_32732)"/>
<path d="M42.0781 86.2343L32.2813 83.1973V96.8148L42.0781 100.342V86.2343Z" fill="url(#paint41_linear_16684_32732)"/>
<path d="M37.1764 84.7148L36.3663 84.4721V86.0237H36.5267L36.7672 86.174L36.9276 86.4145L37.1764 86.3343L37.8095 86.6831V84.9109L37.1764 84.7148Z" fill="#DCD1FE"/>
<path fill-rule="evenodd" clip-rule="evenodd" d="M50.3174 81.7634L55.1804 83.1995L44.9222 85.5706L42.0681 86.2301L37.8095 84.9109L44.0635 83.3372L50.3174 81.7634ZM48.8742 81.3372L44.908 80.166L32.1172 83.1995L36.3663 84.4721L48.8742 81.3372Z" fill="url(#paint42_linear_16684_32732)"/>
<path d="M36.3663 84.4721L37.1764 84.7148L37.8095 84.9109L44.0635 83.3372L50.3174 81.7634L48.8742 81.3372L36.3663 84.4721Z" fill="#D0C3FB"/>
<g opacity="0.1" filter="url(#filter6_f_16684_32732)">
<path d="M26.9766 81.0114L35.9734 83.7792L47.7719 80.8828V82.0586L35.9734 85.8736L26.9766 82.3789V81.0114Z" fill="black"/>
</g>
<path d="M35.9688 72.3862L48.0336 69.5527V82.2574L35.9688 85.5478L35.9688 72.3862Z" fill="url(#paint43_linear_16684_32732)"/>
<path d="M35.9688 72.3862L26.8287 69.5527V82.2574L35.9688 85.5478V72.3862Z" fill="url(#paint44_linear_16684_32732)"/>
<path d="M31.3997 70.9684L30.644 70.7421V72.1896H30.7936L31.018 72.3298L31.1676 72.5542L31.3997 72.4794L31.9904 72.8048V71.1514L31.3997 70.9684Z" fill="#DCD1FE"/>
<path fill-rule="evenodd" clip-rule="evenodd" d="M43.6598 68.2149L48.1968 69.5547L38.6263 71.7669L35.9635 72.3821L31.9904 71.1514L37.8251 69.6832L43.6598 68.2149ZM42.3133 67.8173L38.613 66.7246L26.6797 69.5547L30.644 70.7421L42.3133 67.8173Z" fill="url(#paint45_linear_16684_32732)"/>
<path d="M30.644 70.7421L31.3997 70.9684L31.9904 71.1514L37.8251 69.6832L43.6598 68.2149L42.3133 67.8173L30.644 70.7421Z" fill="#D0C3FB"/>
<g opacity="0.4" filter="url(#filter7_f_16684_32732)">
<ellipse cx="77.6197" cy="100.365" rx="16.8228" ry="2.23656" fill="#5B47A4"/>
</g>
<path d="M65.5231 84.5156C65.5231 84.5156 69.2669 80.5287 70.2394 77.4169C70.5756 76.3409 72.7677 62.0527 72.7677 62.0527C72.7677 62.0527 69.3642 63.9976 68.0514 66.3314C65.7551 70.4136 65.5231 76.1528 65.5231 76.1528L62.7031 81.3552L65.5231 84.5156Z" fill="#4348B1"/>
<path fill-rule="evenodd" clip-rule="evenodd" d="M73.0954 62.1032L72.759 62.0516L72.5901 61.7561L73.2023 61.4062L73.0954 62.1032ZM65.5145 84.5144L65.7626 84.7474L65.5081 85.0185L62.2812 81.4022L65.1783 76.0576C65.1807 76.0136 65.1842 75.9522 65.1893 75.8748C65.2003 75.7068 65.2186 75.4633 65.2478 75.1587C65.3061 74.5497 65.408 73.6955 65.5824 72.7123C65.9302 70.7518 66.5707 68.2531 67.7461 66.1634C68.4373 64.9345 69.6618 63.8307 70.6861 63.0456C71.2026 62.6498 71.6769 62.3284 72.0224 62.1058C72.1952 61.9945 72.3361 61.9076 72.4343 61.8483C72.4834 61.8187 72.5218 61.7959 72.5482 61.7804C72.5614 61.7727 72.5716 61.7668 72.5787 61.7627L72.5868 61.758L72.5891 61.7567L72.59 61.7562C72.5901 61.7561 72.5901 61.7561 72.759 62.0516C73.0954 62.1032 73.0954 62.1032 73.0954 62.1034L73.0707 62.264C73.0545 62.369 73.0308 62.5231 73.0005 62.7195C72.9399 63.1124 72.8529 63.6749 72.7475 64.3532C72.5368 65.7097 72.2522 67.5298 71.9571 69.3837C71.662 71.2373 71.3563 73.1255 71.1032 74.6181C70.9767 75.3642 70.8631 76.0127 70.7705 76.5091C70.6798 76.9951 70.605 77.3591 70.5556 77.5173C70.0503 79.134 68.839 80.9489 67.7785 82.3385C67.2444 83.0383 66.7414 83.6395 66.3718 84.0658C66.1869 84.2791 66.0352 84.4488 65.9295 84.5656C65.8766 84.6239 65.8352 84.6691 65.8068 84.6998C65.7991 84.7082 65.7923 84.7155 65.7866 84.7217C65.7818 84.7268 65.7777 84.7312 65.7743 84.7349L65.7658 84.744L65.7635 84.7464L65.7629 84.7471L65.7627 84.7473C65.7626 84.7474 65.7626 84.7474 65.5145 84.5144ZM65.8545 76.1655L65.8514 76.2444L63.1077 81.306L65.5172 84.0063C65.6096 83.9031 65.7247 83.7731 65.8575 83.6199C66.2202 83.2015 66.7139 82.6115 67.2374 81.9255C68.2919 80.5438 69.4387 78.8093 69.9059 77.3143C69.9405 77.2034 70.0078 76.8856 70.1013 76.3842C70.1929 75.8933 70.3058 75.249 70.4321 74.5043C70.6846 73.0151 70.9899 71.1296 71.2848 69.2767C71.5798 67.4239 71.8642 65.6047 72.0749 64.2487C72.1704 63.6341 72.2508 63.1147 72.3101 62.7305C71.985 62.9423 71.5595 63.2338 71.1002 63.5858C70.0946 64.3566 68.9609 65.3921 68.3394 66.4971C67.2186 68.4896 66.5949 70.9017 66.2526 72.8312C66.082 73.7931 65.9824 74.6289 65.9254 75.2236C65.8969 75.5208 65.8792 75.7575 65.8685 75.9194C65.8632 76.0003 65.8597 76.0624 65.8575 76.104C65.8564 76.1249 65.8557 76.1405 65.8552 76.1508L65.8547 76.1622L65.8546 76.1648L65.8545 76.1655Z" fill="#64EDFF"/>
<path d="M76.2149 96.9126C76.2149 96.9126 75.2908 90.6176 78.1808 90.1596C81.1937 90.9867 81.7577 96.0988 81.7577 96.0988L89.0996 96.0988C89.0996 96.0988 89.3067 92.4309 90.2177 89.2809C91.2767 85.6185 93.0153 82.1772 92.2382 78.534C90.909 72.3023 87.6632 62.8722 87.6632 62.8722C87.4673 61.9764 84.9136 60.9523 84.0937 60.8474L75.2647 59.087C74.4026 58.9753 73.5848 59.516 73.267 60.4178C73.267 60.4178 69.5304 71.3126 68.1561 78.534C66.8841 85.2179 68.2719 95.8329 67.9979 96.6226C67.7271 97.412 74.9306 96.9126 74.9306 96.9126L76.2149 96.9126Z" fill="url(#paint46_linear_16684_32732)"/>
<path fill-rule="evenodd" clip-rule="evenodd" d="M76.98 96.7993L76.98 96.7991L76.9797 96.7973L76.9782 96.7867C76.9769 96.7768 76.9747 96.7611 76.972 96.7401C76.9664 96.6981 76.9585 96.6347 76.9492 96.553C76.9307 96.3895 76.907 96.1532 76.8871 95.8674C76.8472 95.2928 76.824 94.533 76.885 93.7693C76.9469 92.9936 77.0913 92.276 77.3488 91.749C77.5634 91.3097 77.8216 91.0631 78.1414 90.9638C79.168 91.3363 79.8889 92.4385 80.366 93.7118C80.6063 94.3532 80.761 94.9761 80.8555 95.4414C80.9025 95.673 80.9341 95.8628 80.9537 95.9929C80.9635 96.0579 80.9703 96.1078 80.9745 96.1404C80.9766 96.1567 80.9781 96.1686 80.9789 96.1759L80.9798 96.1833L80.9798 96.1836L80.9799 96.1839L80.9799 96.1842L80.9799 96.1844L81.0563 96.8762L89.8303 96.8762L89.8717 96.1423L89.8717 96.1421L89.8718 96.1407L89.8722 96.134C89.8726 96.1278 89.8731 96.1181 89.874 96.1052C89.8756 96.0793 89.8781 96.0401 89.8817 95.9888C89.8889 95.886 89.9003 95.7345 89.9167 95.5423C89.9496 95.1577 90.003 94.6114 90.0842 93.9681C90.2475 92.6764 90.5208 91.0166 90.9604 89.4965C91.1947 88.6862 91.4632 87.8861 91.7357 87.0743C91.7646 86.9882 91.7935 86.902 91.8225 86.8156C92.122 85.9217 92.4218 85.0127 92.6639 84.099C93.1486 82.2695 93.4191 80.3624 92.9944 78.3712C92.322 75.2186 91.1692 71.2749 90.1903 68.1342C89.6999 66.5607 89.2512 65.1827 88.925 64.198C88.7619 63.7055 88.6294 63.3113 88.5376 63.0398C88.4917 62.9041 88.4559 62.7991 88.4316 62.7278C88.4207 62.6959 88.4121 62.6707 88.4059 62.6526C88.2819 62.1785 87.9144 61.8204 87.6193 61.5845C87.2805 61.3138 86.8643 61.0703 86.4546 60.8663C85.6691 60.4752 84.7557 60.1555 84.2175 60.0793L75.3863 58.3184L75.3601 58.315C74.0884 58.1503 72.9527 58.9557 72.5287 60.1588L72.5277 60.1619L72.5266 60.165L73.2625 60.4173C73.5802 59.5155 74.398 58.9748 75.2601 59.0865L84.0891 60.8469C84.909 60.9518 87.4628 61.9759 87.6586 62.8717C87.6586 62.8717 90.9044 72.3018 92.2336 78.5335C92.8352 81.3539 91.9291 84.0533 90.9978 86.828C90.7261 87.6374 90.4523 88.4533 90.2131 89.2804C89.3022 92.4304 89.095 96.0983 89.095 96.0983L81.7531 96.0983C81.7531 96.0983 81.1891 90.9862 78.1762 90.1592C75.9189 90.5169 75.9885 94.4354 76.1271 96.1341C76.166 96.6103 76.2103 96.9121 76.2103 96.9121L74.9261 96.9121C74.9261 96.9121 67.7226 97.4115 67.9934 96.6221C68.0768 96.3816 68.0061 95.2301 67.9034 93.556C67.6688 89.7323 67.2669 83.1821 68.1516 78.5335C69.5259 71.3121 73.2625 60.4173 73.2625 60.4173C72.5266 60.165 72.5266 60.165 72.5265 60.1652L72.5155 60.1975C72.5082 60.2187 72.4975 60.2501 72.4836 60.2913C72.4556 60.3736 72.4145 60.4949 72.3618 60.6518C72.2564 60.9654 72.1045 61.4211 71.9179 61.9902C71.5449 63.1283 71.0332 64.721 70.4783 66.5405C69.3708 70.1718 68.0827 74.7341 67.3873 78.388C66.733 81.8263 66.7671 86.2302 66.921 89.8214C66.9814 91.2324 67.0612 92.5322 67.1272 93.6076C67.1455 93.906 67.1627 94.1871 67.1782 94.4485C67.2141 95.0545 67.2401 95.5475 67.249 95.9112C67.2534 96.0937 67.2532 96.2318 67.2491 96.3293C67.2471 96.3756 67.2446 96.4027 67.2433 96.415C67.2025 96.5575 67.1932 96.7192 67.2358 96.8854C67.2815 97.0639 67.3744 97.1987 67.4637 97.2924C67.6261 97.4626 67.825 97.5479 67.9488 97.5927C68.2149 97.689 68.5541 97.7412 68.8844 97.7744C69.5685 97.8434 70.4808 97.8541 71.3697 97.841C72.2662 97.8277 73.1684 97.7894 73.8447 97.7547C74.1833 97.7373 74.4663 97.7207 74.6649 97.7085C74.7643 97.7023 74.8426 97.6973 74.8963 97.6938C74.9199 97.6922 74.9387 97.6909 74.9525 97.69L77.1108 97.69L76.98 96.7993Z" fill="#64EDFF"/>
<path d="M83.0796 84.6632C82.7867 85.032 82.4795 85.3728 82.1531 85.6651C81.993 85.8148 81.8213 85.9435 81.6529 86.0725C81.4876 86.2051 81.3146 86.3103 81.149 86.4462L81.124 86.4641C80.98 86.5819 80.9584 86.7905 81.0762 86.9345C81.1697 87.0497 81.3236 87.0865 81.4551 87.0345C81.6972 86.942 81.9234 86.8014 82.1121 86.6307C82.3075 86.4607 82.4684 86.2642 82.6102 86.056C82.7521 85.8478 82.868 85.6307 82.9649 85.4018C83.0582 85.176 83.1321 84.9419 83.1669 84.6976C83.1725 84.6713 83.1546 84.6464 83.1251 84.6404C83.1085 84.639 83.091 84.6475 83.0799 84.6599L83.0796 84.6632Z" fill="#64EDFF"/>
<path d="M73.88 74.5684C73.8904 74.5574 73.7194 74.5834 73.4697 74.4718C73.3393 74.4108 73.1968 74.2965 73.0848 74.117C73.0397 74.0323 72.994 73.9261 72.9694 73.8087C72.9559 73.7018 72.963 73.5621 72.9597 73.4334C72.9311 72.3394 72.9011 70.7733 72.8508 68.8429C72.8381 68.3567 72.8284 67.8489 72.8218 67.3197C72.8151 67.0623 72.9266 66.8125 73.1259 66.6356C73.2312 66.5578 73.3475 66.4903 73.4757 66.4655C73.6035 66.43 73.7432 66.4371 73.8934 66.4332C75.0302 66.4036 76.2421 66.372 77.5291 66.3384C80.0923 66.2716 82.9129 66.1981 85.8623 66.1213C86.2162 66.1121 86.5548 66.3393 86.6811 66.658C86.7604 66.8169 86.7542 66.9888 86.7589 67.1711C86.7636 67.3499 86.7683 67.5322 86.7732 67.7181C86.7918 68.4331 86.8102 69.1409 86.8285 69.8416C86.8468 70.5423 86.8646 71.2251 86.8819 71.89C86.8906 72.2261 86.8993 72.5586 86.9079 72.8874C86.9121 73.0483 86.9273 73.2196 86.9207 73.3808C86.9139 73.5312 86.8642 73.6828 86.7815 73.803C86.6166 74.0648 86.3199 74.2121 86.0191 74.1985C85.7045 74.2067 85.397 74.2147 85.0967 74.2225C84.4892 74.2455 83.8994 74.2644 83.3274 74.2793C82.1906 74.309 81.1288 74.3366 80.1529 74.3621C78.2227 74.4231 76.6572 74.4746 75.5632 74.5031C75.027 74.5171 74.609 74.5387 74.3194 74.5463C74.1764 74.55 74.0692 74.5528 73.9977 74.5546C73.9478 74.5631 73.9086 74.5677 73.88 74.5684C73.9086 74.5677 73.948 74.5703 73.9982 74.5761C74.0697 74.5742 74.177 74.5714 74.32 74.5677C74.6096 74.5602 75.0281 74.56 75.5643 74.546C76.6583 74.5175 78.2244 74.4874 80.1551 74.4479C81.1311 74.4224 82.1928 74.3948 83.3297 74.3651C83.9017 74.3502 84.4916 74.3384 85.0995 74.3297C85.3998 74.3219 85.7073 74.3139 86.0219 74.3057C86.3442 74.3188 86.6832 74.149 86.869 73.8651C86.9618 73.7231 87.0217 73.5499 87.028 73.378C87.0235 73.2064 87.0196 73.0562 87.0151 72.8847C87.0065 72.5558 86.9979 72.2233 86.9891 71.8872C86.9718 71.2223 86.954 70.5395 86.9357 69.8388C86.9175 69.1381 86.899 68.4303 86.8804 67.7153C86.8756 67.5294 86.8708 67.3471 86.8662 67.1683C86.8617 66.9967 86.8671 66.7927 86.7873 66.6123C86.6384 66.2513 86.256 65.993 85.8595 66.014C82.9101 66.0909 80.0895 66.1644 77.5263 66.2312C76.2396 66.2755 75.0277 66.307 73.8909 66.3367C73.7514 66.3403 73.601 66.3335 73.4517 66.3696C73.3131 66.4054 73.1757 66.4841 73.0706 66.5727C72.8502 66.7609 72.7287 67.0431 72.736 67.3219C72.7498 67.851 72.763 68.3586 72.7757 68.8448C72.8367 70.775 72.8775 72.3408 72.9168 73.4345C72.9201 73.5632 72.9127 73.6922 72.9375 73.8203C72.9621 73.9377 73.0078 74.0438 73.0639 74.139C73.1759 74.3185 73.3291 74.4326 73.4592 74.4828C73.5896 74.5438 73.6974 74.5625 73.7728 74.5712C73.8228 74.5699 73.8586 74.569 73.88 74.5684Z" fill="#64EDFF"/>
<path d="M84.7645 72.2766C84.5453 72.2823 84.363 72.1093 84.3573 71.8902C84.3516 71.671 84.5246 71.4887 84.7438 71.483C84.963 71.4773 85.1453 71.6503 85.151 71.8695C85.1567 72.0886 84.9836 72.2709 84.7645 72.2766Z" fill="#64EDFF"/>
<path fill-rule="evenodd" clip-rule="evenodd" d="M84.7604 72.119C84.6283 72.1225 84.5184 72.0182 84.5149 71.886C84.5115 71.7539 84.6158 71.644 84.7479 71.6406C84.88 71.6371 84.9899 71.7415 84.9934 71.8736C84.9968 72.0057 84.8925 72.1156 84.7604 72.119ZM84.3573 71.8902C84.363 72.1093 84.5453 72.2823 84.7645 72.2766C84.9836 72.2709 85.1567 72.0886 85.151 71.8695C85.1453 71.6503 84.963 71.4773 84.7438 71.483C84.5246 71.4887 84.3516 71.671 84.3573 71.8902Z" fill="#64EDFF"/>
<path d="M83.4129 72.3118C83.1938 72.3175 83.0115 72.1445 83.0058 71.9253C83.0001 71.7062 83.1731 71.5239 83.3922 71.5182C83.6114 71.5124 83.7937 71.6855 83.7994 71.9046C83.8051 72.1238 83.6321 72.3061 83.4129 72.3118Z" fill="#64EDFF"/>
<path fill-rule="evenodd" clip-rule="evenodd" d="M83.4088 72.1542C83.2767 72.1576 83.1668 72.0533 83.1634 71.9212C83.1599 71.7891 83.2642 71.6792 83.3964 71.6757C83.5285 71.6723 83.6384 71.7766 83.6418 71.9087C83.6453 72.0409 83.5409 72.1508 83.4088 72.1542ZM83.0058 71.9253C83.0115 72.1445 83.1938 72.3175 83.4129 72.3118C83.6321 72.3061 83.8051 72.1238 83.7994 71.9046C83.7937 71.6855 83.6114 71.5124 83.3922 71.5182C83.1731 71.5239 83.0001 71.7062 83.0058 71.9253Z" fill="#64EDFF"/>
<path d="M82.1082 72.343C81.8891 72.3487 81.7068 72.1757 81.7011 71.9566C81.6954 71.7374 81.8684 71.5551 82.0876 71.5494C82.3067 71.5437 82.489 71.7167 82.4947 71.9359C82.5004 72.155 82.3274 72.3373 82.1082 72.343Z" fill="#64EDFF"/>
<path fill-rule="evenodd" clip-rule="evenodd" d="M82.1041 72.1855C81.972 72.1889 81.8621 72.0846 81.8587 71.9525C81.8552 71.8203 81.9595 71.7104 82.0917 71.707C82.2238 71.7035 82.3337 71.8079 82.3371 71.94C82.3406 72.0721 82.2363 72.182 82.1041 72.1855ZM81.7011 71.9566C81.7068 72.1757 81.8891 72.3487 82.1082 72.343C82.3274 72.3373 82.5004 72.155 82.4947 71.9359C82.489 71.7167 82.3067 71.5437 82.0876 71.5494C81.8684 71.5551 81.6954 71.7374 81.7011 71.9566Z" fill="#64EDFF"/>
<path d="M80.8114 72.3782C80.5922 72.3839 80.4099 72.2109 80.4042 71.9917C80.3985 71.7726 80.5715 71.5903 80.7907 71.5846C81.0098 71.5788 81.1921 71.7519 81.1978 71.971C81.2036 72.1902 81.0305 72.3725 80.8114 72.3782Z" fill="#64EDFF"/>
<path fill-rule="evenodd" clip-rule="evenodd" d="M80.8073 72.2206C80.6751 72.2241 80.5652 72.1197 80.5618 71.9876C80.5583 71.8555 80.6627 71.7456 80.7948 71.7421C80.9269 71.7387 81.0368 71.843 81.0403 71.9751C81.0437 72.1073 80.9394 72.2172 80.8073 72.2206ZM80.4042 71.9917C80.4099 72.2109 80.5922 72.3839 80.8114 72.3782C81.0305 72.3725 81.2036 72.1902 81.1978 71.971C81.1921 71.7519 81.0098 71.5788 80.7907 71.5846C80.5715 71.5903 80.3985 71.7726 80.4042 71.9917Z" fill="#64EDFF"/>
<path d="M80.913 69.4716L84.5058 69.378C84.7632 69.3712 84.9724 69.1619 84.9654 68.8938C84.9587 68.6364 84.7386 68.4275 84.4812 68.4342L80.8884 68.5278C80.631 68.5345 80.4221 68.7546 80.4288 69.012C80.4358 69.2801 80.6556 69.4783 80.913 69.4716Z" fill="#64EDFF"/>
<path fill-rule="evenodd" clip-rule="evenodd" d="M84.5017 69.2204L80.9089 69.314C80.7362 69.3185 80.5911 69.1866 80.5864 69.0079C80.582 68.8375 80.7222 68.6898 80.8925 68.6854L84.4853 68.5918C84.6557 68.5873 84.8034 68.7275 84.8078 68.8979C84.8125 69.0766 84.6744 69.2159 84.5017 69.2204ZM84.5058 69.378L80.913 69.4716C80.6556 69.4783 80.4358 69.2801 80.4288 69.012C80.4221 68.7546 80.631 68.5345 80.8884 68.5278L84.4812 68.4342C84.7386 68.4275 84.9587 68.6364 84.9654 68.8938C84.9724 69.1619 84.7632 69.3712 84.5058 69.378Z" fill="#64EDFF"/>
<path d="M84.6473 70.7805C84.4281 70.7862 84.2459 70.6132 84.2401 70.3941C84.2344 70.1749 84.4075 69.9926 84.6266 69.9869C84.8458 69.9812 85.0281 70.1542 85.0338 70.3734C85.0395 70.5925 84.8665 70.7748 84.6473 70.7805Z" fill="#64EDFF"/>
<path fill-rule="evenodd" clip-rule="evenodd" d="M84.6432 70.623C84.5111 70.6264 84.4012 70.5221 84.3977 70.39C84.3943 70.2578 84.4986 70.1479 84.6307 70.1445C84.7629 70.141 84.8727 70.2454 84.8762 70.3775C84.8796 70.5096 84.7753 70.6195 84.6432 70.623ZM84.2401 70.3941C84.2459 70.6132 84.4281 70.7862 84.6473 70.7805C84.8665 70.7748 85.0395 70.5925 85.0338 70.3734C85.0281 70.1542 84.8458 69.9812 84.6266 69.9869C84.4075 69.9926 84.2344 70.1749 84.2401 70.3941Z" fill="#64EDFF"/>
<path d="M83.3114 70.8157C83.0922 70.8214 82.9099 70.6484 82.9042 70.4292C82.8985 70.2101 83.0715 70.0278 83.2907 70.0221C83.5098 70.0163 83.6921 70.1894 83.6978 70.4085C83.7036 70.6277 83.5305 70.81 83.3114 70.8157Z" fill="#64EDFF"/>
<path fill-rule="evenodd" clip-rule="evenodd" d="M83.3073 70.6581C83.1751 70.6616 83.0652 70.5572 83.0618 70.4251C83.0583 70.293 83.1627 70.1831 83.2948 70.1796C83.4269 70.1762 83.5368 70.2805 83.5403 70.4126C83.5437 70.5448 83.4394 70.6547 83.3073 70.6581ZM82.9042 70.4292C82.9099 70.6484 83.0922 70.8214 83.3114 70.8157C83.5305 70.81 83.7036 70.6277 83.6978 70.4085C83.6921 70.1894 83.5098 70.0163 83.2907 70.0221C83.0715 70.0278 82.8985 70.2101 82.9042 70.4292Z" fill="#64EDFF"/>
<path d="M82.0067 70.8489C81.7875 70.8546 81.6052 70.6816 81.5995 70.4624C81.5938 70.2433 81.7668 70.061 81.986 70.0553C82.2051 70.0496 82.3874 70.2226 82.3932 70.4417C82.3989 70.6609 82.2258 70.8432 82.0067 70.8489Z" fill="#64EDFF"/>
<path fill-rule="evenodd" clip-rule="evenodd" d="M82.0026 70.6913C81.8704 70.6948 81.7605 70.5904 81.7571 70.4583C81.7537 70.3262 81.858 70.2163 81.9901 70.2128C82.1222 70.2094 82.2321 70.3137 82.2356 70.4458C82.239 70.578 82.1347 70.6879 82.0026 70.6913ZM81.5995 70.4624C81.6052 70.6816 81.7875 70.8546 82.0067 70.8489C82.2258 70.8432 82.3989 70.6609 82.3932 70.4417C82.3874 70.2226 82.2051 70.0496 81.986 70.0553C81.7668 70.061 81.5938 70.2433 81.5995 70.4624Z" fill="#64EDFF"/>
<path d="M80.6942 70.8841C80.475 70.8898 80.2927 70.7167 80.287 70.4976C80.2813 70.2784 80.4543 70.0961 80.6735 70.0904C80.8926 70.0847 81.0749 70.2577 81.0807 70.4769C81.0864 70.696 80.9133 70.8783 80.6942 70.8841Z" fill="#64EDFF"/>
<path fill-rule="evenodd" clip-rule="evenodd" d="M80.6901 70.7265C80.5579 70.7299 80.448 70.6256 80.4446 70.4935C80.4412 70.3613 80.5455 70.2514 80.6776 70.248C80.8097 70.2446 80.9196 70.3489 80.9231 70.481C80.9265 70.6131 80.8222 70.723 80.6901 70.7265ZM80.287 70.4976C80.2927 70.7167 80.475 70.8898 80.6942 70.8841C80.9133 70.8783 81.0864 70.696 81.0807 70.4769C81.0749 70.2577 80.8926 70.0847 80.6735 70.0904C80.4543 70.0961 80.2813 70.2784 80.287 70.4976Z" fill="#64EDFF"/>
<path d="M75.1379 68.3631L77.3258 68.3061C77.5212 68.301 77.6838 68.4553 77.6889 68.6508L77.7459 70.8387C77.751 71.0341 77.5967 71.1967 77.4012 71.2018L75.2134 71.2588C75.0179 71.2639 74.8553 71.1096 74.8502 70.9141L74.7932 68.7263C74.7881 68.5308 74.9424 68.3682 75.1379 68.3631Z" fill="#64EDFF"/>
<path fill-rule="evenodd" clip-rule="evenodd" d="M75.142 68.5207L77.3299 68.4637C77.4383 68.4609 77.5285 68.5465 77.5313 68.6549L77.5883 70.8428C77.5912 70.9512 77.5056 71.0414 77.3971 71.0442L75.2093 71.1012C75.1008 71.104 75.0106 71.0184 75.0078 70.91L74.9508 68.7221C74.948 68.6137 75.0336 68.5235 75.142 68.5207ZM77.3258 68.3061L75.1379 68.3631C74.9424 68.3682 74.7881 68.5308 74.7932 68.7263L74.8502 70.9141C74.8553 71.1096 75.0179 71.2639 75.2134 71.2588L77.4012 71.2018C77.5967 71.1967 77.751 71.0341 77.7459 70.8387L77.6889 68.6508C77.6838 68.4553 77.5212 68.301 77.3258 68.3061Z" fill="#64EDFF"/>
<path d="M75.0658 72.6396L77.629 72.5728C77.8543 72.5669 78.0318 72.3798 78.0262 72.1654C78.0204 71.9401 77.8333 71.7626 77.6081 71.7684L75.0449 71.8352C74.8196 71.8411 74.6421 72.0282 74.6479 72.2534C74.6535 72.4679 74.8406 72.6455 75.0658 72.6396Z" fill="#64EDFF"/>
<path fill-rule="evenodd" clip-rule="evenodd" d="M77.6249 72.4152L75.0617 72.482C74.9208 72.4857 74.8088 72.374 74.8055 72.2493C74.8019 72.1111 74.9108 71.9964 75.049 71.9928L77.6122 71.926C77.7504 71.9224 77.8651 72.0313 77.8687 72.1695C77.8719 72.2942 77.7659 72.4115 77.6249 72.4152ZM77.629 72.5728L75.0658 72.6396C74.8406 72.6455 74.6535 72.4679 74.6479 72.2534C74.6421 72.0282 74.8196 71.8411 75.0449 71.8352L77.6081 71.7684C77.8333 71.7626 78.0204 71.9401 78.0262 72.1654C78.0318 72.3798 77.8543 72.5669 77.629 72.5728Z" fill="#64EDFF"/>
<mask id="mask1_16684_32732" style="mask-type:alpha" maskUnits="userSpaceOnUse" x="68" y="82" width="24" height="8">
<path d="M83.4504 88.9019L91.9453 84.8628L90.839 82.1687L79.9956 82.2135L68.9535 82.7315L68.086 86.9445L76.0839 89.1719C76.2162 88.8552 76.6521 88.0256 77.3372 87.2405C78.1936 86.2592 80.2923 86.5781 81.2424 86.975C82.0025 87.2926 83.0311 88.3919 83.4504 88.9019Z" fill="#D9D9D9"/>
</mask>
<g mask="url(#mask1_16684_32732)">
<path d="M81.846 88.6005C81.9434 88.6024 82.0384 88.562 82.1049 88.4821C82.1415 88.4373 85.9657 83.8344 89.4006 83.5663C90.37 83.4909 91.2251 83.7803 91.9434 84.421C92.0775 84.5406 92.2824 84.5283 92.4019 84.3942C92.5214 84.2601 92.5091 84.0552 92.375 83.9357C91.5194 83.1721 90.4997 82.8309 89.3482 82.919C85.6368 83.2077 81.7659 87.8714 81.603 88.0696C81.4898 88.2103 81.5086 88.4153 81.646 88.5284C81.7069 88.5751 81.7778 88.5992 81.846 88.6005Z" fill="#64EDFF"/>
<path d="M77.0838 87.8237C77.0013 87.8366 76.9159 87.8134 76.8502 87.7532C76.8139 87.7194 73.0324 84.2541 70.0842 84.4249C69.2522 84.4733 68.5596 84.8182 68.0239 85.4457C67.9239 85.5628 67.7485 85.5761 67.6314 85.4761C67.5144 85.3761 67.501 85.2007 67.6011 85.0836C68.2391 84.3359 69.0655 83.9278 70.0536 83.8691C73.239 83.6837 77.0672 87.1953 77.2286 87.3447C77.341 87.4511 77.3489 87.6274 77.2452 87.7393C77.199 87.786 77.1415 87.8147 77.0838 87.8237Z" fill="#64EDFF"/>
</g>
<path d="M76.6878 99.8762C74.8142 100.59 64.1347 100.903 63.3159 98.5578C63.2374 98.331 63.2333 98.1081 63.2973 97.8878C63.5859 96.8615 64.9906 94.9006 66.8925 94.1921C68.7951 93.48 71.1987 94.0173 71.1987 94.0173L76.1599 95.1469C76.1599 95.1469 77.5078 97.4136 77.3933 98.8414C77.3605 99.3123 77.1556 99.6966 76.687 99.8798L76.6878 99.8762Z" fill="url(#paint47_linear_16684_32732)"/>
<path d="M76.6805 99.8764C74.8069 100.591 64.1274 100.903 63.3086 98.558C63.2301 98.3311 63.3947 97.2714 63.4587 97.0511C65.4637 97.8587 70.5728 99.3734 77.5547 98.0047C77.5219 98.4756 77.1483 99.6968 76.6798 99.8799L76.6805 99.8764Z" fill="#3167D5"/>
<path d="M76.2489 85.4399C76.294 85.6511 76.3878 85.8398 76.4987 86.0233C76.6136 86.2004 76.7495 86.366 76.9034 86.5165C77.0577 86.6637 77.2258 86.8054 77.4106 86.9085C77.5952 87.0149 77.795 87.0992 78.0019 87.1407C78.1859 87.1768 78.3634 87.0587 78.3992 86.878C78.428 86.7401 78.3664 86.6044 78.2558 86.5312L78.2304 86.5156C78.1549 86.4622 78.0712 86.4248 77.9912 86.3844C77.9148 86.3409 77.8273 86.3099 77.7506 86.2698C77.5869 86.192 77.4263 86.1177 77.2629 86.0366C76.9437 85.865 76.6274 85.6602 76.3329 85.3971L76.3299 85.3935C76.3114 85.3752 76.2779 85.3756 76.2593 85.3974C76.2485 85.4064 76.2471 85.423 76.2489 85.4399Z" fill="#64EDFF"/>
<path d="M89.0797 99.2739C87.3148 100.237 76.7662 101.963 75.6494 99.7261C75.542 99.5096 75.509 99.2872 75.5438 99.0583C75.6965 97.9935 76.8343 95.846 78.628 94.8853C80.4219 93.921 82.8751 94.1402 82.8751 94.1402L89.0795 95.2135C89.0795 95.2135 89.5726 96.7019 89.6447 98.1453C89.6734 98.6207 89.5202 99.0323 89.0795 99.2776L89.0797 99.2739Z" fill="url(#paint48_linear_16684_32732)"/>
<path d="M89.0737 99.2742C87.3088 100.237 76.7602 101.964 75.6434 99.7263C75.536 99.5099 75.5614 98.428 75.5962 98.1992C77.6893 98.7415 82.9522 99.58 89.6971 97.2862C89.7259 97.7615 89.5142 99.0326 89.0734 99.2778L89.0737 99.2742Z" fill="#3167D5"/>
<path d="M64.8853 48.7733C64.5348 50.2555 65.0398 51.811 66.1937 52.8039C65.8962 50.374 66.4534 48.0253 67.8653 45.7576C66.3868 46.1269 65.238 47.2898 64.8853 48.7733Z" fill="white"/>
<path fill-rule="evenodd" clip-rule="evenodd" d="M66.1033 53.117C66.185 53.1397 66.2714 53.1319 66.3481 53.0915C66.4693 53.026 66.5375 52.8952 66.5209 52.7596C66.233 50.4166 66.7786 48.1183 68.144 45.9282C68.2152 45.8132 68.209 45.6674 68.131 45.5577C68.0507 45.4493 67.9129 45.3997 67.7825 45.4309C66.1773 45.8323 64.9443 47.0822 64.562 48.6922C64.1797 50.3022 64.7225 51.9712 65.976 53.0498C66.0136 53.0827 66.0581 53.1044 66.1033 53.117ZM67.116 46.3872C66.1755 48.1602 65.7321 49.9966 65.7896 51.8693C65.1767 51.0044 64.9535 49.9091 65.2064 48.8452C65.4609 47.7686 66.1641 46.8824 67.116 46.3872Z" fill="#64EDFF"/>
<path d="M84.4433 37.5267C77.3481 35.5533 69.9964 39.7039 68.023 46.7991C66.05 53.8926 70.2024 61.2447 77.2976 63.2182C84.391 65.1912 91.7432 61.0388 93.7162 53.9453C95.6896 46.8501 91.5368 39.4997 84.4433 37.5267Z" fill="white"/>
<path d="M84.2642 37.6841C77.0735 35.6841 69.8898 39.318 67.5958 46.193L67.3889 46.4724C66.882 47.2317 67.0244 46.8745 66.432 49.0045C65.8396 51.1344 66.3292 55.6392 68.8919 58.3229L69.1761 58.6808C77.6588 67.3348 90.7446 65.6232 93.8212 54.5617C95.8488 47.2719 91.455 39.6841 84.2642 37.6841Z" fill="white"/>
<path fill-rule="evenodd" clip-rule="evenodd" d="M77.2311 63.924C79.8249 64.6455 82.4631 64.6961 84.8924 64.0709C89.433 62.9006 92.8064 59.4665 94.1464 54.6489C95.1476 51.0492 94.6672 47.2583 92.794 43.9727C90.9309 40.705 87.9358 38.3577 84.3604 37.3632C76.9907 35.3135 69.6685 39.0418 67.3052 46.0379L67.1305 46.2757C67.1269 46.2797 67.1239 46.2838 67.1214 46.2881C67.0672 46.3685 67.0226 46.4347 66.9817 46.4945C66.6563 46.9711 66.6433 47.018 66.3128 48.2195C66.2582 48.4158 66.1945 48.6451 66.1196 48.9144C65.4904 51.1764 66.0208 55.7767 68.6498 58.5387L68.9224 58.8841C68.9298 58.8936 68.9378 58.9027 68.9467 58.9114C71.2036 61.2143 73.9072 62.9003 76.7605 63.7856C76.9171 63.8329 77.0739 63.8791 77.2311 63.924ZM84.183 38.0008C91.3008 39.9806 95.4841 47.3694 93.5088 54.4716C92.2336 59.0564 89.0326 62.3213 84.7281 63.43C79.599 64.7511 73.7384 62.8478 69.4315 58.4604L69.1583 58.1168C69.153 58.1091 69.1463 58.1016 69.1383 58.0944C66.7033 55.5435 66.1841 51.1522 66.7571 49.0917C66.832 48.8224 66.8963 48.5914 66.9509 48.3951C67.2649 47.2527 67.2649 47.2527 67.5275 46.8671C67.5684 46.8074 67.6148 46.7417 67.6668 46.6625L67.8687 46.3874C67.8895 46.3595 67.9057 46.3285 67.9166 46.2959C70.1471 39.6091 77.1417 36.0424 84.183 38.0008Z" fill="#64EDFF"/>
<path d="M81.58 42.4086C74.7558 40.5105 67.9603 43.5094 66.4033 49.107C64.8469 54.7029 69.1181 60.7798 75.9423 62.6779C82.7682 64.5764 89.562 61.5771 91.1184 55.9812C92.6753 50.3836 88.4059 44.3072 81.58 42.4086Z" fill="#00A4FF"/>
<path fill-rule="evenodd" clip-rule="evenodd" d="M75.8729 62.9444C82.8343 64.8806 89.7941 61.789 91.3887 56.0558C92.9838 50.3209 88.6193 44.0815 81.6579 42.1452C74.6982 40.2095 67.7371 43.2989 66.142 49.0338C64.5474 54.7669 68.9132 61.0086 75.8729 62.9444ZM81.5105 42.6751C88.1783 44.5297 92.371 50.465 90.8571 55.908C89.3437 61.3493 82.6886 64.2673 76.0207 62.4128C69.3529 60.5582 65.1602 54.6229 66.6736 49.1816C68.1875 43.7386 74.8427 40.8205 81.5105 42.6751Z" fill="#64EDFF"/>
<path d="M76.2765 61.4781C70.2902 59.8131 66.508 54.6139 67.8288 49.8653C69.1495 45.1168 75.073 42.6171 81.0593 44.2821C87.0456 45.9471 90.8278 51.1463 89.507 55.8949C88.1863 60.6434 82.2627 63.1431 76.2765 61.4781Z" fill="#6C6C6C"/>
<path fill-rule="evenodd" clip-rule="evenodd" d="M76.1935 61.8002C82.3471 63.5117 88.4647 60.9046 89.8322 55.988C91.1997 51.0714 87.3073 45.6782 81.1537 43.9666C75.0001 42.2551 68.8821 44.864 67.5146 49.7806C66.1471 54.6972 70.0399 60.0887 76.1935 61.8002ZM80.9764 44.6042C86.7773 46.2177 90.4645 51.245 89.1946 55.8106C87.9252 60.3746 82.1718 62.7761 76.3709 61.1626C70.5699 59.5492 66.8828 54.5219 68.1522 49.9579C69.4221 45.3923 75.1755 42.9908 80.9764 44.6042Z" fill="#6C6C6C"/>
<path d="M67.9601 49.0729C67.9045 49.4075 67.8675 49.7491 67.8497 50.096C67.7921 51.2049 67.9361 52.2819 68.2481 53.2933C68.0509 53.5042 67.8789 53.7259 67.7333 53.9531C68.7005 57.2992 71.8536 60.2968 76.1326 61.487C76.8953 61.6991 77.6567 61.8416 78.4071 61.9231C83.8103 61.9379 88.1616 59.6986 88.3148 56.7053C88.3594 55.8585 88.062 55.0365 87.4912 54.2825C87.9067 53.3069 88.1589 52.2521 88.2153 51.141C88.248 50.5119 88.2157 49.8946 88.1248 49.2928C86.6197 47.0324 84.0739 45.1695 80.9154 44.291C75.2743 42.722 69.6904 44.8506 67.9601 49.0729Z" fill="#B0401E"/>
<path fill-rule="evenodd" clip-rule="evenodd" d="M76.054 61.7531C76.8167 61.9652 77.5963 62.1166 78.3724 62.1995C78.382 62.201 78.3919 62.2012 78.4021 62.2003C84.0464 62.2167 88.4244 59.8613 88.5866 56.7207C88.6295 55.8735 88.3653 55.0401 87.7999 54.2465C88.1995 53.2608 88.4302 52.2225 88.4849 51.1578C88.5179 50.5212 88.4861 49.8816 88.3928 49.2548C88.3856 49.2135 88.3717 49.1759 88.3489 49.1434C86.7572 46.7503 84.0732 44.8864 80.9842 44.0272C78.2114 43.256 75.331 43.3364 72.869 44.2539C70.4066 45.173 68.5688 46.848 67.6996 48.9703C67.6915 48.9905 67.6859 49.0107 67.6827 49.0311C67.6254 49.3783 67.5868 49.7325 67.5697 50.0834C67.515 51.1481 67.6368 52.204 67.9346 53.2264C67.7682 53.4141 67.6222 53.6093 67.4958 53.8081C67.4529 53.8748 67.4416 53.9559 67.4632 54.033C67.9605 55.7511 69.0098 57.3756 70.5001 58.7334C72.0245 60.1233 73.9449 61.1665 76.054 61.7531ZM78.4166 61.6503C77.6754 61.5696 76.9293 61.4257 76.2014 61.2232C72.169 60.1017 69.0496 57.3399 68.028 54.0011C68.1486 53.8231 68.2883 53.6505 68.4454 53.4827C68.512 53.4114 68.5353 53.3074 68.5054 53.213C68.1955 52.2078 68.0663 51.1648 68.1198 50.111C68.1356 49.7916 68.1713 49.4683 68.2203 49.1507C69.9415 45.0081 75.3568 43.0348 80.8363 44.5589C83.7776 45.3769 86.3314 47.1373 87.8553 49.3973C87.9378 49.9687 87.965 50.5508 87.9348 51.1302C87.88 52.1818 87.6452 53.2077 87.2317 54.1764C87.1934 54.2668 87.2073 54.3718 87.2661 54.4499C87.8161 55.1775 88.0745 55.9307 88.0348 56.6926C87.8909 59.4845 83.6677 61.6603 78.4166 61.6503Z" fill="#6C6C6C"/>
<path d="M81.6626 45.4585C80.3671 45.3921 79.1678 45.8615 78.2781 46.6715C77.4751 45.7294 76.301 45.1053 74.9667 45.0374C71.453 44.8574 68.4308 49.3774 71.1223 52.6547C70.1217 52.3222 69.0201 52.5679 68.2546 53.2946C68.0575 53.5056 67.8854 53.7272 67.7398 53.9544C68.7071 57.3005 71.8601 60.2982 76.1391 61.4883C76.9018 61.7004 77.6632 61.843 78.4136 61.9244C83.8169 61.9392 88.1682 59.6999 88.3213 56.7066C88.3659 55.8599 88.0686 55.0379 87.4978 54.2839C86.7327 53.6294 85.7827 53.3639 84.6478 53.4875C85.4772 52.6925 86.0167 51.5941 86.0803 50.3558C86.2136 47.7837 84.2352 45.5901 81.6626 45.4585Z" fill="#FFCAA1"/>
<path fill-rule="evenodd" clip-rule="evenodd" d="M80.8962 57.7716C81.2377 57.5768 81.722 57.4995 82.5486 57.5415C82.7364 57.551 82.8963 57.4066 82.9058 57.2189C82.9153 57.0311 82.7709 56.8712 82.5832 56.8617C81.7255 56.8181 81.0763 56.8853 80.559 57.1803C80.0348 57.4792 79.7054 57.9778 79.4036 58.6459C79.3262 58.8172 79.4024 59.0188 79.5737 59.0961C79.745 59.1735 79.9466 59.0973 80.024 58.926C80.3073 58.2987 80.5617 57.9623 80.8962 57.7716Z" fill="#6C6C6C"/>
<path fill-rule="evenodd" clip-rule="evenodd" d="M76.0576 61.7017C76.8168 61.9129 77.5951 62.062 78.3673 62.1458C78.3746 62.1465 78.3826 62.1469 78.3913 62.1468C84.0059 62.1624 88.3593 59.8282 88.5202 56.7191C88.5648 55.8387 88.2739 54.9736 87.6511 54.1509C87.6421 54.1384 87.6314 54.1273 87.6192 54.1176C86.9388 53.5354 86.1127 53.2419 85.159 53.2387C85.8308 52.4317 86.2233 51.4309 86.2788 50.3701C86.4169 47.6796 84.3411 45.3784 81.6506 45.2402C80.4124 45.1766 79.222 45.5736 78.2758 46.3642C77.407 45.43 76.237 44.8856 74.9564 44.8195C73.1279 44.7246 71.2896 45.8698 70.384 47.6655C69.6029 49.2152 69.683 50.9127 70.5793 52.3131C69.6749 52.2 68.7567 52.4931 68.0801 53.1359C68.0768 53.1387 68.0733 53.1421 68.0697 53.1461C67.864 53.3678 67.6816 53.5997 67.5309 53.8385C67.4976 53.891 67.4866 53.9572 67.5052 54.0185C67.9997 55.7265 69.0435 57.3438 70.5265 58.694C72.0437 60.0762 73.9571 61.1175 76.0576 61.7017ZM78.4038 61.7048C77.6587 61.6249 76.9091 61.48 76.1759 61.2761C72.1158 60.1468 68.9752 57.3604 67.9578 53.9928C68.0821 53.8084 68.2264 53.6258 68.389 53.452C69.0952 52.7837 70.1082 52.5601 71.0298 52.867C71.1227 52.8966 71.2255 52.8634 71.2819 52.7818C71.3378 52.7018 71.3323 52.5936 71.2714 52.5168C70.1696 51.1753 69.9852 49.4357 70.7777 47.8649C71.6072 46.222 73.2763 45.1739 74.9335 45.2586C76.166 45.3226 77.2868 45.8757 78.0885 46.8156C78.1263 46.8616 78.1824 46.8885 78.2431 46.8923C78.3016 46.8973 78.3617 46.8766 78.4047 46.8362C79.2896 46.0304 80.4336 45.6186 81.6277 45.6793C84.0744 45.8058 85.9645 47.9 85.838 50.3467C85.78 51.4836 85.2946 52.5427 84.4732 53.3287C84.4149 53.3836 84.3922 53.4653 84.4103 53.5415C84.4373 53.6463 84.5426 53.7186 84.6488 53.707C85.7215 53.5917 86.5929 53.8303 87.3133 54.4368C87.8606 55.1674 88.1189 55.9281 88.0794 56.6957C87.9343 59.5191 83.6842 61.7173 78.4038 61.7048Z" fill="#6C6C6C"/>
<path d="M67.6827 49.8775C67.3102 51.217 67.3431 52.5925 67.7182 53.9153C67.8582 53.7016 68.0224 53.4946 68.2075 53.2934C67.895 52.2837 67.7527 51.2072 67.8108 50.0966C67.8246 49.8047 67.8546 49.5154 67.8949 49.229C67.8154 49.4409 67.7441 49.6569 67.6827 49.8775Z" fill="#FFCAA1"/>
<path fill-rule="evenodd" clip-rule="evenodd" d="M67.64 54.1816C67.6504 54.1845 67.661 54.1868 67.6718 54.1885C67.7794 54.2053 67.8861 54.1583 67.9449 54.0679C68.0753 53.8684 68.2292 53.6716 68.4052 53.4829C68.4723 53.4098 68.4969 53.3081 68.467 53.2137C68.157 52.2084 68.0261 51.165 68.0814 50.1117C68.0952 49.8329 68.1232 49.5506 68.1639 49.2699C68.1842 49.1295 68.0976 48.9969 67.9611 48.9627C67.8246 48.9284 67.6849 49 67.6333 49.1317C67.5487 49.3552 67.475 49.5799 67.4126 49.804C67.0347 51.1626 67.0471 52.5717 67.4494 53.9919C67.4759 54.0854 67.5479 54.1559 67.64 54.1816ZM67.8949 53.2249C67.878 53.2451 67.8606 53.2652 67.8425 53.2852C67.7937 53.0482 67.7564 52.812 67.7308 52.5765C67.7776 52.7942 67.8323 53.0103 67.8949 53.2249Z" fill="#6C6C6C"/>
<path d="M67.6343 53.5881C67.7983 53.557 67.9507 53.5002 68.0906 53.4211C68.1294 53.3758 68.1673 53.3339 68.2078 53.289C67.9518 52.4598 67.8099 51.5837 67.7987 50.6821C67.7088 50.6552 67.6135 50.6344 67.5171 50.6244C67.3524 51.6136 67.4018 52.6138 67.6343 53.5881Z" fill="#FF9999"/>
<path fill-rule="evenodd" clip-rule="evenodd" d="M67.5567 53.8582C67.5966 53.8694 67.639 53.8718 67.6826 53.8633C67.8725 53.8263 68.0554 53.7611 68.2246 53.6641C68.2513 53.649 68.2737 53.629 68.2948 53.6068C68.3309 53.5645 68.3688 53.5226 68.4066 53.4807C68.4733 53.4094 68.4961 53.3072 68.4679 53.2133C68.2152 52.3924 68.0814 51.541 68.0712 50.6828C68.0691 50.5624 67.9896 50.4579 67.8759 50.4226C67.7652 50.3899 67.6538 50.3664 67.543 50.3543C67.3977 50.3382 67.2652 50.438 67.2417 50.5831C67.0738 51.5902 67.1158 52.6238 67.3638 53.6567C67.3883 53.7571 67.4646 53.8326 67.5567 53.8582ZM67.8925 53.2161C67.8736 53.2258 67.8548 53.2349 67.8362 53.2435C67.7933 53.0256 67.7595 52.8085 67.7348 52.592C67.7812 52.802 67.8338 53.0101 67.8925 53.2161Z" fill="#6C6C6C"/>
<path d="M77.6659 54.8676C77.7649 54.8951 77.8759 54.8661 77.9472 54.7849C78.175 54.5244 78.541 54.4465 78.8549 54.59C78.9928 54.6527 79.1558 54.5914 79.2203 54.4539C79.283 54.316 79.2221 54.1512 79.0842 54.0885C78.5459 53.8434 77.9229 53.977 77.5337 54.4209C77.4327 54.5351 77.4443 54.7086 77.5584 54.8096C77.5901 54.8372 77.6276 54.857 77.6659 54.8676Z" fill="#6C6C6C"/>
<path d="M77.6644 54.8735C77.7426 54.8952 77.8282 54.8835 77.8987 54.8319C78.0222 54.7446 78.0512 54.573 77.9644 54.4478C77.6264 53.9738 77.0065 53.7733 76.4569 53.9592C76.3121 54.0088 76.2349 54.1651 76.2827 54.3095C76.3328 54.4525 76.4887 54.5315 76.6335 54.4819C76.9557 54.3731 77.3179 54.4907 77.5141 54.768C77.5516 54.8215 77.6054 54.857 77.6644 54.8735Z" fill="#6C6C6C"/>
<path d="M77.6305 56.6575C77.6502 56.6629 77.67 56.6659 77.6898 56.6665C77.8427 56.6753 77.9726 56.558 77.981 56.4068C78.0256 55.5601 78.0385 55.2174 78.053 54.5664C78.0562 54.4138 77.9361 54.2868 77.7835 54.2836C77.6309 54.2805 77.5052 54.4028 77.5025 54.5536C77.4882 55.1973 77.474 55.5377 77.4296 56.377C77.4231 56.5081 77.5089 56.6236 77.6305 56.6575Z" fill="#6C6C6C"/>
<g opacity="0.3">
<g opacity="0.3">
<path opacity="0.3" d="M85.262 55.4628C84.6597 56.6391 83.1983 57.425 81.919 58.1416C84.2687 57.8006 85.582 57.0984 85.8591 56.035C86.0269 55.3105 86.1734 55.2277 85.262 55.4628Z" fill="#6C6C6C"/>
</g>
</g>
<path fill-rule="evenodd" clip-rule="evenodd" d="M76.054 61.7531C76.8167 61.9652 77.5963 62.1166 78.3724 62.1995C78.382 62.201 78.3919 62.2012 78.4021 62.2003C84.0464 62.2167 88.4244 59.8613 88.5866 56.7207C88.6295 55.8735 88.3653 55.0401 87.7999 54.2465C88.1995 53.2608 88.4302 52.2225 88.4849 51.1578C88.5179 50.5212 88.4861 49.8816 88.3928 49.2548C88.3856 49.2135 88.3717 49.1759 88.3489 49.1434C86.7572 46.7503 84.0732 44.8864 80.9842 44.0272C78.2114 43.256 75.331 43.3364 72.869 44.2539C70.4066 45.173 68.5688 46.848 67.6996 48.9703C67.6915 48.9905 67.6859 49.0107 67.6827 49.0311C67.6254 49.3783 67.5868 49.7325 67.5697 50.0834C67.515 51.1481 67.6368 52.204 67.9346 53.2264C67.7682 53.4141 67.6222 53.6093 67.4958 53.8081C67.4529 53.8748 67.4416 53.9559 67.4632 54.033C67.9605 55.7511 69.0098 57.3756 70.5001 58.7334C72.0245 60.1233 73.9449 61.1665 76.054 61.7531ZM78.4166 61.6503C77.6754 61.5696 76.9293 61.4257 76.2014 61.2232C72.169 60.1017 69.0496 57.3399 68.028 54.0011C68.1486 53.8231 68.2883 53.6505 68.4454 53.4827C68.512 53.4114 68.5353 53.3074 68.5054 53.213C68.1955 52.2078 68.0663 51.1648 68.1198 50.111C68.1356 49.7916 68.1713 49.4683 68.2203 49.1507C69.9415 45.0081 75.3568 43.0348 80.8363 44.5589C83.7776 45.3769 86.3314 47.1373 87.8553 49.3973C87.9378 49.9687 87.965 50.5508 87.9348 51.1302C87.88 52.1818 87.6452 53.2077 87.2317 54.1764C87.1934 54.2668 87.2073 54.3718 87.2661 54.4499C87.8161 55.1775 88.0745 55.9307 88.0348 56.6926C87.8909 59.4845 83.6677 61.6603 78.4166 61.6503Z" fill="#6C6C6C"/>
<path d="M94.2006 50.0192C92.7561 49.829 91.4043 51.0421 91.1818 52.7302C90.9593 54.4184 91.9491 55.9403 93.3936 56.1305C94.8376 56.3225 96.1899 55.1077 96.4124 53.4195C96.6349 51.7314 95.6433 50.209 94.2006 50.0192Z" fill="white"/>
<path fill-rule="evenodd" clip-rule="evenodd" d="M92.9871 56.3863C93.1052 56.4191 93.2264 56.4435 93.3505 56.4593C94.1449 56.5642 94.9379 56.3037 95.5814 55.7265C96.2101 55.162 96.621 54.3573 96.7386 53.4635C96.9864 51.5971 95.864 49.9055 94.243 49.6904C92.6198 49.4767 91.0987 50.8205 90.8527 52.6874C90.7351 53.5812 90.9236 54.4647 91.3836 55.1729C91.7823 55.7854 92.3426 56.207 92.9871 56.3863ZM94.4234 50.4013C95.537 50.7111 96.2675 51.9811 96.0833 53.3767C95.9865 54.1153 95.6515 54.7746 95.1397 55.2349C94.6415 55.6803 94.0368 55.8827 93.4356 55.8035C92.8361 55.7247 92.3033 55.3725 91.9387 54.8125C91.5641 54.2348 91.4116 53.5111 91.5085 52.7725C91.7077 51.2688 92.8957 50.1804 94.1562 50.3457C94.2475 50.3586 94.3365 50.3772 94.4234 50.4013Z" fill="#64EDFF"/>
<path d="M94.5143 55.9995C95.4816 55.6378 96.2507 54.6557 96.4149 53.4192C96.5983 52.0196 95.9488 50.7346 94.8994 50.2275C94.8438 50.2121 94.785 50.2013 94.7253 50.1941C93.5751 50.0426 92.4729 51.226 92.2586 52.8378C92.0465 54.4484 92.8056 55.878 93.9557 56.0294C94.1449 56.0558 94.3316 56.0441 94.5143 55.9995Z" fill="white"/>
<path fill-rule="evenodd" clip-rule="evenodd" d="M93.6664 56.2557C93.7487 56.2785 93.8319 56.2955 93.9162 56.3064C94.1346 56.3354 94.3568 56.3241 94.5756 56.2708C94.5862 56.2688 94.597 56.2656 94.6082 56.2612C95.6987 55.8532 96.5139 54.7529 96.6849 53.4585C96.8791 51.9795 96.1948 50.5501 95.0167 49.981C95 49.9739 94.9823 49.9677 94.9638 49.9626C94.8938 49.945 94.8246 49.9313 94.7579 49.9221C93.4613 49.7524 92.2167 51.044 91.9836 52.8041C91.8728 53.6399 92.0039 54.4606 92.3503 55.1128C92.6658 55.7078 93.1279 56.1059 93.6664 56.2557ZM94.4317 55.7385C94.2838 55.7723 94.134 55.7793 93.9897 55.7597C93.524 55.6976 93.1155 55.3762 92.8374 54.8553C92.544 54.302 92.4343 53.5995 92.5308 52.8758C92.7231 51.4169 93.6895 50.3381 94.6862 50.4693C94.7246 50.475 94.7632 50.482 94.8021 50.4903C95.7534 50.9664 96.3014 52.152 96.1377 53.3868C95.994 54.4754 95.3262 55.3959 94.4317 55.7385Z" fill="#64EDFF"/>
<path d="M86.408 40.9084C85.665 42.1262 86.2437 42.4818 87.5653 41.9023C88.5412 41.4756 89.5688 41.4151 90.5355 41.4388C91.6576 40.6952 90.9045 39.1363 89.1155 39.3368C88.2301 39.3844 87.1162 39.7484 86.408 40.9084Z" fill="white"/>
<path fill-rule="evenodd" clip-rule="evenodd" d="M86.2601 42.467C86.5971 42.5607 87.0763 42.4731 87.6907 42.2023C88.6538 41.7814 89.6614 41.7453 90.5201 41.767C90.5875 41.767 90.6545 41.7482 90.7115 41.7117C91.2899 41.3279 91.524 40.6949 91.3073 40.1011C91.0744 39.458 90.2945 38.8705 89.0799 39.0043C88.3386 39.0452 86.9767 39.3253 86.1171 40.7333C85.7001 41.4184 85.6294 41.9284 85.9101 42.2517C86.0021 42.3559 86.1188 42.4277 86.2601 42.467ZM90.4243 41.1021C89.5637 41.0873 88.4672 41.1399 87.4249 41.5968C86.7277 41.9026 86.4457 41.8467 86.4076 41.8155C86.4093 41.8159 86.3419 41.6344 86.6821 41.0776C87.3871 39.9223 88.5148 39.6969 89.1247 39.6644C89.1311 39.6637 89.1375 39.663 89.144 39.6623C90.0075 39.5656 90.5397 39.9269 90.6866 40.3272C90.789 40.6121 90.695 40.8892 90.4243 41.1021Z" fill="#64EDFF"/>
<path d="M71.8317 39.9355C71.708 40.2323 71.9033 40.573 72.1936 40.7137C72.4817 40.8556 72.8737 40.8055 73.029 40.523C73.665 39.3672 74.8669 38.397 76.1088 37.9226C74.8959 36.7317 73.2784 36.4166 71.8317 39.9355Z" fill="white"/>
<path fill-rule="evenodd" clip-rule="evenodd" d="M72.2315 41.0796C72.6259 41.1892 73.1064 41.0833 73.326 40.684C73.9018 39.6368 75.0168 38.6967 76.233 38.2338C76.3377 38.1937 76.4154 38.103 76.4389 37.9916C76.4619 37.882 76.4281 37.7678 76.3471 37.6891C75.602 36.9559 74.8512 36.661 74.117 36.8105C73.1383 37.0118 72.2682 38.0202 71.5308 39.8103C71.3498 40.2522 71.5792 40.7802 72.0539 41.0114C72.1096 41.04 72.1707 41.0626 72.2315 41.0796ZM75.5012 37.83C74.3427 38.395 73.3148 39.3313 72.7464 40.3655C72.6858 40.4759 72.4812 40.4846 72.3443 40.4184C72.2078 40.3505 72.0927 40.1856 72.1436 40.0631C72.7812 38.511 73.5111 37.6097 74.2491 37.4593C74.6424 37.3778 75.0622 37.5039 75.5012 37.83Z" fill="#64EDFF"/>
<g opacity="0.3">
<g opacity="0.3">
<path opacity="0.3" d="M95.2404 53.3661C95.1169 54.5372 94.4229 55.572 93.387 56.1336C94.929 56.1751 96.2451 55.0232 96.408 53.4887C96.5709 51.9543 95.5271 50.5522 94.0094 50.2686C94.9045 51.0341 95.3645 52.1934 95.2404 53.3661Z" fill="#6C6C6C"/>
</g>
</g>
<g opacity="0.3">
<g opacity="0.3">
<path opacity="0.3" d="M73.2526 40.7325C74.189 39.8737 75.4291 39.2016 76.9728 38.7164C77.7882 37.7228 77.5012 37.4558 76.1101 37.9149C75.2522 38.0656 74.2986 39.0039 73.2526 40.7325Z" fill="#6C6C6C"/>
</g>
</g>
<g opacity="0.3">
<g opacity="0.3">
<path opacity="0.3" d="M90.8973 39.9977C90.6361 39.5638 90.0888 39.3985 89.6316 39.6157C89.9295 39.5675 90.2161 39.7483 90.3004 40.0376C90.3824 40.328 90.2611 40.7304 89.9613 40.7518C88.7247 40.844 87.5032 41.1238 86.3052 41.8781C86.8015 42.0722 88.2463 41.8776 90.6396 41.2943C91.047 40.9939 91.1585 40.4316 90.8973 39.9977Z" fill="#6C6C6C"/>
</g>
</g>
<g opacity="0.3">
<g opacity="0.3">
<path opacity="0.3" d="M75.4989 37.5352C73.6468 38.3352 72.6488 39.3772 72.5051 40.6612C73.4711 39.6508 74.5419 38.7757 75.7172 38.0357C75.7488 38.0433 75.676 37.8764 75.4989 37.5352Z" fill="#6C6C6C"/>
</g>
</g>
<g opacity="0.3">
<g opacity="0.3">
<path opacity="0.3" d="M67.9349 53.6641C68.8687 57.0496 72.0424 60.0942 76.3631 61.2959C82.3499 62.9611 88.273 60.4608 89.5936 55.7127C90.1947 53.5515 89.74 51.2968 88.499 49.3252C88.8607 50.6293 88.8875 51.9862 88.5203 53.3066C87.1996 58.0547 81.2748 60.5545 75.288 58.8893C74.388 58.639 73.5383 58.3091 72.7486 57.9116C73.0526 57.882 73.3661 57.8382 73.6889 57.7745C72.5545 57.4789 71.4444 56.9905 70.3586 56.3092C70.3628 56.3347 70.3692 56.3589 70.372 56.3822C69.3838 55.5813 68.5584 54.6592 67.9349 53.6641Z" fill="#6C6C6C"/>
</g>
</g>
<path fill-rule="evenodd" clip-rule="evenodd" d="M76.3042 61.5125C82.3988 63.2076 88.4564 60.6343 89.8074 55.7767C91.1585 50.9192 87.2995 45.5877 81.205 43.8926C75.1105 42.1975 69.0529 44.7708 67.7018 49.6283C66.3507 54.4859 70.2097 59.8174 76.3042 61.5125ZM81.0871 44.3165C86.9471 45.9464 90.6676 51.0353 89.3818 55.6584C88.096 60.2814 82.2826 62.7167 76.4226 61.0868C70.5627 59.457 66.8416 54.3697 68.1274 49.7467C69.4133 45.1237 75.2271 42.6866 81.0871 44.3165Z" fill="#6C6C6C"/>
<path d="M72.9179 51.1653C73 52.2363 73.626 53.0206 74.3173 52.9172C75.0069 52.8133 75.5019 51.8616 75.4198 50.7906C75.3377 49.7196 74.7117 48.9353 74.0203 49.0387C73.329 49.1422 72.8358 50.0943 72.9179 51.1653Z" fill="#6C6C6C"/>
<path d="M73.4821 49.9726C73.3739 50.3281 73.4641 50.6901 73.6822 50.7807C73.9008 50.8696 74.1651 50.653 74.2738 50.2958C74.3803 49.9398 74.2906 49.5761 74.072 49.4872C73.8534 49.3983 73.5891 49.615 73.4821 49.9726Z" fill="white"/>
<path d="M74.4278 51.9263C74.3376 52.0959 74.3471 52.2969 74.4488 52.3757C74.5526 52.4533 74.7099 52.3791 74.8001 52.2095C74.8903 52.04 74.8807 51.8389 74.7773 51.7596C74.6752 51.6825 74.518 51.7567 74.4278 51.9263Z" fill="white"/>
<path d="M81.8564 49.6501C81.1977 49.4949 80.5328 50.2028 80.3711 51.2284C80.2071 52.2553 80.6094 53.2114 81.2669 53.3643C81.9239 53.519 82.5905 52.8115 82.7522 51.7859C82.9144 50.7585 82.5139 49.803 81.8564 49.6501Z" fill="#6C6C6C"/>
<path d="M81.769 50.071C81.5515 50.1396 81.4357 50.4818 81.5117 50.8342C81.5878 51.1867 81.825 51.4174 82.043 51.347C82.2605 51.2783 82.3762 50.9362 82.3002 50.5837C82.2241 50.2313 81.9865 50.0023 81.769 50.071Z" fill="white"/>
<path d="M80.9152 52.2175C80.8084 52.2852 80.7827 52.4783 80.857 52.6487C80.9313 52.8191 81.076 52.9043 81.1828 52.8366C81.2879 52.7685 81.3135 52.5754 81.2392 52.405C81.165 52.2346 81.0197 52.1512 80.9152 52.2175Z" fill="white"/>
<g opacity="0.2">
<g opacity="0.2">
<g opacity="0.2">
<path opacity="0.2" d="M87.9038 53.0815C88.0738 52.4568 88.1792 51.8086 88.2139 51.1388C88.2466 50.5096 88.2143 49.8923 88.1234 49.2905C86.6183 47.0302 84.0725 45.1672 80.914 44.2887C75.273 42.7197 69.6891 44.8483 67.9588 49.0707C67.9031 49.4052 67.8662 49.7468 67.8483 50.0937C67.8469 50.1121 67.8478 50.1291 67.8464 50.1475C69.7377 46.1608 75.1647 44.1926 80.6459 45.7171C83.8044 46.5956 86.3502 48.4586 87.8553 50.719C87.9462 51.3207 87.9785 51.938 87.9458 52.5672C87.9368 52.7406 87.9214 52.9104 87.9038 53.0815Z" fill="#6C6C6C"/>
</g>
</g>
<g opacity="0.2">
<g opacity="0.2">
<path opacity="0.2" d="M67.7532 53.9038C67.741 53.921 67.7287 53.9381 67.7182 53.9558C67.7773 54.1606 67.8442 54.364 67.9191 54.5657C67.8562 54.3479 67.7999 54.1264 67.7532 53.9038Z" fill="#6C6C6C"/>
</g>
</g>
<g opacity="0.2">
<g opacity="0.2">
<path opacity="0.2" d="M88.0442 57.8271C88.1984 57.4676 88.2902 57.0907 88.31 56.7031C88.3499 55.9337 88.1084 55.1871 87.6375 54.4909C87.525 54.9088 87.3857 55.3155 87.2183 55.7088C87.7206 56.3726 88.0102 57.0877 88.0442 57.8271Z" fill="#6C6C6C"/>
</g>
</g>
</g>
<path fill-rule="evenodd" clip-rule="evenodd" d="M83.0653 34.4367C83.3047 35.5232 83.1014 36.5867 82.8381 37.2436L82.238 37.003C82.463 36.4417 82.6401 35.5115 82.4339 34.5759C82.2315 33.6571 81.6575 32.7171 80.3449 32.0963L80.6213 31.5118C82.1245 32.2228 82.8222 33.3334 83.0653 34.4367Z" fill="#64EDFF"/>
<path d="M81.7611 32.0554C81.5956 32.6503 80.9792 32.9984 80.3842 32.833C79.7893 32.6675 79.4412 32.0511 79.6066 31.4561C79.7721 30.8612 80.3885 30.513 80.9835 30.6785C81.5784 30.844 81.9265 31.4604 81.7611 32.0554Z" fill="#64EDFF"/>
<path fill-rule="evenodd" clip-rule="evenodd" d="M85.9174 33.2748C85.9177 33.2747 85.9166 33.2775 85.9132 33.2834C85.9153 33.2777 85.917 33.2748 85.9174 33.2748ZM85.7278 33.48C85.5824 33.4513 85.3888 33.4308 85.1454 33.4264C84.4408 33.4138 83.4661 33.5381 82.3993 33.8167C81.3325 34.0954 80.4215 34.4635 79.813 34.8191C79.6028 34.9419 79.4439 35.0544 79.3311 35.1506C79.4765 35.1792 79.6701 35.1997 79.9136 35.2041C80.6182 35.2167 81.5929 35.0924 82.6597 34.8138C83.7265 34.5352 84.6375 34.167 85.2459 33.8115C85.4561 33.6886 85.615 33.5761 85.7278 33.48ZM79.0655 35.0643C79.0658 35.0641 79.0687 35.0658 79.0733 35.0697C79.0675 35.0663 79.0652 35.0644 79.0655 35.0643ZM79.1416 35.3558C79.1413 35.3558 79.1424 35.353 79.1458 35.3472C79.1436 35.3528 79.1419 35.3557 79.1416 35.3558ZM85.9857 33.5608C85.9915 33.5643 85.9938 33.5662 85.9935 33.5663C85.9932 33.5664 85.9903 33.5647 85.9857 33.5608ZM82.823 35.4393C85.0373 34.8611 86.7009 33.889 86.5388 33.2682C86.3767 32.6474 84.4502 32.6129 82.2359 33.1912C80.0216 33.7695 78.358 34.7415 78.5201 35.3624C78.6823 35.9832 80.6087 36.0176 82.823 35.4393Z" fill="#64EDFF"/>
<path d="M84.9578 86.35L84.1191 83.4305C85.1795 83.4997 85.5018 82.6373 87.013 82.5197C87.9858 82.6181 88.4155 82.7553 88.6182 83.4136C89.1114 84.5441 89.0287 85.0151 88.4533 85.6535L84.9578 86.35Z" fill="#FC7135"/>
<path d="M84.6613 84.9924C84.6433 84.9941 84.6282 84.9955 84.6162 84.9967L83.0974 84.9362C83.0793 84.9379 83.0611 84.9375 83.0426 84.9352C82.7116 84.9046 82.4739 84.7044 82.488 84.4679C82.4912 84.4058 82.5125 84.3419 82.5525 84.2824C82.6245 84.1767 82.7531 84.0903 82.9026 84.0328C83.0087 83.998 83.134 83.9738 83.2616 83.9741L84.1472 83.9893L84.7769 83.9978C84.8775 84.0007 84.9701 84.0167 85.0543 84.0396C85.2798 84.1111 85.4304 84.2577 85.4382 84.4364C85.4398 84.4527 85.4385 84.4714 85.4344 84.4924C85.4312 84.5546 85.4099 84.6185 85.3693 84.6718C85.2416 84.8633 84.9714 84.994 84.6613 84.9924Z" fill="#FC7135"/>
<path d="M84.8958 84.2706C84.8777 84.2723 84.8627 84.2737 84.8506 84.2749L83.3349 84.2466C83.3168 84.2483 83.2986 84.2483 83.2802 84.2466C82.9501 84.2258 82.7157 84.0608 82.7334 83.8615C82.7375 83.8092 82.7598 83.7551 82.8005 83.7044C82.874 83.6143 83.0037 83.5396 83.1539 83.489C83.2603 83.4581 83.3858 83.4359 83.5133 83.4342L84.3974 83.4338L85.0261 83.4315C85.1264 83.4324 85.2187 83.4445 85.3025 83.4626C85.5266 83.5194 85.6748 83.6406 85.6799 83.7909C85.6812 83.8046 85.6796 83.8203 85.6752 83.8381C85.6711 83.8905 85.6488 83.9446 85.6076 83.9901C85.4772 84.1532 85.2054 84.2673 84.8958 84.2706Z" fill="#FC7135"/>
<path d="M84.9341 85.6704L84.3846 85.6788L83.8152 85.6821L83.2855 85.6956C82.8831 85.6986 82.5623 85.5176 82.5341 85.285C82.5309 85.1975 82.5574 85.1148 82.6235 85.0423C82.6704 84.9822 82.7469 84.9269 82.8339 84.8887C82.9592 84.8257 83.115 84.7908 83.2817 84.7847L84.4094 84.7436L84.9391 84.7301C85.3607 84.7147 85.7212 84.906 85.7401 85.1564C85.7433 85.2438 85.7169 85.3265 85.6508 85.399C85.5191 85.5557 85.2481 85.6648 84.9341 85.6704Z" fill="url(#paint49_linear_16684_32732)"/>
<path d="M84.7908 86.5345L84.2338 86.5585L83.6565 86.577L83.1198 86.6064C82.7117 86.6203 82.3789 86.4181 82.3407 86.1484C82.3339 86.0468 82.3572 85.9499 82.4213 85.8639C82.4664 85.7928 82.5417 85.7264 82.6283 85.6797C82.7528 85.6033 82.9094 85.5587 83.0783 85.5473L84.2203 85.4702L84.757 85.4408C85.184 85.412 85.5575 85.6251 85.587 85.9158C85.5939 86.0174 85.5705 86.1143 85.5065 86.2003C85.3793 86.3859 85.1091 86.5198 84.7908 86.5345Z" fill="url(#paint50_linear_16684_32732)"/>
<path d="M88.4665 85.6684C88.4665 85.6684 87.7959 86.3634 87.2643 86.7004C87.2643 86.7004 86.3885 87.2921 85.7438 87.3941C85 87.5117 83.2392 87.5741 83.2392 87.5741C82.1681 87.6583 82.4319 86.74 83.3364 86.5669C83.3364 86.5669 84.4519 86.3637 84.7242 86.184C85.1319 85.9148 85.3702 85.7223 85.3702 85.7223C85.3702 85.7223 86.4131 83.581 88.4665 85.6684Z" fill="url(#paint51_linear_16684_32732)"/>
<path d="M89.0544 84.9995C89.0544 84.9995 94.4513 80.2346 95.4237 77.1229C95.76 76.0468 95.6073 69.238 93.333 66.5235C90.3185 62.9255 87.8389 62.877 87.8389 62.877L90.7075 75.8587L86.2344 81.8391L89.0544 84.9995Z" fill="#4348B1"/>
<path fill-rule="evenodd" clip-rule="evenodd" d="M87.8394 62.5378L87.8328 62.878C87.8394 62.5378 87.8397 62.5378 87.8399 62.5378L87.8405 62.5378L87.8418 62.5378L87.8451 62.5379C87.8475 62.538 87.8506 62.5381 87.8543 62.5383C87.8617 62.5386 87.8714 62.5391 87.8835 62.5398C87.9077 62.5414 87.9412 62.5442 87.9835 62.549C88.0682 62.5586 88.1882 62.5764 88.3396 62.6093C88.6426 62.6751 89.0706 62.8014 89.5925 63.0433C90.6377 63.5276 92.0506 64.4713 93.5878 66.306C94.1965 67.0325 94.6493 68.0139 94.9848 69.0717C95.3215 70.1333 95.5468 71.2935 95.6888 72.3952C95.8309 73.4976 95.8904 74.5486 95.893 75.3945C95.8943 75.8174 95.8814 76.192 95.8569 76.4981C95.833 76.7967 95.7965 77.0527 95.7425 77.2255C95.4829 78.0563 94.9376 78.973 94.2875 79.8676C93.6339 80.7669 92.8582 81.6652 92.1174 82.4611C91.3761 83.2576 90.6659 83.9555 90.1412 84.4541C89.8788 84.7036 89.6624 84.9034 89.5115 85.0412C89.436 85.1101 89.3768 85.1634 89.3364 85.1997C89.3161 85.2178 89.3006 85.2317 89.29 85.2411L89.2779 85.2518L89.2748 85.2546L89.2737 85.2556C89.2736 85.2557 89.2735 85.2557 89.0483 85.0006L89.2735 85.2557L89.0197 85.4798L85.7891 81.8592L90.3354 75.7809L87.4071 62.5293L87.8394 62.5378ZM89.0743 84.5186C89.2211 84.3844 89.4259 84.1949 89.6723 83.9607C90.1899 83.4687 90.8898 82.781 91.6192 81.9973C92.3492 81.213 93.1051 80.3366 93.7369 79.4674C94.3721 78.5933 94.8662 77.7476 95.0928 77.0225C95.1228 76.9263 95.1551 76.734 95.1784 76.4438C95.201 76.1609 95.2136 75.8058 95.2123 75.3966C95.2098 74.5785 95.1521 73.5559 95.0137 72.4822C94.8752 71.4079 94.657 70.2897 94.3359 69.2775C94.0137 68.2616 93.5945 67.374 93.066 66.7432C91.5887 64.9799 90.2546 64.1003 89.3063 63.6609C88.8775 63.4622 88.5257 63.3526 88.2728 63.2922L91.0674 75.9388L86.6675 81.8212L89.0743 84.5186Z" fill="#64EDFF"/>
<g opacity="0.1" filter="url(#filter8_f_16684_32732)">
<path d="M61.6719 84.2797L73.5851 87.9446L89.208 84.1094V85.6664L73.5851 90.7179L61.6719 86.0904V84.2797Z" fill="black"/>
</g>
<path d="M73.5938 72.8573L89.5694 69.1055V85.9283L73.5938 90.2853L73.5938 72.8573Z" fill="url(#paint52_linear_16684_32732)"/>
<path d="M73.5938 72.8573L61.491 69.1055V85.9283L73.5938 90.2853V72.8573Z" fill="url(#paint53_linear_16684_32732)"/>
<path d="M67.5313 70.9808L66.5306 70.681V72.5977H66.7287L67.0258 72.7834L67.2239 73.0806L67.5313 72.9816L68.3135 73.4124V71.2231L67.5313 70.9808Z" fill="#DCD1FE"/>
<path fill-rule="evenodd" clip-rule="evenodd" d="M83.7654 67.3347L89.7731 69.1088L77.1003 72.0381L73.5744 72.8527L68.3135 71.2231L76.0394 69.2789L83.7654 67.3347ZM81.9825 66.8082L77.0827 65.3613L61.2812 69.1088L66.5306 70.681L81.9825 66.8082Z" fill="url(#paint54_linear_16684_32732)"/>
<path d="M66.5306 70.681L67.5313 70.9808L68.3135 71.2231L76.0394 69.2789L83.7654 67.3347L81.9825 66.8082L66.5306 70.681Z" fill="#D0C3FB"/>
<path d="M61.9598 28.9076C62.569 28.363 63.2079 28.0947 63.8765 28.1025C64.5457 28.0992 65.1406 28.3908 65.6609 28.9774C66.1761 29.5581 66.3858 30.1674 66.2901 30.8054C66.1892 31.4374 65.8341 32.0257 65.2249 32.5703L65.7969 33.286L64.7162 34.2521L63.3319 32.7805L63.7273 32.427C64.2369 31.9715 64.5689 31.5525 64.7233 31.1702C64.8777 30.7878 64.7945 30.4159 64.4739 30.0545C64.2426 29.7938 63.9825 29.6545 63.6935 29.6365C63.4104 29.6134 63.14 29.717 62.8823 29.9474C62.6128 30.1883 62.4677 30.4508 62.4468 30.7351C62.4318 31.0141 62.5399 31.284 62.7712 31.5447L61.6114 32.5814C61.2849 32.2252 61.0746 31.8343 60.9804 31.4085C60.8863 30.9827 60.9205 30.5537 61.0832 30.1214C61.2517 29.6839 61.5439 29.2793 61.9598 28.9076ZM67.1366 35.8971C66.914 36.0961 66.669 36.1929 66.4017 36.1875C66.135 36.171 65.9096 36.059 65.7256 35.8516C65.5417 35.6442 65.4595 35.4096 65.4792 35.1476C65.4995 34.8745 65.6209 34.6385 65.8435 34.4395C66.0602 34.2458 66.302 34.1572 66.5687 34.1737C66.8302 34.1843 67.0529 34.2933 67.2369 34.5007C67.4209 34.7081 67.5056 34.9457 67.4912 35.2136C67.4715 35.4755 67.3533 35.7034 67.1366 35.8971Z" fill="white"/>
<path d="M70.3315 34.5725C70.74 34.5745 71.0671 34.689 71.3126 34.916C71.562 35.139 71.685 35.4466 71.6816 35.8386C71.6782 36.2267 71.5519 36.5231 71.3026 36.7278C71.0533 36.9285 70.7245 37.0279 70.3159 37.0259L70.2883 37.4831L69.5636 37.4795L69.543 36.4695L69.8081 36.4709C70.1499 36.4726 70.4135 36.4283 70.5989 36.3382C70.7843 36.248 70.8781 36.0821 70.8802 35.8406C70.8817 35.6663 70.8319 35.5275 70.7306 35.424C70.6333 35.3205 70.4983 35.2684 70.3254 35.2675C70.1447 35.2666 70.0029 35.3154 69.8999 35.4139C69.8008 35.5124 69.7505 35.6488 69.749 35.823L68.9712 35.8192C68.9694 35.5776 69.0223 35.362 69.13 35.1725C69.2378 34.9829 69.3942 34.8352 69.5994 34.7293C69.8086 34.6234 70.0526 34.5711 70.3315 34.5725ZM69.9106 38.901C69.7613 38.9003 69.638 38.8541 69.5406 38.7626C69.4471 38.667 69.401 38.55 69.4022 38.4114C69.4034 38.2728 69.4516 38.1582 69.5466 38.0675C69.6457 37.973 69.7698 37.9261 69.9191 37.9268C70.0645 37.9276 70.1839 37.9757 70.2773 38.0712C70.3708 38.1627 70.4169 38.2778 70.4157 38.4164C70.4145 38.555 70.3663 38.6716 70.2712 38.7662C70.1761 38.8568 70.0559 38.9017 69.9106 38.901Z" fill="white"/>
<path d="M62.6078 38.0892C62.7616 37.7822 62.9697 37.5785 63.2321 37.4781C63.4931 37.3732 63.7706 37.3951 64.0647 37.5438C64.3559 37.6909 64.5321 37.8966 64.5934 38.1606C64.6518 38.4232 64.6041 38.708 64.4504 39.0151L64.7846 39.2062L64.5119 39.7509L63.7432 39.3901L63.843 39.1909C63.9717 38.934 64.0365 38.7189 64.0377 38.5456C64.0389 38.3723 63.9488 38.2399 63.7676 38.1483C63.6369 38.0822 63.5137 38.0681 63.398 38.1058C63.2838 38.1405 63.1942 38.2229 63.1292 38.3528C63.0612 38.4886 63.0451 38.6136 63.0809 38.7279C63.1182 38.8393 63.2022 38.928 63.3329 38.9941L63.0402 39.5786C62.8575 39.49 62.7148 39.3698 62.6122 39.218C62.5095 39.0662 62.4565 38.8932 62.4531 38.6992C62.4513 38.5022 62.5028 38.2989 62.6078 38.0892ZM65.7121 40.0191C65.6559 40.1313 65.5752 40.207 65.4699 40.2463C65.3632 40.2811 65.2578 40.2722 65.1538 40.2197C65.0498 40.1671 64.9814 40.0882 64.9486 39.9828C64.9142 39.8729 64.9252 39.7619 64.9813 39.6497C65.036 39.5405 65.1168 39.4685 65.2236 39.4336C65.3274 39.3973 65.4313 39.4054 65.5352 39.458C65.6392 39.5106 65.7091 39.5903 65.7449 39.6972C65.7778 39.8026 65.7668 39.9099 65.7121 40.0191Z" fill="white"/>
<defs>
<filter id="filter0_f_16684_32732" x="0" y="0" width="127.93" height="96.6328" filterUnits="userSpaceOnUse" color-interpolation-filters="sRGB">
<feFlood flood-opacity="0" result="BackgroundImageFix"/>
<feBlend mode="normal" in="SourceGraphic" in2="BackgroundImageFix" result="shape"/>
<feGaussianBlur stdDeviation="2" result="effect1_foregroundBlur_16684_32732"/>
</filter>
<filter id="filter1_f_16684_32732" x="-12.9219" y="8.83984" width="140.484" height="45.7344" filterUnits="userSpaceOnUse" color-interpolation-filters="sRGB">
<feFlood flood-opacity="0" result="BackgroundImageFix"/>
<feBlend mode="normal" in="SourceGraphic" in2="BackgroundImageFix" result="shape"/>
<feGaussianBlur stdDeviation="3" result="effect1_foregroundBlur_16684_32732"/>
</filter>
<filter id="filter2_f_16684_32732" x="-7.88281" y="25.5352" width="139.734" height="46.5508" filterUnits="userSpaceOnUse" color-interpolation-filters="sRGB">
<feFlood flood-opacity="0" result="BackgroundImageFix"/>
<feBlend mode="normal" in="SourceGraphic" in2="BackgroundImageFix" result="shape"/>
<feGaussianBlur stdDeviation="3" result="effect1_foregroundBlur_16684_32732"/>
</filter>
<filter id="filter3_f_16684_32732" x="6.80469" y="70.5762" width="63.9219" height="44.957" filterUnits="userSpaceOnUse" color-interpolation-filters="sRGB">
<feFlood flood-opacity="0" result="BackgroundImageFix"/>
<feBlend mode="normal" in="SourceGraphic" in2="BackgroundImageFix" result="shape"/>
<feGaussianBlur stdDeviation="7.5" result="effect1_foregroundBlur_16684_32732"/>
</filter>
<filter id="filter4_f_16684_32732" x="17.4297" y="87.3164" width="30.2891" height="13.3496" filterUnits="userSpaceOnUse" color-interpolation-filters="sRGB">
<feFlood flood-opacity="0" result="BackgroundImageFix"/>
<feBlend mode="normal" in="SourceGraphic" in2="BackgroundImageFix" result="shape"/>
<feGaussianBlur stdDeviation="2" result="effect1_foregroundBlur_16684_32732"/>
</filter>
<filter id="filter5_f_16684_32732" x="28.4375" y="91.3418" width="30.2891" height="13.3496" filterUnits="userSpaceOnUse" color-interpolation-filters="sRGB">
<feFlood flood-opacity="0" result="BackgroundImageFix"/>
<feBlend mode="normal" in="SourceGraphic" in2="BackgroundImageFix" result="shape"/>
<feGaussianBlur stdDeviation="2" result="effect1_foregroundBlur_16684_32732"/>
</filter>
<filter id="filter6_f_16684_32732" x="22.9766" y="76.8828" width="28.7969" height="12.9902" filterUnits="userSpaceOnUse" color-interpolation-filters="sRGB">
<feFlood flood-opacity="0" result="BackgroundImageFix"/>
<feBlend mode="normal" in="SourceGraphic" in2="BackgroundImageFix" result="shape"/>
<feGaussianBlur stdDeviation="2" result="effect1_foregroundBlur_16684_32732"/>
</filter>
<filter id="filter7_f_16684_32732" x="45.7969" y="83.1289" width="63.6484" height="34.4727" filterUnits="userSpaceOnUse" color-interpolation-filters="sRGB">
<feFlood flood-opacity="0" result="BackgroundImageFix"/>
<feBlend mode="normal" in="SourceGraphic" in2="BackgroundImageFix" result="shape"/>
<feGaussianBlur stdDeviation="7.5" result="effect1_foregroundBlur_16684_32732"/>
</filter>
<filter id="filter8_f_16684_32732" x="57.6719" y="80.1094" width="35.5391" height="14.6094" filterUnits="userSpaceOnUse" color-interpolation-filters="sRGB">
<feFlood flood-opacity="0" result="BackgroundImageFix"/>
<feBlend mode="normal" in="SourceGraphic" in2="BackgroundImageFix" result="shape"/>
<feGaussianBlur stdDeviation="2" result="effect1_foregroundBlur_16684_32732"/>
</filter>
<linearGradient id="paint0_linear_16684_32732" x1="63.9649" y1="4" x2="63.9649" y2="92.633" gradientUnits="userSpaceOnUse">
<stop stop-color="#F6F3FF"/>
<stop offset="1" stop-color="#C1B0FF"/>
</linearGradient>
<linearGradient id="paint1_linear_16684_32732" x1="65.0352" y1="4" x2="65.0352" y2="92.633" gradientUnits="userSpaceOnUse">
<stop stop-color="#E9E3FF"/>
<stop offset="1" stop-color="#B7A8EE"/>
</linearGradient>
<linearGradient id="paint2_linear_16684_32732" x1="56.5352" y1="61.7949" x2="56.5352" y2="140.198" gradientUnits="userSpaceOnUse">
<stop stop-color="white"/>
<stop offset="1" stop-color="#709CFA"/>
</linearGradient>
<radialGradient id="paint3_radial_16684_32732" cx="0" cy="0" r="1" gradientUnits="userSpaceOnUse" gradientTransform="translate(60.1956 77.0456) scale(11.4223 11.3965)">
<stop stop-color="#372D98"/>
<stop offset="1" stop-color="#131724"/>
</radialGradient>
<radialGradient id="paint4_radial_16684_32732" cx="0" cy="0" r="1" gradientUnits="userSpaceOnUse" gradientTransform="translate(63.7248 76.8902) scale(11.4223 11.3965)">
<stop stop-color="#372D98"/>
<stop offset="1" stop-color="#131724"/>
</radialGradient>
<radialGradient id="paint5_radial_16684_32732" cx="0" cy="0" r="1" gradientUnits="userSpaceOnUse" gradientTransform="translate(78.011 53.2978) scale(44.864 44.7628)">
<stop stop-color="#372D98"/>
<stop offset="1" stop-color="#131724"/>
</radialGradient>
<radialGradient id="paint6_radial_16684_32732" cx="0" cy="0" r="1" gradientUnits="userSpaceOnUse" gradientTransform="translate(78.0063 51.8053) scale(44.864 44.7628)">
<stop stop-color="#372D98"/>
<stop offset="1" stop-color="#131724"/>
</radialGradient>
<radialGradient id="paint7_radial_16684_32732" cx="0" cy="0" r="1" gradientUnits="userSpaceOnUse" gradientTransform="translate(78.0043 51.9862) scale(45.8437 45.7403)">
<stop stop-color="#372D98"/>
<stop offset="1" stop-color="#131724"/>
</radialGradient>
<radialGradient id="paint8_radial_16684_32732" cx="0" cy="0" r="1" gradientUnits="userSpaceOnUse" gradientTransform="translate(78.008 51.0845) scale(46.5915 46.4864)">
<stop stop-color="#372D98"/>
<stop offset="1" stop-color="#131724"/>
</radialGradient>
<radialGradient id="paint9_radial_16684_32732" cx="0" cy="0" r="1" gradientUnits="userSpaceOnUse" gradientTransform="translate(78.0058 48.7702) scale(49.9176 49.8051)">
<stop stop-color="#372D98"/>
<stop offset="1" stop-color="#131724"/>
</radialGradient>
<radialGradient id="paint10_radial_16684_32732" cx="0" cy="0" r="1" gradientUnits="userSpaceOnUse" gradientTransform="translate(78.0099 50.9309) scale(47.2361 47.1295)">
<stop stop-color="#372D98"/>
<stop offset="1" stop-color="#131724"/>
</radialGradient>
<radialGradient id="paint11_radial_16684_32732" cx="0" cy="0" r="1" gradientUnits="userSpaceOnUse" gradientTransform="translate(9.68443 75.9899) scale(14.1038 14.072)">
<stop stop-color="#372D98"/>
<stop offset="1" stop-color="#131724"/>
</radialGradient>
<radialGradient id="paint12_radial_16684_32732" cx="0" cy="0" r="1" gradientUnits="userSpaceOnUse" gradientTransform="translate(86.8549 59.4224) scale(14.2585 14.2263)">
<stop stop-color="#372D98"/>
<stop offset="1" stop-color="#131724"/>
</radialGradient>
<radialGradient id="paint13_radial_16684_32732" cx="0" cy="0" r="1" gradientUnits="userSpaceOnUse" gradientTransform="translate(132.885 76.7352) scale(14.5421 14.5093)">
<stop stop-color="#372D98"/>
<stop offset="1" stop-color="#131724"/>
</radialGradient>
<radialGradient id="paint14_radial_16684_32732" cx="0" cy="0" r="1" gradientUnits="userSpaceOnUse" gradientTransform="translate(92.4507 65.2357) scale(6.0592 6.04552)">
<stop stop-color="#372D98"/>
<stop offset="1" stop-color="#131724"/>
</radialGradient>
<radialGradient id="paint15_radial_16684_32732" cx="0" cy="0" r="1" gradientUnits="userSpaceOnUse" gradientTransform="translate(100.888 77.4577) scale(6.05925 6.04555)">
<stop stop-color="#372D98"/>
<stop offset="1" stop-color="#131724"/>
</radialGradient>
<radialGradient id="paint16_radial_16684_32732" cx="0" cy="0" r="1" gradientUnits="userSpaceOnUse" gradientTransform="translate(109.107 69.3529) scale(6.0592 6.04555)">
<stop stop-color="#372D98"/>
<stop offset="1" stop-color="#131724"/>
</radialGradient>
<radialGradient id="paint17_radial_16684_32732" cx="0" cy="0" r="1" gradientUnits="userSpaceOnUse" gradientTransform="translate(116.845 81.8555) scale(6.29128 6.27709)">
<stop stop-color="#372D98"/>
<stop offset="1" stop-color="#131724"/>
</radialGradient>
<radialGradient id="paint18_radial_16684_32732" cx="0" cy="0" r="1" gradientUnits="userSpaceOnUse" gradientTransform="translate(114.573 70.0459) scale(9.72053 9.69861)">
<stop stop-color="#372D98"/>
<stop offset="1" stop-color="#131724"/>
</radialGradient>
<radialGradient id="paint19_radial_16684_32732" cx="0" cy="0" r="1" gradientUnits="userSpaceOnUse" gradientTransform="translate(88.6308 73.881) scale(9.66896 9.64716)">
<stop stop-color="#372D98"/>
<stop offset="1" stop-color="#131724"/>
</radialGradient>
<radialGradient id="paint20_radial_16684_32732" cx="0" cy="0" r="1" gradientUnits="userSpaceOnUse" gradientTransform="translate(30.7218 68.1427) scale(8.53448 8.51522)">
<stop stop-color="#372D98"/>
<stop offset="1" stop-color="#131724"/>
</radialGradient>
<radialGradient id="paint21_radial_16684_32732" cx="0" cy="0" r="1" gradientUnits="userSpaceOnUse" gradientTransform="translate(29.4621 77.7635) scale(8.53446 8.51522)">
<stop stop-color="#372D98"/>
<stop offset="1" stop-color="#131724"/>
</radialGradient>
<radialGradient id="paint22_radial_16684_32732" cx="0" cy="0" r="1" gradientUnits="userSpaceOnUse" gradientTransform="translate(33.0197 77.0966) scale(5.31149 5.2995)">
<stop stop-color="#372D98"/>
<stop offset="1" stop-color="#131724"/>
</radialGradient>
<radialGradient id="paint23_radial_16684_32732" cx="0" cy="0" r="1" gradientUnits="userSpaceOnUse" gradientTransform="translate(25.4962 64.3877) scale(5.31149 5.2995)">
<stop stop-color="#372D98"/>
<stop offset="1" stop-color="#131724"/>
</radialGradient>
<radialGradient id="paint24_radial_16684_32732" cx="0" cy="0" r="1" gradientUnits="userSpaceOnUse" gradientTransform="translate(15.7986 77.0966) scale(5.31149 5.2995)">
<stop stop-color="#372D98"/>
<stop offset="1" stop-color="#131724"/>
</radialGradient>
<radialGradient id="paint25_radial_16684_32732" cx="0" cy="0" r="1" gradientUnits="userSpaceOnUse" gradientTransform="translate(39.2626 64.154) scale(14.1038 14.072)">
<stop stop-color="#372D98"/>
<stop offset="1" stop-color="#131724"/>
</radialGradient>
<radialGradient id="paint26_radial_16684_32732" cx="0" cy="0" r="1" gradientUnits="userSpaceOnUse" gradientTransform="translate(45.3689 65.2627) scale(5.31149 5.2995)">
<stop stop-color="#372D98"/>
<stop offset="1" stop-color="#131724"/>
</radialGradient>
<radialGradient id="paint27_radial_16684_32732" cx="0" cy="0" r="1" gradientUnits="userSpaceOnUse" gradientTransform="translate(16.3379 66.859) scale(5.31149 5.2995)">
<stop stop-color="#372D98"/>
<stop offset="1" stop-color="#131724"/>
</radialGradient>
<linearGradient id="paint28_linear_16684_32732" x1="16.8452" y1="61.5257" x2="-3.98718" y2="46.4672" gradientUnits="userSpaceOnUse">
<stop stop-color="white"/>
<stop offset="1" stop-color="#9C9C9C"/>
</linearGradient>
<linearGradient id="paint29_linear_16684_32732" x1="-8.94262" y1="48.5908" x2="-8.64363" y2="40.365" gradientUnits="userSpaceOnUse">
<stop stop-color="white"/>
<stop offset="1" stop-color="#989898"/>
</linearGradient>
<linearGradient id="paint30_linear_16684_32732" x1="125.476" y1="15.8792" x2="116.271" y2="32.806" gradientUnits="userSpaceOnUse">
<stop offset="0.00261239" stop-color="#D2F2FF"/>
<stop offset="0.9958" stop-color="#74D3FF"/>
</linearGradient>
<linearGradient id="paint31_linear_16684_32732" x1="104.924" y1="17.0642" x2="97.0365" y2="35.1136" gradientUnits="userSpaceOnUse">
<stop offset="0.00261239" stop-color="#D2F2FF"/>
<stop offset="0.9958" stop-color="#74D3FF"/>
</linearGradient>
<linearGradient id="paint32_linear_16684_32732" x1="193.207" y1="43.0804" x2="21.9501" y2="108.54" gradientUnits="userSpaceOnUse">
<stop offset="0.00261239" stop-color="#D2F2FF"/>
<stop offset="0.9958" stop-color="#9E72FF"/>
</linearGradient>
<linearGradient id="paint33_linear_16684_32732" x1="121.413" y1="10.8334" x2="102.465" y2="25.8706" gradientUnits="userSpaceOnUse">
<stop offset="0.00261239" stop-color="#E1DAFA"/>
<stop offset="0.9958" stop-color="#B1A3DC"/>
</linearGradient>
<linearGradient id="paint34_linear_16684_32732" x1="106.96" y1="11.0424" x2="88.0118" y2="26.0796" gradientUnits="userSpaceOnUse">
<stop offset="0.00261239" stop-color="#E1DAFA"/>
<stop offset="0.9958" stop-color="#B1A3DC"/>
</linearGradient>
<linearGradient id="paint35_linear_16684_32732" x1="91.6711" y1="11.2514" x2="72.7227" y2="26.2886" gradientUnits="userSpaceOnUse">
<stop offset="0.00261239" stop-color="#E1DAFA"/>
<stop offset="0.9958" stop-color="#B1A3DC"/>
</linearGradient>
<linearGradient id="paint36_linear_16684_32732" x1="76.382" y1="11.4624" x2="57.4336" y2="26.4995" gradientUnits="userSpaceOnUse">
<stop offset="0.00261239" stop-color="#E1DAFA"/>
<stop offset="0.9958" stop-color="#B1A3DC"/>
</linearGradient>
<linearGradient id="paint37_linear_16684_32732" x1="37.544" y1="79.1719" x2="37.544" y2="96.3163" gradientUnits="userSpaceOnUse">
<stop stop-color="#E2DBFA"/>
<stop offset="1" stop-color="#AFA0DB"/>
</linearGradient>
<linearGradient id="paint38_linear_16684_32732" x1="31.7704" y1="87.7128" x2="21.2759" y2="91.7971" gradientUnits="userSpaceOnUse">
<stop stop-color="#E9E2FF"/>
<stop offset="1" stop-color="#8E75DB"/>
</linearGradient>
<linearGradient id="paint39_linear_16684_32732" x1="32.641" y1="76.1406" x2="32.641" y2="86.7742" gradientUnits="userSpaceOnUse">
<stop stop-color="#CCBDFF"/>
<stop offset="1" stop-color="#8468E1"/>
</linearGradient>
<linearGradient id="paint40_linear_16684_32732" x1="48.544" y1="83.1973" x2="48.544" y2="100.342" gradientUnits="userSpaceOnUse">
<stop stop-color="#E2DBFA"/>
<stop offset="1" stop-color="#AFA0DB"/>
</linearGradient>
<linearGradient id="paint41_linear_16684_32732" x1="42.7704" y1="91.7382" x2="32.2759" y2="95.8225" gradientUnits="userSpaceOnUse">
<stop stop-color="#E9E2FF"/>
<stop offset="1" stop-color="#8E75DB"/>
</linearGradient>
<linearGradient id="paint42_linear_16684_32732" x1="43.6488" y1="80.166" x2="43.6488" y2="90.7996" gradientUnits="userSpaceOnUse">
<stop stop-color="#CCBDFF"/>
<stop offset="1" stop-color="#8468E1"/>
</linearGradient>
<linearGradient id="paint43_linear_16684_32732" x1="42.0012" y1="69.5527" x2="42.0012" y2="85.5478" gradientUnits="userSpaceOnUse">
<stop stop-color="#E2DBFA"/>
<stop offset="1" stop-color="#AFA0DB"/>
</linearGradient>
<linearGradient id="paint44_linear_16684_32732" x1="36.6146" y1="77.5211" x2="26.8237" y2="81.3316" gradientUnits="userSpaceOnUse">
<stop stop-color="#E9E2FF"/>
<stop offset="1" stop-color="#8E75DB"/>
</linearGradient>
<linearGradient id="paint45_linear_16684_32732" x1="37.4383" y1="66.7246" x2="37.4383" y2="76.6454" gradientUnits="userSpaceOnUse">
<stop stop-color="#CCBDFF"/>
<stop offset="1" stop-color="#8468E1"/>
</linearGradient>
<linearGradient id="paint46_linear_16684_32732" x1="77.9039" y1="58.874" x2="80.5796" y2="98.2345" gradientUnits="userSpaceOnUse">
<stop stop-color="#2F349D"/>
<stop offset="1" stop-color="#5B60CA"/>
</linearGradient>
<linearGradient id="paint47_linear_16684_32732" x1="71.2259" y1="94.0224" x2="69.8697" y2="100.75" gradientUnits="userSpaceOnUse">
<stop stop-color="#FB9B08"/>
<stop offset="1" stop-color="#FC7432"/>
</linearGradient>
<linearGradient id="paint48_linear_16684_32732" x1="82.9027" y1="94.1416" x2="82.433" y2="101.051" gradientUnits="userSpaceOnUse">
<stop stop-color="#EA7E25"/>
<stop offset="1" stop-color="#FC861F"/>
</linearGradient>
<linearGradient id="paint49_linear_16684_32732" x1="84.1546" y1="85.6991" x2="84.1201" y2="84.7542" gradientUnits="userSpaceOnUse">
<stop stop-color="#FC5E49"/>
<stop offset="1" stop-color="#FB9F02"/>
</linearGradient>
<linearGradient id="paint50_linear_16684_32732" x1="84.0014" y1="86.588" x2="83.9273" y2="85.49" gradientUnits="userSpaceOnUse">
<stop stop-color="#FC5E49"/>
<stop offset="1" stop-color="#FB9F02"/>
</linearGradient>
<linearGradient id="paint51_linear_16684_32732" x1="85.5395" y1="87.8316" x2="87.1704" y2="84.6533" gradientUnits="userSpaceOnUse">
<stop stop-color="#FC5E49"/>
<stop offset="1" stop-color="#FB9F02"/>
</linearGradient>
<linearGradient id="paint52_linear_16684_32732" x1="81.5816" y1="69.1055" x2="81.5816" y2="90.2853" gradientUnits="userSpaceOnUse">
<stop stop-color="#E2DBFA"/>
<stop offset="1" stop-color="#AFA0DB"/>
</linearGradient>
<linearGradient id="paint53_linear_16684_32732" x1="74.4489" y1="79.6567" x2="61.4843" y2="84.7024" gradientUnits="userSpaceOnUse">
<stop stop-color="#E9E2FF"/>
<stop offset="1" stop-color="#8E75DB"/>
</linearGradient>
<linearGradient id="paint54_linear_16684_32732" x1="75.5272" y1="65.3613" x2="75.5272" y2="78.4979" gradientUnits="userSpaceOnUse">
<stop stop-color="#CCBDFF"/>
<stop offset="1" stop-color="#8468E1"/>
</linearGradient>
</defs>
</svg>
