<svg width="1356" height="416" viewBox="0 0 1356 416" fill="none" xmlns="http://www.w3.org/2000/svg">
<mask id="mask0_2_7" style="mask-type:alpha" maskUnits="userSpaceOnUse" x="0" y="0" width="1356" height="416">
<path d="M1356 16C1356 7.16346 1348.84 0 1340 0H16C7.16342 0 0 7.16344 0 16V400C0 408.837 7.16344 416 16 416H1340C1348.84 416 1356 408.837 1356 400V16Z" fill="url(#paint0_linear_2_7)"/>
</mask>
<g mask="url(#mask0_2_7)">
<path opacity="0.5" d="M1055.19 76.3037C1201.09 104.816 1348.38 56.0027 1403.78 28.0319L1451.8 102.76C1397.86 126.61 1262.74 177.868 1153.73 192.09C1044.71 206.312 853.066 193.483 770.868 185.29C720.201 183.928 599.856 185.525 523.811 202.814C428.754 224.426 375.442 235.843 234.252 296.65C121.299 345.296 -18.746 351.25 -74.6496 348.147L-138.104 249.389C-81.0561 243.494 26.2612 221.155 -0.852857 178.956C-27.9669 136.756 -157.001 125.298 -218.128 124.843L-262 56.5625L-171.854 30.8048C-70.273 56.9291 118.005 65.9119 277.618 40.7695C437.232 15.627 490.091 -22.7156 679.853 -6.17922C869.615 10.3571 872.802 40.6631 1055.19 76.3037Z" fill="white" fill-opacity="0.1"/>
<path opacity="0.5" d="M1370.55 434.822H686.885C768.957 421.644 953.275 378.2 1033.98 309.846C1114.68 241.491 1291.98 215.051 1370.55 210.375V282.109C1222.15 315.521 1308.72 364.682 1370.55 385.087V434.822Z" fill="white" fill-opacity="0.1"/>
</g>
<defs>
<linearGradient id="paint0_linear_2_7" x1="1406.99" y1="-4.41588e-05" x2="-42.0486" y2="506.041" gradientUnits="userSpaceOnUse">
<stop stop-color="#9B39DA"/>
<stop offset="1" stop-color="#8CADEC"/>
</linearGradient>
</defs>
</svg>
