<svg width="24" height="25" viewBox="0 0 24 25" fill="none" xmlns="http://www.w3.org/2000/svg">
<g clip-path="url(#clip0_2535_17725)">
<path d="M19 0.0078125H5C2.239 0.0078125 0 2.24903 0 5.01277V19.0266C0 21.7904 2.239 24.0316 5 24.0316H19C21.762 24.0316 24 21.7904 24 19.0266V5.01277C24 2.24903 21.762 0.0078125 19 0.0078125ZM16 7.01475H14.076C13.461 7.01475 13 7.267 13 7.90463V9.01673H16L15.762 12.0197H13V20.0276H10V12.0197H8V9.01673H10V7.09182C10 5.06782 11.064 4.01178 13.461 4.01178H16V7.01475Z" fill="white"/>
</g>
<defs>
<clipPath id="clip0_2535_17725">
<rect width="24" height="24.0238" fill="white" transform="translate(0 0.0078125)"/>
</clipPath>
</defs>
</svg>
