<svg width="24" height="25" viewBox="0 0 24 25" fill="none" xmlns="http://www.w3.org/2000/svg">
<g clip-path="url(#clip0_2535_17730)">
<path d="M15.233 5.53641C14.39 5.49837 14.136 5.49036 12 5.49036C9.864 5.49036 9.611 5.49837 8.768 5.53641C6.598 5.6355 5.587 6.66452 5.489 8.81866C5.45 9.66349 5.441 9.91674 5.441 12.0549C5.441 14.193 5.45 14.4462 5.488 15.2911C5.587 17.4412 6.594 18.4742 8.767 18.5733C9.61 18.6113 9.864 18.6204 12 18.6204C14.137 18.6204 14.39 18.6123 15.233 18.5743C17.403 18.4752 18.413 17.4442 18.512 15.2921C18.55 14.4472 18.558 14.194 18.558 12.0559C18.558 9.91774 18.55 9.66449 18.512 8.82066C18.413 6.66552 17.401 5.6355 15.233 5.53641ZM12 16.1669C9.731 16.1669 7.892 14.3261 7.892 12.0549C7.892 9.78361 9.732 7.94279 12 7.94279C14.268 7.94279 16.108 9.78361 16.108 12.0549C16.108 14.3261 14.269 16.1669 12 16.1669ZM16.271 8.74158C15.741 8.74158 15.311 8.31115 15.311 7.78063C15.311 7.2501 15.741 6.81968 16.271 6.81968C16.801 6.81968 17.231 7.2501 17.231 7.78063C17.231 8.31115 16.801 8.74158 16.271 8.74158ZM14.667 12.0549C14.667 13.5293 13.473 14.7245 12 14.7245C10.527 14.7245 9.333 13.5293 9.333 12.0549C9.333 10.5804 10.527 9.38522 12 9.38522C13.473 9.38522 14.667 10.5804 14.667 12.0549ZM19 0.0429688H5C2.239 0.0429688 0 2.28419 0 5.04792V19.0618C0 21.8255 2.239 24.0667 5 24.0667H19C21.762 24.0667 24 21.8255 24 19.0618V5.04792C24 2.28419 21.762 0.0429688 19 0.0429688V0.0429688ZM19.952 15.3561C19.82 18.268 18.201 19.8816 15.299 20.0147C14.445 20.0538 14.173 20.0628 12 20.0628C9.827 20.0628 9.556 20.0538 8.702 20.0147C5.794 19.8816 4.182 18.265 4.048 15.3561C4.009 14.5023 4 14.23 4 12.0549C4 9.88071 4.009 9.60744 4.048 8.75359C4.182 5.84271 5.796 4.22811 8.702 4.09598C9.556 4.05594 9.827 4.04693 12 4.04693C14.173 4.04693 14.445 4.05594 15.299 4.09498C18.207 4.22811 19.822 5.84771 19.952 8.75259C19.991 9.60744 20 9.88071 20 12.0549C20 14.23 19.991 14.5023 19.952 15.3561Z" fill="white"/>
</g>
<defs>
<clipPath id="clip0_2535_17730">
<rect width="24" height="24.0238" fill="white" transform="translate(0 0.0429688)"/>
</clipPath>
</defs>
</svg>
