<svg width="24" height="25" viewBox="0 0 24 25" fill="none" xmlns="http://www.w3.org/2000/svg">
<g clip-path="url(#clip0_2535_17735)">
<path d="M19 0.078125H5C2.239 0.078125 0 2.31934 0 5.08308V19.0969C0 21.8607 2.239 24.1019 5 24.1019H19C21.762 24.1019 24 21.8607 24 19.0969V5.08308C24 2.31934 21.762 0.078125 19 0.078125ZM8 19.0969H5V8.08605H8V19.0969ZM6.5 6.81679C5.534 6.81679 4.75 6.02601 4.75 5.05105C4.75 4.07608 5.534 3.2853 6.5 3.2853C7.466 3.2853 8.25 4.07608 8.25 5.05105C8.25 6.02601 7.467 6.81679 6.5 6.81679ZM20 19.0969H17V13.4874C17 10.1161 13 10.3713 13 13.4874V19.0969H10V8.08605H13V9.8528C14.396 7.26424 20 7.07305 20 12.3313V19.0969Z" fill="white"/>
</g>
<defs>
<clipPath id="clip0_2535_17735">
<rect width="24" height="24.0238" fill="white" transform="translate(0 0.078125)"/>
</clipPath>
</defs>
</svg>
