<svg width="72" height="72" viewBox="0 0 72 72" fill="none" xmlns="http://www.w3.org/2000/svg">
<g clip-path="url(#clip0_27654_14535)">
<rect width="72" height="72" fill="white"/>
<g opacity="0.2" filter="url(#filter0_f_27654_14535)">
<path d="M12.8293 19.26C4.53202 28.0147 5.67625 42.8829 14.4968 52.2987C22.601 60.9499 36.253 60.5815 47.1186 55.8422C55.6549 52.119 61.7253 45.7326 60.2507 40.0004C58.5149 33.2524 49.8896 35.6126 45.1384 30.5161C40.0865 25.097 42.8856 17.368 36.4879 13.632C28.2868 8.84286 19.3623 12.3669 12.8293 19.26Z" fill="#7E54F1"/>
<path d="M12.8293 19.26C4.53202 28.0147 5.67625 42.8829 14.4968 52.2987C22.601 60.9499 36.253 60.5815 47.1186 55.8422C55.6549 52.119 61.7253 45.7326 60.2507 40.0004C58.5149 33.2524 49.8896 35.6126 45.1384 30.5161C40.0865 25.097 42.8856 17.368 36.4879 13.632C28.2868 8.84286 19.3623 12.3669 12.8293 19.26Z" stroke="black" stroke-width="0.208446"/>
</g>
<path d="M42.9039 11.0599C41.9523 13.8359 38.9984 15.4386 36.1213 14.6677C33.2442 13.8968 31.4874 11.0318 32.0514 8.15196C32.0928 7.94027 31.9707 7.7259 31.7623 7.67007L27.1537 6.4352C25.1511 5.8986 23.0926 7.08705 22.556 9.08969L20.3395 17.3617C20.0712 18.363 20.6654 19.3923 21.6668 19.6606L46.1429 26.2189C47.1442 26.4872 48.1734 25.893 48.4417 24.8917L50.6582 16.6197C51.1948 14.617 50.0064 12.5586 48.0037 12.022L43.3951 10.7871C43.1868 10.7313 42.9738 10.8558 42.9039 11.0599Z" fill="#6079BA"/>
<path d="M41.5686 50.5422C41.122 52.2092 39.4086 53.1984 37.7417 52.7517L15.6759 46.8393C14.009 46.3926 13.0198 44.6792 13.4664 43.0123L19.4493 20.6839C19.6726 19.8504 20.5293 19.3558 21.3628 19.5791L46.4468 26.3004C47.2802 26.5237 47.7748 27.3804 47.5515 28.2139L41.5686 50.5422Z" fill="#6079BA"/>
<path d="M51.4103 16.5191C49.824 18.988 46.573 19.8399 43.9629 18.4049C41.3527 16.9699 40.3301 13.7686 41.5647 11.1064C41.6554 10.9107 41.588 10.6734 41.3989 10.5695L37.2179 8.27093C35.4011 7.27211 33.1186 7.93523 32.1197 9.75206L27.994 17.2566C27.4946 18.165 27.8262 19.3063 28.7346 19.8057L50.9398 32.0132C51.8482 32.5126 52.9894 32.1811 53.4888 31.2726L57.6145 23.7681C58.6134 21.9513 57.9502 19.6688 56.1334 18.67L51.9524 16.3714C51.7634 16.2675 51.5269 16.3377 51.4103 16.5191Z" fill="#6085E2"/>
<path d="M40.6955 54.5432C39.8641 56.0555 37.9642 56.6075 36.4519 55.7761L16.4335 44.7707C14.9213 43.9394 14.3693 42.0394 15.2007 40.5272L26.337 20.2705C26.7527 19.5144 27.7027 19.2384 28.4588 19.6541L51.2154 32.1648C51.9716 32.5805 52.2475 33.5304 51.8319 34.2866L40.6955 54.5432Z" fill="#6085E2"/>
<path d="M58.755 28.8687C56.3513 30.8768 52.7683 30.7067 50.568 28.4119C48.3676 26.1172 48.348 22.5302 50.4553 20.2129C50.6102 20.0426 50.6173 19.7794 50.4579 19.6132L46.9334 15.9374C45.4018 14.3402 42.8654 14.2869 41.2682 15.8185L34.6706 22.1446C33.8719 22.9104 33.8453 24.1786 34.6111 24.9773L53.3296 44.499C54.0954 45.2976 55.3636 45.3242 56.1622 44.5584L62.7599 38.2323C64.3571 36.7007 64.4104 34.1643 62.8788 32.567L59.3543 28.8913C59.195 28.7251 58.9317 28.7211 58.755 28.8687Z" fill="url(#paint0_linear_27654_14535)"/>
<path d="M35.7038 64.1751C34.3743 65.45 32.2631 65.4056 30.9882 64.0761L14.1131 46.4769C12.8383 45.1474 12.8826 43.0362 14.2121 41.7613L32.0208 24.6853C32.6856 24.0479 33.7412 24.0701 34.3786 24.7348L53.562 44.7413C54.1994 45.4061 54.1772 46.4617 53.5125 47.0991L35.7038 64.1751Z" fill="url(#paint1_linear_27654_14535)"/>
<path d="M34.7817 24.9429L53.0934 44.0402" stroke="white" stroke-width="1.25067" stroke-linecap="round" stroke-dasharray="4.17 3.13"/>
<path d="M56.8335 37.7168C60.2993 36.7745 61.7147 35.7063 62.5168 32.0334C63.2408 35.4084 64.8078 36.7165 68.2002 37.7168C64.665 38.2406 63.231 39.8592 62.5168 43.4001C61.815 40.3457 61.0813 38.5515 56.8335 37.7168Z" fill="#FFF500"/>
<path d="M6.2002 33.0668C6.83034 32.8955 7.08769 32.7012 7.23353 32.0334C7.36516 32.6471 7.65007 32.8849 8.26687 33.0668C7.62411 33.162 7.36337 33.4563 7.23353 34.1001C7.10593 33.5448 6.97252 33.2186 6.2002 33.0668Z" fill="#FFF500"/>
<path d="M24.8003 13.4334C25.4304 13.262 25.6878 13.0678 25.8336 12.4C25.9653 13.0137 26.2502 13.2515 26.867 13.4334C26.2242 13.5286 25.9635 13.8229 25.8336 14.4667C25.706 13.9113 25.5726 13.5851 24.8003 13.4334Z" fill="#FFF500"/>
<path d="M17.5669 52.7001C18.197 52.5288 18.4544 52.3345 18.6002 51.6667C18.7319 52.2804 19.0168 52.5182 19.6336 52.7001C18.9908 52.7953 18.7301 53.0896 18.6002 53.7334C18.4726 53.1781 18.3392 52.8519 17.5669 52.7001Z" fill="#FFF500"/>
<path d="M12.3999 17.5667C13.03 17.3953 13.2874 17.2011 13.4332 16.5333C13.5649 17.147 13.8498 17.3848 14.4666 17.5667C13.8238 17.6619 13.5631 17.9562 13.4332 18.6C13.3056 18.0446 13.1722 17.7184 12.3999 17.5667Z" fill="#FFF500"/>
<path d="M12.3999 42.3667C13.03 42.1954 13.2874 42.0012 13.4332 41.3334C13.5649 41.947 13.8498 42.1848 14.4666 42.3667C13.8238 42.462 13.5631 42.7562 13.4332 43.4C13.3056 42.8447 13.1722 42.5185 12.3999 42.3667Z" fill="#FFF500"/>
<path d="M47.5332 51.6668C48.1633 51.4954 48.4207 51.3012 48.5665 50.6334C48.6982 51.247 48.9831 51.4849 49.5999 51.6668C48.9571 51.762 48.6964 52.0563 48.5665 52.7001C48.4389 52.1447 48.3055 51.8185 47.5332 51.6668Z" fill="#FFF500"/>
<path d="M58.8999 14.4667C59.53 14.2954 59.7874 14.1011 59.9332 13.4333C60.0649 14.047 60.3498 14.2848 60.9666 14.4667C60.3238 14.5619 60.0631 14.8562 59.9332 15.5C59.8056 14.9447 59.6722 14.6185 58.8999 14.4667Z" fill="#FFF500"/>
<path d="M53.7334 40.3001C54.3635 40.1287 54.6209 39.9345 54.7667 39.2667C54.8984 39.8804 55.1833 40.1182 55.8001 40.3001C55.1573 40.3953 54.8966 40.6896 54.7667 41.3334C54.6391 40.778 54.5057 40.4518 53.7334 40.3001Z" fill="#FFF500"/>
</g>
<defs>
<filter id="filter0_f_27654_14535" x="6.26241" y="10.4876" width="55.1475" height="49.6137" filterUnits="userSpaceOnUse" color-interpolation-filters="sRGB">
<feFlood flood-opacity="0" result="BackgroundImageFix"/>
<feBlend mode="normal" in="SourceGraphic" in2="BackgroundImageFix" result="shape"/>
<feGaussianBlur stdDeviation="0.416892" result="effect1_foregroundBlur_27654_14535"/>
</filter>
<linearGradient id="paint0_linear_27654_14535" x1="43.4174" y1="14.5118" x2="33.7296" y2="65.2274" gradientUnits="userSpaceOnUse">
<stop stop-color="#82A5FF"/>
<stop offset="1" stop-color="#5676C9"/>
</linearGradient>
<linearGradient id="paint1_linear_27654_14535" x1="43.4174" y1="14.5118" x2="33.7296" y2="65.2274" gradientUnits="userSpaceOnUse">
<stop stop-color="#82A5FF"/>
<stop offset="1" stop-color="#5676C9"/>
</linearGradient>
<clipPath id="clip0_27654_14535">
<rect width="72" height="72" fill="white"/>
</clipPath>
</defs>
</svg>
