<svg width="73" height="72" viewBox="0 0 73 72" fill="none" xmlns="http://www.w3.org/2000/svg">
<g clip-path="url(#clip0_27654_14557)">
<rect width="72" height="72" transform="translate(0.333496)" fill="white"/>
<g opacity="0.2" filter="url(#filter0_f_27654_14557)">
<path d="M11.4607 20.601C3.16336 29.3557 4.3076 44.2238 13.1281 53.6396C21.2324 62.2908 34.8844 61.9225 45.75 57.1832C54.2863 53.4599 60.3566 47.0736 58.8821 41.3413C57.1462 34.5933 48.521 36.9536 43.7698 31.857C38.7178 26.4379 41.517 18.7089 35.1193 14.9729C26.9181 10.1838 17.9936 13.7078 11.4607 20.601Z" fill="#7E54F1"/>
<path d="M11.4607 20.601C3.16336 29.3557 4.3076 44.2238 13.1281 53.6396C21.2324 62.2908 34.8844 61.9225 45.75 57.1832C54.2863 53.4599 60.3566 47.0736 58.8821 41.3413C57.1462 34.5933 48.521 36.9536 43.7698 31.857C38.7178 26.4379 41.517 18.7089 35.1193 14.9729C26.9181 10.1838 17.9936 13.7078 11.4607 20.601Z" stroke="black" stroke-width="0.208446"/>
</g>
<path d="M54.1016 21.4903C52.1338 23.9272 48.5861 24.4564 45.9818 22.6329C43.3776 20.8094 42.6614 17.2945 44.2784 14.612C44.3972 14.4148 44.353 14.1552 44.1644 14.0232L39.9929 11.1022C38.1802 9.83298 35.6817 10.2735 34.4125 12.0862L29.1697 19.5737C28.5351 20.48 28.7553 21.7292 29.6617 22.3639L51.8164 37.8768C52.7227 38.5114 53.972 38.2911 54.6066 37.3848L59.8494 29.8973C61.1186 28.0846 60.6781 25.5862 58.8654 24.3169L54.6939 21.396C54.5053 21.264 54.2462 21.3112 54.1016 21.4903Z" fill="url(#paint0_linear_27654_14557)"/>
<path d="M38.3493 60.6025C37.2928 62.1114 35.2132 62.4781 33.7043 61.4216L13.7314 47.4364C12.2226 46.3799 11.8559 44.3003 12.9124 42.7914L27.064 22.5808C27.5923 21.8263 28.6321 21.643 29.3865 22.1712L52.0914 38.0694C52.8459 38.5976 53.0292 39.6374 52.5009 40.3919L38.3493 60.6025Z" fill="url(#paint1_linear_27654_14557)"/>
<path d="M29.8218 22.2972L51.4949 37.4729" stroke="white" stroke-width="1.25067" stroke-linecap="round" stroke-dasharray="4.17 3.13"/>
<circle cx="7.78505" cy="7.78505" r="7.78505" transform="matrix(-0.999977 -0.00678492 -0.00678492 0.999977 26.4663 20.9583)" fill="#7BA9DF"/>
<circle cx="7.78505" cy="7.78505" r="7.78505" transform="matrix(-0.999977 -0.00678492 -0.00678492 0.999977 25.5728 20.6532)" fill="#9BC9FF"/>
<path d="M14.9971 28.5513L17.9448 31.1994L22.764 25.8351" stroke="white" stroke-width="2.07601" stroke-linecap="round" stroke-linejoin="round"/>
<path d="M56.1338 41.8501C59.5996 40.9078 61.015 39.8396 61.8171 36.1667C62.5411 39.5417 64.1081 40.8498 67.5005 41.8501C63.9653 42.374 62.5313 43.9925 61.8171 47.5334C61.1153 44.479 60.3816 42.6848 56.1338 41.8501Z" fill="#FFF500"/>
<path d="M5.5 37.2001C6.13014 37.0288 6.3875 36.8345 6.53334 36.1667C6.66497 36.7804 6.94987 37.0182 7.56667 37.2001C6.92391 37.2953 6.66318 37.5896 6.53334 38.2334C6.40573 37.6781 6.27232 37.3519 5.5 37.2001Z" fill="#FFF500"/>
<path d="M24.1001 17.5667C24.7302 17.3953 24.9876 17.2011 25.1334 16.5333C25.2651 17.147 25.55 17.3848 26.1668 17.5667C25.524 17.6619 25.2633 17.9562 25.1334 18.6C25.0058 18.0446 24.8724 17.7184 24.1001 17.5667Z" fill="#FFF500"/>
<path d="M16.8667 56.8335C17.4968 56.6622 17.7542 56.468 17.9 55.8002C18.0317 56.4138 18.3166 56.6516 18.9334 56.8335C18.2906 56.9288 18.0299 57.223 17.9 57.8668C17.7724 57.3115 17.639 56.9853 16.8667 56.8335Z" fill="#FFF500"/>
<path d="M14.8003 16.5333C15.4304 16.362 15.6878 16.1678 15.8336 15.5C15.9653 16.1136 16.2502 16.3515 16.867 16.5333C16.2242 16.6286 15.9635 16.9229 15.8336 17.5667C15.706 17.0113 15.5726 16.6851 14.8003 16.5333Z" fill="#FFF500"/>
<path d="M11.7002 46.5001C12.3303 46.3288 12.5877 46.1346 12.7335 45.4668C12.8652 46.0804 13.1501 46.3183 13.7669 46.5001C13.1241 46.5954 12.8634 46.8897 12.7335 47.5335C12.6059 46.9781 12.4725 46.6519 11.7002 46.5001Z" fill="#FFF500"/>
<path d="M46.8335 55.8002C47.4636 55.6289 47.721 55.4346 47.8668 54.7668C47.9985 55.3805 48.2834 55.6183 48.9002 55.8002C48.2574 55.8954 47.9967 56.1897 47.8668 56.8335C47.7392 56.2782 47.6058 55.952 46.8335 55.8002Z" fill="#FFF500"/>
<path d="M58.2002 18.6C58.8303 18.4287 59.0877 18.2344 59.2335 17.5667C59.3652 18.1803 59.6501 18.4181 60.2669 18.6C59.6241 18.6952 59.3634 18.9895 59.2335 19.6333C59.1059 19.078 58.9725 18.7518 58.2002 18.6Z" fill="#FFF500"/>
<path d="M53.0337 44.4335C53.6638 44.2622 53.9212 44.0679 54.067 43.4001C54.1987 44.0138 54.4836 44.2516 55.1004 44.4335C54.4576 44.5287 54.1969 44.823 54.067 45.4668C53.9394 44.9115 53.806 44.5853 53.0337 44.4335Z" fill="#FFF500"/>
</g>
<defs>
<filter id="filter0_f_27654_14557" x="4.89376" y="11.8286" width="55.1475" height="49.6137" filterUnits="userSpaceOnUse" color-interpolation-filters="sRGB">
<feFlood flood-opacity="0" result="BackgroundImageFix"/>
<feBlend mode="normal" in="SourceGraphic" in2="BackgroundImageFix" result="shape"/>
<feGaussianBlur stdDeviation="0.416892" result="effect1_foregroundBlur_27654_14557"/>
</filter>
<linearGradient id="paint0_linear_27654_14557" x1="36.2668" y1="10.3869" x2="36.6171" y2="62.0183" gradientUnits="userSpaceOnUse">
<stop stop-color="#A3EBB3"/>
<stop offset="1" stop-color="#52C86C"/>
</linearGradient>
<linearGradient id="paint1_linear_27654_14557" x1="36.2668" y1="10.3869" x2="36.6171" y2="62.0183" gradientUnits="userSpaceOnUse">
<stop stop-color="#A3EBB3"/>
<stop offset="1" stop-color="#52C86C"/>
</linearGradient>
<clipPath id="clip0_27654_14557">
<rect width="72" height="72" fill="white" transform="translate(0.333496)"/>
</clipPath>
</defs>
</svg>
