<svg width="73" height="72" viewBox="0 0 73 72" fill="none" xmlns="http://www.w3.org/2000/svg">
<g clip-path="url(#clip0_27654_14581)">
<rect width="72" height="72" transform="translate(0.666504)" fill="white"/>
<g opacity="0.2" filter="url(#filter0_f_27654_14581)">
<path d="M13.2336 18.3718C4.93631 27.1266 6.08054 41.9947 14.901 51.4105C23.0053 60.0617 36.6573 59.6933 47.5229 54.9541C56.0592 51.2308 62.1296 44.8444 60.655 39.1122C58.9192 32.3642 50.2939 34.7245 45.5427 29.6279C40.4908 24.2088 43.2899 16.4798 36.8922 12.7438C28.6911 7.95468 19.7666 11.4787 13.2336 18.3718Z" fill="#7E54F1"/>
<path d="M13.2336 18.3718C4.93631 27.1266 6.08054 41.9947 14.901 51.4105C23.0053 60.0617 36.6573 59.6933 47.5229 54.9541C56.0592 51.2308 62.1296 44.8444 60.655 39.1122C58.9192 32.3642 50.2939 34.7245 45.5427 29.6279C40.4908 24.2088 43.2899 16.4798 36.8922 12.7438C28.6911 7.95468 19.7666 11.4787 13.2336 18.3718Z" stroke="black" stroke-width="0.208446"/>
</g>
<path fill-rule="evenodd" clip-rule="evenodd" d="M23.0177 53.3958L27.2125 50.4098L28.5837 45.4468L32.7785 42.4608L34.1497 37.4977L38.3445 34.5118L39.7157 29.5487L43.9104 26.5627L45.2816 21.5997C42.6774 19.7762 41.9612 16.2613 43.5782 13.5788C43.697 13.3816 43.6528 13.122 43.4642 12.99L39.2927 10.069C37.48 8.79978 34.9815 9.24031 33.7123 11.053L28.4695 18.5405C27.8899 19.3682 28.0233 20.4819 28.7412 21.1523C27.9868 20.624 26.8921 20.7931 26.3638 21.5476L12.2122 41.7582C11.1557 43.2671 11.5224 45.3467 13.0312 46.4032L23.0177 53.3958ZM28.9615 21.3307C28.8829 21.2756 28.8094 21.2159 28.7412 21.1523L28.9615 21.3307Z" fill="url(#paint0_linear_27654_14581)"/>
<path opacity="0.5" d="M29.1211 21.2639L39.8264 28.7599" stroke="white" stroke-width="1.25067" stroke-linecap="round" stroke-dasharray="4.17 3.13"/>
<path d="M56.8892 23.0275C54.9214 25.4644 50.8163 26.2395 48.2121 24.416L46.2058 28.1898L41.3983 31.058L39.9205 36.2576L35.779 39.0832L33.9023 44.1307L30.1 47.1937L28.0557 51.1061L22.873 53.6019L31.5414 59.6716C33.0502 60.7281 35.1299 60.3614 36.1864 58.8525L51.3074 41.7608C51.8356 41.0064 51.6523 39.9666 50.8979 39.4383L50.6228 39.2457C51.5292 39.8804 52.4447 39.6308 53.413 38.7537L62.637 31.4345C63.9062 29.6218 63.4657 27.1234 61.653 25.8541L57.4815 22.9332C57.2929 22.8012 57.0338 22.8484 56.8892 23.0275Z" fill="url(#paint1_linear_27654_14581)"/>
<path opacity="0.5" d="M41.9863 31.6716L50.2333 38.973" stroke="white" stroke-width="1.25067" stroke-linecap="round" stroke-dasharray="4.17 3.13"/>
<path opacity="0.3" d="M19.2668 17.05C19.2668 18.4768 18.1102 19.6334 16.6834 19.6334C15.2567 19.6334 14.1001 18.4768 14.1001 17.05C14.1001 15.6233 15.2567 14.4667 16.6834 14.4667C18.1102 14.4667 19.2668 15.6233 19.2668 17.05ZM14.8351 17.05C14.8351 18.0708 15.6626 18.8984 16.6834 18.8984C17.7043 18.8984 18.5318 18.0708 18.5318 17.05C18.5318 16.0292 17.7043 15.2017 16.6834 15.2017C15.6626 15.2017 14.8351 16.0292 14.8351 17.05Z" fill="#CC3D3D"/>
<path opacity="0.3" d="M14.0999 32.0335C14.0999 32.6042 13.6372 33.0668 13.0665 33.0668C12.4958 33.0668 12.0332 32.6042 12.0332 32.0335C12.0332 31.4628 12.4958 31.0001 13.0665 31.0001C13.6372 31.0001 14.0999 31.4628 14.0999 32.0335ZM12.3272 32.0335C12.3272 32.4418 12.6582 32.7728 13.0665 32.7728C13.4749 32.7728 13.8059 32.4418 13.8059 32.0335C13.8059 31.6251 13.4749 31.2941 13.0665 31.2941C12.6582 31.2941 12.3272 31.6251 12.3272 32.0335Z" fill="#CC3D3D"/>
<path opacity="0.3" d="M16.1668 51.6668C16.1668 52.2375 15.7041 52.7001 15.1334 52.7001C14.5627 52.7001 14.1001 52.2375 14.1001 51.6668C14.1001 51.0961 14.5627 50.6334 15.1334 50.6334C15.7041 50.6334 16.1668 51.0961 16.1668 51.6668ZM14.3941 51.6668C14.3941 52.0751 14.7251 52.4061 15.1334 52.4061C15.5418 52.4061 15.8728 52.0751 15.8728 51.6668C15.8728 51.2584 15.5418 50.9274 15.1334 50.9274C14.7251 50.9274 14.3941 51.2584 14.3941 51.6668Z" fill="#CC3D3D"/>
<path opacity="0.3" d="M57.4998 40.3001C57.4998 40.8708 57.0371 41.3334 56.4664 41.3334C55.8957 41.3334 55.4331 40.8708 55.4331 40.3001C55.4331 39.7294 55.8957 39.2667 56.4664 39.2667C57.0371 39.2667 57.4998 39.7294 57.4998 40.3001ZM55.7271 40.3001C55.7271 40.7084 56.0581 41.0394 56.4664 41.0394C56.8748 41.0394 57.2058 40.7084 57.2058 40.3001C57.2058 39.8917 56.8748 39.5607 56.4664 39.5607C56.0581 39.5607 55.7271 39.8917 55.7271 40.3001Z" fill="#CC3D3D"/>
<path opacity="0.3" d="M29.5999 10.3334C29.5999 10.9041 29.1372 11.3667 28.5665 11.3667C27.9958 11.3667 27.5332 10.9041 27.5332 10.3334C27.5332 9.76269 27.9958 9.30005 28.5665 9.30005C29.1372 9.30005 29.5999 9.76269 29.5999 10.3334ZM27.8272 10.3334C27.8272 10.7417 28.1582 11.0727 28.5665 11.0727C28.9749 11.0727 29.3059 10.7417 29.3059 10.3334C29.3059 9.92506 28.9749 9.59404 28.5665 9.59404C28.1582 9.59404 27.8272 9.92506 27.8272 10.3334Z" fill="#CC3D3D"/>
<circle opacity="0.3" cx="13.5831" cy="25.3167" r="0.516668" fill="#CC3D3D"/>
<circle opacity="0.3" cx="7.38337" cy="34.6168" r="0.516668" fill="#CC3D3D"/>
<circle opacity="0.3" cx="49.7501" cy="53.2167" r="0.516668" fill="#CC3D3D"/>
<circle opacity="0.3" cx="59.0499" cy="44.9501" r="0.516668" fill="#CC3D3D"/>
</g>
<defs>
<filter id="filter0_f_27654_14581" x="6.66671" y="9.59944" width="55.1475" height="49.6137" filterUnits="userSpaceOnUse" color-interpolation-filters="sRGB">
<feFlood flood-opacity="0" result="BackgroundImageFix"/>
<feBlend mode="normal" in="SourceGraphic" in2="BackgroundImageFix" result="shape"/>
<feGaussianBlur stdDeviation="0.416892" result="effect1_foregroundBlur_27654_14581"/>
</filter>
<linearGradient id="paint0_linear_27654_14581" x1="35.5666" y1="9.35369" x2="35.917" y2="60.9851" gradientUnits="userSpaceOnUse">
<stop stop-color="#FF8484"/>
<stop offset="1" stop-color="#B63737"/>
</linearGradient>
<linearGradient id="paint1_linear_27654_14581" x1="42.9926" y1="22.9544" x2="43.2453" y2="60.2086" gradientUnits="userSpaceOnUse">
<stop stop-color="#FF8484"/>
<stop offset="1" stop-color="#B63737"/>
</linearGradient>
<clipPath id="clip0_27654_14581">
<rect width="72" height="72" fill="white" transform="translate(0.666504)"/>
</clipPath>
</defs>
</svg>
