<svg width="201" height="181" viewBox="0 0 201 181" fill="none" xmlns="http://www.w3.org/2000/svg">
<path d="M195.092 137.146C184.617 155.213 168.12 171.109 149.593 174.63C127.41 178.838 112.247 172.243 91.3412 161.321C86.9191 158.975 82.3217 156.975 77.5905 155.339C68.2777 152.182 57.6838 150.481 45.05 151.667C32.4818 152.856 22.9555 147.611 15.0783 140.979C12.6474 138.939 10.6239 136.137 9.03729 132.826C1.7119 117.617 3.39706 91.6527 15.7747 78.9302C28.9144 65.4357 48.0787 73.0173 57.9433 56.504C62.4732 48.9059 69.6048 53.219 73.3825 45.3713C83.2373 24.8635 96.0255 18.4513 120.666 31.0326C138.132 39.961 134.561 40.1516 160.657 62.5679C179.558 78.8152 190.494 74.0093 194.718 83.7492C200.049 96.0841 205.502 119.203 195.092 137.146Z" fill="url(#paint0_linear_8066_65547)"/>
<mask id="mask0_8066_65547" style="mask-type:alpha" maskUnits="userSpaceOnUse" x="0" y="0" width="201" height="176">
<path d="M195.093 137.147C184.618 155.214 168.121 171.11 149.594 174.631C127.41 178.839 112.247 163.426 91.3419 152.504C86.9198 150.158 82.3224 156.976 77.5912 155.341C68.2784 152.184 57.6845 150.482 45.0507 151.668C32.4825 152.857 22.9563 147.613 15.079 140.981C12.6482 138.941 10.6246 136.139 9.03801 132.827C1.71262 117.618 -5.77059 69.4906 6.60703 56.7681C19.7467 67.8667 48.0794 48.4255 57.944 31.9122C62.474 24.3141 69.6055 28.6272 73.3832 20.7795C83.238 0.271709 96.0262 -6.14047 120.666 6.44081C138.132 15.3692 134.562 2.10965 160.657 24.526C179.559 40.7733 190.494 24.8245 194.719 83.7505C200.05 96.0854 205.503 119.205 195.093 137.147Z" fill="url(#paint1_linear_8066_65547)"/>
</mask>
<g mask="url(#mask0_8066_65547)">
<g opacity="0.5">
<path d="M154.377 88.4227L165.791 71.8803L164.953 69.1865C157.41 71.9203 148.291 67.191 148.291 67.191L137.575 57.6328L125.662 75.3524C133.405 78.7447 139.172 82.9352 139.172 82.9352C145.218 88.3029 154.377 88.4227 154.377 88.4227Z" fill="#C4A2FF"/>
<path d="M148.828 66.2728L140.048 81.8174C140.048 81.8174 146.852 87.4446 153.996 85.968L164.691 68.3681C154.954 70.5032 154.854 63.0801 148.828 66.2728Z" fill="#F5F9FD"/>
<path d="M148.83 66.2739C149.249 61.2852 140.05 56.2168 140.05 56.2168L128.157 74.2557C128.157 74.2557 135.321 74.575 140.05 81.8185L148.83 66.2739Z" fill="#F5F9FD"/>
<path fill-rule="evenodd" clip-rule="evenodd" d="M140.37 82.0004L149.15 66.4559L148.509 66.0938L139.729 81.6383L140.37 82.0004Z" fill="#C4A2FF"/>
<path fill-rule="evenodd" clip-rule="evenodd" d="M155.374 72.1994C155.919 72.4654 156.465 72.7315 157.01 72.9976C157.29 73.1173 157.549 73.257 157.828 73.3767C158.048 73.4765 158.327 73.5962 158.567 73.5363C158.806 73.4765 158.966 73.2969 159.086 73.0774C159.225 72.8379 159.365 72.5785 159.485 72.3191C159.737 71.8402 159.983 71.3613 160.223 70.8824C160.403 70.8026 160.442 70.5232 160.283 70.4035C160.223 70.3037 160.103 70.2638 159.983 70.2837C158.946 69.9645 157.888 69.7051 156.871 69.286C156.771 69.2461 156.651 69.3259 156.591 69.4057C156.092 70.164 155.673 70.9821 155.254 71.7803C155.174 71.92 155.214 72.1395 155.374 72.1994ZM155.973 71.8003C156.312 71.1617 156.671 70.5032 156.95 69.8447C157.868 70.0842 158.746 70.4434 159.644 70.7427C159.445 71.1152 159.252 71.4877 159.066 71.8601C158.946 72.0863 158.826 72.3124 158.706 72.5386C158.647 72.6583 158.547 72.9776 158.387 73.0175C158.307 73.0175 158.168 72.9377 158.088 72.8978C157.981 72.8313 157.868 72.7647 157.749 72.6982C157.522 72.5918 157.296 72.4787 157.07 72.359C156.698 72.1728 156.332 71.9865 155.973 71.8003Z" fill="#CFE1EF"/>
<path d="M150.425 67.5509C151.184 67.2715 151.922 67.5709 152.6 67.93C153.259 68.3092 153.897 68.7282 154.656 68.8879C154.935 68.9477 155.035 68.5486 154.775 68.4688C153.259 68.0897 151.962 66.3736 150.266 66.9124C149.867 67.052 150.026 67.6706 150.425 67.5509Z" fill="#CFE1EF"/>
<path d="M149.406 68.8875C149.406 69.0671 149.566 69.2268 149.765 69.2268C150.085 69.2268 150.424 69.1869 150.763 69.2268C151.062 69.2667 151.382 69.3465 151.681 69.4463C152.3 69.6259 152.878 69.9451 153.377 70.3642C153.637 70.5837 153.996 70.2245 153.736 70.005C153.198 69.5061 152.579 69.127 151.901 68.8875C151.555 68.7545 151.202 68.6614 150.843 68.6082C150.484 68.5683 150.105 68.5084 149.765 68.5483C149.566 68.5683 149.406 68.688 149.406 68.8875Z" fill="#CFE1EF"/>
<path d="M148.549 71.5821C150.165 71.7018 151.622 72.4401 153.019 73.1984C154.435 73.9367 155.852 74.7349 157.448 75.0541C157.788 75.114 157.927 74.6351 157.588 74.5353C154.375 73.7571 151.901 71.163 148.549 70.8238C148.07 70.7839 148.07 71.5421 148.549 71.5821Z" fill="#CFE1EF"/>
<path d="M153.22 75.253C153.42 75.4725 153.679 75.5922 153.958 75.712C154.211 75.8184 154.471 75.9115 154.737 75.9913C155.269 76.151 155.814 76.2374 156.373 76.2507C156.533 76.2707 156.652 76.131 156.652 75.9913C156.652 75.8317 156.533 75.7319 156.373 75.712C155.874 75.6521 155.375 75.5324 154.896 75.3927C154.67 75.3129 154.444 75.2264 154.218 75.1333C153.978 75.0135 153.739 74.8739 153.46 74.814C153.22 74.7541 153.021 75.0734 153.22 75.253Z" fill="#CFE1EF"/>
<path fill-rule="evenodd" clip-rule="evenodd" d="M144.577 77.747C145.395 77.8468 146.233 78.0862 147.032 78.3057C147.83 78.5319 148.621 78.7913 149.406 79.084C150.983 79.6826 152.499 80.4209 153.936 81.279C154.095 81.3787 154.295 81.2989 154.395 81.1393C154.834 80.4409 155.313 79.7624 155.712 79.0241C155.871 78.7647 155.632 78.5452 155.412 78.5651C155.452 78.4454 155.412 78.2858 155.253 78.2259C154.235 77.8268 153.237 77.3679 152.24 76.869C151.388 76.4433 150.563 75.9644 149.765 75.4323C148.987 74.9135 148.169 74.3747 147.211 74.3348C145.575 74.255 144.637 75.9311 144.238 77.308C144.158 77.5475 144.358 77.727 144.577 77.747ZM145.056 77.1484C145.295 76.5697 145.535 75.991 145.974 75.552C147.291 74.255 149.087 75.8713 150.264 76.5697C151.801 77.4676 153.437 78.186 155.133 78.6849C155.146 78.6849 155.153 78.6849 155.153 78.6849C155.14 78.6982 155.133 78.7048 155.133 78.7048C154.714 79.2835 154.355 79.9021 153.976 80.5207C152.579 79.7225 151.122 79.0241 149.626 78.4654C148.827 78.1594 148.016 77.8933 147.191 77.6672C146.493 77.4676 145.774 77.308 145.056 77.1484Z" fill="#CFE1EF"/>
<path d="M144.46 78.9839C145.158 79.3032 145.917 79.5227 146.635 79.7821C147.34 80.0482 148.052 80.3076 148.77 80.5603C150.22 81.0924 151.67 81.6113 153.12 82.1168C153.46 82.2365 153.599 81.6778 153.26 81.558C151.85 81.0126 150.426 80.4738 148.99 79.9417C148.271 79.689 147.56 79.4296 146.855 79.1635C146.136 78.9041 145.438 78.5848 144.7 78.3853C144.36 78.2855 144.121 78.8243 144.46 78.9839Z" fill="#CFE1EF"/>
<path d="M148.612 82.1373C148.771 82.4167 149.19 82.5364 149.47 82.6362C149.762 82.7692 150.055 82.8823 150.348 82.9754C150.946 83.1616 151.558 83.3013 152.183 83.3945C152.343 83.4144 152.503 83.3545 152.543 83.175C152.582 83.0353 152.503 82.8357 152.343 82.8158C151.744 82.7093 151.159 82.5564 150.587 82.3568C150.308 82.2504 150.042 82.1373 149.789 82.0176C149.656 81.9644 149.523 81.9045 149.39 81.838C149.23 81.7582 149.07 81.6584 148.891 81.6784C148.671 81.6983 148.492 81.9178 148.612 82.1373Z" fill="#CFE1EF"/>
<path d="M141.068 59.968C141.307 60.1875 141.726 60.3073 142.025 60.4669C142.318 60.6132 142.604 60.7729 142.884 60.9458C143.469 61.3183 144.014 61.7373 144.52 62.2029C145.537 63.1608 146.396 64.2583 147.034 65.4954C147.194 65.7948 147.653 65.5354 147.513 65.2161C146.874 63.919 145.996 62.7218 144.939 61.744C144.4 61.2451 143.821 60.7862 143.203 60.3871C142.91 60.2008 142.611 60.0279 142.305 59.8683C142.006 59.7086 141.626 59.4692 141.287 59.4492C141.028 59.4492 140.888 59.7884 141.068 59.968Z" fill="#CFE1EF"/>
<path d="M144.379 64.2584C144.479 64.4978 144.658 64.6974 144.818 64.8969C144.978 65.0832 145.137 65.2694 145.297 65.4556C145.63 65.8414 145.962 66.2272 146.295 66.613C146.374 66.7128 146.574 66.6928 146.654 66.613C146.774 66.4933 146.754 66.3336 146.654 66.2339C146.348 65.8348 146.035 65.4423 145.716 65.0566C145.556 64.857 145.397 64.6575 145.237 64.4579C145.057 64.2584 144.898 64.0788 144.698 63.9391C144.599 63.8792 144.479 63.8992 144.419 63.979C144.339 64.0389 144.319 64.1586 144.379 64.2584Z" fill="#CFE1EF"/>
<path fill-rule="evenodd" clip-rule="evenodd" d="M136.497 65.4544C138.951 66.8114 141.266 68.4077 143.401 70.2036C143.521 70.3234 143.761 70.3633 143.88 70.2036C144.459 69.4653 145.117 68.727 145.616 67.9488C145.776 67.6893 145.536 67.4299 145.297 67.4299C145.297 67.4166 145.29 67.3967 145.277 67.3701C144.738 66.5519 144 65.8336 143.242 65.195C142.503 64.5764 141.705 63.9978 140.867 63.5388C140.029 63.0799 139.051 62.6808 138.113 63.0799C137.295 63.439 136.796 64.2572 136.377 64.9955C136.298 65.1551 136.337 65.3746 136.497 65.4544ZM143.581 69.4853C141.566 67.8091 139.41 66.3125 137.116 65.0354C137.435 64.4767 137.814 63.878 138.433 63.6585C139.271 63.3193 140.209 63.898 140.907 64.2971C141.665 64.7361 142.37 65.2416 143.022 65.8136C143.701 66.3923 144.279 67.0309 144.898 67.6694C144.911 67.6827 144.931 67.696 144.958 67.7093C144.459 68.268 144.02 68.8866 143.581 69.4853Z" fill="#CFE1EF"/>
<path d="M135.68 66.6925C135.76 66.892 136.019 66.9319 136.219 67.0118C136.392 67.0916 136.571 67.178 136.757 67.2712C137.103 67.4441 137.442 67.6437 137.775 67.8698C138.434 68.3088 139.032 68.8476 139.551 69.4263C139.77 69.6857 140.11 69.3265 139.91 69.0671C139.378 68.4019 138.766 67.8299 138.074 67.351C137.715 67.0982 137.349 66.8787 136.977 66.6925C136.791 66.5994 136.604 66.5129 136.418 66.4331C136.199 66.3333 135.999 66.2136 135.78 66.3333C135.62 66.3932 135.62 66.5728 135.68 66.6925Z" fill="#CFE1EF"/>
<path d="M134.842 68.0291C134.882 68.089 134.922 68.1289 135.001 68.1688C135.028 68.1954 135.061 68.2153 135.101 68.2286C135.154 68.2685 135.214 68.3018 135.281 68.3284C135.4 68.4082 135.527 68.4814 135.66 68.5479C135.899 68.7075 136.159 68.8472 136.418 68.9869C136.538 69.0468 136.678 69.0069 136.757 68.8871C136.817 68.7674 136.757 68.6477 136.658 68.5679C136.418 68.4082 136.179 68.2486 135.939 68.089C135.82 68.0091 135.7 67.9293 135.58 67.8495C135.527 67.8229 135.467 67.7896 135.4 67.7497C135.321 67.7098 135.241 67.63 135.161 67.63C135.041 67.61 134.942 67.63 134.862 67.7298C134.802 67.8096 134.782 67.9493 134.842 68.0291Z" fill="#CFE1EF"/>
<path d="M134.204 70.0239C134.463 70.2234 134.862 70.3032 135.162 70.4429C135.481 70.5626 135.787 70.7023 136.08 70.862C136.678 71.1546 137.257 71.4939 137.816 71.8796C138.953 72.6379 139.971 73.5359 140.889 74.5535C141.108 74.813 141.467 74.4338 141.248 74.1944C140.33 73.0969 139.292 72.139 138.115 71.3409C137.53 70.9285 136.918 70.5626 136.279 70.2434C135.973 70.097 135.667 69.9574 135.361 69.8243C135.042 69.6846 134.683 69.4851 134.344 69.4851C134.024 69.4651 133.984 69.8642 134.204 70.0239Z" fill="#CFE1EF"/>
<path fill-rule="evenodd" clip-rule="evenodd" d="M140.248 71.9223C140.547 72.4012 141.106 72.7005 141.685 72.6207C142.264 72.5609 142.762 72.1817 142.942 71.623C143.022 71.5631 143.062 71.4833 143.042 71.3835C142.902 70.725 142.523 70.1064 141.864 69.867C141.326 69.6874 140.727 69.847 140.368 70.306C139.989 70.7649 139.929 71.4035 140.248 71.9223ZM140.747 71.1241C140.747 71.1042 140.747 71.0842 140.747 71.0842C140.747 71.0643 140.747 71.0044 140.747 71.0244C140.76 70.9711 140.774 70.9179 140.787 70.8647C140.8 70.8381 140.814 70.8182 140.827 70.8049C140.853 70.7649 140.88 70.725 140.907 70.6851C140.907 70.6652 140.907 70.6652 140.927 70.6652C140.94 70.6519 140.953 70.6319 140.967 70.6053C141.046 70.5255 141.046 70.5255 141.146 70.4656C141.206 70.4457 141.186 70.4457 141.246 70.4257C141.266 70.4257 141.326 70.4058 141.346 70.4058C141.525 70.3858 141.725 70.4257 141.884 70.5255C142.164 70.6652 142.343 70.9246 142.463 71.2039C142.423 71.2172 142.39 71.2505 142.363 71.3037C142.35 71.3569 142.323 71.4035 142.284 71.4434L142.264 71.4833C142.237 71.5099 142.217 71.5299 142.204 71.5432C142.164 71.5831 142.124 71.623 142.084 71.6629C142.084 71.6629 142.064 71.6829 142.044 71.7028C142.024 71.7028 142.024 71.7228 142.024 71.7228C141.971 71.7494 141.924 71.776 141.884 71.8026C141.858 71.8159 141.831 71.8292 141.805 71.8425C141.791 71.8425 141.785 71.8425 141.785 71.8425C141.731 71.8558 141.678 71.8691 141.625 71.8824C141.612 71.8824 141.605 71.8824 141.605 71.8824C141.605 71.8824 141.598 71.8824 141.585 71.8824C141.572 71.8824 141.552 71.8824 141.525 71.8824C141.485 71.8824 141.452 71.8824 141.425 71.8824C141.425 71.8824 141.419 71.8824 141.406 71.8824C141.366 71.8691 141.326 71.8558 141.286 71.8425C141.286 71.8425 141.266 71.8425 141.246 71.8425C141.226 71.8425 141.226 71.8225 141.206 71.8225C141.166 71.8092 141.133 71.7893 141.106 71.7627C141.086 71.7627 141.046 71.7228 141.046 71.7228C141.026 71.7028 141.026 71.7028 141.006 71.7028C140.98 71.6629 140.953 71.6296 140.927 71.603C140.907 71.603 140.907 71.5831 140.887 71.5831C140.887 71.5631 140.867 71.5432 140.867 71.5432C140.84 71.5033 140.814 71.4634 140.787 71.4234C140.787 71.4101 140.787 71.4035 140.787 71.4035C140.787 71.4035 140.787 71.3968 140.787 71.3835C140.774 71.3702 140.767 71.3503 140.767 71.3237C140.754 71.3104 140.747 71.2904 140.747 71.2638C140.747 71.2638 140.747 71.2439 140.747 71.2239C140.747 71.2039 140.747 71.184 140.747 71.184C140.734 71.1574 140.734 71.1374 140.747 71.1241Z" fill="#CFE1EF"/>
<path d="M138.374 74.2952C138.614 74.5346 138.873 74.7342 139.133 74.9537C139.385 75.1665 139.645 75.3794 139.911 75.5922C140.031 75.692 140.19 75.692 140.31 75.5922C140.41 75.4925 140.41 75.2929 140.31 75.1931C139.791 74.7142 139.292 74.2353 138.734 73.8163C138.614 73.7365 138.434 73.7963 138.354 73.8961C138.255 74.0158 138.275 74.1954 138.374 74.2952Z" fill="#CFE1EF"/>
<path d="M132.368 72.6195C133.006 72.8989 133.645 73.1383 134.243 73.4576C134.829 73.7636 135.394 74.0961 135.939 74.4553C137.077 75.2136 138.114 76.0716 139.052 77.0295C139.292 77.2889 139.671 76.9097 139.431 76.6503C138.514 75.6326 137.456 74.6948 136.319 73.9166C135.733 73.5175 135.128 73.1516 134.503 72.8191C133.904 72.4998 133.285 72.1805 132.627 71.961C132.268 71.8413 132.008 72.4399 132.368 72.6195Z" fill="#CFE1EF"/>
</g>
<g opacity="0.5">
<path d="M47.2382 106.059L35.8242 89.5171L36.6623 86.8232C44.2051 89.557 53.3243 84.8278 53.3243 84.8278L64.0399 75.2695L75.9528 92.9892C68.2104 96.3814 62.4436 100.572 62.4436 100.572C56.3973 105.94 47.2382 106.059 47.2382 106.059Z" fill="#C4A2FF"/>
<path d="M52.7877 83.9095L61.5677 99.4541C61.5677 99.4541 54.7632 105.081 47.6195 103.605L36.9238 86.0048C46.6616 88.1399 46.7614 80.7168 52.7877 83.9095Z" fill="#F5F9FD"/>
<path d="M52.7854 83.9106C52.3663 78.922 61.5654 73.8535 61.5654 73.8535L73.4583 91.8924C73.4583 91.8924 66.2946 92.2117 61.5654 99.4552L52.7854 83.9106Z" fill="#F5F9FD"/>
<path fill-rule="evenodd" clip-rule="evenodd" d="M61.2448 99.6372L52.4648 84.0926L53.106 83.7305L61.886 99.275L61.2448 99.6372Z" fill="#C4A2FF"/>
<path fill-rule="evenodd" clip-rule="evenodd" d="M46.2412 89.8361C45.6958 90.1021 45.1504 90.3682 44.605 90.6343C44.3256 90.754 44.0662 90.8937 43.7868 91.0134C43.5673 91.1132 43.288 91.2329 43.0485 91.173C42.8091 91.1132 42.6494 90.9336 42.5297 90.7141C42.39 90.4746 42.2503 90.2152 42.1306 89.9558C41.8778 89.4769 41.6318 88.998 41.3923 88.5191C41.2127 88.4393 41.1728 88.1599 41.3324 88.0402C41.3923 87.9404 41.512 87.9005 41.6317 87.9205C42.6694 87.6012 43.727 87.3418 44.7447 86.9227C44.8444 86.8828 44.9641 86.9626 45.024 87.0425C45.5229 87.8007 45.9419 88.6189 46.361 89.417C46.4408 89.5567 46.4009 89.7762 46.2412 89.8361ZM45.6426 89.437C45.3034 88.7985 44.9442 88.1399 44.6648 87.4814C43.7469 87.7209 42.8689 88.0801 41.971 88.3794C42.1705 88.7519 42.3634 89.1244 42.5497 89.4969C42.6694 89.723 42.7891 89.9492 42.9088 90.1753C42.9687 90.295 43.0685 90.6143 43.2281 90.6542C43.3079 90.6542 43.4476 90.5744 43.5274 90.5345C43.6338 90.468 43.7469 90.4015 43.8667 90.335C44.0928 90.2285 44.319 90.1154 44.5451 89.9957C44.9176 89.8095 45.2834 89.6232 45.6426 89.437Z" fill="#CFE1EF"/>
<path d="M51.1899 85.1876C50.4316 84.9083 49.6933 85.2076 49.0149 85.5668C48.3564 85.9459 47.7178 86.3649 46.9596 86.5246C46.6802 86.5844 46.5804 86.1853 46.8398 86.1055C48.3564 85.7264 49.6534 84.0103 51.3496 84.5491C51.7486 84.6888 51.589 85.3073 51.1899 85.1876Z" fill="#CFE1EF"/>
<path d="M52.2071 86.5243C52.2071 86.7039 52.0474 86.8635 51.8479 86.8635C51.5286 86.8635 51.1894 86.8236 50.8502 86.8635C50.5508 86.9034 50.2316 86.9832 49.9323 87.083C49.3137 87.2626 48.735 87.5819 48.2361 88.0009C47.9767 88.2204 47.6175 87.8612 47.8769 87.6417C48.4157 87.1429 49.0343 86.7637 49.7128 86.5243C50.0586 86.3912 50.4112 86.2981 50.7704 86.2449C51.1295 86.205 51.5087 86.1451 51.8479 86.185C52.0474 86.205 52.2071 86.3247 52.2071 86.5243Z" fill="#CFE1EF"/>
<path d="M53.0646 89.2188C51.4483 89.3385 49.9916 90.0768 48.5947 90.8351C47.178 91.5734 45.7612 92.3716 44.1648 92.6909C43.8256 92.7507 43.6859 92.2718 44.0252 92.172C47.2378 91.3938 49.7122 88.7997 53.0646 88.4605C53.5435 88.4206 53.5435 89.1789 53.0646 89.2188Z" fill="#CFE1EF"/>
<path d="M48.3951 92.8897C48.1955 93.1092 47.9361 93.229 47.6568 93.3487C47.404 93.4551 47.1446 93.5482 46.8785 93.628C46.3464 93.7877 45.801 93.8741 45.2423 93.8874C45.0826 93.9074 44.9629 93.7677 44.9629 93.628C44.9629 93.4684 45.0826 93.3686 45.2423 93.3487C45.7411 93.2888 46.24 93.1691 46.7189 93.0294C46.945 92.9496 47.1712 92.8631 47.3973 92.77C47.6368 92.6503 47.8763 92.5106 48.1556 92.4507C48.3951 92.3909 48.5946 92.7101 48.3951 92.8897Z" fill="#CFE1EF"/>
<path fill-rule="evenodd" clip-rule="evenodd" d="M57.0362 95.3837C56.218 95.4835 55.3799 95.723 54.5818 95.9425C53.7836 96.1686 52.992 96.428 52.2072 96.7207C50.6307 97.3193 49.1142 98.0576 47.6775 98.9157C47.5179 99.0155 47.3183 98.9356 47.2185 98.776C46.7795 98.0776 46.3006 97.3991 45.9015 96.6608C45.7419 96.4014 45.9813 96.1819 46.2008 96.2019C46.1609 96.0821 46.2008 95.9225 46.3605 95.8626C47.3782 95.4635 48.3759 95.0046 49.3736 94.5057C50.225 94.08 51.0498 93.6011 51.848 93.069C52.6262 92.5502 53.4443 92.0114 54.4022 91.9715C56.0384 91.8917 56.9763 93.5679 57.3754 94.9447C57.4552 95.1842 57.2557 95.3638 57.0362 95.3837ZM56.5573 94.7851C56.3178 94.2064 56.0783 93.6277 55.6393 93.1887C54.3223 91.8917 52.5264 93.508 51.3491 94.2064C49.8126 95.1044 48.1764 95.8227 46.4802 96.3216C46.4669 96.3216 46.4603 96.3216 46.4603 96.3216C46.4736 96.3349 46.4802 96.3415 46.4802 96.3415C46.8993 96.9202 47.2584 97.5388 47.6376 98.1574C49.0344 97.3592 50.4911 96.6608 51.9877 96.1021C52.7858 95.7961 53.5973 95.5301 54.4221 95.3039C55.1205 95.1044 55.8389 94.9447 56.5573 94.7851Z" fill="#CFE1EF"/>
<path d="M57.1532 96.6206C56.4548 96.9399 55.6966 97.1594 54.9782 97.4188C54.2731 97.6849 53.5614 97.9443 52.843 98.197C51.393 98.7292 49.943 99.248 48.493 99.7535C48.1537 99.8732 48.0141 99.3145 48.3533 99.1948C49.7634 98.6493 51.1868 98.1106 52.6236 97.5784C53.3419 97.3257 54.0536 97.0663 54.7587 96.8002C55.4771 96.5408 56.1755 96.2215 56.9138 96.022C57.253 95.9222 57.4925 96.461 57.1532 96.6206Z" fill="#CFE1EF"/>
<path d="M53.0037 99.774C52.8441 100.053 52.425 100.173 52.1457 100.273C51.853 100.406 51.5603 100.519 51.2677 100.612C50.669 100.798 50.0571 100.938 49.4318 101.031C49.2722 101.051 49.1126 100.991 49.0727 100.812C49.0328 100.672 49.1126 100.472 49.2722 100.452C49.8709 100.346 50.4562 100.193 51.0282 99.9935C51.3076 99.8871 51.5736 99.774 51.8264 99.6543C51.9594 99.6011 52.0925 99.5412 52.2255 99.4747C52.3851 99.3949 52.5448 99.2951 52.7243 99.3151C52.9438 99.335 53.1234 99.5545 53.0037 99.774Z" fill="#CFE1EF"/>
<path d="M60.5476 77.6048C60.3081 77.8243 59.8891 77.944 59.5898 78.1036C59.2971 78.2499 59.0111 78.4096 58.7317 78.5825C58.1464 78.955 57.601 79.3741 57.0954 79.8397C56.0778 80.7975 55.2197 81.895 54.5812 83.1322C54.4215 83.4315 53.9626 83.1721 54.1023 82.8528C54.7408 81.5558 55.6188 80.3585 56.6764 79.3807C57.2152 78.8818 57.7939 78.4229 58.4125 78.0238C58.7051 77.8376 59.0044 77.6646 59.3104 77.505C59.6097 77.3453 59.9889 77.1059 60.3281 77.0859C60.5875 77.0859 60.7272 77.4252 60.5476 77.6048Z" fill="#CFE1EF"/>
<path d="M57.2342 81.8951C57.1345 82.1345 56.9549 82.3341 56.7952 82.5336C56.6356 82.7199 56.476 82.9061 56.3163 83.0924C55.9838 83.4782 55.6512 83.8639 55.3186 84.2497C55.2388 84.3495 55.0393 84.3295 54.9594 84.2497C54.8397 84.13 54.8597 83.9704 54.9594 83.8706C55.2654 83.4715 55.578 83.0791 55.8973 82.6933C56.0569 82.4937 56.2166 82.2942 56.3762 82.0946C56.5558 81.8951 56.7154 81.7155 56.915 81.5758C57.0147 81.516 57.1345 81.5359 57.1943 81.6157C57.2742 81.6756 57.2941 81.7953 57.2342 81.8951Z" fill="#CFE1EF"/>
<path fill-rule="evenodd" clip-rule="evenodd" d="M65.1162 83.0912C62.6618 84.4481 60.3471 86.0444 58.212 87.8403C58.0922 87.9601 57.8528 88 57.733 87.8403C57.1544 87.102 56.4959 86.3637 55.997 85.5855C55.8374 85.3261 56.0768 85.0667 56.3163 85.0667C56.3163 85.0534 56.3229 85.0334 56.3362 85.0068C56.875 84.1887 57.6133 83.4703 58.3716 82.8318C59.1099 82.2132 59.9081 81.6345 60.7462 81.1755C61.5843 80.7166 62.562 80.3175 63.4999 80.7166C64.318 81.0758 64.8169 81.8939 65.236 82.6322C65.3158 82.7918 65.2759 83.0113 65.1162 83.0912ZM58.0324 87.122C60.0478 85.4458 62.2029 83.9492 64.4976 82.6721C64.1784 82.1134 63.7992 81.5148 63.1806 81.2953C62.3425 80.956 61.4047 81.5347 60.7063 81.9338C59.948 82.3728 59.2429 82.8783 58.5911 83.4503C57.9126 84.029 57.334 84.6676 56.7154 85.3061C56.7021 85.3194 56.6821 85.3327 56.6555 85.346C57.1544 85.9048 57.5934 86.5233 58.0324 87.122Z" fill="#CFE1EF"/>
<path d="M65.9354 84.3292C65.8556 84.5288 65.5962 84.5687 65.3967 84.6485C65.2237 84.7283 65.0441 84.8148 64.8579 84.9079C64.512 85.0808 64.1728 85.2804 63.8402 85.5065C63.1817 85.9455 62.5831 86.4843 62.0643 87.063C61.8448 87.3224 61.5055 86.9632 61.7051 86.7038C62.2372 86.0386 62.8491 85.4666 63.5409 84.9877C63.9001 84.7349 64.2659 84.5155 64.6384 84.3292C64.8246 84.2361 65.0109 84.1496 65.1971 84.0698C65.4166 83.97 65.6162 83.8503 65.8357 83.97C65.9953 84.0299 65.9953 84.2095 65.9354 84.3292Z" fill="#CFE1EF"/>
<path d="M66.7735 85.6658C66.7336 85.7257 66.6937 85.7656 66.6139 85.8055C66.5873 85.8321 66.554 85.8521 66.5141 85.8654C66.4609 85.9053 66.401 85.9385 66.3345 85.9651C66.2148 86.0449 66.0884 86.1181 65.9554 86.1846C65.7159 86.3443 65.4565 86.4839 65.1971 86.6236C65.0774 86.6835 64.9377 86.6436 64.8579 86.5239C64.798 86.4041 64.8579 86.2844 64.9576 86.2046C65.1971 86.0449 65.4365 85.8853 65.676 85.7257C65.7957 85.6459 65.9155 85.566 66.0352 85.4862C66.0884 85.4596 66.1483 85.4264 66.2148 85.3864C66.2946 85.3465 66.3744 85.2667 66.4542 85.2667C66.574 85.2468 66.6737 85.2667 66.7535 85.3665C66.8134 85.4463 66.8334 85.586 66.7735 85.6658Z" fill="#CFE1EF"/>
<path d="M67.4113 87.6606C67.1519 87.8601 66.7528 87.9399 66.4535 88.0796C66.1342 88.1994 65.8282 88.339 65.5356 88.4987C64.9369 88.7913 64.3582 89.1306 63.7995 89.5164C62.6621 90.2746 61.6444 91.1726 60.7265 92.1903C60.507 92.4497 60.1478 92.0705 60.3673 91.8311C61.2852 90.7336 62.3229 89.7758 63.5002 88.9776C64.0855 88.5652 64.6975 88.1994 65.336 87.8801C65.642 87.7338 65.9479 87.5941 66.2539 87.461C66.5732 87.3214 66.9324 87.1218 67.2716 87.1218C67.5909 87.1019 67.6308 87.501 67.4113 87.6606Z" fill="#CFE1EF"/>
<path fill-rule="evenodd" clip-rule="evenodd" d="M61.3651 89.559C61.0658 90.0379 60.5071 90.3373 59.9284 90.2574C59.3497 90.1976 58.8509 89.8184 58.6713 89.2597C58.5914 89.1998 58.5515 89.12 58.5715 89.0203C58.7112 88.3618 59.0903 87.7432 59.7488 87.5037C60.2876 87.3241 60.8862 87.4838 61.2454 87.9427C61.6245 88.4017 61.6844 89.0402 61.3651 89.559ZM60.8663 88.7608C60.8663 88.7409 60.8663 88.7209 60.8663 88.7209C60.8663 88.701 60.8663 88.6411 60.8663 88.6611C60.853 88.6079 60.8397 88.5546 60.8264 88.5014C60.813 88.4748 60.7997 88.4549 60.7864 88.4416C60.7598 88.4017 60.7332 88.3618 60.7066 88.3218C60.7066 88.3019 60.7066 88.3019 60.6867 88.3019C60.6734 88.2886 60.6601 88.2686 60.6468 88.242C60.5669 88.1622 60.5669 88.1622 60.4672 88.1023C60.4073 88.0824 60.4273 88.0824 60.3674 88.0624C60.3474 88.0624 60.2876 88.0425 60.2676 88.0425C60.088 88.0225 59.8885 88.0624 59.7289 88.1622C59.4495 88.3019 59.2699 88.5613 59.1502 88.8407C59.1901 88.854 59.2233 88.8872 59.25 88.9404C59.2633 88.9936 59.2899 89.0402 59.3298 89.0801L59.3497 89.12C59.3763 89.1466 59.3963 89.1666 59.4096 89.1799C59.4495 89.2198 59.4894 89.2597 59.5293 89.2996C59.5293 89.2996 59.5493 89.3196 59.5692 89.3395C59.5892 89.3395 59.5892 89.3595 59.5892 89.3595C59.6424 89.3861 59.6889 89.4127 59.7289 89.4393C59.7555 89.4526 59.7821 89.4659 59.8087 89.4792C59.822 89.4792 59.8286 89.4792 59.8286 89.4792C59.8818 89.4925 59.935 89.5058 59.9883 89.5191C60.0016 89.5191 60.0082 89.5191 60.0082 89.5191C60.0082 89.5191 60.0149 89.5191 60.0282 89.5191C60.0415 89.5191 60.0614 89.5191 60.088 89.5191C60.1279 89.5191 60.1612 89.5191 60.1878 89.5191C60.1878 89.5191 60.1945 89.5191 60.2078 89.5191C60.2477 89.5058 60.2876 89.4925 60.3275 89.4792C60.3275 89.4792 60.3474 89.4792 60.3674 89.4792C60.3874 89.4792 60.3874 89.4593 60.4073 89.4593C60.4472 89.446 60.4805 89.426 60.5071 89.3994C60.527 89.3994 60.5669 89.3595 60.5669 89.3595C60.5869 89.3395 60.5869 89.3395 60.6069 89.3395C60.6335 89.2996 60.6601 89.2664 60.6867 89.2398C60.7066 89.2398 60.7066 89.2198 60.7266 89.2198C60.7266 89.1998 60.7465 89.1799 60.7465 89.1799C60.7731 89.14 60.7997 89.1001 60.8264 89.0602C60.8264 89.0469 60.8264 89.0402 60.8264 89.0402C60.8264 89.0402 60.8264 89.0336 60.8264 89.0203C60.8397 89.0069 60.8463 88.987 60.8463 88.9604C60.8596 88.9471 60.8663 88.9271 60.8663 88.9005C60.8663 88.9005 60.8663 88.8806 60.8663 88.8606C60.8663 88.8407 60.8663 88.8207 60.8663 88.8207C60.8796 88.7941 60.8796 88.7741 60.8663 88.7608Z" fill="#CFE1EF"/>
<path d="M63.2409 91.9319C63.0014 92.1714 62.742 92.3709 62.4826 92.5904C62.2299 92.8033 61.9704 93.0161 61.7044 93.229C61.5847 93.3287 61.425 93.3287 61.3053 93.229C61.2055 93.1292 61.2055 92.9296 61.3053 92.8299C61.8241 92.351 62.323 91.872 62.8817 91.453C63.0014 91.3732 63.181 91.433 63.2608 91.5328C63.3606 91.6525 63.3407 91.8321 63.2409 91.9319Z" fill="#CFE1EF"/>
<path d="M69.2477 90.2562C68.6091 90.5356 67.9706 90.775 67.3719 91.0943C66.7866 91.4003 66.2212 91.7329 65.6758 92.092C64.5384 92.8503 63.5007 93.7084 62.5629 94.6662C62.3234 94.9256 61.9443 94.5465 62.1837 94.287C63.1017 93.2694 64.1592 92.3315 65.2967 91.5533C65.882 91.1542 66.4873 90.7884 67.1125 90.4558C67.7112 90.1365 68.3297 89.8172 68.9882 89.5977C69.3474 89.478 69.6068 90.0766 69.2477 90.2562Z" fill="#CFE1EF"/>
</g>
<path d="M112.722 48.0547H93.6574C88.5933 48.0547 84.4883 52.1598 84.4883 57.2238V65.1255H89.9064V57.2238C89.9064 55.1522 91.5858 53.4728 93.6574 53.4728H112.722C114.794 53.4728 116.473 55.1522 116.473 57.2238V65.1255H121.891V57.2238C121.891 52.1598 117.786 48.0547 112.722 48.0547Z" fill="#6A50BC"/>
<path opacity="0.5" d="M84.5195 57.9883H90.0767V60.6973H84.5195V57.9883ZM116.334 57.9883H121.891V60.6973H116.334V57.9883Z" fill="#BDB1E4"/>
<path opacity="0.46" d="M112.722 48.0547H93.6574C88.5933 48.0547 84.4883 52.1597 84.4883 57.2238V59.1687C84.4883 54.1047 88.5933 49.9996 93.6574 49.9996H112.722C117.786 49.9996 121.891 54.1047 121.891 59.1687V57.2238C121.891 52.1597 117.786 48.0547 112.722 48.0547Z" fill="#543BA3"/>
<path fill-rule="evenodd" clip-rule="evenodd" d="M74.915 138.28H75.3541C77.2521 123.234 76.1295 111.983 73.1168 103.655C71.7652 99.9196 66.4452 99.9196 65.0938 103.655C64.5455 105.171 64.0598 106.783 63.6436 108.497C63.3959 109.146 63.1235 109.851 62.8326 110.604C59.6356 118.878 54.2083 132.922 54.8396 142.592C55.0427 145.703 60.6869 145.062 65.261 144.542C66.7992 144.367 68.2164 144.206 69.265 144.206L74.5633 141.357C74.6949 140.313 74.812 139.288 74.915 138.28Z" fill="url(#paint2_linear_8066_65547)"/>
<path opacity="0.2" d="M139.391 125.763L139.981 101.814C137.876 100.086 134.317 100.699 133.247 103.657C130.234 111.985 129.111 123.236 131.009 138.282H136.307C139.309 138.282 141.952 136.609 143.297 134.119C140.848 132.169 139.308 129.135 139.391 125.763Z" fill="#0B7C3E"/>
<path fill-rule="evenodd" clip-rule="evenodd" d="M131.872 138.28H131.433C129.535 123.234 130.658 111.983 133.67 103.655C135.022 99.9196 140.342 99.9196 141.693 103.655C142.242 105.171 142.727 106.783 143.144 108.497C143.391 109.146 143.664 109.851 143.955 110.604C147.152 118.878 152.579 132.922 151.947 142.592C151.744 145.703 146.1 145.062 141.526 144.542C139.988 144.367 138.571 144.206 137.522 144.206L132.224 141.357C132.092 140.313 131.975 139.288 131.872 138.28Z" fill="url(#paint3_linear_8066_65547)"/>
<path d="M125.945 149.537H80.4338C75.4323 149.537 71.2683 145.721 70.8044 140.741C69.2527 124.083 69.2527 107.317 70.8044 90.6592C71.2683 85.6793 75.4323 81.8633 80.4338 81.8633H125.945C130.947 81.8633 135.111 85.6793 135.575 90.6592C137.126 107.317 137.126 124.083 135.575 140.741C135.111 145.721 130.947 149.537 125.945 149.537Z" fill="url(#paint4_linear_8066_65547)"/>
<path opacity="0.29" d="M135.576 137.843C135.112 142.823 130.948 146.639 125.947 146.639H80.4354C75.4338 146.639 71.2698 142.823 70.8059 137.843C70.0768 130 69.6913 122.129 69.6506 114.252C69.6016 123.096 69.9872 131.937 70.8059 140.743C71.2698 145.723 75.4338 149.539 80.4354 149.539H125.947C130.948 149.539 135.112 145.723 135.576 140.743C136.395 131.937 136.781 123.096 136.731 114.252C136.691 122.129 136.305 130 135.576 137.843Z" fill="#A898DA"/>
<path opacity="0.5" d="M76.8161 116.521C85.558 116.972 94.4313 117.201 103.19 117.201C111.948 117.201 120.821 116.972 129.563 116.521C132.249 116.382 134.707 115.351 136.723 113.687C136.651 106.207 136.268 98.7326 135.575 91.2842C135.111 86.3043 130.947 82.4883 125.946 82.4883H80.4342C75.4326 82.4883 71.2686 86.3043 70.8047 91.2842C70.1116 98.7326 69.7285 106.207 69.6562 113.687C71.6728 115.351 74.1306 116.382 76.8161 116.521Z" fill="#B7AAE1"/>
<path d="M129.456 113.815C111.957 114.718 94.4227 114.718 76.9235 113.815C70.8735 113.503 66.2731 107.803 66.3306 100.83C66.4098 91.2543 66.7657 81.8888 67.3926 72.6793C67.8339 66.1934 72.5871 61.0239 78.3313 60.744C94.8937 59.9369 111.486 59.9369 128.048 60.744C133.792 61.0239 138.545 66.1934 138.987 72.6793C139.613 81.8888 139.969 91.2543 140.049 100.83C140.106 107.803 135.506 113.503 129.456 113.815Z" fill="url(#paint5_linear_8066_65547)"/>
<path d="M122.03 99.4222C121.997 99.3895 122.522 99.4542 123.275 99.0925C123.668 98.8953 124.093 98.5341 124.42 97.9765C124.551 97.7142 124.681 97.3863 124.746 97.0257C124.778 96.698 124.745 96.272 124.744 95.8788C124.739 92.5364 124.698 87.7523 124.689 81.854C124.686 80.3684 124.673 78.8174 124.648 77.2009C124.647 76.4144 124.285 75.6613 123.662 75.1381C123.334 74.9092 122.973 74.7132 122.58 74.6483C122.186 74.5506 121.761 74.5841 121.302 74.5848C117.828 74.5904 114.125 74.5965 110.193 74.6028C102.362 74.6155 93.7435 74.6295 84.7321 74.6441C83.6508 74.6459 82.6361 75.3684 82.2773 76.3521C82.0487 76.844 82.0823 77.3682 82.0832 77.9253C82.0841 78.4714 82.085 79.0285 82.0859 79.5965C82.0894 81.781 82.093 83.9437 82.0964 86.0846C82.0999 88.2255 82.1033 90.3117 82.1066 92.3434C82.1082 93.3701 82.1099 94.386 82.1115 95.3909C82.1123 95.8824 82.0804 96.4067 82.114 96.8982C82.1475 97.3569 82.3121 97.8154 82.5748 98.1754C83.1004 98.961 84.0186 99.3855 84.936 99.3185C85.8972 99.317 86.8366 99.3154 87.7541 99.3139C89.611 99.3328 91.4133 99.3408 93.1609 99.3379C96.6344 99.3323 99.8785 99.3271 102.86 99.3222C108.759 99.3454 113.543 99.3704 116.885 99.365C118.524 99.3624 119.802 99.3931 120.687 99.3916C121.124 99.3909 121.451 99.3904 121.67 99.39C121.823 99.4116 121.943 99.4224 122.03 99.4222C121.943 99.4224 121.823 99.4335 121.67 99.4556C121.451 99.4559 121.124 99.4565 120.687 99.4572C119.802 99.4586 118.524 99.4934 116.886 99.4961C113.543 99.5015 108.759 99.542 102.861 99.5844C99.8789 99.5892 96.6348 99.5945 93.1613 99.6001C91.4137 99.6029 89.6114 99.6168 87.7546 99.6416C86.8371 99.6431 85.8977 99.6446 84.9365 99.6462C83.9536 99.7133 82.9042 99.2235 82.313 98.3725C82.0174 97.947 81.8199 97.423 81.7863 96.8987C81.7854 96.3744 81.7847 95.9157 81.7838 95.3914C81.7822 94.3865 81.7806 93.3707 81.7789 92.3439C81.7756 90.3123 81.7722 88.226 81.7687 86.0851C81.7653 83.9443 81.7618 81.7816 81.7582 79.597C81.7573 79.029 81.7564 78.4719 81.7555 77.9258C81.7547 77.4015 81.7209 76.7789 81.9494 76.2215C82.3735 75.1067 83.5191 74.2856 84.7316 74.3164C93.7429 74.3018 102.361 74.2878 110.193 74.2751C114.125 74.3015 117.828 74.2955 121.301 74.2899C121.727 74.2892 122.186 74.2557 122.645 74.3533C123.071 74.4509 123.497 74.6796 123.826 74.9412C124.515 75.4971 124.909 76.3485 124.911 77.2005C124.913 78.817 124.916 80.3681 124.918 81.8536C124.895 87.752 124.903 92.5362 124.875 95.8786C124.876 96.2718 124.909 96.665 124.844 97.0583C124.779 97.4189 124.649 97.7468 124.486 98.042C124.159 98.5996 123.701 98.9607 123.308 99.1252C122.915 99.3225 122.587 99.3885 122.358 99.4217C122.205 99.4219 122.096 99.4221 122.03 99.4222Z" fill="white"/>
<path d="M88.5933 93.3448C89.2629 93.3437 89.8049 92.8 89.8038 92.1304C89.8027 91.4608 89.259 90.9188 88.5894 90.9199C87.9198 90.921 87.3778 91.4647 87.3789 92.1343C87.38 92.8039 87.9237 93.3459 88.5933 93.3448Z" fill="white"/>
<path fill-rule="evenodd" clip-rule="evenodd" d="M88.5925 92.8633C88.9962 92.8626 89.323 92.5348 89.3223 92.1312C89.3216 91.7275 88.9939 91.4007 88.5902 91.4014C88.1865 91.402 87.8597 91.7298 87.8604 92.1335C87.8611 92.5372 88.1888 92.8639 88.5925 92.8633ZM89.8038 92.1304C89.8049 92.8 89.2629 93.3437 88.5933 93.3448C87.9237 93.3459 87.38 92.8039 87.3789 92.1343C87.3778 91.4647 87.9198 90.921 88.5894 90.9199C89.259 90.9188 89.8027 91.4608 89.8038 92.1304Z" fill="white"/>
<path d="M92.7203 93.3428C93.3899 93.3417 93.9318 92.798 93.9307 92.1284C93.9297 91.4588 93.386 90.9169 92.7163 90.918C92.0467 90.919 91.5048 91.4627 91.5059 92.1323C91.507 92.802 92.0507 93.3439 92.7203 93.3428Z" fill="white"/>
<path fill-rule="evenodd" clip-rule="evenodd" d="M92.7195 92.8613C93.1232 92.8607 93.4499 92.5329 93.4493 92.1292C93.4486 91.7255 93.1208 91.3988 92.7171 91.3994C92.3134 91.4001 91.9867 91.7279 91.9874 92.1316C91.988 92.5353 92.3158 92.862 92.7195 92.8613ZM93.9307 92.1284C93.9318 92.798 93.3899 93.3417 92.7203 93.3428C92.0507 93.3439 91.507 92.802 91.5059 92.1323C91.5048 91.4627 92.0467 90.919 92.7163 90.918C93.386 90.9169 93.9297 91.4588 93.9307 92.1284Z" fill="white"/>
<path d="M96.7203 93.3331C97.3899 93.332 97.9318 92.7883 97.9307 92.1187C97.9297 91.449 97.3859 90.9071 96.7163 90.9082C96.0467 90.9093 95.5048 91.453 95.5059 92.1226C95.507 92.7922 96.0507 93.3341 96.7203 93.3331Z" fill="white"/>
<path fill-rule="evenodd" clip-rule="evenodd" d="M96.7195 92.8516C97.1232 92.8509 97.4499 92.5231 97.4493 92.1194C97.4486 91.7157 97.1208 91.389 96.7171 91.3897C96.3134 91.3903 95.9867 91.7181 95.9874 92.1218C95.988 92.5255 96.3158 92.8522 96.7195 92.8516ZM97.9307 92.1187C97.9318 92.7883 97.3899 93.332 96.7203 93.3331C96.0507 93.3341 95.507 92.7922 95.5059 92.1226C95.5048 91.453 96.0467 90.9093 96.7163 90.9082C97.3859 90.9071 97.9297 91.449 97.9307 92.1187Z" fill="white"/>
<path d="M100.683 93.3292C101.353 93.3281 101.895 92.7844 101.894 92.1147C101.893 91.4451 101.349 90.9032 100.679 90.9043C100.01 90.9054 99.4677 91.4491 99.4688 92.1187C99.4698 92.7883 100.014 93.3302 100.683 93.3292Z" fill="white"/>
<path fill-rule="evenodd" clip-rule="evenodd" d="M100.682 92.8477C101.086 92.847 101.413 92.5192 101.412 92.1155C101.411 91.7118 101.084 91.3851 100.68 91.3858C100.276 91.3864 99.9496 91.7142 99.9502 92.1179C99.9509 92.5216 100.279 92.8483 100.682 92.8477ZM101.894 92.1147C101.895 92.7844 101.353 93.3281 100.683 93.3292C100.014 93.3302 99.4698 92.7883 99.4688 92.1187C99.4677 91.4491 100.01 90.9054 100.679 90.9043C101.349 90.9032 101.893 91.4451 101.894 92.1147Z" fill="white"/>
<path d="M100.127 84.4611L89.1496 84.4789C88.3632 84.4802 87.7068 83.8587 87.7055 83.0395C87.7042 82.253 88.3585 81.5966 89.1449 81.5953L100.122 81.5775C100.909 81.5762 101.565 82.2306 101.567 83.017C101.568 83.8362 100.913 84.4599 100.127 84.4611Z" fill="white"/>
<path fill-rule="evenodd" clip-rule="evenodd" d="M89.1488 83.9975L100.126 83.9797C100.654 83.9788 101.086 83.5639 101.085 83.0178C101.084 82.4973 100.644 82.0582 100.123 82.059L89.1457 82.0768C88.6252 82.0776 88.1861 82.5182 88.1869 83.0387C88.1878 83.5849 88.6211 83.9983 89.1488 83.9975ZM89.1496 84.4789L100.127 84.4611C100.913 84.4599 101.568 83.8362 101.567 83.017C101.565 82.2306 100.909 81.5762 100.122 81.5775L89.1449 81.5953C88.3585 81.5966 87.7042 82.253 87.7055 83.0395C87.7068 83.8587 88.3632 84.4802 89.1496 84.4789Z" fill="white"/>
<path d="M88.816 88.7725C89.4856 88.7714 90.0275 88.2277 90.0264 87.5581C90.0254 86.8885 89.4816 86.3466 88.812 86.3476C88.1424 86.3487 87.6005 86.8924 87.6016 87.562C87.6027 88.2316 88.1464 88.7736 88.816 88.7725Z" fill="white"/>
<path fill-rule="evenodd" clip-rule="evenodd" d="M88.8152 88.291C89.2189 88.2904 89.5456 87.9626 89.545 87.5589C89.5443 87.1552 89.2165 86.8285 88.8128 86.8291C88.4091 86.8298 88.0824 87.1576 88.0831 87.5613C88.0837 87.965 88.4115 88.2917 88.8152 88.291ZM90.0264 87.5581C90.0275 88.2277 89.4856 88.7714 88.816 88.7725C88.1464 88.7736 87.6027 88.2316 87.6016 87.562C87.6005 86.8924 88.1424 86.3487 88.812 86.3476C89.4816 86.3466 90.0254 86.8885 90.0264 87.5581Z" fill="white"/>
<path d="M92.9175 88.7667C93.5871 88.7656 94.1291 88.2219 94.128 87.5522C94.1269 86.8826 93.5832 86.3407 92.9136 86.3418C92.244 86.3429 91.7021 86.8866 91.7031 87.5562C91.7042 88.2258 92.2479 88.7677 92.9175 88.7667Z" fill="white"/>
<path fill-rule="evenodd" clip-rule="evenodd" d="M92.9168 88.2852C93.3204 88.2845 93.6472 87.9567 93.6465 87.553C93.6459 87.1493 93.3181 86.8226 92.9144 86.8233C92.5107 86.8239 92.184 87.1517 92.1846 87.5554C92.1853 87.9591 92.5131 88.2858 92.9168 88.2852ZM94.128 87.5522C94.1291 88.2219 93.5871 88.7656 92.9175 88.7667C92.2479 88.7677 91.7042 88.2258 91.7031 87.5562C91.7021 86.8866 92.244 86.3429 92.9136 86.3418C93.5832 86.3407 94.1269 86.8826 94.128 87.5522Z" fill="white"/>
<path d="M96.9117 88.7549C97.5813 88.7538 98.1232 88.2101 98.1222 87.5405C98.1211 86.8709 97.5774 86.329 96.9078 86.3301C96.2381 86.3312 95.6962 86.8749 95.6973 87.5445C95.6984 88.2141 96.2421 88.756 96.9117 88.7549Z" fill="white"/>
<path fill-rule="evenodd" clip-rule="evenodd" d="M96.9109 88.2734C97.3146 88.2728 97.6413 87.945 97.6407 87.5413C97.64 87.1376 97.3122 86.8109 96.9085 86.8116C96.5048 86.8122 96.1781 87.14 96.1788 87.5437C96.1794 87.9474 96.5072 88.2741 96.9109 88.2734ZM98.1222 87.5405C98.1232 88.2101 97.5813 88.7538 96.9117 88.7549C96.2421 88.756 95.6984 88.2141 95.6973 87.5445C95.6962 86.8749 96.2381 86.3312 96.9078 86.3301C97.5774 86.329 98.1211 86.8709 98.1222 87.5405Z" fill="white"/>
<path d="M100.916 88.7491C101.585 88.748 102.127 88.2043 102.126 87.5347C102.125 86.8651 101.581 86.3231 100.912 86.3242C100.242 86.3253 99.7001 86.869 99.7012 87.5386C99.7023 88.2082 100.246 88.7502 100.916 88.7491Z" fill="white"/>
<path fill-rule="evenodd" clip-rule="evenodd" d="M100.915 88.2676C101.318 88.2669 101.645 87.9391 101.645 87.5354C101.644 87.1318 101.316 86.805 100.912 86.8057C100.509 86.8063 100.182 87.1341 100.183 87.5378C100.183 87.9415 100.511 88.2682 100.915 88.2676ZM102.126 87.5347C102.127 88.2043 101.585 88.748 100.916 88.7491C100.246 88.7502 99.7023 88.2082 99.7012 87.5386C99.7001 86.869 100.242 86.3253 100.912 86.3242C101.581 86.3231 102.125 86.8651 102.126 87.5347Z" fill="white"/>
<path d="M117.639 80.5812L110.954 80.592C110.357 80.593 109.874 81.0779 109.875 81.6751L109.886 88.3599C109.887 88.9571 110.372 89.4405 110.969 89.4395L117.654 89.4286C118.251 89.4277 118.734 88.9428 118.733 88.3455L118.722 81.6608C118.721 81.0636 118.236 80.5802 117.639 80.5812Z" fill="white"/>
<path fill-rule="evenodd" clip-rule="evenodd" d="M117.64 81.0626L110.955 81.0735C110.624 81.074 110.356 81.343 110.356 81.6743L110.367 88.3591C110.368 88.6904 110.637 88.9585 110.968 88.958L117.653 88.9472C117.984 88.9466 118.252 88.6776 118.252 88.3463L118.241 81.6616C118.24 81.3302 117.971 81.0621 117.64 81.0626ZM110.954 80.592L117.639 80.5812C118.236 80.5802 118.721 81.0636 118.722 81.6608L118.733 88.3455C118.734 88.9428 118.251 89.4277 117.654 89.4286L110.969 89.4395C110.372 89.4405 109.887 88.9571 109.886 88.3599L109.875 81.6751C109.874 81.0779 110.357 80.593 110.954 80.592Z" fill="white"/>
<path d="M118.249 93.6343L110.417 93.647C109.729 93.6481 109.171 93.092 109.17 92.4366C109.169 91.7485 109.725 91.1905 110.413 91.1894L118.245 91.1767C118.933 91.1756 119.491 91.7317 119.492 92.4199C119.493 93.0752 118.937 93.6332 118.249 93.6343Z" fill="white"/>
<path fill-rule="evenodd" clip-rule="evenodd" d="M110.416 93.1655L118.248 93.1528C118.679 93.1521 119.011 92.8018 119.011 92.4206C119.01 91.9984 118.668 91.6575 118.246 91.6582L110.414 91.6709C109.992 91.6716 109.651 92.0136 109.651 92.4358C109.652 92.817 109.986 93.1662 110.416 93.1655ZM110.417 93.647L118.249 93.6343C118.937 93.6332 119.493 93.0752 119.492 92.4199C119.491 91.7317 118.933 91.1756 118.245 91.1767L110.413 91.1894C109.725 91.1905 109.169 91.7485 109.17 92.4366C109.171 93.092 109.729 93.6481 110.417 93.647Z" fill="white"/>
<path opacity="0.41" d="M129.456 111.941C111.957 112.844 94.4227 112.844 76.9235 111.941C71.1023 111.641 66.6253 106.351 66.346 99.7402C66.3412 100.174 66.3342 100.605 66.3306 101.04C66.2731 108.013 70.8735 113.713 76.9235 114.025C94.4227 114.928 111.957 114.928 129.456 114.025C135.506 113.713 140.106 108.012 140.049 101.04C140.045 100.605 140.038 100.174 140.033 99.7402C139.754 106.351 135.277 111.641 129.456 111.941Z" fill="#8373B6"/>
<path opacity="0.65" d="M67.7131 102.56C67.7891 93.0791 68.1319 83.8064 68.7352 74.6881C69.1601 68.2666 73.7349 63.1481 79.2637 62.8712C95.2042 62.072 111.175 62.072 127.115 62.8712C132.644 63.1481 137.219 68.2666 137.644 74.6881C138.247 83.8064 138.59 93.0791 138.666 102.56C138.686 105.003 138.142 107.286 137.175 109.233C138.993 106.915 140.077 103.817 140.049 100.414C139.969 90.8383 139.613 81.4728 138.987 72.2633C138.545 65.7774 133.792 60.6078 128.048 60.328C111.486 59.5209 94.8937 59.5209 78.3313 60.328C72.5869 60.6078 67.8339 65.7774 67.3926 72.2633C66.7657 81.4728 66.4096 90.8383 66.3306 100.414C66.3025 103.817 67.3861 106.915 69.2041 109.233C68.2374 107.286 67.6935 105.003 67.7131 102.56Z" fill="#B2A4DD"/>
<path d="M156.119 100.929L155.634 101.053L155.386 100.084L155.871 99.9601L156.119 100.929ZM170.582 102.215L171.018 102.461L171.014 102.467L171.01 102.473L170.582 102.215ZM158.088 99.4142C158.357 99.3509 158.626 99.5175 158.689 99.7863C158.752 100.055 158.586 100.324 158.317 100.388L158.088 99.4142ZM162.746 99.4751C162.474 99.5213 162.216 99.338 162.169 99.0658C162.123 98.7935 162.306 98.5354 162.579 98.4892L162.746 99.4751ZM167.182 98.0062C167.458 98.003 167.684 98.2242 167.688 98.5003C167.691 98.7764 167.47 99.0029 167.194 99.0061L167.182 98.0062ZM170.644 100.162C170.584 99.893 170.753 99.6255 171.022 99.565C171.292 99.5045 171.559 99.6739 171.62 99.9433L170.644 100.162ZM169.872 104.118C169.697 104.332 169.382 104.364 169.168 104.19C168.954 104.015 168.922 103.7 169.096 103.486L169.872 104.118ZM166.573 104.763C166.798 104.923 166.85 105.235 166.689 105.46C166.528 105.685 166.216 105.737 165.991 105.576L166.573 104.763ZM164.767 101.566C164.796 101.291 165.042 101.092 165.317 101.121C165.592 101.15 165.791 101.396 165.762 101.671L164.767 101.566ZM167.14 98.5062C166.949 98.705 166.632 98.7109 166.433 98.5193C166.234 98.3277 166.229 98.0112 166.42 97.8123L167.14 98.5062ZM169.933 95.9411C170.189 95.8372 170.48 95.9604 170.584 96.2163C170.688 96.4721 170.565 96.7638 170.309 96.8676L169.933 95.9411ZM173.795 95.4438C173.539 95.5458 173.248 95.4204 173.146 95.1638C173.044 94.9072 173.169 94.6165 173.426 94.5145L173.795 95.4438ZM177.024 93.2454C177.289 93.1678 177.567 93.3198 177.644 93.5849C177.722 93.8499 177.57 94.1276 177.305 94.2051L177.024 93.2454ZM180.912 93.4447C180.639 93.4796 180.388 93.2859 180.353 93.012C180.318 92.7381 180.512 92.4877 180.786 92.4527L180.912 93.4447ZM155.871 99.9601C156.557 99.7846 157.304 99.5987 158.088 99.4142L158.317 100.388C157.541 100.57 156.8 100.755 156.119 100.929L155.871 99.9601ZM162.579 98.4892C164.201 98.2141 165.8 98.0223 167.182 98.0062L167.194 99.0061C165.886 99.0214 164.344 99.2041 162.746 99.4751L162.579 98.4892ZM171.62 99.9433C171.782 100.666 171.554 101.51 171.018 102.461L170.147 101.969C170.637 101.101 170.726 100.527 170.644 100.162L171.62 99.9433ZM171.01 102.473C170.619 103.121 170.239 103.666 169.872 104.118L169.096 103.486C169.429 103.078 169.782 102.572 170.154 101.956L171.01 102.473ZM165.991 105.576C165.467 105.201 165.125 104.577 164.933 103.892C164.738 103.198 164.681 102.387 164.767 101.566L165.762 101.671C165.686 102.385 165.74 103.066 165.896 103.622C166.054 104.186 166.303 104.569 166.573 104.763L165.991 105.576ZM166.42 97.8123C166.898 97.3163 167.485 96.9063 168.187 96.6345L168.548 97.5671C167.99 97.7831 167.524 98.1081 167.14 98.5062L166.42 97.8123ZM168.187 96.6345C168.793 96.4 169.373 96.1683 169.933 95.9411L170.309 96.8676C169.746 97.0962 169.161 97.3301 168.548 97.5671L168.187 96.6345ZM173.426 94.5145C174.637 94.0332 175.81 93.6003 177.024 93.2454L177.305 94.2051C176.134 94.5476 174.993 94.9678 173.795 95.4438L173.426 94.5145ZM180.786 92.4527C181.399 92.3744 182.035 92.3173 182.702 92.2837L182.752 93.2824C182.111 93.3148 181.5 93.3696 180.912 93.4447L180.786 92.4527Z" fill="url(#paint6_linear_8066_65547)"/>
<path d="M57.7762 136.244L58.1892 136.526L57.6255 137.352L57.2125 137.07L57.7762 136.244ZM44.8501 118.204L44.7471 117.714L44.7542 117.713L44.7614 117.711L44.8501 118.204ZM41.232 125.877L41.4629 125.433L41.232 125.877ZM55.3104 135.755C55.0842 135.597 55.0292 135.285 55.1876 135.059C55.346 134.833 55.6578 134.778 55.884 134.936L55.3104 135.755ZM52.1537 132.236C52.3744 132.402 52.4189 132.716 52.253 132.937C52.0871 133.157 51.7737 133.202 51.5529 133.036L52.1537 132.236ZM47.9062 130.155C47.6945 129.978 47.6666 129.662 47.8439 129.451C48.0212 129.239 48.3365 129.211 48.5482 129.388L47.9062 130.155ZM45.1746 126.305C45.3678 126.503 45.3644 126.819 45.167 127.013C44.9697 127.206 44.6531 127.202 44.4599 127.005L45.1746 126.305ZM41.5421 123.254C41.4145 123.009 41.5095 122.707 41.7543 122.579C41.9992 122.452 42.3012 122.547 42.4288 122.791L41.5421 123.254ZM42.9443 119.414C42.7086 119.558 42.4009 119.483 42.2571 119.248C42.1133 119.012 42.1878 118.704 42.4235 118.56L42.9443 119.414ZM46.7522 117.431C47.027 117.405 47.2712 117.606 47.2976 117.881C47.3239 118.156 47.1224 118.4 46.8475 118.427L46.7522 117.431ZM50.5103 118.638C50.2472 118.554 50.1019 118.273 50.1858 118.009C50.2697 117.746 50.551 117.601 50.8141 117.685L50.5103 118.638ZM52.9528 121.237C52.8855 121.504 52.6137 121.667 52.3459 121.599C52.0781 121.532 51.9157 121.26 51.9831 120.993L52.9528 121.237ZM49.9558 123.902C50.1644 123.721 50.4802 123.744 50.6611 123.952C50.8419 124.161 50.8194 124.477 50.6107 124.658L49.9558 123.902ZM47.0739 126.68C46.8118 126.767 46.5289 126.625 46.442 126.363C46.355 126.101 46.497 125.818 46.7591 125.731L47.0739 126.68ZM43.1633 126.023C43.4346 126.075 43.6129 126.336 43.5616 126.608C43.5102 126.879 43.2486 127.057 42.9773 127.006L43.1633 126.023ZM39.3023 125.449C39.0559 125.325 38.9572 125.024 39.0818 124.778C39.2064 124.531 39.5072 124.432 39.7536 124.557L39.3023 125.449ZM36.3237 122.851C36.5713 122.974 36.6729 123.273 36.5507 123.521C36.4284 123.769 36.1285 123.87 35.881 123.748L36.3237 122.851ZM32.4539 122.023C32.209 121.896 32.1138 121.594 32.2413 121.349C32.3689 121.104 32.6708 121.009 32.9157 121.136L32.4539 122.023ZM29.6009 119.291C29.8373 119.434 29.9133 119.741 29.7707 119.978C29.628 120.214 29.3207 120.29 29.0843 120.148L29.6009 119.291ZM25.865 117.993C25.6437 117.828 25.598 117.515 25.7631 117.294C25.9281 117.072 26.2414 117.027 26.4628 117.192L25.865 117.993ZM23.568 114.778C23.7703 114.966 23.7819 115.282 23.5939 115.485C23.4059 115.687 23.0895 115.699 22.8872 115.511L23.568 114.778ZM57.2125 137.07C56.6081 136.657 55.97 136.217 55.3104 135.755L55.884 134.936C56.5398 135.396 57.1745 135.833 57.7762 136.244L57.2125 137.07ZM51.5529 133.036C50.3143 132.105 49.0761 131.135 47.9062 130.155L48.5482 129.388C49.7016 130.354 50.9255 131.314 52.1537 132.236L51.5529 133.036ZM44.4599 127.005C43.1964 125.714 42.1598 124.438 41.5421 123.254L42.4288 122.791C42.9801 123.849 43.9382 125.042 45.1746 126.305L44.4599 127.005ZM42.4235 118.56C43.0209 118.196 43.7938 117.915 44.7471 117.714L44.9532 118.693C44.07 118.879 43.4143 119.127 42.9443 119.414L42.4235 118.56ZM44.7614 117.711C45.4777 117.582 46.1404 117.49 46.7522 117.431L46.8475 118.427C46.2665 118.482 45.6313 118.571 44.9389 118.696L44.7614 117.711ZM50.8141 117.685C51.7276 117.976 52.3808 118.46 52.7434 119.112C53.1055 119.763 53.1365 120.507 52.9528 121.237L51.9831 120.993C52.1219 120.441 52.0774 119.972 51.8696 119.598C51.6624 119.226 51.2515 118.874 50.5103 118.638L50.8141 117.685ZM50.6107 124.658C49.6266 125.51 48.406 126.238 47.0739 126.68L46.7591 125.731C47.9573 125.333 49.0639 124.675 49.9558 123.902L50.6107 124.658ZM42.9773 127.006C42.3098 126.88 41.6463 126.656 41.0011 126.32L41.4629 125.433C42.0191 125.723 42.5893 125.915 43.1633 126.023L42.9773 127.006ZM41.0011 126.32C40.4223 126.019 39.8564 125.73 39.3023 125.449L39.7536 124.557C40.3106 124.839 40.88 125.13 41.4629 125.433L41.0011 126.32ZM35.881 123.748C34.693 123.161 33.554 122.596 32.4539 122.023L32.9157 121.136C34.0053 121.704 35.1355 122.265 36.3237 122.851L35.881 123.748ZM29.0843 120.148C27.99 119.487 26.9221 118.782 25.865 117.993L26.4628 117.192C27.4901 117.958 28.5305 118.646 29.6009 119.291L29.0843 120.148ZM22.8872 115.511C22.4257 115.082 21.9639 114.631 21.5002 114.154L22.2168 113.457C22.669 113.921 23.1189 114.361 23.568 114.778L22.8872 115.511Z" fill="url(#paint7_linear_8066_65547)"/>
<path d="M21.0159 115.837L26.2686 119.638C26.3857 119.735 26.4129 119.905 26.3298 120.02C25.246 121.587 25.5839 123.695 27.115 124.828C27.1588 124.859 27.1892 124.898 27.2061 124.944C27.2339 125.026 27.2334 125.113 27.174 125.195C27.0789 125.327 26.9233 125.352 26.792 125.257L21.5722 121.479C19.7994 120.196 19.3839 117.695 20.6362 115.912C20.6362 115.912 20.6355 115.907 20.634 115.898C20.6696 115.849 20.7358 115.809 20.8065 115.798C20.8773 115.786 20.9525 115.803 21.0159 115.837Z" fill="#A5B5B6"/>
<path d="M21.1491 115.948L26.2682 119.64C26.3853 119.737 26.4125 119.907 26.3294 120.022C25.2456 121.589 25.5835 123.696 27.1146 124.829C27.1584 124.861 27.1888 124.9 27.2058 124.945L22.2158 121.334C20.5086 120.099 20.0546 117.719 21.1491 115.948Z" fill="#95A5A6"/>
<path d="M23.4996 112.593C23.4883 112.523 23.4911 112.45 23.5409 112.398C24.8566 110.649 27.3628 110.262 29.1356 111.545L34.3554 115.322C34.4726 115.42 34.4975 115.575 34.4166 115.704C34.3572 115.786 34.2605 115.816 34.1733 115.816C34.1247 115.814 34.0784 115.797 34.0347 115.765C32.4798 114.665 30.372 115.003 29.2226 116.522C29.1394 116.637 28.9696 116.664 28.8547 116.581L23.6021 112.78C23.5365 112.733 23.511 112.664 23.4996 112.593Z" fill="#A5B5B6"/>
<path d="M29.1819 112.204L34.1719 115.815C34.1232 115.813 34.077 115.796 34.0332 115.765C32.4784 114.665 30.3705 115.002 29.2211 116.522C29.1379 116.637 28.9682 116.664 28.8533 116.581L23.732 112.874C25.0726 111.281 27.4748 110.968 29.1819 112.204Z" fill="#95A5A6"/>
<path d="M11.3716 106.109L11.0984 106.486L7.83417 104.136L8.12153 103.757L11.3716 106.109Z" fill="#F7B23F"/>
<path d="M8.04859 103.377C8.27612 103.529 8.32828 103.854 8.15971 104.07C7.99341 104.3 7.68218 104.35 7.46652 104.181C7.23899 104.029 7.18683 103.704 7.3554 103.488C7.50756 103.26 7.81879 103.211 8.04859 103.377Z" fill="#C52E25"/>
<path d="M32.2973 118.598C32.5435 118.776 32.6002 119.13 32.422 119.376L30.2719 122.347C30.0938 122.593 29.7542 122.648 29.508 122.47L28.0787 120.885C27.8325 120.707 27.7758 120.353 27.9539 120.107L29.5813 117.858C29.6526 117.76 29.7426 117.687 29.8535 117.655C30.0187 117.599 30.2117 117.626 30.3594 117.733L32.2973 118.598Z" fill="#758586"/>
<path d="M29.3686 118.343L31.8636 120.148L30.8183 121.593L28.3233 119.787L29.3686 118.343Z" fill="#859596"/>
<path d="M30.0931 116.181C30.4378 116.43 30.5171 116.925 30.2677 117.27L27.6068 120.947C27.3574 121.292 26.8622 121.371 26.5175 121.121L26.3698 121.015C26.0251 120.765 25.9457 120.27 26.1952 119.925L28.856 116.248C29.1055 115.904 29.5865 115.827 29.9453 116.074L30.0931 116.181Z" fill="#C8BCEA"/>
<path d="M16.104 111.194L27.5636 119.499L26.4351 121.059L20.6994 116.914L14.9637 112.769C13.6341 111.807 12.6264 110.59 11.8893 109.432C11.6964 109.134 11.5247 108.847 11.3741 108.571C11.6924 108.385 11.9851 108.159 12.2521 107.893C12.2646 107.911 12.2817 107.927 12.3036 107.943C12.6687 108.32 13.095 108.716 13.5376 109.124C13.5486 109.132 13.5603 109.144 13.5727 109.162C13.6946 109.258 13.8125 109.36 13.9265 109.468C13.9593 109.492 13.9875 109.516 14.0108 109.541C14.0999 109.614 14.1897 109.692 14.2803 109.774C14.3241 109.805 14.3686 109.842 14.4139 109.883C14.5029 109.956 14.5927 110.033 14.6833 110.115C14.7161 110.139 14.749 110.163 14.7818 110.187C14.9037 110.283 15.0263 110.385 15.1497 110.491C15.192 110.513 15.2303 110.54 15.2646 110.574C15.3646 110.654 15.4639 110.73 15.5623 110.802C15.6061 110.833 15.6452 110.866 15.6795 110.899C15.8218 111.002 15.9633 111.1 16.104 111.194Z" fill="white"/>
<path d="M18.5414 107.831L30.0128 116.12L28.8843 117.679L17.4129 109.39C15.8699 108.273 14.3372 107.402 13.0598 106.765C13.2284 106.428 13.346 106.076 13.4126 105.707C13.7733 105.785 14.1551 105.874 14.5581 105.973C15.8467 106.318 17.2588 106.89 18.5414 107.831Z" fill="white"/>
<path d="M12.2546 107.895C12.2671 107.912 12.2842 107.929 12.3061 107.944C12.2842 107.929 12.2671 107.912 12.2546 107.895Z" fill="#BEB0E4"/>
<path d="M17.4122 109.39L28.8836 117.679L27.5651 119.501L16.1055 111.196C15.9648 111.102 15.8233 111.004 15.681 110.901C15.6467 110.868 15.6076 110.835 15.5639 110.804C15.4654 110.732 15.3661 110.656 15.2661 110.576C15.2318 110.543 15.1935 110.515 15.1512 110.493C15.0278 110.387 14.9052 110.285 14.7833 110.189C14.7505 110.165 14.7176 110.141 14.6848 110.118C14.5943 110.035 14.5044 109.958 14.4154 109.885C14.3701 109.844 14.3256 109.808 14.2818 109.776C14.1912 109.694 14.1014 109.616 14.0124 109.543C13.989 109.518 13.9609 109.494 13.928 109.47C13.8141 109.362 13.6961 109.26 13.5743 109.164C13.5618 109.146 13.5501 109.134 13.5392 109.126C13.3018 108.912 13.0746 108.702 12.8576 108.495C12.6625 108.304 12.4784 108.121 12.3052 107.945C12.2833 107.929 12.2661 107.913 12.2536 107.895C12.4132 107.744 12.5555 107.576 12.6807 107.392C12.8312 107.184 12.9573 106.975 13.0591 106.765C14.3365 107.402 15.8692 108.273 17.4122 109.39Z" fill="white"/>
<path d="M12.2528 107.894C11.9858 108.16 11.6931 108.385 11.3747 108.572C10.4405 106.908 10.0722 105.516 10.0468 105.447C10.0562 105.446 10.0679 105.459 10.0819 105.485C10.0834 105.495 10.0888 105.499 10.0983 105.497C10.0998 105.507 10.1068 105.52 10.1192 105.537C10.1287 105.536 10.1341 105.54 10.1356 105.549C10.1481 105.567 10.1605 105.584 10.173 105.601C10.1839 105.609 10.1894 105.613 10.1894 105.613C10.2034 105.64 10.2213 105.661 10.2432 105.677C10.2447 105.687 10.2509 105.695 10.2619 105.703C10.2758 105.73 10.2945 105.756 10.3179 105.781C10.3289 105.789 10.3343 105.793 10.3343 105.793C10.4075 105.888 10.4979 105.999 10.6055 106.127C10.6164 106.135 10.6227 106.144 10.6242 106.153C10.6585 106.186 10.6929 106.219 10.7272 106.253C10.7397 106.27 10.7521 106.287 10.7646 106.305C10.7989 106.338 10.8293 106.376 10.8557 106.421C10.8776 106.436 10.8948 106.453 10.9072 106.47C10.9416 106.504 10.9767 106.541 11.0125 106.584C11.0344 106.6 11.0523 106.621 11.0663 106.648C11.1021 106.691 11.1427 106.732 11.188 106.774C11.2005 106.791 11.2129 106.808 11.2254 106.826C11.3767 106.985 11.5397 107.157 11.7144 107.342C11.716 107.352 11.7222 107.36 11.7331 107.368C11.7799 107.419 11.8267 107.469 11.8735 107.52C11.9063 107.544 11.9345 107.568 11.9579 107.593C12.0047 107.644 12.0507 107.69 12.096 107.731C12.1209 107.765 12.1505 107.799 12.1849 107.833C12.2082 107.858 12.2309 107.878 12.2528 107.894Z" fill="#BEB0E4"/>
<path d="M12.1859 107.832C12.2093 107.857 12.232 107.877 12.2539 107.893C12.232 107.877 12.2093 107.857 12.1859 107.832Z" fill="#BEB0E4"/>
<g style="mix-blend-mode:multiply">
<path d="M12.1859 107.832C12.2093 107.857 12.232 107.877 12.2539 107.893C12.232 107.877 12.2093 107.857 12.1859 107.832Z" fill="#8F7CC7"/>
</g>
<path d="M11.7164 107.345C11.5417 107.16 11.3787 106.988 11.2273 106.828C11.3787 106.988 11.5417 107.16 11.7164 107.345Z" fill="#BEB0E4"/>
<g style="mix-blend-mode:multiply">
<path d="M11.7164 107.345C11.5417 107.16 11.3787 106.988 11.2273 106.828C11.3787 106.988 11.5417 107.16 11.7164 107.345Z" fill="#8F7CC7"/>
</g>
<path d="M11.8749 107.519C11.8281 107.468 11.7813 107.418 11.7345 107.367C11.7813 107.418 11.8281 107.468 11.8749 107.519Z" fill="#BEB0E4"/>
<g style="mix-blend-mode:multiply">
<path d="M11.8749 107.519C11.8281 107.468 11.7813 107.418 11.7345 107.367C11.7813 107.418 11.8281 107.468 11.8749 107.519Z" fill="#8F7CC7"/>
</g>
<path d="M12.0975 107.73C12.0523 107.689 12.0062 107.643 11.9594 107.592C12.0062 107.643 12.0523 107.689 12.0975 107.73Z" fill="#BEB0E4"/>
<g style="mix-blend-mode:multiply">
<path d="M12.0975 107.73C12.0523 107.689 12.0062 107.643 11.9594 107.592C12.0062 107.643 12.0523 107.689 12.0975 107.73Z" fill="#8F7CC7"/>
</g>
<path d="M11.1908 106.773C11.1455 106.732 11.105 106.69 11.0691 106.648C11.105 106.69 11.1455 106.732 11.1908 106.773Z" fill="#BEB0E4"/>
<g style="mix-blend-mode:multiply">
<path d="M11.1908 106.773C11.1455 106.732 11.105 106.69 11.0691 106.648C11.105 106.69 11.1455 106.732 11.1908 106.773Z" fill="#8F7CC7"/>
</g>
<path d="M11.0146 106.584C10.9787 106.541 10.9436 106.504 10.9093 106.47C10.9436 106.504 10.9787 106.541 11.0146 106.584Z" fill="#BEB0E4"/>
<g style="mix-blend-mode:multiply">
<path d="M11.0146 106.584C10.9787 106.541 10.9436 106.504 10.9093 106.47C10.9436 106.504 10.9787 106.541 11.0146 106.584Z" fill="#8F7CC7"/>
</g>
<path d="M10.1198 105.537C10.1072 105.519 10.1001 105.506 10.0986 105.496C10.1001 105.506 10.1072 105.519 10.1198 105.537Z" fill="#BEB0E4"/>
<g style="mix-blend-mode:multiply">
<path d="M10.1198 105.537C10.1072 105.519 10.1001 105.506 10.0986 105.496C10.1001 105.506 10.1072 105.519 10.1198 105.537Z" fill="#8F7CC7"/>
</g>
<path d="M13.0604 106.763C11.3392 105.893 10.1241 105.464 10.0489 105.447C10.1337 105.433 11.5451 105.367 13.4132 105.706C13.3465 106.074 13.2289 106.427 13.0604 106.763Z" fill="#BEB0E4"/>
<path d="M10.0497 105.445C10.0593 105.444 10.0712 105.457 10.0854 105.484C10.0712 105.457 10.0593 105.444 10.0497 105.445Z" fill="#BEB0E4"/>
<g style="mix-blend-mode:multiply">
<path d="M10.0497 105.445C10.0593 105.444 10.0712 105.457 10.0854 105.484C10.0712 105.457 10.0593 105.444 10.0497 105.445Z" fill="#8F7CC7"/>
</g>
<path d="M10.1748 105.601C10.1623 105.584 10.1499 105.566 10.1374 105.549C10.1499 105.566 10.1623 105.584 10.1748 105.601Z" fill="#BEB0E4"/>
<g style="mix-blend-mode:multiply">
<path d="M10.1748 105.601C10.1623 105.584 10.1499 105.566 10.1374 105.549C10.1499 105.566 10.1623 105.584 10.1748 105.601Z" fill="#8F7CC7"/>
</g>
<path d="M10.6067 106.128C10.4992 106 10.4088 105.889 10.3356 105.794C10.4088 105.889 10.4992 106 10.6067 106.128Z" fill="#BEB0E4"/>
<g style="mix-blend-mode:multiply">
<path d="M10.6067 106.128C10.4992 106 10.4088 105.889 10.3356 105.794C10.4088 105.889 10.4992 106 10.6067 106.128Z" fill="#8F7CC7"/>
</g>
<path d="M10.7294 106.254C10.6951 106.221 10.6607 106.188 10.6264 106.154C10.6607 106.188 10.6951 106.221 10.7294 106.254Z" fill="#BEB0E4"/>
<g style="mix-blend-mode:multiply">
<path d="M10.7294 106.254C10.6951 106.221 10.6607 106.188 10.6264 106.154C10.6607 106.188 10.6951 106.221 10.7294 106.254Z" fill="#8F7CC7"/>
</g>
<path d="M10.2456 105.677C10.2237 105.661 10.2058 105.64 10.1918 105.613C10.2058 105.64 10.2237 105.661 10.2456 105.677Z" fill="#BEB0E4"/>
<g style="mix-blend-mode:multiply">
<path d="M10.2456 105.677C10.2237 105.661 10.2058 105.64 10.1918 105.613C10.2058 105.64 10.2237 105.661 10.2456 105.677Z" fill="#8F7CC7"/>
</g>
<path d="M10.8559 106.42C10.8295 106.376 10.7991 106.338 10.7647 106.304C10.7991 106.338 10.8295 106.376 10.8559 106.42Z" fill="#BEB0E4"/>
<g style="mix-blend-mode:multiply">
<path d="M10.8559 106.42C10.8295 106.376 10.7991 106.338 10.7647 106.304C10.7991 106.338 10.8295 106.376 10.8559 106.42Z" fill="#8F7CC7"/>
</g>
<path d="M10.3198 105.782C10.2964 105.757 10.2777 105.731 10.2637 105.704C10.2777 105.731 10.2964 105.757 10.3198 105.782Z" fill="#BEB0E4"/>
<g style="mix-blend-mode:multiply">
<path d="M10.3198 105.782C10.2964 105.757 10.2777 105.731 10.2637 105.704C10.2777 105.731 10.2964 105.757 10.3198 105.782Z" fill="#8F7CC7"/>
</g>
<path d="M11.9614 107.592C11.938 107.567 11.9098 107.542 11.877 107.519C11.9098 107.542 11.938 107.567 11.9614 107.592Z" fill="#907DC8"/>
<g style="mix-blend-mode:multiply">
<path d="M11.9614 107.592C11.938 107.567 11.9098 107.542 11.877 107.519C11.9098 107.542 11.938 107.567 11.9614 107.592Z" fill="#8F7CC7"/>
</g>
<path d="M10.1906 105.613C10.1906 105.613 10.1848 105.609 10.1734 105.6C10.1848 105.609 10.1906 105.613 10.1906 105.613Z" fill="#907DC8"/>
<g style="mix-blend-mode:multiply">
<path d="M10.1906 105.613C10.1906 105.613 10.1848 105.609 10.1734 105.6C10.1848 105.609 10.1906 105.613 10.1906 105.613Z" fill="#8F7CC7"/>
</g>
<path d="M10.2627 105.703C10.2514 105.695 10.2449 105.686 10.2434 105.676C10.2449 105.686 10.2514 105.695 10.2627 105.703Z" fill="#907DC8"/>
<g style="mix-blend-mode:multiply">
<path d="M10.2627 105.703C10.2514 105.695 10.2449 105.686 10.2434 105.676C10.2449 105.686 10.2514 105.695 10.2627 105.703Z" fill="#8F7CC7"/>
</g>
<path d="M10.3351 105.795C10.3351 105.795 10.3294 105.79 10.3179 105.782C10.3294 105.79 10.3351 105.795 10.3351 105.795Z" fill="#907DC8"/>
<g style="mix-blend-mode:multiply">
<path d="M10.3351 105.795C10.3351 105.795 10.3294 105.79 10.3179 105.782C10.3294 105.79 10.3351 105.795 10.3351 105.795Z" fill="#8F7CC7"/>
</g>
<path d="M12.186 107.832C12.1516 107.799 12.122 107.765 12.0971 107.731C12.122 107.765 12.1516 107.799 12.186 107.832Z" fill="#907DC8"/>
<g style="mix-blend-mode:multiply">
<path d="M12.186 107.832C12.1516 107.799 12.122 107.765 12.0971 107.731C12.122 107.765 12.1516 107.799 12.186 107.832Z" fill="#8F7CC7"/>
</g>
<path d="M10.1378 105.548C10.1362 105.539 10.1305 105.534 10.1207 105.536C10.1305 105.534 10.1362 105.539 10.1378 105.548Z" fill="#907DC8"/>
<g style="mix-blend-mode:multiply">
<path d="M10.1378 105.548C10.1362 105.539 10.1305 105.534 10.1207 105.536C10.1305 105.534 10.1362 105.539 10.1378 105.548Z" fill="#8F7CC7"/>
</g>
<path d="M10.6279 106.154C10.6264 106.144 10.6199 106.135 10.6086 106.127C10.6199 106.135 10.6264 106.144 10.6279 106.154Z" fill="#907DC8"/>
<g style="mix-blend-mode:multiply">
<path d="M10.6279 106.154C10.6264 106.144 10.6199 106.135 10.6086 106.127C10.6199 106.135 10.6264 106.144 10.6279 106.154Z" fill="#8F7CC7"/>
</g>
<path d="M10.1007 105.498C10.0909 105.499 10.0851 105.495 10.0836 105.485C10.0851 105.495 10.0909 105.499 10.1007 105.498Z" fill="#907DC8"/>
<g style="mix-blend-mode:multiply">
<path d="M10.1007 105.498C10.0909 105.499 10.0851 105.495 10.0836 105.485C10.0851 105.495 10.0909 105.499 10.1007 105.498Z" fill="#8F7CC7"/>
</g>
<path d="M11.7354 107.367C11.724 107.359 11.7176 107.35 11.716 107.34C11.7176 107.35 11.724 107.359 11.7354 107.367Z" fill="#907DC8"/>
<g style="mix-blend-mode:multiply">
<path d="M11.7354 107.367C11.724 107.359 11.7176 107.35 11.716 107.34C11.7176 107.35 11.724 107.359 11.7354 107.367Z" fill="#8F7CC7"/>
</g>
<path d="M11.2256 106.826C11.2131 106.808 11.2006 106.791 11.1882 106.773C11.2006 106.791 11.2131 106.808 11.2256 106.826Z" fill="#907DC8"/>
<g style="mix-blend-mode:multiply">
<path d="M11.2256 106.826C11.2131 106.808 11.2006 106.791 11.1882 106.773C11.2006 106.791 11.2131 106.808 11.2256 106.826Z" fill="#8F7CC7"/>
</g>
<path d="M10.7646 106.304C10.7522 106.287 10.7397 106.269 10.7273 106.252C10.7397 106.269 10.7522 106.287 10.7646 106.304Z" fill="#907DC8"/>
<g style="mix-blend-mode:multiply">
<path d="M10.7646 106.304C10.7522 106.287 10.7397 106.269 10.7273 106.252C10.7397 106.269 10.7522 106.287 10.7646 106.304Z" fill="#8F7CC7"/>
</g>
<path d="M11.0678 106.649C11.0539 106.623 11.0359 106.601 11.0141 106.586C11.0359 106.601 11.0539 106.623 11.0678 106.649Z" fill="#907DC8"/>
<g style="mix-blend-mode:multiply">
<path d="M11.0678 106.649C11.0539 106.623 11.0359 106.601 11.0141 106.586C11.0359 106.601 11.0539 106.623 11.0678 106.649Z" fill="#8F7CC7"/>
</g>
<path d="M10.9096 106.47C10.8972 106.452 10.88 106.436 10.8581 106.42C10.88 106.436 10.8972 106.452 10.9096 106.47Z" fill="#907DC8"/>
<g style="mix-blend-mode:multiply">
<path d="M10.9096 106.47C10.8972 106.452 10.88 106.436 10.8581 106.42C10.88 106.436 10.8972 106.452 10.9096 106.47Z" fill="#8F7CC7"/>
</g>
<path d="M10.0837 105.485C10.0698 105.459 10.0581 105.446 10.0486 105.447C10.0471 105.438 10.0464 105.433 10.0464 105.433C10.0479 105.443 10.0486 105.447 10.0486 105.447C10.1239 105.464 11.339 105.894 13.0601 106.764C12.9583 106.974 12.8322 107.183 12.6818 107.39C12.5566 107.575 12.4142 107.743 12.2547 107.894C12.2328 107.878 12.2101 107.858 12.1867 107.833C12.1524 107.799 12.1228 107.765 12.0979 107.731C12.0526 107.69 12.0065 107.644 11.9597 107.593C11.9363 107.568 11.9082 107.544 11.8754 107.52C11.8286 107.469 11.7818 107.419 11.735 107.368C11.7241 107.36 11.7178 107.352 11.7163 107.342C11.5416 107.157 11.3786 106.985 11.2272 106.826C11.2148 106.808 11.2023 106.791 11.1899 106.774C11.1446 106.732 11.104 106.691 11.0682 106.648C11.0542 106.621 11.0363 106.6 11.0144 106.584C10.9785 106.541 10.9434 106.503 10.9091 106.47C10.8966 106.453 10.8795 106.436 10.8576 106.421C10.8312 106.376 10.8008 106.338 10.7664 106.305C10.754 106.287 10.7415 106.27 10.7291 106.252C10.6947 106.219 10.6604 106.186 10.6261 106.153C10.6245 106.143 10.6183 106.135 10.6074 106.127C10.4998 105.999 10.4094 105.888 10.3362 105.793C10.3362 105.793 10.3307 105.789 10.3198 105.781C10.2964 105.756 10.2777 105.73 10.2637 105.703C10.2528 105.695 10.2466 105.687 10.2451 105.677C10.2232 105.661 10.2053 105.64 10.1913 105.613C10.1913 105.613 10.1858 105.609 10.1749 105.601C10.1624 105.584 10.15 105.567 10.1375 105.549C10.136 105.54 10.1305 105.536 10.1211 105.537C10.1086 105.52 10.1017 105.507 10.1001 105.497C10.0907 105.499 10.0852 105.495 10.0837 105.485Z" fill="#907DC8"/>
<path d="M10.0846 105.489C10.0839 105.487 10.0832 105.484 10.0822 105.482C10.0689 105.458 10.0577 105.446 10.0486 105.447C10.0471 105.438 10.0464 105.433 10.0464 105.433L10.0486 105.447C10.1139 105.462 11.0362 105.787 12.4022 106.44C12.7691 106.616 12.9202 107.061 12.6818 107.39C12.574 107.549 12.4535 107.696 12.3204 107.83C12.2828 107.868 12.2229 107.872 12.1867 107.833C12.122 107.77 12.0634 107.701 12.0007 107.637C11.9871 107.623 11.9735 107.608 11.9597 107.593C11.9578 107.591 11.9558 107.589 11.9537 107.587C11.9061 107.537 11.8519 107.494 11.8052 107.444C11.7836 107.421 11.762 107.397 11.7404 107.374C11.7368 107.37 11.7317 107.366 11.7279 107.362C11.7162 107.351 11.7104 107.336 11.6992 107.324C11.5309 107.146 11.3736 106.98 11.2272 106.826C11.2024 106.791 11.1736 106.759 11.1434 106.729C11.1262 106.712 11.1099 106.695 11.0943 106.678C11.0766 106.658 11.0625 106.634 11.0458 106.614C11.027 106.591 11.0049 106.572 10.9853 106.55C10.9649 106.527 10.9447 106.506 10.9247 106.486C10.9144 106.475 10.9062 106.465 10.8964 106.455C10.8742 106.43 10.8494 106.406 10.8302 106.379C10.8172 106.361 10.8034 106.343 10.7888 106.328C10.7744 106.312 10.7602 106.296 10.7478 106.279C10.7475 106.278 10.7472 106.278 10.7469 106.277C10.735 106.261 10.7217 106.245 10.7071 106.231C10.6859 106.211 10.6646 106.19 10.6433 106.17C10.6321 106.159 10.6263 106.144 10.6152 106.133C10.611 106.129 10.6054 106.125 10.6017 106.12C10.5002 105.999 10.4141 105.893 10.3436 105.803C10.3387 105.796 10.3369 105.794 10.3304 105.789C10.326 105.786 10.3179 105.779 10.3142 105.775C10.2964 105.755 10.2815 105.735 10.2695 105.714C10.2656 105.707 10.2589 105.7 10.2537 105.694C10.2448 105.684 10.2387 105.673 10.2289 105.664C10.2169 105.652 10.2063 105.639 10.1971 105.624C10.1931 105.617 10.1919 105.614 10.1855 105.609C10.1811 105.606 10.1732 105.599 10.1701 105.595C10.1605 105.581 10.1509 105.568 10.1413 105.554C10.1388 105.551 10.1375 105.546 10.1354 105.543C10.1302 105.534 10.1171 105.532 10.1117 105.523C10.1101 105.521 10.1086 105.518 10.1073 105.516C10.1021 105.506 10.0881 105.499 10.0846 105.489Z" fill="#A291D3"/>
<path d="M25.4811 120.013C26.308 119.017 27.7783 116.759 27.0442 115.701C26.1266 114.378 14.6774 106.628 13.9804 106.758C13.47 106.853 13.2978 106.972 13.2668 107.032L13.2616 107.047C13.2622 107.043 13.2639 107.038 13.2668 107.032L13.6945 105.781C14.8634 106.06 17.5352 106.917 18.8717 108.11L30.0002 116.075L26.4423 121.019L25.3193 120.25L25.4811 120.013Z" fill="#E4E4E4"/>
<path d="M13.8969 108.529C14.6344 107.452 16.1057 107.176 17.183 107.914C18.2603 108.651 18.5358 110.122 17.7983 111.2C17.0608 112.277 15.5895 112.553 14.5122 111.815C13.4349 111.077 13.1594 109.606 13.8969 108.529Z" fill="#EAE3FF"/>
<path fill-rule="evenodd" clip-rule="evenodd" d="M17.0578 108.096C16.0815 107.428 14.7482 107.678 14.0798 108.654C13.4114 109.63 13.6611 110.964 14.6374 111.632C15.6137 112.3 16.947 112.051 17.6154 111.075C18.2838 110.098 18.0341 108.765 17.0578 108.096ZM17.183 107.914C16.1057 107.176 14.6344 107.452 13.8969 108.529C13.1594 109.606 13.4349 111.077 14.5122 111.815C15.5895 112.553 17.0608 112.277 17.7983 111.2C18.5358 110.122 18.2603 108.651 17.183 107.914Z" fill="#6C6C6C"/>
<path d="M17.6484 110.963C17.4952 109.814 16.9487 107.709 14.7627 108.182C15.6325 107.434 18.7177 108.159 17.6484 110.963Z" fill="#DBD0FA"/>
<path d="M14.4467 108.905C14.9768 108.131 16.0343 107.933 16.8086 108.463C17.5829 108.993 17.7809 110.05 17.2508 110.825C16.7207 111.599 15.6633 111.797 14.889 111.267C14.1146 110.737 13.9166 109.679 14.4467 108.905Z" fill="#A291D3"/>
<path fill-rule="evenodd" clip-rule="evenodd" d="M16.6834 108.646C16.0101 108.185 15.0905 108.357 14.6296 109.03C14.1686 109.703 14.3408 110.623 15.0142 111.084C15.6875 111.545 16.607 111.373 17.068 110.699C17.5289 110.026 17.3567 109.106 16.6834 108.646ZM16.8086 108.463C16.0343 107.933 14.9768 108.131 14.4467 108.905C13.9166 109.679 14.1146 110.737 14.889 111.267C15.6633 111.797 16.7207 111.599 17.2508 110.825C17.7809 110.05 17.5829 108.993 16.8086 108.463Z" fill="#6C6C6C"/>
<path d="M17.0137 109.99C16.817 109.602 16.2246 108.841 15.4287 108.905C15.985 108.659 17.0808 108.532 17.0137 109.99Z" fill="#917EC8"/>
<path d="M18.1496 111.443C18.5742 110.822 19.4213 110.664 20.0416 111.088C20.6618 111.513 20.8205 112.36 20.3958 112.98C19.9712 113.601 19.1241 113.759 18.5038 113.335C17.8835 112.91 17.7249 112.063 18.1496 111.443Z" fill="#EAE3FF"/>
<path fill-rule="evenodd" clip-rule="evenodd" d="M19.9695 111.194C19.4073 110.809 18.6397 110.953 18.2549 111.515C17.87 112.077 18.0138 112.845 18.5759 113.229C19.138 113.614 19.9057 113.47 20.2905 112.908C20.6754 112.346 20.5316 111.579 19.9695 111.194ZM20.0416 111.088C19.4213 110.664 18.5742 110.822 18.1496 111.443C17.7249 112.063 17.8835 112.91 18.5038 113.335C19.1241 113.759 19.9712 113.601 20.3958 112.98C20.8205 112.36 20.6618 111.513 20.0416 111.088Z" fill="#6C6C6C"/>
<path d="M20.3105 112.844C20.2223 112.182 19.9077 110.97 18.6491 111.242C19.1499 110.812 20.9262 111.229 20.3105 112.844Z" fill="#DBD0FA"/>
<path d="M18.4674 111.66C18.7726 111.214 19.3815 111.1 19.8273 111.405C20.2731 111.71 20.3871 112.319 20.0819 112.765C19.7767 113.211 19.1679 113.325 18.7221 113.02C18.2762 112.714 18.1622 112.106 18.4674 111.66Z" fill="#A291D3"/>
<path fill-rule="evenodd" clip-rule="evenodd" d="M19.7552 111.51C19.3675 111.245 18.8381 111.344 18.5727 111.732C18.3073 112.12 18.4065 112.649 18.7941 112.914C19.1818 113.18 19.7112 113.081 19.9766 112.693C20.242 112.305 20.1429 111.776 19.7552 111.51ZM19.8273 111.405C19.3815 111.1 18.7726 111.214 18.4674 111.66C18.1622 112.106 18.2762 112.714 18.7221 113.02C19.1679 113.325 19.7767 113.211 20.0819 112.765C20.3871 112.319 20.2731 111.71 19.8273 111.405Z" fill="#6C6C6C"/>
<path d="M19.9453 112.285C19.8321 112.062 19.491 111.624 19.0328 111.66C19.3531 111.519 19.984 111.446 19.9453 112.285Z" fill="#917EC8"/>
<path d="M182.094 91.4842L177.94 92.4256C177.841 92.4411 177.746 92.3809 177.725 92.29C177.422 91.0757 176.236 90.3278 175.013 90.5914C174.978 90.5992 174.946 90.5974 174.916 90.586C174.864 90.5639 174.821 90.5258 174.806 90.4609C174.783 90.357 174.838 90.2695 174.942 90.2459L179.069 89.3104C180.471 88.9927 181.886 89.8732 182.221 91.2642C182.221 91.2642 182.224 91.2658 182.229 91.2692C182.238 91.3081 182.229 91.358 182.204 91.3978C182.179 91.4376 182.138 91.4674 182.094 91.4842Z" fill="#A5B5B6"/>
<path d="M181.981 91.5037L177.939 92.4266C177.84 92.4422 177.744 92.382 177.724 92.2911C177.421 91.0768 176.235 90.3289 175.012 90.5924C174.977 90.6003 174.945 90.5985 174.915 90.5871L178.861 89.6927C180.211 89.3868 181.582 90.1953 181.981 91.5037Z" fill="#95A5A6"/>
<path d="M182.616 94.1166C182.656 94.1417 182.69 94.1747 182.694 94.2216C182.986 95.6294 182.09 97.0336 180.688 97.3513L176.56 98.2868C176.461 98.3024 176.373 98.2472 176.345 98.1513C176.33 98.0864 176.357 98.0256 176.395 97.9829C176.417 97.9597 176.446 97.9442 176.48 97.9363C177.698 97.6468 178.446 96.4606 178.195 95.2345C178.174 95.1436 178.235 95.0481 178.325 95.0275L182.479 94.0861C182.531 94.0743 182.576 94.0915 182.616 94.1166Z" fill="#A5B5B6"/>
<path d="M180.344 97.0868L176.397 97.9812C176.419 97.958 176.448 97.9425 176.482 97.9346C177.7 97.6451 178.447 96.4589 178.197 95.2328C178.176 95.1419 178.237 95.0464 178.327 95.0258L182.377 94.1079C182.582 95.4605 181.694 96.7809 180.344 97.0868Z" fill="#95A5A6"/>
<path d="M191.077 90.9512L191.009 90.6527L193.584 90.0622L193.647 90.3687L191.077 90.9512Z" fill="#F7B23F"/>
<path d="M193.864 90.495C193.691 90.5412 193.508 90.4258 193.474 90.2491C193.433 90.0673 193.544 89.8922 193.72 89.859C193.894 89.8127 194.077 89.9282 194.11 90.1049C194.157 90.2787 194.046 90.4538 193.864 90.495Z" fill="#C52E25"/>
<path d="M175.838 95.8503C175.643 95.8944 175.444 95.769 175.4 95.5742L174.867 93.2247C174.823 93.03 174.944 92.8389 175.138 92.7948L176.54 92.7774C176.735 92.7332 176.934 92.8587 176.978 93.0534L177.381 94.8318C177.399 94.9097 177.395 94.9855 177.363 95.0542C177.319 95.1598 177.222 95.2432 177.105 95.2697L175.838 95.8503Z" fill="#758586"/>
<path d="M177.235 94.5166L175.262 94.9638L175.003 93.8215L176.976 93.3743L177.235 94.5166Z" fill="#859596"/>
<path d="M177.986 95.8142C177.714 95.876 177.435 95.7003 177.373 95.4277L176.714 92.52C176.652 92.2474 176.828 91.9687 177.101 91.907L177.218 91.8805C177.49 91.8187 177.769 91.9944 177.831 92.267L178.49 95.1747C178.551 95.4473 178.381 95.718 178.103 95.7877L177.986 95.8142Z" fill="#C8BCEA"/>
<path d="M186.516 91.0785L177.448 93.1269L177.168 91.8937L181.701 90.863L186.234 89.8323C187.285 89.594 188.323 89.625 189.214 89.7642C189.445 89.7984 189.661 89.8381 189.862 89.8835C189.816 90.1214 189.8 90.3638 189.815 90.6106C189.801 90.6092 189.786 90.6105 189.768 90.6144C189.424 90.631 189.044 90.6694 188.65 90.7108C188.642 90.7127 188.631 90.713 188.617 90.7116C188.516 90.7299 188.415 90.7438 188.312 90.7533C188.286 90.7592 188.262 90.7624 188.239 90.763C188.165 90.7754 188.088 90.786 188.008 90.795C187.973 90.8029 187.936 90.809 187.896 90.8135C187.821 90.8259 187.744 90.8366 187.664 90.8456C187.638 90.8514 187.612 90.8573 187.586 90.8632C187.486 90.8814 187.383 90.898 187.277 90.9129C187.248 90.9241 187.217 90.9309 187.186 90.9335C187.103 90.9478 187.022 90.9637 186.944 90.9814C186.91 90.9892 186.877 90.9944 186.846 90.997C186.733 91.0225 186.623 91.0496 186.516 91.0785Z" fill="white"/>
<path d="M187.117 93.738L178.051 95.7994L177.772 94.5663L186.837 92.5048C188.058 92.2283 189.152 91.8505 190.021 91.4968C190.114 91.7259 190.237 91.9369 190.389 92.1297C190.195 92.274 189.985 92.4238 189.761 92.5792C189.032 93.0652 188.137 93.5136 187.117 93.738Z" fill="white"/>
<path d="M189.813 90.6099C189.799 90.6085 189.784 90.6098 189.766 90.6137C189.784 90.6098 189.799 90.6085 189.813 90.6099Z" fill="#BEB0E4"/>
<path d="M186.839 92.5057L177.773 94.5671L177.447 93.1263L186.515 91.0778C186.622 91.049 186.732 91.0218 186.845 90.9963C186.876 90.9938 186.909 90.9886 186.944 90.9808C187.021 90.9631 187.102 90.9471 187.185 90.9328C187.216 90.9303 187.247 90.9234 187.276 90.9122C187.382 90.8973 187.485 90.8808 187.585 90.8626C187.611 90.8567 187.637 90.8508 187.663 90.8449C187.743 90.8359 187.82 90.8252 187.895 90.8129C187.935 90.8084 187.972 90.8022 188.007 90.7944C188.087 90.7854 188.164 90.7747 188.238 90.7624C188.261 90.7618 188.285 90.7586 188.311 90.7527C188.414 90.7431 188.515 90.7292 188.616 90.711C188.63 90.7124 188.641 90.7121 188.65 90.7101C188.858 90.6857 189.06 90.6648 189.256 90.6477C189.435 90.6344 189.606 90.6231 189.767 90.6137C189.785 90.6098 189.8 90.6086 189.814 90.6099C189.82 90.7543 189.841 90.8974 189.877 91.0392C189.915 91.2036 189.963 91.3564 190.022 91.4977C189.154 91.8514 188.059 92.2292 186.839 92.5057Z" fill="white"/>
<path d="M189.814 90.6106C189.799 90.3638 189.814 90.1214 189.86 89.8835C191.086 90.1447 191.933 90.567 191.978 90.5842C191.974 90.5895 191.963 90.5898 191.944 90.585C191.938 90.5817 191.934 90.5827 191.931 90.588C191.925 90.5846 191.916 90.5823 191.902 90.5809C191.898 90.5862 191.894 90.5872 191.889 90.5838C191.875 90.5824 191.861 90.581 191.847 90.5797C191.838 90.5816 191.834 90.5826 191.834 90.5826C191.815 90.5779 191.796 90.5775 191.779 90.5814C191.774 90.578 191.767 90.5773 191.758 90.5793C191.739 90.5746 191.718 90.5725 191.695 90.5731C191.687 90.575 191.682 90.576 191.682 90.576C191.604 90.5711 191.51 90.5674 191.4 90.5649C191.391 90.5669 191.384 90.5662 191.379 90.5629C191.348 90.5654 191.317 90.5679 191.285 90.5705C191.271 90.5691 191.257 90.5677 191.243 90.5663C191.212 90.5688 191.18 90.5671 191.147 90.5609C191.129 90.5649 191.114 90.5661 191.1 90.5647C191.068 90.5673 191.035 90.5681 190.998 90.5673C190.981 90.5713 190.962 90.5709 190.943 90.5661C190.907 90.5653 190.868 90.5672 190.828 90.5717C190.814 90.5703 190.8 90.5689 190.786 90.5675C190.642 90.5729 190.486 90.5786 190.32 90.5846C190.314 90.5813 190.307 90.5806 190.299 90.5826C190.253 90.5837 190.208 90.5849 190.163 90.586C190.137 90.5919 190.113 90.5951 190.09 90.5957C190.045 90.5969 190.002 90.5997 189.962 90.6042C189.934 90.6014 189.905 90.6013 189.874 90.6038C189.851 90.6044 189.831 90.6067 189.814 90.6106Z" fill="#BEB0E4"/>
<path d="M189.874 90.6032C189.851 90.6038 189.831 90.606 189.814 90.61C189.831 90.606 189.851 90.6038 189.874 90.6032Z" fill="#BEB0E4"/>
<g style="mix-blend-mode:multiply">
<path d="M189.874 90.6032C189.851 90.6038 189.831 90.606 189.814 90.61C189.831 90.606 189.851 90.6038 189.874 90.6032Z" fill="#8F7CC7"/>
</g>
<path d="M190.318 90.5823C190.485 90.5763 190.641 90.5706 190.785 90.5652C190.641 90.5706 190.485 90.5763 190.318 90.5823Z" fill="#BEB0E4"/>
<g style="mix-blend-mode:multiply">
<path d="M190.318 90.5823C190.485 90.5763 190.641 90.5706 190.785 90.5652C190.641 90.5706 190.485 90.5763 190.318 90.5823Z" fill="#8F7CC7"/>
</g>
<path d="M190.163 90.5852C190.208 90.584 190.253 90.5829 190.299 90.5817C190.253 90.5829 190.208 90.584 190.163 90.5852Z" fill="#BEB0E4"/>
<g style="mix-blend-mode:multiply">
<path d="M190.163 90.5852C190.208 90.584 190.253 90.5829 190.299 90.5817C190.253 90.5829 190.208 90.584 190.163 90.5852Z" fill="#8F7CC7"/>
</g>
<path d="M189.964 90.6028C190.004 90.5983 190.046 90.5954 190.091 90.5943C190.046 90.5954 190.004 90.5983 189.964 90.6028Z" fill="#BEB0E4"/>
<g style="mix-blend-mode:multiply">
<path d="M189.964 90.6028C190.004 90.5983 190.046 90.5954 190.091 90.5943C190.046 90.5954 190.004 90.5983 189.964 90.6028Z" fill="#8F7CC7"/>
</g>
<path d="M190.828 90.5714C190.868 90.5669 190.906 90.565 190.943 90.5658C190.906 90.565 190.868 90.5669 190.828 90.5714Z" fill="#BEB0E4"/>
<g style="mix-blend-mode:multiply">
<path d="M190.828 90.5714C190.868 90.5669 190.906 90.565 190.943 90.5658C190.906 90.565 190.868 90.5669 190.828 90.5714Z" fill="#8F7CC7"/>
</g>
<path d="M190.997 90.5673C191.034 90.5681 191.068 90.5672 191.099 90.5647C191.068 90.5672 191.034 90.5681 190.997 90.5673Z" fill="#BEB0E4"/>
<g style="mix-blend-mode:multiply">
<path d="M190.997 90.5673C191.034 90.5681 191.068 90.5672 191.099 90.5647C191.068 90.5672 191.034 90.5681 190.997 90.5673Z" fill="#8F7CC7"/>
</g>
<path d="M191.903 90.5803C191.917 90.5818 191.927 90.5842 191.932 90.5875C191.927 90.5842 191.917 90.5818 191.903 90.5803Z" fill="#BEB0E4"/>
<g style="mix-blend-mode:multiply">
<path d="M191.903 90.5803C191.917 90.5818 191.927 90.5842 191.932 90.5875C191.927 90.5842 191.917 90.5818 191.903 90.5803Z" fill="#8F7CC7"/>
</g>
<path d="M190.021 91.4975C191.198 91.0262 191.936 90.6131 191.977 90.5834C191.947 90.6311 191.368 91.3561 190.39 92.1304C190.237 91.9376 190.114 91.7266 190.021 91.4975Z" fill="#BEB0E4"/>
<path d="M191.977 90.5836C191.974 90.589 191.962 90.5893 191.943 90.5845C191.962 90.5893 191.974 90.589 191.977 90.5836Z" fill="#BEB0E4"/>
<g style="mix-blend-mode:multiply">
<path d="M191.977 90.5836C191.974 90.589 191.962 90.5893 191.943 90.5845C191.962 90.5893 191.974 90.589 191.977 90.5836Z" fill="#8F7CC7"/>
</g>
<path d="M191.847 90.5784C191.861 90.5798 191.875 90.5812 191.889 90.5826C191.875 90.5812 191.861 90.5798 191.847 90.5784Z" fill="#BEB0E4"/>
<g style="mix-blend-mode:multiply">
<path d="M191.847 90.5784C191.861 90.5798 191.875 90.5812 191.889 90.5826C191.875 90.5812 191.861 90.5798 191.847 90.5784Z" fill="#8F7CC7"/>
</g>
<path d="M191.399 90.5647C191.509 90.5672 191.603 90.5709 191.682 90.5758C191.603 90.5709 191.509 90.5672 191.399 90.5647Z" fill="#BEB0E4"/>
<g style="mix-blend-mode:multiply">
<path d="M191.399 90.5647C191.509 90.5672 191.603 90.5709 191.682 90.5758C191.603 90.5709 191.509 90.5672 191.399 90.5647Z" fill="#8F7CC7"/>
</g>
<path d="M191.284 90.5712C191.316 90.5687 191.347 90.5661 191.378 90.5636C191.347 90.5661 191.316 90.5687 191.284 90.5712Z" fill="#BEB0E4"/>
<g style="mix-blend-mode:multiply">
<path d="M191.284 90.5712C191.316 90.5687 191.347 90.5661 191.378 90.5636C191.347 90.5661 191.316 90.5687 191.284 90.5712Z" fill="#8F7CC7"/>
</g>
<path d="M191.78 90.5825C191.797 90.5786 191.815 90.579 191.835 90.5837C191.815 90.579 191.797 90.5786 191.78 90.5825Z" fill="#BEB0E4"/>
<g style="mix-blend-mode:multiply">
<path d="M191.78 90.5825C191.797 90.5786 191.815 90.579 191.835 90.5837C191.815 90.579 191.797 90.5786 191.78 90.5825Z" fill="#8F7CC7"/>
</g>
<path d="M191.147 90.5593C191.18 90.5655 191.212 90.5672 191.244 90.5647C191.212 90.5672 191.18 90.5655 191.147 90.5593Z" fill="#BEB0E4"/>
<g style="mix-blend-mode:multiply">
<path d="M191.147 90.5593C191.18 90.5655 191.212 90.5672 191.244 90.5647C191.212 90.5672 191.18 90.5655 191.147 90.5593Z" fill="#8F7CC7"/>
</g>
<path d="M191.696 90.5727C191.718 90.5721 191.739 90.5742 191.759 90.5789C191.739 90.5742 191.718 90.5721 191.696 90.5727Z" fill="#BEB0E4"/>
<g style="mix-blend-mode:multiply">
<path d="M191.696 90.5727C191.718 90.5721 191.739 90.5742 191.759 90.5789C191.739 90.5742 191.718 90.5721 191.696 90.5727Z" fill="#8F7CC7"/>
</g>
<path d="M190.09 90.5964C190.113 90.5959 190.137 90.5926 190.163 90.5868C190.137 90.5926 190.113 90.5959 190.09 90.5964Z" fill="#907DC8"/>
<g style="mix-blend-mode:multiply">
<path d="M190.09 90.5964C190.113 90.5959 190.137 90.5926 190.163 90.5868C190.137 90.5926 190.113 90.5959 190.09 90.5964Z" fill="#8F7CC7"/>
</g>
<path d="M191.835 90.5825C191.835 90.5825 191.839 90.5815 191.848 90.5795C191.839 90.5815 191.835 90.5825 191.835 90.5825Z" fill="#907DC8"/>
<g style="mix-blend-mode:multiply">
<path d="M191.835 90.5825C191.835 90.5825 191.839 90.5815 191.848 90.5795C191.839 90.5815 191.835 90.5825 191.835 90.5825Z" fill="#8F7CC7"/>
</g>
<path d="M191.758 90.5786C191.767 90.5765 191.775 90.5772 191.78 90.5807C191.775 90.5772 191.767 90.5765 191.758 90.5786Z" fill="#907DC8"/>
<g style="mix-blend-mode:multiply">
<path d="M191.758 90.5786C191.767 90.5765 191.775 90.5772 191.78 90.5807C191.775 90.5772 191.767 90.5765 191.758 90.5786Z" fill="#8F7CC7"/>
</g>
<path d="M191.682 90.5747C191.682 90.5747 191.687 90.5737 191.696 90.5716C191.687 90.5737 191.682 90.5747 191.682 90.5747Z" fill="#907DC8"/>
<g style="mix-blend-mode:multiply">
<path d="M191.682 90.5747C191.682 90.5747 191.687 90.5737 191.696 90.5716C191.687 90.5737 191.682 90.5747 191.682 90.5747Z" fill="#8F7CC7"/>
</g>
<path d="M189.873 90.6023C189.905 90.5998 189.934 90.5999 189.962 90.6027C189.934 90.5999 189.905 90.5998 189.873 90.6023Z" fill="#907DC8"/>
<g style="mix-blend-mode:multiply">
<path d="M189.873 90.6023C189.905 90.5998 189.934 90.5999 189.962 90.6027C189.934 90.5999 189.905 90.5998 189.873 90.6023Z" fill="#8F7CC7"/>
</g>
<path d="M191.887 90.5845C191.893 90.588 191.897 90.587 191.901 90.5814C191.897 90.587 191.893 90.588 191.887 90.5845Z" fill="#907DC8"/>
<g style="mix-blend-mode:multiply">
<path d="M191.887 90.5845C191.893 90.588 191.897 90.587 191.901 90.5814C191.897 90.587 191.893 90.588 191.887 90.5845Z" fill="#8F7CC7"/>
</g>
<path d="M191.378 90.5629C191.383 90.5664 191.39 90.5671 191.399 90.5651C191.39 90.5671 191.383 90.5664 191.378 90.5629Z" fill="#907DC8"/>
<g style="mix-blend-mode:multiply">
<path d="M191.378 90.5629C191.383 90.5664 191.39 90.5671 191.399 90.5651C191.39 90.5671 191.383 90.5664 191.378 90.5629Z" fill="#8F7CC7"/>
</g>
<path d="M191.93 90.5884C191.934 90.5829 191.938 90.5818 191.944 90.5853C191.938 90.5818 191.934 90.5829 191.93 90.5884Z" fill="#907DC8"/>
<g style="mix-blend-mode:multiply">
<path d="M191.93 90.5884C191.934 90.5829 191.938 90.5818 191.944 90.5853C191.938 90.5818 191.934 90.5829 191.93 90.5884Z" fill="#8F7CC7"/>
</g>
<path d="M190.298 90.5825C190.306 90.5804 190.314 90.5811 190.319 90.5846C190.314 90.5811 190.306 90.5804 190.298 90.5825Z" fill="#907DC8"/>
<g style="mix-blend-mode:multiply">
<path d="M190.298 90.5825C190.306 90.5804 190.314 90.5811 190.319 90.5846C190.314 90.5811 190.306 90.5804 190.298 90.5825Z" fill="#8F7CC7"/>
</g>
<path d="M190.787 90.5667C190.801 90.5681 190.815 90.5695 190.829 90.5709C190.815 90.5695 190.801 90.5681 190.787 90.5667Z" fill="#907DC8"/>
<g style="mix-blend-mode:multiply">
<path d="M190.787 90.5667C190.801 90.5681 190.815 90.5695 190.829 90.5709C190.815 90.5695 190.801 90.5681 190.787 90.5667Z" fill="#8F7CC7"/>
</g>
<path d="M191.244 90.5648C191.258 90.5661 191.272 90.5675 191.286 90.5689C191.272 90.5675 191.258 90.5661 191.244 90.5648Z" fill="#907DC8"/>
<g style="mix-blend-mode:multiply">
<path d="M191.244 90.5648C191.258 90.5661 191.272 90.5675 191.286 90.5689C191.272 90.5675 191.258 90.5661 191.244 90.5648Z" fill="#8F7CC7"/>
</g>
<path d="M190.942 90.5649C190.961 90.5696 190.98 90.57 190.997 90.5661C190.98 90.57 190.961 90.5696 190.942 90.5649Z" fill="#907DC8"/>
<g style="mix-blend-mode:multiply">
<path d="M190.942 90.5649C190.961 90.5696 190.98 90.57 190.997 90.5661C190.98 90.57 190.961 90.5696 190.942 90.5649Z" fill="#8F7CC7"/>
</g>
<path d="M191.1 90.5649C191.114 90.5663 191.13 90.565 191.147 90.5611C191.13 90.565 191.114 90.5663 191.1 90.5649Z" fill="#907DC8"/>
<g style="mix-blend-mode:multiply">
<path d="M191.1 90.5649C191.114 90.5663 191.13 90.565 191.147 90.5611C191.13 90.565 191.114 90.5663 191.1 90.5649Z" fill="#8F7CC7"/>
</g>
<path d="M191.944 90.5849C191.963 90.5896 191.975 90.5893 191.978 90.584C191.983 90.5873 191.986 90.589 191.986 90.589C191.981 90.5857 191.978 90.584 191.978 90.584C191.937 90.6138 191.198 91.0269 190.022 91.4981C189.963 91.3569 189.914 91.2041 189.877 91.0396C189.84 90.8978 189.819 90.7547 189.814 90.6104C189.831 90.6065 189.851 90.6042 189.874 90.6037C189.905 90.6011 189.935 90.6012 189.963 90.604C190.003 90.5995 190.045 90.5967 190.09 90.5955C190.113 90.595 190.137 90.5917 190.163 90.5858C190.208 90.5847 190.254 90.5835 190.299 90.5824C190.308 90.5804 190.315 90.5811 190.32 90.5845C190.487 90.5785 190.642 90.5728 190.787 90.5673C190.801 90.5687 190.815 90.5701 190.829 90.5715C190.869 90.567 190.907 90.5651 190.943 90.566C190.963 90.5707 190.981 90.5711 190.998 90.5672C191.035 90.568 191.069 90.5671 191.1 90.5646C191.114 90.566 191.13 90.5647 191.147 90.5608C191.18 90.5669 191.212 90.5687 191.244 90.5661C191.258 90.5675 191.272 90.5689 191.286 90.5703C191.317 90.5678 191.348 90.5652 191.379 90.5627C191.385 90.566 191.392 90.5667 191.4 90.5648C191.51 90.5672 191.604 90.5709 191.683 90.5758C191.683 90.5758 191.687 90.5749 191.696 90.5729C191.718 90.5723 191.739 90.5744 191.758 90.5791C191.767 90.5772 191.774 90.5779 191.779 90.5812C191.797 90.5773 191.815 90.5777 191.834 90.5824C191.834 90.5824 191.839 90.5814 191.847 90.5795C191.861 90.5809 191.875 90.5823 191.889 90.5836C191.894 90.587 191.899 90.586 191.902 90.5807C191.916 90.5821 191.926 90.5844 191.931 90.5878C191.934 90.5825 191.939 90.5815 191.944 90.5849Z" fill="#907DC8"/>
<path d="M191.942 90.5837C191.943 90.5843 191.945 90.585 191.946 90.5853C191.964 90.5896 191.975 90.5891 191.978 90.584C191.983 90.5873 191.986 90.589 191.986 90.589L191.978 90.584C191.942 90.6098 191.382 90.9238 190.467 91.3141C190.221 91.4189 189.936 91.3002 189.877 91.0396C189.846 90.9176 189.826 90.7946 189.817 90.6707C189.815 90.6358 189.839 90.6045 189.874 90.6037C189.933 90.5989 189.992 90.5999 190.051 90.597C190.064 90.5963 190.077 90.5959 190.09 90.5955C190.092 90.5955 190.094 90.5954 190.096 90.5953C190.141 90.5933 190.186 90.5853 190.231 90.5841C190.252 90.5836 190.273 90.583 190.294 90.5825C190.297 90.5824 190.301 90.5817 190.305 90.5814C190.316 90.5805 190.326 90.5843 190.336 90.5839C190.497 90.5781 190.647 90.5726 190.787 90.5673C190.815 90.5701 190.843 90.5696 190.871 90.5677C190.886 90.5666 190.902 90.566 190.917 90.5658C190.935 90.5656 190.953 90.5691 190.97 90.5698C190.99 90.5705 191.008 90.5675 191.028 90.5675C191.048 90.5674 191.067 90.5668 191.086 90.5656C191.095 90.565 191.104 90.5653 191.113 90.5651C191.135 90.5648 191.158 90.5632 191.18 90.5654C191.194 90.5669 191.209 90.5675 191.223 90.5672C191.237 90.5669 191.251 90.5668 191.265 90.5682C191.265 90.5683 191.265 90.5683 191.266 90.5683C191.279 90.5696 191.292 90.5698 191.306 90.5687C191.325 90.5671 191.344 90.5655 191.364 90.564C191.374 90.5631 191.384 90.5665 191.394 90.5658C191.398 90.5655 191.402 90.5648 191.406 90.5649C191.51 90.5672 191.599 90.5707 191.675 90.5754C191.68 90.5757 191.682 90.576 191.687 90.5748C191.691 90.574 191.697 90.5728 191.701 90.5728C191.719 90.5727 191.735 90.5742 191.751 90.5774C191.756 90.5785 191.762 90.5781 191.767 90.578C191.776 90.578 191.784 90.5799 191.793 90.579C191.804 90.578 191.815 90.5786 191.827 90.5808C191.832 90.5817 191.834 90.5825 191.839 90.5814C191.842 90.5806 191.849 90.5797 191.853 90.58C191.863 90.5811 191.874 90.5822 191.885 90.5832C191.888 90.5835 191.891 90.5849 191.893 90.5854C191.9 90.5868 191.906 90.581 191.913 90.5821C191.915 90.5825 191.917 90.5829 191.919 90.5833C191.926 90.5849 191.935 90.5809 191.942 90.5837Z" fill="#A291D3"/>
<path d="M178.098 91.8764C178.231 92.7166 178.706 94.4213 179.547 94.5184C180.597 94.6397 189.388 92.3557 189.626 91.9554C189.8 91.6621 189.816 91.5258 189.8 91.4845L189.795 91.4754C189.797 91.4776 189.799 91.4806 189.8 91.4845L190.232 92.2383C189.587 92.6937 188.005 93.6397 186.837 93.7814L178.08 95.8141L177.185 91.9143L178.051 91.694L178.098 91.8764Z" fill="#E4E4E4"/>
<path d="M188.783 91.1458C188.995 91.977 188.492 92.8222 187.661 93.0336C186.83 93.2449 185.985 92.7425 185.773 91.9113C185.562 91.0801 186.064 90.2349 186.896 90.0235C187.727 89.8122 188.572 90.3147 188.783 91.1458Z" fill="#EAE3FF"/>
<path fill-rule="evenodd" clip-rule="evenodd" d="M187.625 92.8925C188.378 92.7009 188.834 91.935 188.642 91.1817C188.451 90.4285 187.685 89.9731 186.932 90.1646C186.178 90.3562 185.723 91.1221 185.914 91.8754C186.106 92.6287 186.872 93.084 187.625 92.8925ZM187.661 93.0336C188.492 92.8222 188.995 91.977 188.783 91.1458C188.572 90.3147 187.727 89.8122 186.896 90.0235C186.064 90.2349 185.562 91.0801 185.773 91.9113C185.985 92.7425 186.83 93.2449 187.661 93.0336Z" fill="#6C6C6C"/>
<path d="M185.955 91.9395C186.588 92.3626 187.864 93.0064 188.579 91.7229C188.57 92.4762 186.874 93.6836 185.955 91.9395Z" fill="#DBD0FA"/>
<path d="M188.36 91.2542C188.512 91.8517 188.151 92.4591 187.554 92.611C186.956 92.763 186.349 92.4018 186.197 91.8044C186.045 91.207 186.406 90.5995 187.004 90.4476C187.601 90.2957 188.208 90.6568 188.36 91.2542Z" fill="#A291D3"/>
<path fill-rule="evenodd" clip-rule="evenodd" d="M187.518 92.4699C188.037 92.3378 188.351 91.8096 188.219 91.2901C188.087 90.7706 187.559 90.4566 187.039 90.5887C186.52 90.7208 186.206 91.249 186.338 91.7685C186.47 92.288 186.998 92.6021 187.518 92.4699ZM187.554 92.611C188.151 92.4591 188.512 91.8517 188.36 91.2542C188.208 90.6568 187.601 90.2957 187.004 90.4476C186.406 90.5995 186.045 91.207 186.197 91.8044C186.349 92.4018 186.956 92.763 187.554 92.611Z" fill="#6C6C6C"/>
<path d="M186.711 92.0488C186.988 92.1203 187.62 92.1582 187.934 91.7379C187.814 92.1189 187.401 92.7146 186.711 92.0488Z" fill="#917EC8"/>
<path d="M185.502 91.9805C185.624 92.4591 185.335 92.9457 184.856 93.0674C184.377 93.1891 183.891 92.8998 183.769 92.4212C183.647 91.9426 183.937 91.456 184.415 91.3343C184.894 91.2126 185.381 91.5019 185.502 91.9805Z" fill="#EAE3FF"/>
<path fill-rule="evenodd" clip-rule="evenodd" d="M184.835 92.9862C185.269 92.8759 185.531 92.4349 185.421 92.0012C185.311 91.5675 184.87 91.3053 184.436 91.4156C184.002 91.5259 183.74 91.9669 183.85 92.4006C183.961 92.8343 184.402 93.0964 184.835 92.9862ZM184.856 93.0674C185.335 92.9457 185.624 92.4591 185.502 91.9805C185.381 91.5019 184.894 91.2126 184.415 91.3343C183.937 91.456 183.647 91.9426 183.769 92.4212C183.891 92.8998 184.377 93.1891 184.856 93.0674Z" fill="#6C6C6C"/>
<path d="M183.873 92.4375C184.238 92.6811 184.972 93.0518 185.384 92.3128C185.379 92.7465 184.402 93.4417 183.873 92.4375Z" fill="#DBD0FA"/>
<path d="M185.258 92.0424C185.345 92.3864 185.137 92.7361 184.793 92.8236C184.449 92.911 184.099 92.7031 184.012 92.3591C183.924 92.0152 184.132 91.6654 184.476 91.578C184.82 91.4905 185.17 91.6984 185.258 92.0424Z" fill="#A291D3"/>
<path fill-rule="evenodd" clip-rule="evenodd" d="M184.772 92.7423C185.072 92.6663 185.252 92.3622 185.176 92.0631C185.1 91.7639 184.796 91.5831 184.497 91.6592C184.198 91.7352 184.017 92.0394 184.093 92.3385C184.169 92.6376 184.473 92.8184 184.772 92.7423ZM184.793 92.8236C185.137 92.7361 185.345 92.3864 185.258 92.0424C185.17 91.6984 184.82 91.4905 184.476 91.578C184.132 91.6654 183.924 92.0152 184.012 92.3591C184.099 92.7031 184.449 92.911 184.793 92.8236Z" fill="#6C6C6C"/>
<path d="M184.309 92.5C184.468 92.5411 184.832 92.5629 185.013 92.321C184.944 92.5404 184.706 92.8833 184.309 92.5Z" fill="#917EC8"/>
</g>
<path fill-rule="evenodd" clip-rule="evenodd" d="M93.5345 143.582C98.9252 163.7 119.604 175.639 139.723 170.249C149.753 167.561 157.75 161.074 162.58 152.751L162.929 152.895L162.861 152.258C167.501 143.979 169.04 133.952 166.39 124.06C163.736 114.156 157.377 106.234 149.204 101.386L148.977 100.822L148.746 101.119C140.401 96.3259 130.232 94.706 120.201 97.3936C100.083 102.784 88.1438 123.463 93.5345 143.582ZM144.148 107.05C137.62 103.589 129.819 102.493 122.121 104.556C114.86 106.502 108.926 110.925 104.984 116.673L128.7 126.972L144.148 107.05ZM100.433 127.016C99.3503 131.695 99.3675 136.7 100.697 141.663C102.079 146.818 104.71 151.306 108.178 154.885L107.615 153.972L121.991 135.899L100.456 127.255L100.433 127.016ZM117.806 161.574C123.889 164.243 130.888 164.939 137.804 163.086C145.513 161.02 151.728 156.16 155.649 149.886L132.573 140.348L117.806 161.574ZM159.876 138.674C160.544 134.568 160.373 130.258 159.227 125.98C158.09 121.737 156.107 117.946 153.507 114.742L139.329 131.453L159.876 138.674Z" fill="url(#paint8_linear_8066_65547)"/>
<defs>
<linearGradient id="paint0_linear_8066_65547" x1="102.838" y1="175.336" x2="102.838" y2="24.5909" gradientUnits="userSpaceOnUse">
<stop stop-color="#774BF0" stop-opacity="0.31"/>
<stop offset="1" stop-color="#FCFBFF" stop-opacity="0"/>
</linearGradient>
<linearGradient id="paint1_linear_8066_65547" x1="102.839" y1="175.338" x2="102.839" y2="24.5921" gradientUnits="userSpaceOnUse">
<stop stop-color="#774BF0"/>
<stop offset="1" stop-color="#FCFBFF"/>
</linearGradient>
<linearGradient id="paint2_linear_8066_65547" x1="65.5381" y1="100.854" x2="65.5381" y2="144.976" gradientUnits="userSpaceOnUse">
<stop stop-color="#A599CE"/>
<stop offset="1" stop-color="#7E6DB1"/>
</linearGradient>
<linearGradient id="paint3_linear_8066_65547" x1="141.249" y1="100.854" x2="141.249" y2="144.976" gradientUnits="userSpaceOnUse">
<stop stop-color="#A599CE"/>
<stop offset="1" stop-color="#7E6DB1"/>
</linearGradient>
<linearGradient id="paint4_linear_8066_65547" x1="103.189" y1="81.8633" x2="103.189" y2="149.537" gradientUnits="userSpaceOnUse">
<stop stop-color="#E1DAF9"/>
<stop offset="1" stop-color="#B2A4DD"/>
</linearGradient>
<linearGradient id="paint5_linear_8066_65547" x1="103.19" y1="60.1387" x2="103.19" y2="114.492" gradientUnits="userSpaceOnUse">
<stop stop-color="#C2B7E7"/>
<stop offset="1" stop-color="#B6A8DF"/>
</linearGradient>
<linearGradient id="paint6_linear_8066_65547" x1="172.263" y1="103.315" x2="156.909" y2="99.2963" gradientUnits="userSpaceOnUse">
<stop stop-color="#9481CA"/>
<stop offset="1" stop-color="white" stop-opacity="0"/>
</linearGradient>
<linearGradient id="paint7_linear_8066_65547" x1="44.4178" y1="115.175" x2="55.2626" y2="136.766" gradientUnits="userSpaceOnUse">
<stop stop-color="#9481CA"/>
<stop offset="1" stop-color="white" stop-opacity="0"/>
</linearGradient>
<linearGradient id="paint8_linear_8066_65547" x1="184.111" y1="106.102" x2="93.5345" y2="143.582" gradientUnits="userSpaceOnUse">
<stop stop-color="#FC8223"/>
<stop offset="1" stop-color="#FC8223" stop-opacity="0"/>
</linearGradient>
</defs>
</svg>
