<svg width="282" height="244" viewBox="0 0 282 244" fill="none" xmlns="http://www.w3.org/2000/svg">
<path d="M264.115 190.229C249.584 215.289 226.702 237.337 201.004 242.222C170.235 248.059 149.203 238.912 120.207 223.762C114.073 220.507 107.696 217.733 101.134 215.464C88.2163 211.086 73.5221 208.726 55.9983 210.37C38.5657 212.02 25.3522 204.746 14.4261 195.546C11.0544 192.717 8.24764 188.83 6.04692 184.238C-4.11376 163.142 -1.77635 127.128 15.392 109.481C33.6175 90.7638 60.1993 101.28 73.882 78.3751C80.1652 67.8362 90.0571 73.8187 95.2969 62.9336C108.966 34.4882 126.704 25.5942 160.881 43.045C185.107 55.4292 180.155 55.6935 216.35 86.7861C242.568 109.322 257.736 102.656 263.595 116.166C270.99 133.275 278.554 165.342 264.115 190.229Z" fill="url(#paint0_linear_7854_64504)"/>
<mask id="mask0_7854_64504" style="mask-type:alpha" maskUnits="userSpaceOnUse" x="3" y="0" width="270" height="244">
<path d="M264.116 190.23C249.585 215.29 226.703 237.338 201.006 242.222C170.236 248.059 149.204 226.681 120.208 211.531C114.074 208.276 107.697 217.734 101.135 215.465C88.2174 211.086 73.5231 208.726 55.9994 210.371C38.5667 212.02 25.3533 204.746 14.4272 195.547C11.0555 192.717 8.24874 188.831 6.04802 184.238C-4.11266 163.142 19.9089 118.556 37.0772 100.91C55.3027 116.304 60.2003 67.1686 73.8831 44.2637C80.1663 33.7249 90.0582 39.7074 95.298 28.8222C108.967 0.376874 126.705 -8.51714 160.882 8.93372C185.108 21.3179 180.156 2.92618 216.351 34.0188C242.569 56.5545 257.737 34.4327 263.596 116.166C270.991 133.275 278.555 165.343 264.116 190.23Z" fill="url(#paint1_linear_7854_64504)"/>
</mask>
<g mask="url(#mask0_7854_64504)">
<path d="M159.036 195.677C159.036 195.677 159.252 197.36 158.672 198.127C158.071 198.905 147.964 201.001 145.11 201.178C144.854 201.198 144.51 201.227 144.116 201.267H144.097C140.219 201.641 130.85 202.94 130.85 202.94C130.85 202.94 137.749 203.028 139.511 203.146C139.511 203.146 139.737 203.058 140.19 202.93C141.154 202.664 143.113 205.134 145.967 204.849C150.159 204.426 152.393 205.124 152.698 205.37C152.993 205.616 152.698 207.437 152.511 207.988C152.324 208.539 143.467 211.265 141.351 211.63C141.302 211.63 141.253 211.649 141.193 211.649C138.841 211.846 130.585 208.48 128.36 208.48C126.136 208.48 108.245 208.835 105.784 208.116C103.334 207.388 101.936 207.988 101.936 207.988C101.936 207.988 94.5456 210.124 87.509 220.861C81.496 230.023 74.607 242.236 69.6864 255.984C69.6864 255.984 52.2082 242.876 49.7773 235.593C49.7773 235.593 49.9545 221.313 65.0314 205.882C66.7438 204.14 72.7273 196.808 74.3807 195.096C77.0772 192.321 82.7852 189.339 85.2061 186.82C85.2061 186.82 94.7325 172.579 96.504 170.345L96.5926 170.247C96.8583 169.991 97.3799 169.745 98.0589 169.528C101.956 168.259 111.561 167.471 115.429 166.241C119.976 164.785 128.085 160.14 128.538 160.14C128.99 160.14 130.496 162.777 130.398 164.558C130.309 166.33 127.012 171.27 122.83 172.304C120.438 172.904 117.515 177.559 115.025 177.421C114.917 177.421 114.809 177.401 114.701 177.392C114.514 177.392 114.258 177.372 113.943 177.352C112.526 177.293 111.335 177.323 110.567 177.657C108.884 178.385 108.225 176.85 107.999 178.484C107.92 179.025 107.89 179.37 107.89 179.37C107.89 179.37 120.881 179.803 127.612 179.714C132.248 179.645 136.056 179.291 138.103 179.035C138.379 178.996 138.635 178.956 138.841 178.937C139.117 178.907 139.333 178.868 139.481 178.838C139.481 178.838 139.57 178.838 139.599 178.818C139.668 178.818 139.707 178.799 139.707 178.799C140.072 178.71 144.628 174.971 148.988 174.528C153.357 174.075 158.544 175.502 158.642 176.289C158.731 177.077 158.002 179.439 157.55 180.167C157.097 180.895 146.36 182.174 141.075 183.906C140.131 184.212 139.137 184.507 138.123 184.773C133.468 186.022 128.606 186.82 128.606 186.82C128.606 186.82 134.866 188.089 139.481 188.719C140.829 188.906 142.04 189.034 142.906 189.063C146.734 189.181 148.486 188.758 152.678 188.994C156.861 189.231 161.467 190.697 161.723 191.425C161.959 192.154 161.388 194.456 160.591 195.096C159.794 195.736 159.026 195.696 159.026 195.696L159.036 195.677Z" fill="url(#paint2_linear_7854_64504)"/>
<path style="mix-blend-mode:color-burn" opacity="0.2" d="M121.896 163.445C121.896 163.445 120.262 164.361 120.301 165.227C120.351 166.093 125.478 166.545 129.326 163.682L121.896 163.445Z" fill="url(#paint3_linear_7854_64504)"/>
<path d="M74.3624 189.172C74.3624 189.172 103.531 209.465 105.873 211.315C108.215 213.165 98.4921 219.188 98.4921 219.188C98.4921 219.188 76.3016 239.589 70.8396 255.788C70.8396 255.788 50.2794 247.039 42.3965 232.474C42.3965 232.474 70.0322 192.98 74.3624 189.172Z" fill="url(#paint4_linear_7854_64504)"/>
<path d="M129.334 163.693C129.147 163.851 128.95 163.998 128.723 164.136C126.637 165.416 123.163 165.671 121.657 165.288C121.126 165.15 120.85 164.943 120.968 164.668C121.106 164.353 121.421 164.008 121.884 163.644C123.409 162.424 126.312 161.095 127.739 160.495C128.241 160.278 128.556 160.15 128.556 160.15C129.767 161.518 129.343 163.703 129.343 163.703L129.334 163.693Z" fill="#FEC0B9"/>
<path style="mix-blend-mode:color-burn" opacity="0.2" d="M115.036 172.49C114.927 172.49 114.819 172.471 114.711 172.461C114.927 172.461 115.055 172.481 115.055 172.481C115.055 172.481 115.049 172.481 115.036 172.481V172.49Z" fill="url(#paint5_linear_7854_64504)"/>
<path d="M124.179 185.344C124.179 185.344 122.082 185.885 119.632 185.885C119.632 185.885 121.994 188.07 124.179 185.344Z" fill="#FEB1A8"/>
<path d="M125.174 192.421C125.174 192.421 123.019 192.618 120.598 192.225C120.598 192.225 122.576 194.764 125.174 192.421Z" fill="#FEB1A8"/>
<g style="mix-blend-mode:soft-light" opacity="0.5">
<path d="M121.657 165.284C121.126 165.146 120.85 164.94 120.968 164.664C121.106 164.349 121.421 164.005 121.884 163.641C122.317 163.572 122.828 163.552 123.055 163.788C123.36 164.083 122.297 164.871 121.657 165.294V165.284Z" fill="white"/>
</g>
<g style="mix-blend-mode:soft-light" opacity="0.5">
<path d="M129.337 163.692C129.15 163.85 128.953 163.997 128.726 164.135C128.707 164.027 128.697 163.899 128.697 163.751C128.697 162.147 128.087 161.016 127.723 160.484C128.225 160.268 128.539 160.14 128.539 160.14C129.75 161.508 129.327 163.692 129.327 163.692H129.337Z" fill="white"/>
</g>
<path d="M146.686 82.9863L70.9414 101.188L129.577 119.352L146.686 115.399V82.9863Z" fill="url(#paint6_linear_7854_64504)"/>
<path d="M146.681 115.868L207.159 101.188L146.681 82.9863V115.868Z" fill="url(#paint7_linear_7854_64504)"/>
<path d="M129.659 119.391L207.165 101.188V182.804L129.659 203.942L129.659 119.391Z" fill="url(#paint8_linear_7854_64504)"/>
<path d="M207.05 141.884L148.943 149.375L129.97 118.958L207.05 101.17V141.884Z" fill="#B7A9E0"/>
<path d="M221.284 126.467L148.947 145.441L129.659 118.803L207.165 101.188L221.284 126.467Z" fill="url(#paint9_linear_7854_64504)"/>
<path d="M129.659 119.391L70.9427 101.188V182.804L129.659 203.942V119.391Z" fill="url(#paint10_linear_7854_64504)"/>
<path d="M70.9393 101.188L49.7285 124.491L107.835 145.045L129.656 118.803L70.9393 101.188Z" fill="url(#paint11_linear_7854_64504)"/>
<g style="mix-blend-mode:multiply" opacity="0.42">
<path d="M74.0786 184.428L97.6978 183.09C97.6978 183.09 105.935 184.566 109.094 184.428C112.253 184.29 118.493 178.061 118.493 178.061L108.484 177.116L123.216 168.367L124.948 161.36L111.387 160.72C111.387 160.72 117.026 155.553 123.069 150.328L122.321 146.854L83.113 152.503L73.4094 151.893C73.4094 151.893 85.5831 148.546 91.8717 142.878C98.1604 137.209 97.1172 134.257 97.1172 134.257L78.6352 139.227L68.3018 143.222L74.0786 184.438V184.428Z" fill="#5D656D"/>
</g>
<path d="M129.02 165.167C129.02 165.167 129.237 166.85 128.656 167.617C128.056 168.395 117.949 170.491 115.095 170.668C114.839 170.688 114.494 170.717 114.101 170.757H114.081C110.204 171.131 100.835 172.43 100.835 172.43C100.835 172.43 107.733 173.503 109.495 173.621C109.495 173.621 109.721 173.532 110.174 173.404C111.138 173.138 113.097 174.624 115.951 174.339C120.143 173.916 122.377 174.615 122.682 174.861C122.978 175.107 122.682 176.927 122.495 177.478C122.308 178.03 113.451 180.756 111.335 181.12C111.286 181.12 111.237 181.139 111.178 181.139C108.826 181.336 100.569 177.971 98.3448 177.971C96.1206 177.971 78.2291 178.325 75.7687 177.606C73.3182 176.878 71.9208 177.478 71.9208 177.478C71.9208 177.478 64.5299 179.614 57.4934 190.351C51.4803 199.513 44.5914 211.726 39.6707 225.475C39.6707 225.475 22.1925 212.366 19.7617 205.083C19.7617 205.083 20.4309 187.861 35.5079 172.43C37.2202 170.688 42.7117 166.299 44.365 164.586C47.0616 161.811 52.7695 158.829 55.1905 156.31C55.1905 156.31 64.7169 142.069 66.4884 139.835L66.5769 139.737C66.8427 139.481 67.3642 139.235 68.0433 139.019C71.9405 137.749 81.5456 136.962 85.4132 135.732C89.9599 134.275 98.0692 129.63 98.5219 129.63C98.9746 129.63 100.48 132.267 100.382 134.049C100.293 135.82 97.7543 143.851 93.5717 144.884C91.1803 145.484 87.4996 147.049 85.0098 146.911C84.9015 146.911 84.7932 146.892 84.685 146.882C84.498 146.882 84.2421 146.862 83.9272 146.842C82.5101 146.783 78.6424 148.525 77.8748 148.86C76.1919 149.588 78.2094 146.34 77.983 147.974C77.9043 148.515 77.8748 148.86 77.8748 148.86C77.8748 148.86 89.3006 146.449 96.032 146.36C100.667 146.291 106.041 144.372 108.088 144.116C108.363 144.077 108.619 144.038 108.826 144.018C109.101 143.988 109.318 143.949 109.465 143.92C109.465 143.92 109.554 143.919 109.584 143.9C109.652 143.9 109.692 143.88 109.692 143.88C110.056 143.792 114.612 144.461 118.972 144.018C123.342 143.565 128.528 144.992 128.627 145.78C128.715 146.567 127.987 148.929 127.534 149.657C127.081 150.385 116.345 151.665 111.06 153.397C110.115 153.702 109.121 153.997 108.107 154.263C103.452 155.513 98.5908 156.31 98.5908 156.31C98.5908 156.31 104.85 157.579 109.465 158.209C110.814 158.396 112.024 158.524 112.89 158.554C116.719 158.672 118.47 158.248 122.663 158.485C126.845 158.721 131.451 160.187 131.707 160.915C131.943 161.644 131.372 163.947 130.575 164.586C129.778 165.226 129.01 165.187 129.01 165.187L129.02 165.167Z" fill="url(#paint12_linear_7854_64504)"/>
<path d="M44.3467 158.662C44.3467 158.662 73.5152 178.955 75.8575 180.805C78.1997 182.655 68.4765 188.678 68.4765 188.678C68.4765 188.678 46.2859 209.079 40.824 225.278C40.824 225.278 20.2638 216.529 12.3809 201.964C12.3809 201.964 40.0166 162.471 44.3467 158.662Z" fill="url(#paint13_linear_7854_64504)"/>
<path style="mix-blend-mode:color-burn" opacity="0.2" d="M85.0201 141.981C84.9118 141.981 84.8036 141.961 84.6953 141.951C84.9118 141.951 85.0398 141.971 85.0398 141.971C85.0398 141.971 85.0332 141.971 85.0201 141.971V141.981Z" fill="url(#paint14_linear_7854_64504)"/>
<path d="M124.598 91.0788L124.299 91.4796L123.498 90.8817L123.797 90.481L124.598 91.0788ZM152.753 72.9292L153.246 72.8468L153.248 72.854L153.249 72.8612L152.753 72.9292ZM141.441 67.0016L141.874 67.2509L141.441 67.0016ZM125.047 88.8158C125.214 88.5956 125.528 88.5521 125.748 88.7187C125.968 88.8854 126.012 89.1989 125.845 89.4192L125.047 88.8158ZM128.388 86.1148C128.217 86.3322 127.903 86.3703 127.686 86.1999C127.468 86.0296 127.43 85.7153 127.601 85.498L128.388 86.1148ZM130.215 82.2326C130.39 82.019 130.705 81.9877 130.919 82.1627C131.132 82.3377 131.164 82.6528 130.989 82.8664L130.215 82.2326ZM133.669 79.6846C133.487 79.8931 133.172 79.9154 132.963 79.7344C132.755 79.5534 132.732 79.2376 132.913 79.0291L133.669 79.6846ZM135.721 75.9122C135.91 75.7109 136.226 75.7008 136.427 75.8898C136.629 76.0788 136.639 76.3953 136.45 76.5966L135.721 75.9122ZM139.366 73.6517C139.166 73.8418 138.849 73.8335 138.659 73.6331C138.469 73.4328 138.478 73.1163 138.678 72.9263L139.366 73.6517ZM141.866 70.1597C142.084 69.9903 142.398 70.0299 142.568 70.248C142.737 70.4661 142.698 70.7802 142.479 70.9496L141.866 70.1597ZM145.898 68.7681C145.648 68.8854 145.351 68.7778 145.233 68.5278C145.116 68.2778 145.224 67.9801 145.474 67.8628L145.898 68.7681ZM149.884 67.3057C150.144 67.3996 150.278 67.6862 150.184 67.9459C150.091 68.2056 149.804 68.34 149.544 68.2462L149.884 67.3057ZM151.784 71.0438C151.696 70.7821 151.837 70.4984 152.098 70.4101C152.36 70.3218 152.643 70.4623 152.732 70.7239L151.784 71.0438ZM153.491 75.0865C153.513 75.3618 153.307 75.6024 153.032 75.6239C152.757 75.6455 152.516 75.4398 152.494 75.1645L153.491 75.0865ZM152.45 79.4672C152.486 79.1933 152.736 79.0001 153.01 79.0357C153.284 79.0712 153.477 79.322 153.442 79.5958L152.45 79.4672ZM151.661 83.8858C151.462 84.0772 151.146 84.0711 150.954 83.8721C150.763 83.6731 150.769 83.3566 150.968 83.1651L151.661 83.8858ZM147.403 83.4908C147.656 83.6015 147.771 83.8963 147.66 84.1493C147.55 84.4023 147.255 84.5177 147.002 84.4071L147.403 83.4908ZM143.367 81.6103C143.184 81.4033 143.204 81.0873 143.411 80.9045C143.618 80.7217 143.934 80.7413 144.117 80.9483L143.367 81.6103ZM141.807 77.3857C141.923 77.6366 141.813 77.9335 141.562 78.0487C141.311 78.1639 141.014 78.0539 140.899 77.803L141.807 77.3857ZM139.664 73.4261C139.635 73.1515 139.833 72.905 140.108 72.8754C140.382 72.8458 140.629 73.0444 140.658 73.3189L139.664 73.4261ZM141.035 69.1668C140.953 69.4304 140.672 69.5775 140.409 69.4953C140.145 69.4131 139.998 69.1327 140.08 68.8691L141.035 69.1668ZM142.075 64.8764C142.21 64.6358 142.515 64.5506 142.756 64.6861C142.996 64.8215 143.081 65.1264 142.946 65.3671L142.075 64.8764ZM145.043 61.5838C144.911 61.8259 144.607 61.9146 144.365 61.7819C144.122 61.6491 144.034 61.3452 144.166 61.1031L145.043 61.5838ZM146.244 57.3142C146.377 57.0724 146.681 56.9846 146.923 57.1181C147.165 57.2515 147.252 57.5557 147.119 57.7975L146.244 57.3142ZM149.237 54.0461C149.098 54.2847 148.792 54.3654 148.554 54.2264C148.315 54.0873 148.234 53.7812 148.373 53.5426L149.237 54.0461ZM150.64 49.8385C150.79 49.6067 151.1 49.5405 151.332 49.6907C151.564 49.8408 151.63 50.1504 151.48 50.3821L150.64 49.8385ZM153.926 46.8639C153.76 47.0848 153.447 47.1297 153.226 46.964C153.005 46.7984 152.96 46.485 153.126 46.2641L153.926 46.8639ZM155.876 42.8832C156.059 42.6763 156.375 42.6567 156.582 42.8395C156.789 43.0223 156.808 43.3383 156.626 43.5453L155.876 42.8832ZM159.586 40.4559C159.387 40.6475 159.071 40.6417 158.879 40.4429C158.687 40.2441 158.693 39.9276 158.892 39.7359L159.586 40.4559ZM123.797 90.481C124.198 89.9427 124.616 89.3863 125.047 88.8158L125.845 89.4192C125.415 89.9876 124.999 90.5422 124.598 91.0788L123.797 90.481ZM127.601 85.498C128.443 84.4226 129.319 83.3267 130.215 82.2326L130.989 82.8664C130.097 83.9541 129.227 85.0443 128.388 86.1148L127.601 85.498ZM132.913 79.0291C133.842 77.9594 134.781 76.9129 135.721 75.9122L136.45 76.5966C135.521 77.5864 134.59 78.6231 133.669 79.6846L132.913 79.0291ZM138.678 72.9263C139.76 71.8999 140.828 70.9653 141.866 70.1597L142.479 70.9496C141.474 71.7303 140.43 72.6421 139.366 73.6517L138.678 72.9263ZM145.474 67.8628C147.048 67.1245 148.567 66.8298 149.884 67.3057L149.544 68.2462C148.593 67.9022 147.373 68.0765 145.898 68.7681L145.474 67.8628ZM152.732 70.7239C152.942 71.3464 153.114 72.0528 153.246 72.8468L152.26 73.0115C152.135 72.2599 151.974 71.6067 151.784 71.0438L152.732 70.7239ZM153.249 72.8612C153.356 73.6469 153.437 74.3881 153.491 75.0865L152.494 75.1645C152.441 74.4871 152.363 73.7653 152.258 72.9971L153.249 72.8612ZM153.442 79.5958C153.182 81.5937 152.567 83.014 151.661 83.8858L150.968 83.1651C151.646 82.5123 152.206 81.3465 152.45 79.4672L153.442 79.5958ZM147.002 84.4071C145.74 83.8553 144.478 82.868 143.367 81.6103L144.117 80.9483C145.158 82.1274 146.307 83.0118 147.403 83.4908L147.002 84.4071ZM140.899 77.803C140.272 76.4386 139.829 74.9533 139.664 73.4261L140.658 73.3189C140.81 74.7261 141.22 76.107 141.807 77.3857L140.899 77.803ZM140.08 68.8691C140.304 68.1506 140.61 67.4421 141.007 66.7522L141.874 67.2509C141.514 67.8763 141.238 68.5174 141.035 69.1668L140.08 68.8691ZM141.007 66.7522C141.373 66.1167 141.728 65.4916 142.075 64.8764L142.946 65.3671C142.598 65.9846 142.241 66.6124 141.874 67.2509L141.007 66.7522ZM144.166 61.1031C144.881 59.8001 145.568 58.5376 146.244 57.3142L147.119 57.7975C146.445 59.0194 145.76 60.2773 145.043 61.5838L144.166 61.1031ZM148.373 53.5426C149.111 52.2765 149.859 51.0447 150.64 49.8385L151.48 50.3821C150.709 51.5721 149.969 52.7901 149.237 54.0461L148.373 53.5426ZM153.126 46.2641C153.981 45.1234 154.89 43.9993 155.876 42.8832L156.626 43.5453C155.658 44.6402 154.766 45.7434 153.926 46.8639L153.126 46.2641ZM158.892 39.7359C159.405 39.2417 159.937 38.7475 160.49 38.2528L161.157 38.9981C160.613 39.4847 160.09 39.9704 159.586 40.4559L158.892 39.7359Z" fill="url(#paint15_linear_7854_64504)"/>
<path d="M157.821 37.227L151.771 44.8871C151.617 45.0571 151.36 45.0873 151.192 44.955C148.904 43.2257 145.713 43.6006 143.912 45.8318C143.861 45.8957 143.801 45.9389 143.731 45.9616C143.605 45.9981 143.474 45.9918 143.355 45.8973C143.163 45.746 143.135 45.5104 143.287 45.3189L149.299 37.7067C151.34 35.1214 155.13 34.6547 157.731 36.6511C157.731 36.6511 157.738 36.6503 157.753 36.6486C157.824 36.7053 157.88 36.8074 157.892 36.9145C157.905 37.0217 157.875 37.1338 157.821 37.227Z" fill="#A5B5B6"/>
<path d="M157.647 37.4221L151.77 44.8881C151.616 45.0582 151.359 45.0883 151.191 44.956C148.904 43.2267 145.712 43.6016 143.911 45.8329C143.86 45.8967 143.8 45.9399 143.73 45.9626L149.478 38.6856C151.444 36.1961 155.052 35.6638 157.647 37.4221Z" fill="#95A5A6"/>
<path d="M162.54 41.1671C162.647 41.1546 162.757 41.1634 162.831 41.2415C165.378 43.3312 165.802 47.1254 163.76 49.7106L157.748 57.3228C157.595 57.4929 157.359 57.5205 157.17 57.3907C157.05 57.2962 157.011 57.1488 157.018 57.0177C157.024 56.9446 157.052 56.8762 157.102 56.8123C158.855 54.5433 158.48 51.3515 156.268 49.5265C156.101 49.3941 156.07 49.1371 156.203 48.9695L162.253 41.3095C162.328 41.2137 162.433 41.1797 162.54 41.1671Z" fill="#A5B5B6"/>
<path d="M162.766 49.7394L157.019 57.0165C157.024 56.9434 157.053 56.8749 157.103 56.8111C158.856 54.5421 158.481 51.3502 156.269 49.5252C156.101 49.3929 156.071 49.1358 156.204 48.9683L162.102 41.4997C164.414 43.6171 164.732 47.2499 162.766 49.7394Z" fill="#95A5A6"/>
<path d="M173.065 23.3364L172.514 22.9016L176.255 18.1405L176.808 18.5968L173.065 23.3364Z" fill="#F7B23F"/>
<path d="M177.383 18.5097C177.14 18.8423 176.647 18.9001 176.334 18.6329C175.998 18.3683 175.943 17.897 176.21 17.5833C176.454 17.2507 176.946 17.1928 177.26 17.46C177.593 17.7033 177.648 18.1745 177.383 18.5097Z" fill="#C52E25"/>
<path d="M152.954 54.02C152.67 54.3791 152.135 54.442 151.776 54.1584L147.443 50.7364C147.084 50.4529 147.023 49.9387 147.307 49.5797L149.781 47.53C150.065 47.171 150.6 47.1081 150.959 47.3917L154.239 49.9817C154.382 50.0952 154.486 50.235 154.527 50.4039C154.6 50.6559 154.547 50.9445 154.377 51.1599L152.954 54.02Z" fill="#758586"/>
<path d="M153.524 49.6299L150.65 53.2684L148.544 51.6047L151.417 47.9662L153.524 49.6299Z" fill="#859596"/>
<path d="M156.73 50.8599C156.333 51.3626 155.583 51.4506 155.08 51.0536L149.718 46.8187C149.216 46.4217 149.128 45.672 149.525 45.1693L149.695 44.9538C150.092 44.4511 150.842 44.3631 151.344 44.7601L156.706 48.995C157.209 49.392 157.295 50.1203 156.9 50.6444L156.73 50.8599Z" fill="#C8BCEA"/>
<path d="M165.115 30.1351L151.898 46.846L149.624 45.05L156.221 36.6851L162.817 28.3201C164.349 26.3812 166.243 24.9425 168.032 23.9071C168.493 23.6359 168.935 23.3957 169.359 23.1866C169.62 23.6773 169.941 24.1318 170.323 24.5502C170.296 24.5678 170.27 24.5926 170.245 24.6245C169.655 25.1499 169.033 25.7659 168.391 26.4059C168.378 26.4219 168.359 26.4387 168.332 26.4563C168.179 26.6335 168.018 26.8044 167.849 26.969C167.811 27.0169 167.773 27.0577 167.733 27.0912C167.618 27.2206 167.496 27.3508 167.366 27.4818C167.316 27.5456 167.258 27.6103 167.194 27.6758C167.079 27.8052 166.956 27.9353 166.827 28.0664C166.789 28.1142 166.751 28.1621 166.714 28.21C166.561 28.3872 166.401 28.5653 166.233 28.7442C166.197 28.8063 166.153 28.8622 166.101 28.9117C165.973 29.057 165.853 29.2015 165.739 29.3451C165.689 29.409 165.638 29.4656 165.586 29.5152C165.422 29.7227 165.265 29.9293 165.115 30.1351Z" fill="white"/>
<path d="M170.021 34.0122L156.827 50.742L154.553 48.946L167.746 32.2161C169.524 29.966 170.932 27.7158 171.97 25.8347C172.466 26.1095 172.989 26.3087 173.539 26.4323C173.399 26.9699 173.242 27.5386 173.066 28.1383C172.466 30.0548 171.517 32.1425 170.021 34.0122Z" fill="white"/>
<path d="M170.321 24.5515C170.294 24.5691 170.268 24.5939 170.243 24.6258C170.268 24.5939 170.294 24.5691 170.321 24.5515Z" fill="#BEB0E4"/>
<path d="M167.746 32.2158L154.553 48.9456L151.896 46.8471L165.113 30.1361C165.263 29.9304 165.42 29.7238 165.583 29.5163C165.636 29.4667 165.687 29.41 165.737 29.3462C165.851 29.2026 165.971 29.0581 166.099 28.9128C166.151 28.8633 166.195 28.8074 166.231 28.7453C166.399 28.5664 166.559 28.3883 166.711 28.2111C166.749 28.1632 166.787 28.1153 166.825 28.0675C166.954 27.9364 167.077 27.8063 167.192 27.6769C167.256 27.6114 167.314 27.5467 167.364 27.4829C167.494 27.3519 167.616 27.2217 167.731 27.0923C167.771 27.0587 167.809 27.018 167.847 26.9701C168.016 26.8055 168.177 26.6346 168.33 26.4574C168.357 26.4398 168.376 26.423 168.389 26.407C168.725 26.0635 169.056 25.7351 169.381 25.4218C169.681 25.1405 169.968 24.8751 170.243 24.6256C170.268 24.5937 170.294 24.5689 170.321 24.5513C170.539 24.8008 170.782 25.0256 171.052 25.2256C171.355 25.465 171.661 25.668 171.97 25.8344C170.932 27.7154 169.524 29.9656 167.746 32.2158Z" fill="white"/>
<path d="M170.322 24.5495C169.94 24.131 169.619 23.6765 169.358 23.1859C171.92 21.886 174.037 21.4202 174.142 21.3862C174.143 21.4005 174.124 21.4172 174.083 21.4366C174.068 21.4382 174.062 21.4462 174.064 21.4605C174.049 21.4622 174.029 21.4718 174.002 21.4895C174.004 21.5038 173.997 21.5117 173.983 21.5134C173.956 21.531 173.929 21.5487 173.902 21.5663C173.89 21.5823 173.883 21.5903 173.883 21.5903C173.842 21.6096 173.809 21.6352 173.784 21.6671C173.77 21.6688 173.756 21.6776 173.744 21.6935C173.702 21.7129 173.662 21.7393 173.623 21.7729C173.61 21.7889 173.604 21.7968 173.604 21.7968C173.457 21.901 173.284 22.0299 173.084 22.1836C173.072 22.1995 173.058 22.2084 173.044 22.21C172.992 22.2596 172.94 22.3091 172.888 22.3587C172.861 22.3763 172.834 22.394 172.807 22.4116C172.755 22.4612 172.695 22.5044 172.627 22.5414C172.602 22.5733 172.576 22.5981 172.549 22.6157C172.497 22.6652 172.438 22.7156 172.371 22.7669C172.346 22.7988 172.313 22.8244 172.272 22.8437C172.205 22.8949 172.14 22.9533 172.075 23.0188C172.048 23.0365 172.021 23.0541 171.994 23.0717C171.745 23.2892 171.476 23.5236 171.186 23.7747C171.172 23.7764 171.159 23.7852 171.146 23.8011C171.067 23.8683 170.988 23.9355 170.909 24.0027C170.871 24.0506 170.833 24.0913 170.793 24.1249C170.714 24.1921 170.642 24.2584 170.578 24.324C170.524 24.3592 170.471 24.4016 170.419 24.4512C170.379 24.4848 170.347 24.5175 170.322 24.5495Z" fill="#BEB0E4"/>
<path d="M170.42 24.4523C170.38 24.4859 170.348 24.5186 170.323 24.5505C170.348 24.5186 170.38 24.4859 170.42 24.4523Z" fill="#BEB0E4"/>
<g style="mix-blend-mode:multiply">
<path d="M170.42 24.4523C170.38 24.4859 170.348 24.5186 170.323 24.5505C170.348 24.5186 170.38 24.4859 170.42 24.4523Z" fill="#8F7CC7"/>
</g>
<path d="M171.185 23.7756C171.474 23.5245 171.743 23.2902 171.993 23.0726C171.743 23.2902 171.474 23.5245 171.185 23.7756Z" fill="#BEB0E4"/>
<g style="mix-blend-mode:multiply">
<path d="M171.185 23.7756C171.474 23.5245 171.743 23.2902 171.993 23.0726C171.743 23.2902 171.474 23.5245 171.185 23.7756Z" fill="#8F7CC7"/>
</g>
<path d="M170.911 24.0034C170.99 23.9362 171.069 23.869 171.148 23.8018C171.069 23.869 170.99 23.9362 170.911 24.0034Z" fill="#BEB0E4"/>
<g style="mix-blend-mode:multiply">
<path d="M170.911 24.0034C170.99 23.9362 171.069 23.869 171.148 23.8018C171.069 23.869 170.99 23.9362 170.911 24.0034Z" fill="#8F7CC7"/>
</g>
<path d="M170.578 24.3257C170.642 24.2602 170.714 24.1938 170.793 24.1266C170.714 24.1938 170.642 24.2602 170.578 24.3257Z" fill="#BEB0E4"/>
<g style="mix-blend-mode:multiply">
<path d="M170.578 24.3257C170.642 24.2602 170.714 24.1938 170.793 24.1266C170.714 24.1938 170.642 24.2602 170.578 24.3257Z" fill="#8F7CC7"/>
</g>
<path d="M172.075 23.023C172.14 22.9575 172.205 22.8991 172.272 22.8479C172.205 22.8991 172.14 22.9575 172.075 23.023Z" fill="#BEB0E4"/>
<g style="mix-blend-mode:multiply">
<path d="M172.075 23.023C172.14 22.9575 172.205 22.8991 172.272 22.8479C172.205 22.8991 172.14 22.9575 172.075 23.023Z" fill="#8F7CC7"/>
</g>
<path d="M172.371 22.7692C172.437 22.7179 172.496 22.6675 172.548 22.618C172.496 22.6675 172.437 22.7179 172.371 22.7692Z" fill="#BEB0E4"/>
<g style="mix-blend-mode:multiply">
<path d="M172.371 22.7692C172.437 22.7179 172.496 22.6675 172.548 22.618C172.496 22.6675 172.437 22.7179 172.371 22.7692Z" fill="#8F7CC7"/>
</g>
<path d="M174.003 21.4921C174.029 21.4745 174.05 21.4648 174.064 21.4632C174.05 21.4648 174.029 21.4745 174.003 21.4921Z" fill="#BEB0E4"/>
<g style="mix-blend-mode:multiply">
<path d="M174.003 21.4921C174.029 21.4745 174.05 21.4648 174.064 21.4632C174.05 21.4648 174.029 21.4745 174.003 21.4921Z" fill="#8F7CC7"/>
</g>
<path d="M171.971 25.8355C173.389 23.3018 174.111 21.5013 174.142 21.3892C174.157 21.5177 174.168 23.6447 173.54 26.4331C172.989 26.3095 172.467 26.1103 171.971 25.8355Z" fill="#BEB0E4"/>
<path d="M174.141 21.3899C174.143 21.4042 174.123 21.421 174.082 21.4403C174.123 21.421 174.143 21.4042 174.141 21.3899Z" fill="#BEB0E4"/>
<g style="mix-blend-mode:multiply">
<path d="M174.141 21.3899C174.143 21.4042 174.123 21.421 174.082 21.4403C174.123 21.421 174.143 21.4042 174.141 21.3899Z" fill="#8F7CC7"/>
</g>
<path d="M173.903 21.5692C173.93 21.5516 173.957 21.5339 173.984 21.5163C173.957 21.5339 173.93 21.5516 173.903 21.5692Z" fill="#BEB0E4"/>
<g style="mix-blend-mode:multiply">
<path d="M173.903 21.5692C173.93 21.5516 173.957 21.5339 173.984 21.5163C173.957 21.5339 173.93 21.5516 173.903 21.5692Z" fill="#8F7CC7"/>
</g>
<path d="M173.083 22.1866C173.282 22.0329 173.455 21.904 173.602 21.7998C173.455 21.904 173.282 22.0329 173.083 22.1866Z" fill="#BEB0E4"/>
<g style="mix-blend-mode:multiply">
<path d="M173.083 22.1866C173.282 22.0329 173.455 21.904 173.602 21.7998C173.455 21.904 173.282 22.0329 173.083 22.1866Z" fill="#8F7CC7"/>
</g>
<path d="M172.886 22.3619C172.938 22.3124 172.99 22.2628 173.042 22.2133C172.99 22.2628 172.938 22.3124 172.886 22.3619Z" fill="#BEB0E4"/>
<g style="mix-blend-mode:multiply">
<path d="M172.886 22.3619C172.938 22.3124 172.99 22.2628 173.042 22.2133C172.99 22.2628 172.938 22.3124 172.886 22.3619Z" fill="#8F7CC7"/>
</g>
<path d="M173.785 21.6697C173.81 21.6378 173.843 21.6122 173.884 21.5929C173.843 21.6122 173.81 21.6378 173.785 21.6697Z" fill="#BEB0E4"/>
<g style="mix-blend-mode:multiply">
<path d="M173.785 21.6697C173.81 21.6378 173.843 21.6122 173.884 21.5929C173.843 21.6122 173.81 21.6378 173.785 21.6697Z" fill="#8F7CC7"/>
</g>
<path d="M172.628 22.5417C172.696 22.5047 172.756 22.4615 172.808 22.4119C172.756 22.4615 172.696 22.5047 172.628 22.5417Z" fill="#BEB0E4"/>
<g style="mix-blend-mode:multiply">
<path d="M172.628 22.5417C172.696 22.5047 172.756 22.4615 172.808 22.4119C172.756 22.4615 172.696 22.5047 172.628 22.5417Z" fill="#8F7CC7"/>
</g>
<path d="M173.622 21.7742C173.661 21.7406 173.702 21.7142 173.743 21.6949C173.702 21.7142 173.661 21.7406 173.622 21.7742Z" fill="#BEB0E4"/>
<g style="mix-blend-mode:multiply">
<path d="M173.622 21.7742C173.661 21.7406 173.702 21.7142 173.743 21.6949C173.702 21.7142 173.661 21.7406 173.622 21.7742Z" fill="#8F7CC7"/>
</g>
<path d="M170.796 24.1296C170.835 24.096 170.874 24.0552 170.912 24.0074C170.874 24.0552 170.835 24.096 170.796 24.1296Z" fill="#907DC8"/>
<g style="mix-blend-mode:multiply">
<path d="M170.796 24.1296C170.835 24.096 170.874 24.0552 170.912 24.0074C170.874 24.0552 170.835 24.096 170.796 24.1296Z" fill="#8F7CC7"/>
</g>
<path d="M173.883 21.5928C173.883 21.5928 173.89 21.5844 173.903 21.5677C173.89 21.5844 173.883 21.5928 173.883 21.5928Z" fill="#907DC8"/>
<g style="mix-blend-mode:multiply">
<path d="M173.883 21.5928C173.883 21.5928 173.89 21.5844 173.903 21.5677C173.89 21.5844 173.883 21.5928 173.883 21.5928Z" fill="#8F7CC7"/>
</g>
<path d="M173.744 21.6957C173.757 21.6794 173.77 21.6704 173.785 21.6687C173.77 21.6704 173.757 21.6794 173.744 21.6957Z" fill="#907DC8"/>
<g style="mix-blend-mode:multiply">
<path d="M173.744 21.6957C173.757 21.6794 173.77 21.6704 173.785 21.6687C173.77 21.6704 173.757 21.6794 173.744 21.6957Z" fill="#8F7CC7"/>
</g>
<path d="M173.603 21.7978C173.603 21.7978 173.61 21.7895 173.623 21.7728C173.61 21.7895 173.603 21.7978 173.603 21.7978Z" fill="#907DC8"/>
<g style="mix-blend-mode:multiply">
<path d="M173.603 21.7978C173.603 21.7978 173.61 21.7895 173.623 21.7728C173.61 21.7895 173.603 21.7978 173.603 21.7978Z" fill="#8F7CC7"/>
</g>
<path d="M170.417 24.4528C170.469 24.4033 170.522 24.3608 170.576 24.3256C170.522 24.3608 170.469 24.4033 170.417 24.4528Z" fill="#907DC8"/>
<g style="mix-blend-mode:multiply">
<path d="M170.417 24.4528C170.469 24.4033 170.522 24.3608 170.576 24.3256C170.522 24.3608 170.469 24.4033 170.417 24.4528Z" fill="#8F7CC7"/>
</g>
<path d="M173.983 21.5176C173.998 21.5158 174.005 21.5074 174.003 21.4925C174.005 21.5074 173.998 21.5158 173.983 21.5176Z" fill="#907DC8"/>
<g style="mix-blend-mode:multiply">
<path d="M173.983 21.5176C173.998 21.5158 174.005 21.5074 174.003 21.4925C174.005 21.5074 173.998 21.5158 173.983 21.5176Z" fill="#8F7CC7"/>
</g>
<path d="M173.044 22.2142C173.058 22.2125 173.072 22.2035 173.085 22.1873C173.072 22.2035 173.058 22.2125 173.044 22.2142Z" fill="#907DC8"/>
<g style="mix-blend-mode:multiply">
<path d="M173.044 22.2142C173.058 22.2125 173.072 22.2035 173.085 22.1873C173.072 22.2035 173.058 22.2125 173.044 22.2142Z" fill="#8F7CC7"/>
</g>
<path d="M174.063 21.4648C174.061 21.4499 174.068 21.4415 174.083 21.4397C174.068 21.4415 174.061 21.4499 174.063 21.4648Z" fill="#907DC8"/>
<g style="mix-blend-mode:multiply">
<path d="M174.063 21.4648C174.061 21.4499 174.068 21.4415 174.083 21.4397C174.068 21.4415 174.061 21.4499 174.063 21.4648Z" fill="#8F7CC7"/>
</g>
<path d="M171.147 23.8031C171.16 23.7868 171.174 23.7778 171.188 23.7761C171.174 23.7778 171.16 23.7868 171.147 23.8031Z" fill="#907DC8"/>
<g style="mix-blend-mode:multiply">
<path d="M171.147 23.8031C171.16 23.7868 171.174 23.7778 171.188 23.7761C171.174 23.7778 171.16 23.7868 171.147 23.8031Z" fill="#8F7CC7"/>
</g>
<path d="M171.995 23.0731C172.022 23.0555 172.049 23.0378 172.076 23.0202C172.049 23.0378 172.022 23.0555 171.995 23.0731Z" fill="#907DC8"/>
<g style="mix-blend-mode:multiply">
<path d="M171.995 23.0731C172.022 23.0555 172.049 23.0378 172.076 23.0202C172.049 23.0378 172.022 23.0555 171.995 23.0731Z" fill="#8F7CC7"/>
</g>
<path d="M172.808 22.412C172.835 22.3944 172.862 22.3767 172.888 22.3591C172.862 22.3767 172.835 22.3944 172.808 22.412Z" fill="#907DC8"/>
<g style="mix-blend-mode:multiply">
<path d="M172.808 22.412C172.835 22.3944 172.862 22.3767 172.888 22.3591C172.862 22.3767 172.835 22.3944 172.808 22.412Z" fill="#8F7CC7"/>
</g>
<path d="M172.27 22.8455C172.311 22.8262 172.345 22.8006 172.37 22.7687C172.345 22.8006 172.311 22.8262 172.27 22.8455Z" fill="#907DC8"/>
<g style="mix-blend-mode:multiply">
<path d="M172.27 22.8455C172.311 22.8262 172.345 22.8006 172.37 22.7687C172.345 22.8006 172.311 22.8262 172.27 22.8455Z" fill="#8F7CC7"/>
</g>
<path d="M172.55 22.618C172.576 22.6003 172.602 22.5756 172.628 22.5436C172.602 22.5756 172.576 22.6003 172.55 22.618Z" fill="#907DC8"/>
<g style="mix-blend-mode:multiply">
<path d="M172.55 22.618C172.576 22.6003 172.602 22.5756 172.628 22.5436C172.602 22.5756 172.576 22.6003 172.55 22.618Z" fill="#8F7CC7"/>
</g>
<path d="M174.083 21.4398C174.124 21.4205 174.144 21.4037 174.142 21.3894C174.156 21.3877 174.164 21.3869 174.164 21.3869C174.149 21.3886 174.142 21.3894 174.142 21.3894C174.112 21.5016 173.39 23.3021 171.971 25.8358C171.662 25.6694 171.356 25.4665 171.053 25.227C170.783 25.027 170.54 24.8022 170.322 24.5527C170.348 24.5208 170.38 24.488 170.419 24.4544C170.471 24.4049 170.524 24.3625 170.578 24.3272C170.643 24.2617 170.715 24.1953 170.794 24.1282C170.833 24.0946 170.872 24.0538 170.91 24.0059C170.989 23.9388 171.068 23.8716 171.147 23.8044C171.159 23.7884 171.173 23.7796 171.187 23.7779C171.476 23.5268 171.745 23.2925 171.995 23.075C172.022 23.0573 172.048 23.0397 172.075 23.0221C172.14 22.9566 172.206 22.8982 172.272 22.8469C172.313 22.8276 172.346 22.802 172.372 22.7701C172.438 22.7189 172.497 22.6685 172.549 22.6189C172.576 22.6013 172.602 22.5765 172.627 22.5446C172.695 22.5077 172.755 22.4644 172.808 22.4149C172.834 22.3972 172.861 22.3796 172.888 22.3619C172.94 22.3124 172.992 22.2628 173.045 22.2133C173.059 22.2116 173.072 22.2028 173.085 22.1868C173.284 22.0331 173.457 21.9042 173.604 21.8001C173.604 21.8001 173.61 21.7921 173.623 21.7762C173.662 21.7426 173.703 21.7161 173.744 21.6968C173.757 21.6808 173.77 21.672 173.784 21.6703C173.809 21.6384 173.843 21.6128 173.884 21.5935C173.884 21.5935 173.89 21.5855 173.903 21.5696C173.93 21.5519 173.957 21.5343 173.983 21.5167C173.998 21.515 174.004 21.507 174.002 21.4927C174.029 21.4751 174.05 21.4654 174.064 21.4637C174.062 21.4495 174.069 21.4415 174.083 21.4398Z" fill="#907DC8"/>
<path d="M174.077 21.4409C174.081 21.44 174.084 21.4391 174.087 21.4377C174.126 21.4193 174.144 21.4032 174.142 21.3894C174.156 21.3877 174.164 21.3869 174.164 21.3869L174.142 21.3894C174.116 21.4867 173.569 22.8533 172.5 24.8666C172.213 25.4074 171.533 25.6065 171.053 25.227C170.821 25.0549 170.608 24.8644 170.415 24.6556C170.36 24.5968 170.358 24.5064 170.419 24.4544C170.518 24.3611 170.625 24.2772 170.726 24.187C170.748 24.1675 170.77 24.1479 170.794 24.1282C170.797 24.1253 170.8 24.1224 170.804 24.1195C170.881 24.051 170.949 23.9722 171.028 23.9052C171.065 23.8742 171.101 23.8432 171.137 23.8122C171.143 23.807 171.15 23.7996 171.156 23.794C171.173 23.7771 171.197 23.7694 171.215 23.7533C171.493 23.5115 171.753 23.2854 171.995 23.075C172.048 23.0398 172.098 22.9985 172.145 22.9549C172.171 22.9302 172.198 22.9067 172.225 22.8843C172.256 22.859 172.293 22.8393 172.325 22.8154C172.361 22.7887 172.39 22.7566 172.424 22.7285C172.46 22.6992 172.494 22.6702 172.525 22.6415C172.541 22.6266 172.557 22.6149 172.574 22.6008C172.612 22.569 172.65 22.5333 172.692 22.5061C172.72 22.4876 172.747 22.4679 172.772 22.447C172.796 22.4263 172.821 22.406 172.848 22.3884C172.849 22.388 172.849 22.3876 172.85 22.3871C172.875 22.3704 172.899 22.3514 172.922 22.3303C172.954 22.2996 172.986 22.2689 173.018 22.2382C173.035 22.222 173.057 22.2141 173.074 22.1982C173.081 22.1922 173.088 22.1841 173.095 22.1787C173.284 22.0336 173.448 21.9109 173.589 21.8105C173.599 21.8036 173.603 21.8011 173.611 21.7917C173.616 21.7852 173.626 21.7734 173.633 21.7682C173.664 21.7426 173.696 21.7214 173.728 21.7047C173.738 21.6993 173.749 21.6897 173.758 21.6822C173.774 21.6695 173.791 21.661 173.805 21.6469C173.823 21.6295 173.844 21.6144 173.868 21.6016C173.878 21.596 173.883 21.5944 173.89 21.5851C173.896 21.5786 173.906 21.5673 173.913 21.5627C173.934 21.5491 173.955 21.5356 173.975 21.522C173.981 21.5185 173.988 21.5168 173.993 21.5138C174.007 21.5066 174.01 21.4871 174.024 21.4795C174.028 21.4772 174.032 21.4751 174.036 21.4733C174.051 21.4661 174.061 21.4454 174.077 21.4409Z" fill="#A291D3"/>
<path d="M151.256 43.6805C152.702 44.9873 156.005 47.3416 157.643 46.3044C159.691 45.008 172.073 28.2774 171.921 27.2209C171.81 26.447 171.642 26.1806 171.554 26.1301L171.532 26.1214C171.539 26.1226 171.546 26.1255 171.554 26.1301L173.409 26.8526C172.915 28.5931 171.457 32.5577 169.579 34.4924L156.893 50.7269L149.683 45.0627L150.91 43.4221L151.256 43.6805Z" fill="#E4E4E4"/>
<path d="M169.263 26.9847C170.837 28.1621 171.158 30.3925 169.981 31.9662C168.803 33.54 166.573 33.8613 164.999 32.6838C163.425 31.5063 163.104 29.276 164.281 27.7022C165.459 26.1284 167.689 25.8072 169.263 26.9847Z" fill="#EAE3FF"/>
<path fill-rule="evenodd" clip-rule="evenodd" d="M169.713 31.7664C170.781 30.3401 170.489 28.3189 169.063 27.2518C167.637 26.1847 165.616 26.4758 164.549 27.9021C163.481 29.3283 163.773 31.3495 165.199 32.4166C166.625 33.4837 168.646 33.1926 169.713 31.7664ZM169.981 31.9662C171.158 30.3925 170.837 28.1621 169.263 26.9847C167.689 25.8072 165.459 26.1284 164.281 27.7022C163.104 29.276 163.425 31.5063 164.999 32.6838C166.573 33.8613 168.803 33.54 169.981 31.9662Z" fill="#6C6C6C"/>
<path d="M165.366 32.4727C167.105 32.3149 170.305 31.6262 169.732 28.3082C170.801 29.6638 169.517 34.2584 165.366 32.4727Z" fill="#DBD0FA"/>
<path d="M168.662 27.7867C169.793 28.633 170.024 30.2361 169.177 31.3672C168.331 32.4984 166.728 32.7293 165.597 31.883C164.466 31.0367 164.235 29.4336 165.081 28.3025C165.928 27.1713 167.531 26.9404 168.662 27.7867Z" fill="#A291D3"/>
<path fill-rule="evenodd" clip-rule="evenodd" d="M168.91 31.1674C169.646 30.1838 169.445 28.7898 168.462 28.0539C167.478 27.3179 166.084 27.5187 165.348 28.5023C164.612 29.4859 164.813 30.8799 165.797 31.6158C166.78 32.3518 168.174 32.151 168.91 31.1674ZM169.177 31.3672C170.024 30.2361 169.793 28.633 168.662 27.7867C167.531 26.9404 165.928 27.1713 165.081 28.3025C164.235 29.4336 164.466 31.0367 165.597 31.883C166.728 32.7293 168.331 32.4984 169.177 31.3672Z" fill="#6C6C6C"/>
<path d="M166.866 31.5791C167.463 31.3078 168.644 30.4649 168.598 29.2638C168.933 30.1161 169.055 31.7723 166.866 31.5791Z" fill="#917EC8"/>
<path d="M164.612 33.2021C165.518 33.88 165.703 35.1641 165.025 36.0703C164.348 36.9764 163.063 37.1613 162.157 36.4834C161.251 35.8054 161.066 34.5213 161.744 33.6152C162.422 32.7091 163.706 32.5241 164.612 33.2021Z" fill="#EAE3FF"/>
<path fill-rule="evenodd" clip-rule="evenodd" d="M164.872 35.9552C165.486 35.134 165.318 33.9703 164.497 33.3559C163.676 32.7415 162.512 32.9091 161.898 33.7303C161.284 34.5514 161.451 35.7152 162.272 36.3296C163.094 36.944 164.257 36.7763 164.872 35.9552ZM165.025 36.0703C165.703 35.1641 165.518 33.88 164.612 33.2021C163.706 32.5241 162.422 32.7091 161.744 33.6152C161.066 34.5213 161.251 35.8054 162.157 36.4834C163.063 37.1613 164.348 36.9764 165.025 36.0703Z" fill="#6C6C6C"/>
<path d="M162.367 36.3633C163.368 36.2725 165.211 35.8759 164.881 33.9655C165.497 34.746 164.757 37.3914 162.367 36.3633Z" fill="#DBD0FA"/>
<path d="M164.267 33.6654C164.918 34.1527 165.051 35.0757 164.564 35.727C164.077 36.3782 163.154 36.5112 162.502 36.0239C161.851 35.5366 161.718 34.6136 162.206 33.9624C162.693 33.3111 163.616 33.1782 164.267 33.6654Z" fill="#A291D3"/>
<path fill-rule="evenodd" clip-rule="evenodd" d="M164.41 35.6119C164.834 35.0456 164.718 34.243 164.152 33.8193C163.586 33.3955 162.783 33.5111 162.359 34.0775C161.936 34.6438 162.051 35.4464 162.618 35.8701C163.184 36.2938 163.986 36.1782 164.41 35.6119ZM164.564 35.727C165.051 35.0757 164.918 34.1527 164.267 33.6654C163.616 33.1782 162.693 33.3111 162.206 33.9624C161.718 34.6136 161.851 35.5366 162.502 36.0239C163.154 36.5112 164.077 36.3782 164.564 35.727Z" fill="#6C6C6C"/>
<path d="M163.232 35.8496C163.576 35.6934 164.256 35.2081 164.23 34.5166C164.422 35.0073 164.493 35.9608 163.232 35.8496Z" fill="#917EC8"/>
</g>
<path d="M249.982 135.84C249.982 144.599 257.138 151.699 265.966 151.699C274.794 151.699 281.949 144.599 281.949 135.84C281.949 127.082 274.794 119.982 265.966 119.982C257.138 119.982 249.982 127.082 249.982 135.84Z" fill="url(#paint16_radial_7854_64504)"/>
<path d="M253.176 135.681C253.176 136.311 253.221 136.937 253.309 137.544C253.309 137.546 253.309 137.548 253.309 137.55C253.396 138.159 253.527 138.754 253.697 139.333C253.973 140.296 254.364 141.211 254.845 142.067C255.193 142.688 255.59 143.276 256.03 143.827C258.455 146.867 262.204 148.816 266.415 148.816C267.156 148.816 267.886 148.754 268.593 148.637C269.127 148.551 269.648 148.433 270.154 148.283C271.539 147.88 272.832 147.258 273.989 146.451C274.192 146.313 274.391 146.165 274.583 146.014C275.433 145.357 276.194 144.594 276.858 143.753C276.926 143.668 276.991 143.579 277.057 143.491C277.512 142.882 277.916 142.23 278.263 141.545C278.807 140.465 279.208 139.298 279.434 138.073C279.536 137.518 279.604 136.951 279.635 136.372C279.645 136.142 279.651 135.911 279.651 135.681C279.651 135.129 279.616 134.585 279.551 134.054C279.512 133.75 279.465 133.452 279.406 133.154C279.405 133.153 279.405 133.152 279.405 133.151C279.405 133.15 279.405 133.149 279.405 133.148C279.095 131.572 278.5 130.097 277.676 128.774C277.488 128.474 277.289 128.182 277.078 127.899C276.268 126.809 275.293 125.846 274.188 125.048C272.007 123.475 269.32 122.545 266.415 122.545C265.093 122.545 263.814 122.736 262.613 123.097C261.318 123.481 260.106 124.054 259.014 124.792C258.783 124.946 258.553 125.107 258.333 125.276C257.526 125.894 256.794 126.599 256.158 127.382C256 127.57 255.848 127.763 255.705 127.96C255.214 128.627 254.789 129.34 254.435 130.092C254.259 130.452 254.104 130.824 253.964 131.203C253.783 131.701 253.632 132.211 253.51 132.735C253.51 132.736 253.51 132.737 253.51 132.738C253.51 132.739 253.51 132.74 253.509 132.741C253.402 133.205 253.321 133.676 253.265 134.157C253.215 134.594 253.185 135.037 253.179 135.486C253.176 135.551 253.176 135.616 253.176 135.681Z" fill="url(#paint17_linear_7854_64504)"/>
<path style="mix-blend-mode:overlay" d="M258.333 125.276C257.131 126.197 257.563 127.976 259.034 128.339C260.516 128.705 262.132 128.9 263.788 128.755C267.303 128.444 271.695 129.006 275.406 130.656C276.816 131.283 278.492 130.084 277.676 128.774C277.314 128.198 276.703 127.835 276.031 127.729C273.558 127.342 270.756 126.986 268.258 126.867C264.964 126.711 262.106 125.978 259.79 125.1C259.302 124.914 258.747 124.958 258.333 125.276Z" fill="url(#paint18_linear_7854_64504)"/>
<path style="mix-blend-mode:overlay" d="M253.51 132.738C253.51 132.738 253.51 132.738 253.51 132.738C253.51 132.74 253.511 132.741 253.512 132.742C254.454 133.286 255.626 133.858 257.086 134.419C259.419 135.315 263.681 136.122 266.806 137.023C268.118 137.4 271.222 136.387 272.391 136.737C273.607 137.095 274.775 137.854 275.828 138.8C277.074 139.92 279.13 139.721 279.434 138.074C279.634 136.987 279.287 135.865 278.48 135.111C276.675 133.423 273.909 132.018 269.823 132.516C264.877 133.12 259.466 131.806 255.574 130.492C254.924 130.272 254.202 130.56 253.964 131.204C253.783 131.702 253.632 132.213 253.51 132.738Z" fill="url(#paint19_linear_7854_64504)"/>
<path style="mix-blend-mode:overlay" d="M255.037 136.387C254.213 136.025 253.254 136.647 253.311 137.546C253.311 137.548 253.312 137.549 253.314 137.55C254.299 138.094 255.497 138.731 256.858 139.406C259.868 140.898 262.814 145.367 267.031 145.046C269.214 144.877 271.459 145.466 273.307 146.176C273.737 146.34 274.223 146.297 274.585 146.013C275.435 145.356 276.196 144.594 276.86 143.753C276.97 143.614 276.929 143.411 276.778 143.32C273.386 141.275 268.344 138.779 264.462 138.617C260.989 138.473 257.987 137.602 255.71 136.672C255.478 136.577 255.254 136.482 255.037 136.387Z" fill="url(#paint20_linear_7854_64504)"/>
<path style="mix-blend-mode:overlay" d="M266.415 122.545C264.981 122.545 264.815 124.117 266.208 124.46C266.734 124.59 267.264 124.696 267.792 124.782C269.92 125.13 270.43 122.978 268.295 122.677C267.681 122.59 267.053 122.545 266.415 122.545Z" fill="url(#paint21_linear_7854_64504)"/>
<path style="mix-blend-mode:overlay" d="M262.169 145.99C260.671 145.798 259.79 147.156 261.18 147.75C262.785 148.437 264.555 148.817 266.415 148.817C267.222 148.817 267.444 147.87 266.73 147.494C265.519 146.857 263.933 146.215 262.169 145.99Z" fill="url(#paint22_linear_7854_64504)"/>
<path d="M218.045 203.724C218.045 217.045 228.849 227.84 242.175 227.84C255.501 227.84 266.304 217.045 266.304 203.724C266.304 190.405 255.501 179.61 242.175 179.61C228.849 179.61 218.045 190.405 218.045 203.724Z" fill="url(#paint23_radial_7854_64504)"/>
<path d="M223.875 199.459C223.706 200.498 223.635 201.528 223.655 202.544C223.692 205.01 224.256 207.385 225.246 209.536C225.659 210.42 226.131 211.262 226.678 212.063C229.288 215.899 233.416 218.695 238.36 219.49C241.896 220.059 245.345 219.53 248.374 218.148C251.884 216.555 254.815 213.819 256.636 210.349C257.486 208.718 258.096 206.93 258.402 205.019C258.468 204.612 258.517 204.206 258.557 203.8C258.6 203.29 258.628 202.784 258.628 202.278C258.628 201.082 258.514 199.912 258.279 198.77C257.752 196.143 256.622 193.7 255.024 191.611C252.405 188.19 248.517 185.723 243.923 184.982C239.44 184.261 235.083 185.314 231.559 187.614C230.943 188.024 230.351 188.47 229.784 188.951C229.085 189.543 228.43 190.198 227.826 190.905C225.816 193.262 224.405 196.181 223.875 199.459Z" fill="url(#paint24_linear_7854_64504)"/>
<g style="mix-blend-mode:overlay" opacity="0.38">
<path d="M229.782 188.95C232.654 189.883 236.407 191.156 239.81 192.481C243.795 194.032 252.14 196.781 258.278 198.77C257.751 196.143 256.62 193.7 255.023 191.611C252.343 190.75 249.343 190.138 246.492 190.292C241.866 190.547 235.84 188.985 231.557 187.614C230.942 188.023 230.349 188.47 229.782 188.95Z" fill="white"/>
</g>
<g style="mix-blend-mode:overlay" opacity="0.38">
<path d="M258.628 202.277C257.518 201.734 247.942 199.948 242.294 197.986C238.126 196.532 231.481 192.95 227.826 190.904C225.816 193.262 224.405 196.18 223.875 199.459C223.706 200.498 223.635 201.528 223.655 202.543C228.782 202.309 235.692 201.911 240.839 201.322C248.068 200.489 255.602 202.764 258.557 203.799L258.628 202.277Z" fill="white"/>
</g>
<g style="mix-blend-mode:overlay" opacity="0.38">
<path d="M225.245 209.537C225.657 210.421 226.13 211.262 226.676 212.063L239.201 214.009L248.373 218.149C251.883 216.555 254.814 213.82 256.635 210.349C255.12 209.654 252.661 209.099 248.651 209.211C242.155 209.388 235.021 209.531 227.246 209.637L225.245 209.537Z" fill="white"/>
</g>
<path d="M225.877 193.698C225.445 194.467 225.073 195.274 224.758 196.118C220.867 196.067 218.434 196.43 218.302 197.242C218.176 198.032 220.249 199.105 223.77 200.238C227.964 201.583 234.205 203.008 241.235 204.141C247.848 205.205 253.88 205.806 258.234 205.906C262.408 205.997 265.044 205.637 265.182 204.79C265.319 203.926 262.8 202.71 258.612 201.454C258.569 200.556 258.46 199.663 258.286 198.796C266.35 201.211 271.508 204.009 271.156 206.195C270.813 208.329 265.294 209.365 257.186 209.188C252.406 209.087 246.726 208.558 240.68 207.585C234.276 206.555 228.422 205.173 223.707 203.677C216.424 201.362 211.858 198.756 212.188 196.699C212.528 194.59 217.93 193.549 225.877 193.698Z" fill="url(#paint25_linear_7854_64504)"/>
<path d="M211.758 84.4457C211.758 92.2631 218.099 98.6007 225.92 98.6007C233.742 98.6007 240.082 92.2631 240.082 84.4457C240.082 76.6283 233.742 70.292 225.92 70.292C218.099 70.292 211.758 76.6283 211.758 84.4457Z" fill="url(#paint26_radial_7854_64504)"/>
<path d="M214.588 84.3022C214.588 84.8659 214.629 85.4255 214.707 85.9677V85.9704C214.783 86.5139 214.899 87.0453 215.05 87.5619C215.295 88.4215 215.641 89.2381 216.068 90.0022C216.376 90.5564 216.727 91.0811 217.117 91.5735C219.266 94.2869 222.588 96.0263 226.319 96.0263C226.976 96.0263 227.622 95.9712 228.249 95.8663C228.722 95.7896 229.183 95.6847 229.632 95.5501C230.859 95.1909 232.005 94.6353 233.03 93.9156C233.209 93.7918 233.386 93.66 233.557 93.5255C234.309 92.9389 234.983 92.2582 235.572 91.5076C235.632 91.4309 235.69 91.3515 235.748 91.2735C236.152 90.73 236.51 90.1475 236.817 89.5367C237.298 88.5722 237.654 87.5309 237.854 86.4372C237.945 85.9421 238.005 85.4363 238.032 84.9197C238.041 84.7139 238.047 84.5081 238.047 84.3022C238.047 83.8099 238.016 83.3242 237.958 82.8507C237.923 82.5789 237.881 82.3126 237.829 82.0462V82.0435C237.554 80.6363 237.027 79.3193 236.297 78.1382C236.13 77.8705 235.954 77.6095 235.767 77.3566C235.049 76.3839 234.185 75.5243 233.207 74.8126C231.274 73.4082 228.893 72.5781 226.319 72.5781C225.148 72.5781 224.015 72.749 222.95 73.0705C221.803 73.4135 220.729 73.9248 219.761 74.5839C219.556 74.7212 219.353 74.8651 219.158 75.0158C218.443 75.5673 217.795 76.1969 217.231 76.8951C217.091 77.0633 216.956 77.2355 216.829 77.4117C216.395 78.0063 216.018 78.6426 215.704 79.3139C215.548 79.6355 215.411 79.9677 215.287 80.3054C215.127 80.7507 214.992 81.2067 214.884 81.6749V81.6776C214.789 82.0919 214.718 82.513 214.668 82.9422C214.623 83.3323 214.596 83.7278 214.591 84.1287C214.588 84.1865 214.588 84.2444 214.588 84.3022Z" fill="url(#paint27_linear_7854_64504)"/>
<path style="mix-blend-mode:overlay" d="M217.23 76.8952C219.108 77.6849 221.498 78.3414 223.991 78.1207C228.341 77.7333 234.21 78.866 237.828 82.0436C237.554 80.6364 237.026 79.3194 236.296 78.1382C236.129 77.8705 235.953 77.6095 235.766 77.3566C233.369 76.9557 230.484 76.5575 227.951 76.4364C224.698 76.2804 221.923 75.4853 219.76 74.584C219.556 74.7212 219.353 74.8651 219.157 75.0158C218.443 75.5674 217.794 76.197 217.23 76.8952Z" fill="url(#paint28_linear_7854_64504)"/>
<path style="mix-blend-mode:overlay" d="M214.883 81.6754V81.6781C215.717 82.1638 216.756 82.675 218.051 83.1754C220.119 83.9758 223.894 84.6956 226.663 85.5C227.826 85.8364 230.576 84.9323 231.612 85.2444C233.623 85.8417 235.488 87.6848 236.815 89.5372C237.297 88.5727 237.652 87.5314 237.853 86.4377C237.943 85.9426 238.003 85.4368 238.03 84.9202C236.535 82.9992 233.84 80.9247 229.336 81.4777C224.508 82.0709 219.18 80.5871 215.702 79.3145C215.546 79.636 215.409 79.9683 215.285 80.3059C215.125 80.7512 214.99 81.2073 214.883 81.6754Z" fill="url(#paint29_linear_7854_64504)"/>
<path style="mix-blend-mode:overlay" d="M214.59 84.1289L214.706 85.9679V85.9706C215.58 86.4562 216.642 87.0253 217.849 87.628C220.515 88.9598 223.125 92.9486 226.862 92.662C229.043 92.4925 231.292 93.1813 233.029 93.9158C233.208 93.792 233.385 93.6602 233.556 93.5257C234.308 92.9391 234.983 92.2584 235.571 91.5078C235.631 91.4311 235.689 91.3517 235.747 91.2737C232.744 89.4226 228.122 87.0724 224.586 86.9244C221.509 86.7952 218.849 86.0177 216.831 85.1876C215.959 84.8298 215.205 84.4612 214.59 84.1289Z" fill="url(#paint30_linear_7854_64504)"/>
<path style="mix-blend-mode:overlay" d="M222.95 73.0705C226.239 74.8947 230.567 74.9794 233.207 74.8126C231.274 73.4082 228.893 72.5781 226.319 72.5781C225.148 72.5781 224.015 72.749 222.95 73.0705Z" fill="url(#paint31_linear_7854_64504)"/>
<path style="mix-blend-mode:overlay" d="M217.117 91.5732C219.266 94.2867 222.588 96.0261 226.319 96.0261C226.976 96.0261 227.622 95.971 228.249 95.866C227.331 95.2069 225.161 93.8374 222.557 93.5024C220.703 93.2643 218.638 92.3616 217.117 91.5732Z" fill="url(#paint32_linear_7854_64504)"/>
<defs>
<linearGradient id="paint0_linear_7854_64504" x1="136.154" y1="243.201" x2="136.154" y2="34.11" gradientUnits="userSpaceOnUse">
<stop stop-color="#774BF0" stop-opacity="0.31"/>
<stop offset="1" stop-color="#FCFBFF" stop-opacity="0"/>
</linearGradient>
<linearGradient id="paint1_linear_7854_64504" x1="136.155" y1="243.202" x2="136.155" y2="34.1105" gradientUnits="userSpaceOnUse">
<stop stop-color="#774BF0"/>
<stop offset="1" stop-color="#FCFBFF"/>
</linearGradient>
<linearGradient id="paint2_linear_7854_64504" x1="49.7872" y1="208.057" x2="161.791" y2="208.057" gradientUnits="userSpaceOnUse">
<stop offset="0.02" stop-color="#FC7E28"/>
<stop offset="1" stop-color="#FC8322"/>
</linearGradient>
<linearGradient id="paint3_linear_7854_64504" x1="120.311" y1="164.666" x2="129.336" y2="164.666" gradientUnits="userSpaceOnUse">
<stop offset="0.02" stop-color="#FF9E8B"/>
<stop offset="1" stop-color="#FF7C7C"/>
</linearGradient>
<linearGradient id="paint4_linear_7854_64504" x1="70.7412" y1="255.788" x2="70.7412" y2="199.486" gradientUnits="userSpaceOnUse">
<stop stop-color="#676DD8"/>
<stop offset="1" stop-color="#8388E5"/>
</linearGradient>
<linearGradient id="paint5_linear_7854_64504" x1="114.711" y1="172.471" x2="115.055" y2="172.471" gradientUnits="userSpaceOnUse">
<stop offset="0.02" stop-color="#FF9E8B"/>
<stop offset="1" stop-color="#FF7C7C"/>
</linearGradient>
<linearGradient id="paint6_linear_7854_64504" x1="146.347" y1="101.213" x2="116.631" y2="135.076" gradientUnits="userSpaceOnUse">
<stop stop-color="#B5A7DF"/>
<stop offset="1" stop-color="#DFD8F8"/>
</linearGradient>
<linearGradient id="paint7_linear_7854_64504" x1="146.343" y1="102.596" x2="195.41" y2="108.815" gradientUnits="userSpaceOnUse">
<stop stop-color="#8672C1"/>
<stop offset="1" stop-color="#C8BCEA"/>
</linearGradient>
<linearGradient id="paint8_linear_7854_64504" x1="168.412" y1="101.188" x2="168.412" y2="203.942" gradientUnits="userSpaceOnUse">
<stop stop-color="#E2DBFA"/>
<stop offset="1" stop-color="#AFA0DB"/>
</linearGradient>
<linearGradient id="paint9_linear_7854_64504" x1="175.472" y1="101.188" x2="175.472" y2="145.441" gradientUnits="userSpaceOnUse">
<stop stop-color="#B2A3DD"/>
<stop offset="1" stop-color="#E2DAFA"/>
</linearGradient>
<linearGradient id="paint10_linear_7854_64504" x1="100.301" y1="101.188" x2="100.301" y2="203.942" gradientUnits="userSpaceOnUse">
<stop stop-color="#E9E2FF"/>
<stop offset="1" stop-color="#CBC1E9"/>
</linearGradient>
<linearGradient id="paint11_linear_7854_64504" x1="89.6922" y1="101.188" x2="89.6922" y2="145.045" gradientUnits="userSpaceOnUse">
<stop stop-color="#B2A3DD"/>
<stop offset="1" stop-color="#E2DAFA"/>
</linearGradient>
<linearGradient id="paint12_linear_7854_64504" x1="19.7716" y1="177.547" x2="131.776" y2="177.547" gradientUnits="userSpaceOnUse">
<stop offset="0.02" stop-color="#FB9A08"/>
<stop offset="1" stop-color="#FC6A3D"/>
</linearGradient>
<linearGradient id="paint13_linear_7854_64504" x1="40.7256" y1="225.279" x2="40.7256" y2="168.976" gradientUnits="userSpaceOnUse">
<stop stop-color="#898EE8"/>
<stop offset="1" stop-color="#676DD8"/>
</linearGradient>
<linearGradient id="paint14_linear_7854_64504" x1="84.6953" y1="141.961" x2="85.0398" y2="141.961" gradientUnits="userSpaceOnUse">
<stop offset="0.02" stop-color="#FF9E8B"/>
<stop offset="1" stop-color="#FF7C7C"/>
</linearGradient>
<linearGradient id="paint15_linear_7854_64504" x1="157.335" y1="72.4705" x2="124.174" y2="87.4162" gradientUnits="userSpaceOnUse">
<stop stop-color="#9481CA"/>
<stop offset="1" stop-color="white" stop-opacity="0"/>
</linearGradient>
<radialGradient id="paint16_radial_7854_64504" cx="0" cy="0" r="1" gradientUnits="userSpaceOnUse" gradientTransform="translate(265.966 135.841) rotate(180) scale(15.9838 15.8585)">
<stop stop-color="#FEE7CA"/>
<stop offset="1" stop-color="#FEE7CA" stop-opacity="0"/>
</radialGradient>
<linearGradient id="paint17_linear_7854_64504" x1="261.119" y1="157.306" x2="282.273" y2="140.518" gradientUnits="userSpaceOnUse">
<stop offset="0.137" stop-color="white"/>
<stop offset="1" stop-color="#B7B7B7"/>
</linearGradient>
<linearGradient id="paint18_linear_7854_64504" x1="279.405" y1="124.189" x2="256.158" y2="124.189" gradientUnits="userSpaceOnUse">
<stop stop-color="white" stop-opacity="0.78"/>
<stop offset="1" stop-color="white" stop-opacity="0"/>
</linearGradient>
<linearGradient id="paint19_linear_7854_64504" x1="279.634" y1="129.49" x2="253.509" y2="129.49" gradientUnits="userSpaceOnUse">
<stop stop-color="white" stop-opacity="0.78"/>
<stop offset="1" stop-color="white" stop-opacity="0"/>
</linearGradient>
<linearGradient id="paint20_linear_7854_64504" x1="277.059" y1="134.882" x2="253.181" y2="134.882" gradientUnits="userSpaceOnUse">
<stop stop-color="white" stop-opacity="0.78"/>
<stop offset="1" stop-color="white" stop-opacity="0"/>
</linearGradient>
<linearGradient id="paint21_linear_7854_64504" x1="274.188" y1="121.969" x2="262.612" y2="121.969" gradientUnits="userSpaceOnUse">
<stop stop-color="white" stop-opacity="0.78"/>
<stop offset="1" stop-color="white" stop-opacity="0"/>
</linearGradient>
<linearGradient id="paint22_linear_7854_64504" x1="268.594" y1="143.225" x2="256.03" y2="143.225" gradientUnits="userSpaceOnUse">
<stop stop-color="white" stop-opacity="0.78"/>
<stop offset="1" stop-color="white" stop-opacity="0"/>
</linearGradient>
<radialGradient id="paint23_radial_7854_64504" cx="0" cy="0" r="1" gradientUnits="userSpaceOnUse" gradientTransform="translate(242.175 203.725) scale(24.1294 24.116)">
<stop stop-color="#505050"/>
<stop offset="1" stop-color="#BDBDBD" stop-opacity="0"/>
</radialGradient>
<linearGradient id="paint24_linear_7854_64504" x1="236.205" y1="228.977" x2="265.573" y2="207.749" gradientUnits="userSpaceOnUse">
<stop stop-color="white"/>
<stop offset="1" stop-color="#9C9C9C"/>
</linearGradient>
<linearGradient id="paint25_linear_7854_64504" x1="272.554" y1="210.742" x2="272.132" y2="199.146" gradientUnits="userSpaceOnUse">
<stop stop-color="white"/>
<stop offset="1" stop-color="#989898"/>
</linearGradient>
<radialGradient id="paint26_radial_7854_64504" cx="0" cy="0" r="1" gradientUnits="userSpaceOnUse" gradientTransform="translate(225.92 84.4461) rotate(180) scale(14.1622 14.1543)">
<stop stop-color="#FEE7CA"/>
<stop offset="1" stop-color="#FEE7CA" stop-opacity="0"/>
</radialGradient>
<linearGradient id="paint27_linear_7854_64504" x1="221.626" y1="103.604" x2="240.475" y2="88.7539" gradientUnits="userSpaceOnUse">
<stop offset="0.137" stop-color="#FCFCFC"/>
<stop offset="1" stop-color="#B8B8B8"/>
</linearGradient>
<linearGradient id="paint28_linear_7854_64504" x1="237.828" y1="74.0457" x2="217.23" y2="74.0457" gradientUnits="userSpaceOnUse">
<stop stop-color="white" stop-opacity="0.78"/>
<stop offset="1" stop-color="white" stop-opacity="0"/>
</linearGradient>
<linearGradient id="paint29_linear_7854_64504" x1="238.03" y1="78.7765" x2="214.882" y2="78.7765" gradientUnits="userSpaceOnUse">
<stop stop-color="white" stop-opacity="0.78"/>
<stop offset="1" stop-color="white" stop-opacity="0"/>
</linearGradient>
<linearGradient id="paint30_linear_7854_64504" x1="235.747" y1="83.5908" x2="214.59" y2="83.5908" gradientUnits="userSpaceOnUse">
<stop stop-color="white" stop-opacity="0.78"/>
<stop offset="1" stop-color="white" stop-opacity="0"/>
</linearGradient>
<linearGradient id="paint31_linear_7854_64504" x1="233.207" y1="72.0645" x2="222.95" y2="72.0645" gradientUnits="userSpaceOnUse">
<stop stop-color="white" stop-opacity="0.78"/>
<stop offset="1" stop-color="white" stop-opacity="0"/>
</linearGradient>
<linearGradient id="paint32_linear_7854_64504" x1="228.249" y1="91.0349" x2="217.117" y2="91.0349" gradientUnits="userSpaceOnUse">
<stop stop-color="white" stop-opacity="0.78"/>
<stop offset="1" stop-color="white" stop-opacity="0"/>
</linearGradient>
</defs>
</svg>
