<svg width="249" height="218" viewBox="0 0 249 218" fill="none" xmlns="http://www.w3.org/2000/svg">
<path d="M241.682 169.897C228.704 192.279 208.268 211.971 185.317 216.333C157.836 221.546 139.052 213.377 113.154 199.846C107.676 196.939 101.981 194.462 96.1197 192.436C84.583 188.525 71.4592 186.417 55.8083 187.886C40.2388 189.359 28.4376 182.862 18.6792 174.646C15.6678 172.119 13.1611 168.648 11.1956 164.546C2.12082 145.705 4.20842 113.54 19.5419 97.7795C35.8194 81.0625 59.5603 90.4546 71.7807 69.9978C77.3923 60.5853 86.227 65.9284 90.9068 56.2066C103.115 30.8014 118.957 22.858 149.482 38.4438C171.119 49.5044 166.695 49.7404 199.022 77.5099C222.438 97.6371 235.985 91.6836 241.218 103.749C247.822 119.03 254.578 147.67 241.682 169.897Z" fill="url(#paint0_linear_8066_65328)"/>
<mask id="mask0_8066_65328" style="mask-type:alpha" maskUnits="userSpaceOnUse" x="0" y="0" width="249" height="218">
<path d="M241.683 169.899C228.705 192.28 208.269 211.972 185.317 216.334C157.837 221.547 139.053 202.454 113.155 188.923C107.677 186.016 101.982 194.463 96.1204 192.437C84.5837 188.526 71.4599 186.418 55.8091 187.887C40.2396 189.36 28.4384 182.864 18.68 174.647C15.6686 172.12 13.1619 168.649 11.1963 164.547C2.12161 145.706 -7.14864 86.0854 8.18482 70.3246C24.4624 84.0736 59.561 59.9898 71.7814 39.533C77.3931 30.1205 86.2278 35.4636 90.9076 25.7418C103.116 0.336594 118.958 -7.60686 149.482 7.97891C171.119 19.0395 166.696 2.61344 199.023 30.383C222.438 50.5102 235.985 30.7527 241.219 103.751C247.823 119.031 254.578 147.671 241.683 169.899Z" fill="url(#paint1_linear_8066_65328)"/>
</mask>
<g mask="url(#mask0_8066_65328)">
<path d="M177.915 67.0039H91.1604C85.7528 67.0039 81.3691 71.3876 81.3691 76.7952H187.707C187.707 71.3876 183.323 67.0039 177.915 67.0039Z" fill="url(#paint2_linear_8066_65328)"/>
<path d="M81.3691 76.5273H187.707V157.516C187.707 161.117 186.276 164.57 183.73 167.116C181.184 169.662 177.731 171.093 174.13 171.093H94.946C91.3452 171.093 87.8918 169.662 85.3457 167.116C82.7995 164.57 81.3691 161.117 81.3691 157.516V76.5273Z" fill="url(#paint3_linear_8066_65328)"/>
<path d="M169.428 86.7578H99.6827C98.2302 86.7578 97.0527 87.934 97.0527 89.3849C97.0527 90.8359 98.2302 92.0121 99.6827 92.0121H169.428C170.881 92.0121 172.058 90.8359 172.058 89.3849C172.058 87.934 170.881 86.7578 169.428 86.7578Z" fill="#B2A4DD"/>
<path d="M169.428 109.08H99.6827C98.2302 109.08 97.0527 110.256 97.0527 111.707C97.0527 113.158 98.2302 114.334 99.6827 114.334H169.428C170.881 114.334 172.058 113.158 172.058 111.707C172.058 110.256 170.881 109.08 169.428 109.08Z" fill="#B2A4DD"/>
<path d="M169.428 131.404H99.6827C98.2302 131.404 97.0527 132.581 97.0527 134.031C97.0527 135.482 98.2302 136.659 99.6827 136.659H169.428C170.881 136.659 172.058 135.482 172.058 134.031C172.058 132.581 170.881 131.404 169.428 131.404Z" fill="#B2A4DD"/>
<path d="M169.428 153.727H99.6827C98.2302 153.727 97.0527 154.903 97.0527 156.354C97.0527 157.805 98.2302 158.981 99.6827 158.981H169.428C170.881 158.981 172.058 157.805 172.058 156.354C172.058 154.903 170.881 153.727 169.428 153.727Z" fill="#B2A4DD"/>
<g filter="url(#filter0_d_8066_65328)">
<path d="M99.2106 115.691H62.0722C59.0886 115.691 56.6699 118.11 56.6699 121.094V174.177C56.6699 177.161 59.0886 179.579 62.0722 179.579H99.2106C102.194 179.579 104.613 177.161 104.613 174.177V121.094C104.613 118.11 102.194 115.691 99.2106 115.691Z" fill="url(#paint4_linear_8066_65328)"/>
</g>
<path d="M95.0661 142.248H66.216C65.2446 142.248 64.457 143.036 64.457 144.007V144.013C64.457 144.984 65.2446 145.772 66.216 145.772H95.0661C96.0375 145.772 96.8251 144.984 96.8251 144.013V144.007C96.8251 143.036 96.0375 142.248 95.0661 142.248Z" fill="url(#paint5_linear_8066_65328)"/>
<path d="M95.0823 167.043H66.4802C65.5171 167.043 64.7363 167.806 64.7363 168.747V168.753C64.7363 169.694 65.5171 170.457 66.4802 170.457H95.0823C96.0454 170.457 96.8262 169.694 96.8262 168.753V168.747C96.8262 167.806 96.0454 167.043 95.0823 167.043Z" fill="url(#paint6_linear_8066_65328)"/>
<path d="M95.0823 154.07H66.4802C65.5171 154.07 64.7363 154.833 64.7363 155.774V155.78C64.7363 156.721 65.5171 157.484 66.4802 157.484H95.0823C96.0454 157.484 96.8262 156.721 96.8262 155.78V155.774C96.8262 154.833 96.0454 154.07 95.0823 154.07Z" fill="url(#paint7_linear_8066_65328)"/>
<path d="M76.7652 123.889H68.3345C66.467 123.889 64.9531 125.403 64.9531 127.27V129.61C64.9531 131.477 66.467 132.991 68.3345 132.991H76.7652C78.6327 132.991 80.1466 131.477 80.1466 129.61V127.27C80.1466 125.403 78.6327 123.889 76.7652 123.889Z" fill="url(#paint8_linear_8066_65328)"/>
<path fill-rule="evenodd" clip-rule="evenodd" d="M102.899 162.361C109.577 187.284 135.194 202.074 160.117 195.396C172.542 192.067 182.449 184.03 188.433 173.719L188.866 173.898L188.781 173.108C194.529 162.853 196.436 150.431 193.152 138.177C189.865 125.908 181.987 116.094 171.862 110.089L171.581 109.39L171.295 109.758C160.957 103.82 148.359 101.813 135.934 105.142C111.011 111.82 96.2208 137.438 102.899 162.361ZM165.599 117.105C157.513 112.818 147.849 111.46 138.311 114.016C129.318 116.426 121.966 121.906 117.083 129.026L146.462 141.785L165.599 117.105ZM111.445 141.839C110.103 147.635 110.125 153.835 111.772 159.983C113.483 166.37 116.743 171.929 121.039 176.364L120.341 175.232L138.151 152.844L111.473 142.136L111.445 141.839ZM132.966 184.649C140.502 187.956 149.172 188.818 157.74 186.523C167.291 183.963 174.989 177.942 179.847 170.171L151.259 158.355L132.966 184.649ZM185.083 156.281C185.911 151.195 185.699 145.855 184.279 140.555C182.871 135.299 180.413 130.603 177.193 126.634L159.629 147.335L185.083 156.281Z" fill="url(#paint9_linear_8066_65328)"/>
<path d="M194.264 46.233C194.753 44.2061 197.636 44.2061 198.125 46.233L198.547 47.979C198.722 48.7034 199.287 49.2689 200.012 49.4438L201.758 49.8652C203.784 50.3545 203.784 53.2376 201.758 53.7269L200.012 54.1484C199.287 54.3232 198.722 54.8888 198.547 55.6131L198.125 57.3591C197.636 59.386 194.753 59.386 194.264 57.3591L193.842 55.6131C193.667 54.8888 193.102 54.3232 192.377 54.1484L190.631 53.7269C188.605 53.2376 188.605 50.3545 190.631 49.8652L192.377 49.4438C193.102 49.2689 193.667 48.7034 193.842 47.979L194.264 46.233Z" fill="#B3A5DD"/>
<path d="M26.9863 153.426C27.4756 151.399 30.3587 151.399 30.848 153.426L31.2695 155.172C31.4443 155.897 32.0099 156.462 32.7342 156.637L34.4802 157.059C36.5071 157.548 36.5071 160.431 34.4802 160.92L32.7342 161.342C32.0099 161.517 31.4443 162.082 31.2695 162.806L30.848 164.552C30.3587 166.579 27.4756 166.579 26.9863 164.552L26.5649 162.806C26.39 162.082 25.8245 161.517 25.1001 161.342L23.3541 160.92C21.3272 160.431 21.3272 157.548 23.3541 157.059L25.1001 156.637C25.8245 156.462 26.39 155.897 26.5649 155.172L26.9863 153.426Z" fill="#B2A4DD"/>
<path d="M79.3766 171.233C79.3766 172.732 78.1615 173.947 76.6625 173.947C75.1636 173.947 73.9485 172.732 73.9485 171.233C73.9485 169.734 75.1636 168.519 76.6625 168.519C78.1615 168.519 79.3766 169.734 79.3766 171.233Z" stroke="#B2A4DD" stroke-width="2.48287"/>
<circle cx="205.022" cy="165.086" r="2.71406" stroke="#B2A4DD" stroke-width="2.48287"/>
<path d="M191.254 112.387L190.841 112.105L191.405 111.279L191.818 111.561L191.254 112.387ZM201.826 126.99L201.929 127.48L201.922 127.481L201.915 127.482L201.826 126.99ZM204.77 120.746L204.539 121.189L204.77 120.746ZM193.367 112.631C193.593 112.789 193.648 113.101 193.49 113.327C193.331 113.553 193.02 113.608 192.793 113.45L193.367 112.631ZM195.826 115.645C195.606 115.479 195.561 115.166 195.727 114.945C195.893 114.724 196.206 114.68 196.427 114.846L195.826 115.645ZM199.399 117.193C199.61 117.37 199.638 117.686 199.461 117.897C199.284 118.109 198.968 118.137 198.757 117.96L199.399 117.193ZM201.495 120.462C201.302 120.265 201.305 119.948 201.503 119.755C201.7 119.562 202.017 119.565 202.21 119.763L201.495 120.462ZM204.6 122.837C204.728 123.082 204.633 123.384 204.388 123.512C204.143 123.64 203.841 123.545 203.714 123.3L204.6 122.837ZM203.328 125.926C203.564 125.782 203.872 125.856 204.015 126.092C204.159 126.328 204.085 126.636 203.849 126.779L203.328 125.926ZM199.47 127.767C199.194 127.777 198.962 127.562 198.951 127.286C198.941 127.01 199.156 126.778 199.432 126.768L199.47 127.767ZM196.057 125.358C196.084 125.632 195.884 125.878 195.61 125.906C195.335 125.933 195.09 125.733 195.062 125.459L196.057 125.358ZM197.74 121.148C197.966 120.988 198.278 121.041 198.437 121.267C198.597 121.492 198.544 121.804 198.318 121.964L197.74 121.148ZM202.464 120.635C202.188 120.622 201.975 120.389 201.987 120.113C202 119.837 202.234 119.623 202.51 119.636L202.464 120.635ZM207.076 121.359C207.323 121.483 207.423 121.783 207.3 122.03C207.176 122.277 206.876 122.377 206.629 122.254L207.076 121.359ZM210.807 124.332C210.561 124.207 210.463 123.906 210.588 123.66C210.713 123.413 211.014 123.316 211.26 123.441L210.807 124.332ZM215.375 125.743C215.608 125.891 215.678 126.2 215.53 126.433C215.382 126.667 215.073 126.736 214.84 126.588L215.375 125.743ZM218.514 129.333C218.307 129.15 218.287 128.835 218.47 128.627C218.652 128.42 218.968 128.4 219.176 128.583L218.514 129.333ZM191.818 111.561C192.31 111.896 192.83 112.255 193.367 112.631L192.793 113.45C192.26 113.076 191.744 112.72 191.254 112.387L191.818 111.561ZM196.427 114.846C197.436 115.604 198.445 116.394 199.399 117.193L198.757 117.96C197.82 117.175 196.825 116.395 195.826 115.645L196.427 114.846ZM202.21 119.763C203.241 120.816 204.091 121.862 204.6 122.837L203.714 123.3C203.271 122.451 202.499 121.488 201.495 120.462L202.21 119.763ZM203.849 126.779C203.351 127.083 202.711 127.315 201.929 127.48L201.723 126.501C202.435 126.351 202.958 126.152 203.328 125.926L203.849 126.779ZM201.915 127.482C200.996 127.648 200.184 127.74 199.47 127.767L199.432 126.768C200.09 126.743 200.855 126.657 201.737 126.498L201.915 127.482ZM195.062 125.459C194.985 124.701 195.272 123.899 195.744 123.173C196.22 122.438 196.916 121.732 197.74 121.148L198.318 121.964C197.582 122.485 196.981 123.103 196.582 123.717C196.179 124.339 196.011 124.911 196.057 125.358L195.062 125.459ZM202.51 119.636C203.346 119.674 204.19 119.88 205.001 120.302L204.539 121.189C203.865 120.839 203.164 120.667 202.464 120.635L202.51 119.636ZM205.001 120.302C205.716 120.674 206.406 121.025 207.076 121.359L206.629 122.254C205.956 121.917 205.26 121.565 204.539 121.189L205.001 120.302ZM211.26 123.441C212.698 124.173 214.057 124.908 215.375 125.743L214.84 126.588C213.559 125.777 212.231 125.058 210.807 124.332L211.26 123.441ZM219.176 128.583C219.748 129.087 220.319 129.63 220.894 130.221L220.177 130.918C219.62 130.345 219.067 129.82 218.514 129.333L219.176 128.583Z" fill="url(#paint10_linear_8066_65328)"/>
<path d="M71.506 130.644L71.919 130.926L71.3553 131.752L70.9423 131.47L71.506 130.644ZM55.5604 108.197L55.4574 107.708L55.4645 107.706L55.4717 107.705L55.5604 108.197ZM51.0782 117.703L50.8473 118.147L51.0782 117.703ZM69.1747 130.253C68.948 130.095 68.892 129.784 69.0496 129.557C69.2073 129.33 69.5189 129.274 69.7456 129.432L69.1747 130.253ZM66.2549 126.949C66.478 127.111 66.5269 127.424 66.3642 127.647C66.2014 127.87 65.8886 127.919 65.6655 127.756L66.2549 126.949ZM62.2229 125.167C62.0049 124.998 61.9657 124.683 62.1353 124.466C62.3048 124.248 62.619 124.208 62.8369 124.378L62.2229 125.167ZM59.5213 121.685C59.7314 121.864 59.7565 122.18 59.5773 122.39C59.3981 122.6 59.0825 122.625 58.8724 122.446L59.5213 121.685ZM55.6724 119.529C55.4759 119.335 55.4739 119.018 55.6679 118.822C55.8619 118.625 56.1785 118.623 56.375 118.817L55.6724 119.529ZM53.5691 115.67C53.7346 115.891 53.6895 116.205 53.4684 116.37C53.2474 116.536 52.934 116.491 52.7685 116.269L53.5691 115.67ZM50.8305 112.203C50.7981 111.929 50.9942 111.68 51.2684 111.648C51.5427 111.616 51.7912 111.812 51.8236 112.086L50.8305 112.203ZM53.7168 109.291C53.4651 109.405 53.1689 109.293 53.0553 109.041C52.9417 108.79 53.0536 108.494 53.3052 108.38L53.7168 109.291ZM57.2979 107.428C57.5721 107.395 57.8211 107.59 57.8542 107.864C57.8873 108.138 57.6919 108.387 57.4177 108.421L57.2979 107.428ZM60.9384 108.309C60.6634 108.285 60.4598 108.042 60.4838 107.767C60.5078 107.492 60.7502 107.288 61.0253 107.312L60.9384 108.309ZM64.6674 108.652C64.8671 108.843 64.8743 109.159 64.6835 109.359C64.4927 109.559 64.1762 109.566 63.9765 109.375L64.6674 108.652ZM64.3462 112.199C64.4461 111.941 64.7358 111.814 64.9933 111.914C65.2507 112.014 65.3784 112.303 65.2785 112.561L64.3462 112.199ZM63.0836 115.678C62.8845 115.869 62.568 115.863 62.3767 115.664C62.1853 115.465 62.1916 115.148 62.3908 114.957L63.0836 115.678ZM59.5626 116.963C59.8085 116.838 60.1097 116.935 60.2354 117.181C60.3611 117.427 60.2636 117.728 60.0178 117.854L59.5626 116.963ZM56.4348 119.029C56.1617 119.07 55.9071 118.882 55.866 118.609C55.8249 118.336 56.0129 118.081 56.286 118.04L56.4348 119.029ZM52.8952 117.876C53.1621 117.947 53.3208 118.221 53.2497 118.488C53.1787 118.755 52.9048 118.913 52.6379 118.842L52.8952 117.876ZM49.2689 117.334C49.0228 117.209 48.9249 116.908 49.0501 116.662C49.1754 116.416 49.4764 116.318 49.7225 116.443L49.2689 117.334ZM46.5386 114.849C46.7862 114.971 46.8875 115.271 46.7651 115.519C46.6426 115.766 46.3427 115.868 46.0952 115.745L46.5386 114.849ZM42.9081 114.169C42.6609 114.045 42.5604 113.745 42.6836 113.498C42.8068 113.251 43.107 113.15 43.3541 113.274L42.9081 114.169ZM40.1985 111.663C40.4427 111.791 40.5362 112.094 40.4073 112.338C40.2784 112.582 39.976 112.676 39.7318 112.547L40.1985 111.663ZM36.6044 110.809C36.3665 110.669 36.2873 110.362 36.4276 110.125C36.5678 109.887 36.8744 109.808 37.1122 109.948L36.6044 110.809ZM34.1402 108.062C34.3679 108.218 34.4259 108.529 34.2697 108.757C34.1135 108.985 33.8023 109.043 33.5745 108.886L34.1402 108.062ZM30.6941 106.738C30.4797 106.564 30.4468 106.249 30.6208 106.034C30.7948 105.82 31.1096 105.787 31.3241 105.961L30.6941 106.738ZM28.6871 103.639C28.8869 103.829 28.8944 104.146 28.7038 104.345C28.5132 104.545 28.1968 104.553 27.9969 104.362L28.6871 103.639ZM70.9423 131.47C70.3748 131.083 69.7835 130.676 69.1747 130.253L69.7456 129.432C70.3516 129.853 70.9406 130.258 71.506 130.644L70.9423 131.47ZM65.6655 127.756C64.5231 126.923 63.3637 126.055 62.2229 125.167L62.8369 124.378C63.9683 125.258 65.1192 126.12 66.2549 126.949L65.6655 127.756ZM58.8724 122.446C57.7314 121.473 56.65 120.494 55.6724 119.529L56.375 118.817C57.3315 119.762 58.3941 120.724 59.5213 121.685L58.8724 122.446ZM52.7685 116.269C51.7112 114.857 50.9801 113.472 50.8305 112.203L51.8236 112.086C51.9421 113.091 52.5462 114.304 53.5691 115.67L52.7685 116.269ZM53.3052 108.38C53.9085 108.107 54.6243 107.883 55.4574 107.708L55.6634 108.686C54.883 108.851 54.2393 109.055 53.7168 109.291L53.3052 108.38ZM55.4717 107.705C56.1154 107.589 56.7238 107.497 57.2979 107.428L57.4177 108.421C56.8645 108.487 56.2755 108.576 55.6491 108.689L55.4717 107.705ZM61.0253 107.312C62.6874 107.457 63.8991 107.918 64.6674 108.652L63.9765 109.375C63.4366 108.859 62.4815 108.443 60.9384 108.309L61.0253 107.312ZM65.2785 112.561C64.8627 113.632 64.086 114.715 63.0836 115.678L62.3908 114.957C63.3174 114.066 63.9961 113.101 64.3462 112.199L65.2785 112.561ZM60.0178 117.854C58.9102 118.42 57.6953 118.839 56.4348 119.029L56.286 118.04C57.4271 117.868 58.5391 117.487 59.5626 116.963L60.0178 117.854ZM52.6379 118.842C52.0333 118.681 51.4341 118.452 50.8473 118.147L51.3091 117.26C51.8299 117.531 52.3605 117.734 52.8952 117.876L52.6379 118.842ZM50.8473 118.147C50.3125 117.868 49.7865 117.598 49.2689 117.334L49.7225 116.443C50.2425 116.708 50.7712 116.979 51.3091 117.26L50.8473 118.147ZM46.0952 115.745C44.9996 115.203 43.9374 114.682 42.9081 114.169L43.3541 113.274C44.3819 113.786 45.4394 114.305 46.5386 114.849L46.0952 115.745ZM39.7318 112.547C38.6644 111.984 37.6245 111.411 36.6044 110.809L37.1122 109.948C38.1157 110.539 39.1414 111.105 40.1985 111.663L39.7318 112.547ZM33.5745 108.886C32.6053 108.222 31.6478 107.511 30.6941 106.738L31.3241 105.961C32.2558 106.717 33.1918 107.411 34.1402 108.062L33.5745 108.886ZM27.9969 104.362C27.572 103.957 27.1466 103.536 26.7199 103.098L27.4365 102.4C27.8547 102.83 28.2713 103.242 28.6871 103.639L27.9969 104.362Z" fill="url(#paint11_linear_8066_65328)"/>
<path d="M26.0209 105.257L32.5279 109.966C32.6731 110.086 32.7068 110.297 32.6038 110.439C31.2612 112.38 31.6798 114.991 33.5765 116.395C33.6307 116.434 33.6684 116.482 33.6894 116.538C33.7238 116.641 33.7231 116.749 33.6495 116.85C33.5318 117.013 33.339 117.044 33.1764 116.926L26.71 112.247C24.5139 110.657 23.9991 107.558 25.5506 105.35C25.5506 105.35 25.5496 105.344 25.5477 105.333C25.5919 105.272 25.6739 105.223 25.7615 105.208C25.8492 105.194 25.9424 105.215 26.0209 105.257Z" fill="#A5B5B6"/>
<path d="M26.1877 105.393L32.5292 109.967C32.6744 110.087 32.7081 110.298 32.6051 110.44C31.2625 112.381 31.6811 114.992 33.5778 116.396C33.632 116.435 33.6697 116.483 33.6907 116.539L27.5091 112.066C25.3943 110.535 24.8319 107.588 26.1877 105.393Z" fill="#95A5A6"/>
<path d="M29.0985 101.24C29.0845 101.153 29.0879 101.062 29.1496 100.999C30.7796 98.8319 33.8843 98.3522 36.0804 99.9415L42.5467 104.621C42.6919 104.742 42.7228 104.934 42.6226 105.094C42.549 105.196 42.4291 105.233 42.3212 105.232C42.2609 105.23 42.2036 105.209 42.1494 105.17C40.2232 103.807 37.612 104.226 36.1881 106.108C36.0851 106.25 35.8748 106.284 35.7325 106.181L29.2255 101.472C29.1441 101.413 29.1126 101.328 29.0985 101.24Z" fill="#A5B5B6"/>
<path d="M36.1373 100.759L42.3189 105.232C42.2586 105.23 42.2014 105.209 42.1472 105.17C40.221 103.807 37.6098 104.225 36.1859 106.107C36.0829 106.25 35.8726 106.283 35.7302 106.18L29.3859 101.589C31.0468 99.6153 34.0225 99.2281 36.1373 100.759Z" fill="#95A5A6"/>
<path d="M14.074 93.2057L13.7355 93.6734L9.69178 90.7625L10.0478 90.292L14.074 93.2057Z" fill="#F7B23F"/>
<path d="M9.95761 89.8233C10.2395 90.0118 10.3041 90.4149 10.0953 90.682C9.88925 90.9667 9.5037 91.0285 9.23654 90.8197C8.95467 90.6312 8.89006 90.2281 9.09888 89.961C9.28738 89.6791 9.67293 89.6173 9.95761 89.8233Z" fill="#C52E25"/>
<path d="M39.9974 108.679C40.3024 108.9 40.3727 109.338 40.152 109.643L37.4884 113.324C37.2677 113.629 36.8471 113.696 36.5421 113.475L34.7714 111.512C34.4664 111.292 34.3962 110.853 34.6169 110.548L36.6329 107.763C36.7212 107.641 36.8326 107.551 36.97 107.511C37.1747 107.442 37.4138 107.476 37.5968 107.608L39.9974 108.679Z" fill="#758586"/>
<path d="M36.3679 108.361L39.4588 110.598L38.1638 112.387L35.073 110.151L36.3679 108.361Z" fill="#859596"/>
<path d="M37.2681 105.684C37.6951 105.993 37.7934 106.607 37.4844 107.034L34.1881 111.589C33.8791 112.016 33.2657 112.114 32.8387 111.805L32.6557 111.672C32.2287 111.363 32.1304 110.75 32.4394 110.323L35.7357 105.768C36.0447 105.341 36.6405 105.246 37.0851 105.552L37.2681 105.684Z" fill="#C8BCEA"/>
<path d="M19.9469 99.5067L34.1431 109.796L32.7451 111.727L25.6397 106.593L18.5342 101.459C16.8871 100.267 15.6388 98.7593 14.7257 97.3238C14.4867 96.9547 14.274 96.5993 14.0874 96.2578C14.4818 96.0268 14.8444 95.7469 15.1752 95.4183C15.1906 95.4398 15.2118 95.4603 15.239 95.48C15.6913 95.9467 16.2193 96.4373 16.7677 96.9426C16.7812 96.9524 16.7957 96.968 16.8111 96.9895C16.9621 97.1091 17.1082 97.2355 17.2494 97.3686C17.2901 97.3981 17.3249 97.4284 17.3539 97.4597C17.4642 97.5499 17.5754 97.6459 17.6876 97.7478C17.7419 97.787 17.797 97.8321 17.8531 97.883C17.9635 97.9732 18.0747 98.0692 18.1869 98.171C18.2276 98.2005 18.2682 98.2299 18.3089 98.2593C18.4599 98.3789 18.6118 98.5044 18.7647 98.6356C18.817 98.6632 18.8645 98.6975 18.907 98.7387C19.0309 98.8386 19.1539 98.9328 19.2759 99.0211C19.3301 99.0603 19.3785 99.1005 19.421 99.1416C19.5972 99.2691 19.7725 99.3908 19.9469 99.5067Z" fill="white"/>
<path d="M22.9636 95.3401L37.1745 105.609L35.7765 107.541L21.5656 97.2719C19.6542 95.8886 17.7555 94.8089 16.173 94.02C16.3818 93.6031 16.5275 93.1663 16.6101 92.7096C17.0569 92.8058 17.5299 92.9157 18.0291 93.0394C19.6254 93.4666 21.3747 94.1748 22.9636 95.3401Z" fill="white"/>
<path d="M15.1763 95.4201C15.1917 95.4416 15.213 95.4622 15.2401 95.4818C15.213 95.4622 15.1917 95.4416 15.1763 95.4201Z" fill="#BEB0E4"/>
<path d="M21.5666 97.2723L35.7775 107.541L34.144 109.798L19.9479 99.5091C19.7735 99.3932 19.5982 99.2715 19.422 99.144C19.3794 99.1029 19.3311 99.0627 19.2768 99.0235C19.1548 98.9352 19.0319 98.841 18.908 98.7411C18.8655 98.6999 18.818 98.6656 18.7657 98.638C18.6128 98.5068 18.4609 98.3813 18.3099 98.2617C18.2692 98.2323 18.2286 98.2029 18.1879 98.1734C18.0757 98.0716 17.9644 97.9756 17.8541 97.8854C17.798 97.8345 17.7428 97.7894 17.6886 97.7502C17.5764 97.6483 17.4652 97.5523 17.3548 97.4621C17.3259 97.4308 17.291 97.4005 17.2504 97.371C17.1092 97.2379 16.9631 97.1115 16.8121 96.9919C16.7967 96.9704 16.7822 96.9548 16.7686 96.945C16.4746 96.6805 16.1932 96.4201 15.9244 96.1636C15.6827 95.9267 15.4545 95.6996 15.2399 95.4824C15.2128 95.4627 15.1916 95.4422 15.1761 95.4207C15.3738 95.2332 15.5501 95.0252 15.7052 94.7966C15.8916 94.539 16.0479 94.2803 16.174 94.0204C17.7564 94.8093 19.6551 95.889 21.5666 97.2723Z" fill="white"/>
<path d="M15.1746 95.4184C14.8438 95.747 14.4812 96.0268 14.0868 96.2578C12.9295 94.1964 12.4733 92.4721 12.4417 92.3872C12.4534 92.3854 12.4679 92.401 12.4852 92.4342C12.4871 92.4459 12.4939 92.4508 12.5055 92.4489C12.5074 92.4606 12.5161 92.4772 12.5315 92.4987C12.5432 92.4968 12.55 92.5017 12.5518 92.5134C12.5673 92.5349 12.5827 92.5564 12.5981 92.5779C12.6117 92.5877 12.6184 92.5926 12.6184 92.5926C12.6358 92.6258 12.658 92.6522 12.6851 92.6718C12.6869 92.6835 12.6947 92.6942 12.7082 92.704C12.7255 92.7372 12.7487 92.7694 12.7776 92.8007C12.7912 92.8106 12.798 92.8155 12.798 92.8155C12.8887 92.9327 13.0007 93.0706 13.1339 93.229C13.1475 93.2388 13.1552 93.2495 13.157 93.2612C13.1996 93.3023 13.2421 93.3434 13.2847 93.3846C13.3001 93.4061 13.3155 93.4275 13.331 93.449C13.3735 93.4901 13.4111 93.538 13.4439 93.5927C13.471 93.6123 13.4922 93.6329 13.5077 93.6544C13.5502 93.6955 13.5937 93.7425 13.6381 93.7953C13.6652 93.8149 13.6874 93.8413 13.7047 93.8744C13.7491 93.9272 13.7994 93.9791 13.8555 94.03C13.8709 94.0515 13.8864 94.073 13.9018 94.0945C14.0893 94.2922 14.2912 94.5054 14.5077 94.7344C14.5095 94.7461 14.5173 94.7568 14.5308 94.7666C14.5888 94.8292 14.6468 94.8918 14.7047 94.9544C14.7454 94.9839 14.7802 95.0142 14.8092 95.0455C14.8672 95.1081 14.9242 95.1649 14.9803 95.2158C15.0112 95.2588 15.0479 95.3009 15.0904 95.342C15.1194 95.3733 15.1474 95.3988 15.1746 95.4184Z" fill="#BEB0E4"/>
<path d="M15.0914 95.3417C15.1205 95.3731 15.1486 95.3987 15.1759 95.4184C15.1486 95.3987 15.1205 95.3731 15.0914 95.3417Z" fill="#BEB0E4"/>
<g style="mix-blend-mode:multiply">
<path d="M15.0914 95.3417C15.1205 95.3731 15.1486 95.3987 15.1759 95.4184C15.1486 95.3987 15.1205 95.3731 15.0914 95.3417Z" fill="#8F7CC7"/>
</g>
<path d="M14.5102 94.7377C14.2938 94.5088 14.0918 94.2955 13.9043 94.0979C14.0918 94.2955 14.2938 94.5088 14.5102 94.7377Z" fill="#BEB0E4"/>
<g style="mix-blend-mode:multiply">
<path d="M14.5102 94.7377C14.2938 94.5088 14.0918 94.2955 13.9043 94.0979C14.0918 94.2955 14.2938 94.5088 14.5102 94.7377Z" fill="#8F7CC7"/>
</g>
<path d="M14.7052 94.956C14.647 94.8931 14.5888 94.8302 14.5306 94.7674C14.5888 94.8302 14.647 94.8931 14.7052 94.956Z" fill="#BEB0E4"/>
<g style="mix-blend-mode:multiply">
<path d="M14.7052 94.956C14.647 94.8931 14.5888 94.8302 14.5306 94.7674C14.5888 94.8302 14.647 94.8931 14.7052 94.956Z" fill="#8F7CC7"/>
</g>
<path d="M14.9826 95.2157C14.9262 95.1646 14.869 95.1076 14.8108 95.0447C14.869 95.1076 14.9262 95.1646 14.9826 95.2157Z" fill="#BEB0E4"/>
<g style="mix-blend-mode:multiply">
<path d="M14.9826 95.2157C14.9262 95.1646 14.869 95.1076 14.8108 95.0447C14.869 95.1076 14.9262 95.1646 14.9826 95.2157Z" fill="#8F7CC7"/>
</g>
<path d="M13.8595 94.031C13.8032 93.9799 13.7527 93.9278 13.7081 93.8748C13.7527 93.9278 13.8032 93.9799 13.8595 94.031Z" fill="#BEB0E4"/>
<g style="mix-blend-mode:multiply">
<path d="M13.8595 94.031C13.8032 93.9799 13.7527 93.9278 13.7081 93.8748C13.7527 93.9278 13.8032 93.9799 13.8595 94.031Z" fill="#8F7CC7"/>
</g>
<path d="M13.6407 93.7975C13.5961 93.7445 13.5525 93.6974 13.5098 93.6561C13.5525 93.6974 13.5961 93.7445 13.6407 93.7975Z" fill="#BEB0E4"/>
<g style="mix-blend-mode:multiply">
<path d="M13.6407 93.7975C13.5961 93.7445 13.5525 93.6974 13.5098 93.6561C13.5525 93.6974 13.5961 93.7445 13.6407 93.7975Z" fill="#8F7CC7"/>
</g>
<path d="M12.5335 92.4991C12.5178 92.4772 12.5089 92.4603 12.507 92.4484C12.5089 92.4603 12.5178 92.4772 12.5335 92.4991Z" fill="#BEB0E4"/>
<g style="mix-blend-mode:multiply">
<path d="M12.5335 92.4991C12.5178 92.4772 12.5089 92.4603 12.507 92.4484C12.5089 92.4603 12.5178 92.4772 12.5335 92.4991Z" fill="#8F7CC7"/>
</g>
<path d="M16.1733 94.0203C14.0412 92.942 12.5359 92.4104 12.4426 92.3894C12.5478 92.3725 14.2961 92.29 16.6104 92.7099C16.5278 93.1666 16.3821 93.6033 16.1733 94.0203Z" fill="#BEB0E4"/>
<path d="M12.4465 92.3859C12.4584 92.384 12.4732 92.3999 12.4908 92.4337C12.4732 92.3999 12.4584 92.384 12.4465 92.3859Z" fill="#BEB0E4"/>
<g style="mix-blend-mode:multiply">
<path d="M12.4465 92.3859C12.4584 92.384 12.4732 92.3999 12.4908 92.4337C12.4732 92.3999 12.4584 92.384 12.4465 92.3859Z" fill="#8F7CC7"/>
</g>
<path d="M12.5995 92.5784C12.5841 92.5569 12.5686 92.5354 12.5532 92.5139C12.5686 92.5354 12.5841 92.5569 12.5995 92.5784Z" fill="#BEB0E4"/>
<g style="mix-blend-mode:multiply">
<path d="M12.5995 92.5784C12.5841 92.5569 12.5686 92.5354 12.5532 92.5139C12.5686 92.5354 12.5841 92.5569 12.5995 92.5784Z" fill="#8F7CC7"/>
</g>
<path d="M13.1359 93.2313C13.0027 93.0729 12.8907 92.9351 12.8 92.8178C12.8907 92.9351 13.0027 93.0729 13.1359 93.2313Z" fill="#BEB0E4"/>
<g style="mix-blend-mode:multiply">
<path d="M13.1359 93.2313C13.0027 93.0729 12.8907 92.9351 12.8 92.8178C12.8907 92.9351 13.0027 93.0729 13.1359 93.2313Z" fill="#8F7CC7"/>
</g>
<path d="M13.2872 93.3874C13.2445 93.3461 13.2018 93.3048 13.1591 93.2635C13.2018 93.3048 13.2445 93.3461 13.2872 93.3874Z" fill="#BEB0E4"/>
<g style="mix-blend-mode:multiply">
<path d="M13.2872 93.3874C13.2445 93.3461 13.2018 93.3048 13.1591 93.2635C13.2018 93.3048 13.2445 93.3461 13.2872 93.3874Z" fill="#8F7CC7"/>
</g>
<path d="M12.6875 92.6712C12.6603 92.6515 12.638 92.625 12.6207 92.5917C12.638 92.625 12.6603 92.6515 12.6875 92.6712Z" fill="#BEB0E4"/>
<g style="mix-blend-mode:multiply">
<path d="M12.6875 92.6712C12.6603 92.6515 12.638 92.625 12.6207 92.5917C12.638 92.625 12.6603 92.6515 12.6875 92.6712Z" fill="#8F7CC7"/>
</g>
<path d="M13.4454 93.5933C13.4125 93.5384 13.3747 93.4903 13.332 93.4491C13.3747 93.4903 13.4125 93.5384 13.4454 93.5933Z" fill="#BEB0E4"/>
<g style="mix-blend-mode:multiply">
<path d="M13.4454 93.5933C13.4125 93.5384 13.3747 93.4903 13.332 93.4491C13.3747 93.4903 13.4125 93.5384 13.4454 93.5933Z" fill="#8F7CC7"/>
</g>
<path d="M12.7794 92.8021C12.7502 92.7707 12.727 92.7383 12.7096 92.705C12.727 92.7383 12.7502 92.7707 12.7794 92.8021Z" fill="#BEB0E4"/>
<g style="mix-blend-mode:multiply">
<path d="M12.7794 92.8021C12.7502 92.7707 12.727 92.7383 12.7096 92.705C12.727 92.7383 12.7502 92.7707 12.7794 92.8021Z" fill="#8F7CC7"/>
</g>
<path d="M14.8126 95.0445C14.7835 95.0131 14.7485 94.9826 14.7077 94.953C14.7485 94.9826 14.7835 95.0131 14.8126 95.0445Z" fill="#907DC8"/>
<g style="mix-blend-mode:multiply">
<path d="M14.8126 95.0445C14.7835 95.0131 14.7485 94.9826 14.7077 94.953C14.7485 94.9826 14.7835 95.0131 14.8126 95.0445Z" fill="#8F7CC7"/>
</g>
<path d="M12.6199 92.5928C12.6199 92.5928 12.6128 92.5876 12.5986 92.5773C12.6128 92.5876 12.6199 92.5928 12.6199 92.5928Z" fill="#907DC8"/>
<g style="mix-blend-mode:multiply">
<path d="M12.6199 92.5928C12.6199 92.5928 12.6128 92.5876 12.5986 92.5773C12.6128 92.5876 12.6199 92.5928 12.6199 92.5928Z" fill="#8F7CC7"/>
</g>
<path d="M12.7096 92.7041C12.6955 92.6939 12.6875 92.6827 12.6856 92.6706C12.6875 92.6827 12.6955 92.6939 12.7096 92.7041Z" fill="#907DC8"/>
<g style="mix-blend-mode:multiply">
<path d="M12.7096 92.7041C12.6955 92.6939 12.6875 92.6827 12.6856 92.6706C12.6875 92.6827 12.6955 92.6939 12.7096 92.7041Z" fill="#8F7CC7"/>
</g>
<path d="M12.7996 92.8174C12.7996 92.8174 12.7925 92.8122 12.7783 92.8019C12.7925 92.8122 12.7996 92.8174 12.7996 92.8174Z" fill="#907DC8"/>
<g style="mix-blend-mode:multiply">
<path d="M12.7996 92.8174C12.7996 92.8174 12.7925 92.8122 12.7783 92.8019C12.7925 92.8122 12.7996 92.8174 12.7996 92.8174Z" fill="#8F7CC7"/>
</g>
<path d="M15.0919 95.3433C15.0492 95.302 15.0123 95.2598 14.9813 95.2167C15.0123 95.2598 15.0492 95.302 15.0919 95.3433Z" fill="#907DC8"/>
<g style="mix-blend-mode:multiply">
<path d="M15.0919 95.3433C15.0492 95.302 15.0123 95.2598 14.9813 95.2167C15.0123 95.2598 15.0492 95.302 15.0919 95.3433Z" fill="#8F7CC7"/>
</g>
<path d="M12.5555 92.5146C12.5535 92.5024 12.5464 92.4972 12.5342 92.4992C12.5464 92.4972 12.5535 92.5024 12.5555 92.5146Z" fill="#907DC8"/>
<g style="mix-blend-mode:multiply">
<path d="M12.5555 92.5146C12.5535 92.5024 12.5464 92.4972 12.5342 92.4992C12.5464 92.4972 12.5535 92.5024 12.5555 92.5146Z" fill="#8F7CC7"/>
</g>
<path d="M13.1608 93.2627C13.1589 93.2506 13.1508 93.2394 13.1367 93.2292C13.1508 93.2394 13.1589 93.2506 13.1608 93.2627Z" fill="#907DC8"/>
<g style="mix-blend-mode:multiply">
<path d="M13.1608 93.2627C13.1589 93.2506 13.1508 93.2394 13.1367 93.2292C13.1508 93.2394 13.1589 93.2506 13.1608 93.2627Z" fill="#8F7CC7"/>
</g>
<path d="M12.5086 92.4502C12.4964 92.4521 12.4893 92.447 12.4873 92.4347C12.4893 92.447 12.4964 92.4521 12.5086 92.4502Z" fill="#907DC8"/>
<g style="mix-blend-mode:multiply">
<path d="M12.5086 92.4502C12.4964 92.4521 12.4893 92.447 12.4873 92.4347C12.4893 92.447 12.4964 92.4521 12.5086 92.4502Z" fill="#8F7CC7"/>
</g>
<path d="M14.5338 94.7666C14.5198 94.7564 14.5117 94.7452 14.5098 94.7331C14.5117 94.7452 14.5198 94.7564 14.5338 94.7666Z" fill="#907DC8"/>
<g style="mix-blend-mode:multiply">
<path d="M14.5338 94.7666C14.5198 94.7564 14.5117 94.7452 14.5098 94.7331C14.5117 94.7452 14.5198 94.7564 14.5338 94.7666Z" fill="#8F7CC7"/>
</g>
<path d="M13.9022 94.0959C13.8868 94.0745 13.8714 94.053 13.8559 94.0315C13.8714 94.053 13.8868 94.0745 13.9022 94.0959Z" fill="#907DC8"/>
<g style="mix-blend-mode:multiply">
<path d="M13.9022 94.0959C13.8868 94.0745 13.8714 94.053 13.8559 94.0315C13.8714 94.053 13.8868 94.0745 13.9022 94.0959Z" fill="#8F7CC7"/>
</g>
<path d="M13.33 93.4495C13.3145 93.428 13.2991 93.4065 13.2837 93.385C13.2991 93.4065 13.3145 93.428 13.33 93.4495Z" fill="#907DC8"/>
<g style="mix-blend-mode:multiply">
<path d="M13.33 93.4495C13.3145 93.428 13.2991 93.4065 13.2837 93.385C13.2991 93.4065 13.3145 93.428 13.33 93.4495Z" fill="#8F7CC7"/>
</g>
<path d="M13.7051 93.8763C13.6878 93.843 13.6655 93.8165 13.6382 93.7968C13.6655 93.8165 13.6878 93.843 13.7051 93.8763Z" fill="#907DC8"/>
<g style="mix-blend-mode:multiply">
<path d="M13.7051 93.8763C13.6878 93.843 13.6655 93.8165 13.6382 93.7968C13.6655 93.8165 13.6878 93.843 13.7051 93.8763Z" fill="#8F7CC7"/>
</g>
<path d="M13.5096 93.6556C13.4942 93.6341 13.4729 93.6136 13.4458 93.594C13.4729 93.6136 13.4942 93.6341 13.5096 93.6556Z" fill="#907DC8"/>
<g style="mix-blend-mode:multiply">
<path d="M13.5096 93.6556C13.4942 93.6341 13.4729 93.6136 13.4458 93.594C13.4729 93.6136 13.4942 93.6341 13.5096 93.6556Z" fill="#8F7CC7"/>
</g>
<path d="M12.4876 92.4361C12.4703 92.403 12.4558 92.3873 12.4441 92.3892C12.4422 92.3775 12.4413 92.3716 12.4413 92.3716C12.4432 92.3833 12.4441 92.3892 12.4441 92.3892C12.5374 92.4102 14.0426 92.9418 16.1748 94.02C16.0487 94.2799 15.8924 94.5387 15.706 94.7962C15.5509 95.0248 15.3746 95.2328 15.1769 95.4203C15.1498 95.4007 15.1218 95.3752 15.0928 95.3439C15.0503 95.3028 15.0136 95.2607 14.9827 95.2178C14.9266 95.1668 14.8696 95.1101 14.8116 95.0475C14.7826 95.0162 14.7478 94.9858 14.7071 94.9564C14.6491 94.8938 14.5912 94.8311 14.5332 94.7685C14.5196 94.7587 14.5119 94.748 14.5101 94.7363C14.2936 94.5074 14.0916 94.2941 13.9042 94.0964C13.8887 94.075 13.8733 94.0535 13.8579 94.032C13.8018 93.981 13.7515 93.9292 13.7071 93.8764C13.6898 93.8432 13.6676 93.8168 13.6405 93.7972C13.5961 93.7444 13.5526 93.6974 13.5101 93.6563C13.4946 93.6348 13.4734 93.6143 13.4462 93.5946C13.4135 93.54 13.3759 93.4921 13.3333 93.451C13.3179 93.4295 13.3025 93.408 13.2871 93.3865C13.2445 93.3454 13.202 93.3042 13.1594 93.2631C13.1576 93.2515 13.1498 93.2407 13.1363 93.2309C13.003 93.0725 12.8911 92.9347 12.8004 92.8174C12.8004 92.8174 12.7936 92.8125 12.78 92.8027C12.751 92.7714 12.7279 92.7391 12.7106 92.706C12.697 92.6961 12.6893 92.6854 12.6875 92.6737C12.6603 92.6541 12.6381 92.6277 12.6208 92.5945C12.6208 92.5945 12.6141 92.5896 12.6005 92.5798C12.5851 92.5583 12.5696 92.5368 12.5542 92.5153C12.5523 92.5036 12.5456 92.4987 12.5339 92.5006C12.5184 92.4791 12.5098 92.4625 12.5079 92.4508C12.4962 92.4527 12.4895 92.4478 12.4876 92.4361Z" fill="#907DC8"/>
<path d="M12.4887 92.4406C12.4878 92.4381 12.487 92.4349 12.4857 92.4326C12.4692 92.4018 12.4554 92.3874 12.4441 92.3892C12.4422 92.3775 12.4413 92.3716 12.4413 92.3716L12.4441 92.3892C12.525 92.4074 13.6675 92.8095 15.3597 93.619C15.8142 93.8364 16.0014 94.3881 15.706 94.7962C15.5726 94.993 15.4233 95.1745 15.2583 95.3407C15.2118 95.3876 15.1376 95.3924 15.0928 95.3439C15.0126 95.2665 14.94 95.181 14.8624 95.101C14.8455 95.0837 14.8286 95.0658 14.8116 95.0475C14.8092 95.0448 14.8067 95.0422 14.8041 95.0396C14.7451 94.9782 14.678 94.9249 14.6202 94.8625C14.5934 94.8336 14.5667 94.8047 14.5399 94.7758C14.5355 94.771 14.5291 94.7658 14.5244 94.7612C14.5098 94.7473 14.5027 94.7285 14.4889 94.7139C14.2804 94.4934 14.0855 94.2876 13.9042 94.0964C13.8734 94.0536 13.8377 94.0145 13.8003 93.9773C13.779 93.9562 13.7588 93.9349 13.7394 93.9135C13.7175 93.8892 13.7001 93.8593 13.6794 93.834C13.6562 93.8056 13.6287 93.7828 13.6044 93.7554C13.5791 93.7268 13.5541 93.7001 13.5294 93.6754C13.5167 93.6626 13.5065 93.6503 13.4943 93.6369C13.4668 93.6066 13.4361 93.5761 13.4123 93.5429C13.3962 93.5203 13.3791 93.4992 13.361 93.4794C13.3432 93.4599 13.3256 93.4402 13.3102 93.4187C13.3098 93.4182 13.3095 93.4177 13.3091 93.4172C13.2944 93.3968 13.278 93.3777 13.2599 93.3602C13.2335 93.3348 13.2072 93.3093 13.1808 93.2838C13.1669 93.2704 13.1597 93.2526 13.146 93.239C13.1408 93.2339 13.1339 93.2281 13.1292 93.2225C13.0035 93.0729 12.8969 92.9417 12.8095 92.8291C12.8034 92.8213 12.8012 92.818 12.7932 92.8122C12.7877 92.8082 12.7777 92.8002 12.7732 92.7951C12.751 92.7703 12.7325 92.7449 12.7177 92.7189C12.7129 92.7105 12.7046 92.7022 12.6981 92.6949C12.6871 92.6825 12.6796 92.6686 12.6675 92.6572C12.6525 92.6431 12.6394 92.6266 12.6281 92.6075C12.6231 92.5991 12.6216 92.5951 12.6137 92.5894C12.6082 92.5854 12.5985 92.577 12.5945 92.5715C12.5826 92.5549 12.5707 92.5384 12.5589 92.5218C12.5558 92.5175 12.5542 92.5117 12.5515 92.5072C12.5451 92.4961 12.529 92.4942 12.5223 92.4833C12.5202 92.48 12.5184 92.4769 12.5168 92.4739C12.5103 92.4618 12.493 92.4536 12.4887 92.4406Z" fill="#A291D3"/>
<path d="M31.5632 110.434C32.5875 109.199 34.4089 106.402 33.4995 105.092C32.3628 103.453 18.1795 93.8512 17.3161 94.0128C16.6837 94.1311 16.4704 94.278 16.432 94.3523L16.4256 94.3709C16.4264 94.3654 16.4284 94.3591 16.432 94.3523L16.9618 92.8021C18.4098 93.1481 21.7198 94.2095 23.3754 95.6871L37.1615 105.555L32.7539 111.679L31.3627 110.727L31.5632 110.434Z" fill="#E4E4E4"/>
<path d="M17.2158 96.2026C18.1294 94.868 19.952 94.5267 21.2866 95.4404C22.6212 96.354 22.9625 98.1766 22.0488 99.5112C21.1352 100.846 19.3126 101.187 17.978 100.273C16.6434 99.3598 16.3021 97.5372 17.2158 96.2026Z" fill="#EAE3FF"/>
<path fill-rule="evenodd" clip-rule="evenodd" d="M21.1315 95.6669C19.922 94.8389 18.2703 95.1482 17.4423 96.3577C16.6143 97.5672 16.9236 99.2189 18.1331 100.047C19.3426 100.875 20.9943 100.566 21.8223 99.3561C22.6503 98.1466 22.341 96.4949 21.1315 95.6669ZM21.2866 95.4404C19.952 94.5267 18.1294 94.868 17.2158 96.2026C16.3021 97.5372 16.6434 99.3598 17.978 100.273C19.3126 101.187 21.1352 100.846 22.0488 99.5112C22.9625 98.1766 22.6212 96.354 21.2866 95.4404Z" fill="#6C6C6C"/>
<path d="M21.8633 99.2168C21.6735 97.793 20.9965 95.1853 18.2884 95.7714C19.3659 94.8454 23.1879 95.7428 21.8633 99.2168Z" fill="#DBD0FA"/>
<path d="M17.8969 96.6683C18.5536 95.709 19.8636 95.4637 20.8228 96.1204C21.7821 96.7771 22.0274 98.0871 21.3707 99.0463C20.714 100.006 19.404 100.251 18.4448 99.5942C17.4855 98.9375 17.2402 97.6275 17.8969 96.6683Z" fill="#A291D3"/>
<path fill-rule="evenodd" clip-rule="evenodd" d="M20.6677 96.347C19.8336 95.7759 18.6945 95.9892 18.1235 96.8234C17.5524 97.6575 17.7657 98.7966 18.5999 99.3676C19.434 99.9387 20.5731 99.7254 21.1441 98.8912C21.7151 98.0571 21.5019 96.918 20.6677 96.347ZM20.8228 96.1204C19.8636 95.4637 18.5536 95.709 17.8969 96.6683C17.2402 97.6275 17.4855 98.9375 18.4448 99.5942C19.404 100.251 20.714 100.006 21.3707 99.0463C22.0274 98.0871 21.7821 96.7771 20.8228 96.1204Z" fill="#6C6C6C"/>
<path d="M21.0762 98.0137C20.8325 97.5326 20.0986 96.5903 19.1127 96.6696C19.8019 96.365 21.1593 96.2073 21.0762 98.0137Z" fill="#917EC8"/>
<path d="M22.4862 99.8131C23.0123 99.0447 24.0616 98.8482 24.83 99.3742C25.5984 99.9003 25.7949 100.95 25.2689 101.718C24.7428 102.486 23.6935 102.683 22.9251 102.157C22.1567 101.631 21.9602 100.582 22.4862 99.8131Z" fill="#EAE3FF"/>
<path fill-rule="evenodd" clip-rule="evenodd" d="M24.7407 99.5047C24.0444 99.0279 23.0934 99.206 22.6167 99.9024C22.1399 100.599 22.318 101.55 23.0144 102.026C23.7107 102.503 24.6617 102.325 25.1384 101.629C25.6152 100.932 25.4371 99.9814 24.7407 99.5047ZM24.83 99.3742C24.0616 98.8482 23.0123 99.0447 22.4862 99.8131C21.9602 100.582 22.1567 101.631 22.9251 102.157C23.6935 102.683 24.7428 102.486 25.2689 101.718C25.7949 100.95 25.5984 99.9003 24.83 99.3742Z" fill="#6C6C6C"/>
<path d="M25.1641 101.549C25.0548 100.729 24.665 99.2277 23.1058 99.5651C23.7262 99.032 25.9267 99.5486 25.1641 101.549Z" fill="#DBD0FA"/>
<path d="M22.8799 100.082C23.258 99.5297 24.0122 99.3884 24.5645 99.7665C25.1168 100.145 25.258 100.899 24.8799 101.451C24.5018 102.003 23.7476 102.145 23.1953 101.767C22.643 101.388 22.5018 100.634 22.8799 100.082Z" fill="#A291D3"/>
<path fill-rule="evenodd" clip-rule="evenodd" d="M24.4752 99.897C23.9949 99.5682 23.3391 99.691 23.0103 100.171C22.6815 100.652 22.8043 101.307 23.2846 101.636C23.7648 101.965 24.4207 101.842 24.7495 101.362C25.0782 100.882 24.9554 100.226 24.4752 99.897ZM24.5645 99.7665C24.0122 99.3884 23.258 99.5297 22.8799 100.082C22.5018 100.634 22.643 101.388 23.1953 101.767C23.7476 102.145 24.5018 102.003 24.8799 101.451C25.258 100.899 25.1168 100.145 24.5645 99.7665Z" fill="#6C6C6C"/>
<path d="M24.709 100.855C24.5687 100.578 24.1462 100.036 23.5785 100.082C23.9753 99.9062 24.7569 99.8155 24.709 100.855Z" fill="#917EC8"/>
<path d="M221.229 128.916L216.954 125.822C216.859 125.743 216.837 125.605 216.904 125.512C217.786 124.237 217.511 122.521 216.265 121.599C216.23 121.574 216.205 121.542 216.191 121.505C216.169 121.438 216.169 121.367 216.217 121.3C216.295 121.193 216.421 121.173 216.528 121.25L220.776 124.324C222.219 125.368 222.557 127.404 221.538 128.854C221.538 128.854 221.538 128.858 221.539 128.866C221.51 128.906 221.457 128.938 221.399 128.947C221.341 128.957 221.28 128.943 221.229 128.916Z" fill="#A5B5B6"/>
<path d="M221.118 128.827L216.953 125.822C216.857 125.743 216.835 125.605 216.903 125.512C217.785 124.237 217.51 122.521 216.264 121.599C216.228 121.574 216.203 121.542 216.19 121.505L220.25 124.444C221.639 125.449 222.009 127.385 221.118 128.827Z" fill="#95A5A6"/>
<path d="M219.208 131.555C219.217 131.612 219.215 131.672 219.175 131.714C218.104 133.137 216.064 133.452 214.622 132.408L210.374 129.334C210.279 129.255 210.258 129.128 210.324 129.023C210.373 128.957 210.451 128.932 210.522 128.933C210.562 128.934 210.599 128.948 210.635 128.974C211.9 129.869 213.616 129.594 214.551 128.358C214.619 128.264 214.757 128.242 214.85 128.31L219.125 131.403C219.178 131.442 219.199 131.497 219.208 131.555Z" fill="#A5B5B6"/>
<path d="M214.584 131.871L210.523 128.932C210.562 128.933 210.6 128.947 210.636 128.973C211.901 129.868 213.616 129.593 214.552 128.357C214.619 128.263 214.757 128.241 214.851 128.309L219.019 131.325C217.927 132.622 215.973 132.876 214.584 131.871Z" fill="#95A5A6"/>
<path d="M229.079 136.831L229.301 136.524L231.957 138.436L231.723 138.745L229.079 136.831Z" fill="#F7B23F"/>
<path d="M231.784 139.053C231.599 138.929 231.557 138.664 231.694 138.488C231.829 138.301 232.082 138.261 232.258 138.398C232.443 138.522 232.485 138.787 232.348 138.962C232.224 139.147 231.971 139.188 231.784 139.053Z" fill="#C52E25"/>
<path d="M212.05 126.667C211.85 126.522 211.804 126.234 211.949 126.034L213.698 123.616C213.843 123.416 214.12 123.372 214.32 123.517L215.483 124.806C215.684 124.951 215.73 125.239 215.585 125.439L214.26 127.269C214.202 127.349 214.129 127.408 214.039 127.435C213.905 127.48 213.747 127.458 213.627 127.371L212.05 126.667Z" fill="#758586"/>
<path d="M214.436 126.876L212.405 125.407L213.256 124.232L215.286 125.701L214.436 126.876Z" fill="#859596"/>
<path d="M213.842 128.636C213.562 128.433 213.497 128.03 213.7 127.75L215.866 124.758C216.069 124.477 216.471 124.413 216.752 124.616L216.872 124.703C217.153 124.906 217.217 125.309 217.014 125.589L214.849 128.581C214.646 128.862 214.255 128.924 213.963 128.723L213.842 128.636Z" fill="#C8BCEA"/>
<path d="M225.228 132.695L215.902 125.936L216.821 124.667L221.488 128.04L226.156 131.412C227.238 132.195 228.058 133.186 228.658 134.129C228.815 134.371 228.954 134.604 229.077 134.829C228.818 134.981 228.58 135.164 228.362 135.38C228.352 135.366 228.338 135.353 228.321 135.34C228.023 135.033 227.677 134.711 227.316 134.379C227.307 134.373 227.298 134.362 227.288 134.348C227.189 134.27 227.093 134.187 227 134.099C226.973 134.08 226.95 134.06 226.931 134.039C226.859 133.98 226.786 133.917 226.712 133.85C226.676 133.824 226.64 133.795 226.603 133.761C226.531 133.702 226.458 133.639 226.384 133.572C226.357 133.553 226.331 133.533 226.304 133.514C226.205 133.435 226.105 133.353 226.004 133.267C225.97 133.249 225.939 133.226 225.911 133.199C225.83 133.133 225.749 133.072 225.669 133.014C225.633 132.988 225.601 132.961 225.573 132.934C225.458 132.851 225.342 132.771 225.228 132.695Z" fill="white"/>
<path d="M223.244 135.432L213.909 128.686L214.827 127.417L224.163 134.163C225.418 135.071 226.665 135.78 227.705 136.299C227.568 136.573 227.472 136.86 227.418 137.159C227.124 137.096 226.814 137.024 226.486 136.943C225.437 136.662 224.288 136.197 223.244 135.432Z" fill="white"/>
<path d="M228.361 135.378C228.351 135.364 228.337 135.351 228.319 135.338C228.337 135.351 228.351 135.364 228.361 135.378Z" fill="#BEB0E4"/>
<path d="M224.163 134.162L214.828 127.416L215.901 125.933L225.226 132.692C225.341 132.768 225.456 132.848 225.571 132.932C225.599 132.959 225.631 132.985 225.667 133.011C225.747 133.069 225.828 133.131 225.909 133.197C225.937 133.224 225.968 133.246 226.003 133.264C226.103 133.351 226.203 133.433 226.302 133.512C226.329 133.531 226.355 133.55 226.382 133.57C226.456 133.637 226.529 133.7 226.601 133.759C226.638 133.792 226.674 133.822 226.71 133.848C226.784 133.915 226.857 133.978 226.929 134.037C226.948 134.057 226.971 134.077 226.998 134.097C227.091 134.184 227.187 134.267 227.286 134.346C227.296 134.36 227.306 134.37 227.314 134.377C227.508 134.55 227.692 134.721 227.869 134.89C228.028 135.046 228.178 135.195 228.319 135.337C228.336 135.35 228.35 135.364 228.361 135.378C228.231 135.501 228.115 135.638 228.013 135.788C227.891 135.957 227.788 136.127 227.705 136.298C226.666 135.78 225.418 135.07 224.163 134.162Z" fill="white"/>
<path d="M228.362 135.379C228.579 135.163 228.817 134.98 229.076 134.828C229.836 136.182 230.136 137.315 230.157 137.37C230.149 137.372 230.14 137.361 230.128 137.34C230.127 137.332 230.123 137.329 230.115 137.33C230.114 137.322 230.108 137.311 230.098 137.297C230.09 137.298 230.086 137.295 230.085 137.288C230.074 137.273 230.064 137.259 230.054 137.245C230.045 137.239 230.041 137.236 230.041 137.236C230.029 137.214 230.015 137.196 229.997 137.184C229.996 137.176 229.991 137.169 229.982 137.162C229.97 137.141 229.955 137.119 229.936 137.099C229.927 137.092 229.923 137.089 229.923 137.089C229.863 137.012 229.79 136.922 229.702 136.818C229.693 136.811 229.688 136.804 229.687 136.796C229.659 136.769 229.631 136.742 229.603 136.715C229.593 136.701 229.583 136.687 229.573 136.673C229.545 136.646 229.52 136.614 229.499 136.579C229.481 136.566 229.467 136.552 229.457 136.538C229.429 136.511 229.4 136.48 229.371 136.446C229.353 136.433 229.339 136.415 229.327 136.393C229.298 136.359 229.265 136.325 229.228 136.291C229.218 136.277 229.208 136.263 229.198 136.249C229.075 136.119 228.942 135.979 228.8 135.829C228.799 135.821 228.793 135.814 228.785 135.807C228.746 135.766 228.708 135.725 228.67 135.684C228.644 135.665 228.621 135.645 228.602 135.624C228.564 135.583 228.526 135.546 228.489 135.512C228.469 135.484 228.445 135.456 228.417 135.429C228.398 135.409 228.379 135.392 228.362 135.379Z" fill="#BEB0E4"/>
<path d="M228.417 135.431C228.398 135.41 228.38 135.393 228.362 135.38C228.38 135.393 228.398 135.41 228.417 135.431Z" fill="#BEB0E4"/>
<g style="mix-blend-mode:multiply">
<path d="M228.417 135.431C228.398 135.41 228.38 135.393 228.362 135.38C228.38 135.393 228.398 135.41 228.417 135.431Z" fill="#8F7CC7"/>
</g>
<path d="M228.799 135.827C228.941 135.977 229.074 136.118 229.197 136.247C229.074 136.118 228.941 135.977 228.799 135.827Z" fill="#BEB0E4"/>
<g style="mix-blend-mode:multiply">
<path d="M228.799 135.827C228.941 135.977 229.074 136.118 229.197 136.247C229.074 136.118 228.941 135.977 228.799 135.827Z" fill="#8F7CC7"/>
</g>
<path d="M228.669 135.683C228.707 135.724 228.746 135.765 228.784 135.807C228.746 135.765 228.707 135.724 228.669 135.683Z" fill="#BEB0E4"/>
<g style="mix-blend-mode:multiply">
<path d="M228.669 135.683C228.707 135.724 228.746 135.765 228.784 135.807C228.746 135.765 228.707 135.724 228.669 135.683Z" fill="#8F7CC7"/>
</g>
<path d="M228.488 135.513C228.525 135.546 228.562 135.584 228.6 135.625C228.562 135.584 228.525 135.546 228.488 135.513Z" fill="#BEB0E4"/>
<g style="mix-blend-mode:multiply">
<path d="M228.488 135.513C228.525 135.546 228.562 135.584 228.6 135.625C228.562 135.584 228.525 135.546 228.488 135.513Z" fill="#8F7CC7"/>
</g>
<path d="M229.226 136.29C229.263 136.324 229.296 136.358 229.325 136.393C229.296 136.358 229.263 136.324 229.226 136.29Z" fill="#BEB0E4"/>
<g style="mix-blend-mode:multiply">
<path d="M229.226 136.29C229.263 136.324 229.296 136.358 229.325 136.393C229.296 136.358 229.263 136.324 229.226 136.29Z" fill="#8F7CC7"/>
</g>
<path d="M229.37 136.445C229.399 136.48 229.428 136.511 229.456 136.538C229.428 136.511 229.399 136.48 229.37 136.445Z" fill="#BEB0E4"/>
<g style="mix-blend-mode:multiply">
<path d="M229.37 136.445C229.399 136.48 229.428 136.511 229.456 136.538C229.428 136.511 229.399 136.48 229.37 136.445Z" fill="#8F7CC7"/>
</g>
<path d="M230.096 137.297C230.106 137.311 230.112 137.322 230.113 137.33C230.112 137.322 230.106 137.311 230.096 137.297Z" fill="#BEB0E4"/>
<g style="mix-blend-mode:multiply">
<path d="M230.096 137.297C230.106 137.311 230.112 137.322 230.113 137.33C230.112 137.322 230.106 137.311 230.096 137.297Z" fill="#8F7CC7"/>
</g>
<path d="M227.704 136.298C229.105 137.006 230.093 137.355 230.155 137.369C230.086 137.38 228.937 137.434 227.417 137.158C227.471 136.858 227.567 136.571 227.704 136.298Z" fill="#BEB0E4"/>
<path d="M230.154 137.371C230.146 137.372 230.137 137.362 230.125 137.34C230.137 137.362 230.146 137.372 230.154 137.371Z" fill="#BEB0E4"/>
<g style="mix-blend-mode:multiply">
<path d="M230.154 137.371C230.146 137.372 230.137 137.362 230.125 137.34C230.137 137.362 230.146 137.372 230.154 137.371Z" fill="#8F7CC7"/>
</g>
<path d="M230.053 137.246C230.063 137.26 230.073 137.274 230.084 137.288C230.073 137.274 230.063 137.26 230.053 137.246Z" fill="#BEB0E4"/>
<g style="mix-blend-mode:multiply">
<path d="M230.053 137.246C230.063 137.26 230.073 137.274 230.084 137.288C230.073 137.274 230.063 137.26 230.053 137.246Z" fill="#8F7CC7"/>
</g>
<path d="M229.7 136.817C229.788 136.921 229.861 137.011 229.921 137.088C229.861 137.011 229.788 136.921 229.7 136.817Z" fill="#BEB0E4"/>
<g style="mix-blend-mode:multiply">
<path d="M229.7 136.817C229.788 136.921 229.861 137.011 229.921 137.088C229.861 137.011 229.788 136.921 229.7 136.817Z" fill="#8F7CC7"/>
</g>
<path d="M229.601 136.714C229.629 136.741 229.657 136.768 229.685 136.796C229.657 136.768 229.629 136.741 229.601 136.714Z" fill="#BEB0E4"/>
<g style="mix-blend-mode:multiply">
<path d="M229.601 136.714C229.629 136.741 229.657 136.768 229.685 136.796C229.657 136.768 229.629 136.741 229.601 136.714Z" fill="#8F7CC7"/>
</g>
<path d="M229.997 137.183C230.014 137.196 230.029 137.214 230.041 137.236C230.029 137.214 230.014 137.196 229.997 137.183Z" fill="#BEB0E4"/>
<g style="mix-blend-mode:multiply">
<path d="M229.997 137.183C230.014 137.196 230.029 137.214 230.041 137.236C230.029 137.214 230.014 137.196 229.997 137.183Z" fill="#8F7CC7"/>
</g>
<path d="M229.499 136.578C229.52 136.614 229.545 136.645 229.573 136.672C229.545 136.645 229.52 136.614 229.499 136.578Z" fill="#BEB0E4"/>
<g style="mix-blend-mode:multiply">
<path d="M229.499 136.578C229.52 136.614 229.545 136.645 229.573 136.672C229.545 136.645 229.52 136.614 229.499 136.578Z" fill="#8F7CC7"/>
</g>
<path d="M229.934 137.099C229.953 137.12 229.968 137.141 229.98 137.163C229.968 137.141 229.953 137.12 229.934 137.099Z" fill="#BEB0E4"/>
<g style="mix-blend-mode:multiply">
<path d="M229.934 137.099C229.953 137.12 229.968 137.141 229.98 137.163C229.968 137.141 229.953 137.12 229.934 137.099Z" fill="#8F7CC7"/>
</g>
<path d="M228.599 135.624C228.618 135.645 228.641 135.665 228.667 135.684C228.641 135.665 228.618 135.645 228.599 135.624Z" fill="#907DC8"/>
<g style="mix-blend-mode:multiply">
<path d="M228.599 135.624C228.618 135.645 228.641 135.665 228.667 135.684C228.641 135.665 228.618 135.645 228.599 135.624Z" fill="#8F7CC7"/>
</g>
<path d="M230.04 137.236C230.04 137.236 230.045 137.24 230.055 137.247C230.045 137.24 230.04 137.236 230.04 137.236Z" fill="#907DC8"/>
<g style="mix-blend-mode:multiply">
<path d="M230.04 137.236C230.04 137.236 230.045 137.24 230.055 137.247C230.045 137.24 230.04 137.236 230.04 137.236Z" fill="#8F7CC7"/>
</g>
<path d="M229.98 137.162C229.989 137.169 229.995 137.176 229.996 137.184C229.995 137.176 229.989 137.169 229.98 137.162Z" fill="#907DC8"/>
<g style="mix-blend-mode:multiply">
<path d="M229.98 137.162C229.989 137.169 229.995 137.176 229.996 137.184C229.995 137.176 229.989 137.169 229.98 137.162Z" fill="#8F7CC7"/>
</g>
<path d="M229.923 137.088C229.923 137.088 229.928 137.092 229.938 137.099C229.928 137.092 229.923 137.088 229.923 137.088Z" fill="#907DC8"/>
<g style="mix-blend-mode:multiply">
<path d="M229.923 137.088C229.923 137.088 229.928 137.092 229.938 137.099C229.928 137.092 229.923 137.088 229.923 137.088Z" fill="#8F7CC7"/>
</g>
<path d="M228.415 135.429C228.443 135.456 228.467 135.484 228.487 135.512C228.467 135.484 228.443 135.456 228.415 135.429Z" fill="#907DC8"/>
<g style="mix-blend-mode:multiply">
<path d="M228.415 135.429C228.443 135.456 228.467 135.484 228.487 135.512C228.467 135.484 228.443 135.456 228.415 135.429Z" fill="#8F7CC7"/>
</g>
<path d="M230.081 137.289C230.082 137.298 230.087 137.301 230.096 137.3C230.087 137.301 230.082 137.298 230.081 137.289Z" fill="#907DC8"/>
<g style="mix-blend-mode:multiply">
<path d="M230.081 137.289C230.082 137.298 230.087 137.301 230.096 137.3C230.087 137.301 230.082 137.298 230.081 137.289Z" fill="#8F7CC7"/>
</g>
<path d="M229.683 136.797C229.684 136.805 229.69 136.812 229.699 136.819C229.69 136.812 229.684 136.805 229.683 136.797Z" fill="#907DC8"/>
<g style="mix-blend-mode:multiply">
<path d="M229.683 136.797C229.684 136.805 229.69 136.812 229.699 136.819C229.69 136.812 229.684 136.805 229.683 136.797Z" fill="#8F7CC7"/>
</g>
<path d="M230.112 137.33C230.121 137.329 230.126 137.332 230.127 137.341C230.126 137.332 230.121 137.329 230.112 137.33Z" fill="#907DC8"/>
<g style="mix-blend-mode:multiply">
<path d="M230.112 137.33C230.121 137.329 230.126 137.332 230.127 137.341C230.126 137.332 230.121 137.329 230.112 137.33Z" fill="#8F7CC7"/>
</g>
<path d="M228.783 135.809C228.792 135.815 228.798 135.823 228.799 135.831C228.798 135.823 228.792 135.815 228.783 135.809Z" fill="#907DC8"/>
<g style="mix-blend-mode:multiply">
<path d="M228.783 135.809C228.792 135.815 228.798 135.823 228.799 135.831C228.798 135.823 228.792 135.815 228.783 135.809Z" fill="#8F7CC7"/>
</g>
<path d="M229.198 136.248C229.208 136.262 229.218 136.276 229.228 136.29C229.218 136.276 229.208 136.262 229.198 136.248Z" fill="#907DC8"/>
<g style="mix-blend-mode:multiply">
<path d="M229.198 136.248C229.208 136.262 229.218 136.276 229.228 136.29C229.218 136.276 229.208 136.262 229.198 136.248Z" fill="#8F7CC7"/>
</g>
<path d="M229.573 136.674C229.583 136.688 229.593 136.702 229.603 136.716C229.593 136.702 229.583 136.688 229.573 136.674Z" fill="#907DC8"/>
<g style="mix-blend-mode:multiply">
<path d="M229.573 136.674C229.583 136.688 229.593 136.702 229.603 136.716C229.593 136.702 229.583 136.688 229.573 136.674Z" fill="#8F7CC7"/>
</g>
<path d="M229.327 136.392C229.338 136.414 229.353 136.432 229.371 136.445C229.353 136.432 229.338 136.414 229.327 136.392Z" fill="#907DC8"/>
<g style="mix-blend-mode:multiply">
<path d="M229.327 136.392C229.338 136.414 229.353 136.432 229.371 136.445C229.353 136.432 229.338 136.414 229.327 136.392Z" fill="#8F7CC7"/>
</g>
<path d="M229.456 136.539C229.466 136.553 229.48 136.566 229.498 136.579C229.48 136.566 229.466 136.553 229.456 136.539Z" fill="#907DC8"/>
<g style="mix-blend-mode:multiply">
<path d="M229.456 136.539C229.466 136.553 229.48 136.566 229.498 136.579C229.48 136.566 229.466 136.553 229.456 136.539Z" fill="#8F7CC7"/>
</g>
<path d="M230.126 137.339C230.138 137.361 230.147 137.372 230.155 137.37C230.156 137.378 230.157 137.382 230.157 137.382C230.156 137.374 230.155 137.37 230.155 137.37C230.094 137.356 229.105 137.007 227.704 136.299C227.787 136.128 227.89 135.958 228.012 135.789C228.114 135.639 228.23 135.502 228.36 135.379C228.378 135.392 228.396 135.409 228.415 135.429C228.443 135.456 228.467 135.484 228.487 135.512C228.524 135.546 228.562 135.583 228.6 135.624C228.619 135.645 228.642 135.665 228.668 135.684C228.707 135.725 228.745 135.766 228.783 135.807C228.792 135.814 228.797 135.821 228.798 135.828C228.94 135.979 229.073 136.119 229.196 136.249C229.206 136.263 229.216 136.277 229.226 136.291C229.263 136.325 229.296 136.359 229.325 136.393C229.337 136.415 229.351 136.432 229.369 136.445C229.398 136.48 229.427 136.511 229.455 136.538C229.465 136.552 229.479 136.566 229.497 136.578C229.518 136.614 229.543 136.646 229.571 136.673C229.581 136.687 229.591 136.701 229.601 136.715C229.629 136.742 229.657 136.769 229.685 136.796C229.686 136.804 229.691 136.811 229.7 136.817C229.788 136.921 229.861 137.012 229.921 137.089C229.921 137.089 229.925 137.092 229.934 137.099C229.953 137.119 229.969 137.14 229.98 137.162C229.989 137.169 229.994 137.176 229.995 137.183C230.013 137.196 230.028 137.214 230.039 137.235C230.039 137.235 230.043 137.239 230.052 137.245C230.062 137.259 230.073 137.273 230.083 137.287C230.084 137.295 230.088 137.298 230.096 137.297C230.106 137.311 230.112 137.322 230.113 137.33C230.121 137.329 230.125 137.332 230.126 137.339Z" fill="#907DC8"/>
<path d="M230.126 137.336C230.126 137.338 230.127 137.34 230.128 137.342C230.139 137.362 230.148 137.371 230.155 137.37C230.156 137.378 230.157 137.382 230.157 137.382L230.155 137.37C230.102 137.358 229.351 137.094 228.24 136.562C227.941 136.42 227.818 136.057 228.012 135.789C228.1 135.66 228.198 135.541 228.306 135.431C228.337 135.401 228.386 135.397 228.415 135.429C228.468 135.48 228.515 135.536 228.566 135.589C228.578 135.6 228.589 135.612 228.6 135.624C228.601 135.626 228.603 135.628 228.605 135.629C228.643 135.67 228.688 135.705 228.726 135.746C228.743 135.765 228.761 135.784 228.778 135.802C228.781 135.806 228.785 135.809 228.788 135.812C228.798 135.821 228.803 135.834 228.812 135.843C228.949 135.988 229.077 136.123 229.196 136.249C229.216 136.277 229.24 136.303 229.264 136.327C229.278 136.341 229.291 136.355 229.304 136.369C229.318 136.385 229.33 136.405 229.344 136.421C229.359 136.44 229.377 136.455 229.393 136.473C229.409 136.492 229.426 136.509 229.442 136.525C229.45 136.534 229.457 136.542 229.465 136.551C229.483 136.571 229.503 136.591 229.519 136.612C229.53 136.627 229.541 136.641 229.553 136.654C229.564 136.667 229.576 136.68 229.586 136.694C229.586 136.694 229.587 136.695 229.587 136.695C229.596 136.708 229.607 136.721 229.619 136.732C229.636 136.749 229.654 136.766 229.671 136.783C229.68 136.791 229.685 136.803 229.694 136.812C229.697 136.815 229.702 136.819 229.705 136.823C229.788 136.921 229.858 137.007 229.915 137.081C229.919 137.086 229.92 137.089 229.926 137.092C229.929 137.095 229.936 137.1 229.939 137.104C229.953 137.12 229.966 137.137 229.975 137.154C229.978 137.159 229.984 137.165 229.988 137.169C229.995 137.178 230 137.187 230.008 137.194C230.018 137.203 230.027 137.214 230.034 137.227C230.037 137.232 230.038 137.235 230.044 137.239C230.047 137.241 230.054 137.247 230.056 137.251C230.064 137.261 230.072 137.272 230.08 137.283C230.082 137.286 230.083 137.29 230.084 137.293C230.089 137.3 230.099 137.301 230.104 137.308C230.105 137.311 230.106 137.313 230.107 137.315C230.112 137.323 230.123 137.328 230.126 137.336Z" fill="#A291D3"/>
<path d="M217.597 125.517C216.924 126.328 215.728 128.165 216.325 129.026C217.072 130.102 226.389 136.41 226.956 136.304C227.372 136.226 227.512 136.129 227.537 136.081L227.541 136.068C227.541 136.072 227.539 136.076 227.537 136.081L227.189 137.099C226.238 136.872 224.063 136.174 222.976 135.204L213.92 128.722L216.815 124.699L217.729 125.324L217.597 125.517Z" fill="#E4E4E4"/>
<path d="M227.012 134.86C226.412 135.737 225.215 135.961 224.338 135.361C223.461 134.761 223.237 133.564 223.837 132.687C224.437 131.81 225.635 131.586 226.511 132.186C227.388 132.786 227.612 133.984 227.012 134.86Z" fill="#EAE3FF"/>
<path fill-rule="evenodd" clip-rule="evenodd" d="M224.44 135.212C225.234 135.756 226.319 135.553 226.863 134.759C227.407 133.964 227.204 132.879 226.409 132.335C225.615 131.791 224.53 131.994 223.986 132.789C223.442 133.583 223.645 134.668 224.44 135.212ZM224.338 135.361C225.215 135.961 226.412 135.737 227.012 134.86C227.612 133.984 227.388 132.786 226.511 132.186C225.635 131.586 224.437 131.81 223.837 132.687C223.237 133.564 223.461 134.761 224.338 135.361Z" fill="#6C6C6C"/>
<path d="M223.959 132.879C224.084 133.814 224.528 135.527 226.307 135.142C225.599 135.75 223.089 135.161 223.959 132.879Z" fill="#DBD0FA"/>
<path d="M226.565 134.553C226.134 135.183 225.273 135.344 224.643 134.913C224.013 134.481 223.852 133.621 224.283 132.991C224.715 132.36 225.575 132.199 226.205 132.631C226.836 133.062 226.997 133.923 226.565 134.553Z" fill="#A291D3"/>
<path fill-rule="evenodd" clip-rule="evenodd" d="M224.745 134.764C225.293 135.139 226.041 134.999 226.416 134.451C226.792 133.903 226.651 133.155 226.104 132.78C225.556 132.404 224.807 132.545 224.432 133.092C224.057 133.64 224.197 134.389 224.745 134.764ZM224.643 134.913C225.273 135.344 226.134 135.183 226.565 134.553C226.997 133.923 226.836 133.062 226.205 132.631C225.575 132.199 224.715 132.36 224.283 132.991C223.852 133.621 224.013 134.481 224.643 134.913Z" fill="#6C6C6C"/>
<path d="M224.477 133.67C224.637 133.986 225.119 134.605 225.766 134.553C225.314 134.753 224.422 134.856 224.477 133.67Z" fill="#917EC8"/>
<path d="M223.55 132.492C223.204 132.996 222.515 133.125 222.01 132.78C221.505 132.434 221.376 131.745 221.722 131.24C222.068 130.735 222.757 130.606 223.262 130.952C223.766 131.297 223.895 131.987 223.55 132.492Z" fill="#EAE3FF"/>
<path fill-rule="evenodd" clip-rule="evenodd" d="M222.069 132.694C222.526 133.007 223.151 132.89 223.464 132.433C223.777 131.975 223.66 131.351 223.203 131.038C222.746 130.724 222.121 130.841 221.808 131.299C221.494 131.756 221.611 132.381 222.069 132.694ZM222.01 132.78C222.515 133.125 223.204 132.996 223.55 132.492C223.895 131.987 223.766 131.297 223.262 130.952C222.757 130.606 222.068 130.735 221.722 131.24C221.376 131.745 221.505 132.434 222.01 132.78Z" fill="#6C6C6C"/>
<path d="M221.791 131.352C221.863 131.89 222.119 132.876 223.143 132.655C222.736 133.005 221.29 132.665 221.791 131.352Z" fill="#DBD0FA"/>
<path d="M223.292 132.314C223.043 132.677 222.548 132.77 222.185 132.521C221.822 132.273 221.73 131.778 221.978 131.415C222.226 131.052 222.722 130.959 223.085 131.208C223.447 131.456 223.54 131.951 223.292 132.314Z" fill="#A291D3"/>
<path fill-rule="evenodd" clip-rule="evenodd" d="M222.244 132.436C222.559 132.652 222.99 132.571 223.206 132.255C223.422 131.94 223.341 131.509 223.026 131.293C222.711 131.077 222.28 131.158 222.064 131.473C221.848 131.789 221.928 132.22 222.244 132.436ZM222.185 132.521C222.548 132.77 223.043 132.677 223.292 132.314C223.54 131.951 223.447 131.456 223.085 131.208C222.722 130.959 222.226 131.052 221.978 131.415C221.73 131.778 221.822 132.273 222.185 132.521Z" fill="#6C6C6C"/>
<path d="M222.09 131.807C222.182 131.989 222.46 132.345 222.832 132.315C222.572 132.43 222.058 132.49 222.09 131.807Z" fill="#917EC8"/>
</g>
<defs>
<filter id="filter0_d_8066_65328" x="44.6699" y="107.691" width="77.9434" height="93.8887" filterUnits="userSpaceOnUse" color-interpolation-filters="sRGB">
<feFlood flood-opacity="0" result="BackgroundImageFix"/>
<feColorMatrix in="SourceAlpha" type="matrix" values="0 0 0 0 0 0 0 0 0 0 0 0 0 0 0 0 0 0 127 0" result="hardAlpha"/>
<feOffset dx="3" dy="7"/>
<feGaussianBlur stdDeviation="7.5"/>
<feComposite in2="hardAlpha" operator="out"/>
<feColorMatrix type="matrix" values="0 0 0 0 0.104618 0 0 0 0 0.465612 0 0 0 0 0.545833 0 0 0 0.15 0"/>
<feBlend mode="normal" in2="BackgroundImageFix" result="effect1_dropShadow_8066_65328"/>
<feBlend mode="normal" in="SourceGraphic" in2="effect1_dropShadow_8066_65328" result="shape"/>
</filter>
<linearGradient id="paint0_linear_8066_65328" x1="127.397" y1="217.208" x2="127.397" y2="30.4637" gradientUnits="userSpaceOnUse">
<stop stop-color="#774BF0" stop-opacity="0.31"/>
<stop offset="1" stop-color="#FCFBFF" stop-opacity="0"/>
</linearGradient>
<linearGradient id="paint1_linear_8066_65328" x1="127.398" y1="217.209" x2="127.398" y2="30.4649" gradientUnits="userSpaceOnUse">
<stop stop-color="#774BF0"/>
<stop offset="1" stop-color="#FCFBFF"/>
</linearGradient>
<linearGradient id="paint2_linear_8066_65328" x1="81.2487" y1="69.2636" x2="187.76" y2="76.774" gradientUnits="userSpaceOnUse">
<stop stop-color="#E1DAF9"/>
<stop offset="1" stop-color="#B2A4DD"/>
</linearGradient>
<linearGradient id="paint3_linear_8066_65328" x1="78.1763" y1="147.44" x2="231.798" y2="150.171" gradientUnits="userSpaceOnUse">
<stop stop-color="white"/>
<stop offset="1" stop-color="#DDD6F7"/>
</linearGradient>
<linearGradient id="paint4_linear_8066_65328" x1="55.2304" y1="163.6" x2="147.121" y2="171.147" gradientUnits="userSpaceOnUse">
<stop stop-color="white"/>
<stop offset="1" stop-color="#DED2FF"/>
</linearGradient>
<linearGradient id="paint5_linear_8066_65328" x1="80.6411" y1="142.248" x2="80.6411" y2="145.772" gradientUnits="userSpaceOnUse">
<stop stop-color="#B2A4DD"/>
<stop offset="1" stop-color="#D9D0F4"/>
</linearGradient>
<linearGradient id="paint6_linear_8066_65328" x1="80.7813" y1="167.043" x2="80.7813" y2="170.457" gradientUnits="userSpaceOnUse">
<stop stop-color="#B2A4DD"/>
<stop offset="1" stop-color="#D9D0F4"/>
</linearGradient>
<linearGradient id="paint7_linear_8066_65328" x1="80.7813" y1="154.07" x2="80.7813" y2="157.484" gradientUnits="userSpaceOnUse">
<stop stop-color="#B2A4DD"/>
<stop offset="1" stop-color="#D9D0F4"/>
</linearGradient>
<linearGradient id="paint8_linear_8066_65328" x1="72.5499" y1="123.889" x2="72.5499" y2="132.991" gradientUnits="userSpaceOnUse">
<stop stop-color="#B2A4DD"/>
<stop offset="1" stop-color="#D9D0F4"/>
</linearGradient>
<linearGradient id="paint9_linear_8066_65328" x1="215.105" y1="115.93" x2="102.899" y2="162.361" gradientUnits="userSpaceOnUse">
<stop stop-color="#FC8223"/>
<stop offset="1" stop-color="#FC8223" stop-opacity="0"/>
</linearGradient>
<linearGradient id="paint10_linear_8066_65328" x1="202.178" y1="129.454" x2="193.352" y2="111.885" gradientUnits="userSpaceOnUse">
<stop stop-color="#9481CA"/>
<stop offset="1" stop-color="white" stop-opacity="0"/>
</linearGradient>
<linearGradient id="paint11_linear_8066_65328" x1="55.0248" y1="104.446" x2="68.4594" y2="131.193" gradientUnits="userSpaceOnUse">
<stop stop-color="#9481CA"/>
<stop offset="1" stop-color="white" stop-opacity="0"/>
</linearGradient>
</defs>
</svg>
