<svg width="341" height="266" viewBox="0 0 341 266" fill="none" xmlns="http://www.w3.org/2000/svg">
<g opacity="0.1">
<path fill-rule="evenodd" clip-rule="evenodd" d="M13.9151 103.403L261.281 2.15161C272.28 -2.35042 284.846 2.91627 289.348 13.9151L338.687 134.454C343.189 145.452 337.922 158.018 326.923 162.52L79.5571 263.772C68.5583 268.274 55.9924 263.007 51.4904 252.009L2.15162 131.47C-2.35039 120.471 2.91628 107.905 13.9151 103.403ZM17.7764 112.837C11.9875 115.206 9.2156 121.82 11.5851 127.609L60.9239 248.147C63.2933 253.936 69.907 256.708 75.6958 254.339L323.062 153.087C328.851 150.717 331.623 144.104 329.253 138.315L279.915 17.7764C277.545 11.9875 270.931 9.21558 265.143 11.5851L17.7764 112.837Z" fill="#32D583"/>
<path d="M106.197 145.548C107.872 149.64 108.471 153.781 107.993 157.971C107.488 162.094 105.715 165.991 102.675 169.663C99.6359 173.335 95.2316 176.352 89.4625 178.714L78.7964 183.079L89.1755 208.437L71.9689 215.48L43.0555 144.842L70.9283 133.433C76.5632 131.127 81.7242 130.15 86.4112 130.503C91.0983 130.855 95.1147 132.344 98.4604 134.969C101.806 137.594 104.385 141.12 106.197 145.548ZM82.5529 165.564C85.8399 164.219 87.9727 162.445 88.9511 160.243C89.9296 158.041 89.8422 155.532 88.6889 152.714C87.5357 149.897 85.8383 148.046 83.5968 147.162C81.3553 146.278 78.591 146.509 75.304 147.855L65.946 151.685L73.1949 169.395L82.5529 165.564Z" fill="#32D583"/>
<path d="M173.626 159.302L147.262 170.093L148.143 184.3L130.132 191.672L126.777 110.573L146.7 102.418L201.172 162.594L182.959 170.049L173.626 159.302ZM163.761 147.832L144.422 125.555L146.354 154.957L163.761 147.832Z" fill="#32D583"/>
<path d="M197.244 81.7296L226.157 152.367L208.951 159.41L180.037 88.7726L197.244 81.7296Z" fill="#32D583"/>
<path d="M236.177 65.7934C243.623 62.7456 250.734 61.558 257.51 62.2305C264.286 62.9031 270.282 65.3049 275.497 69.4359C280.752 73.4723 284.808 78.9788 287.663 85.9554C290.492 92.8649 291.461 99.6345 290.572 106.264C289.75 112.866 287.126 118.796 282.699 124.055C278.339 129.285 272.47 133.411 265.091 136.431L238.627 147.263L209.713 76.6257L236.177 65.7934ZM257.888 121.992C264.395 119.328 268.732 115.478 270.899 110.44C273.066 105.402 272.818 99.629 270.155 93.122C267.491 86.615 263.607 82.2916 258.502 80.1519C253.397 78.0122 247.591 78.2741 241.084 80.9375L232.933 84.2737L249.738 125.328L257.888 121.992Z" fill="#32D583"/>
</g>
</svg>
