<svg width="163" height="96" viewBox="0 0 163 96" fill="none" xmlns="http://www.w3.org/2000/svg">
<path d="M130.467 37.8613C135.867 63.5867 119.367 88.8117 93.6666 94.217C67.9666 99.6224 42.7666 83.106 37.3666 57.3806C31.9666 31.6551 48.4666 6.43017 74.1666 1.02482C99.8666 -4.38053 125.067 12.1358 130.467 37.8613Z" fill="url(#paint0_linear_7728_63581)"/>
<path style="mix-blend-mode:multiply" opacity="0.1" d="M38.166 60.4844C38.366 60.818 38.5994 61.1183 38.866 61.3853C42.766 65.4893 47.666 68.4923 52.566 71.195C58.766 74.6984 65.2661 78.0017 72.2661 79.7034C85.4661 82.9066 99.566 80.1038 112.066 74.5983C117.066 72.3962 121.966 69.6935 127.066 67.6915C120.966 80.8045 108.966 91.0146 93.666 94.2178C68.966 99.4229 44.866 84.4081 38.166 60.4844Z" fill="url(#paint1_linear_7728_63581)"/>
<g style="mix-blend-mode:multiply">
<path style="mix-blend-mode:multiply" d="M52.0664 81.8056C52.2664 81.7388 52.4331 81.7055 52.5664 81.7055C54.2997 81.3718 56.0664 81.0048 57.8664 80.6044C68.8664 78.202 80.5664 74.7986 92.5664 70.4944C106.466 65.4894 119.666 59.6837 130.866 53.6777C130.333 56.8142 129.5 59.8839 128.366 62.8868C118.266 67.9919 106.866 72.8968 94.9664 77.201C82.8664 81.5053 71.0664 84.9086 59.8664 87.4111C57.0664 85.8095 54.4664 83.941 52.0664 81.8056Z" fill="url(#paint2_linear_7728_63581)"/>
</g>
<path opacity="0.5" d="M131.066 52.9769C130.8 53.1104 130.566 53.2438 130.366 53.3773C118.466 59.7836 104.266 65.9898 89.2663 71.1949C76.9663 75.4992 64.9662 79.0026 53.6662 81.405C53.4662 81.4718 53.2329 81.5385 52.9663 81.6052C52.6329 81.672 52.2996 81.7387 51.9663 81.8054C36.7663 85.0086 5.06628 90.0135 0.466279 77.301C-1.33372 72.4962 2.06624 66.5904 10.8662 59.183C17.2662 53.8778 26.1662 48.072 36.3662 42.5666C36.0996 45.1024 36.0663 47.705 36.2663 50.3743C14.2663 62.7866 6.16625 72.4962 7.06625 74.8986C8.26625 78.2019 20.2663 81.1047 46.9663 75.8996C48.6996 75.5659 50.4663 75.1989 52.2663 74.7985C63.2663 72.3961 74.9663 69.0928 86.9663 64.8887C101.966 59.5834 115.966 53.4774 127.666 47.1711C128.866 46.5038 130 45.8699 131.066 45.2693C150.666 34.0582 156.366 25.85 155.266 22.9472C155.066 22.3466 152.666 20.6449 144.666 20.5448C139.166 20.5448 132.166 21.1454 124.566 22.5468C123.233 20.3446 121.733 18.3093 120.066 16.4407C133.266 13.8382 158.266 10.5349 161.966 20.6449C166.066 31.9561 144.366 45.7698 131.066 52.9769Z" fill="url(#paint3_linear_7728_63581)"/>
<path opacity="0.3" d="M113.467 10.3345C111.767 13.8379 110.667 17.5416 107.867 20.3444C103.567 24.7487 97.2666 27.3513 91.2666 28.052C90.6666 28.1187 90.0666 28.1521 89.4666 28.1521C89.3666 30.9549 87.8666 33.6575 84.3666 34.3582C78.3666 35.6595 75.2666 29.4534 76.8666 25.1491C75.1666 24.4484 73.5666 23.8478 71.8666 23.2472C63.6666 20.4445 54.5666 20.6447 46.0666 22.7467C44.9999 23.0137 43.8999 23.314 42.7666 23.6476C49.3666 12.4365 60.4666 3.92812 74.1666 1.02524C88.5666 -1.97773 102.767 1.82604 113.467 10.3345Z" fill="url(#paint4_linear_7728_63581)"/>
<path d="M52.2374 43.1547C44.43 44.7887 46.9024 56.4778 54.7098 54.8438C62.5172 53.3356 60.0449 41.5207 52.2374 43.1547Z" fill="url(#paint5_linear_7728_63581)"/>
<path d="M113.166 37.0607C107.166 38.362 109.066 47.6712 115.066 46.3699C121.066 45.1687 119.166 35.7594 113.166 37.0607Z" fill="url(#paint6_linear_7728_63581)"/>
<path opacity="0.3" d="M91.4667 41.4648C89.6667 41.8652 90.2667 44.668 92.0667 44.2676C93.7667 43.8672 93.2667 41.0644 91.4667 41.4648Z" fill="url(#paint7_linear_7728_63581)"/>
<path opacity="0.3" d="M117.666 22.2456V22.5459C117.733 22.8129 117.733 23.0464 117.666 23.2466C117.6 23.3801 117.533 23.5135 117.466 23.647C117.333 23.8472 117.166 24.014 116.966 24.1475C116.833 24.1475 116.733 24.1809 116.666 24.2476C116.466 24.3143 116.266 24.3143 116.066 24.2476C115.866 24.1809 115.7 24.1141 115.566 24.0474C115.366 23.9139 115.233 23.7805 115.166 23.647C115.033 23.5135 114.966 23.3467 114.966 23.1465L114.866 22.8462C114.8 22.5793 114.833 22.3457 114.966 22.1455C114.966 22.0121 115 21.8786 115.066 21.7451C115.2 21.5449 115.4 21.4115 115.666 21.3447L115.966 21.1445C116.166 21.1445 116.366 21.1445 116.566 21.1445C116.7 21.2113 116.866 21.278 117.066 21.3447C117.2 21.4782 117.333 21.6117 117.466 21.7451C117.533 21.8786 117.6 22.0454 117.666 22.2456Z" fill="url(#paint8_linear_7728_63581)"/>
<path opacity="0.3" d="M109.767 72.3945C107.967 72.7949 108.567 75.4976 110.367 75.1973C112.167 74.7969 111.567 71.9941 109.767 72.3945Z" fill="url(#paint9_linear_7728_63581)"/>
<path opacity="0.3" d="M73.366 60.0823L73.566 60.6829C73.6327 60.9498 73.5993 61.2501 73.466 61.5838C73.3993 61.7173 73.3327 61.8507 73.266 61.9842C73.1327 62.2511 72.8993 62.4513 72.566 62.5848C72.4327 62.6515 72.2993 62.7182 72.166 62.785C71.8993 62.785 71.666 62.7516 71.466 62.6849C71.266 62.6849 71.066 62.6181 70.866 62.4847C70.666 62.3512 70.4993 62.1844 70.366 61.9842C70.2326 61.784 70.1327 61.5838 70.066 61.3836L69.966 60.783C69.8993 60.4493 69.8993 60.149 69.966 59.8821C70.0327 59.7486 70.0993 59.6152 70.166 59.4817C70.366 59.2148 70.5993 59.0146 70.866 58.8811C70.9993 58.8144 71.166 58.7476 71.366 58.6809C71.566 58.6142 71.766 58.6142 71.966 58.6809C72.2327 58.7476 72.466 58.8477 72.666 58.9812C72.866 59.1147 73.0326 59.2815 73.166 59.4817C73.2993 59.6152 73.366 59.8154 73.366 60.0823Z" fill="url(#paint10_linear_7728_63581)"/>
<path opacity="0.3" d="M49.6666 30.2534C47.3666 30.7539 48.1666 34.2573 50.3666 33.7568C52.5666 33.2563 51.8666 29.853 49.6666 30.2534Z" fill="url(#paint11_linear_7728_63581)"/>
<path d="M73.8555 81.0773C69.9518 81.8943 71.188 87.7389 75.0917 86.9219C78.9954 86.1678 77.7592 80.2604 73.8555 81.0773Z" fill="url(#paint12_linear_7728_63581)"/>
<path d="M101.066 86.0081C104.266 85.4075 106.866 86.5086 108.466 88.4104C104.366 90.9129 99.766 92.7147 94.866 93.9159C94.766 90.4124 96.6661 87.0091 101.066 86.0081Z" fill="url(#paint13_linear_7728_63581)"/>
<defs>
<linearGradient id="paint0_linear_7728_63581" x1="18.2666" y1="-45.2209" x2="133.618" y2="16.7452" gradientUnits="userSpaceOnUse">
<stop stop-color="#BD9B67"/>
<stop offset="1" stop-color="#FCB500"/>
</linearGradient>
<linearGradient id="paint1_linear_7728_63581" x1="38.766" y1="98.2217" x2="37.6638" y2="81.3051" gradientUnits="userSpaceOnUse">
<stop stop-color="#BD67B3"/>
<stop offset="1" stop-color="#5A4BA7"/>
</linearGradient>
<linearGradient id="paint2_linear_7728_63581" x1="133.666" y1="55.8799" x2="136.471" y2="63.8861" gradientUnits="userSpaceOnUse">
<stop stop-color="#EDDFEB"/>
<stop offset="1" stop-color="white" stop-opacity="0.1"/>
</linearGradient>
<linearGradient id="paint3_linear_7728_63581" x1="-5.73372" y1="42.5666" x2="155.68" y2="8.79724" gradientUnits="userSpaceOnUse">
<stop stop-color="#887638"/>
<stop offset="1" stop-color="#101C8C"/>
</linearGradient>
<linearGradient id="paint4_linear_7728_63581" x1="39.1666" y1="8.23238" x2="109.472" y2="-6.4543" gradientUnits="userSpaceOnUse">
<stop stop-color="#EBCB59"/>
<stop offset="1" stop-color="#D9DDFF"/>
</linearGradient>
<linearGradient id="paint5_linear_7728_63581" x1="77.3513" y1="19.3994" x2="60.8537" y2="52.7939" gradientUnits="userSpaceOnUse">
<stop stop-color="#BDAA67"/>
<stop offset="1" stop-color="#FFE607"/>
</linearGradient>
<linearGradient id="paint6_linear_7728_63581" x1="132.466" y1="18.142" x2="119.045" y2="44.3572" gradientUnits="userSpaceOnUse">
<stop stop-color="#BDAA67"/>
<stop offset="1" stop-color="#FFE607"/>
</linearGradient>
<linearGradient id="paint7_linear_7728_63581" x1="90.3667" y1="40.3637" x2="92.1669" y2="39.9641" gradientUnits="userSpaceOnUse">
<stop stop-color="#E0E5F3"/>
<stop offset="1" stop-color="#7D84C4"/>
</linearGradient>
<linearGradient id="paint8_linear_7728_63581" x1="114.166" y1="19.5429" x2="116.967" y2="18.9435" gradientUnits="userSpaceOnUse">
<stop stop-color="#E0E5F3"/>
<stop offset="1" stop-color="#7D84C4"/>
</linearGradient>
<linearGradient id="paint9_linear_7728_63581" x1="108.767" y1="71.2934" x2="110.467" y2="70.8938" gradientUnits="userSpaceOnUse">
<stop stop-color="#E0E5F3"/>
<stop offset="1" stop-color="#7D84C4"/>
</linearGradient>
<linearGradient id="paint10_linear_7728_63581" x1="69.166" y1="57.0793" x2="72.6663" y2="56.38" gradientUnits="userSpaceOnUse">
<stop stop-color="#E0E5F3"/>
<stop offset="1" stop-color="#7D84C4"/>
</linearGradient>
<linearGradient id="paint11_linear_7728_63581" x1="48.3666" y1="29.2524" x2="50.5668" y2="28.8527" gradientUnits="userSpaceOnUse">
<stop stop-color="#E0E5F3"/>
<stop offset="1" stop-color="#7D84C4"/>
</linearGradient>
<linearGradient id="paint12_linear_7728_63581" x1="86.4125" y1="69.1997" x2="78.1637" y2="85.897" gradientUnits="userSpaceOnUse">
<stop stop-color="#BDAA67"/>
<stop offset="1" stop-color="#FFE607"/>
</linearGradient>
<linearGradient id="paint13_linear_7728_63581" x1="108.266" y1="74.797" x2="111.071" y2="92.2133" gradientUnits="userSpaceOnUse">
<stop stop-color="#FCE40B"/>
<stop offset="1" stop-color="#A7824B"/>
</linearGradient>
</defs>
</svg>
