<svg width="446" height="446" viewBox="0 0 446 446" fill="none" xmlns="http://www.w3.org/2000/svg">
<path style="mix-blend-mode:multiply" opacity="0.2" d="M363 49.9963C458.34 127.407 472.97 267.698 395.653 363.115C329.918 444.239 218.894 467.135 128.407 424.407C129.364 424.543 130.372 424.614 131.433 424.622C133.566 424.753 135.387 425.27 137.244 426.137C138.172 426.571 139.137 427.355 140.415 427.752C142.079 428.462 143.79 427.93 141.584 427.099C143.754 427.58 145.454 428.641 147.468 429.315C150.723 430.037 153.279 430.831 156.414 432.096C158.813 433.083 160.9 434.457 163.456 435.251C165.506 436.275 167.832 436.563 170.039 437.394C177.164 439.657 184.107 440.171 191.593 440.805C193.377 440.972 195.041 441.683 196.982 441.657C199.115 441.789 201.212 441.57 203.153 441.544C205.286 441.676 207.66 440.721 209.527 439.995C211.744 439.234 213.841 439.015 216.058 438.253C219.674 437.346 222.564 434.569 224.911 431.672C227.572 428.388 229.111 424.514 232.737 422.014C238.47 417.703 246.237 422.728 252.638 423.122C255.314 423.373 258 422.032 260.145 420.57C262.602 418.723 265.132 417.575 268.241 416.897C270.458 416.135 272.988 414.987 274.553 413.055C276.311 411.281 274.84 410.727 273.103 409.316C270.438 407.472 267.871 408.271 264.846 408.056C263.062 407.888 261.747 407.141 260.12 406.78C259.035 406.54 258.143 406.456 257.684 405.443C258.779 404.091 260.876 403.872 262.587 403.34C266.046 402.626 269.395 400.862 272.431 399.484C273.913 398.445 275.274 397.95 276.829 397.611C277.684 397.345 279.082 397.199 279.938 396.933C282.275 395.628 281.065 390.803 279.834 389.163C278.374 387.017 275.239 385.752 272.792 386.007C268.598 386.445 264.524 386.339 260.257 386.077C255.99 385.815 251.254 386.132 246.914 385.17C242.73 384.015 237.967 382.389 234.807 379.182C232.84 377.265 231.307 374.419 229.846 372.273C229.001 370.946 227.614 369.5 227.118 368.137C226.743 366.231 228.501 364.456 229.79 363.26C232.21 361.063 234.871 357.779 237.944 356.752C240.823 355.567 244.814 356.566 247.391 354.175C251.413 350.396 250.564 343.941 250.246 339.2C249.615 334.845 248.103 328.814 249.798 324.747C250.941 322.152 253.508 321.354 255.652 319.893C256.627 319.084 257.639 318.624 258.615 317.815C260.06 316.427 260.227 314.641 260.551 312.662C261.354 308.511 263.546 305.807 267.171 303.307C268.809 302.075 270.557 301.893 272.461 301.518C275.417 300.502 278.385 299.603 281.366 298.821C284.089 297.829 286.462 296.875 289.211 297.826C290.489 298.223 290.875 298.536 291.72 299.863C292.336 300.683 292.795 301.696 293.88 301.936C295.507 302.297 297.302 300.872 298.663 300.376C300.724 299.808 302.784 299.239 304.882 299.021C310.437 298.088 314.657 299.593 319.216 302.654C321.689 304.341 323.884 306.765 324.406 310.07C324.771 313.568 322.11 316.852 323.017 320.471C323.815 323.04 325.662 325.5 327.628 327.417C328.823 328.707 330.137 329.454 331.018 331.13C332.093 332.963 332.698 335.376 333.423 337.245C334.304 338.922 334.643 340.478 335.524 342.154C335.947 342.818 336.562 343.637 337.021 344.651C338.289 346.64 338.581 349.439 338.101 351.611C337.573 355.026 337.203 358.248 335.012 360.952C333.759 362.497 332.58 364.742 331.099 365.78C330.629 366.36 330.087 366.24 329.424 366.662C328.762 367.085 328.449 367.471 327.786 367.894C325.799 369.162 324.907 369.079 322.58 368.791C320.603 368.467 319.398 368.769 317.494 369.144C316.132 369.64 314.964 370.292 313.446 370.981C312.783 371.404 311.651 372.406 310.603 372.515C308.855 372.698 308.986 370.562 308.49 369.199C307.306 366.317 306.399 362.698 306.42 359.513C306.403 358.218 306.619 356.898 307.067 355.555C307.777 353.889 308.789 353.43 310.307 352.741C312.331 351.823 313.26 352.257 315.237 352.581C315.346 353.631 315.336 355.223 315.095 356.309C314.662 357.238 313.723 358.397 314.688 359.181C318.726 358.937 321.485 358.295 321.867 353.481C322.117 350.802 323.161 345.566 320.845 343.685C319.687 342.745 316.265 343.809 314.904 344.305C313.506 344.451 312.18 345.296 310.782 345.442C309.421 345.938 307.95 345.384 306.552 345.529C304.997 345.868 303.443 346.207 301.888 346.546C300.297 346.535 299.322 347.344 298.153 347.997C296.792 348.492 295.393 348.638 294.068 349.484C292.587 350.522 290.286 352.177 289.191 353.529C286.686 356.619 287.427 362.024 288.334 365.643C289.012 368.755 290.331 374.63 293.659 376.051C295.13 376.605 296.455 375.759 297.733 376.156C298.276 376.277 299.554 376.674 299.94 376.987C301.797 377.855 303.028 379.494 304.885 380.362C310.962 382.734 317.185 386.506 323.606 383.714C324.618 383.255 325.474 382.989 326.449 382.18C327.269 381.564 328.208 380.405 329.22 379.946C331.557 378.641 333.617 378.073 335.375 376.298C337.639 374.293 339.554 372.325 341.432 370.008C343.936 366.917 346.827 364.14 347.667 360.339C348.147 358.167 348.554 355.295 348.335 353.196C347.887 350.591 346.113 348.83 344.496 346.877C343.072 345.08 340.564 343.043 340.308 340.594C340.089 338.495 341.461 336.407 341.242 334.308C340.721 331.003 339.657 327.577 338.473 324.694C336.637 320.642 335.694 316.673 334.014 312.428C333.096 310.401 332.069 307.326 331.97 304.683C331.751 302.584 332.737 300.183 333.953 298.288C335.012 296.586 336.035 294.534 336.708 292.519C337.224 290.697 338.054 288.488 338.571 286.666C339.087 284.844 338.362 282.974 338.336 281.032C338.055 276.64 339.787 272.923 341.869 269.169C342.579 267.504 343.168 266.381 344.65 265.343C345.818 264.69 347.336 264.002 348.468 262.999C350.107 261.768 352.444 260.463 353.117 258.448C355.919 251.436 347.771 251.225 343.128 249.056C334.036 244.877 326.473 238.415 318.753 232.147C316.244 230.11 313.072 228.496 311.732 225.806C310.887 224.48 309.886 223.346 309.197 221.827C308.582 221.007 308.978 219.728 308.363 218.908C307.481 217.231 306.589 217.147 307.07 214.975C307.55 212.803 308.645 211.451 310.054 209.713C313.81 205.077 317.107 199.429 322.481 196.746C324.818 195.442 327.264 195.186 329.674 194.581C332.241 193.783 334.145 193.408 336.424 194.938C339.246 196.589 342.887 197.624 345.658 195.39C348.308 193.699 351.114 191.815 353.149 189.304C354.401 187.759 354.881 185.587 356.519 184.355C356.832 183.969 357.688 183.703 358.001 183.316C358.627 182.544 358.867 181.458 359.107 180.372C359.937 178.163 360.839 176.654 362.404 174.723C365.222 171.246 363.881 168.557 363.829 164.672C363.705 160.087 363.653 156.203 366.626 152.533C370.07 148.283 369.256 142.179 367.155 137.27C364.062 129.635 359.269 120.94 350.865 118.28C347.767 117.365 344.621 117.693 341.403 117.322C338.184 116.95 335.049 115.686 332.071 114.228C329.322 113.277 325.128 113.714 322.827 115.369C320.683 116.83 319.347 119.268 316.551 119.56C314.105 119.815 310.923 119.793 308.403 119.349C304.835 119.013 300.313 116.302 297.611 114.108C296.646 113.325 296.296 113.361 295.368 112.928C294.632 112.651 294.017 111.831 293.245 111.204C291.002 110.023 288.253 109.072 285.817 107.735C283.188 106.24 279.234 105.592 277.074 103.518C275.144 101.951 273.768 98.9119 273.862 96.4265C273.919 93.5912 273.121 91.022 272.323 88.4527C271.985 86.8966 271.682 85.6903 270.837 84.3638C269.992 83.0373 269.064 82.6037 268.062 81.4703C266.638 79.6737 266.576 77.3814 267.792 75.4863C268.381 74.3639 269.357 73.5548 270.103 72.2392C271.162 70.5373 271.292 68.4017 270.917 66.4958C270.13 62.334 265.571 59.2728 262.326 56.9587C258.659 53.9814 255.237 55.0456 250.97 54.7833C247.209 54.2914 242.723 51.9299 241.586 47.8046C241.404 46.0553 241.571 44.2696 240.533 42.7864C239.495 41.3032 236.59 40.5452 234.962 40.1844C231.671 39.1131 228.139 39.1277 224.801 39.2991C223.053 39.4813 222.124 39.0477 220.653 38.4937C218.676 38.1694 217.085 38.1585 215.072 37.4844C213.444 37.1236 212.359 36.8831 210.612 37.0653C209.756 37.3314 209.021 37.0544 208.129 36.9706C205.839 37.0326 203.658 38.1442 201.175 38.0495C199.391 37.8819 196.908 37.7872 195.088 37.2697C192.918 36.7887 191.567 35.6918 190.023 34.4382C187.55 32.7509 185.417 32.6197 182.741 32.3683C181.656 32.1278 180.764 32.044 179.559 32.3465C177.425 32.2154 175.641 32.0478 173.664 31.7235C171.687 31.3992 169.856 32.4743 167.988 33.1995C167.326 33.6223 166.94 33.3088 166.507 34.2382C165.917 35.3606 166.173 37.8096 166.126 39.0523C166.224 41.6944 165.431 44.2528 164.289 46.8475C163.391 49.5346 162.365 52.1172 161.21 54.5954C159.948 57.7332 157.6 60.6305 156.181 63.9614C153.979 68.2581 152.09 72.1685 154.349 76.8842C155.918 80.0802 159.319 82.2011 162.021 84.395C162.986 85.1785 164.144 86.1187 165.266 86.709C166.773 87.6128 168.75 87.9371 170.414 88.6477C174.9 91.0091 177.858 95.652 180.585 99.7882C183.157 104.118 183.981 108.629 184.142 113.564C184.642 120.054 179.91 125.499 178.59 131.472C177.4 135.309 175.574 141.512 178.422 145.105C180.654 147.879 183.643 147.744 186.272 149.238C188.129 150.105 189.553 151.902 191.217 152.612C193.617 153.6 194.112 154.963 194.054 157.798C194.2 159.198 193.997 160.633 194.842 161.96C195.264 162.623 196.349 162.864 196.772 163.527C197.773 164.66 197.606 166.446 197.209 167.725C196.187 169.777 194.622 171.709 194.371 174.387C194.084 176.716 195.158 178.549 194.136 180.601C193.27 182.459 192.101 183.112 190.656 184.5C188.428 186.854 186.394 189.365 183.78 191.406C179.408 195.222 175.35 198.651 171.943 203.25C169.162 207.077 168.562 209.792 163.622 211.545C160.742 212.73 157.477 213.601 154.441 214.978C151.248 216.549 148.092 218.47 144.936 220.39C139.912 223.036 135.853 226.465 131.252 229.775C126.651 233.084 120.443 232.847 115.201 233.394C109.994 234.29 104.449 233.631 99.6504 231.656C96.4789 230.041 94.7055 228.281 92.3166 225.701C87.1527 220.227 79.5942 218.894 74.5869 213.227C69.1936 207.246 63.5237 202.002 59.7685 194.79C58.1986 191.594 57.6773 188.289 56.3004 185.25C54.887 181.86 55.9567 178.566 56.8334 175.115C57.3135 172.943 58.2267 169.841 59.7918 167.91C61.8264 165.399 62.7443 167.425 64.9144 167.906C66.7349 168.424 68.2894 168.085 70.0004 167.553C73.4955 167.188 73.9132 162.724 74.4769 159.659C74.8111 156.087 74.7698 150.61 77.8895 148.34C80.3466 146.492 83.0332 145.151 83.2109 141.772C83.3415 139.637 82.3506 136.911 79.6746 136.66C75.371 136.047 71.9278 140.297 69.5801 143.194C66.7629 146.671 63.7527 149.991 61.5145 153.938C59.8293 156.412 58.6867 159.007 56.579 160.818C54.1219 162.666 51.3988 163.657 48.7122 164.998C44.3511 167.221 43.1978 171.409 41.8881 175.789C39.9888 181.292 39.597 187.699 42.2413 192.728C44.4631 197.094 48.9491 199.455 52.4595 202.626C53.847 204.073 55.2709 205.869 56.5018 207.509C58.3847 210.319 59.0991 213.781 59.6204 217.086C61.0962 222.768 63.704 227.447 68.769 230.279C71.0119 231.459 72.1699 232.4 73.1243 234.776C73.8492 236.645 74.4906 239.408 75.7216 241.047C76.9525 242.687 78.0846 241.685 79.9886 241.31C82.0492 240.741 84.9182 241.149 86.9682 242.173C91.9967 244.655 94.3279 250.07 94.1762 255.391C94.035 259.119 92.2663 262.487 93.1737 266.105C93.8986 267.975 94.6235 269.844 95.3484 271.714C96.3758 274.79 96.2817 277.275 95.3685 280.377C94.6484 283.635 92.6502 286.495 93.015 289.994C93.2339 292.093 93.8859 293.263 94.9603 295.096C96.1442 297.979 97.1351 300.704 98.319 303.587C99.5029 306.47 99.9148 308.726 99.3511 311.79C98.8239 315.205 98.1403 318.813 97.8061 322.384C97.3154 326.149 98.4157 329.925 98.624 333.616C99.2549 337.971 97.6792 341.495 95.947 345.213C92.9991 350.825 90.4373 356.751 87.2965 362.206C84.4323 366.926 81.2655 370.439 76.4348 373.241C72.8091 375.741 68.7975 377.928 64.9058 379.572C-14.2367 299.941 -22.1177 171.855 50.1906 82.6186C127.507 -12.7983 267.66 -27.4145 363 49.9963V49.9963Z" fill="url(#paint0_linear_2_721)"/>
<defs>
<linearGradient id="paint0_linear_2_721" x1="253.227" y1="538.883" x2="-92.5123" y2="258.729" gradientUnits="userSpaceOnUse">
<stop stop-color="white"/>
<stop offset="1" stop-color="#64AEE8"/>
</linearGradient>
</defs>
</svg>
