<svg width="237" height="147" viewBox="0 0 237 147" fill="none" xmlns="http://www.w3.org/2000/svg">
<ellipse cx="121.559" cy="128.397" rx="72.981" ry="9.57127" fill="#C7AFE3"/>
<path d="M30.6829 92.314C32.8855 107.08 56.8329 124.788 56.8329 124.788H183.31C183.31 124.788 207.211 111.416 209.461 97.2706C211.342 85.4431 206.555 75.7357 196.642 69.4114C179.806 58.67 158.391 63.5321 141.265 47.876C135.283 42.4071 131.694 0.702807 93.9217 15.2311C77.9298 21.382 84.556 40.7146 74.4373 54.5417C61.1064 72.7584 27.3526 69.9876 30.6829 92.314Z" fill="#EAE6FD"/>
<path d="M233.303 28.6336C220.675 26.2288 154.227 111.923 159.641 128.741C183.398 128.741 210.516 117.375 224.283 93.8679C240.349 66.4342 237.513 28.6336 233.303 28.6336Z" fill="#BEA9DF"/>
<path d="M161.172 126.473C194.456 104.697 208.586 89.4527 226.351 57.3164C215.029 86.6928 193.608 107.195 161.172 126.473Z" fill="white"/>
<path d="M183.706 10.8702C173.656 11.7879 142.057 90.8275 149.781 102.346C167.707 97.2061 185.711 82.7624 191.013 62.0462C197.201 37.8693 186.882 9.95945 183.706 10.8702Z" fill="#CCB7E5"/>
<path d="M150.447 100.303C170.851 76.6701 178.215 62.11 184.667 34.0172C182.479 58.6336 170.752 78.7386 150.447 100.303Z" fill="white"/>
<path d="M11.6271 61.9884C21.3913 56.0895 103.128 106.891 103.815 122.556C84.0501 129.888 57.98 128.8 39.2701 113.488C17.4346 95.6183 8.12491 63.2876 11.6271 61.9884Z" fill="#B589D6"/>
<path d="M101.919 121.283C68.1052 113.575 51.9305 105.399 27.662 84.5151C45.8269 105.096 69.5557 115.361 101.919 121.283Z" fill="white"/>
<path d="M44.5149 0.746553C57.623 -0.0831031 110.654 105.136 102.476 123.081C78.5504 119.602 53.0816 102.965 43.027 74.7556C31.2927 41.8339 40.2754 0.129925 44.5149 0.746553Z" fill="#CCB7E5"/>
<path d="M101.302 120.534C71.8314 91.9061 60.2752 73.1852 47.8122 35.4505C54.3393 69.2369 72.2723 94.7628 101.302 120.534Z" fill="white"/>
<g opacity="0.1" filter="url(#filter0_f_16705_32880)">
<path d="M98.9219 114.125L114.474 118.909L134.868 113.902V115.935L114.474 122.529L98.9219 116.488V114.125Z" fill="black"/>
</g>
<path d="M114.477 99.2161C122.621 97.3034 127.187 96.231 135.331 94.3184V116.279L114.477 121.967L114.477 99.2161Z" fill="#DB8D46"/>
<path d="M114.477 99.2161L98.6774 94.3184V116.279L114.477 121.967V99.2161Z" fill="#FE9E47"/>
<path d="M106.565 96.7654L105.259 96.3741V98.8762H105.517L105.905 99.1186L106.164 99.5066L106.565 99.3773L107.586 99.9397V97.0817L106.565 96.7654Z" fill="#DB8D46"/>
<path fill-rule="evenodd" clip-rule="evenodd" d="M127.757 92.0058L135.6 94.3217L119.057 98.1456L114.454 99.2091L107.586 97.0817L117.672 94.5437L127.757 92.0058ZM125.43 91.3185L119.034 89.4297L98.4062 94.3217L105.259 96.3741L125.43 91.3185Z" fill="#FCBC4E"/>
<path d="M105.259 96.3741L106.565 96.7654L107.586 97.0817L117.672 94.5437L127.757 92.0058L125.43 91.3185L105.259 96.3741Z" fill="#DB8D46"/>
<g opacity="0.35" filter="url(#filter1_f_16705_32880)">
<path d="M158.308 120.023C158.308 125.309 129.424 131.645 108.059 137.115C86.011 128.227 76.9524 124.296 74.0469 121.561C74.0469 116.275 89.0116 113.357 111.477 113.357C133.943 113.357 158.308 114.737 158.308 120.023Z" fill="#545454"/>
</g>
<g opacity="0.35" filter="url(#filter2_f_16705_32880)">
<path d="M186.847 127.029C186.847 129.539 183.087 131.987 160.697 131.987C153.641 131.987 142.963 132.224 141.555 130.926C141.555 128.416 148.81 127.03 159.703 127.03C170.595 127.03 186.847 124.519 186.847 127.029Z" fill="#545454"/>
</g>
<g opacity="0.1" filter="url(#filter3_f_16705_32880)">
<path d="M115.969 120.851L132.469 125.927L154.107 120.615V122.772L132.469 129.768L115.969 123.359V120.851Z" fill="black"/>
</g>
<path d="M132.469 105.03C141.11 103.001 145.954 101.863 154.595 99.834V123.134L132.469 129.168L132.469 105.03Z" fill="#DB8D46"/>
<path d="M132.469 105.03L115.706 99.834V123.134L132.469 129.168V105.03Z" fill="#FE9E47"/>
<path d="M124.078 102.431L122.692 102.016V104.671H122.967L123.378 104.928L123.653 105.34L124.078 105.203L125.162 105.799V102.767L124.078 102.431Z" fill="#DB8D46"/>
<path fill-rule="evenodd" clip-rule="evenodd" d="M146.563 97.3816L154.883 99.8387L137.331 103.896L132.448 105.024L125.162 102.767L135.862 100.074L146.563 97.3816ZM144.093 96.6524L137.307 94.6484L115.422 99.8387L122.692 102.016L144.093 96.6524Z" fill="#FCBC4E"/>
<path d="M122.692 102.016L124.078 102.431L125.162 102.767L135.862 100.074L146.563 97.3816L144.093 96.6524L122.692 102.016Z" fill="#DB8D46"/>
<g opacity="0.1" filter="url(#filter4_f_16705_32880)">
<path d="M74.4062 120.371L90.3542 125.277L111.268 120.143V122.227L90.3542 128.989L74.4062 122.795V120.371Z" fill="black"/>
</g>
<path d="M90.3516 105.081C98.7034 103.12 103.386 102.02 111.738 100.059V122.579L90.3516 128.412L90.3516 105.081Z" fill="#DB8D46"/>
<path d="M90.3516 105.081L74.1498 100.059V122.579L90.3516 128.412V105.081Z" fill="#FE9E47"/>
<path d="M82.2418 102.568L80.9022 102.166V104.732H81.1673L81.5651 104.981L81.8303 105.379L82.2418 105.246L83.2889 105.823V102.892L82.2418 102.568Z" fill="#DB8D46"/>
<path fill-rule="evenodd" clip-rule="evenodd" d="M103.974 97.6867L112.017 100.062L95.0517 103.983L90.3316 105.074L83.2889 102.892L93.6315 100.289L103.974 97.6867ZM101.587 96.9819L95.0281 95.0449L73.875 100.062L80.9022 102.166L101.587 96.9819Z" fill="#FCBC4E"/>
<path d="M80.9022 102.166L82.2418 102.568L83.2889 102.892L93.6315 100.289L103.974 97.6867L101.587 96.9819L80.9022 102.166Z" fill="#DB8D46"/>
<g opacity="0.1" filter="url(#filter5_f_16705_32880)">
<path d="M91.875 127.267L108.795 132.473L130.985 127.025V129.237L108.795 136.412L91.875 129.839V127.267Z" fill="black"/>
</g>
<path d="M108.797 111.048C117.658 108.967 122.626 107.8 131.487 105.719V129.612L108.797 135.801L108.797 111.048Z" fill="#DB8D46"/>
<path d="M108.797 111.048L91.6072 105.719V129.612L108.797 135.801V111.048Z" fill="#FE9E47"/>
<path d="M100.189 108.38L98.7681 107.954V110.676H99.0495L99.4715 110.94L99.7529 111.362L100.189 111.221L101.3 111.833V108.724L100.189 108.38Z" fill="#DB8D46"/>
<path fill-rule="evenodd" clip-rule="evenodd" d="M123.247 103.201L131.78 105.721L113.78 109.881L108.772 111.039L101.3 108.724L112.274 105.963L123.247 103.201ZM120.715 102.453L113.755 100.398L91.3125 105.721L98.7681 107.954L120.715 102.453Z" fill="#FCBC4E"/>
<path d="M98.7681 107.954L100.189 108.38L101.3 108.724L112.274 105.963L123.247 103.201L120.715 102.453L98.7681 107.954Z" fill="#DB8D46"/>
<g opacity="0.1" filter="url(#filter6_f_16705_32880)">
<path d="M97.3359 98.5232L114.256 103.728L136.446 98.2812V100.493L114.256 107.667L97.3359 101.095V98.5232Z" fill="black"/>
</g>
<path d="M114.258 82.3034C123.119 80.2224 128.087 79.0556 136.948 76.9746V100.868L114.258 107.056L114.258 82.3034Z" fill="#DB8D46"/>
<path d="M114.258 82.3034L97.0682 76.9746V100.868L114.258 107.056V82.3034Z" fill="#FE9E47"/>
<path d="M105.65 79.6356L104.229 79.2099V81.9322H104.51L104.932 82.196L105.214 82.618L105.65 82.4773L106.761 83.0893V79.9798L105.65 79.6356Z" fill="#DB8D46"/>
<path fill-rule="evenodd" clip-rule="evenodd" d="M128.708 74.4571L137.241 76.9768L119.241 81.1373L114.233 82.2944L106.761 79.9798L117.735 77.2184L128.708 74.4571ZM126.176 73.7093L119.216 71.6543L96.7734 76.9768L104.229 79.2099L126.176 73.7093Z" fill="#FCBC4E"/>
<path d="M104.229 79.2099L105.65 79.6356L106.761 79.9798L117.735 77.2184L128.708 74.4571L126.176 73.7093L104.229 79.2099Z" fill="#DB8D46"/>
<path d="M144.999 90.2975C144.632 87.653 144.381 84.8994 143.77 84.2781C142.389 82.8737 141.524 82.3527 139.798 81.7724C139.406 81.4534 138.527 81.0792 138.347 81.1984C137.57 81.7147 137.433 82.1942 137.119 82.9317C136.682 82.8583 136.306 83.4254 136.367 83.8662L136.588 85.4529C136.306 85.4264 136.197 85.4999 136.303 86.2208L136.487 87.5431C136.56 88.0717 138.82 89.5049 140.471 90.1369L140.716 91.8999L145.183 91.6197L144.999 90.2975Z" fill="url(#paint0_linear_16705_32880)"/>
<path d="M141.603 84.897L138.961 82.8047C138.757 82.6575 138.625 82.4253 138.57 82.1836L139.003 84.5109L139.501 84.9252L139.999 85.3395C140.36 85.8215 140.072 85.9983 139.403 85.9781C140.081 86.5544 140.448 86.7478 141.041 86.5214C141.109 86.0314 141.303 85.4956 141.603 84.897Z" fill="#EC6416"/>
<path fill-rule="evenodd" clip-rule="evenodd" d="M138.879 81.3521C138.905 81.3941 138.888 81.4493 138.842 81.4754C138.664 81.5754 138.625 81.7104 138.645 81.9979C138.651 82.0796 138.666 82.1619 138.69 82.2416C138.691 82.2431 138.691 82.2447 138.692 82.2463C138.752 82.4405 138.866 82.619 139.028 82.7354L139.029 82.7366L141.726 84.8724L141.695 84.9338C141.232 85.8572 141.031 86.6149 141.149 87.2793C141.266 87.9404 141.702 88.5264 142.554 89.0984C142.597 89.1267 142.604 89.1825 142.572 89.223C142.539 89.2636 142.478 89.2735 142.436 89.2452C141.56 88.6574 141.086 88.0368 140.959 87.3166C140.834 86.6153 141.042 85.8361 141.49 84.9266L138.903 82.8777C138.863 82.8484 138.825 82.8163 138.79 82.7818L139.097 84.4649L140.078 85.2805L140.084 85.2886C140.178 85.4136 140.237 85.5277 140.253 85.6307C140.27 85.7387 140.24 85.8363 140.159 85.9115C140.082 85.9817 139.972 86.0221 139.848 86.0448C139.802 86.0533 139.753 86.0596 139.7 86.064L139.795 86.1274L139.799 86.1307C140.032 86.3291 140.149 86.5364 140.15 86.7492C140.151 86.9621 140.034 87.1585 139.85 87.3326C139.82 87.3608 139.782 87.37 139.759 87.3738C139.733 87.3782 139.704 87.3787 139.677 87.3774C139.621 87.3748 139.553 87.3641 139.483 87.3484C139.448 87.3406 139.411 87.3313 139.373 87.3208C139.38 87.3313 139.387 87.342 139.394 87.3529C139.449 87.4359 139.499 87.533 139.52 87.6306C139.541 87.7288 139.533 87.84 139.451 87.9334C139.387 88.006 139.298 88.055 139.209 88.0888C139.12 88.1228 139.024 88.144 138.938 88.1574C138.874 88.1674 138.814 88.1733 138.763 88.1768C138.78 88.2541 138.769 88.3294 138.729 88.3992C138.671 88.5019 138.561 88.5757 138.441 88.6261C138.2 88.7273 138.025 88.7099 137.755 88.6574C137.703 88.6474 137.672 88.6 137.686 88.5516C137.699 88.5032 137.752 88.4721 137.803 88.4821C138.037 88.5276 138.17 88.5471 138.369 88.4636C138.468 88.4218 138.531 88.3716 138.559 88.3222C138.58 88.2844 138.588 88.2354 138.555 88.1686L136.611 87.6532C136.56 87.6401 136.532 87.5908 136.549 87.5431C136.566 87.4954 136.62 87.4674 136.671 87.4805L138.642 88.0027C138.644 88.0027 138.648 88.0027 138.651 88.0026C138.666 88.0025 138.687 88.002 138.713 88.0008C138.766 87.9983 138.838 87.9928 138.915 87.9808C138.993 87.9688 139.073 87.9506 139.144 87.9236C139.215 87.8964 139.27 87.8629 139.304 87.824C139.334 87.7898 139.345 87.7419 139.331 87.6733C139.316 87.6041 139.277 87.5267 139.228 87.451C139.179 87.3764 139.123 87.3085 139.079 87.2588C139.057 87.2342 139.038 87.2143 139.025 87.2007C139.022 87.1983 139.02 87.1961 139.018 87.1941L136.839 86.4581L136.424 85.6415C136.408 85.5951 136.436 85.5436 136.487 85.5264C136.538 85.5092 136.592 85.5328 136.608 85.5791L136.996 86.3176L139.117 87.0339L139.122 87.0359C139.251 87.0951 139.407 87.1455 139.536 87.1741C139.601 87.1885 139.656 87.1967 139.696 87.1985C139.71 87.1992 139.721 87.1989 139.728 87.1983C139.882 87.0494 139.957 86.9022 139.957 86.7585C139.957 86.6117 139.876 86.447 139.668 86.2685L139.356 86.059L137.45 85.2684L137.063 83.0238C137.054 82.9755 137.089 82.9278 137.142 82.9173C137.195 82.9068 137.244 82.9374 137.253 82.9857L137.624 85.141L139.434 85.8916C139.589 85.8954 139.718 85.8879 139.82 85.8693C139.927 85.8495 139.991 85.8193 140.026 85.7876C140.055 85.7609 140.071 85.7252 140.062 85.6651C140.052 85.6016 140.013 85.5154 139.93 85.4033L138.918 84.5617L138.504 82.2958C138.476 82.204 138.459 82.1102 138.452 82.0182C138.43 81.7038 138.472 81.4779 138.748 81.3234C138.794 81.2973 138.853 81.3101 138.879 81.3521Z" fill="#C55300"/>
<path fill-rule="evenodd" clip-rule="evenodd" d="M143.304 75.7426C143.793 74.523 142.566 74.0194 142.103 75.1764L139.543 81.5653L140.75 82.1155L143.304 75.7426ZM138.974 82.9858L139.535 83.4297L140.096 83.8736L139.606 84.9388L139.115 84.4061L138.786 83.4543L138.974 82.9858ZM137.275 90.7882L138.131 88.6521L136.911 88.1351L136.074 90.222C136.012 90.6214 135.916 91.071 135.826 91.4962C135.658 92.281 135.509 92.9826 135.622 93.1326C135.768 93.2015 136.149 92.58 136.574 91.8848C136.805 91.5082 137.049 91.11 137.275 90.7882Z" fill="#B589D6"/>
<path d="M147.151 98.6117C147.783 88.4782 154.788 85.5157 154.881 85.5416L155.798 84.218L153.744 93.6758C152.456 95.8726 152.961 97.242 152.077 98.6114L150.561 104.637C149.677 108.471 146.393 107.65 146.014 103.816L147.151 98.6117Z" fill="url(#paint1_linear_16705_32880)"/>
<path d="M173.17 85.8749C173.326 85.8563 177.843 86.9679 181.505 97.2406L182.435 104.77C182.547 106.55 178.14 106.963 177.842 106.963C176.706 101.623 175.948 95.7345 174.685 93.2086C172.903 94.073 171.295 94.6073 170.252 94.7836C168.251 95.1217 166.21 95.2231 164.165 95.0525L158.577 94.5887C157.122 94.465 155.426 94.1708 153.744 93.6758L155.798 84.218L157.852 83.305L167.892 82.8129L173.17 85.8749Z" fill="url(#paint2_linear_16705_32880)"/>
<path fill-rule="evenodd" clip-rule="evenodd" d="M154.878 85.5432C154.785 85.5173 147.781 88.4797 147.149 98.6132L146.012 103.817C146.39 107.651 149.674 108.473 150.558 104.638L152.074 98.613C152.479 97.9857 152.593 97.3584 152.721 96.6515C152.872 95.8154 153.043 94.8679 153.741 93.6774C155.423 94.1724 157.119 94.4666 158.574 94.5903L164.162 95.0541C166.208 95.2246 168.248 95.1233 170.25 94.7852C171.292 94.6089 172.9 94.0746 174.682 93.2102C175.568 94.9824 176.206 98.41 176.9 102.142L176.9 102.142C177.195 103.73 177.5 105.372 177.839 106.965C178.138 106.965 182.545 106.552 182.432 104.771L181.502 97.2421C177.84 86.9695 173.323 85.8579 173.167 85.8765L167.889 82.8145L157.849 83.3066L155.795 84.2196L154.878 85.5432ZM173.344 85.288L168.154 82.2772C168.065 82.2256 167.964 82.2009 167.864 82.2058L157.824 82.6979C157.759 82.7011 157.696 82.7163 157.636 82.7428L155.582 83.6558C155.489 83.6974 155.407 83.7658 155.346 83.8535L154.535 85.0252C154.473 85.0515 154.399 85.0851 154.315 85.126C154.095 85.2333 153.793 85.3966 153.436 85.6239C152.722 86.0784 151.778 86.7938 150.818 87.8383C148.897 89.928 146.927 93.3209 146.591 98.5214L145.465 103.677C145.45 103.744 145.446 103.813 145.453 103.882C145.657 105.944 146.673 107.426 147.989 107.702C148.654 107.841 149.33 107.647 149.891 107.132C150.442 106.626 150.861 105.834 151.102 104.793L152.592 98.8712C153.022 98.1627 153.151 97.4448 153.27 96.7784C153.283 96.71 153.295 96.6421 153.307 96.5749C153.429 95.9158 153.58 95.2179 154.007 94.383C155.587 94.818 157.162 95.0814 158.53 95.1977L158.531 95.1978L164.119 95.6616C164.119 95.6616 164.119 95.6616 164.119 95.6616C166.21 95.8359 168.294 95.7321 170.336 95.3872C171.341 95.2172 172.799 94.7439 174.413 94.0018C174.904 95.2077 175.331 97.0127 175.759 99.1608C175.953 100.132 176.146 101.173 176.346 102.244C176.643 103.842 176.952 105.506 177.292 107.102C177.351 107.379 177.578 107.574 177.839 107.574C178.04 107.574 179.265 107.463 180.435 107.125C181.018 106.956 181.637 106.716 182.114 106.373C182.586 106.034 183.041 105.497 182.992 104.73C182.991 104.717 182.99 104.704 182.989 104.691L182.059 97.1613C182.053 97.1138 182.042 97.0671 182.026 97.0224C180.17 91.8143 178.079 88.8817 176.394 87.2461C175.553 86.4288 174.815 85.9383 174.264 85.6508C173.988 85.5073 173.759 85.414 173.585 85.356C173.499 85.3271 173.423 85.3059 173.361 85.2918C173.355 85.2905 173.349 85.2892 173.344 85.288Z" fill="#64EDFF"/>
<path d="M142.542 99.7271C141.829 95.7269 140.358 91.0493 140.358 91.0493L144.766 89.9747L146.894 96.0474L149.208 103.016C149.899 106.897 145.034 108.532 144.364 106C143.256 103.445 143.085 102.771 142.542 99.7271Z" fill="url(#paint3_linear_16705_32880)"/>
<path fill-rule="evenodd" clip-rule="evenodd" d="M139.871 90.7521C139.793 90.903 139.778 91.0827 139.83 91.2464L139.834 91.2589L139.846 91.2977C139.856 91.3322 139.872 91.3837 139.893 91.4507C139.934 91.5849 139.994 91.7815 140.068 92.0301C140.216 92.5275 140.421 93.2325 140.648 94.0618C141.102 95.7235 141.643 97.8713 141.994 99.8431C142.265 101.361 142.448 102.323 142.708 103.228C142.966 104.129 143.296 104.959 143.841 106.218C144.082 107.062 144.68 107.558 145.371 107.74C146.055 107.921 146.832 107.802 147.526 107.472C148.923 106.807 150.169 105.183 149.763 102.901C149.758 102.871 149.75 102.84 149.74 102.811L147.426 95.8415C147.426 95.8392 147.425 95.8369 147.424 95.8346C147.424 95.8335 147.423 95.8325 147.423 95.8315L145.295 89.7588C145.196 89.4754 144.919 89.3143 144.647 89.3808L140.238 90.4554C140.083 90.4933 139.949 90.6012 139.871 90.7521ZM144.368 106C143.259 103.446 143.088 102.772 142.546 99.7275C141.984 96.5764 140.952 93.0051 140.539 91.6309C140.428 91.2605 140.361 91.0497 140.361 91.0497L144.77 89.9751L146.898 96.0478L149.212 103.017C149.903 106.898 145.037 108.533 144.368 106Z" fill="#64EDFF"/>
<path d="M169.555 124.252C169.555 124.252 169.177 117.021 166.115 116.495C165.178 116.334 164.612 116.479 163.697 116.751C160.506 117.701 162.606 116.717 159.704 121.496C157.613 124.939 148.794 123.352 148.794 123.352C148.794 123.352 149.693 110.925 151.224 103.141C152.632 95.9822 156.071 85.1496 156.071 85.1496C156.278 84.1205 158.984 82.944 159.852 82.8235L169.205 80.8009C170.119 80.6726 170.985 81.2937 171.322 82.3297C171.322 82.3297 175.28 94.8448 176.735 103.14C178.083 110.818 178.427 122.131 178.718 123.038C179.004 123.945 169.558 124.252 169.558 124.252L169.555 124.252Z" fill="url(#paint4_linear_16705_32880)"/>
<path fill-rule="evenodd" clip-rule="evenodd" d="M168.99 124.284L168.99 124.281L168.989 124.268C168.989 124.256 168.988 124.237 168.986 124.212C168.983 124.162 168.977 124.088 168.969 123.992C168.954 123.801 168.928 123.525 168.887 123.191C168.806 122.522 168.668 121.632 168.438 120.731C168.207 119.824 167.893 118.941 167.474 118.267C167.057 117.593 166.578 117.19 166.024 117.095C165.209 116.955 164.738 117.07 163.842 117.336C163.529 117.429 163.276 117.502 163.067 117.562C162.716 117.662 162.491 117.726 162.321 117.792C162.201 117.839 162.159 117.87 162.144 117.883C162.134 117.891 162.117 117.907 162.081 117.977C162.045 118.049 162.003 118.157 161.946 118.306C161.735 118.852 161.311 119.948 160.17 121.829C159.537 122.87 158.437 123.472 157.263 123.824C156.077 124.179 154.725 124.305 153.468 124.322C152.207 124.339 151.017 124.247 150.144 124.15C149.707 124.102 149.348 124.052 149.097 124.015C148.971 123.996 148.873 123.98 148.805 123.969C148.771 123.963 148.745 123.959 148.727 123.956L148.707 123.952L148.701 123.951L148.699 123.951L148.699 123.951C148.699 123.951 148.699 123.951 148.791 123.35C148.791 123.35 157.609 124.937 159.7 121.493C161.424 118.656 161.383 117.85 161.734 117.465C161.974 117.202 162.397 117.135 163.694 116.749C164.608 116.476 165.175 116.332 166.112 116.493C169.173 117.019 169.551 124.25 169.551 124.25L169.555 124.25L169.571 124.859L169.544 124.86L169.018 124.821L168.99 124.284ZM178.714 123.035C178.614 122.722 178.507 121.169 178.355 118.953C178.066 114.751 177.614 108.165 176.732 103.138C175.276 94.8425 171.318 82.3275 171.318 82.3275C171.849 82.1297 171.849 82.1298 171.849 82.1299L171.861 82.1667C171.868 82.1909 171.88 82.2268 171.895 82.274C171.924 82.3683 171.967 82.5074 172.023 82.6872C172.135 83.0469 172.295 83.5696 172.493 84.2227C172.888 85.5286 173.429 87.3563 174.016 89.4441C175.189 93.6136 176.55 98.8423 177.283 103.024C177.963 106.898 178.388 111.674 178.679 115.577C178.769 116.785 178.847 117.917 178.915 118.913C178.957 119.524 178.996 120.083 179.031 120.576C179.078 121.23 179.12 121.769 179.159 122.171C179.179 122.373 179.197 122.534 179.214 122.656C179.231 122.776 179.243 122.827 179.244 122.835C179.245 122.836 179.245 122.836 179.245 122.836L179.245 122.838C179.365 123.216 179.178 123.511 179.034 123.652C178.902 123.78 178.737 123.862 178.602 123.918C178.318 124.035 177.928 124.129 177.498 124.208C176.626 124.37 175.45 124.495 174.284 124.59C173.113 124.686 171.935 124.753 171.051 124.796C170.609 124.818 170.239 124.834 169.98 124.844C169.851 124.849 169.749 124.853 169.679 124.855C169.661 124.856 169.645 124.857 169.632 124.857C169.619 124.857 169.608 124.858 169.599 124.858L169.572 124.859L169.571 124.859C169.571 124.859 169.571 124.859 169.555 124.25C169.555 124.25 179.001 123.942 178.714 123.035ZM169.202 80.7987C170.115 80.6704 170.981 81.2915 171.318 82.3275L171.849 82.1297L171.848 82.1273L171.848 82.1249C171.434 80.8529 170.338 80.0247 169.13 80.1945L169.111 80.1971L159.757 82.2199C159.229 82.299 158.285 82.6527 157.46 83.0981C157.035 83.3276 156.612 83.5969 156.273 83.8907C155.966 84.1563 155.633 84.5219 155.527 84.9773L155.526 84.981C155.519 85.002 155.51 85.0331 155.497 85.0739C155.471 85.1555 155.433 85.2759 155.385 85.4315C155.288 85.7428 155.147 86.1951 154.975 86.7602C154.63 87.8902 154.155 89.4715 153.636 91.2771C152.599 94.8834 151.381 99.4034 150.671 103.011C149.899 106.935 149.289 112.013 148.873 116.096C148.664 118.141 148.504 119.942 148.395 121.231C148.341 121.876 148.3 122.393 148.272 122.75C148.259 122.928 148.248 123.066 148.241 123.159C148.238 123.206 148.235 123.241 148.233 123.266L148.231 123.302C148.231 123.302 148.231 123.302 148.791 123.35L148.231 123.302L148.19 123.859L148.699 123.951L148.791 123.35C148.791 123.35 149.689 110.923 151.22 103.139C152.629 95.98 156.067 85.1473 156.067 85.1473C156.275 84.1182 158.98 82.9418 159.849 82.8213L169.202 80.7987Z" fill="#64EDFF"/>
<path d="M161.16 114.314C161.471 114.738 161.796 115.13 162.142 115.465C162.311 115.637 162.493 115.785 162.672 115.933C162.847 116.086 163.03 116.207 163.206 116.363L163.232 116.383C163.385 116.519 163.407 116.758 163.283 116.924C163.184 117.056 163.021 117.098 162.881 117.039C162.625 116.932 162.385 116.771 162.185 116.575C161.978 116.379 161.808 116.154 161.658 115.914C161.507 115.675 161.384 115.426 161.282 115.163C161.183 114.904 161.105 114.635 161.068 114.354C161.062 114.324 161.081 114.295 161.112 114.288C161.13 114.287 161.148 114.296 161.16 114.311L161.16 114.314Z" fill="#64EDFF"/>
<path d="M168.401 115.209C168.354 115.452 168.254 115.668 168.137 115.879C168.015 116.083 167.871 116.273 167.708 116.446C167.545 116.615 167.366 116.778 167.171 116.896C166.975 117.018 166.763 117.115 166.544 117.163C166.349 117.204 166.161 117.069 166.123 116.861C166.093 116.703 166.158 116.547 166.275 116.463L166.302 116.445C166.382 116.383 166.471 116.34 166.556 116.294C166.637 116.244 166.729 116.208 166.811 116.162C166.984 116.073 167.154 115.988 167.327 115.895C167.665 115.697 168 115.462 168.312 115.16L168.315 115.156C168.335 115.135 168.37 115.135 168.39 115.16C168.402 115.171 168.403 115.19 168.401 115.209Z" fill="#64EDFF"/>
<path d="M148.257 124.003L150.645 118.529L160.51 120.131L157.993 125.155L148.257 124.003Z" fill="#5156C0"/>
<path d="M158.783 128.942C156.914 130.048 145.739 132.032 144.556 129.462C144.442 129.213 144.407 128.958 144.444 128.695C144.606 127.471 145.811 125.004 147.711 123.901C149.612 122.793 152.211 123.044 152.211 123.044L158.783 124.277C158.783 124.277 159.306 125.987 159.382 127.645C159.412 128.191 159.25 128.664 158.783 128.946L158.783 128.942Z" fill="url(#paint5_linear_16705_32880)"/>
<path d="M158.781 128.939C156.911 130.045 145.736 132.03 144.553 129.46C144.439 129.211 144.466 127.968 144.503 127.705C146.72 128.328 152.296 129.291 159.441 126.655C159.472 127.201 159.247 128.662 158.78 128.944L158.781 128.939Z" fill="#3167D5"/>
<path d="M170.904 102.708C170.893 102.695 171.075 102.725 171.339 102.597C171.477 102.527 171.628 102.395 171.747 102.189C171.795 102.092 171.843 101.97 171.869 101.835C171.883 101.712 171.876 101.552 171.88 101.404C171.91 100.147 171.942 98.348 171.995 96.1303C172.008 95.5718 172.019 94.9885 172.026 94.3805C172.033 94.0848 171.915 93.7979 171.704 93.5947C171.592 93.5052 171.469 93.4278 171.333 93.3993C171.198 93.3585 171.05 93.3666 170.891 93.3622C169.686 93.3282 168.402 93.2919 167.039 93.2535C164.324 93.1768 161.336 93.0925 158.211 93.0043C157.836 92.9937 157.478 93.2548 157.344 93.6209C157.26 93.8035 157.266 94.0009 157.261 94.2104C157.256 94.4157 157.251 94.6252 157.246 94.8387C157.226 95.6601 157.207 96.4732 157.187 97.2781C157.168 98.0831 157.149 98.8675 157.131 99.6313C157.122 100.017 157.112 100.399 157.103 100.777C157.099 100.962 157.083 101.159 157.09 101.344C157.097 101.517 157.149 101.691 157.237 101.829C157.412 102.13 157.726 102.299 158.045 102.283C158.378 102.293 158.704 102.302 159.022 102.311C159.665 102.337 160.29 102.359 160.896 102.376C162.101 102.41 163.225 102.442 164.259 102.471C166.304 102.541 167.962 102.6 169.121 102.633C169.689 102.649 170.132 102.674 170.439 102.682C170.59 102.687 170.704 102.69 170.78 102.692C170.833 102.702 170.874 102.707 170.904 102.708C170.874 102.707 170.832 102.71 170.779 102.716C170.703 102.714 170.59 102.711 170.438 102.707C170.132 102.698 169.688 102.698 169.12 102.682C167.961 102.649 166.302 102.615 164.257 102.569C163.223 102.54 162.098 102.508 160.894 102.474C160.288 102.457 159.663 102.444 159.019 102.434C158.701 102.425 158.375 102.416 158.042 102.406C157.7 102.421 157.341 102.226 157.144 101.9C157.046 101.737 156.983 101.538 156.976 101.341C156.981 101.144 156.985 100.971 156.99 100.774C156.999 100.396 157.008 100.014 157.017 99.6281C157.036 98.8643 157.054 98.0799 157.074 97.2749C157.093 96.47 157.113 95.6569 157.133 94.8355C157.138 94.622 157.143 94.4125 157.148 94.2072C157.152 94.01 157.147 93.7756 157.231 93.5684C157.389 93.1537 157.794 92.8569 158.214 92.8811C161.339 92.9693 164.327 93.0536 167.042 93.1303C168.405 93.1811 169.689 93.2173 170.893 93.2513C171.041 93.2554 171.2 93.2476 171.358 93.2891C171.505 93.3302 171.651 93.4206 171.762 93.5224C171.996 93.7386 172.124 94.0627 172.117 94.3831C172.102 94.9909 172.088 95.574 172.075 96.1325C172.01 98.3499 171.967 100.149 171.925 101.405C171.921 101.553 171.929 101.701 171.903 101.848C171.877 101.983 171.829 102.105 171.769 102.214C171.65 102.421 171.488 102.552 171.35 102.609C171.212 102.679 171.098 102.701 171.018 102.711C170.965 102.709 170.927 102.708 170.904 102.708Z" fill="#64EDFF"/>
<path d="M159.383 100.08C159.615 100.086 159.808 99.8876 159.814 99.6358C159.82 99.3841 159.637 99.1747 159.405 99.1681C159.173 99.1616 158.979 99.3603 158.973 99.6121C158.967 99.8639 159.151 100.073 159.383 100.08Z" fill="#64EDFF"/>
<path fill-rule="evenodd" clip-rule="evenodd" d="M159.387 99.8988C159.527 99.9027 159.644 99.7829 159.647 99.6311C159.651 99.4793 159.54 99.3531 159.4 99.3491C159.26 99.3452 159.144 99.465 159.14 99.6168C159.137 99.7686 159.247 99.8948 159.387 99.8988ZM159.814 99.6358C159.808 99.8876 159.615 100.086 159.383 100.08C159.151 100.073 158.967 99.8639 158.973 99.6121C158.979 99.3603 159.173 99.1616 159.405 99.1681C159.637 99.1747 159.82 99.3841 159.814 99.6358Z" fill="#64EDFF"/>
<path d="M160.805 100.119C161.037 100.125 161.23 99.9266 161.236 99.6749C161.242 99.4231 161.059 99.2137 160.827 99.2072C160.594 99.2006 160.401 99.3994 160.395 99.6512C160.389 99.9029 160.573 100.112 160.805 100.119Z" fill="#64EDFF"/>
<path fill-rule="evenodd" clip-rule="evenodd" d="M160.809 99.9378C160.949 99.9418 161.065 99.822 161.069 99.6702C161.073 99.5184 160.962 99.3922 160.822 99.3882C160.682 99.3843 160.566 99.5041 160.562 99.6559C160.559 99.8076 160.669 99.9339 160.809 99.9378ZM161.236 99.6749C161.23 99.9266 161.037 100.125 160.805 100.119C160.573 100.112 160.389 99.9029 160.395 99.6512C160.401 99.3994 160.594 99.2006 160.827 99.2072C161.059 99.2137 161.242 99.4231 161.236 99.6749Z" fill="#64EDFF"/>
<path d="M162.187 100.16C162.42 100.166 162.613 99.9677 162.619 99.7159C162.625 99.4641 162.442 99.2547 162.209 99.2482C161.977 99.2416 161.784 99.4404 161.778 99.6922C161.772 99.9439 161.955 100.153 162.187 100.16Z" fill="#64EDFF"/>
<path fill-rule="evenodd" clip-rule="evenodd" d="M162.192 99.9789C162.332 99.9828 162.448 99.863 162.452 99.7112C162.456 99.5594 162.345 99.4332 162.205 99.4292C162.065 99.4253 161.949 99.5451 161.945 99.6969C161.941 99.8487 162.052 99.9749 162.192 99.9789ZM162.619 99.7159C162.613 99.9677 162.42 100.166 162.187 100.16C161.955 100.153 161.772 99.9439 161.778 99.6922C161.784 99.4404 161.977 99.2416 162.209 99.2482C162.442 99.2547 162.625 99.4641 162.619 99.7159Z" fill="#64EDFF"/>
<path d="M163.57 100.199C163.802 100.205 163.996 100.007 164.002 99.755C164.008 99.5032 163.824 99.2938 163.592 99.2873C163.36 99.2807 163.167 99.4795 163.161 99.7312C163.155 99.983 163.338 100.192 163.57 100.199Z" fill="#64EDFF"/>
<path fill-rule="evenodd" clip-rule="evenodd" d="M163.575 100.018C163.715 100.022 163.831 99.902 163.835 99.7503C163.838 99.5985 163.728 99.4722 163.588 99.4683C163.448 99.4643 163.331 99.5842 163.328 99.7359C163.324 99.8877 163.435 100.014 163.575 100.018ZM164.002 99.755C163.996 100.007 163.802 100.205 163.57 100.199C163.338 100.192 163.155 99.983 163.161 99.7312C163.167 99.4795 163.36 99.2807 163.592 99.2873C163.824 99.2938 164.008 99.5032 164.002 99.755Z" fill="#64EDFF"/>
<path d="M163.467 96.8601L159.661 96.7527C159.389 96.745 159.167 96.5045 159.174 96.1965C159.182 95.9007 159.415 95.6607 159.687 95.6684L163.494 95.7758C163.766 95.7835 163.988 96.0364 163.98 96.3321C163.973 96.6401 163.74 96.8678 163.467 96.8601Z" fill="#64EDFF"/>
<path fill-rule="evenodd" clip-rule="evenodd" d="M159.666 96.5717L163.472 96.6791C163.655 96.6843 163.809 96.5328 163.813 96.3274C163.818 96.1317 163.67 95.962 163.489 95.9569L159.683 95.8495C159.503 95.8444 159.346 96.0054 159.341 96.2012C159.336 96.4065 159.483 96.5665 159.666 96.5717ZM159.661 96.7527L163.467 96.8601C163.74 96.8678 163.973 96.6401 163.98 96.3321C163.988 96.0364 163.766 95.7835 163.494 95.7758L159.687 95.6684C159.415 95.6607 159.182 95.9007 159.174 96.1965C159.167 96.5045 159.389 96.745 159.661 96.7527Z" fill="#64EDFF"/>
<path d="M159.5 98.3591C159.732 98.3657 159.925 98.1669 159.931 97.9151C159.937 97.6634 159.754 97.454 159.522 97.4474C159.29 97.4409 159.097 97.6396 159.091 97.8914C159.085 98.1431 159.268 98.3525 159.5 98.3591Z" fill="#64EDFF"/>
<path fill-rule="evenodd" clip-rule="evenodd" d="M159.504 98.1781C159.644 98.182 159.761 98.0622 159.764 97.9104C159.768 97.7586 159.658 97.6324 159.518 97.6284C159.378 97.6245 159.261 97.7443 159.258 97.8961C159.254 98.0479 159.364 98.1741 159.504 98.1781ZM159.931 97.9151C159.925 98.1669 159.732 98.3657 159.5 98.3591C159.268 98.3525 159.085 98.1431 159.091 97.8914C159.097 97.6396 159.29 97.4409 159.522 97.4474C159.754 97.454 159.937 97.6634 159.931 97.9151Z" fill="#64EDFF"/>
<path d="M160.93 98.3982C161.162 98.4047 161.355 98.2059 161.361 97.9542C161.367 97.7024 161.184 97.493 160.952 97.4865C160.719 97.4799 160.526 97.6787 160.52 97.9305C160.514 98.1822 160.698 98.3916 160.93 98.3982Z" fill="#64EDFF"/>
<path fill-rule="evenodd" clip-rule="evenodd" d="M160.934 98.2171C161.074 98.2211 161.19 98.1012 161.194 97.9495C161.198 97.7977 161.087 97.6714 160.947 97.6675C160.807 97.6635 160.691 97.7834 160.687 97.9352C160.684 98.0869 160.794 98.2132 160.934 98.2171ZM161.361 97.9542C161.355 98.2059 161.162 98.4047 160.93 98.3982C160.698 98.3916 160.514 98.1822 160.52 97.9305C160.526 97.6787 160.719 97.4799 160.952 97.4865C161.184 97.493 161.367 97.7024 161.361 97.9542Z" fill="#64EDFF"/>
<path d="M162.305 98.4392C162.537 98.4457 162.73 98.247 162.736 97.9952C162.742 97.7434 162.559 97.534 162.327 97.5275C162.094 97.5209 161.901 97.7197 161.895 97.9715C161.889 98.2232 162.073 98.4326 162.305 98.4392Z" fill="#64EDFF"/>
<path fill-rule="evenodd" clip-rule="evenodd" d="M162.309 98.2582C162.449 98.2621 162.565 98.1423 162.569 97.9905C162.573 97.8387 162.462 97.7125 162.322 97.7085C162.182 97.7046 162.066 97.8244 162.062 97.9762C162.059 98.128 162.169 98.2542 162.309 98.2582ZM162.736 97.9952C162.73 98.247 162.537 98.4457 162.305 98.4392C162.073 98.4326 161.889 98.2232 161.895 97.9715C161.901 97.7197 162.094 97.5209 162.327 97.5275C162.559 97.534 162.742 97.7434 162.736 97.9952Z" fill="#64EDFF"/>
<path d="M163.695 98.4782C163.927 98.4848 164.121 98.286 164.127 98.0343C164.133 97.7825 163.949 97.5731 163.717 97.5666C163.485 97.56 163.292 97.7588 163.286 98.0105C163.28 98.2623 163.463 98.4717 163.695 98.4782Z" fill="#64EDFF"/>
<path fill-rule="evenodd" clip-rule="evenodd" d="M163.7 98.2972C163.84 98.3012 163.956 98.1813 163.96 98.0295C163.963 97.8778 163.853 97.7515 163.713 97.7476C163.573 97.7436 163.456 97.8635 163.453 98.0152C163.449 98.167 163.56 98.2933 163.7 98.2972ZM164.127 98.0343C164.121 98.286 163.927 98.4848 163.695 98.4782C163.463 98.4717 163.28 98.2623 163.286 98.0105C163.292 97.7588 163.485 97.56 163.717 97.5666C163.949 97.5731 164.133 97.7825 164.127 98.0343Z" fill="#64EDFF"/>
<path d="M169.568 95.5818L167.25 95.5164C167.043 95.5106 166.871 95.6879 166.865 95.9124L166.805 98.4257C166.799 98.6503 166.963 98.837 167.17 98.8429L169.488 98.9083C169.695 98.9141 169.867 98.7368 169.872 98.5123L169.933 95.999C169.938 95.7745 169.775 95.5877 169.568 95.5818Z" fill="#64EDFF"/>
<path fill-rule="evenodd" clip-rule="evenodd" d="M169.563 95.7629L167.246 95.6975C167.131 95.6942 167.035 95.7926 167.032 95.9171L166.972 98.4304C166.969 98.555 167.059 98.6586 167.174 98.6618L169.492 98.7272C169.607 98.7305 169.702 98.6321 169.705 98.5076L169.766 95.9943C169.769 95.8697 169.678 95.7661 169.563 95.7629ZM167.25 95.5164L169.568 95.5818C169.775 95.5877 169.938 95.7745 169.933 95.999L169.872 98.5123C169.867 98.7368 169.695 98.9141 169.488 98.9083L167.17 98.8429C166.963 98.837 166.799 98.6503 166.805 98.4257L166.865 95.9124C166.871 95.6879 167.043 95.5106 167.25 95.5164Z" fill="#64EDFF"/>
<path d="M169.656 100.499L166.941 100.423C166.702 100.416 166.514 100.201 166.52 99.9545C166.526 99.6958 166.724 99.4918 166.963 99.4985L169.678 99.5752C169.917 99.5819 170.105 99.7968 170.099 100.056C170.093 100.302 169.895 100.506 169.656 100.499Z" fill="#64EDFF"/>
<path fill-rule="evenodd" clip-rule="evenodd" d="M166.945 100.242L169.661 100.318C169.81 100.322 169.929 100.194 169.932 100.051C169.936 99.8921 169.82 99.7604 169.674 99.7562L166.959 99.6796C166.812 99.6754 166.691 99.8005 166.687 99.9592C166.683 100.103 166.796 100.237 166.945 100.242ZM166.941 100.423L169.656 100.499C169.895 100.506 170.093 100.302 170.099 100.056C170.105 99.7968 169.917 99.5819 169.678 99.5752L166.963 99.4985C166.724 99.4918 166.526 99.6958 166.52 99.9545C166.514 100.201 166.702 100.416 166.941 100.423Z" fill="#64EDFF"/>
<mask id="mask0_16705_32880" style="mask-type:alpha" maskUnits="userSpaceOnUse" x="151" y="111" width="27" height="9">
<path d="M160.734 119.19L151.735 114.55L152.907 111.456L164.394 111.507L176.092 112.102L177.011 116.941L168.538 119.5C168.398 119.136 167.936 118.183 167.211 117.282C166.303 116.154 164.08 116.521 163.074 116.977C162.268 117.341 161.179 118.604 160.734 119.19Z" fill="#D9D9D9"/>
</mask>
<g mask="url(#mask0_16705_32880)">
<path d="M162.467 118.849C162.364 118.851 162.263 118.805 162.193 118.713C162.154 118.662 158.103 113.375 154.464 113.067C153.437 112.98 152.531 113.313 151.77 114.049C151.628 114.186 151.411 114.172 151.284 114.018C151.157 113.864 151.17 113.628 151.313 113.491C152.219 112.614 153.299 112.222 154.519 112.323C158.451 112.655 162.552 118.012 162.724 118.239C162.844 118.401 162.824 118.636 162.679 118.766C162.614 118.82 162.539 118.848 162.467 118.849Z" fill="#64EDFF"/>
<path d="M167.504 117.953C167.591 117.968 167.682 117.941 167.751 117.872C167.79 117.833 171.796 113.852 174.919 114.048C175.8 114.103 176.534 114.5 177.102 115.22C177.208 115.355 177.393 115.37 177.517 115.255C177.641 115.14 177.655 114.939 177.55 114.804C176.874 113.945 175.998 113.477 174.951 113.409C171.577 113.197 167.521 117.231 167.35 117.403C167.231 117.525 167.223 117.727 167.333 117.856C167.382 117.91 167.443 117.943 167.504 117.953Z" fill="#64EDFF"/>
</g>
<path d="M147.404 72.174C147.032 73.8767 147.567 75.6635 148.789 76.8039C148.474 74.0127 149.065 71.3146 150.56 68.7095C148.994 69.1339 147.777 70.4699 147.404 72.174Z" fill="white"/>
<path fill-rule="evenodd" clip-rule="evenodd" d="M148.685 77.1633C148.771 77.1894 148.863 77.1805 148.944 77.134C149.072 77.0588 149.144 76.9085 149.127 76.7527C148.822 74.0613 149.401 71.4212 150.847 68.9051C150.923 68.7731 150.916 68.6055 150.833 68.4796C150.748 68.355 150.602 68.2981 150.464 68.3339C148.764 68.7952 147.458 70.2312 147.053 72.0807C146.647 73.9302 147.222 75.8473 148.55 77.0861C148.59 77.124 148.637 77.1489 148.685 77.1633ZM149.758 69.4326C148.762 71.4693 148.292 73.5789 148.353 75.7301C147.703 74.7367 147.467 73.4786 147.735 72.2564C148.005 71.0197 148.75 70.0015 149.758 69.4326Z" fill="#64EDFF"/>
<path d="M168.135 59.2587C160.619 56.9927 152.831 61.7619 150.74 69.9131C148.649 78.0623 153.046 86.5078 160.562 88.7739C168.076 91.0394 175.865 86.2681 177.956 78.1189C180.047 69.9677 175.649 61.5242 168.135 59.2587Z" fill="white"/>
<path d="M167.941 59.4374C160.324 57.1408 152.714 61.3165 150.283 69.2149L150.064 69.5358C149.527 70.4082 149.677 69.9978 149.05 72.4448C148.422 74.8918 148.94 80.0667 151.654 83.1494L151.955 83.5605C160.94 93.5009 174.802 91.5327 178.063 78.8249C180.211 70.4501 175.558 61.734 167.941 59.4374Z" fill="white"/>
<path fill-rule="evenodd" clip-rule="evenodd" d="M160.471 89.5803C163.218 90.4087 166.013 90.4664 168.586 89.7479C173.396 88.4027 176.97 84.4572 178.39 78.9226C179.451 74.7871 178.943 70.4322 176.959 66.658C174.986 62.9043 171.814 60.2082 168.026 59.0663C160.22 56.7126 152.463 60.9967 149.958 69.0342L149.773 69.3074C149.769 69.312 149.766 69.3168 149.764 69.3217C149.706 69.4141 149.659 69.4901 149.615 69.5588C149.271 70.1064 149.257 70.1602 148.907 71.5405C148.849 71.7661 148.781 72.0295 148.702 72.3389C148.035 74.9375 148.596 80.2223 151.381 83.3949L151.67 83.7916C151.677 83.8026 151.686 83.813 151.695 83.823C154.086 86.4683 156.95 88.4047 159.972 89.4214C160.138 89.4757 160.304 89.5286 160.471 89.5803ZM167.838 59.7988C175.378 62.0721 179.808 70.5598 177.715 78.719C176.363 83.9861 172.972 87.7373 168.412 89.0116C162.979 90.53 156.771 88.3443 152.209 83.3048L151.92 82.9101C151.914 82.9013 151.907 82.8927 151.899 82.8844C149.319 79.9543 148.77 74.9096 149.377 72.5425C149.457 72.2331 149.525 71.9677 149.583 71.7422C149.915 70.4297 149.915 70.4297 150.194 69.9868C150.237 69.9182 150.286 69.8427 150.341 69.7518L150.555 69.4357C150.577 69.4036 150.594 69.3679 150.606 69.3305C152.97 61.6484 160.38 57.55 167.838 59.7988Z" fill="#64EDFF"/>
<path d="M165.097 64.8657C157.868 62.6862 150.669 66.1323 149.019 72.5631C147.37 78.992 151.894 85.9726 159.122 88.1521C166.353 90.3322 173.55 86.8856 175.2 80.4567C176.85 74.0258 172.328 67.0458 165.097 64.8657Z" fill="#00A4FF"/>
<path fill-rule="evenodd" clip-rule="evenodd" d="M159.036 88.4514C166.41 90.6747 173.784 87.122 175.474 80.5355C177.164 73.9469 172.541 66.7796 165.167 64.5562C157.795 62.3334 150.42 65.8836 148.73 72.4721C147.04 79.0586 151.664 86.2286 159.036 88.4514ZM165.011 65.165C172.074 67.2946 176.515 74.1125 174.91 80.3657C173.306 86.6169 166.256 89.9702 159.193 87.8406C152.13 85.711 147.689 78.8931 149.293 72.6419C150.898 66.3887 157.948 63.0354 165.011 65.165Z" fill="#64EDFF"/>
<path d="M159.473 86.7743C153.132 84.8624 149.126 78.89 150.525 73.4346C151.925 67.9793 158.2 65.1067 164.542 67.0186C170.883 68.9306 174.889 74.9029 173.489 80.3583C172.089 85.8137 165.814 88.6862 159.473 86.7743Z" fill="#6C6C6C"/>
<path fill-rule="evenodd" clip-rule="evenodd" d="M159.368 87.1371C165.886 89.1025 172.367 86.1064 173.817 80.458C175.266 74.8095 171.143 68.6143 164.625 66.649C158.106 64.6836 151.625 67.6816 150.176 73.3301C148.727 78.9786 152.85 85.1718 159.368 87.1371ZM164.437 67.3815C170.582 69.2342 174.487 75.009 173.141 80.2543C171.796 85.4976 165.701 88.2573 159.556 86.4046C153.411 84.5519 149.506 78.777 150.851 73.5338C152.197 68.2885 158.292 65.5288 164.437 67.3815Z" fill="#6C6C6C"/>
<path d="M150.66 72.5222C150.601 72.9065 150.561 73.299 150.542 73.6975C150.481 74.9714 150.634 76.2087 150.964 77.3705C150.755 77.6129 150.573 77.8676 150.419 78.1286C151.443 81.9725 154.782 85.4157 159.315 86.7824C160.123 87.026 160.93 87.1896 161.725 87.2831C167.448 87.2993 172.058 84.7261 172.221 81.2873C172.268 80.3146 171.953 79.3703 171.349 78.5042C171.789 77.3833 172.056 76.1716 172.116 74.8951C172.151 74.1723 172.117 73.4632 172.021 72.7719C170.426 70.1753 167.73 68.0355 164.384 67.0268C158.409 65.2251 152.493 67.6713 150.66 72.5222Z" fill="#B0401E"/>
<path fill-rule="evenodd" clip-rule="evenodd" d="M159.243 87.0832C160.051 87.3267 160.877 87.5005 161.699 87.5957C161.709 87.5973 161.72 87.5976 161.731 87.5966C167.71 87.6146 172.348 84.908 172.52 81.3001C172.566 80.3268 172.286 79.3694 171.687 78.4578C172.11 77.3253 172.355 76.1325 172.413 74.9093C172.448 74.178 172.415 73.4432 172.316 72.7232C172.308 72.6757 172.293 72.6326 172.269 72.5952C170.583 69.8463 167.74 67.7054 164.468 66.7188C161.531 65.8332 158.48 65.926 155.872 66.9803C153.263 68.0367 151.316 69.9612 150.395 72.3993C150.386 72.4226 150.38 72.4458 150.377 72.4692C150.316 72.8681 150.275 73.275 150.257 73.6781C150.199 74.9013 150.328 76.1143 150.643 77.2888C150.467 77.5044 150.312 77.7287 150.178 77.9571C150.133 78.0338 150.121 78.1269 150.144 78.2155C150.67 80.1891 151.782 82.0552 153.36 83.6149C154.975 85.2114 157.009 86.4096 159.243 87.0832ZM161.746 86.9647C160.961 86.8721 160.171 86.7069 159.399 86.4744C155.128 85.1866 151.824 82.0142 150.742 78.1787C150.87 77.9743 151.018 77.7759 151.184 77.5831C151.255 77.5012 151.28 77.3817 151.248 77.2733C150.92 76.1185 150.783 74.9204 150.84 73.7097C150.857 73.3428 150.895 72.9714 150.947 72.6065C152.77 67.8473 158.507 65.5795 164.312 67.3296C167.427 68.2689 170.132 70.2909 171.746 72.887C171.834 73.5433 171.862 74.2121 171.83 74.8777C171.772 76.0858 171.523 77.2644 171.085 78.3774C171.045 78.4812 171.059 78.6018 171.121 78.6915C171.704 79.5273 171.978 80.3926 171.936 81.2679C171.783 84.4753 167.309 86.9754 161.746 86.9647Z" fill="#6C6C6C"/>
<path d="M165.172 68.3647C163.8 68.2885 162.53 68.8279 161.587 69.7586C160.736 68.6765 159.493 67.9596 158.079 67.8818C154.357 67.6756 151.155 72.8687 154.006 76.6333C152.946 76.2513 151.779 76.5338 150.968 77.3688C150.759 77.6111 150.577 77.8658 150.423 78.1268C151.447 81.9707 154.786 85.414 159.319 86.7806C160.127 87.0242 160.934 87.1878 161.729 87.2813C167.452 87.2975 172.062 84.7244 172.225 81.2856C172.272 80.3128 171.957 79.3685 171.353 78.5025C170.542 77.7507 169.536 77.4458 168.334 77.5879C169.212 76.6745 169.784 75.4126 169.852 73.9901C169.993 71.0352 167.898 68.5154 165.172 68.3647Z" fill="#FFCAA1"/>
<path fill-rule="evenodd" clip-rule="evenodd" d="M159.249 87.0267C160.053 87.2692 160.878 87.4404 161.696 87.5365C161.704 87.5374 161.712 87.5378 161.721 87.5377C167.669 87.5548 172.281 84.8726 172.452 81.3009C172.499 80.2895 172.191 79.2956 171.531 78.3505C171.522 78.3362 171.511 78.3235 171.498 78.3124C170.777 77.6436 169.902 77.3066 168.892 77.303C169.603 76.3758 170.019 75.2261 170.078 74.0074C170.225 70.9165 168.026 68.2731 165.176 68.1148C163.865 68.0418 162.603 68.4981 161.601 69.4065C160.681 68.3334 159.441 67.7082 158.085 67.6325C156.148 67.5237 154.2 68.8395 153.241 70.9027C152.413 72.683 152.498 74.6331 153.447 76.2418C152.489 76.112 151.516 76.4488 150.8 77.1874C150.796 77.1906 150.792 77.1946 150.789 77.1991C150.571 77.4538 150.377 77.7202 150.218 77.9947C150.182 78.055 150.171 78.131 150.19 78.2015C150.714 80.1635 151.819 82.0214 153.39 83.5723C154.997 85.1599 157.024 86.3559 159.249 87.0267ZM161.735 87.03C160.945 86.9382 160.151 86.7719 159.375 86.5377C155.074 85.241 151.747 82.0404 150.67 78.1719C150.802 77.96 150.955 77.7502 151.127 77.5505C151.875 76.7827 152.948 76.5256 153.924 76.878C154.023 76.912 154.132 76.8739 154.191 76.7801C154.251 76.6883 154.245 76.564 154.18 76.4757C153.013 74.9347 152.818 72.9363 153.658 71.1316C154.537 69.2441 156.305 68.0398 158.061 68.1369C159.366 68.2102 160.553 68.8455 161.403 69.9251C161.443 69.978 161.502 70.0089 161.566 70.0132C161.628 70.019 161.692 69.9951 161.738 69.9487C162.675 69.0229 163.887 68.5496 165.152 68.6192C167.744 68.7642 169.746 71.1697 169.611 73.9806C169.55 75.2866 169.035 76.5034 168.165 77.4065C168.103 77.4696 168.079 77.5634 168.099 77.6509C168.127 77.7714 168.239 77.8544 168.351 77.8411C169.488 77.7085 170.411 77.9825 171.174 78.6791C171.753 79.5184 172.027 80.3921 171.985 81.2741C171.831 84.5176 167.328 87.0435 161.735 87.03Z" fill="#6C6C6C"/>
<path d="M150.364 73.4363C149.97 74.9751 150.004 76.5551 150.401 78.0746C150.55 77.8291 150.724 77.5913 150.92 77.3601C150.589 76.2003 150.438 74.9638 150.5 73.688C150.515 73.3527 150.546 73.0204 150.589 72.6914C150.505 72.9347 150.429 73.1829 150.364 73.4363Z" fill="#FFCAA1"/>
<path fill-rule="evenodd" clip-rule="evenodd" d="M150.322 78.3856C150.333 78.3889 150.344 78.3916 150.356 78.3936C150.47 78.4129 150.583 78.3588 150.645 78.255C150.783 78.0258 150.946 77.7997 151.133 77.5829C151.204 77.4989 151.23 77.3821 151.198 77.2736C150.87 76.1189 150.731 74.9204 150.79 73.7103C150.805 73.3901 150.834 73.0658 150.877 72.7434C150.899 72.5821 150.807 72.4298 150.663 72.3905C150.518 72.3512 150.37 72.4334 150.316 72.5847C150.226 72.8415 150.148 73.0996 150.082 73.357C149.681 74.9177 149.694 76.5364 150.12 78.1678C150.148 78.2751 150.224 78.3562 150.322 78.3856ZM150.592 77.2866C150.574 77.3099 150.556 77.3329 150.537 77.3559C150.485 77.0837 150.445 76.8123 150.418 76.5418C150.468 76.7919 150.526 77.0401 150.592 77.2866Z" fill="#6C6C6C"/>
<path d="M150.312 77.7094C150.486 77.6736 150.647 77.6084 150.795 77.5176C150.836 77.4655 150.876 77.4174 150.919 77.3658C150.648 76.4133 150.498 75.4068 150.486 74.3712C150.391 74.3403 150.29 74.3164 150.188 74.3049C150.014 75.4413 150.066 76.5902 150.312 77.7094Z" fill="#FF9999"/>
<path fill-rule="evenodd" clip-rule="evenodd" d="M150.241 78.0165C150.283 78.0292 150.328 78.032 150.374 78.0223C150.575 77.9797 150.769 77.9048 150.948 77.7933C150.977 77.776 151 77.7531 151.023 77.7276C151.061 77.6789 151.101 77.6308 151.141 77.5827C151.212 77.5007 151.236 77.3833 151.206 77.2754C150.939 76.3325 150.797 75.3545 150.786 74.3686C150.784 74.2303 150.7 74.1103 150.579 74.0697C150.462 74.0322 150.344 74.0053 150.227 73.9914C150.073 73.9729 149.933 74.0876 149.908 74.2542C149.73 75.4111 149.774 76.5985 150.037 77.785C150.062 77.9003 150.143 77.9871 150.241 78.0165ZM150.597 77.2787C150.577 77.2899 150.557 77.3004 150.537 77.3102C150.492 77.06 150.456 76.8105 150.43 76.5618C150.479 76.8031 150.534 77.0421 150.597 77.2787Z" fill="#6C6C6C"/>
<path d="M160.951 79.1801C161.056 79.2117 161.173 79.1783 161.249 79.085C161.49 78.7857 161.878 78.6962 162.21 78.861C162.357 78.933 162.529 78.8625 162.598 78.7046C162.664 78.5461 162.6 78.3568 162.453 78.2848C161.883 78.0032 161.223 78.1569 160.811 78.6669C160.704 78.7981 160.716 78.9975 160.837 79.1135C160.871 79.1451 160.91 79.1679 160.951 79.1801Z" fill="#6C6C6C"/>
<path d="M160.941 79.1802C161.024 79.2051 161.114 79.1916 161.189 79.1324C161.32 79.0321 161.351 78.8349 161.259 78.6911C160.901 78.1466 160.244 77.9163 159.662 78.13C159.508 78.187 159.426 78.3666 159.477 78.5324C159.53 78.6968 159.695 78.7874 159.849 78.7305C160.19 78.6054 160.574 78.7405 160.781 79.059C160.821 79.1205 160.878 79.1613 160.941 79.1802Z" fill="#6C6C6C"/>
<path d="M159.79 83.4577C159.665 83.4595 159.543 83.5005 159.461 83.5804C159.315 83.7171 159.345 83.9157 159.527 84.025C160.23 84.4359 161.235 84.453 161.97 84.0677C162.164 83.9655 162.212 83.768 162.079 83.6248C161.944 83.4837 161.679 83.448 161.486 83.5501C161.054 83.7758 160.467 83.7653 160.058 83.5244C159.98 83.4779 159.885 83.4564 159.79 83.4577Z" fill="#6C6C6C"/>
<path d="M160.913 81.2314C160.934 81.2377 160.955 81.2411 160.976 81.2417C161.138 81.2518 161.276 81.117 161.285 80.9434C161.332 79.9707 161.346 79.5771 161.361 78.8292C161.364 78.6539 161.237 78.5081 161.076 78.5045C160.914 78.5009 160.781 78.6414 160.778 78.8147C160.763 79.554 160.748 79.9451 160.701 80.9092C160.694 81.0598 160.784 81.1926 160.913 81.2314Z" fill="#6C6C6C"/>
<g opacity="0.3">
<g opacity="0.3">
<path opacity="0.3" d="M169.005 79.8548C168.367 81.2062 166.819 82.1092 165.463 82.9327C167.952 82.5406 169.344 81.7337 169.637 80.512C169.815 79.6797 169.97 79.5846 169.005 79.8548Z" fill="#6C6C6C"/>
</g>
</g>
<path fill-rule="evenodd" clip-rule="evenodd" d="M159.243 87.0832C160.051 87.3267 160.877 87.5005 161.699 87.5957C161.709 87.5973 161.72 87.5976 161.731 87.5966C167.71 87.6146 172.348 84.908 172.52 81.3001C172.566 80.3268 172.286 79.3694 171.687 78.4578C172.11 77.3253 172.355 76.1325 172.413 74.9093C172.448 74.178 172.415 73.4432 172.316 72.7232C172.308 72.6757 172.293 72.6326 172.269 72.5952C170.583 69.8463 167.74 67.7054 164.468 66.7188C161.531 65.8332 158.48 65.926 155.872 66.9803C153.263 68.0367 151.316 69.9612 150.395 72.3993C150.386 72.4226 150.38 72.4458 150.377 72.4692C150.316 72.8681 150.275 73.275 150.257 73.6781C150.199 74.9013 150.328 76.1143 150.643 77.2888C150.467 77.5044 150.312 77.7287 150.178 77.9571C150.133 78.0338 150.121 78.1269 150.144 78.2155C150.67 80.1891 151.782 82.0552 153.36 83.6149C154.975 85.2114 157.009 86.4096 159.243 87.0832ZM161.746 86.9647C160.961 86.8721 160.171 86.7069 159.399 86.4744C155.128 85.1866 151.824 82.0142 150.742 78.1787C150.87 77.9743 151.018 77.7759 151.184 77.5831C151.255 77.5012 151.28 77.3817 151.248 77.2733C150.92 76.1185 150.783 74.9204 150.84 73.7097C150.857 73.3428 150.895 72.9714 150.947 72.6065C152.77 67.8473 158.507 65.5795 164.312 67.3296C167.427 68.2689 170.132 70.2909 171.746 72.887C171.834 73.5433 171.862 74.2121 171.83 74.8777C171.772 76.0858 171.523 77.2644 171.085 78.3774C171.045 78.4812 171.059 78.6018 171.121 78.6915C171.704 79.5273 171.978 80.3926 171.936 81.2679C171.783 84.4753 167.309 86.9754 161.746 86.9647Z" fill="#6C6C6C"/>
<path d="M178.462 73.6033C176.932 73.385 175.5 74.7787 175.264 76.7181C175.028 78.6574 176.076 80.4056 177.606 80.624C179.136 80.8443 180.569 79.4486 180.805 77.5092C181.04 75.5698 179.99 73.8211 178.462 73.6033Z" fill="white"/>
<path fill-rule="evenodd" clip-rule="evenodd" d="M177.183 80.9209C177.308 80.9586 177.436 80.9866 177.568 81.0047C178.409 81.1251 179.249 80.8258 179.931 80.1626C180.597 79.5141 181.033 78.5896 181.157 77.5628C181.42 75.4186 180.231 73.4755 178.514 73.2287C176.795 72.9834 175.183 74.5273 174.922 76.6721C174.798 77.6989 174.997 78.7137 175.484 79.5272C175.907 80.2308 176.5 80.715 177.183 80.9209ZM178.705 74.0453C179.885 74.401 180.658 75.8599 180.463 77.4632C180.36 78.3116 180.005 79.069 179.463 79.598C178.935 80.1097 178.295 80.3423 177.658 80.2514C177.023 80.1609 176.459 79.7564 176.072 79.1132C175.676 78.4495 175.514 77.6182 175.617 76.7697C175.828 75.0422 177.087 73.7918 178.422 73.9815C178.519 73.9963 178.613 74.0176 178.705 74.0453Z" fill="#64EDFF"/>
<path d="M178.794 80.4797C179.819 80.064 180.634 78.9357 180.808 77.5153C181.002 75.9074 180.314 74.4314 179.203 73.849C179.144 73.8312 179.082 73.8189 179.018 73.8106C177.8 73.6368 176.632 74.9963 176.405 76.8479C176.18 78.6981 176.984 80.3403 178.202 80.5141C178.403 80.5444 178.6 80.531 178.794 80.4797Z" fill="white"/>
<path fill-rule="evenodd" clip-rule="evenodd" d="M177.892 80.7672C177.979 80.7934 178.067 80.8128 178.156 80.8254C178.387 80.8586 178.623 80.8457 178.855 80.7844C178.866 80.7821 178.877 80.7784 178.889 80.7734C180.044 80.3046 180.908 79.0404 181.089 77.5534C181.295 75.8544 180.571 74.2125 179.323 73.5589C179.305 73.5507 179.286 73.5436 179.267 73.5377C179.193 73.5175 179.119 73.5018 179.049 73.4913C177.675 73.2965 176.357 74.7804 176.109 76.8023C175.992 77.7625 176.131 78.7053 176.498 79.4545C176.832 80.138 177.321 80.5952 177.892 80.7672ZM178.702 80.173C178.546 80.2118 178.387 80.2198 178.234 80.1974C177.741 80.1261 177.308 79.757 177.014 79.1585C176.703 78.523 176.587 77.716 176.689 76.8846C176.893 75.2087 177.917 73.9693 178.973 74.1199C179.013 74.1264 179.054 74.1344 179.095 74.144C180.103 74.6907 180.683 76.0527 180.51 77.4711C180.357 78.7217 179.65 79.7792 178.702 80.173Z" fill="#64EDFF"/>
<path d="M170.202 63.1351C169.415 64.5341 170.028 64.9426 171.428 64.2766C172.462 63.7863 173.551 63.7167 174.575 63.7437C175.763 62.8894 174.966 61.0985 173.071 61.3292C172.133 61.384 170.953 61.8023 170.202 63.1351Z" fill="white"/>
<path fill-rule="evenodd" clip-rule="evenodd" d="M170.053 64.9351C170.41 65.0427 170.918 64.942 171.569 64.6308C172.589 64.1471 173.656 64.1055 174.566 64.1304C174.637 64.1304 174.708 64.1088 174.769 64.0668C175.381 63.6258 175.629 62.8985 175.4 62.2165C175.153 61.4777 174.327 60.8028 173.041 60.9568C172.255 61.0038 170.813 61.3258 169.902 62.9434C169.46 63.7306 169.385 64.3165 169.682 64.6878C169.78 64.8075 169.903 64.8899 170.053 64.9351ZM174.464 63.3665C173.553 63.3497 172.391 63.4102 171.287 63.9352C170.549 64.2867 170.25 64.2224 170.209 64.1866C170.211 64.1872 170.14 63.9786 170.5 63.3389C171.247 62.0116 172.442 61.7525 173.088 61.7151C173.095 61.7142 173.102 61.7134 173.108 61.7126C174.023 61.6014 174.587 62.0165 174.742 62.4762C174.851 62.8035 174.751 63.1219 174.464 63.3665Z" fill="#64EDFF"/>
<path d="M154.767 62.0209C154.635 62.362 154.842 62.7534 155.15 62.9149C155.455 63.0778 155.87 63.0203 156.035 62.6957C156.709 61.3679 157.982 60.2531 159.298 59.7079C158.013 58.3401 156.299 57.9783 154.767 62.0209Z" fill="white"/>
<path fill-rule="evenodd" clip-rule="evenodd" d="M155.181 63.3324C155.599 63.4584 156.108 63.3366 156.34 62.8778C156.95 61.6748 158.132 60.5946 159.42 60.0627C159.531 60.0166 159.613 59.9124 159.638 59.7845C159.663 59.6585 159.627 59.5273 159.541 59.4369C158.752 58.5948 157.957 58.2561 157.179 58.428C156.142 58.6594 155.22 59.8179 154.439 61.8744C154.247 62.3821 154.49 62.9886 154.993 63.2542C155.052 63.2871 155.117 63.313 155.181 63.3324ZM158.645 59.599C157.418 60.2481 156.329 61.324 155.726 62.5121C155.662 62.6389 155.446 62.6489 155.3 62.5729C155.156 62.4949 155.034 62.3055 155.088 62.1648C155.764 60.3816 156.537 59.3461 157.319 59.1733C157.735 59.0796 158.18 59.2244 158.645 59.599Z" fill="#64EDFF"/>
<g opacity="0.3">
<g opacity="0.3">
<path opacity="0.3" d="M179.583 77.4448C179.451 78.79 178.716 79.9788 177.619 80.6242C179.252 80.6715 180.646 79.3481 180.819 77.5854C180.992 75.8227 179.887 74.2122 178.279 73.8867C179.227 74.766 179.714 76.0976 179.583 77.4448Z" fill="#6C6C6C"/>
</g>
</g>
<g opacity="0.3">
<g opacity="0.3">
<path opacity="0.3" d="M156.26 62.9387C157.252 61.952 158.565 61.1798 160.201 60.6221C161.065 59.4805 160.761 59.1739 159.287 59.7015C158.378 59.8747 157.368 60.9528 156.26 62.9387Z" fill="#6C6C6C"/>
</g>
</g>
<g opacity="0.3">
<g opacity="0.3">
<path opacity="0.3" d="M174.969 62.0925C174.693 61.5941 174.113 61.4042 173.628 61.6539C173.944 61.5985 174.248 61.8061 174.337 62.1384C174.424 62.4721 174.295 62.9344 173.978 62.959C172.668 63.0651 171.374 63.3867 170.104 64.2534C170.63 64.4764 172.161 64.2526 174.696 63.5821C175.128 63.2369 175.246 62.5909 174.969 62.0925Z" fill="#6C6C6C"/>
</g>
</g>
<g opacity="0.3">
<g opacity="0.3">
<path opacity="0.3" d="M158.651 59.2635C156.689 60.1828 155.632 61.3799 155.479 62.8549C156.503 61.6941 157.637 60.6887 158.882 59.8385C158.915 59.8471 158.838 59.6555 158.651 59.2635Z" fill="#6C6C6C"/>
</g>
</g>
<g opacity="0.3">
<g opacity="0.3">
<path opacity="0.3" d="M150.634 77.8006C151.623 81.6898 154.984 85.187 159.561 86.567C165.903 88.4791 172.178 85.6058 173.578 80.1509C174.215 77.6679 173.733 75.0778 172.419 72.8129C172.802 74.311 172.83 75.8699 172.441 77.3869C171.041 82.8418 164.765 85.7145 158.423 83.8024C157.47 83.515 156.569 83.1361 155.733 82.6796C156.055 82.6455 156.387 82.5951 156.729 82.5219C155.527 82.1825 154.351 81.6215 153.201 80.8389C153.206 80.8682 153.212 80.8961 153.216 80.9228C152.169 80.0029 151.295 78.9437 150.634 77.8006Z" fill="#6C6C6C"/>
</g>
</g>
<path fill-rule="evenodd" clip-rule="evenodd" d="M159.504 86.8063C165.96 88.7528 172.377 85.7957 173.809 80.2151C175.241 74.6345 171.154 68.5102 164.698 66.5637C158.242 64.6172 151.825 67.5743 150.393 73.1549C148.961 78.7355 153.048 84.8599 159.504 86.8063ZM164.573 67.0507C170.781 68.9222 174.721 74.768 173.358 80.0791C171.996 85.3903 165.837 88.1889 159.63 86.3173C153.422 84.4458 149.481 78.602 150.844 73.2909C152.207 67.9797 158.366 65.1791 164.573 67.0507Z" fill="#6C6C6C"/>
<path d="M155.925 74.9228C156.012 76.1532 156.675 77.054 157.407 76.9351C158.137 76.8156 158.662 75.7222 158.575 74.4919C158.488 73.2616 157.825 72.3607 157.093 72.4797C156.361 72.5986 155.838 73.6925 155.925 74.9228Z" fill="#6C6C6C"/>
<path d="M156.494 73.5464C156.379 73.9548 156.475 74.3706 156.706 74.4747C156.937 74.5768 157.217 74.3279 157.332 73.9175C157.445 73.5086 157.35 73.0908 157.119 72.9887C156.887 72.8866 156.607 73.1355 156.494 73.5464Z" fill="white"/>
<path d="M157.507 75.8C157.412 75.9948 157.422 76.2258 157.53 76.3163C157.64 76.4054 157.806 76.3201 157.902 76.1253C157.997 75.9305 157.987 75.6995 157.878 75.6085C157.77 75.52 157.603 75.6052 157.507 75.8Z" fill="white"/>
<path d="M165.375 73.1784C164.677 73.0003 163.973 73.8136 163.801 74.9919C163.628 76.1715 164.054 77.2697 164.75 77.4453C165.446 77.6228 166.152 76.8101 166.324 75.6318C166.496 74.4516 166.071 73.3539 165.375 73.1784Z" fill="#6C6C6C"/>
<path d="M165.295 73.6639C165.065 73.7428 164.942 74.1359 165.022 74.5408C165.103 74.9457 165.354 75.2106 165.585 75.1297C165.816 75.0508 165.938 74.6578 165.858 74.2529C165.777 73.848 165.525 73.5851 165.295 73.6639Z" fill="white"/>
<path d="M164.395 76.1218C164.282 76.1995 164.255 76.4214 164.334 76.6171C164.412 76.8129 164.566 76.9107 164.679 76.833C164.79 76.7547 164.817 76.5329 164.739 76.3371C164.66 76.1414 164.506 76.0455 164.395 76.1218Z" fill="white"/>
<g opacity="0.2">
<g opacity="0.2">
<g opacity="0.2">
<path opacity="0.2" d="M171.751 77.1279C171.931 76.4102 172.043 75.6654 172.08 74.8959C172.115 74.173 172.08 73.4638 171.984 72.7725C170.39 70.1757 167.693 68.0358 164.348 67.027C158.372 65.2253 152.456 67.6717 150.623 72.5231C150.564 72.9074 150.524 73.2999 150.505 73.6985C150.504 73.7195 150.505 73.7392 150.503 73.7602C152.508 69.1796 158.257 66.9175 164.063 68.6682C167.409 69.677 170.106 71.8169 171.7 74.4136C171.796 75.105 171.83 75.8142 171.796 76.537C171.786 76.7363 171.77 76.9314 171.751 77.1279Z" fill="#6C6C6C"/>
</g>
</g>
<g opacity="0.2">
<g opacity="0.2">
<path opacity="0.2" d="M150.414 78.0662C150.401 78.0859 150.388 78.1056 150.377 78.1259C150.439 78.3612 150.51 78.5948 150.589 78.8265C150.523 78.5764 150.463 78.3219 150.414 78.0662Z" fill="#6C6C6C"/>
</g>
</g>
<g opacity="0.2">
<g opacity="0.2">
<path opacity="0.2" d="M171.899 82.5756C172.062 82.1626 172.16 81.7296 172.181 81.2844C172.223 80.4006 171.967 79.543 171.469 78.7433C171.35 79.2234 171.202 79.6906 171.024 80.1425C171.556 80.9049 171.863 81.7262 171.899 82.5756Z" fill="#6C6C6C"/>
</g>
</g>
</g>
<path fill-rule="evenodd" clip-rule="evenodd" d="M166.654 55.7042C166.908 56.9522 166.692 58.1739 166.414 58.9284L165.778 58.6521C166.016 58.0073 166.204 56.9388 165.985 55.864C165.771 54.8086 165.163 53.7288 163.772 53.0157L164.065 52.3443C165.658 53.161 166.397 54.4368 166.654 55.7042Z" fill="#64EDFF"/>
<path d="M165.27 52.9668C165.094 53.6502 164.441 54.0501 163.811 53.86C163.181 53.6699 162.812 52.9618 162.987 52.2784C163.163 51.595 163.816 51.1951 164.446 51.3852C165.076 51.5753 165.445 52.2834 165.27 52.9668Z" fill="#64EDFF"/>
<path fill-rule="evenodd" clip-rule="evenodd" d="M169.679 54.3659C169.679 54.3658 169.678 54.369 169.674 54.3757C169.677 54.3693 169.678 54.3659 169.679 54.3659ZM169.478 54.6016C169.324 54.5686 169.119 54.5451 168.861 54.5401C168.115 54.5256 167.082 54.6684 165.952 54.9884C164.822 55.3085 163.856 55.7314 163.212 56.1398C162.989 56.2809 162.821 56.4102 162.701 56.5206C162.855 56.5535 163.061 56.5771 163.318 56.5821C164.065 56.5966 165.097 56.4538 166.228 56.1338C167.358 55.8137 168.323 55.3908 168.967 54.9824C169.19 54.8413 169.358 54.712 169.478 54.6016ZM162.42 56.4215C162.42 56.4213 162.423 56.4233 162.428 56.4277C162.422 56.4238 162.42 56.4216 162.42 56.4215ZM162.501 56.7563C162.5 56.7564 162.501 56.7531 162.505 56.7465C162.503 56.7529 162.501 56.7562 162.501 56.7563ZM169.751 54.6945C169.757 54.6984 169.76 54.7006 169.759 54.7007C169.759 54.7009 169.756 54.6989 169.751 54.6945ZM166.401 56.8523C168.746 56.188 170.509 55.0714 170.337 54.3583C170.165 53.6452 168.124 53.6056 165.779 54.2699C163.433 54.9341 161.67 56.0508 161.842 56.7639C162.014 57.477 164.055 57.5166 166.401 56.8523Z" fill="#64EDFF"/>
<path d="M169.754 125.439L169.043 120.828L177.588 118.636L178.884 123.507L178.684 123.492L169.754 125.439Z" fill="#5156C0"/>
<path d="M168.979 129.439C170.964 130.26 182.277 130.619 183.144 127.925C183.228 127.665 183.232 127.409 183.164 127.156C182.858 125.977 181.37 123.724 179.355 122.91C177.34 122.091 174.793 122.709 174.793 122.709L169.538 124.006C169.538 124.006 168.11 126.61 168.231 128.25C168.266 128.791 168.483 129.233 168.98 129.443L168.979 129.439Z" fill="url(#paint6_linear_16705_32880)"/>
<path d="M168.978 129.433C170.963 130.254 182.277 130.614 183.144 127.92C183.227 127.659 183.053 126.442 182.985 126.188C180.861 127.116 175.448 128.856 168.052 127.283C168.087 127.824 168.483 129.227 168.979 129.437L168.978 129.433Z" fill="#3167D5"/>
<path d="M157.224 90.2232L146.285 88.4844C145.059 88.6889 144.871 90.0186 145.53 91.0415L152.132 102.906C152.613 103.708 153.075 103.827 153.735 104.032L163.447 107.1C164.697 107.422 165.239 106.691 165.05 105.873L159.674 92.3712C159.11 91.0415 158.732 90.4278 157.224 90.2232Z" fill="#D9C4EC"/>
<path d="M152.529 88.8361C152.529 88.8361 151.875 87.3906 150.893 87.2382C149.91 87.0858 150.238 88.481 150.238 88.481L148.273 88.3032V88.8361L154.821 89.9018V89.1912L152.529 88.8361Z" fill="#9969C7"/>
<path d="M158.985 98.1917H161.814L160.965 95.9414C162.682 96.6429 163.636 97.0865 165.302 98.4985L168.886 99.2145L168.793 104.942C168.793 104.942 166.625 104.325 164.55 104.124C162.385 103.915 159.081 104.533 157.949 103.92C156.62 103.199 155.496 101.26 155.496 101.26C155.215 100.749 155.307 100.442 155.687 100.544C155.687 100.544 154.575 99.8772 154.652 99.4191C154.699 99.1413 155.124 99.0099 155.124 99.0099C155.124 99.0099 154.841 98.6827 154.935 98.3962C155.041 98.0749 155.496 98.1917 155.496 98.1917C155.496 98.1917 155.218 97.8848 155.218 97.5779C155.218 97.2711 156.585 97.4383 158.985 98.1917Z" fill="url(#paint7_linear_16705_32880)"/>
<path d="M174.86 100.362C171.109 100.159 166.632 99.238 166.632 99.238L166.272 104.123L172.115 105.553L178.802 107.057C182.442 107.253 183.248 101.798 180.842 101.435C178.354 100.605 177.715 100.516 174.86 100.362Z" fill="url(#paint8_linear_16705_32880)"/>
<path fill-rule="evenodd" clip-rule="evenodd" d="M166.291 98.7543C166.418 98.6494 166.58 98.6079 166.736 98.6401L166.748 98.6426L166.786 98.6501C166.819 98.6568 166.868 98.6666 166.932 98.6793C167.06 98.7046 167.248 98.741 167.485 98.7855C167.96 98.8744 168.632 98.9951 169.421 99.1221C171.002 99.3765 173.039 99.6543 174.888 99.7541C176.312 99.831 177.215 99.8927 178.078 100.044C178.937 100.195 179.741 100.432 180.967 100.84C181.771 100.98 182.308 101.552 182.572 102.269C182.833 102.978 182.833 103.828 182.63 104.62C182.22 106.214 180.914 107.781 178.774 107.666C178.745 107.665 178.716 107.661 178.688 107.654L172.001 106.151C171.999 106.151 171.998 106.15 171.996 106.15C171.994 106.149 171.993 106.149 171.991 106.149L166.149 104.719C165.876 104.652 165.69 104.378 165.713 104.075L166.072 99.1902C166.085 99.0177 166.164 98.8593 166.291 98.7543ZM180.842 101.436C178.354 100.605 177.715 100.517 174.86 100.363C171.905 100.203 168.5 99.5976 167.187 99.3477C166.834 99.2804 166.632 99.2388 166.632 99.2388L166.272 104.124L172.115 105.554L178.802 107.058C182.441 107.253 183.248 101.798 180.842 101.436Z" fill="#64EDFF"/>
<path fill-rule="evenodd" clip-rule="evenodd" d="M155.416 98.1498C155.438 98.0984 155.494 98.0757 155.541 98.099L158.634 99.6241H161.16C161.212 99.6241 161.254 99.6699 161.254 99.7264C161.254 99.7829 161.212 99.8287 161.16 99.8287H158.593L155.463 98.2853C155.416 98.2619 155.395 98.2013 155.416 98.1498ZM155.142 98.9525C155.171 98.9059 155.23 98.8941 155.273 98.9261L158.266 101.158H161.443C161.495 101.158 161.537 101.204 161.537 101.261C161.537 101.317 161.495 101.363 161.443 101.363H158.207L155.166 99.0947C155.123 99.0627 155.112 98.999 155.142 98.9525ZM155.526 100.375C155.56 100.332 155.62 100.328 155.659 100.366L158.084 102.693H161.309C161.361 102.693 161.404 102.738 161.404 102.795C161.404 102.851 161.361 102.897 161.309 102.897H158.012L155.534 100.519C155.495 100.482 155.491 100.417 155.526 100.375Z" fill="#D95000"/>
<rect x="179.836" y="47.7246" width="41.7034" height="2.73465" rx="1.36733" fill="#B19CD8"/>
<rect x="185.648" y="54.2207" width="41.7034" height="2.73465" rx="1.36733" fill="#B19CD8"/>
<rect x="185.648" y="60.7148" width="41.7034" height="2.73465" rx="1.36733" fill="#B19CD8"/>
<rect x="179.836" y="67.2109" width="41.7034" height="2.73465" rx="1.36733" fill="#B19CD8"/>
<rect x="0.03125" y="73.0195" width="92.6021" height="21.5354" rx="5" fill="white"/>
<rect x="3.53125" y="87.2852" width="78.0657" height="1.88434" rx="0.942172" fill="#BEA9DF"/>
<rect x="3.53125" y="78.4023" width="34.995" height="1.88434" rx="0.942172" fill="#7680BB"/>
<rect x="41.7578" y="78.4023" width="13.7288" height="1.88434" rx="0.942172" fill="#7680BB"/>
<rect x="29" y="4" width="92.6363" height="55.0348" rx="5" fill="white"/>
<rect x="32.4219" y="18.3594" width="75.2029" height="1.70916" rx="0.854578" fill="#BEA9DF"/>
<rect x="32.4219" y="24.1699" width="83.065" height="1.70916" rx="0.854578" fill="#BEA9DF"/>
<rect x="32.4219" y="29.9805" width="83.065" height="1.70916" rx="0.854578" fill="#BEA9DF"/>
<rect x="32.4219" y="35.791" width="83.065" height="1.70916" rx="0.854578" fill="#BEA9DF"/>
<rect x="32.4219" y="41.6035" width="83.065" height="1.70916" rx="0.854578" fill="#BEA9DF"/>
<rect x="32.4219" y="47.4141" width="83.065" height="1.70916" rx="0.854578" fill="#BEA9DF"/>
<rect x="32.5" y="9.38477" width="34.995" height="1.88434" rx="0.942172" fill="#7680BB"/>
<rect x="70.7266" y="9.38477" width="13.7288" height="1.88434" rx="0.942172" fill="#7680BB"/>
<path fill-rule="evenodd" clip-rule="evenodd" d="M145.111 28.9219C144.597 28.4817 144.537 27.708 144.977 27.1936L145.725 26.3187C146.166 25.8044 146.939 25.7442 147.454 26.1843L148.925 27.4435C149.666 26.8917 150.483 26.4802 151.338 26.2121L151.188 24.2862C151.136 23.6112 151.641 23.0215 152.315 22.969L153.463 22.8798C154.138 22.8273 154.728 23.3319 154.781 24.0068L154.929 25.9201C155.823 26.0472 156.701 26.3239 157.525 26.7532L158.764 25.3051C159.204 24.7908 159.978 24.7306 160.493 25.1707L161.367 25.9193C161.882 26.3595 161.942 27.1333 161.502 27.6476L160.274 29.0821C160.839 29.8313 161.258 30.6602 161.53 31.5282L163.401 31.3827C164.076 31.3302 164.665 31.8348 164.718 32.5098L164.807 33.6578C164.86 34.3327 164.355 34.9224 163.68 34.9749L161.822 35.1194C161.693 36.0253 161.41 36.916 160.97 37.7503L162.381 38.9579C162.896 39.3981 162.956 40.1719 162.516 40.6862L161.767 41.5611C161.327 42.0755 160.553 42.1356 160.039 41.6955L158.628 40.4878C157.871 41.0516 157.034 41.4688 156.159 41.7363L156.303 43.5945C156.356 44.2695 155.851 44.8592 155.176 44.9117L154.028 45.0009C153.353 45.0534 152.764 44.5488 152.711 43.8739L152.566 42.0028C151.667 41.8682 150.783 41.5818 149.956 41.1404L148.728 42.5753C148.288 43.0897 147.514 43.1498 147 42.7097L146.125 41.9611C145.611 41.5209 145.551 40.7471 145.991 40.2328L147.23 38.7843C146.679 38.0367 146.27 37.2118 146.006 36.3493L144.092 36.4982C143.417 36.5506 142.828 36.046 142.775 35.3711L142.686 34.2231C142.634 33.5482 143.138 32.9585 143.813 32.906L145.739 32.7563C145.872 31.8695 146.152 30.9982 146.583 30.1811L145.111 28.9219ZM150.468 37.8325C152.603 39.6599 155.816 39.4101 157.643 37.2745C159.471 35.1389 159.221 31.9262 157.085 30.0988C154.95 28.2713 151.737 28.5212 149.91 30.6568C148.082 32.7924 148.332 36.0051 150.468 37.8325Z" fill="#BEA9DF"/>
<path fill-rule="evenodd" clip-rule="evenodd" d="M164.155 40.0088C163.923 39.8109 163.896 39.4629 164.094 39.2316L164.431 38.8381C164.629 38.6068 164.977 38.5797 165.208 38.7777L165.87 39.344C166.203 39.0958 166.571 38.9107 166.955 38.7902L166.888 37.924C166.864 37.6205 167.091 37.3553 167.395 37.3317L167.911 37.2915C168.215 37.2679 168.48 37.4949 168.503 37.7984L168.57 38.6588C168.972 38.716 169.367 38.8404 169.738 39.0335L170.295 38.3823C170.493 38.151 170.841 38.1239 171.072 38.3218L171.466 38.6585C171.697 38.8565 171.724 39.2044 171.526 39.4358L170.974 40.0809C171.228 40.4178 171.417 40.7906 171.539 41.181L172.38 41.1155C172.684 41.0919 172.949 41.3189 172.972 41.6224L173.013 42.1387C173.036 42.4422 172.809 42.7074 172.506 42.731L171.67 42.796C171.612 43.2034 171.485 43.604 171.287 43.9792L171.922 44.5223C172.153 44.7203 172.18 45.0683 171.982 45.2996L171.645 45.693C171.447 45.9244 171.1 45.9514 170.868 45.7535L170.233 45.2104C169.893 45.4639 169.517 45.6515 169.123 45.7718L169.188 46.6075C169.212 46.9111 168.985 47.1763 168.681 47.1999L168.165 47.24C167.862 47.2636 167.596 47.0367 167.573 46.7332L167.507 45.8917C167.103 45.8311 166.706 45.7023 166.334 45.5038L165.781 46.1491C165.584 46.3805 165.236 46.4075 165.004 46.2096L164.611 45.8729C164.379 45.675 164.352 45.327 164.55 45.0957L165.108 44.4442C164.86 44.108 164.676 43.7371 164.557 43.3492L163.697 43.4161C163.393 43.4397 163.128 43.2128 163.104 42.9092L163.064 42.393C163.041 42.0894 163.267 41.8242 163.571 41.8006L164.437 41.7333C164.497 41.3345 164.623 40.9426 164.817 40.5751L164.155 40.0088ZM166.564 44.0162C167.524 44.838 168.969 44.7257 169.791 43.7652C170.613 42.8048 170.5 41.36 169.54 40.5381C168.579 39.7163 167.135 39.8286 166.313 40.7891C165.491 41.7495 165.603 43.1943 166.564 44.0162Z" fill="#ECE1FF"/>
<defs>
<filter id="filter0_f_16705_32880" x="94.9219" y="109.902" width="43.9453" height="16.627" filterUnits="userSpaceOnUse" color-interpolation-filters="sRGB">
<feFlood flood-opacity="0" result="BackgroundImageFix"/>
<feBlend mode="normal" in="SourceGraphic" in2="BackgroundImageFix" result="shape"/>
<feGaussianBlur stdDeviation="2" result="effect1_foregroundBlur_16705_32880"/>
</filter>
<filter id="filter1_f_16705_32880" x="68.0469" y="107.357" width="96.2578" height="35.7578" filterUnits="userSpaceOnUse" color-interpolation-filters="sRGB">
<feFlood flood-opacity="0" result="BackgroundImageFix"/>
<feBlend mode="normal" in="SourceGraphic" in2="BackgroundImageFix" result="shape"/>
<feGaussianBlur stdDeviation="3" result="effect1_foregroundBlur_16705_32880"/>
</filter>
<filter id="filter2_f_16705_32880" x="135.555" y="119.914" width="57.2891" height="18.0898" filterUnits="userSpaceOnUse" color-interpolation-filters="sRGB">
<feFlood flood-opacity="0" result="BackgroundImageFix"/>
<feBlend mode="normal" in="SourceGraphic" in2="BackgroundImageFix" result="shape"/>
<feGaussianBlur stdDeviation="3" result="effect1_foregroundBlur_16705_32880"/>
</filter>
<filter id="filter3_f_16705_32880" x="111.969" y="116.615" width="46.1406" height="17.1523" filterUnits="userSpaceOnUse" color-interpolation-filters="sRGB">
<feFlood flood-opacity="0" result="BackgroundImageFix"/>
<feBlend mode="normal" in="SourceGraphic" in2="BackgroundImageFix" result="shape"/>
<feGaussianBlur stdDeviation="2" result="effect1_foregroundBlur_16705_32880"/>
</filter>
<filter id="filter4_f_16705_32880" x="70.4062" y="116.143" width="44.8594" height="16.8477" filterUnits="userSpaceOnUse" color-interpolation-filters="sRGB">
<feFlood flood-opacity="0" result="BackgroundImageFix"/>
<feBlend mode="normal" in="SourceGraphic" in2="BackgroundImageFix" result="shape"/>
<feGaussianBlur stdDeviation="2" result="effect1_foregroundBlur_16705_32880"/>
</filter>
<filter id="filter5_f_16705_32880" x="87.875" y="123.025" width="47.1094" height="17.3867" filterUnits="userSpaceOnUse" color-interpolation-filters="sRGB">
<feFlood flood-opacity="0" result="BackgroundImageFix"/>
<feBlend mode="normal" in="SourceGraphic" in2="BackgroundImageFix" result="shape"/>
<feGaussianBlur stdDeviation="2" result="effect1_foregroundBlur_16705_32880"/>
</filter>
<filter id="filter6_f_16705_32880" x="93.3359" y="94.2812" width="47.1094" height="17.3867" filterUnits="userSpaceOnUse" color-interpolation-filters="sRGB">
<feFlood flood-opacity="0" result="BackgroundImageFix"/>
<feBlend mode="normal" in="SourceGraphic" in2="BackgroundImageFix" result="shape"/>
<feGaussianBlur stdDeviation="2" result="effect1_foregroundBlur_16705_32880"/>
</filter>
<linearGradient id="paint0_linear_16705_32880" x1="142.351" y1="86.7538" x2="135.71" y2="87.5704" gradientUnits="userSpaceOnUse">
<stop stop-color="#FE6C17"/>
<stop offset="1" stop-color="#FB851F"/>
</linearGradient>
<linearGradient id="paint1_linear_16705_32880" x1="147.041" y1="103.798" x2="153.076" y2="89.2032" gradientUnits="userSpaceOnUse">
<stop offset="0.110615" stop-color="#676DD8"/>
<stop offset="1" stop-color="#4950B8"/>
</linearGradient>
<linearGradient id="paint2_linear_16705_32880" x1="179.675" y1="107.077" x2="172.663" y2="85.3735" gradientUnits="userSpaceOnUse">
<stop offset="0.110615" stop-color="#676DD8"/>
<stop offset="1" stop-color="#4950B8"/>
</linearGradient>
<linearGradient id="paint3_linear_16705_32880" x1="158.431" y1="87.5465" x2="143.867" y2="67.6564" gradientUnits="userSpaceOnUse">
<stop offset="0.110615" stop-color="#676DD8"/>
<stop offset="1" stop-color="#4950B8"/>
</linearGradient>
<linearGradient id="paint4_linear_16705_32880" x1="166.409" y1="80.5561" x2="163.08" y2="125.734" gradientUnits="userSpaceOnUse">
<stop stop-color="#2F349D"/>
<stop offset="1" stop-color="#5B60CA"/>
</linearGradient>
<linearGradient id="paint5_linear_16705_32880" x1="152.24" y1="123.046" x2="151.656" y2="130.978" gradientUnits="userSpaceOnUse">
<stop stop-color="#EA7E25"/>
<stop offset="1" stop-color="#FC861F"/>
</linearGradient>
<linearGradient id="paint6_linear_16705_32880" x1="174.765" y1="122.714" x2="176.442" y2="130.391" gradientUnits="userSpaceOnUse">
<stop stop-color="#FB9B08"/>
<stop offset="1" stop-color="#FC7432"/>
</linearGradient>
<linearGradient id="paint7_linear_16705_32880" x1="162.828" y1="102.212" x2="154.676" y2="99.6041" gradientUnits="userSpaceOnUse">
<stop stop-color="#FE6C17"/>
<stop offset="1" stop-color="#FB8B18"/>
</linearGradient>
<linearGradient id="paint8_linear_16705_32880" x1="165.982" y1="119.138" x2="144.363" y2="109.452" gradientUnits="userSpaceOnUse">
<stop offset="0.110615" stop-color="#676DD8"/>
<stop offset="1" stop-color="#4950B8"/>
</linearGradient>
</defs>
</svg>
