<svg width="153" height="132" viewBox="0 0 153 132" fill="none" xmlns="http://www.w3.org/2000/svg">
<path d="M28.5981 75.6824L53.7338 131.639L152.572 66.0742L105.998 32.166L28.5981 75.6824Z" fill="url(#paint0_linear_7728_63597)" fill-opacity="0.1"/>
<path d="M46.839 68.685C49.2258 72.7806 62.353 69.7089 76.1622 61.6882C89.9714 53.6676 99.1775 43.7697 96.6202 39.6741C95.9383 38.3088 94.063 37.7969 91.5057 37.7969C86.0503 37.9675 76.8441 41.2099 67.4675 46.6708C57.9204 52.1317 50.5896 58.6165 47.8619 63.3948C46.498 65.6132 46.1571 67.3198 46.839 68.685Z" fill="#FFCE66"/>
<path d="M0.639603 77.3877C5.24266 85.4084 37.4641 75.3399 72.5837 55.0322C107.533 34.5539 132.083 11.5158 127.479 3.32449C126.457 1.61796 123.899 0.594045 120.319 0.594045C107.874 0.423392 82.6423 9.97993 55.5354 25.8506C26.3827 42.7452 4.39024 61.6877 0.639603 72.2681C-0.212814 74.3159 -0.212814 76.0225 0.639603 77.3877Z" fill="url(#paint1_linear_7728_63597)"/>
<path d="M0.639603 77.3894C5.24266 85.41 37.4641 75.3415 72.5837 55.0339C107.533 34.5556 132.083 11.5175 127.479 3.32615C126.457 1.61962 123.899 0.595703 120.319 0.595703C120.49 1.10766 121.001 1.79028 120.831 4.17941C120.831 5.54463 118.614 11.0055 107.362 21.2447C97.3038 30.2893 83.1537 40.3578 67.4692 49.573C51.6142 58.7882 35.9297 66.1263 22.973 70.3926C13.7668 73.4643 8.14088 74.147 4.9017 74.147C3.36734 74.147 2.00349 73.4644 0.980591 72.4404C0.866936 72.3267 0.753258 72.2698 0.639603 72.2698C-0.212814 74.3176 -0.212814 76.0241 0.639603 77.3894Z" fill="url(#paint2_linear_7728_63597)"/>
<path d="M26.2101 37.9679L81.2764 6.90915C79.5715 4.52001 77.3552 4.17871 74.798 2.81349C66.6147 -1.11152 54.5104 -0.0876032 43.429 6.39719C32.3475 12.882 25.3577 22.9505 24.8463 31.9951C24.6758 34.5549 25.1872 35.5788 26.2101 37.9679Z" fill="url(#paint3_linear_7728_63597)"/>
<path d="M19.7325 60.4931C20.4145 61.6877 21.9488 62.1997 22.8012 61.6877L33.8826 55.2029L92.5291 20.9017L102.588 15.0996C103.61 14.417 103.781 12.7104 102.588 11.5159L101.053 9.46803C100.542 8.95607 100.03 8.61477 99.3484 8.44412L82.4705 4.68976C80.5952 4.1778 78.7199 4.5191 77.1855 5.37237L25.6994 35.4072C24.3356 36.2605 24.1651 38.9909 23.6536 40.8681L19.2211 58.2747C19.0506 58.9573 19.2211 59.8105 19.7325 60.4931Z" fill="url(#paint4_linear_7728_63597)"/>
<path d="M88.5096 10.8896C88.8506 11.9136 90.2145 12.4255 91.2374 12.0842C92.2603 11.5723 92.7717 10.207 92.2603 9.18311C91.7488 8.1592 90.5554 7.47659 89.5325 7.98855C88.5096 8.50051 87.9982 9.69507 88.5096 10.8896Z" fill="url(#paint5_linear_7728_63597)"/>
<path d="M78.5096 17.8896C78.8506 18.9136 80.2145 19.4255 81.2374 19.0842C82.2603 18.5723 82.7717 17.207 82.2603 16.1831C81.7488 15.1592 80.5554 14.4766 79.5325 14.9886C78.5096 15.5005 77.9982 16.6951 78.5096 17.8896Z" fill="url(#paint6_linear_7728_63597)"/>
<path d="M68.5096 24.8896C68.8506 25.9136 70.2145 26.4255 71.2374 26.0842C72.2603 25.5723 72.7717 24.207 72.2603 23.1831C71.7488 22.1592 70.5554 21.4766 69.5325 21.9886C68.5096 22.5005 67.9982 23.6951 68.5096 24.8896Z" fill="url(#paint7_linear_7728_63597)"/>
<path d="M57.5096 31.8896C57.8506 32.9136 59.2145 33.4255 60.2374 33.0842C61.2603 32.5723 61.7717 31.207 61.2603 30.1831C60.7488 29.1592 59.5554 28.4766 58.5325 28.9886C57.5096 29.5005 56.9982 30.6951 57.5096 31.8896Z" fill="url(#paint8_linear_7728_63597)"/>
<path d="M46.5096 37.8896C46.8506 38.9136 48.2145 39.4255 49.2374 39.0842C50.2603 38.5723 50.7717 37.207 50.2603 36.1831C49.7488 35.1592 48.5554 34.4766 47.5325 34.9886C46.5096 35.5005 45.9982 36.6951 46.5096 37.8896Z" fill="url(#paint9_linear_7728_63597)"/>
<path d="M35.5096 43.8896C35.8506 44.9136 37.2145 45.4255 38.2374 45.0842C39.2603 44.5723 39.7717 43.207 39.2603 42.1831C38.7488 41.1592 37.5554 40.4766 36.5325 40.9886C35.5096 41.5005 34.9982 42.6951 35.5096 43.8896Z" fill="url(#paint10_linear_7728_63597)"/>
<path d="M24.5096 48.8896C24.8506 49.9136 26.2145 50.4255 27.2374 50.0842C28.2603 49.5723 28.7717 48.207 28.2603 47.1831C27.7488 46.1592 26.5554 45.4766 25.5325 45.9886C24.5096 46.5005 23.9982 47.6951 24.5096 48.8896Z" fill="url(#paint11_linear_7728_63597)"/>
<path d="M46.8389 68.6848L68.2456 113.58L129.039 68.6848L96.6201 39.6738L46.8389 68.6848Z" fill="url(#paint12_linear_7728_63597)" fill-opacity="0.1"/>
<defs>
<linearGradient id="paint0_linear_7728_63597" x1="62.0352" y1="32.5414" x2="117.603" y2="103.058" gradientUnits="userSpaceOnUse">
<stop stop-color="#B6BDFF"/>
<stop offset="1" stop-color="#7D84C4" stop-opacity="0"/>
</linearGradient>
<linearGradient id="paint1_linear_7728_63597" x1="-10.7828" y1="61.005" x2="1.16806" y2="80.1075" gradientUnits="userSpaceOnUse">
<stop stop-color="#F12711"/>
<stop offset="1" stop-color="#F5AF19"/>
</linearGradient>
<linearGradient id="paint2_linear_7728_63597" x1="131.23" y1="75.5122" x2="131.401" y2="0.595704" gradientUnits="userSpaceOnUse">
<stop stop-color="#F12711"/>
<stop offset="1" stop-color="#EE0979"/>
</linearGradient>
<linearGradient id="paint3_linear_7728_63597" x1="56.5" y1="-11.9902" x2="84.9819" y2="9.0343" gradientUnits="userSpaceOnUse">
<stop stop-color="#FF6A00"/>
<stop offset="1" stop-color="#EE0979"/>
</linearGradient>
<linearGradient id="paint4_linear_7728_63597" x1="112.5" y1="20.5098" x2="49.4551" y2="-33.9383" gradientUnits="userSpaceOnUse">
<stop stop-color="#F5AF19"/>
<stop offset="1" stop-color="#EE0979"/>
</linearGradient>
<linearGradient id="paint5_linear_7728_63597" x1="98.5682" y1="17.7158" x2="93.9573" y2="5.94381" gradientUnits="userSpaceOnUse">
<stop stop-color="white"/>
<stop offset="1" stop-color="white" stop-opacity="0.5"/>
</linearGradient>
<linearGradient id="paint6_linear_7728_63597" x1="88.5682" y1="24.7158" x2="83.9573" y2="12.9438" gradientUnits="userSpaceOnUse">
<stop stop-color="white"/>
<stop offset="1" stop-color="white" stop-opacity="0.5"/>
</linearGradient>
<linearGradient id="paint7_linear_7728_63597" x1="78.5682" y1="31.7158" x2="73.9573" y2="19.9438" gradientUnits="userSpaceOnUse">
<stop stop-color="white"/>
<stop offset="1" stop-color="white" stop-opacity="0.5"/>
</linearGradient>
<linearGradient id="paint8_linear_7728_63597" x1="67.5682" y1="38.7158" x2="62.9573" y2="26.9438" gradientUnits="userSpaceOnUse">
<stop stop-color="white"/>
<stop offset="1" stop-color="white" stop-opacity="0.5"/>
</linearGradient>
<linearGradient id="paint9_linear_7728_63597" x1="56.5682" y1="44.7158" x2="51.9573" y2="32.9438" gradientUnits="userSpaceOnUse">
<stop stop-color="white"/>
<stop offset="1" stop-color="white" stop-opacity="0.5"/>
</linearGradient>
<linearGradient id="paint10_linear_7728_63597" x1="45.5682" y1="50.7158" x2="40.9573" y2="38.9438" gradientUnits="userSpaceOnUse">
<stop stop-color="white"/>
<stop offset="1" stop-color="white" stop-opacity="0.5"/>
</linearGradient>
<linearGradient id="paint11_linear_7728_63597" x1="34.5682" y1="55.7158" x2="29.9573" y2="43.9438" gradientUnits="userSpaceOnUse">
<stop stop-color="white"/>
<stop offset="1" stop-color="white" stop-opacity="0.5"/>
</linearGradient>
<linearGradient id="paint12_linear_7728_63597" x1="68.5352" y1="14.5239" x2="53.5071" y2="76.5786" gradientUnits="userSpaceOnUse">
<stop stop-color="#7D84C4"/>
<stop offset="1" stop-color="#7D84C4" stop-opacity="0"/>
</linearGradient>
</defs>
</svg>
