<svg width="13" height="12" viewBox="0 0 13 12" fill="none" xmlns="http://www.w3.org/2000/svg">
<path opacity="0.4" d="M11.0505 4.79393H10.449V4.20581C10.449 3.95472 10.2476 3.75 9.99949 3.75C9.75188 3.75 9.55 3.95472 9.55 4.20581V4.79393H8.94949C8.70137 4.79393 8.5 4.99865 8.5 5.24974C8.5 5.50082 8.70137 5.70555 8.94949 5.70555H9.55V6.29419C9.55 6.54528 9.75188 6.75 9.99949 6.75C10.2476 6.75 10.449 6.54528 10.449 6.29419V5.70555H11.0505C11.2981 5.70555 11.5 5.50082 11.5 5.24974C11.5 4.99865 11.2981 4.79393 11.0505 4.79393Z" fill="#7E54F1"/>
<path d="M5.25 7.50781C3.22711 7.50781 1.5 7.83123 1.5 9.12336C1.5 10.415 3.2166 10.7501 5.25 10.7501C7.27239 10.7501 9 10.4266 9 9.13451C9 7.84238 7.2834 7.50781 5.25 7.50781Z" fill="#7E54F1"/>
<path opacity="0.4" d="M5.24999 6.27711C6.62728 6.27711 7.73131 5.15885 7.73131 3.76381C7.73131 2.36877 6.62728 1.25 5.24999 1.25C3.87271 1.25 2.76868 2.36877 2.76868 3.76381C2.76868 5.15885 3.87271 6.27711 5.24999 6.27711Z" fill="#7E54F1"/>
</svg>
