<svg width="15" height="16" viewBox="0 0 15 16" fill="none" xmlns="http://www.w3.org/2000/svg">
<path d="M7.50203 13.9588C10.9508 13.9588 13.7508 11.1588 13.7508 7.71004C13.7508 4.26129 10.9508 1.46191 7.50203 1.46191C4.05391 1.46191 1.25391 4.26129 1.25391 7.71004C1.25391 11.1588 4.05391 13.9588 7.50203 13.9588ZM7.50203 8.95879C7.24328 8.95879 7.03328 8.74879 7.03328 8.49004V5.05254C7.03328 4.79379 7.24328 4.58379 7.50203 4.58379C7.76078 4.58379 7.97078 4.79379 7.97078 5.05254V8.49004C7.97078 8.74879 7.76078 8.95879 7.50203 8.95879ZM7.50078 10.8338C7.15578 10.8338 6.87578 10.5538 6.87578 10.2088C6.87578 9.86379 7.15578 9.58379 7.50078 9.58379C7.84578 9.58379 8.12578 9.86379 8.12578 10.2088C8.12578 10.5538 7.84578 10.8338 7.50078 10.8338Z" fill="#ADADAD"/>
</svg>
