<svg width="12" height="12" viewBox="0 0 12 12" fill="none" xmlns="http://www.w3.org/2000/svg">
<path opacity="0.4" d="M1.85526 5.67033H6.09426C6.29037 5.67033 6.44953 5.82949 6.44953 6.0256C6.44953 6.2217 6.29037 6.38086 6.09426 6.38086H1.85526C1.65916 6.38086 1.5 6.2217 1.5 6.0256C1.5 5.82949 1.65916 5.67033 1.85526 5.67033Z" fill="white"/>
<mask id="mask0_31302_7171" style="mask-type:luminance" maskUnits="userSpaceOnUse" x="5" y="3" width="6" height="6">
<path fill-rule="evenodd" clip-rule="evenodd" d="M5.73926 8.74988V3.30168H10.209V8.74988H5.73926Z" fill="white"/>
</mask>
<g mask="url(#mask0_31302_7171)">
<path d="M6.09452 3.30154C6.16084 3.30154 6.22621 3.32001 6.28399 3.35601L10.0432 5.72491C10.1464 5.79027 10.2094 5.90348 10.2094 6.02569C10.2094 6.14791 10.1464 6.26112 10.0432 6.32648L6.28399 8.69538C6.17457 8.76406 6.03626 8.76833 5.92305 8.70533C5.80936 8.6428 5.73926 8.52391 5.73926 8.39459V3.6568C5.73926 3.52748 5.80936 3.40859 5.92305 3.34606C5.97657 3.31622 6.03578 3.30154 6.09452 3.30154Z" fill="white"/>
</g>
</svg>
