<svg width="30" height="30" viewBox="0 0 30 30" fill="none" xmlns="http://www.w3.org/2000/svg">
<path opacity="0.4" d="M20.105 2.5L9.895 2.5C5.47125 2.5 2.5 5.345 2.5 9.58125L2.5 20.4188C2.5 24.655 5.47125 27.5 9.895 27.5L20.105 27.5C24.5275 27.5 27.5 24.6537 27.5 20.4175L27.5 9.58125C27.5 5.345 24.5275 2.5 20.105 2.5Z" fill="white"/>
<path d="M13.9303 9.6509L9.22406 14.3359C8.87031 14.6884 8.87031 15.3122 9.22406 15.6659L13.9303 20.3509C14.2978 20.7159 14.8916 20.7147 15.2566 20.3472C15.6216 19.9797 15.6216 19.3872 15.2541 19.0209L12.1578 15.9372L20.1016 15.9372C20.6203 15.9372 21.0391 15.5172 21.0391 14.9997C21.0391 14.4822 20.6203 14.0622 20.1016 14.0622L12.1578 14.0622L15.2541 10.9797C15.4378 10.7959 15.5291 10.5559 15.5291 10.3147C15.5291 10.0759 15.4378 9.8359 15.2566 9.6534C14.8916 9.28715 14.2978 9.2859 13.9303 9.6509Z" fill="white"/>
</svg>
