<svg width="16" height="16" viewBox="0 0 16 16" fill="none" xmlns="http://www.w3.org/2000/svg">
<path opacity="0.4" d="M13.0953 6.32559C13.0953 6.37092 12.74 10.8648 12.5371 12.756C12.41 13.9167 11.6618 14.6206 10.5395 14.6406C9.67712 14.66 8.83294 14.6666 8.00239 14.6666C7.1206 14.6666 6.25827 14.66 5.42123 14.6406C4.33651 14.6146 3.58765 13.8967 3.46705 12.756C3.25827 10.8581 2.90945 6.37092 2.90297 6.32559C2.89648 6.18893 2.94057 6.05893 3.03005 5.9536C3.11823 5.85627 3.24531 5.79761 3.37887 5.79761H12.6259C12.7588 5.79761 12.8794 5.85627 12.9747 5.9536C13.0635 6.05893 13.1083 6.18893 13.0953 6.32559Z" fill="#DC2626"/>
<path d="M14 3.98449C14 3.7105 13.7841 3.49584 13.5247 3.49584H11.5809C11.1854 3.49584 10.8418 3.21452 10.7536 2.81787L10.6447 2.33188C10.4923 1.74457 9.9665 1.33325 9.37649 1.33325H6.62416C6.02766 1.33325 5.50702 1.74457 5.34882 2.36388L5.24703 2.81853C5.1582 3.21452 4.81457 3.49584 4.41971 3.49584H2.4759C2.21591 3.49584 2 3.7105 2 3.98449V4.23782C2 4.50514 2.21591 4.72647 2.4759 4.72647H13.5247C13.7841 4.72647 14 4.50514 14 4.23782V3.98449Z" fill="#DC2626"/>
</svg>
