<svg width="20" height="24" viewBox="0 0 20 24" fill="none" xmlns="http://www.w3.org/2000/svg">
<path fill-rule="evenodd" clip-rule="evenodd" d="M4.33594 4.0291C4.33594 2.06925 5.92471 0.480469 7.88457 0.480469C9.84442 0.480469 11.4332 2.06925 11.4332 4.0291V6.55409H10.8873V4.0291C10.8873 2.37076 9.54291 1.02641 7.88457 1.02641C6.22623 1.02641 4.88188 2.37076 4.88188 4.0291V6.55409H4.33594V4.0291Z" fill="#7E54F1"/>
<path opacity="0.7" fill-rule="evenodd" clip-rule="evenodd" d="M8.47452 10.733C8.53597 10.18 9.00327 9.76172 9.55961 9.76172H17.0934C17.6535 9.76172 18.1226 10.1854 18.1797 10.7425L19.2262 20.979C19.2921 21.6226 18.7871 22.1819 18.1401 22.1819H9.25398C9.49377 21.9845 9.63638 21.6728 9.5964 21.3322L9.52762 20.7464C9.48884 20.4168 9.62386 20.0908 9.8843 19.8851L10.3472 19.5196C10.8316 19.1371 10.8316 18.4025 10.3472 18.02L9.8843 17.6544C9.62386 17.4488 9.48884 17.1228 9.52762 16.7932L9.5964 16.2074C9.66837 15.5944 9.14895 15.075 8.5361 15.147L7.97656 15.2128L8.47452 10.733ZM10.6142 13.2236C10.6142 14.7841 11.9024 16.0401 13.4804 16.0401C15.0584 16.0401 16.3466 14.7841 16.3466 13.2236V11.536C16.3466 11.3853 16.2244 11.2631 16.0736 11.2631C15.9229 11.2631 15.8006 11.3853 15.8006 11.536V13.2236C15.8006 14.4726 14.7669 15.4941 13.4804 15.4941C12.1939 15.4941 11.1601 14.4726 11.1601 13.2236V11.536C11.1601 11.3853 11.0379 11.2631 10.8871 11.2631C10.7364 11.2631 10.6142 11.3853 10.6142 11.536V13.2236Z" fill="#7E54F1"/>
<path d="M2.06553 7.0481C2.12671 6.49486 2.59415 6.07617 3.15075 6.07617H12.6041C13.1643 6.07617 13.6338 6.50019 13.6904 7.0576L13.9654 9.76129H9.55879C9.00245 9.76129 8.53515 10.1796 8.47357 10.7326L7.97574 15.2124L7.94948 15.2154C7.61986 15.2541 7.29384 15.1191 7.08818 14.8587L6.72258 14.3958C6.34004 13.9114 5.60563 13.9114 5.2231 14.3958L4.85749 14.8587C4.65183 15.1191 4.32581 15.2541 3.99619 15.2154L3.4104 15.1466C2.79754 15.0746 2.27812 15.594 2.3501 16.207L2.41887 16.7928C2.45766 17.1223 2.32264 17.4484 2.0622 17.654L1.59929 18.0196C1.11493 18.4021 1.11493 19.1366 1.59929 19.5191L2.0622 19.8847C2.32264 20.0903 2.45766 20.4164 2.41887 20.7459L2.37849 21.0896H1.73258C1.08214 21.0896 0.575916 20.5243 0.647358 19.8778L2.06553 7.0481Z" fill="#7E54F1"/>
<g opacity="0.4">
<path d="M6.75305 20.1473V19.9087C6.75305 19.8011 6.77878 19.701 6.83036 19.6081C6.88194 19.5153 6.97404 19.4689 7.10653 19.4689C7.24502 19.4689 7.33792 19.5153 7.3851 19.6081C7.43215 19.701 7.45574 19.8011 7.45574 19.9087V20.1473C7.45574 20.2549 7.43069 20.3543 7.38057 20.4457C7.33205 20.537 7.24062 20.5827 7.10653 20.5827C6.97258 20.5827 6.87968 20.5363 6.82809 20.4435C6.77811 20.3506 6.75305 20.2519 6.75305 20.1473Z" fill="#7E54F1"/>
<path d="M4.43493 17.5574V17.3188C4.43493 17.2142 4.45999 17.1147 4.5101 17.0204C4.56008 16.9261 4.65072 16.879 4.78187 16.879C4.92182 16.879 5.01539 16.9254 5.06244 17.0182C5.10963 17.111 5.13322 17.2112 5.13322 17.3188V17.5574C5.13322 17.6195 5.12482 17.6789 5.10816 17.7356C5.0959 17.7771 5.07924 17.8172 5.05804 17.8557C5.00939 17.9471 4.91743 17.9928 4.78187 17.9928C4.65219 17.9928 4.56155 17.9471 4.5101 17.8557C4.45999 17.7644 4.43493 17.665 4.43493 17.5574Z" fill="#7E54F1"/>
<path fill-rule="evenodd" clip-rule="evenodd" d="M6.72093 14.3965C6.3384 13.9121 5.60399 13.9121 5.22145 14.3965L4.85585 14.8593C4.65019 15.1198 4.32417 15.2548 3.99455 15.2161L3.40875 15.1473C2.7959 15.0753 2.27648 15.5947 2.34845 16.2076L2.41723 16.7934C2.45602 17.123 2.321 17.449 2.06055 17.6547L1.59765 18.0202C1.11328 18.4027 1.11328 19.1373 1.59765 19.5198L2.06055 19.8854C2.321 20.091 2.45602 20.417 2.41723 20.7466L2.34845 21.3324C2.27648 21.9454 2.7959 22.4648 3.40875 22.3928L3.99455 22.324C4.32417 22.2852 4.65019 22.4203 4.85585 22.6807L5.22145 23.1436C5.60399 23.6279 6.3384 23.6279 6.72093 23.1436L7.08654 22.6807C7.2922 22.4203 7.61822 22.2852 7.94784 22.324L8.53363 22.3928C9.14649 22.4648 9.66591 21.9454 9.59393 21.3324L9.52516 20.7466C9.48637 20.417 9.62139 20.091 9.88183 19.8854L10.3447 19.5198C10.8291 19.1373 10.8291 18.4027 10.3447 18.0202L9.88183 17.6547C9.62139 17.449 9.48637 17.123 9.52516 16.7934L9.59393 16.2076C9.66591 15.5947 9.14649 15.0753 8.53363 15.1473L7.94784 15.2161C7.61822 15.2548 7.2922 15.1198 7.08654 14.8593L6.72093 14.3965ZM6.10994 19.9087V20.1473C6.10994 20.2605 6.12487 20.3682 6.15473 20.4704C6.17272 20.5319 6.19605 20.5914 6.22484 20.649C6.30148 20.8007 6.41344 20.9223 6.56072 21.0136C6.70814 21.1064 6.89007 21.1528 7.10653 21.1528C7.32019 21.1528 7.50146 21.1064 7.65021 21.0136C7.79896 20.9223 7.91172 20.8007 7.98836 20.649C8.06486 20.4958 8.10325 20.3285 8.10325 20.1473V19.9087C8.10325 19.726 8.06486 19.5588 7.98836 19.407C7.91318 19.2538 7.80122 19.1316 7.65247 19.0402C7.50506 18.9489 7.32312 18.9032 7.10653 18.9032C6.89301 18.9032 6.71174 18.9496 6.56299 19.0424C6.41571 19.1338 6.30294 19.2561 6.22484 19.4093C6.1482 19.561 6.10994 19.7275 6.10994 19.9087ZM3.78742 17.3188V17.5574C3.78742 17.7386 3.82501 17.9051 3.90018 18.0568C3.97669 18.2071 4.08865 18.3286 4.23606 18.4215C4.38481 18.5128 4.56675 18.5585 4.78187 18.5585C4.997 18.5585 5.17814 18.5135 5.32542 18.4237C5.4743 18.3323 5.58693 18.2108 5.66357 18.059C5.74167 17.9073 5.78073 17.7401 5.78073 17.5574V17.3188C5.78073 17.1361 5.74234 16.9688 5.66583 16.8171C5.58919 16.6639 5.47723 16.5416 5.32995 16.4503C5.18253 16.359 4.99993 16.3133 4.78187 16.3133C4.57115 16.3133 4.39148 16.359 4.24259 16.4503C4.09531 16.5416 3.98269 16.6639 3.90458 16.8171C3.82647 16.9688 3.78742 17.1361 3.78742 17.3188ZM7.19064 16.4702L4.07918 20.9959H4.65805L7.7695 16.4702H7.19064Z" fill="#7E54F1"/>
</g>
</svg>
