<svg width="20" height="20" viewBox="0 0 20 20" fill="none" xmlns="http://www.w3.org/2000/svg">
<path fill-rule="evenodd" clip-rule="evenodd" d="M2.5 14.0583V7.71411H17.5V14.1091C17.5 16.7249 15.8535 18.3333 13.219 18.3333H6.77278C4.16301 18.3333 2.5 16.6916 2.5 14.0583ZM6.63282 12.0083C6.25412 12.0258 5.94127 11.7249 5.92481 11.3424C5.92481 10.9591 6.22119 10.6424 6.59989 10.6249C6.97036 10.6249 7.27497 10.9174 7.28321 11.2916C7.29967 11.6758 7.00329 11.9924 6.63282 12.0083ZM10.0165 12.0083C9.63776 12.0258 9.32492 11.7249 9.30845 11.3424C9.30845 10.9591 9.60483 10.6424 9.98353 10.6249C10.354 10.6249 10.6586 10.9174 10.6669 11.2916C10.6833 11.6758 10.3869 11.9924 10.0165 12.0083ZM13.3754 15.0749C12.9967 15.0666 12.6921 14.7499 12.6921 14.3666C12.6839 13.9833 12.9885 13.6674 13.3672 13.6591H13.3754C13.7623 13.6591 14.0752 13.9758 14.0752 14.3666C14.0752 14.7583 13.7623 15.0749 13.3754 15.0749ZM9.30845 14.3666C9.32492 14.7499 9.63776 15.0508 10.0165 15.0333C10.3869 15.0174 10.6833 14.7008 10.6669 14.3174C10.6586 13.9424 10.354 13.6499 9.98353 13.6499C9.60483 13.6674 9.30845 13.9833 9.30845 14.3666ZM5.91658 14.3666C5.93304 14.7499 6.24588 15.0508 6.62459 15.0333C6.99506 15.0174 7.29144 14.7008 7.27497 14.3174C7.26674 13.9424 6.96213 13.6499 6.59166 13.6499C6.21295 13.6674 5.91658 13.9833 5.91658 14.3666ZM12.7003 11.3341C12.7003 10.9508 12.9967 10.6424 13.3754 10.6341C13.7459 10.6341 14.0423 10.9333 14.0587 11.3008C14.067 11.6841 13.7706 12.0008 13.4001 12.0083C13.0214 12.0166 12.7086 11.7249 12.7003 11.3424V11.3341Z" fill="#130F26"/>
<path opacity="0.4" d="M2.50195 7.71404C2.51266 7.22487 2.55382 6.25404 2.63121 5.94154C3.02638 4.18404 4.36831 3.06737 6.28653 2.9082H13.7124C15.6142 3.0757 16.9726 4.19987 17.3678 5.94154C17.4443 6.2457 17.4855 7.22404 17.4962 7.71404H2.50195Z" fill="#130F26"/>
<path d="M6.92103 5.49163C7.28327 5.49163 7.55495 5.21746 7.55495 4.84996V2.30913C7.55495 1.94163 7.28327 1.66663 6.92103 1.66663C6.55879 1.66663 6.28711 1.94163 6.28711 2.30913V4.84996C6.28711 5.21746 6.55879 5.49163 6.92103 5.49163Z" fill="#130F26"/>
<path d="M13.0792 5.49163C13.4332 5.49163 13.7132 5.21746 13.7132 4.84996V2.30913C13.7132 1.94163 13.4332 1.66663 13.0792 1.66663C12.717 1.66663 12.4453 1.94163 12.4453 2.30913V4.84996C12.4453 5.21746 12.717 5.49163 13.0792 5.49163Z" fill="#130F26"/>
</svg>
