<svg width="16" height="16" viewBox="0 0 16 16" fill="none" xmlns="http://www.w3.org/2000/svg">
<path opacity="0.4" d="M2.06152 6.26931H13.9442" stroke="#BCC2CE" stroke-width="1.5" stroke-linecap="round" stroke-linejoin="round"/>
<path opacity="0.4" fill-rule="evenodd" clip-rule="evenodd" d="M4.28906 8.87305C4.28906 8.45883 4.62485 8.12305 5.03906 8.12305H5.04524C5.45945 8.12305 5.79524 8.45883 5.79524 8.87305C5.79524 9.28726 5.45945 9.62305 5.04524 9.62305H5.03906C4.62485 9.62305 4.28906 9.28726 4.28906 8.87305ZM8.00354 8.12305C7.58933 8.12305 7.25354 8.45883 7.25354 8.87305C7.25354 9.28726 7.58933 9.62305 8.00354 9.62305H8.00972C8.42393 9.62305 8.75972 9.28726 8.75972 8.87305C8.75972 8.45883 8.42393 8.12305 8.00972 8.12305H8.00354ZM10.9619 8.12305C10.5476 8.12305 10.2119 8.45883 10.2119 8.87305C10.2119 9.28726 10.5476 9.62305 10.9619 9.62305H10.968C11.3822 9.62305 11.718 9.28726 11.718 8.87305C11.718 8.45883 11.3822 8.12305 10.968 8.12305H10.9619ZM10.9619 10.714C10.5476 10.714 10.2119 11.0498 10.2119 11.464C10.2119 11.8782 10.5476 12.214 10.9619 12.214H10.968C11.3822 12.214 11.718 11.8782 11.718 11.464C11.718 11.0498 11.3822 10.714 10.968 10.714H10.9619ZM7.25354 11.464C7.25354 11.0498 7.58933 10.714 8.00354 10.714H8.00972C8.42393 10.714 8.75972 11.0498 8.75972 11.464C8.75972 11.8782 8.42393 12.214 8.00972 12.214H8.00354C7.58933 12.214 7.25354 11.8782 7.25354 11.464ZM5.03906 10.714C4.62485 10.714 4.28906 11.0498 4.28906 11.464C4.28906 11.8782 4.62485 12.214 5.03906 12.214H5.04524C5.45945 12.214 5.79524 11.8782 5.79524 11.464C5.79524 11.0498 5.45945 10.714 5.04524 10.714H5.03906Z" fill="#BCC2CE"/>
<path d="M10.6955 1.33325V3.52711" stroke="#BCC2CE" stroke-width="1.5" stroke-linecap="round" stroke-linejoin="round"/>
<path d="M5.31075 1.33325V3.52711" stroke="#BCC2CE" stroke-width="1.5" stroke-linecap="round" stroke-linejoin="round"/>
<path fill-rule="evenodd" clip-rule="evenodd" d="M10.8255 2.38599H5.18064C3.22285 2.38599 2 3.47661 2 5.48134V11.5144C2 13.5507 3.22285 14.6665 5.18064 14.6665H10.8193C12.7833 14.6665 14 13.5696 14 11.5649V5.48134C14.0062 3.47661 12.7895 2.38599 10.8255 2.38599Z" stroke="#BCC2CE" stroke-width="1.5" stroke-linecap="round" stroke-linejoin="round"/>
</svg>
