<svg width="20" height="20" viewBox="0 0 20 20" fill="none" xmlns="http://www.w3.org/2000/svg">
<path opacity="0.4" d="M2.57812 7.83542H17.4314" stroke="current" stroke-width="1.5" stroke-linecap="round" stroke-linejoin="round"/>
<path opacity="0.4" fill-rule="evenodd" clip-rule="evenodd" d="M5.54883 11.0898C5.54883 10.6756 5.88461 10.3398 6.29883 10.3398H6.30655C6.72076 10.3398 7.05655 10.6756 7.05655 11.0898C7.05655 11.5041 6.72076 11.8398 6.30655 11.8398H6.29883C5.88461 11.8398 5.54883 11.5041 5.54883 11.0898ZM10.0044 10.3398C9.59022 10.3398 9.25443 10.6756 9.25443 11.0898C9.25443 11.5041 9.59022 11.8398 10.0044 11.8398H10.0122C10.4264 11.8398 10.7622 11.5041 10.7622 11.0898C10.7622 10.6756 10.4264 10.3398 10.0122 10.3398H10.0044ZM13.7023 10.3398C13.2881 10.3398 12.9523 10.6756 12.9523 11.0898C12.9523 11.5041 13.2881 11.8398 13.7023 11.8398H13.71C14.1242 11.8398 14.46 11.5041 14.46 11.0898C14.46 10.6756 14.1242 10.3398 13.71 10.3398H13.7023ZM13.7023 13.5786C13.2881 13.5786 12.9523 13.9144 12.9523 14.3286C12.9523 14.7428 13.2881 15.0786 13.7023 15.0786H13.71C14.1242 15.0786 14.46 14.7428 14.46 14.3286C14.46 13.9144 14.1242 13.5786 13.71 13.5786H13.7023ZM9.25443 14.3286C9.25443 13.9144 9.59022 13.5786 10.0044 13.5786H10.0122C10.4264 13.5786 10.7622 13.9144 10.7622 14.3286C10.7622 14.7428 10.4264 15.0786 10.0122 15.0786H10.0044C9.59022 15.0786 9.25443 14.7428 9.25443 14.3286ZM6.29883 13.5786C5.88461 13.5786 5.54883 13.9144 5.54883 14.3286C5.54883 14.7428 5.88461 15.0786 6.29883 15.0786H6.30655C6.72076 15.0786 7.05655 14.7428 7.05655 14.3286C7.05655 13.9144 6.72076 13.5786 6.30655 13.5786H6.29883Z" fill="#9A9A9A"/>
<path d="M13.3704 1.66602V4.40833" stroke="current" stroke-width="1.5" stroke-linecap="round" stroke-linejoin="round"/>
<path d="M6.63795 1.66602V4.40833" stroke="current" stroke-width="1.5" stroke-linecap="round" stroke-linejoin="round"/>
<path fill-rule="evenodd" clip-rule="evenodd" d="M13.5319 2.98242H6.4758C4.02856 2.98242 2.5 4.3457 2.5 6.85161V14.393C2.5 16.9383 4.02856 18.3331 6.4758 18.3331H13.5242C15.9791 18.3331 17.5 16.9619 17.5 14.456V6.85161C17.5077 4.3457 15.9868 2.98242 13.5319 2.98242Z" stroke="current" stroke-width="1.5" stroke-linecap="round" stroke-linejoin="round"/>
</svg>
