<svg width="16" height="16" viewBox="0 0 16 16" fill="none" xmlns="http://www.w3.org/2000/svg">
<path fill-rule="evenodd" clip-rule="evenodd" d="M11.14 6.71488C11.14 7.04784 11.4067 7.31421 11.74 7.31421C12.0733 7.31421 12.3467 7.04784 12.3467 6.71488C12.3467 6.38192 12.0733 6.10889 11.74 6.10889C11.4067 6.10889 11.14 6.38192 11.14 6.71488ZM9.84667 10.7371C9.37334 11.2099 8.72 11.5029 8 11.5029C7.3 11.5029 6.64667 11.2299 6.14667 10.7371C5.65334 10.2376 5.38 9.58502 5.38 8.8858C5.37334 8.19324 5.64667 7.54063 6.14 7.04118C6.64 6.54174 7.3 6.26871 8 6.26871C8.7 6.26871 9.36 6.54174 9.85333 7.03453C10.3467 7.53397 10.62 8.19324 10.62 8.8858C10.6133 9.61166 10.32 10.2643 9.84667 10.7371ZM8 7.2676C7.56667 7.2676 7.16 7.43408 6.84667 7.74707C6.54 8.05339 6.37334 8.45961 6.38 8.87914V8.8858C6.38 9.31865 6.54667 9.72487 6.85334 10.0312C7.16 10.3375 7.56667 10.504 8 10.504C8.89334 10.504 9.61334 9.77814 9.62 8.8858C9.62 8.45295 9.45334 8.04673 9.14667 7.74041C8.84 7.43408 8.43334 7.2676 8 7.2676Z" fill="#7E54F1"/>
<path opacity="0.4" d="M11.6263 4.1576L11.5597 4.0111C11.3797 3.63152 11.173 3.19201 11.0463 2.93896C10.7397 2.33962 10.213 2.00666 9.56634 2H6.42634C5.77967 2.00666 5.25967 2.33962 4.95301 2.93896C4.81967 3.20533 4.59301 3.68479 4.40634 4.07769L4.36634 4.1576C4.34634 4.21088 4.29301 4.23751 4.23967 4.23751C2.63301 4.23751 1.33301 5.54273 1.33301 7.14095V11.0966C1.33301 12.6948 2.63301 14 4.23967 14H11.7597C13.3597 14 14.6663 12.6948 14.6663 11.0966V7.14095C14.6663 5.54273 13.3597 4.23751 11.7597 4.23751C11.6997 4.23751 11.653 4.20422 11.6263 4.1576Z" fill="#7E54F1"/>
</svg>
