<svg width="15" height="15" viewBox="0 0 15 15" fill="none" xmlns="http://www.w3.org/2000/svg">
<path opacity="0.4" fill-rule="evenodd" clip-rule="evenodd" d="M4.63766 12.3877C4.90141 12.3877 5.11578 12.6021 5.11578 12.8658C5.11578 13.1296 4.90141 13.3433 4.63766 13.3433C4.37391 13.3433 4.16016 13.1296 4.16016 12.8658C4.16016 12.6021 4.37391 12.3877 4.63766 12.3877Z" stroke="white" stroke-width="1.5" stroke-linecap="round" stroke-linejoin="round"/>
<path opacity="0.4" fill-rule="evenodd" clip-rule="evenodd" d="M11.6734 12.3877C11.9372 12.3877 12.1516 12.6021 12.1516 12.8658C12.1516 13.1296 11.9372 13.3433 11.6734 13.3433C11.4097 13.3433 11.1953 13.1296 11.1953 12.8658C11.1953 12.6021 11.4097 12.3877 11.6734 12.3877Z" stroke="white" stroke-width="1.5" stroke-linecap="round" stroke-linejoin="round"/>
<path d="M1.71875 2.03125L3.01875 2.25625L3.62062 9.42688C3.66937 10.0113 4.1575 10.46 4.74375 10.46H11.5637C12.1237 10.46 12.5988 10.0487 12.6794 9.49375L13.2725 5.395C13.3456 4.88937 12.9538 4.43687 12.4431 4.43687H3.2275" stroke="white" stroke-width="1.5" stroke-linecap="round" stroke-linejoin="round"/>
<path opacity="0.4" d="M8.82812 6.74707H10.5612" stroke="white" stroke-width="1.5" stroke-linecap="round" stroke-linejoin="round"/>
</svg>
