<svg width="15" height="15" viewBox="0 0 15 15" fill="none" xmlns="http://www.w3.org/2000/svg">
<path d="M6.25 12.1875C6.25 12.7056 5.83 13.125 5.3125 13.125C4.795 13.125 4.375 12.7056 4.375 12.1875C4.375 11.67 4.795 11.25 5.3125 11.25C5.83 11.25 6.25 11.67 6.25 12.1875ZM8.4375 11.25C7.92 11.25 7.5 11.6694 7.5 12.1875C7.5 12.7056 7.92 13.125 8.4375 13.125C8.955 13.125 9.375 12.7056 9.375 12.1875C9.375 11.67 8.955 11.25 8.4375 11.25ZM9.2725 8.125L10.5081 3.75H0L1.83625 8.125H9.2725ZM12.3781 1.875L10.2331 9.375H2.36L2.88437 10.625H11.1588L13.33 3.125H14.5356L15 1.875H12.3781Z" fill="#7E54F1"/>
</svg>
