<svg width="12" height="12" viewBox="0 0 12 12" fill="none" xmlns="http://www.w3.org/2000/svg">
<path opacity="0.4" fill-rule="evenodd" clip-rule="evenodd" d="M2.95508 10.2942C2.95508 9.87418 3.29508 9.53418 3.71508 9.53418C4.13008 9.53418 4.47008 9.87418 4.47008 10.2942C4.47008 10.7092 4.13008 11.0492 3.71508 11.0492C3.29508 11.0492 2.95508 10.7092 2.95508 10.2942ZM8.58008 10.2942C8.58008 9.87418 8.92008 9.53418 9.34008 9.53418C9.75508 9.53418 10.0951 9.87418 10.0951 10.2942C10.0951 10.7092 9.75508 11.0492 9.34008 11.0492C8.92008 11.0492 8.58008 10.7092 8.58008 10.2942Z" fill="#7E54F1"/>
<path fill-rule="evenodd" clip-rule="evenodd" d="M10.0954 3.17442C10.4004 3.17442 10.6004 3.27942 10.8004 3.50942C11.0004 3.73942 11.0354 4.06942 10.9904 4.36892L10.5154 7.64892C10.4254 8.27942 9.88537 8.74392 9.25037 8.74392H3.79537C3.13037 8.74392 2.58037 8.23392 2.52537 7.57442L2.06537 2.12392L1.31037 1.99392C1.11037 1.95892 0.970371 1.76392 1.00537 1.56392C1.04037 1.35892 1.23537 1.22392 1.44037 1.25392L2.63287 1.43392C2.80287 1.46442 2.92787 1.60392 2.94287 1.77392L3.03787 2.89392C3.05287 3.05442 3.18287 3.17442 3.34287 3.17442H10.0954ZM7.06537 5.77392H8.45037C8.66037 5.77392 8.82537 5.60392 8.82537 5.39892C8.82537 5.18892 8.66037 5.02392 8.45037 5.02392H7.06537C6.85537 5.02392 6.69037 5.18892 6.69037 5.39892C6.69037 5.60392 6.85537 5.77392 7.06537 5.77392Z" fill="#7E54F1"/>
</svg>
