<svg width="15" height="16" viewBox="0 0 15 16" fill="none" xmlns="http://www.w3.org/2000/svg">
<g clip-path="url(#clip0_9354_56051)">
<path d="M13.2306 12.8462C13.5569 12.3525 13.75 11.7619 13.75 11.125C13.75 9.39937 12.3512 8 10.625 8C8.89875 8 7.5 9.39937 7.5 11.125C7.5 12.8506 8.89875 14.25 10.625 14.25C11.2619 14.25 11.8525 14.0569 12.3469 13.73L14.1163 15.5L15 14.6163L13.2306 12.8462ZM10.625 13C9.59125 13 8.75 12.1587 8.75 11.125C8.75 10.0913 9.59125 9.25 10.625 9.25C11.6587 9.25 12.5 10.0913 12.5 11.125C12.5 12.1587 11.6587 13 10.625 13ZM7.56875 14.25H3.125L4.74937 12.375H6.43437C6.65 13.095 7.04437 13.7375 7.56875 14.25ZM6.25 11.125H0V0.5H13.75V8.06875C13.3912 7.7025 12.9681 7.40125 12.5 7.17813V1.75H1.25V9.875H6.43437C6.31563 10.2712 6.25 10.6906 6.25 11.125ZM3.75 8.625H2.5V4.875H3.75V8.625ZM5.625 8.625H4.375V3H5.625V8.625ZM7.5 8.625H6.25V6.125H7.5V8.625Z" fill="#7E54F1"/>
</g>
<defs>
<clipPath id="clip0_9354_56051">
<rect width="15" height="15" fill="white" transform="translate(0 0.5)"/>
</clipPath>
</defs>
</svg>
