<svg width="12" height="12" viewBox="0 0 12 12" fill="none" xmlns="http://www.w3.org/2000/svg">
<path opacity="0.4" d="M8.0955 1H3.905C2.385 1 1.5 1.89 1.5 3.415V8.58C1.5 10.13 2.385 11 3.905 11H8.0955C9.64 11 10.5 10.13 10.5 8.58V3.415C10.5 1.89 9.64 1 8.0955 1Z" fill="#7E54F1"/>
<path fill-rule="evenodd" clip-rule="evenodd" d="M4.04047 3.32495V3.32995C3.82497 3.32995 3.65047 3.50495 3.65047 3.71995C3.65047 3.93495 3.82497 4.10995 4.04047 4.10995H5.53497C5.75047 4.10995 5.92547 3.93495 5.92547 3.71445C5.92547 3.49995 5.75047 3.32495 5.53497 3.32495H4.04047ZM7.96047 6.36995H4.04047C3.82497 6.36995 3.65047 6.19495 3.65047 5.97995C3.65047 5.76495 3.82497 5.58945 4.04047 5.58945H7.96047C8.17547 5.58945 8.35047 5.76495 8.35047 5.97995C8.35047 6.19495 8.17547 6.36995 7.96047 6.36995ZM7.96047 8.65495H4.04047C3.89047 8.67495 3.74547 8.59995 3.66547 8.47495C3.58547 8.34495 3.58547 8.17995 3.66547 8.05495C3.74547 7.92495 3.89047 7.85495 4.04047 7.86995H7.96047C8.15997 7.88995 8.31047 8.05995 8.31047 8.26495C8.31047 8.46445 8.15997 8.63495 7.96047 8.65495Z" fill="#7E54F1"/>
</svg>
