<svg width="21" height="20" viewBox="0 0 21 20" fill="none" xmlns="http://www.w3.org/2000/svg">
<path fill-rule="evenodd" clip-rule="evenodd" d="M10.5 0C4.97715 0 0.5 4.47715 0.5 10C0.5 15.5228 4.97715 20 10.5 20C16.0228 20 20.5 15.5228 20.5 10C20.5 4.47715 16.0228 0 10.5 0ZM9.74711 3.72813C9.74711 3.43645 9.98688 3.2 10.2826 3.2H10.9521C11.2478 3.2 11.4876 3.43645 11.4876 3.72813V4.27787C12.9267 4.54196 13.9545 5.39298 14.2765 6.69465C14.3507 6.99488 14.1001 7.26125 13.7867 7.26125H12.7957C12.5174 7.26125 12.2945 7.04431 12.1824 6.79314C12.0504 6.4971 11.8164 6.2344 11.4876 6.04868V9.29541C12.9944 9.73206 14.5 10.3664 14.5 12.4283C14.5 13.9012 13.4416 15.3247 11.4876 15.666V16.2052C11.4876 16.4969 11.2478 16.7333 10.9521 16.7333H10.2826C9.98688 16.7333 9.74711 16.4969 9.74711 16.2052V15.6873C8.07445 15.4531 6.81908 14.4931 6.57649 13.0357C6.52858 12.7478 6.77365 12.5096 7.06942 12.5096H8.04277C8.32049 12.5096 8.54344 12.7231 8.63187 12.9828C8.79982 13.4759 9.16722 13.8737 9.74711 14.0631V10.5455C8.18477 10.1239 6.56667 9.559 6.56667 7.40749C6.56667 5.64224 7.82743 4.46969 9.74711 4.23404V3.72813ZM8.46804 7.3425C8.46804 6.48061 8.992 5.97517 9.74711 5.81812V8.77699C8.99959 8.49195 8.46804 8.09979 8.46804 7.3425ZM11.4876 14.0432V11.075C12.1545 11.3621 12.615 11.7726 12.615 12.5258C12.615 13.2295 12.2176 13.7931 11.4876 14.0432Z" fill="#16A34A"/>
</svg>
