<svg width="12" height="12" viewBox="0 0 12 12" fill="none" xmlns="http://www.w3.org/2000/svg">
<path opacity="0.4" d="M8.777 3.64809C10.0025 3.64809 11 4.67799 11 5.94381V8.45996C11 9.72268 10.005 10.75 8.782 10.75L3.224 10.75C1.998 10.75 1 9.72062 1 8.4548V5.93865C1 4.67593 1.9955 3.64809 3.219 3.64809H3.689L8.777 3.64809Z" fill="#7E54F1"/>
<path d="M6.27297 8.0187L7.72747 6.53474C7.87747 6.38137 7.87747 6.13455 7.72647 5.98169C7.57547 5.82933 7.33197 5.82984 7.18197 5.98271L6.38547 6.79527L6.38547 1.64105C6.38547 1.42521 6.21297 1.25 5.99997 1.25C5.78747 1.25 5.61547 1.42521 5.61547 1.64105L5.61547 6.79527L4.81847 5.98271C4.66847 5.82984 4.42497 5.82933 4.27397 5.98169C4.19847 6.05838 4.16047 6.15842 4.16047 6.25898C4.16047 6.35852 4.19847 6.45857 4.27297 6.53474L5.72747 8.0187C5.79997 8.09234 5.89797 8.13398 5.99997 8.13398C6.10247 8.13398 6.20047 8.09234 6.27297 8.0187Z" fill="#7E54F1"/>
</svg>
