<svg width="16" height="16" viewBox="0 0 16 16" fill="none" xmlns="http://www.w3.org/2000/svg">
<g clip-path="url(#clip0_18748_146998)">
<path d="M16 8C16 3.58125 12.4187 0 8 0C3.58125 0 0 3.58125 0 8C0 11.9934 2.92375 15.3031 6.75063 15.9034V10.3144H4.72094V8H6.75063V6.23781C6.75063 4.23438 7.94281 3.12562 9.77094 3.12562C10.6475 3.12562 11.5638 3.28344 11.5638 3.28344V5.25156H10.5556C9.56063 5.25156 9.25375 5.86969 9.25375 6.50094V8H11.4719L11.1169 10.3144H9.25375V15.9034C13.0763 15.3031 16 11.9934 16 8Z" fill="#1877F2"/>
<path d="M11.1105 10.3138L11.4658 7.99938H9.24766V6.50031C9.24766 5.86906 9.55891 5.25094 10.5495 5.25094H11.5577V3.28281C11.5577 3.28281 10.6414 3.125 9.76484 3.125C7.93703 3.125 6.74453 4.23406 6.74453 6.23719V7.99938H4.71484V10.3138H6.74453V15.9028C7.15234 15.9684 7.56859 15.9994 7.99391 15.9994C8.41922 15.9994 8.83547 15.9644 9.24328 15.9028V10.3138H11.1105Z" fill="white"/>
</g>
<defs>
<clipPath id="clip0_18748_146998">
<rect width="16" height="16" fill="white"/>
</clipPath>
</defs>
</svg>
