<svg width="15" height="15" viewBox="0 0 15 15" fill="none" xmlns="http://www.w3.org/2000/svg">
<path opacity="0.4" d="M6.30206 9.97461H2.19236C1.67222 9.97461 1.25 10.3894 1.25 10.9004C1.25 11.4108 1.67222 11.8263 2.19236 11.8263H6.30206C6.82219 11.8263 7.24441 11.4108 7.24441 10.9004C7.24441 10.3894 6.82219 9.97461 6.30206 9.97461Z" fill="#7E54F1"/>
<path opacity="0.4" d="M13.7515 3.98569C13.7515 3.47536 13.3293 3.06055 12.8099 3.06055H8.70017C8.18003 3.06055 7.75781 3.47536 7.75781 3.98569C7.75781 4.49671 8.18003 4.91152 8.70017 4.91152H12.8099C13.3293 4.91152 13.7515 4.49671 13.7515 3.98569Z" fill="#7E54F1"/>
<path d="M5.54859 3.9866C5.54859 5.15327 4.58679 6.09888 3.39929 6.09888C2.21249 6.09888 1.25 5.15327 1.25 3.9866C1.25 2.82061 2.21249 1.875 3.39929 1.875C4.58679 1.875 5.54859 2.82061 5.54859 3.9866Z" fill="#7E54F1"/>
<path d="M13.7517 10.874C13.7517 12.04 12.7899 12.9856 11.6024 12.9856C10.4156 12.9856 9.45312 12.04 9.45312 10.874C9.45312 9.70733 10.4156 8.76172 11.6024 8.76172C12.7899 8.76172 13.7517 9.70733 13.7517 10.874Z" fill="#7E54F1"/>
</svg>
