<svg width="16" height="16" viewBox="0 0 16 16" fill="none" xmlns="http://www.w3.org/2000/svg">
<path d="M6.76915 3.70364C6.80311 3.77275 6.82553 3.84676 6.83558 3.92285L7.0212 6.6828L7.11334 8.07001C7.11429 8.21266 7.13667 8.3544 7.17976 8.49065C7.29105 8.755 7.55876 8.92301 7.85002 8.91129L12.2882 8.62099C12.4804 8.61782 12.666 8.6897 12.8041 8.82081C12.9193 8.93007 12.9936 9.073 13.017 9.22673L13.0249 9.32008C12.8412 11.8632 10.9734 13.9844 8.43556 14.532C5.89769 15.0795 3.29523 13.9228 2.04112 11.6899C1.67958 11.0412 1.45375 10.3281 1.37691 9.59261C1.3448 9.37488 1.33067 9.15495 1.33464 8.93499C1.33067 6.20845 3.2723 3.85126 5.99021 3.283C6.31732 3.23207 6.638 3.40524 6.76915 3.70364Z" fill="#7E54F1"/>
<path opacity="0.4" d="M8.57972 1.3338C11.6196 1.41114 14.1746 3.59711 14.6664 6.54145L14.6617 6.56317L14.6483 6.59477L14.6501 6.68149C14.6432 6.79639 14.5988 6.90695 14.5224 6.99624C14.4427 7.08926 14.3339 7.15261 14.2141 7.17719L14.141 7.18722L9.02052 7.51899C8.8502 7.53579 8.68061 7.48087 8.55395 7.36789C8.4484 7.27374 8.38092 7.14665 8.36185 7.0097L8.01816 1.89663C8.01218 1.87934 8.01218 1.8606 8.01816 1.84331C8.02285 1.70237 8.08489 1.56915 8.19042 1.47341C8.29594 1.37767 8.43615 1.32739 8.57972 1.3338Z" fill="#7E54F1"/>
</svg>
