<svg width="15" height="15" viewBox="0 0 15 15" fill="none" xmlns="http://www.w3.org/2000/svg">
<path d="M5.72326 12.9821V11.0654C5.72325 10.5779 6.1207 10.1818 6.61313 10.1785H8.41693C8.91171 10.1785 9.31282 10.5756 9.31282 11.0654V11.0654V12.9881C9.3127 13.402 9.64641 13.7403 10.0644 13.75H11.2669C12.4657 13.75 13.4375 12.7879 13.4375 11.6011V11.6011V6.14865C13.4311 5.68177 13.2097 5.24334 12.8362 4.95815L8.72358 1.67831C8.00308 1.10723 6.97888 1.10723 6.25839 1.67831L2.16377 4.9641C1.78891 5.24814 1.56712 5.68729 1.5625 6.1546V11.6011C1.5625 12.7879 2.5343 13.75 3.73307 13.75H4.9356C5.36397 13.75 5.71123 13.4062 5.71123 12.9821V12.9821" stroke="white" stroke-width="1.5" stroke-linecap="round" stroke-linejoin="round"/>
</svg>
