<svg width="16" height="14" viewBox="0 0 16 14" fill="none" xmlns="http://www.w3.org/2000/svg">
<g id="Group">
<path id="Fill 1" opacity="0.4" d="M15.5 9.955C15.5 12.0475 13.82 13.7425 11.7275 13.75H11.72H4.2875C2.2025 13.75 0.5 12.0625 0.5 9.97V9.9625C0.5 9.9625 0.5045 6.643 0.5105 4.9735C0.51125 4.66 0.87125 4.4845 1.1165 4.6795C2.8985 6.09325 6.08525 8.671 6.125 8.70475C6.6575 9.1315 7.3325 9.37225 8.0225 9.37225C8.7125 9.37225 9.3875 9.1315 9.92 8.6965C9.95975 8.67025 13.0753 6.16975 14.8843 4.73275C15.1303 4.537 15.4918 4.7125 15.4925 5.02525C15.5 6.682 15.5 9.955 15.5 9.955Z" fill="#130F26"/>
<path id="Fill 4" d="M15.1067 2.2555C14.4572 1.0315 13.1792 0.25 11.7722 0.25H4.28717C2.88017 0.25 1.60217 1.0315 0.952669 2.2555C0.807169 2.52925 0.876169 2.8705 1.11842 3.064L6.68717 7.51825C7.07717 7.83325 7.54967 7.99 8.02217 7.99C8.02517 7.99 8.02742 7.99 8.02967 7.99C8.03192 7.99 8.03492 7.99 8.03717 7.99C8.50967 7.99 8.98217 7.83325 9.37217 7.51825L14.9409 3.064C15.1832 2.8705 15.2522 2.52925 15.1067 2.2555Z" fill="#130F26"/>
</g>
</svg>
