<svg width="15" height="15" viewBox="0 0 15 15" fill="none" xmlns="http://www.w3.org/2000/svg">
<path opacity="0.4" d="M1.75293 9.67285C1.75293 9.67285 1.84168 10.7591 1.8623 11.1016C1.8898 11.561 2.0673 12.0741 2.36355 12.4304C2.78168 12.9354 3.27418 13.1135 3.93168 13.1147C4.7048 13.116 10.3267 13.116 11.0998 13.1147C11.7573 13.1135 12.2498 12.9354 12.6679 12.4304C12.9642 12.0741 13.1417 11.561 13.1698 11.1016C13.1898 10.7591 13.2786 9.67285 13.2786 9.67285" stroke="white" stroke-width="1.5" stroke-linecap="round" stroke-linejoin="round"/>
<path d="M5.31055 3.33062V3.09875C5.31055 2.33625 5.92805 1.71875 6.69055 1.71875H8.3043C9.06617 1.71875 9.6843 2.33625 9.6843 3.09875L9.68492 3.33062" stroke="white" stroke-width="1.5" stroke-linecap="round" stroke-linejoin="round"/>
<path d="M7.49707 10.424V9.61523" stroke="white" stroke-width="1.5" stroke-linecap="round" stroke-linejoin="round"/>
<path fill-rule="evenodd" clip-rule="evenodd" d="M1.71875 5.24328V7.41016C2.9175 8.20078 4.35375 8.75453 5.93 8.97391C6.11875 8.28578 6.73938 7.78141 7.49375 7.78141C8.23625 7.78141 8.86938 8.28578 9.04563 8.98016C10.6281 8.76078 12.07 8.20703 13.275 7.41016V5.24328C13.275 4.18453 12.4231 3.33203 11.3644 3.33203H3.63563C2.57688 3.33203 1.71875 4.18453 1.71875 5.24328Z" stroke="white" stroke-width="1.5" stroke-linecap="round" stroke-linejoin="round"/>
</svg>
