<svg width="50" height="51" viewBox="0 0 50 51" fill="none" xmlns="http://www.w3.org/2000/svg">
<g clip-path="url(#clip0_19920_28033)">
<g opacity="0.6" filter="url(#filter0_f_19920_28033)">
<path fill-rule="evenodd" clip-rule="evenodd" d="M37.795 22.2855L43.7422 25.8436L44.0191 26.0067C44.0242 26.0098 44.0287 26.0133 44.0326 26.0173L44.1043 26.0602L44.1057 26.0593L48.3924 28.4395C48.6432 28.6106 48.7668 28.7685 48.7827 28.9155V28.9803L48.783 28.9781V42.9214C48.7926 43.593 48.615 43.7585 48.3659 43.9437L36.9854 50.2026C36.9845 50.2035 36.9837 50.2043 36.9828 50.2052C36.982 50.2059 36.9813 50.2066 36.9805 50.2074C36.8045 50.3761 36.5131 50.3852 36.117 50.2074L25.8563 44.1091C25.3359 43.8398 25.1289 43.554 25.1369 42.4108V28.9156L25.1367 28.9155L25.1369 28.9154V28.9153L25.137 28.9153L25.233 28.8595L25.2331 28.8594L36.5332 22.2855C36.9991 22.0222 37.2758 21.9987 37.795 22.2855ZM29.757 31.7183L29.7561 31.7188V35.6169L31.1122 35.9182C31.109 35.9169 31.1057 35.9159 31.1023 35.9152L29.8078 35.6275C29.7781 35.6209 29.757 35.5946 29.757 35.5642V31.7183ZM33.168 33.5878L33.1679 33.5877L33.0131 33.6943V33.6944L33.168 33.5878ZM37.1771 35.9199L37.1772 49.6026C37.1771 49.6094 37.177 49.6162 37.1768 49.6229C37.1769 49.6203 37.1769 49.6176 37.177 49.6149C37.177 49.6115 37.1771 49.6081 37.1771 49.6047V35.9199ZM33.0123 37.7371L31.1239 35.9243C31.1272 35.9265 31.1303 35.929 31.1331 35.9317L32.9033 37.6311C32.9419 37.6681 33.0043 37.6449 33.0123 37.595V37.7371Z" fill="#4F4F4F"/>
</g>
<g opacity="0.6" filter="url(#filter1_f_19920_28033)">
<path fill-rule="evenodd" clip-rule="evenodd" d="M14.6583 22.2855L20.6055 25.8436L20.8824 26.0067C20.8875 26.0098 20.892 26.0133 20.8959 26.0173L20.9676 26.0602L20.9689 26.0593L25.2557 28.4395C25.5065 28.6106 25.6301 28.7685 25.646 28.9155V28.9803L25.6463 28.9781V42.9214C25.6558 43.593 25.4783 43.7585 25.2292 43.9437L13.8487 50.2026C13.8478 50.2035 13.8469 50.2043 13.8461 50.2052C13.8453 50.2059 13.8445 50.2066 13.8438 50.2074C13.6678 50.3761 13.3764 50.3852 12.9803 50.2074L2.71961 44.1091C2.1992 43.8398 1.99216 43.554 2.00023 42.4108V28.9156L2 28.9155L2.00023 28.9154V28.9153L2.00032 28.9153L2.09626 28.8595L2.0964 28.8594L13.3965 22.2855C13.8624 22.0222 14.1391 21.9987 14.6583 22.2855ZM6.62025 31.7183L6.61941 31.7188V35.6169L7.97548 35.9182C7.97227 35.9169 7.96895 35.9159 7.96555 35.9152L6.67106 35.6275C6.64137 35.6209 6.62025 35.5946 6.62025 35.5642V31.7183ZM10.0313 33.5878L10.0312 33.5877L9.8764 33.6943V33.6944L10.0313 33.5878ZM14.0404 35.9199L14.0404 49.6026C14.0404 49.6094 14.0403 49.6162 14.0401 49.6229C14.0402 49.6203 14.0402 49.6176 14.0403 49.6149C14.0403 49.6115 14.0404 49.6081 14.0404 49.6047V35.9199ZM9.87556 37.7371L7.98723 35.9243C7.99049 35.9265 7.99356 35.929 7.9964 35.9317L9.76658 37.6311C9.80514 37.6681 9.8676 37.6449 9.87556 37.595V37.7371Z" fill="#4F4F4F"/>
</g>
<path d="M29.9632 31.406L25.344 28.6025V42.0981C25.3359 43.2413 25.5429 43.527 26.0634 43.7963L36.324 49.8946C36.7202 50.0725 37.0116 50.0634 37.1875 49.8946C37.3143 49.7731 37.3812 49.5688 37.3841 49.2919V35.607L33.2193 33.3822V37.4244L31.3262 35.607L29.9632 35.3041V31.406Z" fill="url(#paint0_linear_19920_28033)"/>
<path d="M41.3582 24.0029C41.3369 23.9904 41.3104 23.991 41.2898 24.0045L29.9648 31.4051L33.221 33.3813L44.2308 25.8031C44.2699 25.7762 44.2678 25.7178 44.227 25.6937L41.3582 24.0029Z" fill="#AC9BDD"/>
<path d="M33.221 33.3813L29.9648 31.4051V35.2512C29.9648 35.2816 29.986 35.3079 30.0157 35.3145L31.3101 35.6022C31.3217 35.6047 31.3324 35.6105 31.341 35.6187L33.1112 37.3181C33.1524 37.3577 33.221 37.3284 33.221 37.2713V33.3813Z" fill="#AC9BDD"/>
<path fill-rule="evenodd" clip-rule="evenodd" d="M48.6787 42.6094C48.6883 43.2809 48.5107 43.4464 48.2617 43.6317L37.1875 49.8933C37.3143 49.7718 37.3811 49.5674 37.3841 49.2906V35.6057L48.3574 29.0547C48.5506 28.9337 48.6635 28.8048 48.6787 28.666V42.6094Z" fill="url(#paint1_linear_19920_28033)"/>
<path fill-rule="evenodd" clip-rule="evenodd" d="M38.0021 21.973L41.3216 23.9838L29.9629 31.4065L25.3438 28.603L36.7403 21.973C37.2061 21.7097 37.4828 21.6862 38.0021 21.973Z" fill="url(#paint2_linear_19920_28033)"/>
<path d="M44.3127 25.7468L33.2191 33.3827L37.3839 35.6075L48.3572 29.0565C48.5504 28.9355 48.6633 28.8066 48.6785 28.6678V28.603C48.6626 28.456 48.539 28.2981 48.2882 28.127L44.3127 25.7468Z" fill="url(#paint3_linear_19920_28033)"/>
<path d="M6.61941 31.406L2.00023 28.6025V42.0981C1.99216 43.2413 2.1992 43.527 2.71961 43.7963L12.9803 49.8946C13.3764 50.0725 13.6678 50.0634 13.8438 49.8946C13.9705 49.7731 14.0374 49.5688 14.0404 49.2919V35.607L9.87556 33.3822V37.4244L7.98245 35.607L6.61941 35.3041V31.406Z" fill="url(#paint4_linear_19920_28033)"/>
<path d="M18.0145 24.0029C17.9932 23.9904 17.9667 23.991 17.946 24.0045L6.62109 31.4051L9.87724 33.3813L20.887 25.8031C20.9261 25.7762 20.9241 25.7178 20.8832 25.6937L18.0145 24.0029Z" fill="#AC9BDD"/>
<path d="M9.87724 33.3813L6.62109 31.4051V35.2512C6.62109 35.2816 6.64221 35.3079 6.6719 35.3145L7.96639 35.6022C7.97799 35.6047 7.98867 35.6105 7.99724 35.6187L9.76743 37.3181C9.80867 37.3577 9.87724 37.3284 9.87724 37.2713V33.3813Z" fill="#AC9BDD"/>
<path fill-rule="evenodd" clip-rule="evenodd" d="M25.335 42.6094C25.3445 43.2809 25.167 43.4464 24.9179 43.6317L13.8438 49.8933C13.9705 49.7718 14.0374 49.5674 14.0404 49.2906V35.6057L25.0136 29.0547C25.2069 28.9337 25.3198 28.8048 25.335 28.666V42.6094Z" fill="url(#paint5_linear_19920_28033)"/>
<path fill-rule="evenodd" clip-rule="evenodd" d="M14.6583 21.973L17.9778 23.9838L6.61918 31.4065L2 28.603L13.3965 21.973C13.8624 21.7097 14.1391 21.6862 14.6583 21.973Z" fill="url(#paint6_linear_19920_28033)"/>
<path d="M20.9689 25.7468L9.87533 33.3827L14.0402 35.6075L25.0134 29.0565C25.2067 28.9355 25.3196 28.8066 25.3348 28.6678V28.603C25.3189 28.456 25.1952 28.2981 24.9445 28.127L20.9689 25.7468Z" fill="url(#paint7_linear_19920_28033)"/>
<g opacity="0.6" filter="url(#filter2_f_19920_28033)">
<path fill-rule="evenodd" clip-rule="evenodd" d="M26.6935 0.914364L32.3295 4.47247L32.6063 4.63564C32.6114 4.63867 32.6159 4.64223 32.6198 4.64621L32.6916 4.68911L32.6929 4.68821L36.9796 7.06838C37.2304 7.23946 37.3541 7.39741 37.3699 7.54441V7.60925L37.3702 7.60698V21.5503C37.3798 22.2219 37.2022 22.3874 36.9532 22.5726L25.8838 28.8315C25.883 28.8324 25.8821 28.8332 25.8812 28.8341C25.8805 28.8348 25.8797 28.8356 25.8789 28.8363C25.703 29.005 25.4116 29.0141 25.0154 28.8363L14.7548 22.738C14.2344 22.4687 14.0273 22.1829 14.0354 21.0397V7.54455L14.0352 7.54441L14.0354 7.54428V7.54417L14.0355 7.54422L14.1314 7.48841L14.1316 7.48833L25.4317 0.914364C25.8975 0.651137 26.1743 0.62756 26.6935 0.914364ZM18.6554 10.3472L18.6546 10.3477V14.2458L20.0106 14.5471C20.0074 14.5458 20.0041 14.5448 20.0007 14.5441L18.7062 14.2564C18.6765 14.2498 18.6554 14.2235 18.6554 14.1931V10.3472ZM22.0665 12.2167L22.0663 12.2166L21.9116 12.3232V12.3234L22.0665 12.2167ZM26.0756 14.5488L26.0756 28.2315C26.0755 28.2383 26.0754 28.2451 26.0753 28.2519C26.0753 28.2492 26.0754 28.2465 26.0754 28.2438C26.0755 28.2404 26.0755 28.237 26.0756 28.2336V14.5488ZM21.9107 16.3661L20.0224 14.5533C20.0256 14.5554 20.0287 14.5579 20.0316 14.5606L21.8017 16.26C21.8403 16.297 21.9028 16.2738 21.9107 16.2239V16.3661Z" fill="#4F4F4F"/>
</g>
<path d="M18.6507 9.9314L14.0315 7.12793V20.6235C14.0234 21.7666 14.2304 22.0524 14.7509 22.3217L25.0115 28.42C25.4077 28.5979 25.6991 28.5887 25.875 28.42C26.0018 28.2985 26.0687 28.0942 26.0716 27.8173V14.1324L21.9068 11.9076V15.9498L20.0137 14.1324L18.6507 13.8295V9.9314Z" fill="url(#paint8_linear_19920_28033)"/>
<path d="M30.0457 2.73628C30.0244 2.72375 29.9979 2.72436 29.9773 2.73786L18.6523 10.1385L21.9085 12.1147L32.9183 4.53648C32.9574 4.50959 32.9553 4.45123 32.9145 4.42714L30.0457 2.73628Z" fill="#AC9BDD"/>
<path d="M21.9085 12.1147L18.6523 10.1385V13.9846C18.6523 14.015 18.6735 14.0413 18.7032 14.0479L19.9976 14.3356C20.0092 14.3381 20.0199 14.3439 20.0285 14.3521L21.7987 16.0515C21.8399 16.0911 21.9085 16.0618 21.9085 16.0047V12.1147Z" fill="#AC9BDD"/>
<path fill-rule="evenodd" clip-rule="evenodd" d="M37.3662 21.3428C37.3758 22.0143 37.1982 22.1798 36.9492 22.3651L25.875 28.6267C26.0018 28.5052 26.0686 28.3008 26.0716 28.024V14.3391L37.0449 7.78812C37.2381 7.66711 37.351 7.5382 37.3662 7.39941V21.3428Z" fill="url(#paint9_linear_19920_28033)"/>
<path fill-rule="evenodd" clip-rule="evenodd" d="M26.6896 0.706356L30.0091 2.71722L18.6504 10.1399L14.0312 7.3364L25.4278 0.706356C25.8936 0.443129 26.1703 0.419552 26.6896 0.706356Z" fill="url(#paint10_linear_19920_28033)"/>
<path d="M33.0002 4.4802L21.9066 12.1161L26.0714 14.3409L37.0447 7.78995C37.2379 7.66893 37.3508 7.54003 37.366 7.40124V7.3364C37.3501 7.1894 37.2265 7.03146 36.9757 6.86037L33.0002 4.4802Z" fill="url(#paint11_linear_19920_28033)"/>
</g>
<defs>
<filter id="filter0_f_19920_28033" x="24.7217" y="21.6641" width="24.4784" height="29.0878" filterUnits="userSpaceOnUse" color-interpolation-filters="sRGB">
<feFlood flood-opacity="0" result="BackgroundImageFix"/>
<feBlend mode="normal" in="SourceGraphic" in2="BackgroundImageFix" result="shape"/>
<feGaussianBlur stdDeviation="0.207488" result="effect1_foregroundBlur_19920_28033"/>
</filter>
<filter id="filter1_f_19920_28033" x="1.58502" y="21.6641" width="24.4784" height="29.0878" filterUnits="userSpaceOnUse" color-interpolation-filters="sRGB">
<feFlood flood-opacity="0" result="BackgroundImageFix"/>
<feBlend mode="normal" in="SourceGraphic" in2="BackgroundImageFix" result="shape"/>
<feGaussianBlur stdDeviation="0.207488" result="effect1_foregroundBlur_19920_28033"/>
</filter>
<filter id="filter2_f_19920_28033" x="13.6202" y="0.293032" width="24.1659" height="29.0878" filterUnits="userSpaceOnUse" color-interpolation-filters="sRGB">
<feFlood flood-opacity="0" result="BackgroundImageFix"/>
<feBlend mode="normal" in="SourceGraphic" in2="BackgroundImageFix" result="shape"/>
<feGaussianBlur stdDeviation="0.207488" result="effect1_foregroundBlur_19920_28033"/>
</filter>
<linearGradient id="paint0_linear_19920_28033" x1="30.3235" y1="28.6135" x2="31.3639" y2="50.0246" gradientUnits="userSpaceOnUse">
<stop stop-color="#F1C07C"/>
<stop offset="1" stop-color="#CA9448"/>
</linearGradient>
<linearGradient id="paint1_linear_19920_28033" x1="42.9333" y1="28.666" x2="42.9333" y2="49.8933" gradientUnits="userSpaceOnUse">
<stop stop-color="#D29860"/>
<stop offset="1" stop-color="#AB733D"/>
</linearGradient>
<linearGradient id="paint2_linear_19920_28033" x1="38.6748" y1="23.6859" x2="31.2572" y2="32.8153" gradientUnits="userSpaceOnUse">
<stop stop-color="#F3C585"/>
<stop offset="1" stop-color="#FFD59B"/>
</linearGradient>
<linearGradient id="paint3_linear_19920_28033" x1="38.6748" y1="23.6859" x2="31.2572" y2="32.8153" gradientUnits="userSpaceOnUse">
<stop stop-color="#F3C585"/>
<stop offset="1" stop-color="#FFD59B"/>
</linearGradient>
<linearGradient id="paint4_linear_19920_28033" x1="6.97971" y1="28.6135" x2="8.0202" y2="50.0246" gradientUnits="userSpaceOnUse">
<stop stop-color="#F1C07C"/>
<stop offset="1" stop-color="#CA9448"/>
</linearGradient>
<linearGradient id="paint5_linear_19920_28033" x1="19.5895" y1="28.666" x2="19.5895" y2="49.8933" gradientUnits="userSpaceOnUse">
<stop stop-color="#D29860"/>
<stop offset="1" stop-color="#AB733D"/>
</linearGradient>
<linearGradient id="paint6_linear_19920_28033" x1="15.3311" y1="23.6859" x2="7.9134" y2="32.8153" gradientUnits="userSpaceOnUse">
<stop stop-color="#F3C585"/>
<stop offset="1" stop-color="#FFD59B"/>
</linearGradient>
<linearGradient id="paint7_linear_19920_28033" x1="15.3311" y1="23.6859" x2="7.9134" y2="32.8153" gradientUnits="userSpaceOnUse">
<stop stop-color="#F3C585"/>
<stop offset="1" stop-color="#FFD59B"/>
</linearGradient>
<linearGradient id="paint8_linear_19920_28033" x1="19.011" y1="7.13887" x2="20.0514" y2="28.55" gradientUnits="userSpaceOnUse">
<stop stop-color="#F1C07C"/>
<stop offset="1" stop-color="#CA9448"/>
</linearGradient>
<linearGradient id="paint9_linear_19920_28033" x1="31.6208" y1="7.39941" x2="31.6208" y2="28.6267" gradientUnits="userSpaceOnUse">
<stop stop-color="#D29860"/>
<stop offset="1" stop-color="#AB733D"/>
</linearGradient>
<linearGradient id="paint10_linear_19920_28033" x1="27.3623" y1="2.41926" x2="19.9447" y2="11.5487" gradientUnits="userSpaceOnUse">
<stop stop-color="#F3C585"/>
<stop offset="1" stop-color="#FFD59B"/>
</linearGradient>
<linearGradient id="paint11_linear_19920_28033" x1="27.3623" y1="2.41926" x2="19.9447" y2="11.5487" gradientUnits="userSpaceOnUse">
<stop stop-color="#F3C585"/>
<stop offset="1" stop-color="#FFD59B"/>
</linearGradient>
<clipPath id="clip0_19920_28033">
<rect width="50" height="50" fill="white" transform="translate(0 0.5)"/>
</clipPath>
</defs>
</svg>
