<svg width="15" height="17" viewBox="0 0 15 17" fill="none" xmlns="http://www.w3.org/2000/svg">
<path d="M0 8.18217C0 7.0525 0.915781 6.13672 2.04545 6.13672H12.9545C14.0842 6.13672 15 7.0525 15 8.18217V10.9094C15 12.0391 14.0842 12.9549 12.9545 12.9549H2.04545C0.915781 12.9549 0 12.0391 0 10.9094V8.18217Z" fill="#7E54F1"/>
<path d="M1.36426 4.62395C1.36426 4.33005 1.60983 4.0918 1.91276 4.0918H13.0885C13.3914 4.0918 13.637 4.33005 13.637 4.62395V6.28692C13.637 6.58082 13.3914 6.81907 13.0885 6.81907H1.91276C1.60983 6.81907 1.36426 6.58082 1.36426 6.28692V4.62395Z" fill="#7E54F1"/>
<path d="M2.0459 0.407393C2.0459 0.182396 2.23987 0 2.47915 0H12.5883C12.8275 0 13.0215 0.182396 13.0215 0.407393V15.9562C13.0215 16.1812 12.8275 16.3636 12.5883 16.3636H2.47915C2.23987 16.3636 2.0459 16.1812 2.0459 15.9562V0.407393Z" fill="#7E54F1" fill-opacity="0.2"/>
<path d="M0.682617 7.1331C0.682617 6.83091 0.908957 6.58594 1.18816 6.58594H13.1316C13.4108 6.58594 13.6372 6.83091 13.6372 7.1331V10.5529C13.6372 10.8551 13.4108 11.1 13.1316 11.1H1.18816C0.908957 11.1 0.682617 10.8551 0.682617 10.5529V7.1331Z" fill="#7E54F1"/>
<path d="M6.13672 9.20614C6.13672 9.01786 6.2368 8.86523 6.36027 8.86523H11.3677C11.4912 8.86523 11.5913 9.01786 11.5913 9.20614C11.5913 9.39442 11.4912 9.54705 11.3677 9.54705H6.36027C6.2368 9.54705 6.13672 9.39442 6.13672 9.20614Z" fill="white"/>
<path d="M3.11133 12.6066C3.11133 12.3989 3.27244 12.2305 3.47118 12.2305H11.532C11.7307 12.2305 11.8918 12.3989 11.8918 12.6066C11.8918 12.8144 11.7307 12.9828 11.532 12.9828H3.47118C3.27244 12.9828 3.11133 12.8144 3.11133 12.6066Z" fill="#7E54F1"/>
<path d="M3.11133 14.204C3.11133 14.0482 3.27244 13.9219 3.47118 13.9219H11.532C11.7307 13.9219 11.8918 14.0482 11.8918 14.204C11.8918 14.3598 11.7307 14.4861 11.532 14.4861H3.47118C3.27244 14.4861 3.11133 14.3598 3.11133 14.204Z" fill="#7E54F1"/>
<path d="M4.77282 8.86346C4.77282 9.24002 4.46756 9.54528 4.091 9.54528C3.71444 9.54528 3.40918 9.24002 3.40918 8.86346C3.40918 8.4869 3.71444 8.18164 4.091 8.18164C4.46756 8.18164 4.77282 8.4869 4.77282 8.86346Z" fill="white"/>
</svg>
