<svg width="10" height="10" viewBox="0 0 10 10" fill="none" xmlns="http://www.w3.org/2000/svg">
<path d="M9.71371 0.289149C9.46371 0.0336493 9.09371 -0.0608507 8.74871 0.0391493L0.70371 2.36365C0.33971 2.46465 0.0817101 2.75315 0.0122101 3.11915C-0.0587899 3.49215 0.18921 3.96615 0.51321 4.16415L3.02871 5.70015C3.28671 5.85815 3.61971 5.81865 3.83321 5.60465L6.71371 2.72415C6.85871 2.57365 7.09871 2.57365 7.24371 2.72415C7.38871 2.86865 7.38871 3.10415 7.24371 3.25415L4.35821 6.13465C4.14421 6.34865 4.10421 6.68065 4.26171 6.93915L5.79871 9.46415C5.97871 9.76365 6.28871 9.93415 6.62871 9.93415C6.66871 9.93415 6.71371 9.93415 6.75371 9.92865C7.14371 9.87915 7.45371 9.61365 7.56871 9.23865L9.95371 1.25415C10.0587 0.914149 9.96371 0.544149 9.71371 0.289149Z" fill="white"/>
<path opacity="0.4" fill-rule="evenodd" clip-rule="evenodd" d="M0.505734 7.4039C0.409734 7.4039 0.313734 7.3674 0.240734 7.2939C0.0942344 7.1474 0.0942344 6.9104 0.240734 6.7639L0.923235 6.08091C1.06973 5.93491 1.30723 5.93491 1.45373 6.08091C1.59973 6.22741 1.59973 6.4649 1.45373 6.6114L0.770734 7.2939C0.697734 7.3674 0.601734 7.4039 0.505734 7.4039ZM2.38633 8.0001C2.29033 8.0001 2.19433 7.9636 2.12133 7.8901C1.97483 7.7436 1.97483 7.50661 2.12133 7.36011L2.80383 6.67711C2.95033 6.53111 3.18783 6.53111 3.33433 6.67711C3.48033 6.82361 3.48033 7.06111 3.33433 7.20761L2.65133 7.8901C2.57833 7.9636 2.48233 8.0001 2.38633 8.0001ZM2.51318 9.78411C2.58618 9.8576 2.68218 9.8941 2.77818 9.8941C2.87418 9.8941 2.97018 9.8576 3.04318 9.78411L3.72618 9.1016C3.87218 8.95511 3.87218 8.71761 3.72618 8.57111C3.57968 8.42511 3.34218 8.42511 3.19568 8.57111L2.51318 9.25411C2.36668 9.4006 2.36668 9.6376 2.51318 9.78411Z" fill="white"/>
</svg>
