<svg width="16" height="16" viewBox="0 0 16 16" fill="none" xmlns="http://www.w3.org/2000/svg">
<path opacity="0.4" d="M8.05782 14.6666C7.97527 14.6666 7.89272 14.6476 7.81822 14.6091L5.41749 13.3663C4.73627 13.0133 4.20337 12.6172 3.78725 12.1556C2.87649 11.1463 2.36976 9.85059 2.36171 8.50652L2.33352 4.08276C2.33017 3.5722 2.6597 3.11394 3.15233 2.94135L7.5605 1.40444C7.82225 1.31096 8.1142 1.30965 8.38065 1.39987L12.8056 2.88448C13.3009 3.04987 13.6358 3.50487 13.6385 4.01477L13.6667 8.44181C13.6754 9.78391 13.1861 11.0848 12.2895 12.1053C11.8781 12.5734 11.3499 12.9754 10.6753 13.3349L8.29609 14.6058C8.22226 14.6457 8.14038 14.6659 8.05782 14.6666Z" fill="#714CD9"/>
<path d="M7.5464 9.54728C7.41754 9.54793 7.28868 9.50152 7.18935 9.40607L5.91146 8.17707C5.71414 7.98618 5.71213 7.67631 5.90744 7.48412C6.10274 7.29127 6.42154 7.28931 6.61954 7.47954L7.53902 8.36338L9.78404 6.14986C9.98002 5.95701 10.2988 5.95505 10.4961 6.14528C10.6941 6.33617 10.6961 6.64669 10.5008 6.83823L7.90145 9.40149C7.80346 9.49825 7.67527 9.54662 7.5464 9.54728Z" fill="#714CD9"/>
</svg>
