<svg width="12" height="12" viewBox="0 0 12 12" fill="none" xmlns="http://www.w3.org/2000/svg">
<path opacity="0.4" fill-rule="evenodd" clip-rule="evenodd" d="M8.86829 3.02303C9.72195 3.68194 10.4488 4.64727 10.9707 5.85455C11.0098 5.94618 11.0098 6.05333 10.9707 6.14061C9.92683 8.55515 8.06829 10 6 10H5.99512C3.93171 10 2.07317 8.55515 1.02927 6.14061C0.990244 6.05333 0.990244 5.94618 1.02927 5.85455C2.07317 3.43952 3.93171 2 5.99512 2H6C7.03415 2 8.01463 2.35879 8.86829 3.02303ZM4.04878 6C4.04878 7.06667 4.92195 7.93455 6 7.93455C7.07317 7.93455 7.94634 7.06667 7.94634 6C7.94634 4.92848 7.07317 4.06061 6 4.06061C4.92195 4.06061 4.04878 4.92848 4.04878 6Z" fill="#7E54F1"/>
<path d="M7.2154 5.99845C7.2154 6.66269 6.66906 7.20573 6.00076 7.20573C5.32759 7.20573 4.78125 6.66269 4.78125 5.99845C4.78125 5.91603 4.79101 5.83894 4.80564 5.76136H4.83003C5.37149 5.76136 5.81052 5.33469 5.83003 4.80088C5.88369 4.79166 5.94223 4.78633 6.00076 4.78633C6.66906 4.78633 7.2154 5.32936 7.2154 5.99845Z" fill="#7E54F1"/>
</svg>
