<svg width="15" height="15" viewBox="0 0 15 15" fill="none" xmlns="http://www.w3.org/2000/svg">
<path opacity="0.4" d="M4.18993 8.05664C3.86736 8.05664 3.60623 8.32165 3.60623 8.64902L3.44531 11.5107C3.44531 11.9279 3.77886 12.2657 4.18993 12.2657C4.60101 12.2657 4.93382 11.9279 4.93382 11.5107L4.77363 8.64902C4.77363 8.32165 4.5125 8.05664 4.18993 8.05664Z" fill="#7E54F1"/>
<path d="M4.98773 2.2959C4.98773 2.2959 4.82023 2.12368 4.71636 2.04871C4.56568 1.9329 4.37989 1.875 4.19483 1.875C3.9871 1.875 3.794 1.94033 3.63673 2.06355C3.60821 2.0925 3.48679 2.20163 3.38658 2.30333C2.75753 2.89794 1.72837 4.45016 1.41385 5.26302C1.36411 5.38625 1.25658 5.69803 1.25 5.86506C1.25 6.02392 1.28511 6.17684 1.35679 6.32159C1.457 6.50272 1.61426 6.64822 1.80005 6.72765C1.92879 6.77887 2.31427 6.8583 2.32158 6.8583C2.74363 6.93847 3.42973 6.98153 4.18752 6.98153C4.90946 6.98153 5.56704 6.93847 5.99567 6.87315C6.00299 6.86572 6.48136 6.78629 6.64594 6.6987C6.94583 6.5391 7.13235 6.22732 7.13235 5.89401V5.86506C7.12504 5.64755 6.93852 5.19027 6.93193 5.19027C6.61741 4.42121 5.63799 2.90536 4.98773 2.2959Z" fill="#7E54F1"/>
<path opacity="0.4" d="M10.811 6.94351C11.1336 6.94351 11.3947 6.67849 11.3947 6.35111L11.5549 3.48935C11.5549 3.07215 11.2221 2.73438 10.811 2.73438C10.3999 2.73438 10.0664 3.07215 10.0664 3.48935L10.2273 6.35111C10.2273 6.67849 10.4885 6.94351 10.811 6.94351Z" fill="#7E54F1"/>
<path d="M13.6427 8.67753C13.5425 8.4964 13.3853 8.35164 13.1995 8.27146C13.0708 8.22024 12.6845 8.14081 12.678 8.14081C12.2559 8.06063 11.5698 8.01758 10.812 8.01758C10.0901 8.01758 9.4325 8.06063 9.00387 8.12596C8.99655 8.13339 8.51818 8.21356 8.3536 8.30041C8.05298 8.46002 7.86719 8.77181 7.86719 9.10587V9.13482C7.8745 9.35233 8.06029 9.80887 8.06761 9.80887C8.38213 10.5779 9.36082 12.0946 10.0118 12.7033C10.0118 12.7033 10.1793 12.8755 10.2832 12.9498C10.4331 13.0663 10.6189 13.1242 10.8054 13.1242C11.0124 13.1242 11.2048 13.0589 11.3628 12.9357C11.3913 12.9067 11.5128 12.7976 11.613 12.6966C12.2413 12.1013 13.2712 10.549 13.585 9.73687C13.6354 9.61363 13.743 9.3011 13.7495 9.13482C13.7495 8.97521 13.7144 8.82229 13.6427 8.67753Z" fill="#7E54F1"/>
</svg>
