<svg width="24" height="24" viewBox="0 0 24 24" fill="none" xmlns="http://www.w3.org/2000/svg">
<path d="M4.29688 4.30223C4.29688 3.03075 5.32762 2 6.59911 2H16.8251C18.0966 2 19.1273 3.03075 19.1273 4.30223H4.29688Z" fill="#2E90FA"/>
<path d="M19.1273 4.30223H4.29688V5.51353H19.1273V4.30223Z" fill="#2E90FA"/>
<path d="M13.6846 10.9523C13.9245 11.7713 14.659 12.3675 15.5278 12.3675C16.5337 12.3675 17.3596 11.5683 17.4462 10.5491V9.29735L16.1775 6.07422L13.2344 6.07422L13.6846 9.29735V10.9523Z" fill="#B2DDFF"/>
<path d="M9.80469 10.5491C9.89411 11.5683 10.7466 12.3675 11.785 12.3675C12.6818 12.3675 13.44 11.7713 13.6876 10.9523V9.29735L13.2374 6.07422H10.2561L9.80469 9.29735V10.5491Z" fill="#2E90FA"/>
<path d="M5.96875 10.5493C6.05547 11.5684 6.88126 12.3675 7.88717 12.3675C8.89313 12.3675 9.71896 11.5683 9.8056 10.5491V9.29735L10.257 6.07422H7.19914L5.96875 9.29735V10.5493Z" fill="#B2DDFF"/>
<path d="M4.29382 6.07422L2.00045 9.29735V10.3289C2.00015 10.3432 2 10.3574 2 10.3717C2 10.386 2.00015 10.4003 2.00045 10.4145V10.5252H2.0058C2.08386 11.5557 2.94154 12.3675 3.98806 12.3675C5.02643 12.3675 5.87884 11.5684 5.96836 10.5493V9.29735L7.19875 6.07422H4.29382Z" fill="#2E90FA"/>
<path d="M17.4483 10.5491C17.5378 11.5683 18.3902 12.3675 19.4287 12.3675C20.4752 12.3675 21.3329 11.5557 21.4109 10.5252H21.4162V10.4171C21.4166 10.402 21.4167 10.3869 21.4167 10.3717C21.4167 10.3624 21.4167 10.3531 21.4165 10.3439L21.4162 10.3263V9.29735L19.1228 6.07422L16.1797 6.07422L17.4483 9.29735V10.5491Z" fill="#2E90FA"/>
<path fill-rule="evenodd" clip-rule="evenodd" d="M17.9391 12.3152C17.6676 12.1047 17.2426 12.1082 16.9734 12.3218C16.5745 12.6382 16.0756 12.8262 15.5344 12.8262C15.0126 12.8262 14.5302 12.6515 14.1387 12.3554C13.8818 12.1611 13.4966 12.1578 13.2376 12.3492C12.832 12.6491 12.3309 12.8262 11.7886 12.8262C11.226 12.8262 10.7078 12.6356 10.2946 12.3152C10.023 12.1047 9.59807 12.1082 9.32887 12.3218C8.9299 12.6382 8.43105 12.8262 7.88982 12.8262C7.34859 12.8262 6.84975 12.6382 6.45078 12.3218C6.18158 12.1083 5.7566 12.1047 5.48506 12.3152C5.26031 12.4895 5.00452 12.6253 4.72744 12.713C4.48705 12.7891 4.29688 12.9964 4.29688 13.2485L4.29688 20C4.29688 20.2761 4.52073 20.5 4.79688 20.5H5.93736C6.2135 20.5 6.43736 20.2761 6.43736 20V14.5142C6.43736 14.2599 6.64271 14.0537 6.89603 14.0537H9.80096C10.0543 14.0537 10.2596 14.2599 10.2596 14.5142V20C10.2596 20.2761 10.4835 20.5 10.7596 20.5H18.6273C18.9035 20.5 19.1273 20.2761 19.1273 20L19.1273 13.2485C19.1273 12.9964 18.9372 12.7891 18.6968 12.713C18.4197 12.6253 18.1639 12.4895 17.9391 12.3152ZM11.6357 14.0537C11.4668 14.0537 11.3299 14.1912 11.3299 14.3607V18.0443C11.3299 18.2138 11.4668 18.3512 11.6357 18.3512H17.9042C18.0731 18.3512 18.21 18.2138 18.21 18.0443V14.3607C18.21 14.1912 18.0731 14.0537 17.9042 14.0537H11.6357Z" fill="#2E90FA"/>
<rect x="6.89062" y="16.7617" width="0.458674" height="1.53482" rx="0.229337" fill="#2E90FA"/>
</svg>
