<svg width="25" height="24" viewBox="0 0 25 24" fill="none" xmlns="http://www.w3.org/2000/svg">
<path opacity="0.4" d="M16.7506 1.99979H7.86304C4.38799 1.99979 2.05078 4.37979 2.05078 7.91979V16.0898C2.05078 19.6198 4.38799 21.9998 7.86304 21.9998H16.7506C20.2256 21.9998 22.5526 19.6198 22.5526 16.0898V7.91979C22.5526 4.37979 20.2256 1.99979 16.7506 1.99979Z" fill="#12B76A"/>
<path d="M11.0859 15.2479C10.8562 15.2479 10.6266 15.1629 10.4513 14.9919L8.01879 12.6189C7.66821 12.2769 7.66821 11.7229 8.01879 11.3819C8.36938 11.0399 8.93625 11.0389 9.28683 11.3809L11.0859 13.1359L15.3174 9.00787C15.668 8.66587 16.2349 8.66587 16.5855 9.00787C16.936 9.34987 16.936 9.90387 16.5855 10.2459L11.7204 14.9919C11.5451 15.1629 11.3155 15.2479 11.0859 15.2479Z" fill="#12B76A"/>
</svg>
