<svg width="28" height="28" viewBox="0 0 28 28" fill="none" xmlns="http://www.w3.org/2000/svg">
<rect width="28" height="28" rx="14" fill="#7E54F1"/>
<path fill-rule="evenodd" clip-rule="evenodd" d="M17.14 12.7149C17.14 13.0478 17.4067 13.3142 17.74 13.3142C18.0733 13.3142 18.3467 13.0478 18.3467 12.7149C18.3467 12.3819 18.0733 12.1089 17.74 12.1089C17.4067 12.1089 17.14 12.3819 17.14 12.7149ZM15.8467 16.7371C15.3733 17.2099 14.72 17.5029 14 17.5029C13.3 17.5029 12.6467 17.2299 12.1467 16.7371C11.6533 16.2376 11.38 15.585 11.38 14.8858C11.3733 14.1932 11.6467 13.5406 12.14 13.0412C12.64 12.5417 13.3 12.2687 14 12.2687C14.7 12.2687 15.36 12.5417 15.8533 13.0345C16.3467 13.534 16.62 14.1932 16.62 14.8858C16.6133 15.6117 16.32 16.2643 15.8467 16.7371ZM14 13.2676C13.5667 13.2676 13.16 13.4341 12.8467 13.7471C12.54 14.0534 12.3733 14.4596 12.38 14.8791V14.8858C12.38 15.3187 12.5467 15.7249 12.8533 16.0312C13.16 16.3375 13.5667 16.504 14 16.504C14.8933 16.504 15.6133 15.7781 15.62 14.8858C15.62 14.4529 15.4533 14.0467 15.1467 13.7404C14.84 13.4341 14.4333 13.2676 14 13.2676Z" fill="white"/>
<path opacity="0.4" d="M17.6263 10.1576L17.5597 10.0111C17.3797 9.63152 17.173 9.19201 17.0463 8.93896C16.7397 8.33962 16.213 8.00666 15.5663 8H12.4263C11.7797 8.00666 11.2597 8.33962 10.953 8.93896C10.8197 9.20533 10.593 9.68479 10.4063 10.0777L10.3663 10.1576C10.3463 10.2109 10.293 10.2375 10.2397 10.2375C8.63301 10.2375 7.33301 11.5427 7.33301 13.141V17.0966C7.33301 18.6948 8.63301 20 10.2397 20H17.7597C19.3597 20 20.6663 18.6948 20.6663 17.0966V13.141C20.6663 11.5427 19.3597 10.2375 17.7597 10.2375C17.6997 10.2375 17.653 10.2042 17.6263 10.1576Z" fill="white"/>
</svg>
