<svg width="32" height="32" viewBox="0 0 32 32" fill="none" xmlns="http://www.w3.org/2000/svg">
<g opacity="0.5">
<path d="M16.0391 31.0004C7.73285 31.0004 0.999337 24.2846 0.999338 16.0002C0.999338 7.71582 7.73285 1 16.0391 1" stroke="#7E54F1" stroke-width="0.5" stroke-dasharray="3 3"/>
<path d="M15.957 31.0004C24.2632 31.0004 30.9968 24.2846 30.9968 16.0002C30.9968 7.71582 24.2632 1 15.957 1" stroke="#7E54F1" stroke-width="0.5" stroke-dasharray="3 3"/>
</g>
<path opacity="0.4" d="M21.3316 13.6515C21.0697 13.4865 20.7478 13.4719 20.4735 13.6115L19.5472 14.0791C19.2047 14.2517 18.9922 14.6007 18.9922 14.989V18.635C18.9922 19.0233 19.2047 19.3717 19.5472 19.5455L20.4728 20.0125C20.5985 20.0772 20.7328 20.1083 20.8672 20.1083C21.0285 20.1083 21.1885 20.0626 21.3316 19.9732C21.5935 19.8088 21.7497 19.5239 21.7497 19.2118V14.4135C21.7497 14.1013 21.5935 13.8164 21.3316 13.6515Z" fill="#6D6D6D"/>
<path d="M15.4407 21.5H11.8207C10.3069 21.5 9.25 20.4562 9.25 18.9619V14.6631C9.25 13.1681 10.3069 12.125 11.8207 12.125H15.4407C16.9545 12.125 18.0113 13.1681 18.0113 14.6631V18.9619C18.0113 20.4562 16.9545 21.5 15.4407 21.5Z" fill="#6D6D6D"/>
</svg>
