<svg width="32" height="32" viewBox="0 0 32 32" fill="none" xmlns="http://www.w3.org/2000/svg">
<g opacity="0.5">
<path d="M16.0391 31.0004C7.73285 31.0004 0.999337 24.2846 0.999338 16.0002C0.999338 7.71582 7.73285 1 16.0391 1" stroke="#7E54F1" stroke-width="0.5" stroke-dasharray="3 3"/>
<path d="M15.957 31.0004C24.2632 31.0004 30.9968 24.2846 30.9968 16.0002C30.9968 7.71582 24.2632 1 15.957 1" stroke="#7E54F1" stroke-width="0.5" stroke-dasharray="3 3"/>
</g>
<path fill-rule="evenodd" clip-rule="evenodd" d="M18.4431 15.2952C18.4431 15.6073 18.6931 15.857 19.0056 15.857C19.3181 15.857 19.5743 15.6073 19.5743 15.2952C19.5743 14.983 19.3181 14.7271 19.0056 14.7271C18.6931 14.7271 18.4431 14.983 18.4431 15.2952ZM17.2306 19.066C16.7868 19.5092 16.1743 19.7839 15.4993 19.7839C14.8431 19.7839 14.2306 19.528 13.7618 19.066C13.2993 18.5978 13.0431 17.9859 13.0431 17.3304C13.0368 16.6811 13.2931 16.0693 13.7556 15.6011C14.2243 15.1329 14.8431 14.8769 15.4993 14.8769C16.1556 14.8769 16.7743 15.1329 17.2368 15.5948C17.6993 16.0631 17.9556 16.6811 17.9556 17.3304C17.9493 18.0109 17.6743 18.6227 17.2306 19.066ZM15.4993 15.8133C15.0931 15.8133 14.7118 15.9694 14.4181 16.2628C14.1306 16.55 13.9743 16.9309 13.9806 17.3242V17.3304C13.9806 17.7362 14.1368 18.117 14.4243 18.4042C14.7118 18.6914 15.0931 18.8475 15.4993 18.8475C16.3368 18.8475 17.0118 18.167 17.0181 17.3304C17.0181 16.9246 16.8618 16.5438 16.5743 16.2566C16.2868 15.9694 15.9056 15.8133 15.4993 15.8133Z" fill="#130F26"/>
<path opacity="0.4" d="M18.9 12.8978L18.8375 12.7604C18.6687 12.4046 18.475 11.9925 18.3562 11.7553C18.0687 11.1934 17.575 10.8812 16.9688 10.875H14.025C13.4187 10.8812 12.9312 11.1934 12.6437 11.7553C12.5187 12.005 12.3063 12.4545 12.1313 12.8228L12.0938 12.8978C12.075 12.9477 12.025 12.9727 11.975 12.9727C10.4688 12.9727 9.25 14.1963 9.25 15.6946V19.403C9.25 20.9014 10.4688 22.125 11.975 22.125H19.025C20.525 22.125 21.75 20.9014 21.75 19.403V15.6946C21.75 14.1963 20.525 12.9727 19.025 12.9727C18.9688 12.9727 18.925 12.9415 18.9 12.8978Z" fill="#130F26"/>
</svg>
