<svg width="320" height="120" viewBox="0 0 320 120" fill="none" xmlns="http://www.w3.org/2000/svg">
<rect width="320" height="120" fill="url(#paint0_radial_29917_26084)"/>
<g opacity="0.4" filter="url(#filter0_f_29917_26084)">
<ellipse cx="155.5" cy="109" rx="57.5" ry="8" fill="#333333"/>
</g>
<g opacity="0.8" filter="url(#filter1_f_29917_26084)">
<circle cx="177.593" cy="29.7435" r="1.51521" transform="rotate(-90 177.593 29.7435)" fill="white"/>
</g>
<path d="M176.444 29.7662C176.38 29.7425 176.38 29.652 176.444 29.6283L177.234 29.3354C177.255 29.328 177.27 29.3121 177.278 29.292L177.57 28.5008C177.594 28.4367 177.685 28.4367 177.708 28.5008L178.001 29.292C178.008 29.3121 178.024 29.328 178.044 29.3354L178.835 29.6283C178.899 29.652 178.899 29.7425 178.835 29.7662L178.044 30.059C178.024 30.0665 178.008 30.0824 178.001 30.1025L177.708 30.8937C177.685 30.9577 177.594 30.9577 177.57 30.8937L177.278 30.1025C177.27 30.0824 177.255 30.0665 177.234 30.059L176.444 29.7662Z" fill="#FFEF5C"/>
<g opacity="0.8" filter="url(#filter2_f_29917_26084)">
<circle cx="150.138" cy="89.1039" r="1.51521" transform="rotate(-90 150.138 89.1039)" fill="white"/>
</g>
<path d="M148.989 89.1268C148.925 89.1031 148.925 89.0126 148.989 88.9889L149.779 88.696C149.799 88.6886 149.815 88.6727 149.823 88.6525L150.115 87.8614C150.139 87.7973 150.229 87.7973 150.253 87.8614L150.546 88.6525C150.553 88.6727 150.569 88.6886 150.589 88.696L151.379 88.9889C151.443 89.0126 151.443 89.1031 151.379 89.1268L150.589 89.4196C150.569 89.4271 150.553 89.443 150.546 89.4631L150.253 90.2542C150.229 90.3183 150.139 90.3183 150.115 90.2542L149.823 89.4631C149.815 89.443 149.799 89.4271 149.779 89.4196L148.989 89.1268Z" fill="#FFEF5C"/>
<g opacity="0.8" filter="url(#filter3_f_29917_26084)">
<circle cx="122.334" cy="66.9997" r="1.51521" transform="rotate(-90 122.334 66.9997)" fill="white"/>
</g>
<path d="M121.184 67.0227C121.12 66.999 121.12 66.9084 121.184 66.8847L121.975 66.5919C121.995 66.5844 122.011 66.5686 122.018 66.5484L122.311 65.7573C122.334 65.6932 122.425 65.6932 122.448 65.7573L122.741 66.5484C122.748 66.5686 122.764 66.5844 122.784 66.5919L123.575 66.8847C123.639 66.9084 123.639 66.999 123.575 67.0227L122.784 67.3155C122.764 67.323 122.748 67.3389 122.741 67.359L122.448 68.1501C122.425 68.2142 122.334 68.2142 122.311 68.1501L122.018 67.359C122.011 67.3389 121.995 67.323 121.975 67.3155L121.184 67.0227Z" fill="#FFEF5C"/>
<g opacity="0.8" filter="url(#filter4_f_29917_26084)">
<circle cx="144.515" cy="18.5152" r="1.51521" transform="rotate(-90 144.515 18.5152)" fill="white"/>
</g>
<path d="M143.366 18.5379C143.302 18.5142 143.302 18.4237 143.366 18.4L144.156 18.1072C144.176 18.0997 144.192 18.0838 144.2 18.0637L144.492 17.2726C144.516 17.2085 144.606 17.2085 144.63 17.2726L144.923 18.0637C144.93 18.0838 144.946 18.0997 144.966 18.1072L145.756 18.4C145.82 18.4237 145.82 18.5142 145.756 18.5379L144.966 18.8308C144.946 18.8382 144.93 18.8541 144.923 18.8742L144.63 19.6654C144.606 19.7295 144.516 19.7295 144.492 19.6654L144.2 18.8742C144.192 18.8541 144.176 18.8382 144.156 18.8308L143.366 18.5379Z" fill="#FFEF5C"/>
<g opacity="0.8" filter="url(#filter5_f_29917_26084)">
<circle cx="195.33" cy="51.0212" r="1.51521" transform="rotate(-90 195.33 51.0212)" fill="white"/>
</g>
<path d="M194.18 51.0439C194.116 51.0202 194.116 50.9297 194.18 50.906L194.971 50.6131C194.991 50.6057 195.007 50.5898 195.014 50.5697L195.307 49.7785C195.33 49.7145 195.421 49.7145 195.445 49.7785L195.737 50.5697C195.744 50.5898 195.76 50.6057 195.78 50.6131L196.571 50.906C196.635 50.9297 196.635 51.0202 196.571 51.0439L195.78 51.3368C195.76 51.3442 195.744 51.3601 195.737 51.3802L195.445 52.1714C195.421 52.2354 195.33 52.2354 195.307 52.1714L195.014 51.3802C195.007 51.3601 194.991 51.3442 194.971 51.3368L194.18 51.0439Z" fill="#FFEF5C"/>
<g opacity="0.8" filter="url(#filter6_f_29917_26084)">
<circle cx="221.515" cy="68.5152" r="1.51521" transform="rotate(-90 221.515 68.5152)" fill="white"/>
</g>
<path d="M220.368 68.5379C220.304 68.5142 220.304 68.4237 220.368 68.4L221.158 68.1072C221.178 68.0997 221.194 68.0838 221.202 68.0637L221.494 67.2726C221.518 67.2085 221.608 67.2085 221.632 67.2726L221.924 68.0637C221.932 68.0838 221.948 68.0997 221.968 68.1072L222.758 68.4C222.822 68.4237 222.822 68.5142 222.758 68.5379L221.968 68.8308C221.948 68.8382 221.932 68.8541 221.924 68.8742L221.632 69.6654C221.608 69.7295 221.518 69.7295 221.494 69.6654L221.202 68.8742C221.194 68.8541 221.178 68.8382 221.158 68.8308L220.368 68.5379Z" fill="#FFEF5C"/>
<g opacity="0.8" filter="url(#filter7_f_29917_26084)">
<circle cx="241.515" cy="34.5152" r="1.51521" transform="rotate(-90 241.515 34.5152)" fill="white"/>
</g>
<path d="M240.368 34.5379C240.304 34.5142 240.304 34.4237 240.368 34.4L241.158 34.1072C241.178 34.0997 241.194 34.0838 241.202 34.0637L241.494 33.2726C241.518 33.2085 241.608 33.2085 241.632 33.2726L241.924 34.0637C241.932 34.0838 241.948 34.0997 241.968 34.1072L242.758 34.4C242.822 34.4237 242.822 34.5142 242.758 34.5379L241.968 34.8308C241.948 34.8382 241.932 34.8541 241.924 34.8742L241.632 35.6654C241.608 35.7295 241.518 35.7295 241.494 35.6654L241.202 34.8742C241.194 34.8541 241.178 34.8382 241.158 34.8308L240.368 34.5379Z" fill="#FFEF5C"/>
<g opacity="0.8" filter="url(#filter8_f_29917_26084)">
<circle cx="78.5152" cy="60.5152" r="1.51521" transform="matrix(0 -1 1 0 18 139.03)" fill="white"/>
</g>
<path d="M77.3678 60.5379C77.3038 60.5142 77.3038 60.4237 77.3678 60.4L78.1583 60.1072C78.1784 60.0997 78.1943 60.0838 78.2017 60.0637L78.4941 59.2726C78.5178 59.2085 78.6084 59.2085 78.6321 59.2726L78.9245 60.0637C78.9319 60.0838 78.9478 60.0997 78.9679 60.1072L79.7584 60.4C79.8224 60.4237 79.8224 60.5142 79.7584 60.5379L78.9679 60.8308C78.9478 60.8382 78.9319 60.8541 78.9245 60.8742L78.6321 61.6654C78.6084 61.7295 78.5178 61.7295 78.4941 61.6654L78.2017 60.8742C78.1943 60.8541 78.1784 60.8382 78.1583 60.8308L77.3678 60.5379Z" fill="#FFEF5C"/>
<g opacity="0.8" filter="url(#filter9_f_29917_26084)">
<circle cx="196.943" cy="8.4743" r="1.51521" transform="rotate(-90 196.943 8.4743)" fill="white"/>
</g>
<path d="M195.792 8.49704C195.728 8.47333 195.728 8.38281 195.792 8.3591L196.582 8.06626C196.602 8.0588 196.618 8.04292 196.626 8.02279L196.918 7.23166C196.942 7.16758 197.032 7.16758 197.056 7.23166L197.348 8.02279C197.356 8.04292 197.372 8.0588 197.392 8.06626L198.182 8.3591C198.246 8.38281 198.246 8.47333 198.182 8.49704L197.392 8.78988C197.372 8.79734 197.356 8.81322 197.348 8.83335L197.056 9.62449C197.032 9.68856 196.942 9.68856 196.918 9.62449L196.626 8.83335C196.618 8.81322 196.602 8.79734 196.582 8.78988L195.792 8.49704Z" fill="#FFEF5C"/>
<g opacity="0.8" filter="url(#filter10_f_29917_26084)">
<circle cx="108.945" cy="87.766" r="1.51521" transform="rotate(-90 108.945 87.766)" fill="white"/>
</g>
<path d="M107.798 87.7888C107.734 87.7651 107.734 87.6746 107.798 87.6508L108.588 87.358C108.608 87.3506 108.624 87.3347 108.631 87.3145L108.924 86.5234C108.947 86.4593 109.038 86.4593 109.062 86.5234L109.354 87.3145C109.362 87.3347 109.377 87.3506 109.398 87.358L110.188 87.6508C110.252 87.6746 110.252 87.7651 110.188 87.7888L109.398 88.0816C109.377 88.0891 109.362 88.105 109.354 88.1251L109.062 88.9162C109.038 88.9803 108.947 88.9803 108.924 88.9162L108.631 88.1251C108.624 88.105 108.608 88.0891 108.588 88.0816L107.798 87.7888Z" fill="#FFEF5C"/>
<g opacity="0.8" filter="url(#filter11_f_29917_26084)">
<circle cx="182.4" cy="83.5779" r="1.51521" transform="rotate(-90 182.4 83.5779)" fill="white"/>
</g>
<path d="M181.253 83.6007C181.189 83.577 181.189 83.4864 181.253 83.4627L182.043 83.1699C182.063 83.1624 182.079 83.1466 182.086 83.1264L182.379 82.3353C182.403 82.2712 182.493 82.2712 182.517 82.3353L182.809 83.1264C182.817 83.1466 182.833 83.1624 182.853 83.1699L183.643 83.4627C183.707 83.4864 183.707 83.577 183.643 83.6007L182.853 83.8935C182.833 83.901 182.817 83.9169 182.809 83.937L182.517 84.7281C182.493 84.7922 182.403 84.7922 182.379 84.7281L182.086 83.937C182.079 83.9169 182.063 83.901 182.043 83.8935L181.253 83.6007Z" fill="#FFEF5C"/>
<g opacity="0.8" filter="url(#filter12_f_29917_26084)">
<circle cx="81.5152" cy="25.5152" r="1.51521" transform="matrix(0 -1 1 0 56 107.03)" fill="white"/>
</g>
<path d="M80.3639 25.5379C80.2999 25.5142 80.2999 25.4237 80.3639 25.4L81.1544 25.1072C81.1745 25.0997 81.1903 25.0838 81.1978 25.0637L81.4902 24.2726C81.5139 24.2085 81.6045 24.2085 81.6282 24.2726L81.9206 25.0637C81.928 25.0838 81.9439 25.0997 81.964 25.1072L82.7545 25.4C82.8185 25.4237 82.8185 25.5142 82.7545 25.5379L81.964 25.8308C81.9439 25.8382 81.928 25.8541 81.9206 25.8742L81.6282 26.6654C81.6045 26.7295 81.5139 26.7295 81.4902 26.6654L81.1978 25.8742C81.1903 25.8541 81.1745 25.8382 81.1544 25.8308L80.3639 25.5379Z" fill="#FFEF5C"/>
<g opacity="0.8" filter="url(#filter13_f_29917_26084)">
<circle cx="113.515" cy="6.51519" r="1.51521" transform="rotate(-90 113.515 6.51519)" fill="white"/>
</g>
<path d="M112.364 6.53794C112.3 6.51423 112.3 6.4237 112.364 6.39999L113.154 6.10716C113.174 6.0997 113.19 6.08382 113.198 6.06368L113.49 5.27255C113.514 5.20848 113.604 5.20848 113.628 5.27255L113.921 6.06368C113.928 6.08382 113.944 6.0997 113.964 6.10716L114.754 6.39999C114.818 6.4237 114.818 6.51423 114.754 6.53794L113.964 6.83077C113.944 6.83823 113.928 6.85411 113.921 6.87425L113.628 7.66538C113.604 7.72945 113.514 7.72945 113.49 7.66538L113.198 6.87425C113.19 6.85411 113.174 6.83823 113.154 6.83077L112.364 6.53794Z" fill="#FFEF5C"/>
<rect width="23.8817" height="15.8542" rx="0.538727" transform="matrix(-1 0 0 1 223.883 31.6019)" fill="#5F5F5F"/>
<rect width="23.8817" height="15.8542" rx="0.538727" transform="matrix(-1 0 0 1 224.691 31)" fill="url(#paint1_linear_29917_26084)"/>
<path d="M224.691 31.5387C224.691 31.2412 224.45 31 224.153 31H201.348C201.051 31 200.81 31.2412 200.81 31.5387V33.4082H224.691V31.5387Z" fill="#706B6B"/>
<circle cx="0.575728" cy="0.575728" r="0.575728" transform="matrix(-1 0 0 1 203.846 31.7263)" fill="#FF6161"/>
<circle cx="0.575728" cy="0.575728" r="0.575728" transform="matrix(-1 0 0 1 205.938 31.7263)" fill="#FFB017"/>
<circle cx="0.575728" cy="0.575728" r="0.575728" transform="matrix(-1 0 0 1 208.033 31.7263)" fill="#70C253"/>
<rect width="0.837423" height="1.36081" transform="matrix(-1 0 0 1 204.814 36.9065)" fill="#A1A1A1"/>
<rect width="0.837423" height="3.45437" transform="matrix(-1 0 0 1 206.488 34.813)" fill="#A1A1A1"/>
<rect width="0.837423" height="2.61695" transform="matrix(-1 0 0 1 208.164 35.704)" fill="#A1A1A1"/>
<rect width="0.837423" height="4.08244" transform="matrix(-1 0 0 1 209.838 34.2383)" fill="#A1A1A1"/>
<rect width="0.802745" height="2.00686" transform="matrix(-1 0 0 1 211.445 36.2178)" fill="#A1A1A1"/>
<rect width="11.0377" height="1.00343" rx="0.501716" transform="matrix(-1 0 0 1 213.049 39.4287)" fill="#A2A2A2"/>
<rect width="11.0377" height="1.00343" rx="0.501716" transform="matrix(-1 0 0 1 213.051 41.6361)" fill="#A2A2A2"/>
<rect width="7.04584" height="1.12733" rx="0.563667" transform="matrix(-1 0 0 1 208.98 43.9645)" fill="#A2A2A2"/>
<g opacity="0.9">
<rect width="1.70434" height="1.31699" rx="0.658497" transform="matrix(-1 0 0 1 220.293 36.6071)" stroke="#5F3C38" stroke-width="0.498378"/>
<rect width="4.72568" height="3.17628" rx="0.398702" transform="matrix(-1 0 0 1 221.762 37.3818)" fill="#DF732A"/>
<path d="M217.32 37.1881H221.489C221.706 37.1881 221.883 37.3613 221.888 37.578L221.91 38.5651C221.914 38.7721 221.76 38.9482 221.554 38.9704L219.443 39.1977C219.415 39.2008 219.386 39.2008 219.357 39.1976L217.276 38.9701C217.074 38.9479 216.921 38.7771 216.921 38.5737V37.5868C216.921 37.3666 217.1 37.1881 217.32 37.1881Z" fill="#A65425"/>
<rect width="1.16205" height="0.929643" rx="0.464821" transform="matrix(-1 0 0 1 219.982 38.6212)" fill="#82381B"/>
</g>
<path d="M225.594 39.5876C225.594 43.0853 222.758 45.9207 219.261 45.9207C215.763 45.9207 212.928 43.0853 212.928 39.5876C212.928 36.09 215.763 33.2546 219.261 33.2546C222.758 33.2546 225.594 36.09 225.594 39.5876ZM213.999 39.5876C213.999 42.4935 216.355 44.8491 219.261 44.8491C222.167 44.8491 224.522 42.4935 224.522 39.5876C224.522 36.6818 222.167 34.3262 219.261 34.3262C216.355 34.3262 213.999 36.6818 213.999 39.5876Z" fill="#2F3A60"/>
<path d="M222.543 43.9384L223.927 42.4567L227.918 46.1856C228.327 46.5678 228.349 47.2094 227.967 47.6186C227.585 48.0277 226.943 48.0495 226.534 47.6672L222.543 43.9384Z" fill="#2F3A60"/>
<path d="M225.877 39.3058C225.877 42.8034 223.042 45.6388 219.544 45.6388C216.046 45.6388 213.211 42.8034 213.211 39.3058C213.211 35.8082 216.046 32.9728 219.544 32.9728C223.042 32.9728 225.877 35.8082 225.877 39.3058ZM214.282 39.3058C214.282 42.2116 216.638 44.5673 219.544 44.5673C222.45 44.5673 224.805 42.2116 224.805 39.3058C224.805 36.4 222.45 34.0443 219.544 34.0443C216.638 34.0443 214.282 36.4 214.282 39.3058Z" fill="#545E81"/>
<path d="M222.824 43.6565L224.209 42.1748L228.2 45.9037C228.609 46.286 228.631 46.9276 228.248 47.3367C227.866 47.7458 227.224 47.7676 226.815 47.3854L222.824 43.6565Z" fill="#545E81"/>
<path d="M158.173 104.612L153.783 62.1785H189.486L198.704 104.612H158.173Z" stroke="#747474" stroke-width="1.19973" stroke-linejoin="round"/>
<path d="M150.707 19.1449C150.39 19.1449 150.128 19.3904 150.108 19.706L144.401 107.792C144.391 107.957 144.449 108.12 144.562 108.241C144.676 108.362 144.834 108.431 145 108.431H188.019C188.335 108.431 188.597 108.185 188.617 107.869L194.324 19.7835C194.335 19.618 194.276 19.4555 194.163 19.3345C194.05 19.2135 193.891 19.1449 193.725 19.1449H150.707Z" fill="url(#paint2_linear_29917_26084)" stroke="#747474" stroke-width="1.19973" stroke-linejoin="round"/>
<mask id="mask0_29917_26084" style="mask-type:alpha" maskUnits="userSpaceOnUse" x="145" y="19" width="49" height="89">
<path d="M150.707 19.7448H193.725L188.019 107.831H145L150.707 19.7448Z" fill="url(#paint3_linear_29917_26084)"/>
</mask>
<g mask="url(#mask0_29917_26084)">
<g opacity="0.7" filter="url(#filter14_f_29917_26084)">
<path fill-rule="evenodd" clip-rule="evenodd" d="M187.57 61.6165L188.152 53.2306C193.534 55.1802 197.197 68.8968 197.197 68.8968C197.722 74.4188 191.146 74.4628 189.265 71.6058C188.582 70.805 187.57 61.6165 187.57 61.6165Z" fill="url(#paint4_linear_29917_26084)"/>
<path fill-rule="evenodd" clip-rule="evenodd" d="M167.224 65.8866C167.743 64.7121 168.638 63.9203 169.122 62.3964L167.761 52.6482C159.624 53.8357 158.263 69.9503 158.263 69.9503C157.943 75.4879 164.127 75.5544 165.901 72.6297C166.553 71.8042 166.037 68.5771 167.224 65.8866Z" fill="url(#paint5_linear_29917_26084)"/>
<path fill-rule="evenodd" clip-rule="evenodd" d="M182.198 50.0554L173.333 50.3033C173.324 50.3035 173.315 50.3045 173.305 50.3062C173.02 50.3602 168.706 51.4127 165.586 53.4697C165.532 53.5052 165.503 53.5682 165.507 53.6326C165.795 57.5487 165.561 59.7511 165.778 63.4997L166.097 74.9082C166.098 74.9218 166.097 74.9354 166.094 74.9487L161.007 100.143C160.987 100.243 161.054 100.339 161.154 100.356L170.1 101.835C170.186 101.849 170.27 101.799 170.299 101.716L175.72 86.0295C175.723 86.0193 175.726 86.0084 175.728 85.9977C175.887 85.0233 176.862 85.0015 176.889 85.9816L178.88 101.621C178.892 101.719 178.98 101.788 179.078 101.777L188.221 100.742C188.31 100.732 188.378 100.657 188.38 100.567L188.825 75.5385L189.037 70.454C189.209 62.8892 188.979 60.4026 188.828 53.6475C188.827 53.5758 188.783 53.5102 188.716 53.4831C185.583 52.2041 182.274 50.0561 182.203 50.0553C182.201 50.0553 182.201 50.0553 182.2 50.0554L182.198 50.0554Z" fill="url(#paint6_linear_29917_26084)"/>
<path d="M173.686 83.6501C175.696 85.1767 176.991 85.2222 179.606 83.7306C179.606 83.7306 177.712 85.3164 176.302 85.1764C175.111 85.058 173.686 83.6501 173.686 83.6501Z" fill="#64EDFF"/>
<path d="M174.387 79.8643C170.912 77.4508 169.274 76.5999 166.019 75.6148L166.13 76.3398L165.965 76.8905C171.11 78.6913 170.295 77.8267 174.387 79.8643Z" fill="#64EDFF"/>
<path d="M180.481 79.694C183.815 77.0901 185.403 76.149 188.598 74.9837L188.528 75.7137L188.724 76.2542C183.687 78.3397 184.453 77.4309 180.481 79.694Z" fill="#64EDFF"/>
<path d="M178.14 110.071C180.825 111.356 194.553 113.073 196.047 109.711C196.191 109.386 196.224 109.058 196.155 108.725C195.853 107.174 194.609 105.228 191.881 103.948C189.154 102.663 188.306 100.351 188.306 100.351L179.001 101.155C177.693 103.455 176.817 105.88 177.221 108.457C177.213 109.156 177.47 109.748 178.141 110.076L178.14 110.071Z" fill="url(#paint7_linear_29917_26084)"/>
<path d="M178.143 110.067C180.828 111.352 194.745 113.658 196.239 110.297C196.383 109.971 196.628 109.095 195.849 108.024C192.786 108.97 187.359 110.451 177.198 107.573C177.039 109.097 177.473 109.745 178.144 110.073L178.143 110.067Z" fill="#3167D5"/>
<path d="M170.383 110.708C167.606 111.78 153.786 112.422 152.558 108.955C152.441 108.619 152.433 108.289 152.527 107.962C152.95 106.44 154.341 104.597 157.16 103.533C159.98 102.465 161.005 100.226 161.005 100.226L170.219 101.752C171.344 104.147 172.028 106.633 171.424 109.17C171.378 109.868 171.076 110.439 170.382 110.714L170.383 110.708Z" fill="url(#paint8_linear_29917_26084)"/>
<path d="M170.379 110.704C167.602 111.776 153.547 112.991 152.319 109.523C152.202 109.188 152.026 108.295 152.885 107.288C155.865 108.47 161.161 110.369 171.515 108.291C171.555 109.823 171.072 110.435 170.378 110.709L170.379 110.704Z" fill="#3167D5"/>
<path d="M168.896 69.1712C168.911 69.1562 168.678 69.192 168.338 69.041C168.161 68.9585 167.967 68.8034 167.814 68.5596C167.753 68.4446 167.69 68.3004 167.657 68.1408C167.638 67.9954 167.648 67.8054 167.643 67.6304C167.603 66.143 167.56 64.0135 167.488 61.3886C167.47 60.7276 167.457 60.0372 167.447 59.3175C167.437 58.9675 167.589 58.6276 167.859 58.3865C168.002 58.2803 168.161 58.1883 168.335 58.1542C168.509 58.1055 168.699 58.1147 168.903 58.109C170.449 58.0654 172.097 58.019 173.847 57.9697C177.333 57.8716 181.169 57.7635 185.18 57.6506C185.661 57.637 186.122 57.9451 186.294 58.3781C186.402 58.5939 186.394 58.8277 186.401 59.0756C186.407 59.3186 186.414 59.5665 186.421 59.8193C186.447 60.7914 186.474 61.7539 186.499 62.7066C186.525 63.6594 186.55 64.5878 186.575 65.4919C186.587 65.9488 186.6 66.4009 186.612 66.8481C186.618 67.0668 186.639 67.2997 186.63 67.5189C186.621 67.7235 186.554 67.9297 186.441 68.0934C186.217 68.4499 185.814 68.651 185.405 68.6333C184.977 68.6454 184.559 68.6572 184.151 68.6687C183.324 68.7017 182.522 68.7291 181.744 68.751C180.198 68.7946 178.754 68.8352 177.427 68.8726C174.802 68.9611 172.673 69.0357 171.185 69.0776C170.456 69.0981 169.888 69.1287 169.494 69.1398C169.3 69.1453 169.154 69.1494 169.056 69.1521C168.989 69.1638 168.935 69.1701 168.896 69.1712C168.935 69.1701 168.989 69.1735 169.057 69.1813C169.154 69.1786 169.3 69.1745 169.495 69.169C169.889 69.1579 170.458 69.1565 171.187 69.1359C172.675 69.094 174.805 69.0486 177.43 68.9893C178.758 68.9519 180.202 68.9112 181.748 68.8677C182.525 68.8458 183.328 68.828 184.155 68.8145C184.563 68.803 184.981 68.7912 185.409 68.7792C185.847 68.796 186.308 68.5641 186.56 68.1776C186.686 67.9843 186.768 67.7485 186.776 67.5148C186.769 67.2815 186.764 67.0773 186.758 66.844C186.745 66.3968 186.733 65.9447 186.721 65.4878C186.696 64.5837 186.671 63.6553 186.645 62.7025C186.619 61.7498 186.593 60.7873 186.567 59.8152C186.56 59.5624 186.553 59.3145 186.547 59.0715C186.54 58.8381 186.547 58.5606 186.439 58.3156C186.236 57.8251 185.715 57.475 185.176 57.5047C181.165 57.6177 177.329 57.7257 173.843 57.8239C172.093 57.8878 170.445 57.9342 168.899 57.9777C168.71 57.9831 168.505 57.9742 168.302 58.0237C168.114 58.0728 167.927 58.1803 167.784 58.301C167.484 58.5576 167.32 58.9416 167.33 59.3208C167.35 60.0402 167.368 60.7304 167.386 61.3915C167.472 64.016 167.53 66.145 167.585 67.6321C167.589 67.807 167.58 67.9824 167.614 68.1566C167.647 68.3162 167.709 68.4604 167.786 68.5896C167.938 68.8334 168.147 68.988 168.324 69.056C168.501 69.1386 168.648 69.1636 168.751 69.1753C168.819 69.1734 168.867 69.1721 168.896 69.1712Z" fill="#64EDFF"/>
<path d="M183.705 66.0296C183.407 66.0379 183.158 65.8032 183.15 65.5053C183.142 65.2073 183.377 64.959 183.675 64.9506C183.973 64.9422 184.221 65.177 184.229 65.4749C184.238 65.7728 184.003 66.0212 183.705 66.0296Z" fill="#64EDFF"/>
<path fill-rule="evenodd" clip-rule="evenodd" d="M183.699 65.8153C183.519 65.8204 183.369 65.6789 183.365 65.4992C183.36 65.3196 183.501 65.1699 183.681 65.1648C183.861 65.1598 184.01 65.3013 184.015 65.4809C184.02 65.6606 183.878 65.8103 183.699 65.8153ZM183.15 65.5053C183.158 65.8032 183.407 66.0379 183.705 66.0296C184.003 66.0212 184.238 65.7728 184.229 65.4749C184.221 65.177 183.973 64.9422 183.675 64.9506C183.377 64.959 183.142 65.2073 183.15 65.5053Z" fill="#64EDFF"/>
<path d="M181.869 66.0787C181.571 66.0871 181.322 65.8523 181.314 65.5544C181.306 65.2564 181.541 65.0081 181.839 64.9997C182.137 64.9913 182.385 65.226 182.394 65.524C182.402 65.8219 182.167 66.0703 181.869 66.0787Z" fill="#64EDFF"/>
<path fill-rule="evenodd" clip-rule="evenodd" d="M181.863 65.8644C181.683 65.8695 181.534 65.728 181.529 65.5483C181.524 65.3687 181.665 65.219 181.845 65.2139C182.025 65.2089 182.174 65.3504 182.179 65.53C182.184 65.7097 182.042 65.8594 181.863 65.8644ZM181.314 65.5544C181.322 65.8523 181.571 66.0871 181.869 66.0787C182.167 66.0703 182.402 65.8219 182.394 65.524C182.385 65.226 182.137 64.9913 181.839 64.9997C181.541 65.0081 181.306 65.2564 181.314 65.5544Z" fill="#64EDFF"/>
<path d="M180.085 66.1295C179.787 66.1379 179.539 65.9031 179.531 65.6052C179.523 65.3072 179.758 65.0589 180.056 65.0505C180.354 65.0421 180.602 65.2768 180.61 65.5748C180.618 65.8727 180.383 66.1211 180.085 66.1295Z" fill="#64EDFF"/>
<path fill-rule="evenodd" clip-rule="evenodd" d="M180.08 65.9152C179.9 65.9203 179.75 65.7788 179.745 65.5991C179.741 65.4195 179.882 65.2698 180.062 65.2647C180.242 65.2597 180.391 65.4012 180.396 65.5808C180.401 65.7604 180.259 65.9102 180.08 65.9152ZM179.531 65.6052C179.539 65.9031 179.787 66.1379 180.085 66.1295C180.383 66.1211 180.618 65.8727 180.61 65.5748C180.602 65.2768 180.354 65.0421 180.056 65.0505C179.758 65.0589 179.523 65.3072 179.531 65.6052Z" fill="#64EDFF"/>
<path d="M178.326 66.177C178.028 66.1853 177.78 65.9506 177.771 65.6526C177.763 65.3547 177.998 65.1063 178.296 65.098C178.594 65.0896 178.842 65.3243 178.851 65.6223C178.859 65.9202 178.624 66.1686 178.326 66.177Z" fill="#64EDFF"/>
<path fill-rule="evenodd" clip-rule="evenodd" d="M178.32 65.9627C178.14 65.9678 177.991 65.8262 177.986 65.6466C177.981 65.467 178.123 65.3173 178.302 65.3122C178.482 65.3071 178.631 65.4487 178.636 65.6283C178.641 65.8079 178.499 65.9576 178.32 65.9627ZM177.771 65.6526C177.78 65.9506 178.028 66.1853 178.326 66.177C178.624 66.1686 178.859 65.9202 178.851 65.6223C178.842 65.3243 178.594 65.0896 178.296 65.098C177.998 65.1063 177.763 65.3547 177.771 65.6526Z" fill="#64EDFF"/>
<path d="M178.457 62.2237L183.344 62.0864C183.694 62.0766 183.979 61.7912 183.969 61.4265C183.959 61.0764 183.659 60.7929 183.309 60.8027L178.423 60.94C178.072 60.9499 177.789 61.2498 177.798 61.5999C177.808 61.9646 178.107 62.2336 178.457 62.2237Z" fill="#64EDFF"/>
<path fill-rule="evenodd" clip-rule="evenodd" d="M183.338 61.8721L178.452 62.0094C178.217 62.016 178.019 61.837 178.013 61.5939C178.006 61.3622 178.197 61.1609 178.428 61.1544L183.315 61.017C183.547 61.0105 183.748 61.2008 183.754 61.4325C183.761 61.6757 183.573 61.8655 183.338 61.8721ZM183.344 62.0864L178.457 62.2237C178.107 62.2336 177.808 61.9646 177.798 61.5999C177.789 61.2498 178.072 60.9499 178.423 60.94L183.309 60.8027C183.659 60.7929 183.959 61.0764 183.969 61.4265C183.979 61.7912 183.694 62.0766 183.344 62.0864Z" fill="#64EDFF"/>
<path d="M183.546 63.994C183.248 64.0024 183 63.7677 182.992 63.4697C182.984 63.1717 183.219 62.9234 183.517 62.915C183.815 62.9066 184.063 63.1413 184.071 63.4393C184.079 63.7372 183.844 63.9856 183.546 63.994Z" fill="#64EDFF"/>
<path fill-rule="evenodd" clip-rule="evenodd" d="M183.541 63.7798C183.361 63.7848 183.211 63.6433 183.206 63.4637C183.202 63.284 183.343 63.1343 183.523 63.1292C183.703 63.1242 183.852 63.2657 183.857 63.4453C183.862 63.625 183.72 63.7747 183.541 63.7798ZM182.992 63.4697C183 63.7677 183.248 64.0024 183.546 63.994C183.844 63.9856 184.079 63.7372 184.071 63.4393C184.063 63.1413 183.815 62.9066 183.517 62.915C183.219 62.9234 182.984 63.1717 182.992 63.4697Z" fill="#64EDFF"/>
<path d="M181.726 64.0438C181.428 64.0522 181.18 63.8175 181.172 63.5195C181.164 63.2215 181.399 62.9732 181.697 62.9648C181.995 62.9564 182.243 63.1911 182.251 63.4891C182.259 63.7871 182.024 64.0354 181.726 64.0438Z" fill="#64EDFF"/>
<path fill-rule="evenodd" clip-rule="evenodd" d="M181.72 63.8296C181.541 63.8346 181.391 63.6931 181.386 63.5135C181.381 63.3338 181.523 63.1841 181.703 63.179C181.882 63.174 182.032 63.3155 182.037 63.4951C182.042 63.6748 181.9 63.8245 181.72 63.8296ZM181.172 63.5195C181.18 63.8175 181.428 64.0522 181.726 64.0438C182.024 64.0354 182.259 63.7871 182.251 63.4891C182.243 63.1911 181.995 62.9564 181.697 62.9648C181.399 62.9732 181.164 63.2215 181.172 63.5195Z" fill="#64EDFF"/>
<path d="M179.949 64.0942C179.651 64.1026 179.403 63.8679 179.394 63.5699C179.386 63.272 179.621 63.0236 179.919 63.0152C180.217 63.0068 180.466 63.2415 180.474 63.5395C180.482 63.8375 180.247 64.0858 179.949 64.0942Z" fill="#64EDFF"/>
<path fill-rule="evenodd" clip-rule="evenodd" d="M179.943 63.88C179.763 63.885 179.614 63.7435 179.609 63.5639C179.604 63.3842 179.746 63.2345 179.925 63.2295C180.105 63.2244 180.254 63.3659 180.259 63.5455C180.264 63.7252 180.123 63.8749 179.943 63.88ZM179.394 63.5699C179.403 63.8679 179.651 64.1026 179.949 64.0942C180.247 64.0858 180.482 63.8375 180.474 63.5395C180.466 63.2415 180.217 63.0068 179.919 63.0152C179.621 63.0236 179.386 63.272 179.394 63.5699Z" fill="#64EDFF"/>
<path d="M178.164 64.1418C177.866 64.1502 177.617 63.9155 177.609 63.6175C177.601 63.3196 177.836 63.0712 178.134 63.0628C178.432 63.0544 178.68 63.2892 178.688 63.5871C178.697 63.8851 178.462 64.1334 178.164 64.1418Z" fill="#64EDFF"/>
<path fill-rule="evenodd" clip-rule="evenodd" d="M178.158 63.9276C177.978 63.9326 177.828 63.7911 177.824 63.6115C177.819 63.4318 177.96 63.2821 178.14 63.2771C178.32 63.272 178.469 63.4135 178.474 63.5932C178.479 63.7728 178.337 63.9225 178.158 63.9276ZM177.609 63.6175C177.617 63.9155 177.866 64.1502 178.164 64.1418C178.462 64.1334 178.697 63.8851 178.688 63.5871C178.68 63.2892 178.432 63.0544 178.134 63.0628C177.836 63.0712 177.601 63.3196 177.609 63.6175Z" fill="#64EDFF"/>
<path d="M170.612 60.7301L173.587 60.646C173.853 60.6385 174.074 60.8479 174.081 61.1136L174.162 64.088C174.169 64.3538 173.959 64.5753 173.694 64.5828L170.719 64.6668C170.453 64.6743 170.232 64.465 170.224 64.1993L170.144 61.2248C170.137 60.9591 170.346 60.7376 170.612 60.7301Z" fill="#64EDFF"/>
<path fill-rule="evenodd" clip-rule="evenodd" d="M170.618 60.9443L173.593 60.8603C173.74 60.8561 173.863 60.9722 173.867 61.1197L173.948 64.0941C173.952 64.2415 173.835 64.3644 173.688 64.3686L170.713 64.4526C170.565 64.4567 170.443 64.3406 170.439 64.1932L170.358 61.2188C170.354 61.0714 170.47 60.9485 170.618 60.9443ZM173.587 60.646L170.612 60.7301C170.346 60.7376 170.137 60.9591 170.144 61.2248L170.224 64.1993C170.232 64.465 170.453 64.6743 170.719 64.6668L173.694 64.5828C173.959 64.5753 174.169 64.3538 174.162 64.088L174.081 61.1136C174.074 60.8479 173.853 60.6385 173.587 60.646Z" fill="#64EDFF"/>
<path d="M170.507 66.5446L173.993 66.4466C174.299 66.438 174.541 66.183 174.533 65.8913C174.524 65.585 174.27 65.344 173.963 65.3526L170.477 65.4507C170.171 65.4593 169.929 65.7142 169.938 66.0205C169.946 66.3122 170.2 66.5532 170.507 66.5446Z" fill="#64EDFF"/>
<path fill-rule="evenodd" clip-rule="evenodd" d="M173.987 66.2323L170.501 66.3303C170.309 66.3357 170.157 66.1841 170.152 66.0145C170.147 65.8266 170.295 65.6703 170.483 65.665L173.969 65.5669C174.157 65.5617 174.313 65.7094 174.318 65.8973C174.323 66.067 174.179 66.2269 173.987 66.2323ZM173.993 66.4466L170.507 66.5446C170.2 66.5532 169.946 66.3122 169.938 66.0205C169.929 65.7142 170.171 65.4593 170.477 65.4507L173.963 65.3526C174.27 65.344 174.524 65.585 174.533 65.8913C174.541 66.183 174.299 66.438 173.993 66.4466Z" fill="#64EDFF"/>
<path d="M160.72 38.5054C160.403 39.8869 160.801 41.325 161.756 42.3435C161.554 39.9936 162.088 37.7108 163.351 35.4989C162.036 35.9932 161.041 37.1161 160.72 38.5054Z" fill="white" stroke="#64EDFF" stroke-width="0.358534"/>
<path d="M181.413 26.3532C173.632 24.2423 165.898 28.2168 163.467 35.6586L163.246 35.9617C162.704 36.7854 162.855 36.3986 162.23 38.7033C161.604 41.008 162.164 45.8704 164.951 48.7516L165.26 49.1363C174.482 58.4255 188.605 56.4868 191.852 44.5177C193.992 36.6298 189.194 28.4641 181.413 26.3532Z" fill="white" stroke="#64EDFF" stroke-width="0.717068"/>
<path d="M178.496 31.6475C171.173 29.661 163.978 32.9301 162.369 38.861C160.76 44.79 165.317 51.2474 172.639 53.2339C179.963 55.2209 187.157 51.9514 188.766 46.0224C190.375 40.0915 185.82 33.6345 178.496 31.6475Z" fill="#00A4FF" stroke="#64EDFF" stroke-width="0.358534"/>
<path d="M172.942 52.1112C166.465 50.3539 162.344 44.764 163.738 39.6258C165.132 34.4877 171.513 31.7469 177.99 33.5043C184.468 35.2616 188.589 40.8515 187.195 45.9896C185.801 51.1278 179.42 53.8685 172.942 52.1112Z" fill="#6C6C6C"/>
<path d="M163.876 38.7663C163.818 39.128 163.781 39.4972 163.764 39.8721C163.709 41.0702 163.872 42.2325 164.216 43.3229C164.005 43.5521 163.82 43.7927 163.665 44.0391C164.732 47.6467 168.159 50.8629 172.789 52.119C173.614 52.3429 174.437 52.4916 175.249 52.5744C181.085 52.5533 185.77 50.1047 185.914 46.8704C185.957 45.9555 185.63 45.0697 185.008 44.2592C185.45 43.2025 185.715 42.0615 185.769 40.8609C185.8 40.1812 185.761 39.5146 185.658 38.8652C184.017 36.434 181.254 34.4393 177.837 33.5121C171.733 31.8561 165.716 34.1936 163.876 38.7663Z" fill="#B0401E"/>
<path d="M178.632 34.898L178.632 34.898C177.268 34.8367 176.009 35.3387 175.078 36.1975C175.052 36.2211 175.018 36.2334 174.983 36.2314C174.948 36.2294 174.916 36.2134 174.893 36.187C174.041 35.2005 172.802 34.5517 171.397 34.4891L171.397 34.4891C169.556 34.4066 167.84 35.5554 166.942 37.166C166.047 38.7718 165.976 40.8191 167.401 42.5326C167.438 42.5766 167.441 42.6396 167.409 42.687C167.377 42.7345 167.317 42.7549 167.263 42.7372C166.226 42.3999 165.089 42.6605 164.301 43.4158C164.103 43.6312 163.929 43.8566 163.782 44.087C163.704 44.705 163.923 45.4237 164.385 46.1844C164.853 46.9542 165.561 47.7534 166.429 48.5126C168.165 50.0314 170.522 51.3754 172.816 51.9978C173.632 52.2191 174.446 52.3664 175.248 52.4487C178.147 52.4372 180.753 51.8232 182.649 50.8166C184.549 49.8073 185.71 48.419 185.779 46.8675L185.779 46.8673C185.82 45.9929 185.51 45.14 184.908 44.3514C184.11 43.6823 183.122 43.412 181.932 43.5492C181.878 43.5555 181.825 43.5262 181.801 43.4765C181.778 43.4267 181.788 43.3675 181.828 43.3291C182.696 42.4866 183.256 41.327 183.315 40.0232L183.315 40.0231C183.438 37.315 181.341 35.0193 178.632 34.898Z" fill="#FFCAA1" stroke="#6C6C6C" stroke-width="0.25725" stroke-linejoin="round"/>
<path d="M172.034 48.0946L176.496 48.3086C176.496 48.3086 175.403 50.4559 174.222 50.4351C173.005 50.4136 172.034 48.0946 172.034 48.0946Z" fill="#FF5959" stroke="#6C6C6C" stroke-width="0.490505" stroke-linecap="round" stroke-linejoin="round"/>
<path d="M174.402 44.9617C174.509 44.9908 174.629 44.9587 174.706 44.8704C174.95 44.5875 175.345 44.5009 175.685 44.6537C175.834 44.7204 176.01 44.6531 176.078 44.5042C176.145 44.3548 176.078 44.1772 175.929 44.1104C175.346 43.8493 174.674 43.998 174.256 44.4801C174.148 44.6041 174.162 44.7915 174.286 44.8998C174.32 44.9293 174.361 44.9505 174.402 44.9617Z" fill="#6C6C6C"/>
<path d="M174.4 44.9625C174.485 44.9855 174.577 44.9722 174.653 44.9161C174.786 44.8209 174.816 44.6353 174.722 44.5007C174.353 43.991 173.682 43.7787 173.09 43.9833C172.934 44.0379 172.852 44.2073 172.904 44.3628C172.959 44.517 173.128 44.6012 173.284 44.5467C173.632 44.4269 174.024 44.5515 174.237 44.8496C174.278 44.9072 174.337 44.9452 174.4 44.9625Z" fill="#6C6C6C"/>
<path d="M174.377 46.8928C174.398 46.8985 174.419 46.9016 174.441 46.9021C174.606 46.9106 174.746 46.7829 174.753 46.6196C174.796 45.7047 174.807 45.3345 174.819 44.6312C174.821 44.4663 174.69 44.33 174.526 44.3276C174.361 44.3253 174.226 44.4582 174.224 44.6212C174.213 45.3165 174.2 45.6843 174.158 46.5912C174.152 46.7328 174.245 46.8571 174.377 46.8928Z" fill="#6C6C6C"/>
<path d="M192.196 39.7874L192.196 39.7874C190.758 39.6073 189.374 40.8272 189.154 42.5809C188.935 44.3347 189.973 45.8582 191.411 46.0383L191.412 46.0383C192.849 46.2202 194.233 44.9987 194.453 43.2449C194.673 41.4911 193.633 39.9671 192.196 39.7874ZM192.219 39.6096L192.219 39.6096L192.219 39.6096Z" fill="white" stroke="#64EDFF" stroke-width="0.358534"/>
<path d="M192.766 39.9749L192.766 39.9749L192.765 39.9747C192.215 39.9059 191.663 40.1531 191.212 40.6427C190.762 41.132 190.425 41.8531 190.319 42.6916C190.214 43.5295 190.362 44.3112 190.678 44.8966C190.994 45.4824 191.469 45.8585 192.018 45.9272L192.02 45.9274C192.197 45.951 192.372 45.9398 192.545 45.8976C193.513 45.5236 194.295 44.5213 194.456 43.2465C194.636 41.8036 193.96 40.5078 192.913 40.0008C192.868 39.9894 192.818 39.9809 192.766 39.9749Z" fill="white" stroke="#64EDFF" stroke-width="0.358534"/>
<path d="M185.002 30.8852L185.075 31.0489C184.71 31.2116 184.387 31.3139 184.117 31.35C183.853 31.3853 183.607 31.3618 183.433 31.228C183.245 31.084 183.193 30.8557 183.229 30.6068C183.264 30.3613 183.387 30.0662 183.591 29.7273L183.591 29.7272C184.386 28.4061 185.648 27.9859 186.643 27.9249C187.658 27.8061 188.422 28.1858 188.763 28.7514C188.933 29.0341 188.994 29.3602 188.92 29.6773C188.846 29.995 188.641 30.2884 188.307 30.513L188.26 30.5444L188.204 30.5434C187.168 30.5246 186.09 30.5975 185.075 31.049L185.002 30.8852ZM185.002 30.8852C183.578 31.5202 182.951 31.1401 183.745 29.8197L188.207 30.3642C187.162 30.3452 186.053 30.4176 185.002 30.8852Z" fill="white" stroke="#64EDFF" stroke-width="0.358534"/>
<path opacity="0.25" d="M188.208 30.3632C187.163 30.3443 186.054 30.4167 185.003 30.8843C184.408 31.1493 183.953 31.2375 183.682 31.1543C185.047 30.2168 185.932 29.8759 187.6 29.695C188.249 29.4958 188.2 28.8069 188.013 28.304C188.894 28.7549 189.073 29.782 188.208 30.3632Z" fill="#333333"/>
<path d="M172.773 26.6978L172.773 26.698L172.773 26.6984L172.643 26.7491C171.322 27.2634 170.048 28.3065 169.381 29.5383C169.283 29.7193 169.11 29.8231 168.924 29.8608C168.739 29.8984 168.535 29.872 168.362 29.7879L168.281 29.7489L168.283 29.7446C167.983 29.5603 167.778 29.1848 167.921 28.835C168.693 26.9243 169.529 26.019 170.365 25.7724C171.207 25.5241 172.006 25.9545 172.673 26.6006L172.773 26.6978Z" fill="white" stroke="#64EDFF" stroke-width="0.179267"/>
<path opacity="0.25" d="M167.976 28.9522C167.982 28.9241 167.991 28.8961 168.002 28.8684C169.419 25.359 171.014 25.3606 172.287 26.381C172.233 26.4529 172.175 26.5278 172.112 26.6056C170.048 27.2685 169.134 27.9081 167.976 28.9522Z" fill="#333333"/>
<path d="M169.244 40.9804C169.34 42.1367 170.022 42.9795 170.768 42.863C171.512 42.746 172.04 41.7147 171.944 40.5584C171.848 39.4022 171.166 38.5593 170.42 38.6758C169.674 38.7923 169.148 39.8241 169.244 40.9804Z" fill="#6C6C6C"/>
<path d="M169.828 39.6902C169.713 40.0749 169.813 40.4653 170.049 40.5617C170.286 40.6561 170.57 40.4204 170.685 40.0338C170.797 39.6486 170.698 39.2563 170.461 39.1618C170.225 39.0673 169.941 39.3031 169.828 39.6902Z" fill="white"/>
<path d="M170.882 41.8045C170.786 41.9884 170.798 42.2055 170.908 42.29C171.021 42.3731 171.19 42.2918 171.287 42.108C171.383 41.9242 171.371 41.707 171.259 41.622C171.148 41.5395 170.979 41.6207 170.882 41.8045Z" fill="white"/>
<path d="M178.872 39.2887C178.16 39.1256 177.446 39.8948 177.279 41.0037C177.109 42.1141 177.55 43.144 178.261 43.3046C178.972 43.4672 179.687 42.6985 179.855 41.5895C180.023 40.4787 179.584 39.4493 178.872 39.2887Z" fill="#6C6C6C"/>
<path d="M178.802 39.7521C178.567 39.8278 178.445 40.1981 178.529 40.5783C178.614 40.9585 178.872 41.206 179.106 41.1285C179.341 41.0528 179.464 40.6824 179.379 40.3023C179.294 39.9221 179.036 39.6765 178.802 39.7521Z" fill="white"/>
<path d="M177.883 42.0713C177.768 42.1451 177.742 42.354 177.823 42.5376C177.904 42.7212 178.061 42.8122 178.176 42.7384C178.289 42.6641 178.316 42.4552 178.234 42.2716C178.153 42.088 177.995 41.9989 177.883 42.0713Z" fill="white"/>
<g opacity="0.2">
<g opacity="0.2">
<g opacity="0.2">
<path opacity="0.2" d="M163.701 43.9825C163.688 44.0011 163.675 44.0198 163.664 44.0389C163.729 44.2599 163.803 44.4791 163.885 44.6966C163.815 44.4617 163.753 44.2227 163.701 43.9825Z" fill="#6C6C6C"/>
</g>
</g>
<g opacity="0.2">
<g opacity="0.2">
<path opacity="0.2" d="M185.636 48.0886C185.8 47.6992 185.897 47.2914 185.916 46.8727C185.953 46.0414 185.687 45.2366 185.174 44.4878C185.055 44.94 184.908 45.3802 184.73 45.8062C185.277 46.5197 185.594 47.2901 185.636 48.0886Z" fill="#6C6C6C"/>
</g>
</g>
</g>
<path d="M175.087 24.0759C174.919 23.4494 176.476 22.4798 178.633 21.8335L179.425 21.6181C180.662 21.3152 181.794 21.1953 182.588 21.2557C183.102 21.5223 183.071 21.72 182.686 22.0395C182.559 22.024 182.407 22.0136 182.229 22.0116C181.592 22.0042 180.747 22.1029 179.808 22.3192C178.764 22.6167 177.119 23.1849 176.516 23.5423C176.363 23.6333 176.236 23.7183 176.134 23.7951C175.88 23.3984 175.117 23.7891 175.087 24.0759Z" fill="#64EDFF"/>
<path fill-rule="evenodd" clip-rule="evenodd" d="M178.562 20.4825C178.55 20.5258 178.536 20.568 178.52 20.6089C178.891 20.9174 179.19 21.2589 179.428 21.618L179.81 22.3191C179.926 22.5803 180.016 22.8453 180.084 23.1089C180.094 23.1457 180.103 23.1825 180.112 23.2192L180.241 23.9858C180.33 24.8603 180.225 25.6497 180.109 26.1511L179.358 25.9771C179.455 25.5587 179.542 24.9112 179.486 24.1947L179.369 23.4292C179.36 23.387 179.349 23.3449 179.338 23.3027C179.27 23.0385 179.177 22.7735 179.052 22.5145L178.635 21.8334C178.465 21.6098 178.262 21.3964 178.024 21.1984C177.751 21.3642 177.413 21.4221 177.08 21.3319C176.437 21.1572 176.056 20.4938 176.231 19.85C176.406 19.2063 177.069 18.826 177.713 19.0007C178.356 19.1753 178.737 19.8387 178.562 20.4825Z" fill="#64EDFF"/>
<path fill-rule="evenodd" clip-rule="evenodd" d="M182.591 21.2557C183.237 21.3048 183.66 21.4729 183.736 21.7587C183.903 22.3802 182.372 23.3396 180.241 23.9858L179.444 24.2053C177.181 24.7662 175.262 24.7176 175.09 24.0758C175.12 23.789 175.883 23.3983 176.137 23.7951C176.264 23.8106 176.416 23.8209 176.594 23.823C177.31 23.8313 179.032 23.4955 180.112 23.2193C181.009 22.9407 181.77 22.6104 182.307 22.2923C182.46 22.2013 182.587 22.1163 182.689 22.0394C183.073 21.7199 183.105 21.5222 182.591 21.2557Z" fill="#64EDFF"/>
<path fill-rule="evenodd" clip-rule="evenodd" d="M196.551 66.1276C197.601 67.6273 197.254 70.3215 196.701 71.3764C196.148 72.4314 195.54 73.768 192.588 73.8986C188.898 74.0619 172.044 70.8817 172.044 70.8817C174.181 70.1372 175.379 69.7198 177.516 68.9753L184.789 66.4414C189.101 66.2681 195.875 65.1615 196.551 66.1276Z" fill="url(#paint9_linear_29917_26084)"/>
<path fill-rule="evenodd" clip-rule="evenodd" d="M172.044 70.8817C174.181 70.1372 175.379 69.7198 177.516 68.9753L176.195 64.3683C166.909 65.0736 162.782 65.4033 160.459 66.3894C158.136 67.3755 157.966 69.2123 158.151 71.0552C158.352 73.0455 159.514 75.1169 161.728 75.0189L172.044 70.8817Z" fill="url(#paint10_linear_29917_26084)"/>
<path d="M176.195 64.3683C181.207 63.9876 184.789 66.4414 184.789 66.4414L177.516 68.9753L176.195 64.3683Z" fill="url(#paint11_linear_29917_26084)"/>
<g opacity="0.2" filter="url(#filter15_f_29917_26084)">
<path d="M172.69 70.8531L178.42 68.9352L186.036 66.3861M172.69 70.8531L166.229 73.3401M172.69 70.8531C172.69 70.8531 181.971 72.5091 188.54 73.3528M166.475 57.3165L165.537 65.1919" stroke="black" stroke-width="0.25725"/>
</g>
</g>
<g opacity="0.3" filter="url(#filter16_f_29917_26084)">
<path d="M194.018 27.0988L149.243 44.3648L148.365 52.4125L193.286 33.9759L194.018 27.0988Z" fill="url(#paint12_linear_29917_26084)"/>
<path d="M192.555 44.3648L147.634 63.533V66.8984L192.555 48.0228V44.3648Z" fill="url(#paint13_linear_29917_26084)"/>
<path d="M144.854 96.3091L190.213 74.3608V76.5556L144.854 98.7966V96.3091Z" fill="url(#paint14_linear_29917_26084)"/>
</g>
</g>
<path fill-rule="evenodd" clip-rule="evenodd" d="M112.948 60.4168L112.366 52.0309C106.984 53.9805 103.32 67.6971 103.32 67.6971C102.796 73.2191 109.372 73.2631 111.253 70.4061C111.935 69.6053 112.948 60.4168 112.948 60.4168Z" fill="url(#paint15_linear_29917_26084)"/>
<path fill-rule="evenodd" clip-rule="evenodd" d="M133.291 64.687C132.773 63.5125 131.877 62.7207 131.393 61.1969L132.755 51.4487C140.892 52.6362 142.252 68.7507 142.252 68.7507C142.572 74.2883 136.389 74.3548 134.615 71.4301C133.963 70.6046 134.479 67.3775 133.291 64.687Z" fill="url(#paint16_linear_29917_26084)"/>
<path fill-rule="evenodd" clip-rule="evenodd" d="M118.319 48.8557L127.184 49.1036C127.194 49.1038 127.203 49.1047 127.212 49.1065C127.497 49.1605 131.812 50.213 134.931 52.27C134.985 52.3055 135.015 52.3685 135.01 52.4329C134.723 56.349 134.957 58.5514 134.739 62.3L134.42 73.7085C134.42 73.7221 134.421 73.7357 134.424 73.749L139.51 98.9435C139.53 99.043 139.464 99.1393 139.364 99.1559L130.417 100.635C130.331 100.649 130.247 100.599 130.219 100.517L124.798 84.8298C124.794 84.8196 124.792 84.8087 124.79 84.798C124.631 83.8236 123.656 83.8018 123.628 84.7819L121.638 100.422C121.626 100.519 121.537 100.588 121.44 100.577L112.297 99.5427C112.208 99.5326 112.14 99.4577 112.138 99.3678L111.692 74.3388L111.481 69.2543C111.309 61.6895 111.539 59.2029 111.689 52.4478C111.691 52.3761 111.735 52.3105 111.801 52.2834C114.935 51.0044 118.244 48.8564 118.315 48.8556C118.316 48.8556 118.317 48.8556 118.318 48.8556L118.319 48.8557Z" fill="url(#paint17_linear_29917_26084)"/>
<path d="M126.83 82.4502C124.82 83.9769 123.525 84.0224 120.909 82.5308C120.909 82.5308 122.804 84.1166 124.214 83.9765C125.405 83.8582 126.83 82.4502 126.83 82.4502Z" fill="#64EDFF"/>
<path d="M126.129 78.6646C129.604 76.2511 131.241 75.4002 134.496 74.4151L134.385 75.1401L134.551 75.6908C129.406 77.4915 130.221 76.627 126.129 78.6646Z" fill="#64EDFF"/>
<path d="M120.037 78.4942C116.702 75.8903 115.115 74.9492 111.92 73.7838L111.99 74.5139L111.794 75.0544C116.83 77.1399 116.065 76.2311 120.037 78.4942Z" fill="#64EDFF"/>
<path d="M122.376 108.872C119.691 110.156 105.963 111.873 104.469 108.512C104.325 108.187 104.292 107.858 104.36 107.525C104.663 105.974 105.907 104.028 108.634 102.749C111.362 101.463 112.209 99.152 112.209 99.152L121.515 99.9555C122.822 102.255 123.699 104.68 123.294 107.257C123.303 107.956 123.046 108.549 122.375 108.877L122.376 108.872Z" fill="url(#paint18_linear_29917_26084)"/>
<path d="M122.373 108.868C119.688 110.153 105.77 112.459 104.276 109.097C104.133 108.772 103.888 107.896 104.667 106.825C107.729 107.771 113.157 109.252 123.318 106.373C123.476 107.898 123.043 108.545 122.372 108.873L122.373 108.868Z" fill="#3167D5"/>
<path d="M130.137 109.508C132.913 110.58 146.734 111.223 147.961 107.755C148.079 107.42 148.086 107.089 147.993 106.763C147.57 105.24 146.178 103.397 143.359 102.334C140.54 101.265 139.515 99.0265 139.515 99.0265L130.3 100.552C129.176 102.947 128.491 105.433 129.095 107.97C129.141 108.668 129.443 109.239 130.138 109.514L130.137 109.508Z" fill="url(#paint19_linear_29917_26084)"/>
<path d="M130.141 109.504C132.918 110.576 146.973 111.791 148.2 108.323C148.318 107.988 148.494 107.095 147.634 106.088C144.654 107.27 139.358 109.169 129.004 107.091C128.965 108.623 129.448 109.235 130.142 109.51L130.141 109.504Z" fill="#3167D5"/>
<path d="M131.613 67.9714C131.599 67.9564 131.832 67.9922 132.172 67.8412C132.349 67.7586 132.543 67.6036 132.696 67.3598C132.757 67.2447 132.819 67.1006 132.853 66.941C132.871 66.7956 132.862 66.6056 132.867 66.4306C132.907 64.9432 132.95 62.8137 133.021 60.1888C133.039 59.5277 133.053 58.8373 133.063 58.1177C133.073 57.7677 132.921 57.4278 132.65 57.1866C132.507 57.0804 132.349 56.9884 132.175 56.9543C132.001 56.9057 131.811 56.9149 131.607 56.9092C130.061 56.8656 128.413 56.8192 126.663 56.7699C123.177 56.6717 119.341 56.5637 115.33 56.4507C114.849 56.4372 114.388 56.7453 114.215 57.1782C114.107 57.3941 114.116 57.6278 114.109 57.8757C114.102 58.1188 114.096 58.3667 114.089 58.6194C114.062 59.5916 114.036 60.5541 114.01 61.5068C113.985 62.4595 113.959 63.388 113.935 64.2921C113.922 64.749 113.91 65.2011 113.898 65.6483C113.892 65.867 113.871 66.0999 113.88 66.3191C113.889 66.5236 113.956 66.7298 114.069 66.8935C114.292 67.2501 114.696 67.4512 115.105 67.4335C115.533 67.4456 115.951 67.4573 116.359 67.4688C117.185 67.5018 117.987 67.5293 118.765 67.5512C120.311 67.5947 121.755 67.6354 123.083 67.6728C125.708 67.7613 127.837 67.8359 129.324 67.8778C130.054 67.8983 130.622 67.9289 131.016 67.94C131.21 67.9455 131.356 67.9496 131.453 67.9523C131.521 67.964 131.574 67.9703 131.613 67.9714C131.574 67.9703 131.521 67.9737 131.453 67.9815C131.355 67.9787 131.209 67.9746 131.015 67.9692C130.621 67.9581 130.052 67.9566 129.323 67.9361C127.835 67.8942 125.705 67.8488 123.079 67.7894C121.752 67.7521 120.308 67.7114 118.762 67.6679C117.984 67.646 117.182 67.6282 116.355 67.6147C115.947 67.6032 115.529 67.5914 115.101 67.5793C114.663 67.5962 114.202 67.3643 113.95 66.9778C113.823 66.7845 113.742 66.5487 113.734 66.315C113.74 66.0816 113.746 65.8775 113.752 65.6442C113.764 65.197 113.777 64.7449 113.789 64.288C113.813 63.3839 113.839 62.4554 113.865 61.5027C113.89 60.55 113.916 59.5875 113.943 58.6153C113.95 58.3626 113.956 58.1147 113.963 57.8716C113.969 57.6383 113.962 57.3608 114.071 57.1158C114.274 56.6253 114.795 56.2751 115.334 56.3049C119.345 56.4179 123.181 56.5259 126.667 56.6241C128.416 56.688 130.065 56.7344 131.611 56.7779C131.8 56.7832 132.005 56.7744 132.208 56.8239C132.396 56.873 132.583 56.9804 132.726 57.1012C133.025 57.3577 133.19 57.7418 133.18 58.1209C133.16 58.8404 133.141 59.5306 133.124 60.1917C133.038 62.8161 132.98 64.9452 132.925 66.4322C132.92 66.6072 132.93 66.7826 132.896 66.9568C132.863 67.1164 132.8 67.2606 132.724 67.3897C132.571 67.6335 132.363 67.7882 132.186 67.8562C132.008 67.9388 131.862 67.9638 131.759 67.9755C131.691 67.9736 131.643 67.9722 131.613 67.9714Z" fill="#64EDFF"/>
<path d="M116.805 64.8297C117.103 64.8381 117.351 64.6034 117.359 64.3054C117.368 64.0075 117.133 63.7592 116.835 63.7508C116.537 63.7424 116.288 63.9771 116.28 64.2751C116.272 64.573 116.507 64.8213 116.805 64.8297Z" fill="#64EDFF"/>
<path fill-rule="evenodd" clip-rule="evenodd" d="M116.811 64.6155C116.991 64.6205 117.14 64.479 117.145 64.2994C117.15 64.1198 117.008 63.9701 116.829 63.965C116.649 63.96 116.499 64.1015 116.495 64.2811C116.49 64.4607 116.631 64.6104 116.811 64.6155ZM117.359 64.3054C117.351 64.6034 117.103 64.8381 116.805 64.8297C116.507 64.8213 116.272 64.573 116.28 64.2751C116.288 63.9771 116.537 63.7424 116.835 63.7508C117.133 63.7592 117.368 64.0075 117.359 64.3054Z" fill="#64EDFF"/>
<path d="M118.641 64.8789C118.939 64.8872 119.187 64.6525 119.195 64.3546C119.203 64.0566 118.968 63.8083 118.67 63.7999C118.372 63.7915 118.124 64.0262 118.116 64.3242C118.108 64.6221 118.343 64.8705 118.641 64.8789Z" fill="#64EDFF"/>
<path fill-rule="evenodd" clip-rule="evenodd" d="M118.647 64.6646C118.827 64.6697 118.976 64.5282 118.981 64.3485C118.986 64.1689 118.844 64.0192 118.665 64.0141C118.485 64.009 118.335 64.1506 118.33 64.3302C118.326 64.5098 118.467 64.6596 118.647 64.6646ZM119.195 64.3546C119.187 64.6525 118.939 64.8872 118.641 64.8789C118.343 64.8705 118.108 64.6221 118.116 64.3242C118.124 64.0262 118.372 63.7915 118.67 63.7999C118.968 63.8083 119.203 64.0566 119.195 64.3546Z" fill="#64EDFF"/>
<path d="M120.42 64.9299C120.718 64.9383 120.967 64.7035 120.975 64.4056C120.983 64.1076 120.748 63.8593 120.45 63.8509C120.152 63.8425 119.904 64.0772 119.896 64.3752C119.887 64.6731 120.122 64.9215 120.42 64.9299Z" fill="#64EDFF"/>
<path fill-rule="evenodd" clip-rule="evenodd" d="M120.426 64.7156C120.606 64.7207 120.756 64.5792 120.76 64.3995C120.765 64.2199 120.624 64.0702 120.444 64.0651C120.264 64.0601 120.115 64.2016 120.11 64.3812C120.105 64.5609 120.247 64.7106 120.426 64.7156ZM120.975 64.4056C120.967 64.7035 120.718 64.9383 120.42 64.9299C120.122 64.9215 119.887 64.6731 119.896 64.3752C119.904 64.0772 120.152 63.8425 120.45 63.8509C120.748 63.8593 120.983 64.1076 120.975 64.4056Z" fill="#64EDFF"/>
<path d="M122.184 64.9772C122.482 64.9856 122.73 64.7509 122.738 64.4529C122.746 64.155 122.511 63.9066 122.213 63.8983C121.915 63.8899 121.667 64.1246 121.659 64.4226C121.651 64.7205 121.886 64.9689 122.184 64.9772Z" fill="#64EDFF"/>
<path fill-rule="evenodd" clip-rule="evenodd" d="M122.19 64.763C122.37 64.7681 122.519 64.6265 122.524 64.4469C122.529 64.2673 122.387 64.1176 122.208 64.1125C122.028 64.1074 121.878 64.249 121.873 64.4286C121.869 64.6082 122.01 64.7579 122.19 64.763ZM122.738 64.4529C122.73 64.7509 122.482 64.9856 122.184 64.9772C121.886 64.9689 121.651 64.7205 121.659 64.4226C121.667 64.1246 121.915 63.8899 122.213 63.8983C122.511 63.9066 122.746 64.155 122.738 64.4529Z" fill="#64EDFF"/>
<path d="M122.05 61.024L117.164 60.8867C116.813 60.8769 116.529 60.5915 116.539 60.2268C116.549 59.8767 116.848 59.5932 117.198 59.603L122.085 59.7403C122.435 59.7501 122.719 60.0501 122.71 60.4002C122.7 60.7649 122.4 61.0339 122.05 61.024Z" fill="#64EDFF"/>
<path fill-rule="evenodd" clip-rule="evenodd" d="M117.169 60.6724L122.056 60.8097C122.291 60.8163 122.489 60.6373 122.495 60.3942C122.502 60.1625 122.311 59.9612 122.079 59.9547L117.193 59.8173C116.961 59.8108 116.76 60.0011 116.754 60.2328C116.747 60.476 116.934 60.6658 117.169 60.6724ZM117.164 60.8867L122.05 61.024C122.4 61.0339 122.7 60.7649 122.71 60.4002C122.719 60.0501 122.435 59.7501 122.085 59.7403L117.198 59.603C116.848 59.5932 116.549 59.8767 116.539 60.2268C116.529 60.5915 116.813 60.8769 117.164 60.8867Z" fill="#64EDFF"/>
<path d="M116.961 62.7944C117.259 62.8028 117.508 62.5681 117.516 62.2701C117.524 61.9721 117.289 61.7238 116.991 61.7154C116.693 61.707 116.445 61.9417 116.437 62.2397C116.428 62.5377 116.663 62.786 116.961 62.7944Z" fill="#64EDFF"/>
<path fill-rule="evenodd" clip-rule="evenodd" d="M116.967 62.5802C117.147 62.5852 117.297 62.4437 117.301 62.2641C117.306 62.0844 117.165 61.9347 116.985 61.9297C116.805 61.9246 116.656 62.0661 116.651 62.2457C116.646 62.4254 116.788 62.5751 116.967 62.5802ZM117.516 62.2701C117.508 62.5681 117.259 62.8028 116.961 62.7944C116.663 62.786 116.428 62.5377 116.437 62.2397C116.445 61.9417 116.693 61.707 116.991 61.7154C117.289 61.7238 117.524 61.9721 117.516 62.2701Z" fill="#64EDFF"/>
<path d="M118.79 62.8442C119.088 62.8526 119.336 62.6179 119.344 62.3199C119.352 62.022 119.117 61.7736 118.819 61.7652C118.521 61.7568 118.273 61.9915 118.265 62.2895C118.257 62.5875 118.492 62.8358 118.79 62.8442Z" fill="#64EDFF"/>
<path fill-rule="evenodd" clip-rule="evenodd" d="M118.795 62.63C118.975 62.635 119.125 62.4935 119.13 62.3139C119.134 62.1342 118.993 61.9845 118.813 61.9795C118.633 61.9744 118.484 62.1159 118.479 62.2955C118.474 62.4752 118.616 62.6249 118.795 62.63ZM119.344 62.3199C119.336 62.6179 119.088 62.8526 118.79 62.8442C118.492 62.8358 118.257 62.5875 118.265 62.2895C118.273 61.9915 118.521 61.7568 118.819 61.7652C119.117 61.7736 119.352 62.022 119.344 62.3199Z" fill="#64EDFF"/>
<path d="M120.567 62.8945C120.865 62.9029 121.113 62.6682 121.121 62.3702C121.129 62.0722 120.894 61.8239 120.596 61.8155C120.298 61.8071 120.05 62.0418 120.042 62.3398C120.034 62.6378 120.269 62.8861 120.567 62.8945Z" fill="#64EDFF"/>
<path fill-rule="evenodd" clip-rule="evenodd" d="M120.573 62.6803C120.752 62.6853 120.902 62.5438 120.907 62.3642C120.912 62.1845 120.77 62.0348 120.59 62.0297C120.411 62.0247 120.261 62.1662 120.256 62.3458C120.251 62.5255 120.393 62.6752 120.573 62.6803ZM121.121 62.3702C121.113 62.6682 120.865 62.9029 120.567 62.8945C120.269 62.8861 120.034 62.6378 120.042 62.3398C120.05 62.0418 120.298 61.8071 120.596 61.8155C120.894 61.8239 121.129 62.0722 121.121 62.3702Z" fill="#64EDFF"/>
<path d="M122.352 62.9421C122.65 62.9505 122.898 62.7158 122.906 62.4178C122.914 62.1199 122.679 61.8715 122.381 61.8631C122.083 61.8547 121.835 62.0894 121.827 62.3874C121.819 62.6854 122.054 62.9337 122.352 62.9421Z" fill="#64EDFF"/>
<path fill-rule="evenodd" clip-rule="evenodd" d="M122.358 62.7279C122.538 62.7329 122.687 62.5914 122.692 62.4118C122.697 62.2321 122.555 62.0824 122.376 62.0774C122.196 62.0723 122.046 62.2138 122.041 62.3934C122.037 62.5731 122.178 62.7228 122.358 62.7279ZM122.906 62.4178C122.898 62.7158 122.65 62.9505 122.352 62.9421C122.054 62.9337 121.819 62.6854 121.827 62.3874C121.835 62.0894 122.083 61.8547 122.381 61.8631C122.679 61.8715 122.914 62.1199 122.906 62.4178Z" fill="#64EDFF"/>
<path d="M129.902 59.5302L126.927 59.4462C126.661 59.4387 126.439 59.648 126.432 59.9138L126.352 62.8882C126.345 63.1539 126.554 63.3755 126.82 63.383L129.795 63.467C130.061 63.4745 130.282 63.2652 130.289 62.9994L130.37 60.025C130.377 59.7593 130.167 59.5378 129.902 59.5302Z" fill="#64EDFF"/>
<path fill-rule="evenodd" clip-rule="evenodd" d="M129.896 59.7445L126.921 59.6605C126.773 59.6563 126.651 59.7724 126.647 59.9198L126.566 62.8943C126.562 63.0417 126.678 63.1646 126.826 63.1687L129.801 63.2528C129.948 63.2569 130.071 63.1408 130.075 62.9934L130.156 60.0189C130.16 59.8715 130.043 59.7486 129.896 59.7445ZM126.927 59.4462L129.902 59.5302C130.167 59.5378 130.377 59.7593 130.37 60.025L130.289 62.9994C130.282 63.2652 130.061 63.4745 129.795 63.467L126.82 63.383C126.554 63.3755 126.345 63.1539 126.352 62.8882L126.432 59.9138C126.439 59.648 126.661 59.4387 126.927 59.4462Z" fill="#64EDFF"/>
<path d="M130.005 65.3448L126.519 65.2467C126.212 65.2381 125.971 64.9832 125.979 64.6915C125.987 64.3852 126.242 64.1442 126.548 64.1528L130.035 64.2508C130.341 64.2594 130.582 64.5144 130.574 64.8207C130.566 65.1124 130.311 65.3534 130.005 65.3448Z" fill="#64EDFF"/>
<path fill-rule="evenodd" clip-rule="evenodd" d="M126.525 65.0324L130.011 65.1305C130.203 65.1359 130.355 64.9843 130.36 64.8147C130.365 64.6267 130.217 64.4704 130.029 64.4651L126.543 64.3671C126.355 64.3618 126.199 64.5096 126.193 64.6975C126.189 64.8672 126.333 65.027 126.525 65.0324ZM126.519 65.2467L130.005 65.3448C130.311 65.3534 130.566 65.1124 130.574 64.8207C130.582 64.5144 130.341 64.2594 130.035 64.2508L126.548 64.1528C126.242 64.1442 125.987 64.3852 125.979 64.6915C125.971 64.9832 126.212 65.2381 126.519 65.2467Z" fill="#64EDFF"/>
<path d="M139.797 37.3056C140.115 38.687 139.717 40.1252 138.761 41.1437C138.963 38.7938 138.43 36.5109 137.167 34.2991C138.482 34.7934 139.476 35.9163 139.797 37.3056Z" fill="white" stroke="#64EDFF" stroke-width="0.358534"/>
<path d="M119.11 25.1533C126.891 23.0424 134.625 27.017 137.056 34.4587L137.278 34.7619C137.82 35.5856 137.668 35.1987 138.294 37.5035C138.919 39.8082 138.359 44.6706 135.573 47.5518L135.263 47.9364C126.041 57.2256 111.919 55.287 108.671 43.3179C106.531 35.4299 111.329 27.2642 119.11 25.1533Z" fill="white" stroke="#64EDFF" stroke-width="0.717068"/>
<path d="M122.026 30.4477C129.348 28.4612 136.544 31.7303 138.153 37.6611C139.761 43.5901 135.204 50.0476 127.882 52.0341C120.558 54.0211 113.364 50.7516 111.756 44.8226C110.147 38.8917 114.702 32.4347 122.026 30.4477Z" fill="#00A4FF" stroke="#64EDFF" stroke-width="0.358534"/>
<path d="M127.573 50.9116C134.051 49.1543 138.172 43.5644 136.778 38.4262C135.384 33.2881 129.003 30.5474 122.525 32.3047C116.048 34.062 111.927 39.6519 113.321 44.79C114.715 49.9282 121.096 52.6689 127.573 50.9116Z" fill="#6C6C6C"/>
<path d="M136.64 37.5663C136.697 37.9281 136.735 38.2973 136.752 38.6721C136.806 39.8703 136.643 41.0326 136.299 42.1229C136.511 42.3521 136.695 42.5927 136.851 42.8391C135.783 46.4467 132.357 49.6629 127.727 50.9191C126.902 51.143 126.078 51.2917 125.267 51.3745C119.431 51.3534 114.746 48.9047 114.601 45.6704C114.559 44.7556 114.886 43.8697 115.507 43.0592C115.065 42.0025 114.8 40.8615 114.747 39.661C114.716 38.9812 114.755 38.3147 114.857 37.6653C116.499 35.2341 119.261 33.2393 122.679 32.3121C128.783 30.6562 134.8 32.9937 136.64 37.5663Z" fill="#B0401E"/>
<path d="M121.891 33.6984L121.891 33.6984C123.255 33.6372 124.514 34.1391 125.446 34.9979C125.471 35.0216 125.505 35.0338 125.54 35.0318C125.575 35.0298 125.608 35.0138 125.63 34.9874C126.482 34.001 127.722 33.3521 129.127 33.2895L129.127 33.2895C130.967 33.207 132.683 34.3558 133.581 35.9664C134.476 37.5722 134.548 39.6195 133.122 41.333C133.086 41.3771 133.082 41.44 133.115 41.4874C133.147 41.5349 133.206 41.5553 133.261 41.5376C134.298 41.2003 135.435 41.4609 136.222 42.2162C136.421 42.4316 136.594 42.657 136.742 42.8874C136.819 43.5054 136.6 44.2241 136.138 44.9848C135.671 45.7546 134.962 46.5538 134.095 47.313C132.359 48.8318 130.002 50.1758 127.708 50.7982C126.892 51.0195 126.078 51.1668 125.275 51.2491C122.376 51.2377 119.77 50.6236 117.875 49.617C115.974 48.6077 114.814 47.2194 114.744 45.6679L114.744 45.6677C114.704 44.7933 115.014 43.9404 115.616 43.1518C116.414 42.4827 117.401 42.2124 118.591 42.3496C118.646 42.3559 118.699 42.3267 118.722 42.2769C118.746 42.2271 118.735 42.1679 118.695 42.1295C117.828 41.287 117.267 40.1274 117.209 38.8236L117.209 38.8235C117.085 36.1154 119.183 33.8197 121.891 33.6984Z" fill="#FFCAA1" stroke="#6C6C6C" stroke-width="0.25725" stroke-linejoin="round"/>
<path d="M128.489 46.8951L124.027 47.109C124.027 47.109 125.121 49.2563 126.301 49.2355C127.518 49.214 128.489 46.8951 128.489 46.8951Z" fill="#FF5959" stroke="#6C6C6C" stroke-width="0.490505" stroke-linecap="round" stroke-linejoin="round"/>
<path d="M126.117 43.762C126.01 43.791 125.89 43.7589 125.814 43.6707C125.57 43.3878 125.175 43.3012 124.835 43.454C124.686 43.5207 124.51 43.4534 124.441 43.3045C124.374 43.1551 124.441 42.9775 124.591 42.9107C125.174 42.6496 125.846 42.7983 126.263 43.2804C126.371 43.4044 126.358 43.5918 126.234 43.7001C126.199 43.7296 126.159 43.7508 126.117 43.762Z" fill="#6C6C6C"/>
<path d="M126.121 43.7626C126.036 43.7855 125.944 43.7722 125.868 43.7161C125.735 43.6209 125.705 43.4354 125.8 43.3007C126.168 42.7911 126.839 42.5788 127.432 42.7834C127.588 42.8379 127.67 43.0073 127.617 43.1629C127.562 43.3171 127.393 43.4012 127.237 43.3467C126.89 43.227 126.498 43.3515 126.284 43.6497C126.243 43.7072 126.185 43.7452 126.121 43.7626Z" fill="#6C6C6C"/>
<path d="M126.141 45.6931C126.12 45.6988 126.098 45.7019 126.077 45.7024C125.912 45.7109 125.772 45.5832 125.764 45.4199C125.722 44.505 125.71 44.1348 125.699 43.4315C125.697 43.2666 125.827 43.1303 125.992 43.1279C126.157 43.1256 126.292 43.2585 126.294 43.4215C126.305 44.1168 126.318 44.4846 126.36 45.3915C126.366 45.5331 126.273 45.6574 126.141 45.6931Z" fill="#6C6C6C"/>
<path d="M108.313 38.5876L108.313 38.5876C109.752 38.4075 111.136 39.6274 111.355 41.381C111.575 43.1348 110.537 44.6583 109.098 44.8385L109.098 44.8385C107.661 45.0204 106.276 43.7989 106.057 42.0451C105.837 40.2913 106.877 38.7673 108.313 38.5876ZM108.291 38.4097L108.291 38.4097L108.291 38.4097Z" fill="white" stroke="#64EDFF" stroke-width="0.358534"/>
<path d="M107.743 38.7751L107.743 38.7751L107.745 38.7749C108.294 38.7061 108.847 38.9533 109.298 39.4429C109.748 39.9322 110.085 40.6533 110.191 41.4918C110.296 42.3296 110.148 43.1114 109.832 43.6968C109.516 44.2826 109.041 44.6586 108.492 44.7274L108.49 44.7276C108.313 44.7512 108.138 44.74 107.965 44.6978C106.996 44.3238 106.215 43.3215 106.053 42.0467C105.874 40.6038 106.549 39.308 107.597 38.801C107.642 38.7896 107.691 38.7811 107.743 38.7751Z" fill="white" stroke="#64EDFF" stroke-width="0.358534"/>
<path d="M115.518 29.6858L115.445 29.8495C115.809 30.0121 116.133 30.1144 116.403 30.1505C116.666 30.1858 116.913 30.1623 117.087 30.0285C117.275 29.8846 117.327 29.6562 117.291 29.4074C117.255 29.1619 117.132 28.8667 116.928 28.5278L116.928 28.5278C116.133 27.2066 114.871 26.7864 113.877 26.7254C112.862 26.6067 112.097 26.9863 111.757 27.552C111.586 27.8346 111.526 28.1608 111.599 28.4778C111.673 28.7955 111.878 29.0889 112.213 29.3135L112.26 29.345L112.316 29.3439C113.352 29.3252 114.43 29.398 115.445 29.8495L115.518 29.6858ZM115.518 29.6858C116.941 30.3208 117.569 29.9406 116.775 28.6202L112.313 29.1647C113.357 29.1458 114.467 29.2181 115.518 29.6858Z" fill="white" stroke="#64EDFF" stroke-width="0.358534"/>
<path opacity="0.25" d="M112.314 29.1637C113.358 29.1447 114.468 29.2171 115.519 29.6847C116.113 29.9497 116.569 30.0379 116.84 29.9547C115.475 29.0172 114.59 28.6763 112.921 28.4954C112.272 28.2962 112.321 27.6073 112.509 27.1045C111.627 27.5553 111.449 28.5824 112.314 29.1637Z" fill="#333333"/>
<path d="M127.752 25.4982L127.753 25.4984L127.752 25.4988L127.882 25.5495C129.203 26.0638 130.477 27.1069 131.145 28.3387C131.243 28.5197 131.415 28.6236 131.601 28.6612C131.787 28.6988 131.99 28.6724 132.164 28.5883L132.244 28.5494L132.242 28.545C132.542 28.3607 132.747 27.9852 132.604 27.6354C131.833 25.7247 130.997 24.8195 130.161 24.5729C129.319 24.3245 128.519 24.7549 127.852 25.401L127.752 25.4982Z" fill="white" stroke="#64EDFF" stroke-width="0.179267"/>
<path opacity="0.25" d="M132.552 27.7526C132.545 27.7245 132.537 27.6965 132.525 27.6688C131.109 24.1594 129.513 24.1611 128.24 25.1814C128.294 25.2533 128.353 25.3282 128.416 25.406C130.479 26.069 131.393 26.7085 132.552 27.7526Z" fill="#333333"/>
<path d="M131.266 39.7802C131.17 40.9365 130.488 41.7793 129.742 41.6628C128.998 41.5458 128.47 40.5145 128.566 39.3582C128.662 38.202 129.343 37.3591 130.09 37.4756C130.836 37.5921 131.362 38.6239 131.266 39.7802Z" fill="#6C6C6C"/>
<path d="M130.678 38.491C130.793 38.8757 130.693 39.2661 130.457 39.3624C130.22 39.4569 129.936 39.2211 129.821 38.8346C129.708 38.4493 129.808 38.0571 130.045 37.9626C130.281 37.8681 130.565 38.1039 130.678 38.491Z" fill="white"/>
<path d="M129.639 40.6048C129.735 40.7886 129.724 41.0058 129.613 41.0903C129.501 41.1734 129.331 41.0921 129.235 40.9083C129.139 40.7245 129.15 40.5073 129.262 40.4223C129.373 40.3397 129.543 40.421 129.639 40.6048Z" fill="white"/>
<path d="M121.643 38.0885C122.356 37.9254 123.069 38.6946 123.237 39.8036C123.407 40.9139 122.966 41.9438 122.255 42.1044C121.544 42.267 120.829 41.4983 120.661 40.3893C120.493 39.2785 120.932 38.2491 121.643 38.0885Z" fill="#6C6C6C"/>
<path d="M121.724 38.5518C121.958 38.6274 122.081 38.9978 121.996 39.378C121.912 39.7581 121.654 40.0057 121.419 39.9281C121.184 39.8525 121.062 39.4821 121.146 39.102C121.231 38.7218 121.489 38.4761 121.724 38.5518Z" fill="white"/>
<path d="M122.635 40.8713C122.75 40.9451 122.776 41.154 122.695 41.3376C122.613 41.5212 122.456 41.6123 122.341 41.5385C122.228 41.4641 122.202 41.2553 122.283 41.0717C122.365 40.8881 122.522 40.7989 122.635 40.8713Z" fill="white"/>
<g opacity="0.2">
<g opacity="0.2">
<g opacity="0.2">
<path opacity="0.2" d="M136.818 42.7825C136.832 42.8012 136.845 42.8198 136.856 42.839C136.791 43.0599 136.717 43.2791 136.635 43.4966C136.704 43.2617 136.767 43.0227 136.818 42.7825Z" fill="#6C6C6C"/>
</g>
</g>
<g opacity="0.2">
<g opacity="0.2">
<path opacity="0.2" d="M114.879 46.8885C114.715 46.4991 114.619 46.0914 114.6 45.6726C114.562 44.8413 114.828 44.0365 115.342 43.2877C115.46 43.7399 115.608 44.1802 115.786 44.6061C115.239 45.3197 114.921 46.0901 114.879 46.8885Z" fill="#6C6C6C"/>
</g>
</g>
</g>
<path d="M125.435 22.8763C125.603 22.2498 124.046 21.2802 121.889 20.6339L121.097 20.4185C119.859 20.1156 118.728 19.9957 117.933 20.0561C117.42 20.3227 117.451 20.5204 117.836 20.8399C117.962 20.8244 118.114 20.814 118.293 20.812C118.929 20.8047 119.775 20.9033 120.714 21.1196C121.758 21.4171 123.402 21.9853 124.005 22.3427C124.159 22.4337 124.285 22.5187 124.387 22.5956C124.641 22.1988 125.405 22.5895 125.435 22.8763Z" fill="#64EDFF"/>
<path fill-rule="evenodd" clip-rule="evenodd" d="M121.959 19.2829C121.971 19.3263 121.985 19.3684 122.001 19.4093C121.63 19.7178 121.332 20.0593 121.094 20.4184L120.711 21.1195C120.596 21.3807 120.506 21.6457 120.437 21.9093C120.428 21.9461 120.419 21.9829 120.41 22.0196L120.281 22.7862C120.191 23.6607 120.296 24.4501 120.412 24.9515L121.163 24.7775C121.066 24.3591 120.979 23.7117 121.036 22.9951L121.152 22.2296C121.162 22.1875 121.172 22.1453 121.183 22.1031C121.252 21.8389 121.345 21.5739 121.469 21.3149L121.886 20.6338C122.057 20.4102 122.259 20.1968 122.498 19.9988C122.771 20.1646 123.109 20.2225 123.441 20.1323C124.085 19.9576 124.465 19.2942 124.291 18.6505C124.116 18.0067 123.452 17.6264 122.809 17.8011C122.165 17.9757 121.785 18.6392 121.959 19.2829Z" fill="#64EDFF"/>
<path fill-rule="evenodd" clip-rule="evenodd" d="M117.93 20.056C117.285 20.1051 116.862 20.2732 116.785 20.559C116.618 21.1805 118.15 22.1399 120.281 22.7861L121.078 23.0056C123.34 23.5665 125.26 23.5179 125.432 22.8761C125.402 22.5893 124.638 22.1986 124.384 22.5954C124.257 22.6109 124.105 22.6212 123.927 22.6233C123.211 22.6316 121.489 22.2958 120.409 22.0196C119.512 21.741 118.751 21.4107 118.215 21.0926C118.061 21.0016 117.935 20.9166 117.833 20.8397C117.448 20.5202 117.417 20.3225 117.93 20.056Z" fill="#64EDFF"/>
<path fill-rule="evenodd" clip-rule="evenodd" d="M103.966 64.928C102.917 66.4277 103.263 69.1219 103.816 70.1768C104.369 71.2318 104.977 72.5684 107.93 72.699C111.62 72.8623 128.473 69.6822 128.473 69.6822C126.336 68.9376 125.138 68.5202 123.001 67.7757L115.728 65.2418C111.417 65.0685 104.642 63.9619 103.966 64.928Z" fill="url(#paint20_linear_29917_26084)"/>
<path fill-rule="evenodd" clip-rule="evenodd" d="M128.473 69.6822C126.336 68.9376 125.138 68.5202 123.001 67.7757L124.323 63.1687C133.609 63.8741 137.736 64.2037 140.058 65.1899C142.381 66.176 142.552 68.0127 142.366 69.8556C142.166 71.8459 141.003 73.9173 138.789 73.8193L128.473 69.6822Z" fill="url(#paint21_linear_29917_26084)"/>
<path d="M124.323 63.1687C119.311 62.788 115.728 65.2418 115.728 65.2418L123.001 67.7757L124.323 63.1687Z" fill="url(#paint22_linear_29917_26084)"/>
<g opacity="0.2" filter="url(#filter17_f_29917_26084)">
<path d="M127.826 69.6535L122.095 67.7356L114.479 65.1865M127.826 69.6535L134.287 72.1405M127.826 69.6535C127.826 69.6535 118.545 71.3095 111.975 72.1532M134.041 56.1169L134.979 63.9923" stroke="black" stroke-width="0.25725"/>
</g>
<path fill-rule="evenodd" clip-rule="evenodd" d="M93.2518 6.17358C93.1872 7.23685 94.2336 8.88462 94.2336 8.88462C94.2336 8.88462 93.1445 10.6673 93.0899 11.8005C93.0388 12.8604 93.5742 13.7255 94.3951 14.397C95.3731 15.1969 96.6699 14.8709 97.1734 14.612C97.1734 14.612 98.4409 16.1208 97.8853 16.967C97.5832 17.427 97.198 17.4761 96.9693 17.4556C97.0436 17.2796 97.0658 17.0719 97.02 16.861C96.9129 16.3678 96.4744 16.0438 96.0407 16.1374C95.6069 16.2309 95.3906 16.601 95.5053 16.9807C95.6125 17.4739 95.8508 17.6509 96.2566 17.8344C96.2817 17.829 96.4783 17.9113 96.5023 17.9034C96.7115 17.923 97.1097 17.9437 97.3764 17.8559C97.9512 17.6667 98.3396 17.3857 98.4663 16.6679C98.6201 15.7957 97.585 14.308 97.585 14.308C97.585 14.308 98.083 13.9457 98.2055 13.492C98.4562 12.5632 98.3672 11.6548 97.2195 10.9337C96.4115 10.426 95.7149 10.805 95.7149 10.805L95.1342 9.79083C95.1342 9.79083 95.7727 8.16074 95.5901 7.11655C95.3383 5.6775 94.393 4.47061 93.933 4.55913C93.5735 4.62832 93.2934 5.48993 93.2518 6.17358ZM95.8343 12.0146L97.0413 14.1749C97.0413 14.1749 96.4522 14.6505 95.4399 14.4851C94.7258 14.3684 94.3234 13.9273 94.05 13.2554C93.6468 12.2648 94.5778 10.6155 94.8742 10.1893L95.3298 11.0672C95.3298 11.0672 94.3983 11.8539 94.8035 13.0277C95.1315 13.9779 96.2864 13.9542 96.2864 13.9542C96.4864 13.8938 96.4099 13.7149 96.2528 13.695C96.2528 13.695 95.6447 13.6263 95.4521 13.0448C95.2646 12.4788 95.8343 12.0146 95.8343 12.0146ZM97.3571 13.9055L96.2396 11.8191C96.2396 11.8191 97.1003 11.6019 97.555 12.4877C98.0313 13.4155 97.3571 13.9055 97.3571 13.9055ZM94.4069 8.4955C94.4069 8.4955 94.9417 7.52475 94.9304 6.8221C94.9229 6.353 94.8343 5.74552 94.5026 5.79548C93.9514 5.87847 93.9203 7.02476 94.1124 7.7989C94.1835 8.08557 94.4069 8.4955 94.4069 8.4955Z" fill="#DFE230"/>
<path d="M152.416 29.4961C152.417 29.4963 152.417 29.4963 152.417 29.4963C152.417 29.4963 152.016 30.0291 151.482 30.1875C150.533 30.4694 149.237 29.7734 149.157 29.1358C149.046 28.2554 150.009 27.9189 150.873 28.1217C151.503 28.2698 152.172 29.1509 152.363 29.419L156.963 23.2035L157.107 23.3096L156.903 23.5846C156.61 24.3495 156.531 24.8776 156.729 25.7621C157.172 28.0861 156.64 29.0734 154.015 30.1166C156.978 28.7116 156.78 26.957 155.726 25.1746L152.488 29.5492L152.416 29.4961Z" fill="#ECA62C"/>
<path d="M106.606 60.7651L110.077 66.9114L109.922 66.9991L106.304 60.593C106.304 60.593 106.71 59.5306 107.242 59.2072C107.971 58.7642 109.201 58.5976 109.416 59.4232C109.566 60.0023 109.011 60.4365 108.199 60.8157C107.818 60.994 107.029 61.0141 106.606 60.7651Z" fill="#FF343D"/>
<path d="M181.028 36.1813C180.68 35.9418 179.878 35.4427 179.296 35.4989C178.412 35.5842 177.608 36.2122 177.997 37.0102C178.278 37.5882 179.728 37.8313 180.537 37.2594C180.76 37.1018 181.174 36.5833 181.174 36.5833L182.919 31.4276L188.386 33.3455L186.747 38.1877C186.399 37.9483 185.597 37.4491 185.015 37.5053C184.132 37.5906 183.328 38.2186 183.716 39.0166C183.997 39.5946 185.447 39.8377 186.256 39.2658C186.479 39.1082 186.893 38.5897 186.893 38.5897L188.968 32.4579C189.054 32.2035 188.92 31.9271 188.666 31.8382L183.62 30.0678C183.363 29.9775 183.081 30.1148 182.993 30.3732L181.028 36.1813Z" fill="#FC65C5"/>
<path d="M131.058 16.3447C130.73 16.3136 129.626 16.2422 129.102 16.622C128.383 17.1423 128.007 18.0906 128.745 18.5829C129.28 18.9394 130.654 18.4157 131.063 17.5133C131.241 17.1188 131.239 16.3352 131.239 16.3352L130.564 13.3183C132.129 13.6139 133.242 14.407 132.566 16.8894C133.286 14.7838 132.978 13.9556 131.393 13.0193C130.794 12.6902 130.522 12.3794 130.234 11.8404L130.051 11.0234C132.093 11.3855 133.687 12.1157 133.424 14.6611C133.781 12.522 133.199 11.8363 131.152 10.6503C130.354 10.2206 130.006 9.81555 129.62 9.09323L129.545 8.75916C129.534 8.71112 129.487 8.68088 129.439 8.69162C129.391 8.70236 129.36 8.75001 129.371 8.79805L131.058 16.3447Z" fill="#75CA98"/>
<g opacity="0.2" filter="url(#filter18_f_29917_26084)">
<path fill-rule="evenodd" clip-rule="evenodd" d="M94.932 47.6846C94.932 47.6846 91.4513 43.0228 91.7308 39.6587C91.963 36.865 94.1391 35.9262 94.932 33.2379C95.4421 31.5084 95.0923 30.3754 95.7323 28.6899C97.2809 24.6112 102.133 17.2575 104.002 21.199C105.112 23.5413 104.602 25.7704 102.935 27.7535C101.704 29.2186 99.449 28.3112 98.6 30.0276C97.7816 31.6821 99.8484 32.957 99.2669 34.7094C98.662 36.5322 96.758 36.4979 95.7323 38.1204C93.731 41.286 94.932 47.6846 94.932 47.6846ZM99.6671 24.9445C99.4732 25.1495 99.2501 25.2644 99.2669 25.5464C99.2929 25.9835 99.8977 25.8971 100.334 25.8808C101.181 25.8492 102.228 25.2074 101.935 24.4094C101.62 23.5533 100.293 24.2824 99.6671 24.9445ZM95.7323 34.8431C95.5014 35.3479 94.7986 35.9133 94.7986 35.9133C94.7986 35.9133 97.2511 35.18 97.1995 33.9737C97.1819 33.561 96.7508 33.3669 96.8661 32.9704C96.9856 32.5591 97.7131 32.7295 97.733 32.3016C97.7537 31.8573 97.3093 31.582 96.8661 31.5659C96.4027 31.549 96.1304 31.8811 95.9324 32.3016C95.7433 32.7031 95.9603 32.9954 95.9324 33.4386C95.8975 33.9916 95.9626 34.3395 95.7323 34.8431Z" fill="#70F6FF"/>
<path d="M201.327 79.5066C201.327 79.5066 203.195 78.4334 204.194 77.5001C205.308 76.4602 205.207 73.7994 206.595 74.4235C208.016 75.0621 206.478 77.1149 205.395 78.2358C204.236 79.4338 201.327 79.5066 201.327 79.5066Z" fill="#70F6FF"/>
<path d="M166.267 15.9163C166.267 15.9163 165.422 13.4325 166.267 12.3046C167.22 11.0306 168.914 12.4019 170.268 11.5689C172.478 10.2097 170.226 5.1259 172.802 5.41572C173.694 5.51598 174.238 5.7805 174.87 6.41896C176.667 8.23476 174.089 10.8335 172.002 12.3046C170.503 13.3612 168.736 12.1839 167.467 13.5085C166.741 14.2665 166.267 15.9163 166.267 15.9163Z" fill="#70F6FF"/>
<path fill-rule="evenodd" clip-rule="evenodd" d="M197.296 26.9509C197.916 28.3495 199.307 28.5243 200.83 28.623C202.059 28.7026 202.79 27.9917 203.556 27.248C204.205 26.6175 204.878 25.9632 205.899 25.747C206.837 25.5485 207.702 25.8899 208.519 26.2124C209.552 26.6198 210.507 26.9968 211.434 26.2152C212.167 25.5976 212.36 24.9293 212.595 24.1175C212.665 23.8721 212.74 23.6134 212.835 23.3393C213.546 21.2756 213.502 17.788 213.502 17.788C213.502 17.788 210.523 19.7459 208.767 21.199C208.376 21.5224 208.083 21.8249 207.802 22.1145C207.387 22.5421 207 22.9417 206.366 23.3393C205.573 23.8362 204.918 24.0247 204.194 24.2328C203.776 24.3532 203.335 24.48 202.831 24.6769C202.082 24.9699 201.08 25.0769 200.126 25.1787C198.311 25.3725 196.674 25.5474 197.296 26.9509ZM207.966 24.6769C207.966 24.6769 209.094 23.6658 209.234 23.3393C209.449 22.8344 210.754 23.4541 210.501 23.9411C210.314 24.3007 207.966 24.6769 207.966 24.6769ZM200.126 27.6197L199.83 27.248C199.83 27.248 201.841 26.6285 201.564 27.248C201.327 27.7785 200.126 27.6197 200.126 27.6197Z" fill="#70F6FF"/>
</g>
<defs>
<filter id="filter0_f_29917_26084" x="96.7805" y="99.7805" width="117.439" height="18.439" filterUnits="userSpaceOnUse" color-interpolation-filters="sRGB">
<feFlood flood-opacity="0" result="BackgroundImageFix"/>
<feBlend mode="normal" in="SourceGraphic" in2="BackgroundImageFix" result="shape"/>
<feGaussianBlur stdDeviation="0.609751" result="effect1_foregroundBlur_29917_26084"/>
</filter>
<filter id="filter1_f_29917_26084" x="173.939" y="26.0892" width="7.30948" height="7.30862" filterUnits="userSpaceOnUse" color-interpolation-filters="sRGB">
<feFlood flood-opacity="0" result="BackgroundImageFix"/>
<feBlend mode="normal" in="SourceGraphic" in2="BackgroundImageFix" result="shape"/>
<feGaussianBlur stdDeviation="1.06956" result="effect1_foregroundBlur_29917_26084"/>
</filter>
<filter id="filter2_f_29917_26084" x="146.484" y="85.4496" width="7.30948" height="7.30862" filterUnits="userSpaceOnUse" color-interpolation-filters="sRGB">
<feFlood flood-opacity="0" result="BackgroundImageFix"/>
<feBlend mode="normal" in="SourceGraphic" in2="BackgroundImageFix" result="shape"/>
<feGaussianBlur stdDeviation="1.06956" result="effect1_foregroundBlur_29917_26084"/>
</filter>
<filter id="filter3_f_29917_26084" x="118.679" y="63.3454" width="7.30948" height="7.30862" filterUnits="userSpaceOnUse" color-interpolation-filters="sRGB">
<feFlood flood-opacity="0" result="BackgroundImageFix"/>
<feBlend mode="normal" in="SourceGraphic" in2="BackgroundImageFix" result="shape"/>
<feGaussianBlur stdDeviation="1.06956" result="effect1_foregroundBlur_29917_26084"/>
</filter>
<filter id="filter4_f_29917_26084" x="140.861" y="14.8609" width="7.30948" height="7.30862" filterUnits="userSpaceOnUse" color-interpolation-filters="sRGB">
<feFlood flood-opacity="0" result="BackgroundImageFix"/>
<feBlend mode="normal" in="SourceGraphic" in2="BackgroundImageFix" result="shape"/>
<feGaussianBlur stdDeviation="1.06956" result="effect1_foregroundBlur_29917_26084"/>
</filter>
<filter id="filter5_f_29917_26084" x="191.675" y="47.3669" width="7.30948" height="7.30862" filterUnits="userSpaceOnUse" color-interpolation-filters="sRGB">
<feFlood flood-opacity="0" result="BackgroundImageFix"/>
<feBlend mode="normal" in="SourceGraphic" in2="BackgroundImageFix" result="shape"/>
<feGaussianBlur stdDeviation="1.06956" result="effect1_foregroundBlur_29917_26084"/>
</filter>
<filter id="filter6_f_29917_26084" x="217.861" y="64.8609" width="7.30948" height="7.30862" filterUnits="userSpaceOnUse" color-interpolation-filters="sRGB">
<feFlood flood-opacity="0" result="BackgroundImageFix"/>
<feBlend mode="normal" in="SourceGraphic" in2="BackgroundImageFix" result="shape"/>
<feGaussianBlur stdDeviation="1.06956" result="effect1_foregroundBlur_29917_26084"/>
</filter>
<filter id="filter7_f_29917_26084" x="237.861" y="30.8609" width="7.30948" height="7.30862" filterUnits="userSpaceOnUse" color-interpolation-filters="sRGB">
<feFlood flood-opacity="0" result="BackgroundImageFix"/>
<feBlend mode="normal" in="SourceGraphic" in2="BackgroundImageFix" result="shape"/>
<feGaussianBlur stdDeviation="1.06956" result="effect1_foregroundBlur_29917_26084"/>
</filter>
<filter id="filter8_f_29917_26084" x="74.8609" y="56.8609" width="7.30948" height="7.30862" filterUnits="userSpaceOnUse" color-interpolation-filters="sRGB">
<feFlood flood-opacity="0" result="BackgroundImageFix"/>
<feBlend mode="normal" in="SourceGraphic" in2="BackgroundImageFix" result="shape"/>
<feGaussianBlur stdDeviation="1.06956" result="effect1_foregroundBlur_29917_26084"/>
</filter>
<filter id="filter9_f_29917_26084" x="193.289" y="4.81999" width="7.30948" height="7.30862" filterUnits="userSpaceOnUse" color-interpolation-filters="sRGB">
<feFlood flood-opacity="0" result="BackgroundImageFix"/>
<feBlend mode="normal" in="SourceGraphic" in2="BackgroundImageFix" result="shape"/>
<feGaussianBlur stdDeviation="1.06956" result="effect1_foregroundBlur_29917_26084"/>
</filter>
<filter id="filter10_f_29917_26084" x="105.291" y="84.1117" width="7.30948" height="7.30862" filterUnits="userSpaceOnUse" color-interpolation-filters="sRGB">
<feFlood flood-opacity="0" result="BackgroundImageFix"/>
<feBlend mode="normal" in="SourceGraphic" in2="BackgroundImageFix" result="shape"/>
<feGaussianBlur stdDeviation="1.06956" result="effect1_foregroundBlur_29917_26084"/>
</filter>
<filter id="filter11_f_29917_26084" x="178.746" y="79.9236" width="7.30948" height="7.30862" filterUnits="userSpaceOnUse" color-interpolation-filters="sRGB">
<feFlood flood-opacity="0" result="BackgroundImageFix"/>
<feBlend mode="normal" in="SourceGraphic" in2="BackgroundImageFix" result="shape"/>
<feGaussianBlur stdDeviation="1.06956" result="effect1_foregroundBlur_29917_26084"/>
</filter>
<filter id="filter12_f_29917_26084" x="77.8609" y="21.8609" width="7.30948" height="7.30862" filterUnits="userSpaceOnUse" color-interpolation-filters="sRGB">
<feFlood flood-opacity="0" result="BackgroundImageFix"/>
<feBlend mode="normal" in="SourceGraphic" in2="BackgroundImageFix" result="shape"/>
<feGaussianBlur stdDeviation="1.06956" result="effect1_foregroundBlur_29917_26084"/>
</filter>
<filter id="filter13_f_29917_26084" x="109.861" y="2.86089" width="7.30948" height="7.30862" filterUnits="userSpaceOnUse" color-interpolation-filters="sRGB">
<feFlood flood-opacity="0" result="BackgroundImageFix"/>
<feBlend mode="normal" in="SourceGraphic" in2="BackgroundImageFix" result="shape"/>
<feGaussianBlur stdDeviation="1.06956" result="effect1_foregroundBlur_29917_26084"/>
</filter>
<filter id="filter14_f_29917_26084" x="151.921" y="18.6583" width="45.6096" height="93.6824" filterUnits="userSpaceOnUse" color-interpolation-filters="sRGB">
<feFlood flood-opacity="0" result="BackgroundImageFix"/>
<feBlend mode="normal" in="SourceGraphic" in2="BackgroundImageFix" result="shape"/>
<feGaussianBlur stdDeviation="0.149967" result="effect1_foregroundBlur_29917_26084"/>
</filter>
<filter id="filter15_f_29917_26084" x="164.894" y="56.7868" width="24.1774" height="17.2081" filterUnits="userSpaceOnUse" color-interpolation-filters="sRGB">
<feFlood flood-opacity="0" result="BackgroundImageFix"/>
<feBlend mode="normal" in="SourceGraphic" in2="BackgroundImageFix" result="shape"/>
<feGaussianBlur stdDeviation="0.25725" result="effect1_foregroundBlur_29917_26084"/>
</filter>
<filter id="filter16_f_29917_26084" x="143.654" y="25.899" width="51.5635" height="74.0973" filterUnits="userSpaceOnUse" color-interpolation-filters="sRGB">
<feFlood flood-opacity="0" result="BackgroundImageFix"/>
<feBlend mode="normal" in="SourceGraphic" in2="BackgroundImageFix" result="shape"/>
<feGaussianBlur stdDeviation="0.599867" result="effect1_foregroundBlur_29917_26084"/>
</filter>
<filter id="filter17_f_29917_26084" x="111.444" y="55.5872" width="24.1774" height="17.2081" filterUnits="userSpaceOnUse" color-interpolation-filters="sRGB">
<feFlood flood-opacity="0" result="BackgroundImageFix"/>
<feBlend mode="normal" in="SourceGraphic" in2="BackgroundImageFix" result="shape"/>
<feGaussianBlur stdDeviation="0.25725" result="effect1_foregroundBlur_29917_26084"/>
</filter>
<filter id="filter18_f_29917_26084" x="90.8693" y="4.55831" width="123.478" height="75.7938" filterUnits="userSpaceOnUse" color-interpolation-filters="sRGB">
<feFlood flood-opacity="0" result="BackgroundImageFix"/>
<feBlend mode="normal" in="SourceGraphic" in2="BackgroundImageFix" result="shape"/>
<feGaussianBlur stdDeviation="0.42275" result="effect1_foregroundBlur_29917_26084"/>
</filter>
<radialGradient id="paint0_radial_29917_26084" cx="0" cy="0" r="1" gradientUnits="userSpaceOnUse" gradientTransform="translate(160 60) rotate(90) scale(88.4483 235.862)">
<stop stop-color="#9F7CFF"/>
<stop offset="1" stop-color="#7E54F1"/>
</radialGradient>
<linearGradient id="paint1_linear_29917_26084" x1="11.9408" y1="0" x2="11.9408" y2="15.8542" gradientUnits="userSpaceOnUse">
<stop stop-color="white"/>
<stop offset="1" stop-color="#EDFCFF"/>
</linearGradient>
<linearGradient id="paint2_linear_29917_26084" x1="169.363" y1="19.7448" x2="169.363" y2="107.831" gradientUnits="userSpaceOnUse">
<stop stop-color="#E9FEFF"/>
<stop offset="1" stop-color="#E9FEFF"/>
</linearGradient>
<linearGradient id="paint3_linear_29917_26084" x1="169.363" y1="19.7448" x2="169.363" y2="107.831" gradientUnits="userSpaceOnUse">
<stop stop-color="white"/>
<stop offset="1" stop-color="#E9FEFF"/>
</linearGradient>
<linearGradient id="paint4_linear_29917_26084" x1="189.926" y1="53.8301" x2="195.69" y2="71.2975" gradientUnits="userSpaceOnUse">
<stop stop-color="#767CF2"/>
<stop offset="1" stop-color="#565CDE"/>
</linearGradient>
<linearGradient id="paint5_linear_29917_26084" x1="166.48" y1="54.7025" x2="161.366" y2="72.3711" gradientUnits="userSpaceOnUse">
<stop stop-color="#767CF2"/>
<stop offset="1" stop-color="#565CDE"/>
</linearGradient>
<linearGradient id="paint6_linear_29917_26084" x1="174.838" y1="50.2777" x2="167.879" y2="110.527" gradientUnits="userSpaceOnUse">
<stop stop-color="#7A80FB"/>
<stop offset="1" stop-color="#3A3FA8"/>
</linearGradient>
<linearGradient id="paint7_linear_29917_26084" x1="186.925" y1="102.1" x2="188.098" y2="112.202" gradientUnits="userSpaceOnUse">
<stop stop-color="#EA7E25"/>
<stop offset="1" stop-color="#FC861F"/>
</linearGradient>
<linearGradient id="paint8_linear_29917_26084" x1="162.246" y1="102.077" x2="160.289" y2="112.057" gradientUnits="userSpaceOnUse">
<stop stop-color="#EA7E25"/>
<stop offset="1" stop-color="#FC861F"/>
</linearGradient>
<linearGradient id="paint9_linear_29917_26084" x1="195.677" y1="71.7937" x2="175.514" y2="69.8039" gradientUnits="userSpaceOnUse">
<stop stop-color="#5E64E3"/>
<stop offset="1" stop-color="#565CDD"/>
</linearGradient>
<linearGradient id="paint10_linear_29917_26084" x1="176.184" y1="66.7095" x2="158.055" y2="70.0574" gradientUnits="userSpaceOnUse">
<stop stop-color="#565CDD"/>
<stop offset="1" stop-color="#7176F1"/>
</linearGradient>
<linearGradient id="paint11_linear_29917_26084" x1="176.939" y1="67.3094" x2="184.041" y2="66.3138" gradientUnits="userSpaceOnUse">
<stop stop-color="#FE7017"/>
<stop offset="1" stop-color="#FBA018"/>
</linearGradient>
<linearGradient id="paint12_linear_29917_26084" x1="169.436" y1="27.0988" x2="169.436" y2="98.7966" gradientUnits="userSpaceOnUse">
<stop stop-color="#C5FFFF"/>
<stop offset="1" stop-color="white"/>
</linearGradient>
<linearGradient id="paint13_linear_29917_26084" x1="169.436" y1="27.0988" x2="169.436" y2="98.7966" gradientUnits="userSpaceOnUse">
<stop stop-color="#C5FFFF"/>
<stop offset="1" stop-color="white"/>
</linearGradient>
<linearGradient id="paint14_linear_29917_26084" x1="169.436" y1="27.0988" x2="169.436" y2="98.7966" gradientUnits="userSpaceOnUse">
<stop stop-color="#C5FFFF"/>
<stop offset="1" stop-color="white"/>
</linearGradient>
<linearGradient id="paint15_linear_29917_26084" x1="110.592" y1="52.6304" x2="104.828" y2="70.0978" gradientUnits="userSpaceOnUse">
<stop stop-color="#767CF2"/>
<stop offset="1" stop-color="#565CDE"/>
</linearGradient>
<linearGradient id="paint16_linear_29917_26084" x1="134.035" y1="53.5029" x2="139.149" y2="71.1715" gradientUnits="userSpaceOnUse">
<stop stop-color="#767CF2"/>
<stop offset="1" stop-color="#565CDE"/>
</linearGradient>
<linearGradient id="paint17_linear_29917_26084" x1="125.679" y1="49.078" x2="132.638" y2="109.327" gradientUnits="userSpaceOnUse">
<stop stop-color="#7A80FB"/>
<stop offset="1" stop-color="#3A3FA8"/>
</linearGradient>
<linearGradient id="paint18_linear_29917_26084" x1="113.591" y1="100.901" x2="112.417" y2="111.002" gradientUnits="userSpaceOnUse">
<stop stop-color="#EA7E25"/>
<stop offset="1" stop-color="#FC861F"/>
</linearGradient>
<linearGradient id="paint19_linear_29917_26084" x1="138.274" y1="100.877" x2="140.231" y2="110.857" gradientUnits="userSpaceOnUse">
<stop stop-color="#EA7E25"/>
<stop offset="1" stop-color="#FC861F"/>
</linearGradient>
<linearGradient id="paint20_linear_29917_26084" x1="104.84" y1="70.5941" x2="125.003" y2="68.6044" gradientUnits="userSpaceOnUse">
<stop stop-color="#5E64E3"/>
<stop offset="1" stop-color="#565CDD"/>
</linearGradient>
<linearGradient id="paint21_linear_29917_26084" x1="124.334" y1="65.5099" x2="142.462" y2="68.8578" gradientUnits="userSpaceOnUse">
<stop stop-color="#565CDD"/>
<stop offset="1" stop-color="#7176F1"/>
</linearGradient>
<linearGradient id="paint22_linear_29917_26084" x1="123.579" y1="66.1099" x2="116.476" y2="65.1142" gradientUnits="userSpaceOnUse">
<stop stop-color="#FE7017"/>
<stop offset="1" stop-color="#FBA018"/>
</linearGradient>
</defs>
</svg>
