<svg width="320" height="120" viewBox="0 0 320 120" fill="none" xmlns="http://www.w3.org/2000/svg">
<g clip-path="url(#clip0_29914_67077)">
<rect width="320" height="120" fill="url(#paint0_radial_29914_67077)"/>
<path d="M127.037 49.2222C125.757 49.7788 124.122 51.1903 121.546 54.4748C119.171 57.502 111.327 67.731 117.941 73.4295L125.723 71.7729C125.799 71.7568 125.858 71.6993 125.878 71.6245L126.296 69.9974C129.23 61.7102 129.465 57.5128 127.037 49.2222Z" fill="url(#paint1_linear_29914_67077)"/>
<path fill-rule="evenodd" clip-rule="evenodd" d="M134.946 46.2598H145.014C145.025 46.2598 145.035 46.2605 145.045 46.2623C145.374 46.315 150.393 47.3917 154.006 49.6701C154.73 54.3352 155.194 56.8519 154.006 60.9959V73.9529C154.006 73.9683 154.008 73.9837 154.011 73.9987L160.583 102.429C160.609 102.541 160.537 102.653 160.424 102.675L150.318 104.637C150.221 104.656 150.124 104.602 150.089 104.509L143.439 86.8791C143.435 86.8676 143.432 86.8553 143.429 86.8432C143.217 85.7425 142.11 85.7487 142.11 86.8618L140.348 104.673C140.337 104.784 140.239 104.866 140.128 104.856L129.72 103.972C129.618 103.964 129.538 103.881 129.533 103.779L128.235 75.4199C128.234 75.3996 128.23 75.3795 128.223 75.3604L126.296 69.9974C129.23 61.7102 129.465 57.5128 127.037 49.2222C130.588 47.6772 134.859 46.263 134.94 46.2598C134.942 46.2598 134.943 46.2598 134.944 46.2598L134.946 46.2598Z" fill="url(#paint2_linear_29914_67077)"/>
<path d="M160.387 54.4748C158.77 51.951 154.579 50.0312 154.006 49.6701C154.73 54.3352 155.194 56.8519 154.006 60.9959L160.791 75.2149C160.818 75.2708 160.814 75.3365 160.782 75.3893C167.188 75.3893 168.667 72.8549 167.404 70.3564C167.404 70.3564 164.024 60.1505 160.387 54.4748Z" fill="url(#paint3_linear_29914_67077)"/>
<path d="M145.671 84.1143C143.439 85.9105 141.971 86.0032 138.955 84.3935C138.955 84.3935 141.156 86.133 142.751 85.9293C144.099 85.7573 145.671 84.1143 145.671 84.1143Z" fill="#64EDFF"/>
<path d="M144.756 79.8404C148.623 76.9911 150.454 75.9736 154.117 74.7524L154.014 75.5787L154.219 76.1983C148.438 78.4052 149.335 77.3982 144.756 79.8404Z" fill="#64EDFF"/>
<g opacity="0.25" filter="url(#filter0_f_29914_67077)">
<ellipse cx="148.131" cy="114.894" rx="31.6876" ry="5.40296" fill="#333333"/>
</g>
<path d="M137.838 79.8404C133.971 76.9911 132.139 75.9736 128.477 74.7524L128.58 75.5787L128.374 76.1983C134.156 78.4052 133.259 77.3982 137.838 79.8404Z" fill="#64EDFF"/>
<path d="M141.452 114.239C138.446 115.782 122.922 118.167 121.12 114.399C120.946 114.035 120.898 113.663 120.965 113.283C121.26 111.514 122.609 109.266 125.664 107.727C128.719 106.182 129.607 103.532 129.607 103.532L140.193 104.148C141.749 106.717 142.821 109.441 142.444 112.378C142.475 113.171 142.203 113.852 141.452 114.245L141.452 114.239Z" fill="url(#paint4_linear_29914_67077)"/>
<path d="M141.449 114.235C138.443 115.778 122.722 118.837 120.92 115.07C120.746 114.705 120.44 113.718 121.29 112.479C124.796 113.455 131.003 114.963 142.442 111.374C142.671 113.099 142.199 113.848 141.448 114.241L141.449 114.235Z" fill="#3167D5"/>
<path d="M150.28 114.716C153.465 115.844 169.169 116.135 170.452 112.161C170.575 111.776 170.573 111.402 170.456 111.034C169.928 109.32 168.29 107.272 165.058 106.154C161.824 105.031 160.59 102.523 160.59 102.523L150.181 104.547C148.981 107.301 148.283 110.144 149.049 113.004C149.124 113.794 149.485 114.433 150.281 114.722L150.28 114.716Z" fill="url(#paint5_linear_29914_67077)"/>
<path d="M150.285 114.711C153.47 115.84 169.459 116.772 170.742 112.798C170.865 112.414 171.036 111.395 170.029 110.28C166.684 111.715 160.735 114.039 148.919 112.008C148.923 113.749 149.49 114.428 150.286 114.717L150.285 114.711Z" fill="#3167D5"/>
<path d="M150.638 67.5315C150.622 67.5149 150.887 67.5481 151.268 67.366C151.466 67.2667 151.681 67.0845 151.847 66.803C151.913 66.6705 151.979 66.5049 152.012 66.3228C152.029 66.1572 152.012 65.9419 152.012 65.7431C152.01 64.0538 151.992 61.6359 151.989 58.6548C151.989 57.904 151.982 57.1201 151.971 56.3031C151.97 55.9056 151.788 55.5246 151.473 55.2596C151.307 55.1436 151.125 55.0442 150.926 55.011C150.727 54.9613 150.512 54.9778 150.28 54.9778C148.524 54.9774 146.652 54.9771 144.664 54.9766C140.705 54.9758 136.349 54.9749 131.794 54.974C131.247 54.9739 130.734 55.3382 130.552 55.835C130.436 56.0834 130.453 56.3484 130.453 56.6299C130.453 56.9059 130.454 57.1875 130.454 57.4745C130.455 58.5786 130.456 59.6717 130.457 60.7537C130.457 61.8357 130.458 62.8901 130.459 63.917C130.46 64.4359 130.46 64.9493 130.46 65.4572C130.461 65.7056 130.444 65.9706 130.461 66.219C130.478 66.4509 130.561 66.6827 130.694 66.8649C130.959 67.2625 131.423 67.4779 131.887 67.4448C132.373 67.4449 132.847 67.445 133.311 67.4451C134.25 67.4564 135.161 67.4621 136.044 67.4623C137.8 67.4626 139.44 67.4629 140.948 67.4633C143.929 67.4804 146.348 67.4975 148.038 67.4978C148.866 67.498 149.512 67.5147 149.959 67.5148C150.18 67.5148 150.346 67.5149 150.456 67.5149C150.533 67.5259 150.594 67.5315 150.638 67.5315C150.594 67.5315 150.533 67.537 150.456 67.548C150.346 67.548 150.18 67.5479 149.959 67.5479C149.512 67.5478 148.866 67.5642 148.038 67.5641C146.348 67.5637 143.929 67.5798 140.948 67.5958C139.44 67.5954 137.8 67.5951 136.045 67.5948C135.161 67.5946 134.25 67.5999 133.311 67.6108C132.848 67.6107 132.373 67.6106 131.887 67.6105C131.39 67.6435 130.86 67.395 130.561 66.9643C130.412 66.749 130.312 66.484 130.295 66.219C130.295 65.954 130.295 65.7221 130.295 65.4571C130.294 64.9493 130.294 64.4358 130.294 63.9169C130.293 62.8901 130.292 61.8357 130.291 60.7537C130.29 59.6717 130.289 58.5786 130.288 57.4745C130.288 57.1874 130.288 56.9059 130.287 56.6299C130.287 56.3649 130.27 56.0502 130.386 55.7687C130.601 55.2056 131.18 54.7917 131.793 54.8084C136.349 54.8093 140.705 54.8102 144.664 54.811C146.652 54.828 148.524 54.8284 150.28 54.8287C150.495 54.8288 150.727 54.8123 150.959 54.862C151.174 54.9117 151.39 55.0277 151.556 55.1602C151.904 55.4418 152.103 55.8725 152.103 56.3031C152.104 57.1201 152.105 57.904 152.105 58.6548C152.091 61.6359 152.093 64.0539 152.078 65.7431C152.078 65.9419 152.095 66.1406 152.062 66.3393C152.029 66.5215 151.963 66.6871 151.88 66.8362C151.715 67.1177 151.483 67.2998 151.284 67.3826C151.085 67.4819 150.92 67.515 150.804 67.5315C150.727 67.5315 150.671 67.5315 150.638 67.5315Z" fill="#64EDFF"/>
<path d="M133.739 64.4357C134.077 64.4357 134.351 64.1615 134.351 63.8231C134.351 63.4847 134.076 63.2104 133.738 63.2103C133.399 63.2103 133.125 63.4845 133.125 63.8229C133.126 64.1613 133.4 64.4356 133.739 64.4357Z" fill="#64EDFF"/>
<path fill-rule="evenodd" clip-rule="evenodd" d="M133.739 64.1924C133.943 64.1924 134.108 64.0271 134.108 63.8231C134.108 63.6191 133.942 63.4537 133.738 63.4536C133.534 63.4536 133.369 63.6189 133.369 63.8229C133.369 64.0269 133.535 64.1923 133.739 64.1924ZM134.351 63.8231C134.351 64.1615 134.077 64.4357 133.739 64.4357C133.4 64.4356 133.126 64.1613 133.125 63.8229C133.125 63.4845 133.399 63.2103 133.738 63.2103C134.076 63.2104 134.351 63.4847 134.351 63.8231Z" fill="#64EDFF"/>
<path d="M135.825 64.4331C136.163 64.4331 136.437 64.1589 136.437 63.8205C136.437 63.4821 136.162 63.2077 135.824 63.2076C135.485 63.2076 135.211 63.4818 135.211 63.8202C135.212 64.1586 135.486 64.433 135.825 64.4331Z" fill="#64EDFF"/>
<path fill-rule="evenodd" clip-rule="evenodd" d="M135.825 64.1897C136.029 64.1898 136.194 64.0244 136.194 63.8204C136.194 63.6164 136.028 63.451 135.824 63.451C135.62 63.4509 135.455 63.6163 135.455 63.8203C135.455 64.0243 135.621 64.1897 135.825 64.1897ZM136.437 63.8205C136.437 64.1589 136.163 64.4331 135.825 64.4331C135.486 64.433 135.212 64.1586 135.211 63.8202C135.211 63.4818 135.485 63.2076 135.824 63.2076C136.162 63.2077 136.437 63.4821 136.437 63.8205Z" fill="#64EDFF"/>
<path d="M137.844 64.4345C138.183 64.4346 138.457 64.1603 138.457 63.8219C138.456 63.4835 138.182 63.2092 137.843 63.2091C137.505 63.209 137.231 63.4833 137.231 63.8217C137.231 64.1601 137.506 64.4345 137.844 64.4345Z" fill="#64EDFF"/>
<path fill-rule="evenodd" clip-rule="evenodd" d="M137.844 64.1912C138.048 64.1912 138.213 64.0259 138.213 63.8219C138.213 63.6179 138.048 63.4525 137.843 63.4524C137.639 63.4524 137.474 63.6177 137.474 63.8217C137.474 64.0257 137.64 64.1912 137.844 64.1912ZM138.457 63.8219C138.457 64.1603 138.183 64.4346 137.844 64.4345C137.506 64.4345 137.231 64.1601 137.231 63.8217C137.231 63.4833 137.505 63.209 137.843 63.2091C138.182 63.2092 138.456 63.4835 138.457 63.8219Z" fill="#64EDFF"/>
<path d="M139.85 64.4323C140.189 64.4324 140.463 64.1581 140.462 63.8197C140.462 63.4813 140.188 63.207 139.849 63.2069C139.511 63.2068 139.237 63.4811 139.237 63.8195C139.237 64.1579 139.512 64.4323 139.85 64.4323Z" fill="#64EDFF"/>
<path fill-rule="evenodd" clip-rule="evenodd" d="M139.85 64.189C140.054 64.189 140.219 64.0237 140.219 63.8197C140.219 63.6157 140.053 63.4503 139.849 63.4502C139.645 63.4502 139.48 63.6155 139.48 63.8195C139.48 64.0235 139.646 64.189 139.85 64.189ZM140.462 63.8197C140.463 64.1581 140.189 64.4324 139.85 64.4323C139.512 64.4323 139.237 64.1579 139.237 63.8195C139.237 63.4811 139.511 63.2068 139.849 63.2069C140.188 63.207 140.462 63.4813 140.462 63.8197Z" fill="#64EDFF"/>
<path d="M139.571 59.9505L134.021 59.9497C133.623 59.9497 133.292 59.6348 133.292 59.2207C133.291 58.823 133.622 58.4917 134.02 58.4918L139.57 58.4926C139.968 58.4926 140.299 58.824 140.3 59.2216C140.3 59.6358 139.969 59.9505 139.571 59.9505Z" fill="#64EDFF"/>
<path fill-rule="evenodd" clip-rule="evenodd" d="M134.021 59.7063L139.571 59.7071C139.838 59.7071 140.056 59.4977 140.056 59.2216C140.056 58.9584 139.833 58.736 139.57 58.736L134.02 58.7352C133.757 58.7352 133.535 58.9575 133.535 59.2207C133.535 59.4968 133.754 59.7062 134.021 59.7063ZM134.021 59.9497L139.571 59.9505C139.969 59.9505 140.3 59.6358 140.3 59.2216C140.299 58.824 139.968 58.4926 139.57 58.4926L134.02 58.4918C133.622 58.4917 133.291 58.823 133.292 59.2207C133.292 59.6348 133.623 59.9497 134.021 59.9497Z" fill="#64EDFF"/>
<path d="M133.848 62.1211C134.187 62.1212 134.461 61.8469 134.46 61.5085C134.46 61.1701 134.186 60.8957 133.847 60.8956C133.509 60.8956 133.235 61.1698 133.235 61.5082C133.235 61.8466 133.51 62.121 133.848 62.1211Z" fill="#64EDFF"/>
<path fill-rule="evenodd" clip-rule="evenodd" d="M133.848 61.8778C134.052 61.8778 134.217 61.7125 134.217 61.5084C134.217 61.3044 134.051 61.139 133.847 61.139C133.643 61.1389 133.478 61.3043 133.478 61.5083C133.478 61.7123 133.644 61.8777 133.848 61.8778ZM134.46 61.5085C134.461 61.8469 134.187 62.1212 133.848 62.1211C133.51 62.121 133.235 61.8466 133.235 61.5082C133.235 61.1698 133.509 60.8956 133.847 60.8956C134.186 60.8957 134.46 61.1701 134.46 61.5085Z" fill="#64EDFF"/>
<path d="M135.922 62.1194C136.261 62.1194 136.535 61.8452 136.535 61.5068C136.534 61.1684 136.26 60.894 135.921 60.8939C135.583 60.8939 135.309 61.1681 135.309 61.5065C135.309 61.8449 135.584 62.1193 135.922 62.1194Z" fill="#64EDFF"/>
<path fill-rule="evenodd" clip-rule="evenodd" d="M135.922 61.876C136.126 61.8761 136.292 61.7107 136.291 61.5067C136.291 61.3027 136.126 61.1373 135.922 61.1373C135.718 61.1372 135.552 61.3026 135.552 61.5066C135.553 61.7106 135.718 61.876 135.922 61.876ZM136.535 61.5068C136.535 61.8452 136.261 62.1194 135.922 62.1194C135.584 62.1193 135.309 61.8449 135.309 61.5065C135.309 61.1681 135.583 60.8939 135.921 60.8939C136.26 60.894 136.534 61.1684 136.535 61.5068Z" fill="#64EDFF"/>
<path d="M137.942 62.1204C138.28 62.1204 138.555 61.8462 138.554 61.5078C138.554 61.1694 138.279 60.895 137.941 60.8949C137.602 60.8948 137.328 61.1691 137.329 61.5075C137.329 61.8459 137.604 62.1203 137.942 62.1204Z" fill="#64EDFF"/>
<path fill-rule="evenodd" clip-rule="evenodd" d="M137.942 61.877C138.146 61.8771 138.311 61.7117 138.311 61.5077C138.311 61.3037 138.145 61.1383 137.941 61.1382C137.737 61.1382 137.572 61.3035 137.572 61.5075C137.572 61.7116 137.738 61.877 137.942 61.877ZM138.554 61.5078C138.555 61.8462 138.28 62.1204 137.942 62.1204C137.604 62.1203 137.329 61.8459 137.329 61.5075C137.328 61.1691 137.602 60.8948 137.941 60.8949C138.279 60.895 138.554 61.1694 138.554 61.5078Z" fill="#64EDFF"/>
<path d="M139.967 62.1177C140.306 62.1177 140.58 61.8435 140.58 61.5051C140.579 61.1667 140.305 60.8923 139.966 60.8922C139.628 60.8922 139.354 61.1664 139.354 61.5048C139.354 61.8432 139.629 62.1176 139.967 62.1177Z" fill="#64EDFF"/>
<path fill-rule="evenodd" clip-rule="evenodd" d="M139.967 61.8743C140.171 61.8744 140.336 61.709 140.336 61.505C140.336 61.301 140.171 61.1356 139.967 61.1356C139.762 61.1355 139.597 61.3009 139.597 61.5049C139.598 61.7089 139.763 61.8743 139.967 61.8743ZM140.58 61.5051C140.58 61.8435 140.306 62.1177 139.967 62.1177C139.629 62.1176 139.354 61.8432 139.354 61.5048C139.354 61.1664 139.628 60.8922 139.966 60.8922C140.305 60.8923 140.579 61.1667 140.58 61.5051Z" fill="#64EDFF"/>
<path d="M148.429 58.0065L145.05 58.0055C144.749 58.0054 144.504 58.25 144.504 58.5518L144.507 61.9299C144.508 62.2317 144.753 62.4764 145.055 62.4765L148.433 62.4775C148.735 62.4775 148.98 62.233 148.979 61.9312L148.976 58.5531C148.976 58.2513 148.731 58.0066 148.429 58.0065Z" fill="#64EDFF"/>
<path fill-rule="evenodd" clip-rule="evenodd" d="M148.43 58.2498L145.051 58.2488C144.883 58.2488 144.748 58.3845 144.748 58.5519L144.751 61.93C144.751 62.0974 144.887 62.2331 145.054 62.2332L148.433 62.2341C148.601 62.2342 148.736 62.0985 148.736 61.9311L148.733 58.553C148.733 58.3856 148.597 58.2499 148.43 58.2498ZM145.05 58.0055L148.429 58.0065C148.731 58.0066 148.976 58.2513 148.976 58.5531L148.979 61.9312C148.98 62.233 148.735 62.4775 148.433 62.4775L145.055 62.4765C144.753 62.4764 144.508 62.2317 144.507 61.9299L144.504 58.5518C144.504 58.25 144.749 58.0054 145.05 58.0055Z" fill="#64EDFF"/>
<path d="M148.731 64.6015L144.771 64.6009C144.423 64.6008 144.141 64.3192 144.141 63.9879C144.141 63.64 144.422 63.3584 144.77 63.3585L148.73 63.3591C149.078 63.3592 149.36 63.6408 149.36 63.9887C149.36 64.32 149.079 64.6016 148.731 64.6015Z" fill="#64EDFF"/>
<path fill-rule="evenodd" clip-rule="evenodd" d="M144.771 64.3575L148.731 64.3581C148.948 64.3582 149.117 64.1814 149.116 63.9887C149.116 63.7752 148.943 63.6026 148.73 63.6025L144.77 63.6019C144.557 63.6019 144.384 63.7745 144.385 63.9879C144.385 64.1806 144.553 64.3575 144.771 64.3575ZM144.771 64.6009L148.731 64.6015C149.079 64.6016 149.36 64.32 149.36 63.9887C149.36 63.6408 149.078 63.3592 148.73 63.3591L144.77 63.3585C144.422 63.3584 144.141 63.64 144.141 63.9879C144.141 64.3192 144.423 64.6008 144.771 64.6009Z" fill="#64EDFF"/>
<path d="M128.679 57.5552C128.679 57.5552 120.694 61.3555 117.078 63.966C112.144 67.5276 116.749 75.9736 122.346 74.7525C124.381 75.2613 134.837 62.3379 134.837 62.3379C134.837 62.3379 131.479 58.9798 128.679 57.5552Z" fill="url(#paint6_linear_29914_67077)"/>
<path d="M160.102 34.329C160.387 35.9128 159.857 37.5219 158.719 38.6249C159.076 35.9712 158.595 33.3535 157.283 30.7766C158.747 31.4086 159.814 32.7361 160.102 34.329Z" fill="white" stroke="#64EDFF" stroke-width="0.407038"/>
<path d="M137.3 19.423C146.238 17.4524 154.792 22.38 157.144 30.951L157.378 31.3069C157.949 32.2703 157.798 31.8235 158.382 34.471C158.965 37.1185 158.066 42.6019 154.75 45.7176L154.378 46.137C143.415 56.1693 127.506 53.2029 124.474 39.4536C122.477 30.3924 128.362 21.3936 137.3 19.423Z" fill="white" stroke="#64EDFF" stroke-width="0.814076"/>
<path d="M140.318 25.5854C148.729 23.7309 156.711 27.8292 158.213 34.6422C159.715 41.4531 154.197 48.5279 145.785 50.3824C137.372 52.2373 129.392 48.1385 127.89 41.3277C126.388 34.5147 131.905 27.4403 140.318 25.5854Z" fill="#00A4FF" stroke="#64EDFF" stroke-width="0.407038"/>
<path d="M145.502 49.0927C152.943 47.4522 157.92 41.3374 156.618 35.4351C155.317 29.5327 148.23 26.0778 140.789 27.7183C133.348 29.3588 128.371 35.4735 129.673 41.3759C130.974 47.2783 138.061 50.7332 145.502 49.0927Z" fill="#6C6C6C"/>
<path d="M156.51 34.4531C156.556 34.8665 156.578 35.2872 156.577 35.7132C156.574 37.0748 156.326 38.384 155.876 39.6017C156.104 39.8731 156.3 40.156 156.463 40.4439C155.056 44.4768 150.996 47.9376 145.677 49.1102C144.729 49.3192 143.787 49.4431 142.863 49.4929C136.245 49.1516 131.066 46.1201 131.078 42.4446C131.08 41.4049 131.498 40.4181 132.248 39.5328C131.804 38.3105 131.565 37.0022 131.57 35.6379C131.572 34.8654 131.652 34.1117 131.804 33.3808C133.797 30.7132 137.038 28.6014 140.964 27.7358C147.976 26.1899 154.672 29.1678 156.51 34.4531Z" fill="#B0401E"/>
<path d="M139.986 29.2641L139.986 29.2641C141.536 29.2687 142.936 29.9064 143.946 30.931C143.974 30.9591 144.012 30.9749 144.051 30.9745C144.091 30.9741 144.128 30.9578 144.156 30.9291C145.175 29.8568 146.616 29.1884 148.213 29.1938L148.213 29.1938C150.305 29.2003 152.188 30.5964 153.118 32.4716C154.046 34.3412 154.016 36.6666 152.306 38.5322C152.262 38.5802 152.255 38.6514 152.289 38.707C152.323 38.7625 152.39 38.7889 152.452 38.7718C153.646 38.4457 154.922 38.8031 155.774 39.7024C155.987 39.9574 156.172 40.2224 156.326 40.4917C156.38 41.1967 156.093 41.9998 155.528 42.8373C154.956 43.6848 154.109 44.5526 153.084 45.3663C151.033 46.9942 148.287 48.3901 145.652 48.9711C144.714 49.1778 143.783 49.3005 142.869 49.3502C139.582 49.1795 136.66 48.3415 134.566 47.097C132.465 45.8492 131.225 44.2117 131.23 42.4486L131.23 42.4484C131.232 41.4546 131.63 40.5043 132.355 39.6427C133.297 38.9274 134.431 38.6746 135.773 38.8948C135.835 38.905 135.896 38.8747 135.926 38.8195C135.955 38.7644 135.946 38.6966 135.903 38.6509C134.965 37.6483 134.393 36.3029 134.397 34.8212L134.397 34.8212C134.405 31.7435 136.908 29.2543 139.986 29.2641Z" fill="#FFCAA1" stroke="#6C6C6C" stroke-width="0.292052" stroke-linejoin="round"/>
<path d="M141.589 45.346C142.238 46.1078 142.732 46.2859 143.878 46.1254" stroke="#6C6C6C" stroke-width="0.610557" stroke-linecap="round"/>
<path d="M144.235 40.9058C144.112 40.9329 143.978 40.89 143.896 40.7858C143.635 40.4517 143.192 40.332 142.798 40.4868C142.625 40.5544 142.429 40.4684 142.359 40.2959C142.292 40.1228 142.377 39.9251 142.55 39.8575C143.226 39.5931 143.98 39.7982 144.427 40.3677C144.543 40.5142 144.517 40.7259 144.37 40.842C144.33 40.8736 144.283 40.8953 144.235 40.9058Z" fill="#6C6C6C"/>
<path d="M144.241 40.9071C144.144 40.9285 144.04 40.9085 143.957 40.8407C143.811 40.7256 143.787 40.5135 143.902 40.3659C144.347 39.8081 145.12 39.6038 145.78 39.868C145.954 39.9383 146.038 40.1349 145.97 40.3085C145.899 40.4803 145.703 40.5666 145.529 40.4962C145.142 40.3416 144.691 40.4615 144.432 40.788C144.382 40.851 144.314 40.8909 144.241 40.9071Z" fill="#6C6C6C"/>
<path d="M144.156 43.0969C144.131 43.1023 144.107 43.1047 144.082 43.104C143.895 43.1047 143.743 42.9523 143.743 42.7667C143.745 41.7269 143.752 41.3065 143.777 40.5083C143.784 40.3212 143.939 40.1737 144.126 40.18C144.313 40.1863 144.459 40.3444 144.452 40.5293C144.427 41.3184 144.422 41.7362 144.42 42.7669C144.419 42.9278 144.307 43.0636 144.156 43.0969Z" fill="#6C6C6C"/>
<path d="M124.334 34.0706L124.334 34.0706C125.975 33.9445 127.478 35.4032 127.632 37.4037C127.786 39.4044 126.525 41.0756 124.885 41.2017L124.884 41.2017C123.244 41.3297 121.741 39.8693 121.587 37.8686C121.433 35.8679 122.696 34.1962 124.334 34.0706Z" fill="white" stroke="#64EDFF" stroke-width="0.407038"/>
<path d="M123.679 34.2525L123.679 34.2525L123.681 34.2524C124.307 34.2043 124.92 34.5146 125.405 35.0943C125.889 35.6736 126.232 36.5097 126.307 37.4663C126.38 38.4221 126.169 39.3006 125.779 39.9472C125.389 40.5943 124.83 40.9949 124.204 41.043L124.202 41.0432C124 41.0603 123.802 41.038 123.608 40.9808C122.53 40.504 121.698 39.3249 121.585 37.8705C121.459 36.2246 122.296 34.7919 123.511 34.2739C123.563 34.2634 123.619 34.2565 123.679 34.2525Z" fill="white" stroke="#64EDFF" stroke-width="0.407038"/>
<path d="M132.985 24.3676L132.893 24.5493C133.297 24.7536 133.659 24.8871 133.963 24.9428C134.26 24.9971 134.54 24.9839 134.745 24.8416C134.966 24.6886 135.038 24.4325 135.01 24.1484C134.983 23.868 134.86 23.5266 134.647 23.1313L134.647 23.1312C133.817 21.5898 132.409 21.0446 131.285 20.9214C130.14 20.7315 129.253 21.1205 128.835 21.7434C128.627 22.0547 128.54 22.4212 128.607 22.7848C128.673 23.1491 128.89 23.4929 129.257 23.7658L129.308 23.804L129.372 23.8059C130.548 23.8409 131.766 23.9821 132.893 24.5494L132.985 24.3676ZM132.985 24.3676C134.564 25.1651 135.297 24.7682 134.468 23.2277L129.378 23.6025C130.564 23.6378 131.818 23.7802 132.985 24.3676Z" fill="white" stroke="#64EDFF" stroke-width="0.407038"/>
<path opacity="0.25" d="M129.378 23.6012C130.564 23.6365 131.818 23.7789 132.985 24.3663C133.644 24.6991 134.156 24.8239 134.468 24.7444C132.97 23.6069 131.986 23.1723 130.103 22.8764C129.378 22.6152 129.472 21.8367 129.711 21.2767C128.687 21.74 128.429 22.895 129.378 23.6012Z" fill="#333333"/>
<path d="M147.082 20.2843L147.081 20.284L147.2 20.1792C147.991 19.4828 148.922 19.0383 149.863 19.3657C150.798 19.6908 151.696 20.7628 152.467 22.9714C152.61 23.3759 152.358 23.7905 152.007 23.9832L152.009 23.9882L151.916 24.0281C151.715 24.1139 151.482 24.1328 151.274 24.0802C151.065 24.0273 150.875 23.9002 150.774 23.6896M147.082 20.2843L147.081 20.2847L147.226 20.3493C148.696 21.0043 150.084 22.2564 150.774 23.6896M147.082 20.2843L147.226 20.3485L147.226 20.3487L147.227 20.3488L147.268 20.2566M147.082 20.2843L147.268 20.2566M150.774 23.6896L150.866 23.6454M150.774 23.6896C150.774 23.6896 150.774 23.6896 150.774 23.6896L150.866 23.6454M150.866 23.6454C150.18 22.2211 148.82 20.9776 147.369 20.3025L147.335 20.3322L147.335 20.3327L147.268 20.2566M150.866 23.6454L147.268 20.2566M147.269 20.2568L147.335 20.332C147.335 20.3319 147.335 20.3318 147.335 20.3318C147.346 20.3219 147.357 20.3121 147.369 20.3024L147.269 20.2568ZM151.78 23.969L151.782 23.9735L151.782 23.9742L151.872 23.9363C151.862 23.9404 151.852 23.9444 151.842 23.9482C151.821 23.9559 151.801 23.9628 151.78 23.969Z" fill="white" stroke="#64EDFF" stroke-width="0.203519"/>
<path opacity="0.25" d="M152.394 23.1014C152.389 23.0691 152.38 23.0369 152.369 23.0049C150.953 18.9482 149.144 18.8634 147.645 19.9511C147.702 20.0357 147.765 20.1238 147.832 20.2154C150.135 21.0794 151.138 21.8544 152.394 23.1014Z" fill="#333333"/>
<path d="M150.293 36.6714C150.122 37.9774 149.303 38.8961 148.463 38.7234C147.626 38.5503 147.083 37.352 147.255 36.0461C147.427 34.7401 148.245 33.8214 149.085 33.9941C149.925 34.1667 150.465 35.3655 150.293 36.6714Z" fill="#6C6C6C"/>
<path d="M149.695 35.1761C149.804 35.6186 149.669 36.0559 149.396 36.1523C149.122 36.2466 148.813 35.9638 148.704 35.5191C148.597 35.0762 148.731 34.6368 149.005 34.5425C149.278 34.4482 149.588 34.731 149.695 35.1761Z" fill="white"/>
<path d="M148.395 37.5172C148.494 37.7309 148.469 37.9766 148.339 38.0663C148.207 38.1544 148.019 38.0531 147.92 37.8394C147.821 37.6257 147.846 37.38 147.978 37.2898C148.108 37.2022 148.296 37.3035 148.395 37.5172Z" fill="white"/>
<path d="M139.474 34.2297C140.291 34.0835 141.058 34.9946 141.188 36.2612C141.32 37.5295 140.764 38.6734 139.949 38.8169C139.134 38.9626 138.365 38.052 138.235 36.7854C138.105 35.5166 138.659 34.3732 139.474 34.2297Z" fill="#6C6C6C"/>
<path d="M139.54 34.7598C139.802 34.8583 139.921 35.2849 139.805 35.7115C139.688 36.138 139.382 36.4046 139.12 36.3039C138.858 36.2054 138.739 35.7788 138.856 35.3523C138.972 34.9257 139.279 34.6612 139.54 34.7598Z" fill="white"/>
<path d="M140.453 37.4396C140.579 37.5295 140.598 37.7678 140.496 37.9716C140.393 38.1753 140.21 38.27 140.084 38.1801C139.96 38.0897 139.941 37.8514 140.044 37.6476C140.146 37.4438 140.329 37.3513 140.453 37.4396Z" fill="white"/>
<g opacity="0.2">
<g opacity="0.2">
<g opacity="0.2">
<path opacity="0.2" d="M156.423 40.3772C156.437 40.3991 156.451 40.421 156.463 40.4433C156.377 40.6903 156.281 40.9349 156.176 41.177C156.268 40.9144 156.352 40.6468 156.423 40.3772Z" fill="#6C6C6C"/>
</g>
</g>
<g opacity="0.2">
<g opacity="0.2">
<path opacity="0.2" d="M131.328 43.841C131.163 43.3905 131.076 42.9229 131.077 42.447C131.079 41.5023 131.425 40.6041 132.048 39.7829C132.158 40.3022 132.301 40.8094 132.48 41.3022C131.821 42.0815 131.419 42.9379 131.328 43.841Z" fill="#6C6C6C"/>
</g>
</g>
</g>
<path d="M144.599 17.185C144.824 16.4837 143.111 15.2995 140.7 14.4493L139.814 14.162C138.427 13.7512 137.15 13.5538 136.246 13.5791C135.649 13.8534 135.674 14.0793 136.093 14.4625C136.237 14.4518 136.41 14.4484 136.613 14.4557C137.335 14.482 138.289 14.6399 139.341 14.9362C140.509 15.3304 142.343 16.0641 143.007 16.5022C143.176 16.6137 143.315 16.717 143.427 16.8097C143.737 16.3736 144.581 16.8582 144.599 17.185Z" fill="#64EDFF"/>
<path fill-rule="evenodd" clip-rule="evenodd" d="M140.857 12.9215C140.868 12.9713 140.881 13.0199 140.897 13.0671C140.46 13.3968 140.103 13.7678 139.814 14.1621L139.341 14.9363C139.196 15.2262 139.08 15.5218 138.988 15.817C138.975 15.8583 138.963 15.8995 138.951 15.9407L138.763 16.8029C138.614 17.7897 138.69 18.6905 138.794 19.2655L139.655 19.109C139.568 18.6293 139.505 17.8903 139.608 17.0808L139.781 16.2191C139.794 16.1718 139.808 16.1246 139.823 16.0773C139.915 15.7815 140.036 15.4861 140.191 15.1991L140.7 14.4494C140.906 14.2051 141.147 13.9741 141.428 13.7626C141.729 13.9655 142.109 14.0495 142.491 13.9653C143.23 13.8022 143.698 13.0706 143.535 12.3311C143.372 11.5916 142.64 11.1243 141.901 11.2873C141.161 11.4504 140.694 12.182 140.857 12.9215Z" fill="#64EDFF"/>
<path fill-rule="evenodd" clip-rule="evenodd" d="M136.246 13.5791C135.512 13.5996 135.023 13.7673 134.92 14.0872C134.697 14.783 136.382 15.9542 138.763 16.8028L139.655 17.095C142.19 17.8541 144.37 17.9034 144.6 17.185C144.581 16.8582 143.737 16.3736 143.427 16.8097C143.282 16.8204 143.109 16.8238 142.907 16.8165C142.095 16.7869 140.16 16.3126 138.951 15.9406C137.949 15.5759 137.103 15.1599 136.512 14.77C136.343 14.6585 136.204 14.5552 136.093 14.4625C135.674 14.0793 135.65 13.8534 136.246 13.5791Z" fill="#64EDFF"/>
<path d="M143.821 50.9065C146.094 47.5605 143.571 46.1487 141.383 49.7807L139.79 51.7515C139.763 51.1353 138.259 50.3894 137.709 50.6362C137.538 50.0635 136.381 49.4433 135.809 49.6186C135.803 49.074 134.548 48.5217 134.141 48.7251C132.917 49.4519 130.999 51.5512 130.999 51.5512L129.167 55.5342L134.645 59.8824C134.645 59.8824 137.331 59.6181 138.687 58.6836C140.299 57.5717 141.475 54.5137 141.475 54.5137L143.821 50.9065Z" fill="url(#paint7_linear_29914_67077)"/>
<g opacity="0.2" filter="url(#filter1_f_29914_67077)">
<path d="M133.029 51.9119C132.811 52.8759 134.019 53.4031 134.501 53.0606C134.75 54.1546 135.844 54.5607 136.176 54.2747C136.335 55.125 137.018 55.6011 137.778 55.4075" stroke="black" stroke-width="0.203519" stroke-linecap="round" stroke-linejoin="round"/>
</g>
<path d="M137.707 50.6366C138.257 50.3897 139.762 51.1357 139.789 51.7519C139.22 53.2887 138.068 55.3333 137.777 55.4075C137.018 55.6011 136.334 55.125 136.175 54.2747C136.974 52.9005 137.309 52.119 137.707 50.6366Z" fill="url(#paint8_linear_29914_67077)"/>
<path d="M135.807 49.619C136.379 49.4436 137.537 50.0639 137.707 50.6366C137.309 52.119 136.974 52.9005 136.175 54.2747C135.843 54.5606 134.749 54.1546 134.5 53.0605C135.137 51.7187 135.42 50.958 135.807 49.619Z" fill="url(#paint9_linear_29914_67077)"/>
<path d="M134.14 48.7255C134.547 48.5221 135.802 49.0743 135.807 49.619C135.42 50.958 135.137 51.7187 134.5 53.0605C134.019 53.403 132.811 52.8759 133.029 51.9119C133.421 50.6581 133.707 48.8117 134.14 48.7255Z" fill="url(#paint10_linear_29914_67077)"/>
<g opacity="0.3" filter="url(#filter2_f_29914_67077)">
<path d="M139.79 51.7515C139.221 53.2884 138.069 55.333 137.778 55.4071M137.708 50.6363C137.31 52.1187 136.974 52.9002 136.176 54.2744M135.808 49.6187C135.421 50.9576 135.138 51.7184 134.501 53.0602" stroke="#333333" stroke-width="0.203519" stroke-linecap="round" stroke-linejoin="round"/>
</g>
<path d="M139.612 53.8145L138.589 52.6276C137.27 51.0884 136.653 52.5657 137.314 53.8948C137.756 54.4762 138.034 54.762 138.565 55.2357C137.907 56.5712 137.39 57.1285 138.649 58.8174L140.783 55.9972C140.539 54.9138 140.146 54.4959 139.612 53.8145Z" fill="url(#paint11_linear_29914_67077)"/>
<path d="M122.473 57.3598C122.473 56.2875 123.342 55.4182 124.414 55.4182H159.459C160.532 55.4182 161.401 56.2875 161.401 57.3598L160.042 74.0572C160.042 75.1295 159.173 75.9988 158.1 75.9988H126.356C125.283 75.9988 124.414 75.1295 124.414 74.0572L122.473 57.3598Z" fill="#242424"/>
<path d="M157.856 58.6326C157.908 58.0989 158.382 57.708 158.916 57.7594C159.449 57.8109 159.84 58.2852 159.789 58.8189L159.509 61.7178C159.458 62.2515 158.983 62.6424 158.45 62.5909C157.916 62.5395 157.525 62.0651 157.577 61.5315L157.856 58.6326Z" fill="#444444"/>
<path d="M158.136 58.7567C158.172 58.3832 158.504 58.1095 158.878 58.1455C159.251 58.1815 159.525 58.5136 159.489 58.8872C159.453 59.2607 159.121 59.5344 158.747 59.4984C158.374 59.4623 158.1 59.1303 158.136 58.7567Z" fill="white"/>
<path d="M157.913 61.0758C157.949 60.7023 158.281 60.4286 158.655 60.4646C159.028 60.5006 159.302 60.8327 159.266 61.2062C159.23 61.5798 158.898 61.8535 158.525 61.8174C158.151 61.7814 157.877 61.4494 157.913 61.0758Z" fill="#B9B9B9"/>
<path d="M164.851 68.6378C164.449 66.8776 162.289 64.5516 161.809 63.3378C161.278 61.4976 160.86 62.4344 160.804 63.2885C160.748 64.1426 161.56 66.4357 161.285 67.3926C160.948 68.5661 157.942 68.5733 155.685 68.8052C154.786 69.0001 154.989 70.1684 155.877 70.0966C155.259 70.4733 155.469 71.5177 156.05 71.6346C155.248 71.849 155.46 72.8939 155.932 73.1142C155.322 73.3671 155.544 74.2887 155.834 74.3471C157.42 74.9922 159.011 75.2523 159.497 75.3226C159.983 75.3929 161.567 75.2504 161.567 75.2504L164.993 74.2582C166.284 73.5961 166.347 71.1143 165.932 69.9859C165.728 69.4302 165.198 70.153 164.851 68.6378Z" fill="url(#paint12_linear_29914_67077)"/>
<g opacity="0.5" filter="url(#filter3_f_29914_67077)">
<path fill-rule="evenodd" clip-rule="evenodd" d="M155.603 70.3511C156.981 70.4034 158.154 70.5403 159.435 70.3738C159.677 70.3509 159.644 70.0191 159.397 70.0511C158.132 70.2155 157.712 70.1669 156.331 70.1146C155.94 70.0887 155.835 70.1644 155.603 70.3511ZM155.968 72.1104C157.59 72.5234 158.325 72.7204 159.755 72.6177L159.88 72.6088C160.082 72.514 160.03 72.314 159.853 72.285L159.728 72.294C158.331 72.3942 157.694 72.3484 156.075 71.9363C155.881 71.8742 155.633 71.8991 155.968 72.1104ZM155.654 73.6741C157.271 74.3557 158.318 74.6807 159.942 74.4955C160.091 74.4805 160.128 74.2239 159.907 74.1725C158.334 74.3518 157.924 74.3859 156.316 73.7083C155.781 73.4771 155.62 73.4574 155.654 73.6741Z" fill="#333333"/>
</g>
<path d="M101.475 39.0024C101.465 38.8999 101.588 38.84 101.662 38.9112L102.313 39.5324C102.336 39.5548 102.368 39.5658 102.4 39.5626L103.295 39.4734C103.398 39.4632 103.458 39.586 103.386 39.6604L102.765 40.3107C102.743 40.3341 102.732 40.3661 102.735 40.3983L102.824 41.2932C102.834 41.3957 102.712 41.4556 102.637 41.3844L101.987 40.7632C101.964 40.7408 101.932 40.7298 101.899 40.733L101.004 40.8222C100.902 40.8324 100.842 40.7096 100.913 40.6352L101.534 39.9849C101.557 39.9615 101.568 39.9295 101.565 39.8973L101.475 39.0024Z" stroke="#FFEFF5" stroke-width="0.292052"/>
<path d="M120.514 19.8358C120.584 19.7603 120.71 19.8127 120.706 19.9156L120.671 20.8143C120.67 20.8466 120.682 20.8779 120.706 20.8999L121.365 21.5117C121.441 21.5817 121.389 21.7079 121.286 21.7038L120.387 21.6686C120.355 21.6673 120.323 21.6802 120.301 21.704L119.69 22.3632C119.62 22.4387 119.493 22.3863 119.497 22.2834L119.533 21.3848C119.534 21.3524 119.521 21.3211 119.497 21.2991L118.838 20.6874C118.763 20.6173 118.815 20.4912 118.918 20.4952L119.817 20.5305C119.849 20.5317 119.88 20.5188 119.902 20.4951L120.514 19.8358Z" stroke="#FFEFF5" stroke-width="0.292052"/>
<path d="M170.75 41.551C170.786 41.4544 170.923 41.4544 170.958 41.551L171.27 42.3944C171.282 42.4247 171.306 42.4487 171.336 42.4599L172.179 42.772C172.276 42.8078 172.276 42.9444 172.179 42.9801L171.336 43.2922C171.306 43.3034 171.282 43.3274 171.27 43.3577L170.958 44.2012C170.923 44.2978 170.786 44.2978 170.75 44.2012L170.438 43.3577C170.427 43.3274 170.403 43.3034 170.373 43.2922L169.529 42.9801C169.433 42.9444 169.433 42.8078 169.529 42.772L170.373 42.4599C170.403 42.4487 170.427 42.4247 170.438 42.3944L170.75 41.551Z" stroke="#FFEFF5" stroke-width="0.292052"/>
<path d="M199.504 68.2812C199.54 68.1846 199.677 68.1846 199.712 68.2812L200.024 69.1246C200.036 69.155 200.06 69.1789 200.09 69.1901L200.933 69.5022C201.03 69.538 201.03 69.6746 200.933 69.7103L200.09 70.0224C200.06 70.0337 200.036 70.0576 200.024 70.088L199.712 70.9314C199.677 71.028 199.54 71.028 199.504 70.9314L199.192 70.088C199.181 70.0576 199.157 70.0337 199.127 70.0224L198.283 69.7103C198.187 69.6746 198.187 69.538 198.283 69.5022L199.127 69.1901C199.157 69.1789 199.181 69.155 199.192 69.1246L199.504 68.2812Z" stroke="#FFEFF5" stroke-width="0.292052"/>
<path d="M213.914 24.4724C213.902 24.3701 214.024 24.3082 214.099 24.3781L214.76 24.9884C214.784 25.0104 214.816 25.0209 214.848 25.0172L215.741 24.9131C215.843 24.9012 215.905 25.023 215.835 25.0986L215.225 25.7591C215.203 25.7828 215.193 25.815 215.196 25.8472L215.3 26.7405C215.312 26.8428 215.191 26.9047 215.115 26.8348L214.454 26.2244C214.431 26.2024 214.399 26.1919 214.366 26.1957L213.473 26.2997C213.371 26.3117 213.309 26.1899 213.379 26.1142L213.989 25.4538C214.011 25.43 214.022 25.3978 214.018 25.3657L213.914 24.4724Z" stroke="#FFEFF5" stroke-width="0.292052"/>
<path d="M154.082 8.58816C154.138 8.50114 154.271 8.52962 154.286 8.63153L154.415 9.52149C154.42 9.55353 154.439 9.58194 154.466 9.59926L155.226 10.0803C155.313 10.1354 155.284 10.269 155.182 10.2838L154.292 10.4133C154.26 10.4179 154.232 10.4363 154.215 10.4637L153.734 11.2235C153.678 11.3105 153.545 11.2821 153.53 11.1801L153.401 10.2902C153.396 10.2582 153.378 10.2297 153.35 10.2124L152.59 9.73137C152.503 9.67628 152.532 9.54267 152.634 9.52785L153.524 9.39843C153.556 9.39377 153.584 9.37535 153.601 9.34799L154.082 8.58816Z" stroke="#FFEFF5" stroke-width="0.292052"/>
<path d="M173.002 19.8599C173.002 19.0382 173.668 18.3721 174.49 18.3721H201.271C202.093 18.3721 202.759 19.0382 202.759 19.8599V38.0861C202.759 38.9078 202.093 39.5739 201.271 39.5739H174.49C173.668 39.5739 173.002 38.9078 173.002 38.0861V19.8599Z" fill="#434343"/>
<rect x="173.561" y="18" width="29.757" height="21.2019" rx="1.48785" fill="url(#paint13_linear_29914_67077)"/>
<path d="M173.561 19.4878C173.561 18.6661 174.227 18 175.048 18H201.83C202.651 18 203.318 18.6661 203.318 19.4879V21.7196H173.561V19.4878Z" fill="#706B6B"/>
<circle cx="188.251" cy="29.7167" r="5.39346" fill="#FF6161"/>
<path d="M190.987 30.4531C191.439 30.2085 191.439 29.5969 190.987 29.3523L187.135 27.0131C186.683 26.7685 186.119 27.0743 186.119 27.5635V32.2419C186.119 32.7312 186.683 33.0369 187.135 32.7923L190.987 30.4531Z" fill="white"/>
<path d="M193.832 20.0459C193.832 20.5594 193.416 20.9758 192.903 20.9758C192.389 20.9758 191.973 20.5594 191.973 20.0459C191.973 19.5323 192.389 19.116 192.903 19.116C193.416 19.116 193.832 19.5323 193.832 20.0459Z" fill="#70C253"/>
<path d="M196.995 20.0459C196.995 20.5594 196.578 20.9758 196.065 20.9758C195.551 20.9758 195.135 20.5594 195.135 20.0459C195.135 19.5323 195.551 19.116 196.065 19.116C196.578 19.116 196.995 19.5323 196.995 20.0459Z" fill="#FFB017"/>
<path d="M200.157 20.0459C200.157 20.5594 199.74 20.9758 199.227 20.9758C198.713 20.9758 198.297 20.5594 198.297 20.0459C198.297 19.5323 198.713 19.116 199.227 19.116C199.74 19.116 200.157 19.5323 200.157 20.0459Z" fill="#FF6161"/>
<path fill-rule="evenodd" clip-rule="evenodd" d="M84.9668 58.9915L98.3852 48.5324C95.4886 44.834 90.1449 44.1561 86.4465 47.0527C82.7309 49.9488 82.0702 55.293 84.9668 58.9915ZM85.7659 55.3192C85.1648 53.0315 85.9467 50.4934 87.919 48.9543C89.909 47.3985 92.5434 47.2721 94.6234 48.4183L85.7659 55.3192Z" fill="url(#paint14_linear_29914_67077)"/>
<path d="M97.3988 49.2763L97.5398 49.1602L96.845 48.2623L96.7039 48.3784L97.3988 49.2763Z" fill="url(#paint15_linear_29914_67077)"/>
<path d="M96.4305 50.0208L96.5711 49.9219L95.8762 49.024L95.7357 49.1229L96.4305 50.0208Z" fill="url(#paint16_linear_29914_67077)"/>
<path d="M95.4613 50.7819L95.6023 50.6658L94.9075 49.7679L94.7664 49.884L95.4613 50.7819Z" fill="url(#paint17_linear_29914_67077)"/>
<path d="M94.4925 51.5439L94.6336 51.4278L93.9387 50.5299L93.7982 50.6288L94.4925 51.5439Z" fill="url(#paint18_linear_29914_67077)"/>
<path d="M93.5257 52.2883L93.6663 52.1894L92.9719 51.2743L92.8308 51.3903L93.5257 52.2883Z" fill="url(#paint19_linear_29914_67077)"/>
<path d="M92.557 53.0495L92.698 52.9334L92.0032 52.0355L91.8621 52.1516L92.557 53.0495Z" fill="url(#paint20_linear_29914_67077)"/>
<path d="M91.5887 53.7938L91.7293 53.6949L91.0344 52.797L90.8939 52.8959L91.5887 53.7938Z" fill="url(#paint21_linear_29914_67077)"/>
<path d="M90.6175 54.5551L90.7581 54.4562L90.0637 53.5411L89.9226 53.6572L90.6175 54.5551Z" fill="url(#paint22_linear_29914_67077)"/>
<path d="M89.6507 55.3166L89.7918 55.2005L89.0969 54.3026L88.9558 54.4187L89.6507 55.3166Z" fill="url(#paint23_linear_29914_67077)"/>
<path d="M88.6825 56.0614L88.823 55.9625L88.1282 55.0645L87.9876 55.1634L88.6825 56.0614Z" fill="url(#paint24_linear_29914_67077)"/>
<path d="M87.7132 56.8224L87.8543 56.7064L87.1594 55.8084L87.0183 55.9245L87.7132 56.8224Z" fill="url(#paint25_linear_29914_67077)"/>
<path d="M86.7445 57.5844L86.8855 57.4683L86.1907 56.5704L86.0501 56.6693L86.7445 57.5844Z" fill="url(#paint26_linear_29914_67077)"/>
<path d="M85.7762 58.3282L85.9168 58.2293L85.2219 57.3314L85.0814 57.4303L85.7762 58.3282Z" fill="url(#paint27_linear_29914_67077)"/>
<path opacity="0.2" d="M95.5901 46.6075C91.6695 44.924 88.7447 46.1248 87.6255 46.7442C87.3455 46.9076 87.2658 47.2662 87.4475 47.5124C87.4586 47.5242 87.4641 47.5302 87.4641 47.5302C87.6291 47.7587 87.9201 47.8019 88.1647 47.6718C91.1401 45.9395 94.1284 47.1821 95.043 47.6397C95.2293 47.7313 95.436 47.7204 95.6119 47.5882L95.6999 47.5221C96.0169 47.2738 95.9461 46.773 95.5901 46.6075Z" fill="white"/>
<path d="M165.176 16.295L165.74 17.8004C165.898 17.8251 166.047 17.8097 166.189 17.7543L166.466 16.1538L165.176 16.295Z" fill="url(#paint28_linear_29914_67077)"/>
<path opacity="0.2" d="M166.002 17.5623L166.048 16.4062L166.284 16.3723L166.124 17.5484L166.002 17.5623Z" fill="white"/>
<path d="M165.701 7.73824C165.7 7.72934 165.699 7.72488 165.699 7.72488C165.689 7.60204 165.318 7.54971 164.869 7.59581C164.421 7.64192 164.073 7.77922 164.083 7.90206C164.083 7.90206 164.084 7.90652 164.086 7.91542L165.008 16.3203C165.004 16.3256 165.002 16.3283 165.002 16.3283C165.058 16.47 165.418 16.5383 165.84 16.4975C166.259 16.4432 166.599 16.3005 166.618 16.1511C166.616 16.1422 166.617 16.1351 166.621 16.1298L165.701 7.73824Z" fill="url(#paint29_linear_29914_67077)"/>
<path opacity="0.3" d="M165.786 8.49174L165.781 8.49972C165.784 8.4944 165.785 8.48728 165.784 8.47838C165.773 8.39024 165.475 8.35157 165.093 8.38461C165.046 8.38441 165.001 8.38867 164.956 8.39737C164.91 8.39717 164.865 8.40142 164.82 8.41013C164.436 8.46452 164.158 8.56742 164.168 8.65556C164.17 8.66446 164.17 8.66891 164.17 8.66891L164.938 15.7517C164.938 15.7517 164.94 15.7535 164.946 15.7571C164.985 15.8534 165.274 15.908 165.637 15.8856C165.678 15.8822 165.723 15.878 165.773 15.8728C165.819 15.873 165.865 15.8688 165.909 15.8601C166.259 15.8055 166.534 15.6893 166.554 15.5746C166.557 15.5692 166.556 15.5648 166.551 15.5612L165.786 8.49174Z" fill="white"/>
<path d="M166.619 16.151L166.622 16.1292C166.619 16.1346 166.618 16.1419 166.619 16.151Z" fill="url(#paint30_linear_29914_67077)"/>
<path d="M165.008 16.3206L164.995 16.2885C164.997 16.2974 164.998 16.3018 164.998 16.3018C164.999 16.3107 165.003 16.317 165.008 16.3206Z" fill="url(#paint31_linear_29914_67077)"/>
<path d="M165.074 9.5323C164.911 9.55028 164.787 9.69924 164.813 9.86753L165.288 14.2823C165.306 14.4452 165.455 14.5686 165.626 14.556C165.794 14.5301 165.918 14.3811 165.9 14.2182L165.417 9.79807C165.399 9.63515 165.25 9.51171 165.074 9.5323Z" fill="url(#paint32_linear_29914_67077)"/>
<path d="M106.448 26.7388L107.54 28.0222C107.481 28.1803 107.396 28.313 107.263 28.4149L105.658 27.8565L106.448 26.7388Z" fill="url(#paint33_linear_29914_67077)"/>
<path d="M98.2976 22.8742L98.2954 22.8643C98.2889 22.8657 98.2815 22.8639 98.2735 22.8587C98.1748 22.7872 98.3105 22.4151 98.589 22.0323C98.8554 21.6418 99.1622 21.3876 99.2609 21.4591C99.269 21.4643 99.2737 21.4701 99.2752 21.4767L106.551 26.5912C106.559 26.5963 106.563 26.5989 106.563 26.5989C106.66 26.7122 106.544 27.0799 106.284 27.4484C106.033 27.8148 105.721 28.0493 105.585 27.9963C105.571 27.9926 105.563 27.9875 105.561 27.9809L98.2976 22.8742Z" fill="url(#paint34_linear_29914_67077)"/>
<path d="M98.9479 23.3333C98.9479 23.3333 98.9439 23.3308 98.9359 23.3256C98.8613 23.2695 98.9727 22.9754 99.1984 22.6353C99.2241 22.5951 99.2498 22.5549 99.2755 22.5146C99.3012 22.4744 99.3309 22.4368 99.3646 22.4017C99.6046 22.0792 99.8487 21.8699 99.9233 21.926C99.9247 21.9326 99.9288 21.9352 99.9354 21.9337L106.059 26.2446C106.059 26.2446 106.06 26.2479 106.061 26.2545C106.133 26.3424 106.041 26.6322 105.833 26.958C105.807 26.9982 105.782 27.0385 105.756 27.0787C105.729 27.1123 105.699 27.15 105.667 27.1916C105.432 27.4922 105.194 27.6795 105.082 27.642C105.075 27.6435 105.068 27.6416 105.06 27.6365L98.9479 23.3333Z" fill="url(#paint35_linear_29914_67077)"/>
<path d="M106.562 26.5999C106.562 26.5999 106.558 26.5968 106.548 26.5906L106.562 26.5999Z" fill="url(#paint36_linear_29914_67077)"/>
<path d="M105.574 27.9986L105.559 27.9805C105.561 27.9873 105.569 27.9926 105.584 27.9963L105.574 27.9986Z" fill="url(#paint37_linear_29914_67077)"/>
<path d="M106.551 26.5923L106.526 26.5764C106.533 26.575 106.537 26.5776 106.538 26.5844C106.545 26.5829 106.549 26.5855 106.551 26.5923Z" fill="url(#paint38_linear_29914_67077)"/>
<path d="M100.258 23.2097C100.36 23.0627 100.56 23.029 100.707 23.1314L104.525 25.8251C104.67 25.9176 104.706 26.1274 104.601 26.2645C104.509 26.4093 104.299 26.4452 104.162 26.3406L100.336 23.659C100.199 23.5544 100.155 23.3567 100.258 23.2097Z" fill="url(#paint39_linear_29914_67077)"/>
<path opacity="0.2" d="M107.35 28.1065L106.437 27.3022L106.566 27.0872L107.42 27.9979L107.35 28.1065Z" fill="white"/>
<path d="M184.352 58.8633L183.011 60.6668C183.101 60.8705 183.232 61.0346 183.404 61.1591L185.494 60.2721L184.352 58.8633Z" fill="url(#paint40_linear_29914_67077)"/>
<path opacity="0.2" d="M183.424 60.8202L184.817 59.9981L185.035 60.2496L183.533 60.9526L183.424 60.8202Z" fill="white"/>
<path d="M194.804 53.0018C194.814 52.993 194.818 52.9886 194.818 52.9886C194.955 52.8837 194.735 52.4083 194.342 51.9161C193.948 51.4238 193.523 51.1193 193.386 51.2242C193.386 51.2242 193.382 51.2286 193.373 51.2374L184.195 58.6853C184.186 58.6851 184.182 58.685 184.182 58.685C184.057 58.8575 184.25 59.3323 184.617 59.7971C184.998 60.2487 185.423 60.5398 185.614 60.4494C185.623 60.4406 185.632 60.4363 185.641 60.4364L194.804 53.0018Z" fill="url(#paint41_linear_29914_67077)"/>
<path opacity="0.3" d="M193.981 53.6714L193.968 53.6712C193.977 53.6713 193.986 53.667 193.995 53.6582C194.091 53.5794 193.91 53.199 193.582 52.7753C193.547 52.7208 193.508 52.6707 193.464 52.625C193.429 52.5705 193.39 52.5203 193.346 52.4746C192.991 52.0639 192.659 51.815 192.563 51.8939C192.554 51.9027 192.55 51.9071 192.55 51.9071L184.809 58.1723C184.809 58.1723 184.809 58.1768 184.808 58.1857C184.725 58.3052 184.879 58.685 185.181 59.0947C185.216 59.1403 185.255 59.1904 185.299 59.2451C185.334 59.2996 185.373 59.3498 185.417 59.3955C185.746 59.7654 186.091 60.001 186.24 59.9367C186.249 59.9368 186.254 59.9324 186.254 59.9235L193.981 53.6714Z" fill="white"/>
<path d="M185.615 60.45L185.643 60.4368C185.634 60.4366 185.624 60.441 185.615 60.45Z" fill="url(#paint42_linear_29914_67077)"/>
<path d="M184.195 58.6854L184.222 58.6456C184.213 58.6543 184.209 58.6587 184.209 58.6587C184.199 58.6675 184.195 58.6764 184.195 58.6854Z" fill="url(#paint43_linear_29914_67077)"/>
<path d="M192.222 53.623C192.077 53.4452 191.809 53.413 191.631 53.5709L186.803 57.4717C186.625 57.6162 186.593 57.8847 186.737 58.076C186.895 58.2541 187.163 58.2863 187.341 58.1418L192.169 54.2275C192.347 54.083 192.379 53.8145 192.222 53.623Z" fill="url(#paint44_linear_29914_67077)"/>
<path opacity="0.6" d="M182.267 11.0684C182.669 11.0346 182.862 10.5946 182.614 10.2766L180.578 7.38161C180.33 7.06355 179.828 7.1059 179.674 7.45785L178.202 10.8233C178.048 11.1753 178.358 11.5728 178.76 11.539L182.267 11.0684Z" stroke="white" stroke-width="0.292052" stroke-dasharray="0.58 0.58"/>
<path opacity="0.6" d="M207.468 59.2857C207.211 58.6942 207.482 58.0059 208.073 57.7484L211.019 56.4662C211.61 56.2087 212.299 56.4795 212.556 57.0711L213.838 60.0167C214.096 60.6083 213.825 61.2966 213.233 61.5541L210.288 62.8362C209.696 63.0937 209.008 62.8229 208.75 62.2313L207.468 59.2857Z" stroke="white" stroke-width="0.292052" stroke-dasharray="0.58 0.58"/>
<path opacity="0.7" d="M122.572 7.09061C122.803 6.48828 123.479 6.18744 124.081 6.41867L129.124 8.3548C129.727 8.58602 130.028 9.26175 129.796 9.86407L128.645 12.8632C128.414 13.4656 127.738 13.7664 127.136 13.5352L122.092 11.5991C121.49 11.3678 121.189 10.6921 121.42 10.0898L122.572 7.09061Z" stroke="white" stroke-width="0.292052" stroke-dasharray="0.58 0.58"/>
<circle opacity="0.7" cx="107.514" cy="66.425" r="2.33641" stroke="white" stroke-width="0.292052" stroke-dasharray="0.58 0.58"/>
<g opacity="0.8" filter="url(#filter4_f_29914_67077)">
<circle cx="61.0003" cy="68.0002" r="3.00027" transform="rotate(-90 61.0003 68.0002)" fill="white"/>
</g>
<path d="M58.6185 68.4692C58.4938 68.4214 58.4938 68.245 58.6185 68.1972L60.1978 67.5919C60.2374 67.5767 60.2685 67.5449 60.2828 67.5049L60.8619 65.884C60.908 65.7551 61.0902 65.7551 61.1362 65.884L61.7154 67.5049C61.7297 67.5449 61.7607 67.5767 61.8004 67.5919L63.3796 68.1972C63.5043 68.245 63.5043 68.4214 63.3796 68.4692L61.8004 69.0744C61.7607 69.0896 61.7297 69.1214 61.7154 69.1614L61.1362 70.7824C61.0902 70.9112 60.908 70.9112 60.8619 70.7824L60.2828 69.1614C60.2685 69.1214 60.2374 69.0896 60.1978 69.0744L58.6185 68.4692Z" fill="#FFEF5C"/>
<g opacity="0.8" filter="url(#filter5_f_29914_67077)">
<circle cx="106" cy="85.0002" r="3.00027" transform="rotate(-90 106 85.0002)" fill="white"/>
</g>
<path d="M103.619 85.4692C103.494 85.4214 103.494 85.245 103.619 85.1972L105.198 84.5919C105.237 84.5767 105.269 84.5449 105.283 84.5049L105.862 82.884C105.908 82.7551 106.09 82.7551 106.136 82.884L106.715 84.5049C106.73 84.5449 106.761 84.5767 106.8 84.5919L108.38 85.1972C108.504 85.245 108.504 85.4214 108.38 85.4692L106.8 86.0744C106.761 86.0896 106.73 86.1214 106.715 86.1614L106.136 87.7824C106.09 87.9112 105.908 87.9112 105.862 87.7824L105.283 86.1614C105.269 86.1214 105.237 86.0896 105.198 86.0744L103.619 85.4692Z" fill="#FFEF5C"/>
<g opacity="0.8" filter="url(#filter6_f_29914_67077)">
<circle cx="233" cy="17.0002" r="3.00027" transform="rotate(-90 233 17.0002)" fill="white"/>
</g>
<path d="M230.619 17.4692C230.494 17.4214 230.494 17.245 230.619 17.1972L232.198 16.5919C232.237 16.5767 232.269 16.5449 232.283 16.5049L232.862 14.884C232.908 14.7551 233.09 14.7551 233.136 14.884L233.715 16.5049C233.73 16.5449 233.761 16.5767 233.8 16.5919L235.38 17.1972C235.504 17.245 235.504 17.4214 235.38 17.4692L233.8 18.0744C233.761 18.0896 233.73 18.1214 233.715 18.1614L233.136 19.7824C233.09 19.9112 232.908 19.9112 232.862 19.7824L232.283 18.1614C232.269 18.1214 232.237 18.0896 232.198 18.0744L230.619 17.4692Z" fill="#FFEF5C"/>
<g opacity="0.8" filter="url(#filter7_f_29914_67077)">
<circle cx="233.002" cy="87.0002" r="3.00027" transform="rotate(-90 233.002 87.0002)" fill="white"/>
</g>
<path d="M230.62 87.4692C230.496 87.4214 230.496 87.245 230.62 87.1972L232.2 86.5919C232.239 86.5767 232.27 86.5449 232.285 86.5049L232.864 84.884C232.91 84.7551 233.092 84.7551 233.138 84.884L233.717 86.5049C233.732 86.5449 233.763 86.5767 233.802 86.5919L235.382 87.1972C235.506 87.245 235.506 87.4214 235.382 87.4692L233.802 88.0744C233.763 88.0896 233.732 88.1214 233.717 88.1614L233.138 89.7824C233.092 89.9112 232.91 89.9112 232.864 89.7824L232.285 88.1614C232.27 88.1214 232.239 88.0896 232.2 88.0744L230.62 87.4692Z" fill="#FFEF5C"/>
<g opacity="0.8" filter="url(#filter8_f_29914_67077)">
<circle cx="180" cy="68.0002" r="3.00027" transform="rotate(-90 180 68.0002)" fill="white"/>
</g>
<path d="M177.619 68.4692C177.494 68.4214 177.494 68.245 177.619 68.1972L179.198 67.5919C179.237 67.5767 179.269 67.5449 179.283 67.5049L179.862 65.884C179.908 65.7551 180.09 65.7551 180.136 65.884L180.715 67.5049C180.73 67.5449 180.761 67.5767 180.8 67.5919L182.38 68.1972C182.504 68.245 182.504 68.4214 182.38 68.4692L180.8 69.0744C180.761 69.0896 180.73 69.1214 180.715 69.1614L180.136 70.7824C180.09 70.9112 179.908 70.9112 179.862 70.7824L179.283 69.1614C179.269 69.1214 179.237 69.0896 179.198 69.0744L177.619 68.4692Z" fill="#FFEF5C"/>
<g opacity="0.8" filter="url(#filter9_f_29914_67077)">
<circle cx="215.002" cy="45.0002" r="3.00027" transform="rotate(-90 215.002 45.0002)" fill="white"/>
</g>
<path d="M212.62 45.4692C212.496 45.4214 212.496 45.245 212.62 45.1972L214.2 44.5919C214.239 44.5767 214.27 44.5449 214.285 44.5049L214.864 42.884C214.91 42.7551 215.092 42.7551 215.138 42.884L215.717 44.5049C215.732 44.5449 215.763 44.5767 215.802 44.5919L217.382 45.1972C217.506 45.245 217.506 45.4214 217.382 45.4692L215.802 46.0744C215.763 46.0896 215.732 46.1214 215.717 46.1614L215.138 47.7824C215.092 47.9112 214.91 47.9112 214.864 47.7824L214.285 46.1614C214.27 46.1214 214.239 46.0896 214.2 46.0744L212.62 45.4692Z" fill="#FFEF5C"/>
<g opacity="0.8" filter="url(#filter10_f_29914_67077)">
<circle cx="111" cy="47.0002" r="3.00027" transform="rotate(-90 111 47.0002)" fill="white"/>
</g>
<path d="M108.619 47.4692C108.494 47.4214 108.494 47.245 108.619 47.1972L110.198 46.5919C110.237 46.5767 110.269 46.5449 110.283 46.5049L110.862 44.884C110.908 44.7551 111.09 44.7551 111.136 44.884L111.715 46.5049C111.73 46.5449 111.761 46.5767 111.8 46.5919L113.38 47.1972C113.504 47.245 113.504 47.4214 113.38 47.4692L111.8 48.0744C111.761 48.0896 111.73 48.1214 111.715 48.1614L111.136 49.7824C111.09 49.9112 110.908 49.9112 110.862 49.7824L110.283 48.1614C110.269 48.1214 110.237 48.0896 110.198 48.0744L108.619 47.4692Z" fill="#FFEF5C"/>
<g opacity="0.8" filter="url(#filter11_f_29914_67077)">
<circle cx="75.0003" cy="25.0002" r="3.00027" transform="matrix(0 -1 1 0 50 100)" fill="white"/>
</g>
<path d="M72.6185 25.4692C72.4938 25.4214 72.4938 25.245 72.6185 25.1972L74.1978 24.5919C74.2374 24.5767 74.2685 24.5449 74.2828 24.5049L74.8619 22.884C74.908 22.7551 75.0902 22.7551 75.1362 22.884L75.7154 24.5049C75.7297 24.5449 75.7607 24.5767 75.8004 24.5919L77.3796 25.1972C77.5043 25.245 77.5043 25.4214 77.3796 25.4692L75.8004 26.0744C75.7607 26.0896 75.7297 26.1214 75.7154 26.1614L75.1362 27.7824C75.0902 27.9112 74.908 27.9112 74.8619 27.7824L74.2828 26.1614C74.2685 26.1214 74.2374 26.0896 74.1978 26.0744L72.6185 25.4692Z" fill="#FFEF5C"/>
</g>
<defs>
<filter id="filter0_f_29914_67077" x="115.275" y="108.323" width="65.7114" height="13.1423" filterUnits="userSpaceOnUse" color-interpolation-filters="sRGB">
<feFlood flood-opacity="0" result="BackgroundImageFix"/>
<feBlend mode="normal" in="SourceGraphic" in2="BackgroundImageFix" result="shape"/>
<feGaussianBlur stdDeviation="0.584104" result="effect1_foregroundBlur_29914_67077"/>
</filter>
<filter id="filter1_f_29914_67077" x="132.697" y="51.6065" width="5.38555" height="4.14923" filterUnits="userSpaceOnUse" color-interpolation-filters="sRGB">
<feFlood flood-opacity="0" result="BackgroundImageFix"/>
<feBlend mode="normal" in="SourceGraphic" in2="BackgroundImageFix" result="shape"/>
<feGaussianBlur stdDeviation="0.101759" result="effect1_foregroundBlur_29914_67077"/>
</filter>
<filter id="filter2_f_29914_67077" x="134.299" y="49.4151" width="5.69375" height="6.19571" filterUnits="userSpaceOnUse" color-interpolation-filters="sRGB">
<feFlood flood-opacity="0" result="BackgroundImageFix"/>
<feBlend mode="normal" in="SourceGraphic" in2="BackgroundImageFix" result="shape"/>
<feGaussianBlur stdDeviation="0.0508797" result="effect1_foregroundBlur_29914_67077"/>
</filter>
<filter id="filter3_f_29914_67077" x="155.196" y="69.642" width="5.27306" height="5.31188" filterUnits="userSpaceOnUse" color-interpolation-filters="sRGB">
<feFlood flood-opacity="0" result="BackgroundImageFix"/>
<feBlend mode="normal" in="SourceGraphic" in2="BackgroundImageFix" result="shape"/>
<feGaussianBlur stdDeviation="0.203519" result="effect1_foregroundBlur_29914_67077"/>
</filter>
<filter id="filter4_f_29914_67077" x="53.7643" y="60.7643" width="14.4713" height="14.4718" filterUnits="userSpaceOnUse" color-interpolation-filters="sRGB">
<feFlood flood-opacity="0" result="BackgroundImageFix"/>
<feBlend mode="normal" in="SourceGraphic" in2="BackgroundImageFix" result="shape"/>
<feGaussianBlur stdDeviation="2.11784" result="effect1_foregroundBlur_29914_67077"/>
</filter>
<filter id="filter5_f_29914_67077" x="98.7643" y="77.7643" width="14.4713" height="14.4718" filterUnits="userSpaceOnUse" color-interpolation-filters="sRGB">
<feFlood flood-opacity="0" result="BackgroundImageFix"/>
<feBlend mode="normal" in="SourceGraphic" in2="BackgroundImageFix" result="shape"/>
<feGaussianBlur stdDeviation="2.11784" result="effect1_foregroundBlur_29914_67077"/>
</filter>
<filter id="filter6_f_29914_67077" x="225.764" y="9.76433" width="14.4713" height="14.4718" filterUnits="userSpaceOnUse" color-interpolation-filters="sRGB">
<feFlood flood-opacity="0" result="BackgroundImageFix"/>
<feBlend mode="normal" in="SourceGraphic" in2="BackgroundImageFix" result="shape"/>
<feGaussianBlur stdDeviation="2.11784" result="effect1_foregroundBlur_29914_67077"/>
</filter>
<filter id="filter7_f_29914_67077" x="225.766" y="79.7643" width="14.4713" height="14.4718" filterUnits="userSpaceOnUse" color-interpolation-filters="sRGB">
<feFlood flood-opacity="0" result="BackgroundImageFix"/>
<feBlend mode="normal" in="SourceGraphic" in2="BackgroundImageFix" result="shape"/>
<feGaussianBlur stdDeviation="2.11784" result="effect1_foregroundBlur_29914_67077"/>
</filter>
<filter id="filter8_f_29914_67077" x="172.764" y="60.7643" width="14.4713" height="14.4718" filterUnits="userSpaceOnUse" color-interpolation-filters="sRGB">
<feFlood flood-opacity="0" result="BackgroundImageFix"/>
<feBlend mode="normal" in="SourceGraphic" in2="BackgroundImageFix" result="shape"/>
<feGaussianBlur stdDeviation="2.11784" result="effect1_foregroundBlur_29914_67077"/>
</filter>
<filter id="filter9_f_29914_67077" x="207.766" y="37.7643" width="14.4713" height="14.4718" filterUnits="userSpaceOnUse" color-interpolation-filters="sRGB">
<feFlood flood-opacity="0" result="BackgroundImageFix"/>
<feBlend mode="normal" in="SourceGraphic" in2="BackgroundImageFix" result="shape"/>
<feGaussianBlur stdDeviation="2.11784" result="effect1_foregroundBlur_29914_67077"/>
</filter>
<filter id="filter10_f_29914_67077" x="103.764" y="39.7643" width="14.4713" height="14.4718" filterUnits="userSpaceOnUse" color-interpolation-filters="sRGB">
<feFlood flood-opacity="0" result="BackgroundImageFix"/>
<feBlend mode="normal" in="SourceGraphic" in2="BackgroundImageFix" result="shape"/>
<feGaussianBlur stdDeviation="2.11784" result="effect1_foregroundBlur_29914_67077"/>
</filter>
<filter id="filter11_f_29914_67077" x="67.7643" y="17.7643" width="14.4713" height="14.4718" filterUnits="userSpaceOnUse" color-interpolation-filters="sRGB">
<feFlood flood-opacity="0" result="BackgroundImageFix"/>
<feBlend mode="normal" in="SourceGraphic" in2="BackgroundImageFix" result="shape"/>
<feGaussianBlur stdDeviation="2.11784" result="effect1_foregroundBlur_29914_67077"/>
</filter>
<radialGradient id="paint0_radial_29914_67077" cx="0" cy="0" r="1" gradientUnits="userSpaceOnUse" gradientTransform="translate(160 60) rotate(90) scale(88.4483 235.862)">
<stop stop-color="#9F7CFF"/>
<stop offset="1" stop-color="#7E54F1"/>
</radialGradient>
<linearGradient id="paint1_linear_29914_67077" x1="128.779" y1="60.3687" x2="103.318" y2="88.9979" gradientUnits="userSpaceOnUse">
<stop stop-color="#6F75FC"/>
<stop offset="1" stop-color="#3A3FA8"/>
</linearGradient>
<linearGradient id="paint2_linear_29914_67077" x1="143.305" y1="46.2785" x2="153.114" y2="114.431" gradientUnits="userSpaceOnUse">
<stop stop-color="#595FE2"/>
<stop offset="1" stop-color="#3A3FA8"/>
</linearGradient>
<linearGradient id="paint3_linear_29914_67077" x1="152.788" y1="56.5654" x2="162.922" y2="79.4004" gradientUnits="userSpaceOnUse">
<stop stop-color="#5C62E8"/>
<stop offset="1" stop-color="#6E72D5"/>
</linearGradient>
<linearGradient id="paint4_linear_29914_67077" x1="131.23" y1="105.472" x2="130.219" y2="116.973" gradientUnits="userSpaceOnUse">
<stop stop-color="#EA7E25"/>
<stop offset="1" stop-color="#FC861F"/>
</linearGradient>
<linearGradient id="paint5_linear_29914_67077" x1="159.24" y1="104.663" x2="161.778" y2="115.926" gradientUnits="userSpaceOnUse">
<stop stop-color="#EA7E25"/>
<stop offset="1" stop-color="#FC861F"/>
</linearGradient>
<linearGradient id="paint6_linear_29914_67077" x1="136.186" y1="67.4258" x2="122.09" y2="66.103" gradientUnits="userSpaceOnUse">
<stop stop-color="#4E54C8"/>
<stop offset="1" stop-color="#6369E1"/>
</linearGradient>
<linearGradient id="paint7_linear_29914_67077" x1="145.664" y1="45.037" x2="132.269" y2="50.125" gradientUnits="userSpaceOnUse">
<stop stop-color="#FFBC3F"/>
<stop offset="1" stop-color="#E07524"/>
</linearGradient>
<linearGradient id="paint8_linear_29914_67077" x1="137.804" y1="54.4409" x2="134.799" y2="49.5196" gradientUnits="userSpaceOnUse">
<stop stop-color="#FFBC3F"/>
<stop offset="1" stop-color="#F77C1F"/>
</linearGradient>
<linearGradient id="paint9_linear_29914_67077" x1="137.804" y1="54.4409" x2="134.799" y2="49.5196" gradientUnits="userSpaceOnUse">
<stop stop-color="#FFBC3F"/>
<stop offset="1" stop-color="#F77C1F"/>
</linearGradient>
<linearGradient id="paint10_linear_29914_67077" x1="137.804" y1="54.4409" x2="134.799" y2="49.5196" gradientUnits="userSpaceOnUse">
<stop stop-color="#FFBC3F"/>
<stop offset="1" stop-color="#F77C1F"/>
</linearGradient>
<linearGradient id="paint11_linear_29914_67077" x1="139.632" y1="53.0896" x2="137.08" y2="57.8543" gradientUnits="userSpaceOnUse">
<stop stop-color="#FFBC3F"/>
<stop offset="1" stop-color="#F77C1F"/>
</linearGradient>
<linearGradient id="paint12_linear_29914_67077" x1="160.511" y1="75.5476" x2="162.855" y2="63.9012" gradientUnits="userSpaceOnUse">
<stop stop-color="#F6741B"/>
<stop offset="1" stop-color="#FFBE40"/>
</linearGradient>
<linearGradient id="paint13_linear_29914_67077" x1="188.439" y1="18" x2="188.439" y2="39.2019" gradientUnits="userSpaceOnUse">
<stop stop-color="white"/>
<stop offset="1" stop-color="#E6FFFC"/>
</linearGradient>
<linearGradient id="paint14_linear_29914_67077" x1="90.9515" y1="45.2282" x2="90.5289" y2="59.1602" gradientUnits="userSpaceOnUse">
<stop stop-color="#8BC7FF"/>
<stop offset="1" stop-color="#3C8CD7"/>
</linearGradient>
<linearGradient id="paint15_linear_29914_67077" x1="98.8401" y1="50.5063" x2="96.9335" y2="47.6116" gradientUnits="userSpaceOnUse">
<stop stop-color="#FFE15B"/>
<stop offset="1" stop-color="#FF9E2A"/>
</linearGradient>
<linearGradient id="paint16_linear_29914_67077" x1="97.8224" y1="51.1806" x2="95.9158" y2="48.2859" gradientUnits="userSpaceOnUse">
<stop stop-color="#FFE15B"/>
<stop offset="1" stop-color="#FF9E2A"/>
</linearGradient>
<linearGradient id="paint17_linear_29914_67077" x1="96.787" y1="51.8537" x2="94.8809" y2="48.9418" gradientUnits="userSpaceOnUse">
<stop stop-color="#FFE15B"/>
<stop offset="1" stop-color="#FF9E2A"/>
</linearGradient>
<linearGradient id="paint18_linear_29914_67077" x1="95.7693" y1="52.5282" x2="93.8633" y2="49.6163" gradientUnits="userSpaceOnUse">
<stop stop-color="#FFE15B"/>
<stop offset="1" stop-color="#FF9E2A"/>
</linearGradient>
<linearGradient id="paint19_linear_29914_67077" x1="94.7531" y1="53.2023" x2="92.847" y2="50.2905" gradientUnits="userSpaceOnUse">
<stop stop-color="#FFE15B"/>
<stop offset="1" stop-color="#FF9E2A"/>
</linearGradient>
<linearGradient id="paint20_linear_29914_67077" x1="93.7182" y1="53.8756" x2="91.8121" y2="50.9637" gradientUnits="userSpaceOnUse">
<stop stop-color="#FFE15B"/>
<stop offset="1" stop-color="#FF9E2A"/>
</linearGradient>
<linearGradient id="paint21_linear_29914_67077" x1="92.7006" y1="54.5496" x2="90.7945" y2="51.6377" gradientUnits="userSpaceOnUse">
<stop stop-color="#FFE15B"/>
<stop offset="1" stop-color="#FF9E2A"/>
</linearGradient>
<linearGradient id="paint22_linear_29914_67077" x1="91.6809" y1="55.2063" x2="89.7743" y2="52.3116" gradientUnits="userSpaceOnUse">
<stop stop-color="#FFE15B"/>
<stop offset="1" stop-color="#FF9E2A"/>
</linearGradient>
<linearGradient id="paint23_linear_29914_67077" x1="90.648" y1="55.8798" x2="88.7414" y2="52.9851" gradientUnits="userSpaceOnUse">
<stop stop-color="#FFE15B"/>
<stop offset="1" stop-color="#FF9E2A"/>
</linearGradient>
<linearGradient id="paint24_linear_29914_67077" x1="89.6304" y1="56.5543" x2="87.7243" y2="53.6424" gradientUnits="userSpaceOnUse">
<stop stop-color="#FFE15B"/>
<stop offset="1" stop-color="#FF9E2A"/>
</linearGradient>
<linearGradient id="paint25_linear_29914_67077" x1="88.6122" y1="57.228" x2="86.7061" y2="54.3161" gradientUnits="userSpaceOnUse">
<stop stop-color="#FFE15B"/>
<stop offset="1" stop-color="#FF9E2A"/>
</linearGradient>
<linearGradient id="paint26_linear_29914_67077" x1="87.5773" y1="57.9019" x2="85.6712" y2="54.9901" gradientUnits="userSpaceOnUse">
<stop stop-color="#FFE15B"/>
<stop offset="1" stop-color="#FF9E2A"/>
</linearGradient>
<linearGradient id="paint27_linear_29914_67077" x1="86.5596" y1="58.5755" x2="84.6535" y2="55.6636" gradientUnits="userSpaceOnUse">
<stop stop-color="#FFE15B"/>
<stop offset="1" stop-color="#FF9E2A"/>
</linearGradient>
<linearGradient id="paint28_linear_29914_67077" x1="166.734" y1="17.5992" x2="166.621" y2="15.4577" gradientUnits="userSpaceOnUse">
<stop stop-color="#FE462C"/>
<stop offset="1" stop-color="#EF422A"/>
</linearGradient>
<linearGradient id="paint29_linear_29914_67077" x1="163.908" y1="7.64503" x2="163.856" y2="16.4274" gradientUnits="userSpaceOnUse">
<stop stop-color="#FF6F5B"/>
<stop offset="1" stop-color="#FB3418"/>
</linearGradient>
<linearGradient id="paint30_linear_29914_67077" x1="166.424" y1="16.1257" x2="166.421" y2="16.1474" gradientUnits="userSpaceOnUse">
<stop stop-color="#FE5086"/>
<stop offset="1" stop-color="#ED2F4D"/>
</linearGradient>
<linearGradient id="paint31_linear_29914_67077" x1="164.8" y1="16.2849" x2="164.808" y2="16.325" gradientUnits="userSpaceOnUse">
<stop stop-color="#FE5086"/>
<stop offset="1" stop-color="#ED2F4D"/>
</linearGradient>
<linearGradient id="paint32_linear_29914_67077" x1="166.181" y1="14.5584" x2="165.524" y2="9.13917" gradientUnits="userSpaceOnUse">
<stop stop-color="#E35541"/>
<stop offset="1" stop-color="#E22C13"/>
</linearGradient>
<linearGradient id="paint33_linear_29914_67077" x1="106.849" y1="28.8381" x2="104.927" y2="27.6444" gradientUnits="userSpaceOnUse">
<stop stop-color="#46B679"/>
<stop offset="1" stop-color="#1F7553"/>
</linearGradient>
<linearGradient id="paint34_linear_29914_67077" x1="99.1241" y1="21.1679" x2="107.24" y2="25.5787" gradientUnits="userSpaceOnUse">
<stop stop-color="#46B779"/>
<stop offset="1" stop-color="#1F7553"/>
</linearGradient>
<linearGradient id="paint35_linear_29914_67077" x1="106.324" y1="27.5859" x2="100.213" y2="28.9329" gradientUnits="userSpaceOnUse">
<stop stop-color="#46B679"/>
<stop offset="1" stop-color="#1F7553"/>
</linearGradient>
<linearGradient id="paint36_linear_29914_67077" x1="106.663" y1="26.3783" x2="106.678" y2="26.3876" gradientUnits="userSpaceOnUse">
<stop stop-color="#FE5086"/>
<stop offset="1" stop-color="#ED2F4D"/>
</linearGradient>
<linearGradient id="paint37_linear_29914_67077" x1="105.658" y1="27.799" x2="105.68" y2="27.8047" gradientUnits="userSpaceOnUse">
<stop stop-color="#FE5086"/>
<stop offset="1" stop-color="#ED2F4D"/>
</linearGradient>
<linearGradient id="paint38_linear_29914_67077" x1="106.622" y1="26.3848" x2="106.659" y2="26.4085" gradientUnits="userSpaceOnUse">
<stop stop-color="#FE5086"/>
<stop offset="1" stop-color="#ED2F4D"/>
</linearGradient>
<linearGradient id="paint39_linear_29914_67077" x1="104.006" y1="26.4787" x2="98.5911" y2="22.9861" gradientUnits="userSpaceOnUse">
<stop stop-color="#46B679"/>
<stop offset="1" stop-color="#1F7553"/>
</linearGradient>
<linearGradient id="paint40_linear_29914_67077" x1="184" y1="61.6823" x2="186.43" y2="59.9273" gradientUnits="userSpaceOnUse">
<stop stop-color="#FFE15B"/>
<stop offset="1" stop-color="#FF9E2A"/>
</linearGradient>
<linearGradient id="paint41_linear_29914_67077" x1="193.556" y1="50.8239" x2="183.198" y2="57.414" gradientUnits="userSpaceOnUse">
<stop stop-color="#FFE15B"/>
<stop offset="1" stop-color="#FF9E2A"/>
</linearGradient>
<linearGradient id="paint42_linear_29914_67077" x1="185.496" y1="60.2006" x2="185.469" y2="60.2138" gradientUnits="userSpaceOnUse">
<stop stop-color="#FE5086"/>
<stop offset="1" stop-color="#ED2F4D"/>
</linearGradient>
<linearGradient id="paint43_linear_29914_67077" x1="184.079" y1="58.4139" x2="184.038" y2="58.4534" gradientUnits="userSpaceOnUse">
<stop stop-color="#FE5086"/>
<stop offset="1" stop-color="#ED2F4D"/>
</linearGradient>
<linearGradient id="paint44_linear_29914_67077" x1="187.155" y1="58.7302" x2="193.024" y2="53.8543" gradientUnits="userSpaceOnUse">
<stop stop-color="#FFE15B"/>
<stop offset="1" stop-color="#FF9E2A"/>
</linearGradient>
<clipPath id="clip0_29914_67077">
<rect width="320" height="120" fill="white"/>
</clipPath>
</defs>
</svg>
