<svg width="320" height="410" viewBox="0 0 320 410" fill="none" xmlns="http://www.w3.org/2000/svg">
<g clip-path="url(#clip0_29924_66068)">
<rect width="320" height="410" fill="white"/>
<path d="M156.442 -106.182C63.1204 -110.579 -43.1505 -193.823 -85.1475 -110.41C-123.004 -35.2204 -21.2436 -24.2264 -28.2749 59.6538C-34.0052 128.013 -68.9786 147.029 -68.2268 215.624C-67.6468 268.544 -16.9866 284.456 -6.65429 336.361C9.79982 419.019 -113.182 479.825 -60.2365 545.417C-4.71655 614.199 76.5488 524.855 164.903 521.458C260.337 517.789 376.738 619.649 409.313 529.914C432.099 467.144 344.043 437.875 345.86 371.125C347.562 308.61 403.159 286.315 409.313 224.081C415.798 158.49 370.036 125.553 371.241 59.6538C372.359 -1.42995 430.633 -34.8314 409.313 -92.0885C374.815 -184.738 257.622 -101.415 156.442 -106.182Z" fill="url(#paint0_radial_29924_66068)"/>
<path d="M74.8447 224.829C74.8449 224.829 74.845 224.829 74.845 224.829C74.845 224.829 75.2075 225.866 74.9346 226.743C74.4494 228.302 72.3077 229.438 71.3605 228.963C70.0525 228.308 70.4752 226.68 71.5457 225.683C72.3271 224.955 74.1473 224.848 74.6898 224.832L70.3975 212.828L70.6742 212.729L70.8641 213.26C71.6426 214.364 72.2939 214.956 73.6866 215.497C77.2768 217.022 78.1403 218.657 77.1609 223.209C77.9552 217.862 75.3703 216.523 71.9622 216.331L74.9832 224.78L74.8447 224.829Z" fill="#64EDFF"/>
<path d="M104.87 163.841C104.87 163.841 104.87 163.841 104.87 163.841C104.87 163.841 105.233 164.878 104.96 165.754C104.475 167.314 102.333 168.449 101.386 167.975C100.078 167.319 100.501 165.691 101.571 164.694C102.352 163.966 104.173 163.859 104.715 163.843L100.423 151.839L100.7 151.741L100.89 152.272C101.668 153.375 102.319 153.967 103.712 154.508C107.302 156.033 108.166 157.668 107.186 162.221C107.981 156.873 105.396 155.534 101.988 155.342L105.009 163.791L104.87 163.841Z" fill="#64EDFF"/>
<path d="M188.378 166.656C188.378 166.656 188.378 166.656 188.378 166.656C188.378 166.656 188.741 167.693 188.468 168.569C187.983 170.129 185.841 171.264 184.894 170.79C183.586 170.134 184.008 168.507 185.079 167.509C185.86 166.782 187.681 166.674 188.223 166.658L183.931 154.655L184.207 154.556L184.397 155.087C185.176 156.19 185.827 156.782 187.22 157.323C190.81 158.848 191.674 160.483 190.694 165.036C191.488 159.688 188.904 158.349 185.495 158.157L188.516 166.606L188.378 166.656Z" fill="#64EDFF"/>
<path d="M199.638 203.249C199.638 203.249 199.638 203.249 199.638 203.249C199.638 203.249 200 204.286 199.728 205.163C199.242 206.722 197.101 207.858 196.153 207.383C194.846 206.728 195.268 205.1 196.339 204.103C197.12 203.375 198.94 203.267 199.483 203.252L195.19 191.248L195.467 191.149L195.657 191.68C196.436 192.784 197.087 193.376 198.48 193.917C202.07 195.441 202.933 197.077 201.954 201.629C202.748 196.281 200.163 194.943 196.755 194.751L199.776 203.199L199.638 203.249Z" fill="#64EDFF"/>
<path d="M198.98 226.278C198.607 226.021 197.748 225.487 197.125 225.547C196.179 225.638 195.318 226.311 195.733 227.165C196.034 227.784 197.587 228.045 198.454 227.432C198.692 227.264 199.136 226.708 199.136 226.708L201.005 221.187L206.86 223.241L205.105 228.427C204.733 228.17 203.873 227.636 203.25 227.696C202.304 227.787 201.443 228.46 201.858 229.314C202.159 229.933 203.712 230.194 204.579 229.581C204.817 229.412 205.261 228.857 205.261 228.857L207.484 222.29C207.576 222.018 207.432 221.722 207.16 221.626L201.756 219.73C201.48 219.634 201.178 219.781 201.085 220.057L198.98 226.278Z" fill="#64EDFF"/>
<path d="M147.374 146.523C147.002 146.267 146.142 145.732 145.519 145.792C144.573 145.884 143.712 146.556 144.128 147.411C144.429 148.03 145.982 148.29 146.848 147.678C147.087 147.509 147.531 146.954 147.531 146.954L149.399 141.432L155.254 143.486L153.499 148.672C153.127 148.416 152.267 147.881 151.644 147.941C150.698 148.033 149.837 148.705 150.253 149.56C150.554 150.179 152.107 150.439 152.973 149.827C153.212 149.658 153.656 149.103 153.656 149.103L155.878 142.536C155.971 142.263 155.826 141.967 155.555 141.872L150.15 139.976C149.875 139.879 149.573 140.026 149.479 140.303L147.374 146.523Z" fill="#64EDFF"/>
<path d="M82.6339 184.993C82.2618 184.737 81.402 184.202 80.7789 184.262C79.8329 184.354 78.9719 185.026 79.3875 185.881C79.6884 186.5 81.2417 186.76 82.108 186.148C82.3467 185.979 82.7905 185.424 82.7905 185.424L84.6592 179.902L90.514 181.956L88.7589 187.142C88.3868 186.885 87.5271 186.351 86.9039 186.411C85.9579 186.502 85.0969 187.175 85.5125 188.03C85.8135 188.649 87.3667 188.909 88.233 188.297C88.4717 188.128 88.9155 187.572 88.9155 187.572L91.1381 181.005C91.2303 180.733 91.086 180.437 90.8146 180.342L85.4101 178.446C85.1344 178.349 84.8327 178.496 84.739 178.773L82.6339 184.993Z" fill="#64EDFF"/>
<g opacity="0.3" filter="url(#filter0_f_29924_66068)">
<ellipse cx="191.782" cy="297.731" rx="80.2283" ry="19.3317" transform="rotate(-5.88715 191.782 297.731)" fill="#333333"/>
</g>
<path d="M218.128 218.628C216.694 228.777 211.714 238.515 206.272 248.873L231.032 260.285C234.588 247.262 236.899 245.335 237.307 226.569L218.128 218.628Z" fill="url(#paint1_linear_29924_66068)"/>
<path d="M210.766 248.242C181.963 242.705 130.686 269.629 130.686 269.629L158.13 302.134C184.371 305.632 217.624 309.431 239.517 296.833C262.861 283.4 268.16 275.98 278.763 252.964L258.819 243.084C251.22 250.64 246.072 254.712 232.881 261.218C232.881 261.218 223.161 250.625 210.766 248.242Z" fill="url(#paint2_linear_29924_66068)"/>
<path d="M115.886 284.096L98.8046 289.127C100.918 293.804 103.901 298.55 109.617 299.09C115.189 299.615 123.309 297.362 128.93 294.78L115.886 284.096Z" fill="url(#paint3_linear_29924_66068)"/>
<path d="M174.941 262.075L111.011 262.673L115.774 285.308C141.01 307.58 164.547 307.251 175.314 296.026L174.941 262.075Z" fill="url(#paint4_linear_29924_66068)"/>
<path d="M183.257 274.097C181.077 266.042 176.698 259.672 168.743 262.753L154.838 301.809C161.585 310.088 168.625 314.256 178.179 311.676C192.391 307.839 185.822 283.57 183.302 274.263L183.257 274.097Z" fill="url(#paint5_linear_29924_66068)"/>
<path d="M83.9255 227.993C82.9988 233.074 84.9835 238.25 89.067 241.406C87.632 233.231 89.1065 225.179 93.4907 217.248C88.5471 218.763 84.8596 222.906 83.9255 227.993Z" fill="#6A6A6A"/>
<path fill-rule="evenodd" clip-rule="evenodd" d="M88.796 242.491C89.0767 242.553 89.368 242.512 89.6209 242.361C90.0199 242.117 90.2279 241.662 90.148 241.206C88.7608 233.324 90.2055 225.444 94.4461 217.784C94.6674 217.382 94.6207 216.889 94.337 216.532C94.046 216.179 93.5703 216.036 93.1343 216.165C87.7665 217.812 83.8091 222.265 82.7969 227.785C81.7846 233.305 83.9168 238.859 88.353 242.286C88.4863 242.391 88.6408 242.457 88.796 242.491ZM91.0442 219.522C88.1697 225.694 86.9903 231.992 87.5141 238.323C85.2856 235.504 84.337 231.835 85.0067 228.188C85.6798 224.497 87.9063 221.37 91.0442 219.522Z" fill="#6A6A6A"/>
<path d="M148.274 186.431C123.882 181.019 99.6981 196.393 94.2584 220.777C88.8201 245.155 104.185 269.311 128.577 274.724C152.964 280.135 177.149 264.754 182.587 240.377C188.027 215.993 172.66 191.842 148.274 186.431Z" fill="white"/>
<path d="M147.69 186.991C122.969 181.505 99.2636 195.1 92.6987 218.796L92.0468 219.779C90.4625 222.442 90.8822 221.206 89.2492 228.526C87.6163 235.846 90.068 251.015 99.2252 259.646L100.251 260.807C130.521 288.597 174.567 280.455 183.047 242.44C188.636 217.388 172.411 192.476 147.69 186.991Z" fill="white"/>
<path fill-rule="evenodd" clip-rule="evenodd" d="M128.459 277.13C137.376 279.109 146.325 278.807 154.448 276.255C169.63 271.478 180.458 259.243 184.152 242.686C186.911 230.315 184.617 217.562 177.691 206.77C170.802 196.036 160.239 188.623 147.947 185.895C122.611 180.273 98.4521 194.213 91.6738 218.331L91.1236 219.168C91.1121 219.182 91.1026 219.196 91.0951 219.211C90.9256 219.493 90.786 219.726 90.6578 219.935C89.639 221.608 89.6031 221.769 88.6946 225.897C88.5441 226.572 88.3683 227.36 88.1618 228.286C86.4276 236.059 89.0345 251.545 98.4297 260.429L99.4145 261.549C99.441 261.58 99.47 261.61 99.5014 261.638C107.555 269.033 117.014 274.259 126.839 276.746C127.378 276.878 127.918 277.006 128.459 277.13ZM147.458 188.087C171.928 193.516 187.405 217.792 181.96 242.2C178.445 257.956 168.171 269.587 153.779 274.114C136.629 279.507 116.433 274.111 101.065 260.023L100.079 258.908C100.059 258.883 100.036 258.859 100.007 258.836C91.3065 250.633 88.7741 235.853 90.3538 228.772C90.5603 227.847 90.7374 227.052 90.8879 226.378C91.7511 222.452 91.7511 222.452 92.5731 221.1C92.7014 220.89 92.8469 220.659 93.0091 220.382L93.645 219.414C93.7108 219.316 93.76 219.207 93.7913 219.095C100.174 196.048 123.251 182.715 147.458 188.087Z" fill="#64EDFF"/>
<path d="M139.423 203.481C115.961 198.275 93.4581 209.65 89.1664 228.888C84.876 248.121 100.421 267.938 123.882 273.144C147.35 278.351 169.847 266.975 174.137 247.743C178.429 228.505 162.89 208.689 139.423 203.481Z" fill="#00A4FF"/>
<path fill-rule="evenodd" clip-rule="evenodd" d="M123.672 274.061C147.605 279.372 170.649 267.654 175.044 247.95C179.441 228.24 163.552 207.889 139.618 202.578C115.691 197.268 92.6426 208.98 88.2456 228.69C83.85 248.393 99.744 268.752 123.672 274.061ZM139.212 204.399C162.136 209.486 177.39 228.837 173.216 247.544C169.045 266.245 147.003 277.321 124.079 272.234C101.155 267.148 85.9015 247.796 90.0733 229.095C94.2465 210.388 116.288 199.312 139.212 204.399Z" fill="#64EDFF"/>
<path d="M124.798 269.014C104.217 264.448 90.4843 247.515 94.125 231.195C97.7657 214.875 117.401 205.347 137.983 209.914C158.564 214.481 172.297 231.413 168.656 247.733C165.015 264.053 145.379 273.581 124.798 269.014Z" fill="#6C6C6C"/>
<path fill-rule="evenodd" clip-rule="evenodd" d="M124.556 270.104C145.713 274.799 165.987 264.872 169.757 247.974C173.526 231.076 159.386 213.507 138.229 208.812C117.073 204.118 96.7973 214.051 93.0277 230.948C89.2581 247.846 103.4 265.41 124.556 270.104ZM137.74 211.004C157.684 215.429 171.065 231.796 167.564 247.488C164.065 263.173 144.989 272.338 125.045 267.913C105.101 263.487 91.7206 247.12 95.2198 231.435C98.7203 215.743 117.797 206.578 137.74 211.004Z" fill="#6C6C6C"/>
<path d="M94.4103 228.481C94.2806 229.624 94.2154 230.788 94.2158 231.966C94.2157 235.732 94.8933 239.354 96.1287 242.724C95.4976 243.474 94.9534 244.255 94.5001 245.051C98.3668 256.211 109.58 265.799 124.291 269.063C126.913 269.645 129.519 269.991 132.077 270.133C150.391 269.215 164.744 260.851 164.737 250.685C164.739 247.809 163.586 245.078 161.519 242.627C162.756 239.248 163.425 235.63 163.42 231.857C163.421 229.72 163.203 227.635 162.789 225.613C157.29 218.226 148.334 212.373 137.475 209.963C118.081 205.66 99.5316 213.87 94.4103 228.481Z" fill="#B0401E"/>
<path fill-rule="evenodd" clip-rule="evenodd" d="M124.09 269.969C126.712 270.551 129.381 270.924 132.026 271.066C132.058 271.069 132.092 271.068 132.126 271.063C151.258 270.107 165.681 261.345 165.679 250.679C165.675 247.801 164.633 245.026 162.577 242.439C163.758 239.029 164.357 235.471 164.355 231.855C164.355 229.693 164.135 227.532 163.708 225.426C163.676 225.288 163.623 225.163 163.54 225.057C157.724 217.237 148.3 211.404 137.68 209.048C128.147 206.933 118.399 207.721 110.217 211.27C102.033 214.824 96.0995 220.826 93.5272 228.17C93.5033 228.24 93.4877 228.31 93.4806 228.379C93.3476 229.565 93.279 230.772 93.2828 231.964C93.2847 235.58 93.8834 239.134 95.0723 242.544C94.5415 243.209 94.081 243.897 93.6875 244.593C93.5539 244.826 93.5298 245.103 93.6166 245.36C95.6043 251.09 99.4462 256.404 104.736 260.736C110.147 265.171 116.839 268.36 124.09 269.969ZM132.079 269.197C129.553 269.057 126.999 268.703 124.496 268.148C110.633 265.072 99.575 256.276 95.5251 245.151C95.9026 244.526 96.3458 243.917 96.8487 243.32C97.0619 243.067 97.1226 242.71 97.0047 242.396C95.7772 239.047 95.1559 235.538 95.1519 231.958C95.1494 230.874 95.2133 229.773 95.3237 228.688C100.428 214.349 118.434 206.695 137.273 210.875C147.385 213.119 156.349 218.623 161.912 226.005C162.292 227.926 162.486 229.892 162.486 231.86C162.485 235.432 161.87 238.949 160.639 242.304C160.525 242.617 160.591 242.97 160.803 243.224C162.796 245.59 163.804 248.094 163.803 250.682C163.807 260.164 149.877 268.29 132.079 269.197Z" fill="#6C6C6C"/>
<path d="M140.204 213.787C135.802 213.794 131.82 215.599 128.947 218.502C126.06 215.455 121.971 213.551 117.437 213.56C105.497 213.58 94.9606 228.117 104.659 238.735C101.209 237.788 98.6088 240.132 96.1423 242.73C95.5111 243.48 94.9669 244.262 94.5137 245.057C98.3804 256.217 109.594 265.805 124.305 269.07C126.927 269.651 129.533 269.998 132.09 270.139C150.405 269.221 164.758 260.857 164.75 250.691C164.752 247.815 163.6 245.084 161.533 242.633C158.825 240.553 155.559 239.824 151.734 240.446C154.405 237.605 156.04 233.788 156.038 229.583C156.037 220.847 148.946 213.771 140.204 213.787Z" fill="#FFCAA1"/>
<path d="M93.6046 231.243C92.5783 235.845 92.9319 240.496 94.4355 244.908C94.872 244.16 95.392 243.429 95.9837 242.715C94.7474 239.352 94.0758 235.732 94.0772 231.962C94.0726 230.971 94.1231 229.986 94.2093 229.009C93.9773 229.74 93.7737 230.485 93.6046 231.243Z" fill="#FFCAA1"/>
<path fill-rule="evenodd" clip-rule="evenodd" d="M94.2313 245.817C94.2671 245.825 94.3034 245.831 94.3401 245.835C94.7076 245.873 95.0608 245.694 95.2441 245.378C95.6507 244.679 96.1376 243.985 96.7008 243.314C96.9153 243.055 96.9806 242.706 96.8627 242.392C95.6357 239.044 95.0086 235.534 95.0106 231.957C95.0087 231.011 95.0538 230.05 95.1421 229.092C95.1863 228.613 94.8694 228.18 94.4011 228.088C93.9327 227.997 93.472 228.264 93.3204 228.719C93.0729 229.491 92.8627 230.265 92.6909 231.035C91.6497 235.703 91.9394 240.472 93.5523 245.209C93.6582 245.521 93.9148 245.747 94.2313 245.817ZM94.9264 242.532C94.8729 242.604 94.8173 242.675 94.7597 242.746C94.5524 241.952 94.3847 241.159 94.2565 240.366C94.4533 241.095 94.6766 241.817 94.9264 242.532Z" fill="#6C6C6C"/>
<path d="M94.0989 243.824C94.6491 243.689 95.1555 243.47 95.6156 243.177C95.7391 243.017 95.86 242.868 95.9896 242.709C94.9764 239.947 94.3417 237.005 94.1449 233.955C93.8358 233.88 93.5093 233.826 93.1809 233.81C92.7967 237.189 93.1399 240.567 94.0989 243.824Z" fill="#FF9999"/>
<path fill-rule="evenodd" clip-rule="evenodd" d="M93.8895 244.745C94.0268 244.775 94.1708 244.776 94.3168 244.739C94.954 244.58 95.5621 244.326 96.1184 243.967C96.2061 243.912 96.2785 243.84 96.3462 243.761C96.4611 243.611 96.582 243.462 96.7029 243.314C96.9161 243.06 96.9754 242.71 96.8635 242.397C95.8629 239.663 95.2598 236.804 95.0742 233.899C95.046 233.492 94.7583 233.152 94.3668 233.053C93.986 232.962 93.6045 232.903 93.2269 232.882C92.7319 232.853 92.3003 233.215 92.2461 233.71C91.8546 237.151 92.1785 240.643 93.2005 244.097C93.3011 244.432 93.573 244.674 93.8895 244.745ZM94.9144 242.51C94.852 242.546 94.7901 242.58 94.7285 242.613C94.5446 241.883 94.3919 241.153 94.2703 240.425C94.4645 241.128 94.6792 241.823 94.9144 242.51Z" fill="#6C6C6C"/>
<path d="M127.77 246.012C127.818 247.798 127.828 248.991 127.825 251.54C127.826 251.985 128.137 252.361 128.556 252.454C128.623 252.469 128.691 252.475 128.758 252.474C129.278 252.476 129.697 252.056 129.699 251.543C129.701 248.844 129.686 247.655 129.63 245.694C130.364 245.045 131.403 244.853 132.34 245.223C132.819 245.41 133.361 245.174 133.555 244.697C133.743 244.219 133.508 243.672 133.029 243.484C131.483 242.877 129.786 243.159 128.543 244.166C127.299 243.19 125.587 242.912 124.083 243.51C123.601 243.704 123.367 244.247 123.554 244.727C123.749 245.202 124.291 245.442 124.773 245.248C125.827 244.83 127.05 245.144 127.77 246.012Z" fill="#6C6C6C"/>
<g opacity="0.3">
<g opacity="0.3">
<path opacity="0.3" d="M154.218 247.039C152.383 251.131 147.569 254.054 143.36 256.711C151.262 255.135 155.589 252.521 156.341 248.869C156.783 246.386 157.265 246.079 154.218 247.039Z" fill="#6C6C6C"/>
</g>
</g>
<path d="M113.292 248.033C111.205 246.958 109.309 247.817 110.562 250.912C115.939 264.199 141.018 264.7 146.947 251.633C148.327 248.592 146.47 247.658 144.338 248.653C135.015 253 122.427 252.748 113.292 248.033Z" fill="white"/>
<path fill-rule="evenodd" clip-rule="evenodd" d="M122.761 260.899C124.582 261.343 126.517 261.593 128.533 261.635C137.156 261.803 144.528 258.001 147.348 251.934C147.388 251.875 147.417 251.809 147.435 251.741C148.325 249.718 147.775 248.734 147.357 248.321C146.666 247.639 145.426 247.593 144.122 248.2C134.872 252.504 122.576 252.261 113.517 247.594C112.243 246.934 111 246.933 110.282 247.591C109.843 247.988 109.238 248.976 110.093 251.099C112.033 255.879 116.749 259.431 122.761 260.899ZM128.552 260.634C135.98 260.783 142.411 257.885 145.544 253.123C144.624 253.617 143.664 254.015 142.694 254.354C141.124 254.896 139.521 255.282 137.907 255.591C137.752 255.62 137.603 255.525 137.561 255.372C137.52 255.214 137.615 255.049 137.777 255.008C139.343 254.6 140.887 254.114 142.363 253.491C143.832 252.865 145.238 252.098 146.426 251.109L146.431 251.106L146.462 251.08C146.525 251.035 146.594 251.003 146.665 250.984C147.001 250.075 147.001 249.376 146.655 249.033C146.547 248.926 146.401 248.853 146.23 248.811C145.797 248.705 145.187 248.805 144.545 249.102C135.028 253.53 122.375 253.281 113.059 248.479C112.176 248.028 111.353 247.966 110.956 248.327C110.593 248.659 110.564 249.362 110.866 250.287C110.954 250.313 111.039 250.358 111.113 250.424L111.117 250.425C112.282 251.462 113.679 252.287 115.142 252.968C116.609 253.65 118.155 254.195 119.724 254.667C119.862 254.709 119.941 254.846 119.911 254.986C119.879 255.133 119.734 255.224 119.586 255.192C117.969 254.831 116.359 254.392 114.791 253.795C113.797 253.416 112.813 252.973 111.875 252.429C114.797 257.328 121.112 260.49 128.552 260.634Z" fill="#6C6C6C"/>
<path fill-rule="evenodd" clip-rule="evenodd" d="M132.021 271.041C129.376 270.899 126.708 270.527 124.087 269.946C116.837 268.338 110.147 265.152 104.738 260.721C99.4492 256.393 95.6083 251.083 93.6213 245.358C93.5346 245.101 93.5587 244.824 93.6923 244.591C94.0857 243.896 94.5461 243.209 95.0769 242.544C93.8884 239.137 93.29 235.585 93.2882 231.972C93.2845 230.782 93.3532 229.576 93.4862 228.391C93.4933 228.321 93.5088 228.252 93.5328 228.182C96.1048 220.844 102.038 214.846 110.22 211.294C118.4 207.748 128.146 206.96 137.677 209.073C148.295 211.427 157.717 217.254 163.531 225.068C163.613 225.174 163.667 225.298 163.699 225.437C164.125 227.541 164.345 229.7 164.345 231.86C164.347 235.474 163.748 239.029 162.567 242.436C164.622 245.021 165.664 247.794 165.668 250.669C165.67 261.326 151.25 270.082 132.122 271.038C132.087 271.043 132.054 271.044 132.021 271.041ZM124.493 268.126C126.995 268.681 129.549 269.034 132.074 269.174C149.869 268.267 163.796 260.147 163.793 250.673C163.794 248.087 162.786 245.584 160.794 243.22C160.717 243.128 160.659 243.023 160.622 242.911C158.154 241.192 155.273 240.627 151.829 241.182C151.471 241.24 151.102 241.015 150.992 240.665C150.917 240.41 150.979 240.13 151.167 239.933C153.812 237.126 155.271 233.455 155.268 229.597C155.266 221.294 148.494 214.545 140.181 214.555C136.125 214.564 132.321 216.162 129.464 219.048C129.325 219.193 129.126 219.273 128.926 219.267C128.72 219.265 128.525 219.184 128.389 219.035C125.507 215.998 121.613 214.327 117.425 214.331C111.795 214.341 106.324 218.188 103.802 223.896C101.393 229.354 102.323 235.208 106.292 239.551C106.512 239.8 106.55 240.165 106.374 240.446C106.197 240.732 105.855 240.863 105.535 240.78C102.525 239.952 99.3206 240.751 97.0569 242.869C97.0312 243.033 96.962 243.19 96.8528 243.319C96.35 243.915 95.9069 244.525 95.5294 245.149C99.578 256.265 110.633 265.053 124.493 268.126ZM160.963 241.343C161.972 238.282 162.476 235.096 162.477 231.866C162.477 229.9 162.283 227.934 161.903 226.015C156.342 218.64 147.379 213.14 137.269 210.898C118.435 206.722 100.433 214.371 95.3288 228.699C95.2184 229.783 95.1545 230.883 95.157 231.967C95.1604 235.143 95.6506 238.264 96.6197 241.267C98.6814 239.607 101.287 238.798 103.911 238.986C100.628 234.407 100.059 228.677 102.433 223.292C105.186 217.052 111.213 212.847 117.426 212.841C121.776 212.835 125.836 214.468 128.944 217.474C132.011 214.629 135.975 213.072 140.182 213.065C149.323 213.051 156.761 220.467 156.765 229.597C156.764 233.197 155.61 236.654 153.475 239.506C156.269 239.368 158.779 239.98 160.963 241.343Z" fill="#6C6C6C"/>
<path d="M183.542 226.998C178.613 226.613 174.245 230.963 173.788 236.72C173.331 242.477 176.953 247.454 181.882 247.839C186.809 248.231 191.178 243.874 191.635 238.117C192.092 232.36 188.464 227.382 183.542 226.998Z" fill="#6A6A6A"/>
<path fill-rule="evenodd" clip-rule="evenodd" d="M180.549 248.799C180.955 248.889 181.37 248.95 181.793 248.981C184.503 249.194 187.145 248.17 189.224 246.099C191.255 244.075 192.507 241.276 192.748 238.228C193.259 231.863 189.158 226.335 183.627 225.897C178.089 225.464 173.171 230.288 172.665 236.655C172.424 239.703 173.218 242.661 174.901 244.977C176.36 246.98 178.333 248.307 180.549 248.799ZM184.364 228.273C188.192 229.122 190.891 233.292 190.512 238.052C190.314 240.57 189.294 242.863 187.641 244.514C186.031 246.112 184.017 246.906 181.966 246.745C179.92 246.586 178.053 245.488 176.719 243.657C175.348 241.768 174.704 239.344 174.902 236.825C175.313 231.697 179.148 227.798 183.448 228.132C183.76 228.16 184.065 228.206 184.364 228.273Z" fill="#6A6A6A"/>
<path d="M185.659 247.213C188.873 245.815 191.307 242.351 191.646 238.134C192.021 233.362 189.595 229.126 185.95 227.597C185.759 227.555 185.558 227.529 185.354 227.515C181.43 227.209 177.903 231.414 177.46 236.911C177.024 242.403 179.847 247.109 183.771 247.415C184.417 247.471 185.047 247.397 185.659 247.213Z" fill="#6A6A6A"/>
<path fill-rule="evenodd" clip-rule="evenodd" d="M182.812 248.226C183.094 248.289 183.38 248.331 183.667 248.353C184.412 248.412 185.163 248.334 185.895 248.114C185.931 248.106 185.967 248.093 186.004 248.076C189.628 246.499 192.197 242.626 192.549 238.212C192.947 233.169 190.377 228.451 186.285 226.735C186.227 226.713 186.166 226.696 186.102 226.682C185.862 226.635 185.625 226.601 185.398 226.582C180.974 226.239 176.984 230.837 176.503 236.839C176.274 239.689 176.863 242.445 178.151 244.592C179.325 246.55 180.961 247.815 182.812 248.226ZM185.314 246.338C184.819 246.478 184.312 246.529 183.82 246.489C182.231 246.362 180.791 245.347 179.757 243.632C178.665 241.811 178.17 239.452 178.37 236.984C178.765 232.009 181.85 228.182 185.251 228.448C185.382 228.46 185.514 228.477 185.647 228.498C188.954 229.94 191.02 233.856 190.682 238.067C190.386 241.78 188.285 245.017 185.314 246.338Z" fill="#6A6A6A"/>
<path d="M155.503 197.562C153.199 201.82 155.222 202.92 159.6 200.72C162.832 199.1 166.304 198.71 169.585 198.617C173.257 195.897 170.431 190.752 164.403 191.752C161.41 192.073 157.699 193.505 155.503 197.562Z" fill="white"/>
<path fill-rule="evenodd" clip-rule="evenodd" d="M155.295 202.866C156.453 203.123 158.062 202.741 160.097 201.713C163.287 200.115 166.695 199.812 169.609 199.731C169.838 199.719 170.061 199.644 170.248 199.51C172.141 198.106 172.823 195.92 171.984 193.948C171.082 191.811 168.336 189.961 164.243 190.632C161.738 190.904 157.171 192.097 154.506 197.02C153.213 199.415 153.063 201.155 154.071 202.2C154.401 202.536 154.809 202.759 155.295 202.866ZM169.168 197.496C166.248 197.601 162.542 197.975 159.089 199.71C156.781 200.871 155.815 200.732 155.68 200.633C155.686 200.634 155.426 200.032 156.481 198.085C158.667 194.045 162.449 193.08 164.511 192.86C164.532 192.856 164.554 192.853 164.576 192.849C167.485 192.367 169.352 193.495 169.921 194.825C170.318 195.771 170.048 196.727 169.168 197.496Z" fill="#64EDFF"/>
<path d="M105.918 196.855C105.551 197.883 106.273 199.002 107.281 199.426C108.282 199.855 109.602 199.615 110.079 198.63C112.031 194.602 115.933 191.1 120.058 189.271C115.739 185.455 110.202 184.678 105.918 196.855Z" fill="white"/>
<path fill-rule="evenodd" clip-rule="evenodd" d="M107.482 200.635C108.837 200.936 110.447 200.491 111.121 199.099C112.889 195.449 116.502 192.065 120.542 190.279C120.89 190.125 121.137 189.803 121.197 189.422C121.256 189.047 121.122 188.666 120.833 188.414C118.18 186.064 115.583 185.2 113.122 185.839C109.84 186.696 107.069 190.267 104.884 196.462C104.349 197.991 105.219 199.738 106.868 200.436C107.062 200.523 107.273 200.589 107.482 200.635ZM117.991 189.043C114.165 191.164 110.846 194.52 109.101 198.124C108.915 198.509 108.224 198.575 107.748 198.376C107.274 198.17 106.855 197.632 107.006 197.208C108.894 191.837 111.209 188.654 113.683 188.012C115.002 187.666 116.446 188.017 117.991 189.043Z" fill="#64EDFF"/>
<g opacity="0.3">
<g opacity="0.3">
<path opacity="0.3" d="M187.682 238.155C187.469 242.143 185.299 245.772 181.888 247.859C187.12 247.723 191.377 243.586 191.659 238.361C191.941 233.136 188.159 228.575 182.967 227.887C186.134 230.319 187.896 234.162 187.682 238.155Z" fill="#6C6C6C"/>
</g>
</g>
<g opacity="0.3">
<g opacity="0.3">
<path opacity="0.3" d="M110.86 199.308C113.882 196.231 117.966 193.733 123.113 191.812C125.701 188.301 124.682 187.448 120.048 189.253C117.168 189.917 114.101 193.266 110.86 199.308Z" fill="#6C6C6C"/>
</g>
</g>
<g opacity="0.3">
<g opacity="0.3">
<path opacity="0.3" d="M170.56 193.663C169.599 192.24 167.715 191.778 166.203 192.596C167.205 192.379 168.208 192.94 168.544 193.905C168.873 194.874 168.533 196.259 167.521 196.385C163.346 196.919 159.255 198.086 155.328 200.856C157.044 201.424 161.906 200.506 169.915 198.101C171.243 197.01 171.522 195.085 170.56 193.663Z" fill="#6C6C6C"/>
</g>
</g>
<g opacity="0.3">
<g opacity="0.3">
<path opacity="0.3" d="M117.937 188.073C111.802 191.115 108.604 194.822 108.342 199.196C111.438 195.601 114.912 192.446 118.765 189.729C118.873 189.749 118.597 189.197 117.937 188.073Z" fill="#6C6C6C"/>
</g>
</g>
<path fill-rule="evenodd" clip-rule="evenodd" d="M124.889 269.118C145.842 273.767 165.92 263.966 169.644 247.271C173.368 230.577 159.352 213.21 138.398 208.561C117.445 203.911 97.3679 213.712 93.6436 230.407C89.9193 247.102 103.936 264.469 124.889 269.118ZM138.073 210.017C158.22 214.488 171.725 231.058 168.18 246.947C164.636 262.835 145.362 272.126 125.215 267.655C105.069 263.185 91.5625 246.621 95.107 230.732C98.6515 214.843 117.926 205.547 138.073 210.017Z" fill="#6C6C6C"/>
<path d="M111.614 234.64C112.079 238.252 114.338 240.796 116.662 240.321C118.981 239.845 120.491 236.533 120.025 232.921C119.559 229.309 117.3 226.765 114.976 227.24C112.652 227.714 111.148 231.027 111.614 234.64Z" fill="#6C6C6C"/>
<path d="M113.266 230.518C112.962 231.741 113.331 232.951 114.086 233.219C114.843 233.48 115.7 232.699 116.006 231.47C116.304 230.246 115.936 229.03 115.179 228.768C114.423 228.506 113.566 229.287 113.266 230.518Z" fill="white"/>
<path d="M116.848 236.988C116.573 237.579 116.641 238.258 116.999 238.507C117.364 238.751 117.884 238.471 118.16 237.881C118.436 237.29 118.368 236.611 118.004 236.361C117.644 236.119 117.124 236.398 116.848 236.988Z" fill="white"/>
<path d="M141.576 227.965C139.317 227.557 137.189 230.074 136.82 233.577C136.445 237.084 137.976 240.249 140.23 240.649C142.484 241.054 144.618 238.539 144.986 235.037C145.355 231.528 143.831 228.364 141.576 227.965Z" fill="#6C6C6C"/>
<path d="M141.404 229.388C140.679 229.66 140.347 230.839 140.667 232.019C140.986 233.199 141.831 233.938 142.557 233.66C143.282 233.389 143.614 232.209 143.294 231.029C142.975 229.849 142.129 229.117 141.404 229.388Z" fill="white"/>
<path d="M138.851 236.829C138.501 237.077 138.448 237.736 138.729 238.299C139.011 238.863 139.517 239.126 139.867 238.878C140.21 238.628 140.263 237.969 139.982 237.406C139.7 236.842 139.193 236.585 138.851 236.829Z" fill="white"/>
<g opacity="0.2">
<g opacity="0.2">
<g opacity="0.2">
<path opacity="0.2" d="M162.717 238.501C163.184 236.355 163.427 234.14 163.427 231.865C163.427 229.727 163.209 227.642 162.795 225.619C157.296 218.232 148.339 212.377 137.478 209.967C118.082 205.663 99.5294 213.875 94.4074 228.489C94.2777 229.632 94.2124 230.796 94.2129 231.975C94.2115 232.037 94.2174 232.095 94.2161 232.157C99.9251 218.312 117.974 210.672 136.821 214.854C147.681 217.264 156.638 223.119 162.137 230.507C162.551 232.529 162.769 234.614 162.769 236.752C162.769 237.341 162.747 237.919 162.717 238.501Z" fill="#6C6C6C"/>
</g>
</g>
<g opacity="0.2">
<g opacity="0.2">
<path opacity="0.2" d="M94.6118 244.85C94.5733 244.91 94.5347 244.971 94.5022 245.032C94.7384 245.716 95.0011 246.392 95.2904 247.062C95.0388 246.336 94.809 245.596 94.6118 244.85Z" fill="#6C6C6C"/>
</g>
</g>
</g>
<path fill-rule="evenodd" clip-rule="evenodd" d="M143.024 176.229C144.026 179.866 143.525 183.504 142.748 185.775L140.672 185.068C141.336 183.127 141.772 179.945 140.909 176.813C140.061 173.738 137.95 170.658 133.393 168.79L134.227 166.761C139.446 168.9 142.006 172.536 143.024 176.229Z" fill="#64EDFF"/>
<path d="M138.171 168.388C137.715 170.433 135.687 171.722 133.642 171.268C131.597 170.814 130.308 168.789 130.764 166.745C131.22 164.7 133.248 163.411 135.293 163.865C137.339 164.318 138.627 166.344 138.171 168.388Z" fill="#64EDFF"/>
<path fill-rule="evenodd" clip-rule="evenodd" d="M152.492 171.78C152.493 171.78 152.49 171.79 152.48 171.81C152.486 171.791 152.491 171.781 152.492 171.78ZM151.886 172.508C151.388 172.438 150.728 172.403 149.902 172.432C147.512 172.515 144.23 173.11 140.662 174.244C137.095 175.378 134.072 176.787 132.072 178.099C131.381 178.552 130.862 178.961 130.496 179.307C130.994 179.378 131.654 179.412 132.48 179.384C134.871 179.3 138.153 178.705 141.72 177.571C145.288 176.437 148.311 175.028 150.311 173.717C151.002 173.263 151.521 172.854 151.886 172.508ZM129.581 179.062C129.582 179.062 129.592 179.067 129.608 179.079C129.588 179.069 129.58 179.063 129.581 179.062ZM129.89 180.035C129.889 180.035 129.892 180.026 129.903 180.005C129.896 180.025 129.891 180.035 129.89 180.035ZM152.774 172.736C152.795 172.746 152.803 172.753 152.802 172.753C152.801 172.753 152.791 172.748 152.774 172.736ZM142.384 179.659C149.788 177.305 155.257 173.718 154.598 171.647C153.939 169.575 147.403 169.803 139.998 172.157C132.594 174.51 127.126 178.097 127.785 180.169C128.443 182.24 134.98 182.012 142.384 179.659Z" fill="#64EDFF"/>
<path d="M168.42 268.873C168.158 271.655 167.31 274.803 162.519 277.258C168.516 281.398 172.66 288.148 177.862 296.076C181.436 301.523 179.529 313.61 170.761 311.761C162.389 310.468 156.828 305.081 154.196 300.489C149.742 290.42 146.642 280.359 147.831 275.873C148.558 273.131 151.918 271.594 156.098 269.499C162.534 266.272 159.593 263.555 163.399 262.523C165.496 261.954 168.717 265.725 168.42 268.873Z" fill="url(#paint6_linear_29924_66068)"/>
<path d="M162.519 277.258C167.31 274.803 168.158 271.655 168.42 268.873C168.717 265.725 165.496 261.954 163.399 262.523C159.593 263.555 162.534 266.272 156.098 269.499C151.918 271.594 148.558 273.131 147.831 275.873C147.368 277.619 147.555 280.209 148.218 283.315C155.619 281.019 159.066 279.704 162.519 277.258Z" fill="url(#paint7_linear_29924_66068)"/>
<path d="M99.037 289.524C99.679 292.295 104.516 298.998 109.847 299.368C114.19 299.669 115.577 289.363 115.538 283.131L117.143 273.485C117.143 273.485 113.477 271.932 106.96 267.787C100.444 263.641 94.652 255.39 93.3938 255.704C92.1357 256.019 93.1914 260.659 94.5456 263.798C96.3812 268.053 101.13 273.669 101.13 273.669C101.13 273.669 97.3677 282.321 99.037 289.524Z" fill="url(#paint8_linear_29924_66068)"/>
<path d="M94.5456 263.799C96.3812 268.053 101.13 273.669 101.13 273.669C106.379 276.09 109.661 276.958 116.557 277.007C116.557 277.007 117.104 274.879 117.143 273.485C117.25 269.663 113.043 271.008 106.526 266.862C100.01 262.717 94.652 255.391 93.3939 255.705C92.1357 256.02 93.1914 260.66 94.5456 263.799Z" fill="url(#paint9_linear_29924_66068)"/>
<path d="M127.483 293.879L124.984 290.577L144.006 297.481L148.387 302.494" stroke="#64EDFF" stroke-width="0.530122" stroke-linecap="round" stroke-linejoin="round"/>
<path d="M220.802 206.282C227.031 204.665 261.128 207.499 262.857 215.312C263.023 216.068 262.953 216.784 262.667 217.467C261.365 220.654 256.163 226.437 249.847 228.025C243.528 229.625 236.08 227.039 236.08 227.039L217.648 218.887C217.648 218.887 217.274 213.884 218.171 209.347C218.451 207.849 219.247 206.69 220.806 206.271L220.802 206.282Z" fill="#C6681B"/>
<path d="M220.809 206.292C227.037 204.675 261.135 207.508 262.864 215.322C263.029 216.077 262.899 217.999 261.441 219.906C255.363 216.597 240.438 209.715 217.712 211.596C218.025 208.271 219.253 206.7 220.812 206.281L220.809 206.292Z" fill="#2355BB"/>
<path d="M261.855 231.084C268.488 229.362 304.799 232.38 306.641 240.7C306.817 241.505 306.742 242.267 306.437 242.995C305.051 246.389 299.512 252.547 292.786 254.238C286.056 255.942 278.125 253.188 278.125 253.188L258.496 244.507C258.496 244.507 258.097 239.179 259.053 234.347C259.351 232.752 260.199 231.518 261.859 231.072L261.855 231.084Z" fill="url(#paint10_linear_29924_66068)"/>
<path d="M261.864 231.094C268.497 229.372 304.808 232.389 306.65 240.71C306.826 241.514 306.981 243.619 304.74 245.707C298.267 242.183 282.805 234.346 258.603 236.349C258.937 232.808 260.208 231.528 261.868 231.082L261.864 231.094Z" fill="#3167D5"/>
<g opacity="0.3" filter="url(#filter1_f_29924_66068)">
<path d="M81.6202 370.046C94.3518 375.502 104.537 371.137 104.537 371.137L163.938 391.875C165.243 392.33 166.686 392.141 167.83 391.364L229.873 349.215C230.968 348.471 230.582 346.771 229.273 346.573L220.94 345.31L162.011 385.687C162.011 385.687 128.381 376.765 104.537 370.046C96.7753 367.859 87.8041 367.863 81.6202 370.046Z" fill="#333333"/>
<path d="M67.4337 358.042C67.4337 358.042 75.0917 367.248 81.6202 370.046C81.6202 370.046 78.46 360.397 73.2538 358.042C57.9759 351.13 15.0524 337.671 15.0524 337.671L9.52839 339.447C8.15047 339.89 8.19394 341.854 9.59011 342.236L67.4337 358.042Z" fill="#333333"/>
<path d="M104.537 370.046C128.381 376.765 162.011 385.687 162.011 385.687L148.552 359.656C129.401 351.213 117.394 350.077 95.4006 349.675C95.4006 349.675 85.1716 361.883 81.6202 370.046C87.8041 367.863 96.7753 367.859 104.537 370.046Z" fill="#333333"/>
<path d="M29.6028 321.666L15.0524 337.671C15.0524 337.671 57.9759 351.13 73.2538 358.042C78.46 360.397 81.6202 370.046 81.6202 370.046C94.6572 339.47 72.0814 332.795 29.6028 321.666Z" fill="#333333"/>
<path fill-rule="evenodd" clip-rule="evenodd" d="M81.6202 370.046C94.6572 339.47 72.0814 332.795 29.6028 321.666L91.8055 291.11C99.1352 296.089 107.622 298.964 115.506 301.636C128.359 305.991 139.611 309.804 141.64 321.302C167.472 311.385 177.071 315.944 187.87 321.073C194.103 324.034 200.735 327.184 211.118 327.85L148.552 359.656C129.401 351.213 117.394 350.077 95.4006 349.675C95.4006 349.675 85.1716 361.883 81.6202 370.046Z" fill="#333333"/>
<path d="M220.94 345.31L211.118 327.85L148.552 359.656L162.011 385.687L220.94 345.31Z" fill="#333333"/>
</g>
<path d="M80.7199 365.998C93.4514 371.455 103.637 367.089 103.637 367.089L163.038 387.827C164.342 388.283 165.786 388.093 166.929 387.317L228.973 345.167C230.067 344.424 229.681 342.724 228.373 342.525L220.039 341.263L161.111 381.64C161.111 381.64 127.481 372.717 103.637 365.998C95.8749 363.811 86.9038 363.816 80.7199 365.998Z" fill="#EB920E"/>
<path d="M66.5333 353.994C66.5333 353.994 74.1913 363.2 80.7199 365.998C80.7199 365.998 77.5596 356.349 72.3534 353.994C57.0755 347.083 14.152 333.624 14.152 333.624L8.628 335.399C7.25008 335.842 7.29355 337.807 8.68972 338.188L66.5333 353.994Z" fill="#EB920E"/>
<path d="M103.637 365.998C127.481 372.717 161.111 381.64 161.111 381.64L147.651 355.608C128.501 347.166 116.494 346.029 94.5002 345.628C94.5002 345.628 84.2712 357.835 80.7199 365.998C86.9038 363.816 95.8749 363.811 103.637 365.998Z" fill="#FFE8AC"/>
<path d="M28.7024 317.618L14.152 333.624C14.152 333.624 57.0755 347.083 72.3534 353.994C77.5596 356.349 80.7199 365.998 80.7199 365.998C93.7568 335.422 71.181 328.747 28.7024 317.618Z" fill="#FFE8AC"/>
<path fill-rule="evenodd" clip-rule="evenodd" d="M80.7199 365.998C93.7568 335.422 71.181 328.747 28.7024 317.618L90.9051 287.063C98.2348 292.041 106.721 294.917 114.605 297.588C127.459 301.943 138.711 305.756 140.74 317.255C166.571 307.337 176.171 311.897 186.969 317.026C193.202 319.986 199.834 323.137 210.218 323.802L147.651 355.608C128.501 347.166 116.494 346.029 94.5002 345.628C94.5002 345.628 84.2712 357.835 80.7199 365.998Z" fill="#FFF3D2"/>
<path d="M220.039 341.263L210.218 323.802L147.651 355.608L161.111 381.64L220.039 341.263Z" fill="#F7DFA2"/>
<g opacity="0.3" filter="url(#filter2_f_29924_66068)">
<path d="M141.103 317.982C119.684 328.446 103.992 336.671 93.8141 346.719C93.5494 347.037 92.8297 347.956 92.359 348.538C91.4175 349.702 90.1237 351.377 88.7214 353.267C85.9068 357.06 82.8229 361.634 81.0825 365.635H80.7188C82.5297 361.472 85.1686 356.306 87.9926 352.5C89.4097 350.591 90.7148 348.938 91.6658 347.762C92.1414 347.174 92.8177 347.041 93.0865 346.719C103.463 336.466 118.245 327.711 139.648 317.255H140.739L141.103 317.982Z" fill="#BC7100"/>
</g>
<path opacity="0.3" d="M93.8164 351.448C100 346.719 130.192 351.448 143.288 358.359M102.183 355.086C118.908 354.393 130.07 357.549 145.47 363.816M97.0902 358.359C106.184 356.904 125.86 358.387 143.288 366.726M106.184 364.18C122.315 364.764 132.085 367.944 148.38 375.092" stroke="#784800" stroke-width="0.224861" stroke-linecap="round"/>
<path opacity="0.25" d="M155.654 359.086L179.662 346.354M185.846 351.811L193.849 346.354M192.03 351.811L212.764 338.716M163.293 359.086L198.942 338.716M165.84 368.18L185.846 356.176M176.025 368.18L202.579 349.628" stroke="#784800" stroke-width="0.224861" stroke-linecap="round"/>
<path opacity="0.25" d="M30.5208 323.075C30.5208 323.075 56.7114 327.804 68.3517 336.534C73.8362 340.647 78.1732 351.084 78.1732 351.084M31.6121 329.259C40.1657 330.876 45.0497 332.208 54.1651 336.534M46.1624 337.989C46.1624 337.989 58.7307 339.169 63.9866 342.718C67.15 344.854 70.898 349.629 70.898 349.629M68.3517 341.263C70.1069 342.815 71.0003 343.891 72.353 346.355M23.6094 332.896C33.7461 335.541 39.1532 337.418 48.345 341.263M86.4905 331.36L54.1651 316.07M95.0352 329.259C79.9877 320.483 72.3284 316.568 59.5071 310.673M102.905 323.075C89.4113 316.475 81.8457 312.775 68.3517 306.176M109.876 316.07C97.5263 308.608 90.5795 305.657 78.1732 301.229M149.901 346.355L135.96 342.718M157.322 341.263C144.177 336.788 136.79 335.037 123.593 332.896M169.015 334.283C156.707 328.489 149.434 326.864 135.96 326.188M179.583 327.538C167.708 322.312 161.234 320.946 149.901 320.342" stroke="#784800" stroke-width="0.224861" stroke-linecap="round"/>
<circle cx="282.541" cy="137.861" r="7.56223" fill="#C23333"/>
<g filter="url(#filter3_f_29924_66068)">
<ellipse cx="282.779" cy="136.679" rx="6.85327" ry="6.38063" fill="#F05C5C"/>
</g>
<g filter="url(#filter4_f_29924_66068)">
<ellipse cx="283.486" cy="133.136" rx="3.30847" ry="1.89056" fill="#FFBDBD"/>
</g>
<g filter="url(#filter5_f_29924_66068)">
<path fill-rule="evenodd" clip-rule="evenodd" d="M298.139 138.335C298.139 139.901 290.945 141.171 282.07 141.171C273.195 141.171 266 139.901 266 138.335C266 137.195 269.808 136.213 275.3 135.762L275.105 136.388C271.064 136.814 268.363 137.587 268.363 138.47C268.363 139.812 274.606 140.9 282.306 140.9C290.007 140.9 296.249 139.812 296.249 138.47C296.249 137.621 293.756 136.875 289.978 136.44L289.836 135.851C294.787 136.335 298.139 137.266 298.139 138.335Z" fill="white"/>
</g>
<g filter="url(#filter6_f_29924_66068)">
<path fill-rule="evenodd" clip-rule="evenodd" d="M290.104 124.418C291.46 125.201 288.962 132.067 284.525 139.753C280.087 147.439 275.39 153.035 274.034 152.251C273.026 151.67 274.147 147.729 276.61 142.588L277.05 143.061C275.29 146.942 274.545 149.818 275.333 150.272C276.495 150.944 280.559 146.082 284.409 139.413C288.259 132.744 290.438 126.794 289.275 126.123C288.541 125.699 286.649 127.483 284.384 130.536L283.777 130.401C286.681 126.335 289.175 123.882 290.104 124.418Z" fill="white"/>
</g>
<g filter="url(#filter7_f_29924_66068)">
<path fill-rule="evenodd" clip-rule="evenodd" d="M274.033 124.418C272.677 125.201 275.174 132.067 279.612 139.753C284.049 147.439 288.746 153.035 290.103 152.251C291.066 151.695 290.085 148.07 287.845 143.261L287.36 143.673C288.921 147.242 289.55 149.842 288.804 150.272C287.642 150.944 283.578 146.082 279.728 139.413C275.877 132.744 273.699 126.794 274.861 126.123C275.615 125.688 277.585 127.575 279.927 130.772L280.492 130.587C277.531 126.41 274.975 123.874 274.033 124.418Z" fill="white"/>
</g>
<path d="M27.9562 65.8865L23.123 80.6405L36.8595 91.8331" stroke="url(#paint11_linear_29924_66068)" stroke-width="2.24861" stroke-linecap="round"/>
<circle cx="24.3945" cy="80.6403" r="8.39449" fill="#187480"/>
<path d="M21.5963 88.5259C26.092 88.5259 29.7364 84.8816 29.7364 80.3858C29.7364 76.3634 26.819 73.0222 22.9846 72.3634C19.0198 73.0341 16 76.4846 16 80.6401C16 84.2621 18.2941 87.3484 21.5086 88.5254C21.5378 88.5254 21.567 88.5259 21.5963 88.5259Z" fill="#40A8B5"/>
<path opacity="0.6" d="M17.4356 79.8953C18.1789 80.2431 19.2208 79.5863 19.7629 78.4281C20.2478 77.3919 20.1683 76.3054 19.6138 75.839C18.8774 75.705 17.9621 76.3602 17.4611 77.4308C17.0244 78.3638 17.0316 79.3364 17.4212 79.8884C17.426 79.8906 17.4308 79.893 17.4356 79.8953Z" fill="#AAF6FF"/>
<circle cx="28.9748" cy="62.3244" r="4.32443" fill="#B43939"/>
<path d="M26.7542 66.0356C25.494 65.2799 24.6504 63.9007 24.6504 62.3243C24.6504 60.7478 25.494 59.3686 26.7542 58.6129C27.0587 58.5449 27.3763 58.5086 27.7029 58.5086C29.9507 58.5086 31.773 60.2167 31.773 62.3243C31.773 64.4318 29.9507 66.14 27.7029 66.14C27.3763 66.14 27.0587 66.1037 26.7542 66.0356Z" fill="#FC7474"/>
<path d="M27.2569 64.7516C27.2462 64.4422 27.0617 64.0042 26.7416 63.5874C26.4215 63.1707 26.0459 62.8796 25.7496 62.7895C25.7013 62.798 25.658 62.816 25.621 62.8444C25.3663 63.0401 25.5067 63.6502 25.9347 64.2073C26.3627 64.7644 26.916 65.0574 27.1706 64.8617C27.2076 64.8333 27.2362 64.7961 27.2569 64.7516Z" fill="#FFBBBB"/>
<circle cx="38.6389" cy="93.3584" r="4.32443" fill="#B43939"/>
<path d="M36.4183 97.0696C35.1581 96.3139 34.3145 94.9347 34.3145 93.3583C34.3145 91.7818 35.1581 90.4026 36.4183 89.6469C36.7227 89.5789 37.0403 89.5426 37.367 89.5426C39.6148 89.5426 41.437 91.2507 41.437 93.3583C41.437 95.4658 39.6148 97.174 37.367 97.174C37.0403 97.174 36.7227 97.1377 36.4183 97.0696Z" fill="#FC7474"/>
<path d="M35.3737 91.8719C35.6769 91.809 36.0774 91.5531 36.4339 91.1671C36.7904 90.781 37.0138 90.3615 37.0525 90.0544C37.0359 90.0082 37.0108 89.9685 36.9765 89.9369C36.7406 89.719 36.1631 89.9606 35.6864 90.4767C35.2098 90.9928 35.0147 91.5877 35.2506 91.8055C35.2849 91.8372 35.3264 91.8591 35.3737 91.8719Z" fill="#FFBBBB"/>
<path d="M39.748 286.123L42.5758 287.302M48.05 289.584L45.8749 288.677M45.8749 288.677L43.3866 294.647C43.1362 295.247 43.4201 295.937 44.0208 296.188V296.188M45.8749 288.677L42.5758 287.302M42.5758 287.302L40.8129 291.531C40.1619 293.093 38.3681 293.831 36.8064 293.18V293.18" stroke="white" stroke-width="1.79889" stroke-linecap="round" stroke-linejoin="round"/>
<path d="M250.357 56.1056L249.51 54L242 57.0216L247.136 59.8029L245.357 65.366L252.867 62.3444" stroke="white" stroke-width="1.79889" stroke-linecap="round" stroke-linejoin="round"/>
<path d="M184.077 92.3157L176.794 89.5218L169.222 96.2504L167.651 93.6993" stroke="white" stroke-width="1.79889" stroke-linecap="round" stroke-linejoin="round"/>
<path d="M263 188.779L272.275 187M263.847 193.196L273.122 191.417" stroke="white" stroke-width="1.79889" stroke-linecap="round" stroke-linejoin="round"/>
<path d="M91.0285 118.462L99.1659 123.255M88.6118 122.565L96.7492 127.358M98.9324 119.801L87.8424 125.796" stroke="white" stroke-width="1.79889" stroke-linecap="round"/>
<g opacity="0.8" filter="url(#filter8_f_29924_66068)">
<circle cx="269.1" cy="280.269" r="3.82264" fill="white"/>
</g>
<path d="M269.042 277.367C269.102 277.205 269.33 277.205 269.39 277.367L270.129 279.361C270.147 279.412 270.188 279.452 270.238 279.471L272.234 280.208C272.396 280.268 272.396 280.497 272.234 280.556L270.238 281.294C270.188 281.313 270.147 281.353 270.129 281.404L269.39 283.398C269.33 283.559 269.102 283.559 269.042 283.398L268.303 281.404C268.284 281.353 268.244 281.313 268.193 281.294L266.198 280.556C266.036 280.497 266.036 280.268 266.198 280.208L268.193 279.471C268.244 279.452 268.284 279.412 268.303 279.361L269.042 277.367Z" fill="#FFEF5C"/>
<g opacity="0.8" filter="url(#filter9_f_29924_66068)">
<circle cx="20.8226" cy="222.823" r="3.82264" fill="white"/>
</g>
<path d="M20.7645 219.92C20.8244 219.759 21.0527 219.759 21.1126 219.92L21.8513 221.914C21.8701 221.965 21.9102 222.005 21.961 222.024L23.9569 222.762C24.1186 222.821 24.1186 223.05 23.9569 223.11L21.961 223.847C21.9102 223.866 21.8701 223.906 21.8513 223.957L21.1126 225.951C21.0527 226.113 20.8244 226.113 20.7645 225.951L20.0258 223.957C20.0069 223.906 19.9669 223.866 19.9161 223.847L17.9202 223.11C17.7585 223.05 17.7585 222.821 17.9202 222.762L19.9161 222.024C19.9669 222.005 20.0069 221.965 20.0258 221.914L20.7645 219.92Z" fill="#FFEF5C"/>
<g opacity="0.8" filter="url(#filter10_f_29924_66068)">
<circle cx="158.85" cy="30.9789" r="3.82264" fill="white"/>
</g>
<path d="M158.792 28.0764C158.852 27.9149 159.08 27.9149 159.14 28.0764L159.879 30.0706C159.897 30.1213 159.938 30.1614 159.988 30.1801L161.984 30.9178C162.146 30.9776 162.146 31.2062 161.984 31.2659L159.988 32.0036C159.938 32.0224 159.897 32.0624 159.879 32.1132L159.14 34.1074C159.08 34.2688 158.852 34.2688 158.792 34.1074L158.053 32.1132C158.034 32.0624 157.994 32.0224 157.943 32.0036L155.948 31.2659C155.786 31.2062 155.786 30.9776 155.948 30.9178L157.943 30.1801C157.994 30.1614 158.034 30.1213 158.053 30.0706L158.792 28.0764Z" fill="#FFEF5C"/>
<g opacity="0.8" filter="url(#filter11_f_29924_66068)">
<circle cx="298.823" cy="31.8226" r="3.82264" fill="white"/>
</g>
<path d="M298.765 28.9201C298.824 28.7587 299.053 28.7587 299.113 28.9201L299.851 30.9143C299.87 30.9651 299.91 31.0051 299.961 31.0239L301.957 31.7616C302.119 31.8213 302.119 32.0499 301.957 32.1097L299.961 32.8474C299.91 32.8661 299.87 32.9062 299.851 32.957L299.113 34.9511C299.053 35.1126 298.824 35.1126 298.765 34.9511L298.026 32.957C298.007 32.9062 297.967 32.8661 297.916 32.8474L295.92 32.1097C295.759 32.0499 295.759 31.8213 295.92 31.7616L297.916 31.0239C297.967 31.0051 298.007 30.9651 298.026 30.9143L298.765 28.9201Z" fill="#FFEF5C"/>
<g opacity="0.8" filter="url(#filter12_f_29924_66068)">
<circle cx="291.151" cy="351.873" r="3.82264" fill="white"/>
</g>
<path d="M291.093 348.97C291.152 348.809 291.381 348.809 291.441 348.97L292.179 350.964C292.198 351.015 292.238 351.055 292.289 351.074L294.285 351.812C294.447 351.871 294.447 352.1 294.285 352.16L292.289 352.897C292.238 352.916 292.198 352.956 292.179 353.007L291.441 355.001C291.381 355.163 291.152 355.163 291.093 355.001L290.354 353.007C290.335 352.956 290.295 352.916 290.244 352.897L288.248 352.16C288.087 352.1 288.087 351.871 288.248 351.812L290.244 351.074C290.295 351.055 290.335 351.015 290.354 350.964L291.093 348.97Z" fill="#FFEF5C"/>
<g opacity="0.8" filter="url(#filter13_f_29924_66068)">
<circle cx="180.434" cy="142.635" r="3.82264" fill="white"/>
</g>
<path d="M180.376 139.732C180.436 139.571 180.664 139.571 180.724 139.732L181.463 141.726C181.481 141.777 181.522 141.817 181.572 141.836L183.568 142.573C183.73 142.633 183.73 142.862 183.568 142.922L181.572 143.659C181.522 143.678 181.481 143.718 181.463 143.769L180.724 145.763C180.664 145.924 180.436 145.924 180.376 145.763L179.637 143.769C179.618 143.718 179.578 143.678 179.527 143.659L177.531 142.922C177.37 142.862 177.37 142.633 177.531 142.573L179.527 141.836C179.578 141.817 179.618 141.777 179.637 141.726L180.376 139.732Z" fill="#FFEF5C"/>
<g opacity="0.8" filter="url(#filter14_f_29924_66068)">
<circle cx="38.7504" cy="27.2258" r="3.82264" fill="white"/>
</g>
<path d="M38.6923 24.3233C38.7521 24.1619 38.9805 24.1619 39.0403 24.3233L39.7791 26.3175C39.7979 26.3683 39.8379 26.4083 39.8887 26.4271L41.8847 27.1648C42.0463 27.2245 42.0463 27.4531 41.8847 27.5129L39.8887 28.2506C39.8379 28.2693 39.7979 28.3094 39.7791 28.3602L39.0403 30.3543C38.9805 30.5158 38.7521 30.5158 38.6923 30.3543L37.9535 28.3602C37.9347 28.3094 37.8946 28.2693 37.8438 28.2506L35.8479 27.5129C35.6862 27.4531 35.6863 27.2245 35.8479 27.1648L37.8438 26.4271C37.8946 26.4083 37.9347 26.3683 37.9535 26.3175L38.6923 24.3233Z" fill="#FFEF5C"/>
<g opacity="0.8" filter="url(#filter15_f_29924_66068)">
<circle cx="69.8226" cy="271.823" r="3.82264" fill="white"/>
</g>
<path d="M69.7645 268.92C69.8244 268.759 70.0527 268.759 70.1126 268.92L70.8513 270.914C70.8701 270.965 70.9102 271.005 70.961 271.024L72.9569 271.762C73.1186 271.821 73.1186 272.05 72.9569 272.11L70.961 272.847C70.9102 272.866 70.8701 272.906 70.8513 272.957L70.1126 274.951C70.0527 275.113 69.8244 275.113 69.7645 274.951L69.0258 272.957C69.0069 272.906 68.9669 272.866 68.9161 272.847L66.9202 272.11C66.7585 272.05 66.7585 271.821 66.9202 271.762L68.9161 271.024C68.9669 271.005 69.0069 270.965 69.0258 270.914L69.7645 268.92Z" fill="#FFEF5C"/>
<g opacity="0.8" filter="url(#filter16_f_29924_66068)">
<circle cx="260.188" cy="91.9681" r="3.82264" fill="white"/>
</g>
<path d="M260.13 89.0656C260.19 88.9042 260.418 88.9042 260.478 89.0656L261.217 91.0598C261.235 91.1106 261.275 91.1506 261.326 91.1694L263.322 91.9071C263.484 91.9668 263.484 92.1955 263.322 92.2552L261.326 92.9929C261.275 93.0117 261.235 93.0517 261.217 93.1025L260.478 95.0966C260.418 95.2581 260.19 95.2581 260.13 95.0966L259.391 93.1025C259.372 93.0517 259.332 93.0117 259.281 92.9929L257.285 92.2552C257.124 92.1955 257.124 91.9668 257.285 91.9071L259.281 91.1694C259.332 91.1506 259.372 91.1106 259.391 91.0598L260.13 89.0656Z" fill="#FFEF5C"/>
<g opacity="0.8" filter="url(#filter17_f_29924_66068)">
<circle cx="87.8226" cy="69.8226" r="3.82264" fill="white"/>
</g>
<path d="M87.7645 66.9194C87.8244 66.7579 88.0527 66.7579 88.1126 66.9194L88.8513 68.9136C88.8701 68.9644 88.9102 69.0044 88.961 69.0232L90.9569 69.7608C91.1186 69.8206 91.1186 70.0492 90.9569 70.109L88.961 70.8466C88.9102 70.8654 88.8701 70.9054 88.8513 70.9562L88.1126 72.9504C88.0527 73.1119 87.8244 73.1119 87.7645 72.9504L87.0258 70.9562C87.0069 70.9054 86.9669 70.8654 86.9161 70.8466L84.9202 70.109C84.7585 70.0492 84.7585 69.8206 84.9202 69.7608L86.9161 69.0232C86.9669 69.0044 87.0069 68.9644 87.0258 68.9136L87.7645 66.9194Z" fill="#FFEF5C"/>
<g opacity="0.8" filter="url(#filter18_f_29924_66068)">
<circle cx="265.502" cy="217.307" r="3.82264" fill="white"/>
</g>
<path d="M265.444 214.404C265.504 214.243 265.732 214.243 265.792 214.404L266.531 216.398C266.55 216.449 266.59 216.489 266.641 216.508L268.637 217.246C268.798 217.305 268.798 217.534 268.637 217.594L266.641 218.331C266.59 218.35 266.55 218.39 266.531 218.441L265.792 220.435C265.732 220.597 265.504 220.597 265.444 220.435L264.705 218.441C264.687 218.39 264.647 218.35 264.596 218.331L262.6 217.594C262.438 217.534 262.438 217.305 262.6 217.246L264.596 216.508C264.647 216.489 264.687 216.449 264.705 216.398L265.444 214.404Z" fill="#FFEF5C"/>
<g opacity="0.8" filter="url(#filter19_f_29924_66068)">
<circle cx="49.0726" cy="152.018" r="3.82264" fill="white"/>
</g>
<path d="M49.0145 149.116C49.0744 148.954 49.3027 148.954 49.3626 149.116L50.1013 151.11C50.1201 151.161 50.1602 151.201 50.211 151.219L52.2069 151.957C52.3686 152.017 52.3686 152.245 52.2069 152.305L50.211 153.043C50.1602 153.062 50.1201 153.102 50.1013 153.152L49.3626 155.147C49.3027 155.308 49.0744 155.308 49.0145 155.147L48.2758 153.152C48.2569 153.102 48.2169 153.062 48.1661 153.043L46.1702 152.305C46.0085 152.245 46.0085 152.017 46.1702 151.957L48.1661 151.219C48.2169 151.201 48.2569 151.161 48.2758 151.11L49.0145 149.116Z" fill="#FFEF5C"/>
<g opacity="0.8" filter="url(#filter20_f_29924_66068)">
<circle cx="213.332" cy="309.05" r="3.82264" fill="white"/>
</g>
<path d="M213.274 306.147C213.334 305.986 213.562 305.986 213.622 306.147L214.361 308.142C214.38 308.192 214.42 308.232 214.471 308.251L216.467 308.989C216.628 309.049 216.628 309.277 216.467 309.337L214.471 310.075C214.42 310.093 214.38 310.133 214.361 310.184L213.622 312.178C213.562 312.34 213.334 312.34 213.274 312.178L212.536 310.184C212.517 310.133 212.477 310.093 212.426 310.075L210.43 309.337C210.268 309.277 210.268 309.049 210.43 308.989L212.426 308.251C212.477 308.232 212.517 308.192 212.536 308.142L213.274 306.147Z" fill="#FFEF5C"/>
<path d="M132.041 198.394C106.727 197.395 87.4727 222.789 87.4727 222.789C87.4727 222.789 103.133 187.977 137.202 190.418C171.271 192.86 182.24 224.666 182.24 234.049L177.548 235.456C177.548 235.456 167.696 199.801 132.041 198.394Z" fill="#6A6A6A"/>
</g>
<defs>
<filter id="filter0_f_29924_66068" x="109.831" y="274.689" width="163.903" height="46.0847" filterUnits="userSpaceOnUse" color-interpolation-filters="sRGB">
<feFlood flood-opacity="0" result="BackgroundImageFix"/>
<feBlend mode="normal" in="SourceGraphic" in2="BackgroundImageFix" result="shape"/>
<feGaussianBlur stdDeviation="1.06024" result="effect1_foregroundBlur_29924_66068"/>
</filter>
<filter id="filter1_f_29924_66068" x="5.8212" y="288.412" width="227.389" height="106.405" filterUnits="userSpaceOnUse" color-interpolation-filters="sRGB">
<feFlood flood-opacity="0" result="BackgroundImageFix"/>
<feBlend mode="normal" in="SourceGraphic" in2="BackgroundImageFix" result="shape"/>
<feGaussianBlur stdDeviation="1.34917" result="effect1_foregroundBlur_29924_66068"/>
</filter>
<filter id="filter2_f_29924_66068" x="80.269" y="316.805" width="61.2842" height="49.2793" filterUnits="userSpaceOnUse" color-interpolation-filters="sRGB">
<feFlood flood-opacity="0" result="BackgroundImageFix"/>
<feBlend mode="normal" in="SourceGraphic" in2="BackgroundImageFix" result="shape"/>
<feGaussianBlur stdDeviation="0.224861" result="effect1_foregroundBlur_29924_66068"/>
</filter>
<filter id="filter3_f_29924_66068" x="275.026" y="129.399" width="15.5059" height="14.5601" filterUnits="userSpaceOnUse" color-interpolation-filters="sRGB">
<feFlood flood-opacity="0" result="BackgroundImageFix"/>
<feBlend mode="normal" in="SourceGraphic" in2="BackgroundImageFix" result="shape"/>
<feGaussianBlur stdDeviation="0.449723" result="effect1_foregroundBlur_29924_66068"/>
</filter>
<filter id="filter4_f_29924_66068" x="278.379" y="129.446" width="10.215" height="7.37891" filterUnits="userSpaceOnUse" color-interpolation-filters="sRGB">
<feFlood flood-opacity="0" result="BackgroundImageFix"/>
<feBlend mode="normal" in="SourceGraphic" in2="BackgroundImageFix" result="shape"/>
<feGaussianBlur stdDeviation="0.899445" result="effect1_foregroundBlur_29924_66068"/>
</filter>
<filter id="filter5_f_29924_66068" x="265.55" y="135.312" width="33.0381" height="6.30795" filterUnits="userSpaceOnUse" color-interpolation-filters="sRGB">
<feFlood flood-opacity="0" result="BackgroundImageFix"/>
<feBlend mode="normal" in="SourceGraphic" in2="BackgroundImageFix" result="shape"/>
<feGaussianBlur stdDeviation="0.224861" result="effect1_foregroundBlur_29924_66068"/>
</filter>
<filter id="filter6_f_29924_66068" x="273.214" y="123.895" width="17.708" height="28.8792" filterUnits="userSpaceOnUse" color-interpolation-filters="sRGB">
<feFlood flood-opacity="0" result="BackgroundImageFix"/>
<feBlend mode="normal" in="SourceGraphic" in2="BackgroundImageFix" result="shape"/>
<feGaussianBlur stdDeviation="0.224861" result="effect1_foregroundBlur_29924_66068"/>
</filter>
<filter id="filter7_f_29924_66068" x="273.214" y="123.895" width="17.708" height="28.8792" filterUnits="userSpaceOnUse" color-interpolation-filters="sRGB">
<feFlood flood-opacity="0" result="BackgroundImageFix"/>
<feBlend mode="normal" in="SourceGraphic" in2="BackgroundImageFix" result="shape"/>
<feGaussianBlur stdDeviation="0.224861" result="effect1_foregroundBlur_29924_66068"/>
</filter>
<filter id="filter8_f_29924_66068" x="259.881" y="271.05" width="18.4379" height="18.4386" filterUnits="userSpaceOnUse" color-interpolation-filters="sRGB">
<feFlood flood-opacity="0" result="BackgroundImageFix"/>
<feBlend mode="normal" in="SourceGraphic" in2="BackgroundImageFix" result="shape"/>
<feGaussianBlur stdDeviation="2.69834" result="effect1_foregroundBlur_29924_66068"/>
</filter>
<filter id="filter9_f_29924_66068" x="11.6033" y="213.603" width="18.4379" height="18.4386" filterUnits="userSpaceOnUse" color-interpolation-filters="sRGB">
<feFlood flood-opacity="0" result="BackgroundImageFix"/>
<feBlend mode="normal" in="SourceGraphic" in2="BackgroundImageFix" result="shape"/>
<feGaussianBlur stdDeviation="2.69834" result="effect1_foregroundBlur_29924_66068"/>
</filter>
<filter id="filter10_f_29924_66068" x="149.631" y="21.7596" width="18.4379" height="18.4386" filterUnits="userSpaceOnUse" color-interpolation-filters="sRGB">
<feFlood flood-opacity="0" result="BackgroundImageFix"/>
<feBlend mode="normal" in="SourceGraphic" in2="BackgroundImageFix" result="shape"/>
<feGaussianBlur stdDeviation="2.69834" result="effect1_foregroundBlur_29924_66068"/>
</filter>
<filter id="filter11_f_29924_66068" x="289.603" y="22.6033" width="18.4379" height="18.4386" filterUnits="userSpaceOnUse" color-interpolation-filters="sRGB">
<feFlood flood-opacity="0" result="BackgroundImageFix"/>
<feBlend mode="normal" in="SourceGraphic" in2="BackgroundImageFix" result="shape"/>
<feGaussianBlur stdDeviation="2.69834" result="effect1_foregroundBlur_29924_66068"/>
</filter>
<filter id="filter12_f_29924_66068" x="281.931" y="342.653" width="18.4379" height="18.4386" filterUnits="userSpaceOnUse" color-interpolation-filters="sRGB">
<feFlood flood-opacity="0" result="BackgroundImageFix"/>
<feBlend mode="normal" in="SourceGraphic" in2="BackgroundImageFix" result="shape"/>
<feGaussianBlur stdDeviation="2.69834" result="effect1_foregroundBlur_29924_66068"/>
</filter>
<filter id="filter13_f_29924_66068" x="171.215" y="133.415" width="18.4379" height="18.4386" filterUnits="userSpaceOnUse" color-interpolation-filters="sRGB">
<feFlood flood-opacity="0" result="BackgroundImageFix"/>
<feBlend mode="normal" in="SourceGraphic" in2="BackgroundImageFix" result="shape"/>
<feGaussianBlur stdDeviation="2.69834" result="effect1_foregroundBlur_29924_66068"/>
</filter>
<filter id="filter14_f_29924_66068" x="29.5311" y="18.0065" width="18.4379" height="18.4386" filterUnits="userSpaceOnUse" color-interpolation-filters="sRGB">
<feFlood flood-opacity="0" result="BackgroundImageFix"/>
<feBlend mode="normal" in="SourceGraphic" in2="BackgroundImageFix" result="shape"/>
<feGaussianBlur stdDeviation="2.69834" result="effect1_foregroundBlur_29924_66068"/>
</filter>
<filter id="filter15_f_29924_66068" x="60.6033" y="262.603" width="18.4379" height="18.4386" filterUnits="userSpaceOnUse" color-interpolation-filters="sRGB">
<feFlood flood-opacity="0" result="BackgroundImageFix"/>
<feBlend mode="normal" in="SourceGraphic" in2="BackgroundImageFix" result="shape"/>
<feGaussianBlur stdDeviation="2.69834" result="effect1_foregroundBlur_29924_66068"/>
</filter>
<filter id="filter16_f_29924_66068" x="250.969" y="82.7488" width="18.4379" height="18.4386" filterUnits="userSpaceOnUse" color-interpolation-filters="sRGB">
<feFlood flood-opacity="0" result="BackgroundImageFix"/>
<feBlend mode="normal" in="SourceGraphic" in2="BackgroundImageFix" result="shape"/>
<feGaussianBlur stdDeviation="2.69834" result="effect1_foregroundBlur_29924_66068"/>
</filter>
<filter id="filter17_f_29924_66068" x="78.6033" y="60.6033" width="18.4379" height="18.4386" filterUnits="userSpaceOnUse" color-interpolation-filters="sRGB">
<feFlood flood-opacity="0" result="BackgroundImageFix"/>
<feBlend mode="normal" in="SourceGraphic" in2="BackgroundImageFix" result="shape"/>
<feGaussianBlur stdDeviation="2.69834" result="effect1_foregroundBlur_29924_66068"/>
</filter>
<filter id="filter18_f_29924_66068" x="256.283" y="208.087" width="18.4379" height="18.4386" filterUnits="userSpaceOnUse" color-interpolation-filters="sRGB">
<feFlood flood-opacity="0" result="BackgroundImageFix"/>
<feBlend mode="normal" in="SourceGraphic" in2="BackgroundImageFix" result="shape"/>
<feGaussianBlur stdDeviation="2.69834" result="effect1_foregroundBlur_29924_66068"/>
</filter>
<filter id="filter19_f_29924_66068" x="39.8533" y="142.799" width="18.4379" height="18.4386" filterUnits="userSpaceOnUse" color-interpolation-filters="sRGB">
<feFlood flood-opacity="0" result="BackgroundImageFix"/>
<feBlend mode="normal" in="SourceGraphic" in2="BackgroundImageFix" result="shape"/>
<feGaussianBlur stdDeviation="2.69834" result="effect1_foregroundBlur_29924_66068"/>
</filter>
<filter id="filter20_f_29924_66068" x="204.113" y="299.831" width="18.4379" height="18.4386" filterUnits="userSpaceOnUse" color-interpolation-filters="sRGB">
<feFlood flood-opacity="0" result="BackgroundImageFix"/>
<feBlend mode="normal" in="SourceGraphic" in2="BackgroundImageFix" result="shape"/>
<feGaussianBlur stdDeviation="2.69834" result="effect1_foregroundBlur_29924_66068"/>
</filter>
<radialGradient id="paint0_radial_29924_66068" cx="0" cy="0" r="1" gradientUnits="userSpaceOnUse" gradientTransform="translate(160.192 211.999) rotate(87.0089) scale(260.73 184.145)">
<stop stop-color="#A587F5"/>
<stop offset="0.786107" stop-color="#7E54F1"/>
</radialGradient>
<linearGradient id="paint1_linear_29924_66068" x1="219.897" y1="222.085" x2="218.567" y2="251.883" gradientUnits="userSpaceOnUse">
<stop stop-color="#888EFB"/>
<stop offset="1" stop-color="#454BBE"/>
</linearGradient>
<linearGradient id="paint2_linear_29924_66068" x1="201.95" y1="247.14" x2="207.844" y2="302.054" gradientUnits="userSpaceOnUse">
<stop offset="1" stop-color="#454BBE"/>
<stop stop-color="#7C82F2"/>
</linearGradient>
<linearGradient id="paint3_linear_29924_66068" x1="121.869" y1="285.682" x2="111.748" y2="295.458" gradientUnits="userSpaceOnUse">
<stop stop-color="#454BBE"/>
<stop offset="1" stop-color="#656BED"/>
</linearGradient>
<linearGradient id="paint4_linear_29924_66068" x1="167.459" y1="268.254" x2="128.345" y2="293.448" gradientUnits="userSpaceOnUse">
<stop stop-color="#454BBE"/>
<stop offset="1" stop-color="#6B72F8"/>
</linearGradient>
<linearGradient id="paint5_linear_29924_66068" x1="174.618" y1="260.512" x2="169.784" y2="311.74" gradientUnits="userSpaceOnUse">
<stop offset="1" stop-color="#454BBE"/>
<stop stop-color="#8086F4"/>
</linearGradient>
<linearGradient id="paint6_linear_29924_66068" x1="161.306" y1="268.454" x2="173.542" y2="306.655" gradientUnits="userSpaceOnUse">
<stop offset="1" stop-color="#4D53C6"/>
<stop stop-color="#9499FF"/>
</linearGradient>
<linearGradient id="paint7_linear_29924_66068" x1="159.057" y1="262.005" x2="156.969" y2="284.141" gradientUnits="userSpaceOnUse">
<stop offset="1" stop-color="#F77B1F"/>
<stop stop-color="#FFDF6B"/>
</linearGradient>
<linearGradient id="paint8_linear_29924_66068" x1="99.3207" y1="259.284" x2="106.624" y2="299.54" gradientUnits="userSpaceOnUse">
<stop stop-color="#5A61DE"/>
<stop offset="1" stop-color="#636AEB"/>
</linearGradient>
<linearGradient id="paint9_linear_29924_66068" x1="99.3638" y1="253.412" x2="104.409" y2="273.05" gradientUnits="userSpaceOnUse">
<stop stop-color="#EECC55"/>
<stop offset="1" stop-color="#F88527"/>
</linearGradient>
<linearGradient id="paint10_linear_29924_66068" x1="278.035" y1="253.16" x2="285.302" y2="230.706" gradientUnits="userSpaceOnUse">
<stop stop-color="#EA7E25"/>
<stop offset="1" stop-color="#FC861F"/>
</linearGradient>
<linearGradient id="paint11_linear_29924_66068" x1="32.0263" y1="72.246" x2="16.7636" y2="77.5879" gradientUnits="userSpaceOnUse">
<stop stop-color="#BBBBBB"/>
<stop offset="1" stop-color="#555555"/>
</linearGradient>
<clipPath id="clip0_29924_66068">
<rect width="320" height="410" fill="white"/>
</clipPath>
</defs>
</svg>
