<svg width="320" height="410" viewBox="0 0 320 410" fill="none" xmlns="http://www.w3.org/2000/svg">
<g clip-path="url(#clip0_29924_66923)">
<rect width="320" height="410" fill="white"/>
<path d="M155.762 -128.713C59.9381 -133.228 -49.1821 -218.704 -92.3052 -133.054C-131.177 -55.8483 -26.6879 -44.5595 -33.9077 41.5697C-39.7916 111.762 -75.7028 131.288 -74.9309 201.722C-74.3353 256.06 -22.3168 272.399 -11.7074 325.696C5.18784 410.57 -121.091 473.007 -66.7263 540.358C-9.71774 610.983 73.7265 519.244 164.449 515.756C262.443 511.988 381.964 616.579 415.413 524.439C438.81 459.986 348.393 429.932 350.259 361.392C352.006 297.201 409.094 274.309 415.413 210.405C422.072 143.056 375.082 109.235 376.32 41.5697C377.468 -21.1519 437.304 -55.4489 415.413 -114.241C379.989 -209.374 259.654 -123.818 155.762 -128.713Z" fill="url(#paint0_radial_29924_66923)"/>
<ellipse opacity="0.3" cx="161.539" cy="194.628" rx="194.134" ry="222.074" fill="url(#paint1_radial_29924_66923)"/>
<g opacity="0.8" filter="url(#filter0_f_29924_66923)">
<circle cx="268.074" cy="150.863" r="3.92514" fill="white"/>
</g>
<path d="M268.014 147.882C268.075 147.716 268.31 147.716 268.371 147.882L269.13 149.93C269.149 149.982 269.19 150.023 269.242 150.042L271.292 150.8C271.458 150.861 271.458 151.096 271.292 151.157L269.242 151.915C269.19 151.934 269.149 151.975 269.13 152.027L268.371 154.075C268.31 154.241 268.075 154.241 268.014 154.075L267.255 152.027C267.236 151.975 267.195 151.934 267.142 151.915L265.093 151.157C264.927 151.096 264.927 150.861 265.093 150.8L267.142 150.042C267.195 150.023 267.236 149.982 267.255 149.93L268.014 147.882Z" fill="#FFEF5C"/>
<g opacity="0.8" filter="url(#filter1_f_29924_66923)">
<circle cx="291.925" cy="36.9251" r="3.92514" fill="white"/>
</g>
<path d="M291.865 33.9447C291.927 33.7789 292.161 33.7789 292.222 33.9447L292.981 35.9923C293 36.0444 293.042 36.0855 293.094 36.1048L295.143 36.8623C295.309 36.9236 295.309 37.1584 295.143 37.2197L293.094 37.9772C293.042 37.9965 293 38.0376 292.981 38.0897L292.222 40.1374C292.161 40.3032 291.927 40.3032 291.865 40.1374L291.107 38.0897C291.087 38.0376 291.046 37.9965 290.994 37.9772L288.945 37.2197C288.779 37.1584 288.779 36.9236 288.945 36.8623L290.994 36.1048C291.046 36.0855 291.087 36.0444 291.107 35.9923L291.865 33.9447Z" fill="#FFEF5C"/>
<g opacity="0.8" filter="url(#filter2_f_29924_66923)">
<circle cx="152.925" cy="10.9251" r="3.92514" fill="white"/>
</g>
<path d="M152.865 7.94466C152.927 7.77886 153.161 7.77886 153.222 7.94466L153.981 9.99229C154 10.0444 154.042 10.0855 154.094 10.1048L156.143 10.8623C156.309 10.9236 156.309 11.1584 156.143 11.2197L154.094 11.9772C154.042 11.9965 154 12.0376 153.981 12.0897L153.222 14.1374C153.161 14.3032 152.927 14.3032 152.865 14.1374L152.107 12.0897C152.087 12.0376 152.046 11.9965 151.994 11.9772L149.945 11.2197C149.779 11.1584 149.779 10.9236 149.945 10.8623L151.994 10.1048C152.046 10.0855 152.087 10.0444 152.107 9.99229L152.865 7.94466Z" fill="#FFEF5C"/>
<g opacity="0.8" filter="url(#filter3_f_29924_66923)">
<circle cx="23.9251" cy="24.9251" r="3.92514" fill="white"/>
</g>
<path d="M23.8651 21.9447C23.9266 21.7789 24.1611 21.7789 24.2225 21.9447L24.9811 23.9923C25.0004 24.0444 25.0415 24.0855 25.0937 24.1048L27.1431 24.8623C27.3091 24.9236 27.3091 25.1584 27.1431 25.2197L25.0937 25.9772C25.0415 25.9965 25.0004 26.0376 24.9811 26.0897L24.2225 28.1374C24.1611 28.3032 23.9266 28.3032 23.8651 28.1374L23.1066 26.0897C23.0872 26.0376 23.0461 25.9965 22.9939 25.9772L20.9445 25.2197C20.7785 25.1584 20.7785 24.9236 20.9445 24.8623L22.9939 24.1048C23.0461 24.0855 23.0872 24.0444 23.1066 23.9923L23.8651 21.9447Z" fill="#FFEF5C"/>
<g opacity="0.8" filter="url(#filter4_f_29924_66923)">
<circle cx="37.8099" cy="189.4" r="3.92514" fill="white"/>
</g>
<path d="M37.7499 186.42C37.8113 186.254 38.0458 186.254 38.1073 186.42L38.8658 188.468C38.8852 188.52 38.9263 188.561 38.9785 188.58L41.0279 189.338C41.1939 189.399 41.1939 189.634 41.0279 189.695L38.9785 190.453C38.9263 190.472 38.8852 190.513 38.8658 190.565L38.1073 192.613C38.0458 192.779 37.8113 192.779 37.7499 192.613L36.9913 190.565C36.972 190.513 36.9309 190.472 36.8787 190.453L34.8293 189.695C34.6633 189.634 34.6633 189.399 34.8293 189.338L36.8787 188.58C36.9309 188.561 36.972 188.52 36.9913 188.468L37.7499 186.42Z" fill="#FFEF5C"/>
<g opacity="0.8" filter="url(#filter5_f_29924_66923)">
<circle cx="282.525" cy="273.22" r="3.92514" fill="white"/>
</g>
<path d="M282.465 270.24C282.526 270.074 282.761 270.074 282.822 270.24L283.581 272.287C283.6 272.34 283.641 272.381 283.693 272.4L285.743 273.157C285.909 273.219 285.909 273.453 285.743 273.515L283.693 274.272C283.641 274.292 283.6 274.333 283.581 274.385L282.822 276.432C282.761 276.598 282.526 276.598 282.465 276.432L281.706 274.385C281.687 274.333 281.646 274.292 281.594 274.272L279.544 273.515C279.378 273.453 279.378 273.219 279.544 273.157L281.594 272.4C281.646 272.381 281.687 272.34 281.706 272.287L282.465 270.24Z" fill="#FFEF5C"/>
<g opacity="0.8" filter="url(#filter6_f_29924_66923)">
<circle cx="159.204" cy="77.6406" r="3.92514" fill="white"/>
</g>
<path d="M159.144 74.6602C159.206 74.4944 159.44 74.4944 159.502 74.6602L160.26 76.7079C160.28 76.76 160.321 76.8011 160.373 76.8204L162.422 77.5779C162.588 77.6392 162.588 77.874 162.422 77.9353L160.373 78.6928C160.321 78.712 160.28 78.7532 160.26 78.8053L159.502 80.8529C159.44 81.0187 159.206 81.0187 159.144 80.8529L158.386 78.8053C158.367 78.7532 158.325 78.712 158.273 78.6928L156.224 77.9353C156.058 77.874 156.058 77.6392 156.224 77.5779L158.273 76.8204C158.325 76.8011 158.367 76.76 158.386 76.7079L159.144 74.6602Z" fill="#FFEF5C"/>
<g opacity="0.8" filter="url(#filter7_f_29924_66923)">
<circle cx="60.9329" cy="291.526" r="3.92514" fill="white"/>
</g>
<path d="M60.873 288.545C60.9344 288.379 61.1689 288.379 61.2303 288.545L61.9889 290.593C62.0082 290.645 62.0494 290.686 62.1015 290.705L64.1509 291.463C64.3169 291.524 64.3169 291.759 64.1509 291.82L62.1015 292.578C62.0494 292.597 62.0082 292.638 61.9889 292.69L61.2303 294.738C61.1689 294.904 60.9344 294.904 60.873 294.738L60.1144 292.69C60.095 292.638 60.0539 292.597 60.0017 292.578L57.9523 291.82C57.7863 291.759 57.7863 291.524 57.9523 291.463L60.0017 290.705C60.0539 290.686 60.095 290.645 60.1144 290.593L60.873 288.545Z" fill="#FFEF5C"/>
<g opacity="0.8" filter="url(#filter8_f_29924_66923)">
<circle cx="58.0423" cy="77.6409" r="3.92514" fill="white"/>
</g>
<path d="M57.9823 74.6605C58.0438 74.4947 58.2783 74.4947 58.3397 74.6605L59.0983 76.7081C59.1176 76.7603 59.1587 76.8014 59.2109 76.8206L61.2603 77.5781C61.4263 77.6394 61.4263 77.8742 61.2603 77.9356L59.2109 78.693C59.1587 78.7123 59.1176 78.7534 59.0983 78.8055L58.3397 80.8532C58.2783 81.019 58.0438 81.019 57.9823 80.8532L57.2237 78.8055C57.2044 78.7534 57.1633 78.7123 57.1111 78.693L55.0617 77.9356C54.8957 77.8742 54.8957 77.6394 55.0617 77.5781L57.1111 76.8206C57.1633 76.8014 57.2044 76.7603 57.2237 76.7081L57.9823 74.6605Z" fill="#FFEF5C"/>
<path fill-rule="evenodd" clip-rule="evenodd" d="M119.734 225.712L119.123 195.121C92.8621 197.966 88.9617 251.764 88.9617 251.764C87.2762 269.502 108.248 266.977 114.289 257.8C116.481 255.227 119.734 225.712 119.734 225.712Z" fill="url(#paint2_linear_29924_66923)"/>
<path fill-rule="evenodd" clip-rule="evenodd" d="M185.406 235.714C183.741 231.941 180.864 229.397 179.31 224.503L183.683 193.189C209.821 197.004 211.159 255.758 211.159 255.758C212.188 273.546 193.253 272.379 187.555 262.984C185.46 260.332 189.221 244.356 185.406 235.714Z" fill="url(#paint3_linear_29924_66923)"/>
<path fill-rule="evenodd" clip-rule="evenodd" d="M137.309 184.86L165.784 185.657C165.815 185.657 165.844 185.66 165.874 185.666C166.789 185.84 180.649 189.22 190.669 195.828C190.842 195.942 190.938 196.144 190.923 196.351C189.999 208.93 190.752 216.005 190.052 228.046L189.028 264.693C189.027 264.736 189.03 264.78 189.039 264.823L205.378 345.753C205.442 346.072 205.229 346.382 204.907 346.435L176.17 351.186C175.893 351.231 175.624 351.071 175.532 350.806L158.119 300.417C158.108 300.384 158.099 300.349 158.094 300.314C157.581 297.184 154.45 297.114 154.362 300.263L147.969 350.5C147.929 350.813 147.645 351.035 147.333 351L117.964 347.677C117.676 347.645 117.458 347.404 117.453 347.115L116.021 266.717L115.342 250.385C114.789 226.085 114.857 218.098 115.333 196.399C115.338 196.169 115.479 195.958 115.692 195.871C125.772 191.763 137.065 184.863 137.294 184.86C137.299 184.86 137.301 184.86 137.304 184.86L137.309 184.86Z" fill="url(#paint4_linear_29924_66923)"/>
<g opacity="0.3" filter="url(#filter9_f_29924_66923)">
<ellipse cx="165.399" cy="380.142" rx="82.3794" ry="19.85" fill="#333333"/>
</g>
<path d="M164.652 292.774C158.196 297.677 154.037 297.824 145.634 293.032C145.634 293.032 151.72 298.126 156.249 297.676C160.076 297.296 164.652 292.774 164.652 292.774Z" fill="#64EDFF"/>
<path d="M162.4 280.613C173.562 272.86 178.823 270.127 189.279 266.963L188.923 269.292L189.455 271.06C172.928 276.845 175.545 274.068 162.4 280.613Z" fill="#64EDFF"/>
<path d="M142.828 280.066C132.117 271.702 127.017 268.679 116.755 264.935L116.98 267.28L116.35 269.017C132.528 275.715 130.07 272.796 142.828 280.066Z" fill="#64EDFF"/>
<path d="M150.34 377.643C141.716 381.77 97.6182 387.286 92.8187 376.488C92.3577 375.444 92.2517 374.388 92.4704 373.318C93.4434 368.337 97.4387 362.086 106.199 357.975C114.962 353.847 117.683 346.422 117.683 346.422L147.574 349.003C151.774 356.39 154.59 364.181 153.29 372.457C153.317 374.703 152.492 376.607 150.337 377.66L150.34 377.643Z" fill="url(#paint5_linear_29924_66923)"/>
<path d="M150.327 377.632C141.703 381.759 96.9974 389.167 92.1979 378.368C91.7368 377.324 90.9497 374.509 93.4518 371.07C103.29 374.108 120.725 378.865 153.363 369.618C153.873 374.516 152.48 376.595 150.325 377.649L150.327 377.632Z" fill="#3167D5"/>
<path d="M175.266 379.69C184.185 383.132 228.578 385.196 232.522 374.057C232.9 372.98 232.923 371.919 232.622 370.87C231.264 365.98 226.794 360.058 217.74 356.643C208.682 353.21 205.39 346.02 205.39 346.02L175.791 350.921C172.179 358.613 169.979 366.599 171.92 374.75C172.068 376.991 173.039 378.824 175.269 379.707L175.266 379.69Z" fill="url(#paint6_linear_29924_66923)"/>
<path d="M175.279 379.677C184.198 383.119 229.345 387.022 233.289 375.882C233.667 374.805 234.232 371.937 231.47 368.703C221.898 372.499 204.887 378.6 171.628 371.924C171.501 376.847 173.052 378.811 175.282 379.694L175.279 379.677Z" fill="#3167D5"/>
<path d="M180.002 246.265C179.957 246.216 180.704 246.331 181.795 245.846C182.365 245.581 182.988 245.083 183.478 244.3C183.676 243.93 183.876 243.467 183.984 242.955C184.043 242.487 184.013 241.877 184.028 241.315C184.158 236.537 184.296 229.697 184.525 221.265C184.583 219.142 184.627 216.924 184.659 214.612C184.689 213.488 184.203 212.396 183.333 211.622C182.874 211.281 182.366 210.985 181.806 210.875C181.248 210.719 180.638 210.749 179.982 210.73C175.016 210.59 169.721 210.441 164.099 210.283C152.902 209.968 140.58 209.621 127.696 209.258C126.15 209.214 124.67 210.204 124.116 211.595C123.769 212.288 123.796 213.039 123.774 213.835C123.753 214.616 123.732 215.412 123.71 216.224C123.625 219.347 123.541 222.439 123.458 225.499C123.375 228.559 123.294 231.542 123.215 234.446C123.175 235.914 123.136 237.366 123.097 238.802C123.078 239.505 123.011 240.253 123.038 240.957C123.068 241.614 123.284 242.276 123.645 242.802C124.364 243.948 125.659 244.593 126.974 244.537C128.348 244.575 129.691 244.613 131.003 244.65C133.657 244.756 136.233 244.844 138.732 244.915C143.698 245.055 148.336 245.185 152.6 245.305C161.032 245.59 167.87 245.829 172.649 245.964C174.992 246.03 176.818 246.128 178.083 246.164C178.707 246.181 179.176 246.194 179.488 246.203C179.706 246.241 179.877 246.261 180.002 246.265C179.877 246.261 179.705 246.272 179.486 246.297C179.173 246.288 178.705 246.275 178.08 246.257C176.815 246.222 174.987 246.217 172.644 246.151C167.865 246.016 161.024 245.871 152.59 245.68C148.326 245.56 143.688 245.429 138.722 245.289C136.223 245.219 133.646 245.162 130.99 245.119C129.678 245.082 128.335 245.044 126.961 245.005C125.553 245.059 124.073 244.314 123.262 243.073C122.857 242.452 122.596 241.694 122.57 240.944C122.59 240.194 122.608 239.538 122.628 238.789C122.667 237.352 122.707 235.9 122.747 234.433C122.825 231.528 122.906 228.546 122.989 225.486C123.072 222.425 123.156 219.334 123.241 216.211C123.263 215.399 123.285 214.603 123.306 213.822C123.326 213.072 123.303 212.181 123.653 211.394C124.305 209.819 125.977 208.694 127.709 208.789C140.593 209.152 152.915 209.499 164.112 209.815C169.733 210.02 175.027 210.169 179.993 210.309C180.602 210.326 181.259 210.298 181.912 210.457C182.517 210.614 183.117 210.959 183.575 211.347C184.538 212.171 185.067 213.405 185.034 214.623C184.971 216.934 184.911 219.151 184.853 221.274C184.578 229.705 184.392 236.544 184.216 241.32C184.2 241.882 184.232 242.446 184.123 243.005C184.015 243.518 183.815 243.981 183.569 244.396C183.079 245.179 182.409 245.676 181.841 245.894C181.271 246.16 180.8 246.24 180.471 246.278C180.252 246.272 180.096 246.267 180.002 246.265Z" fill="#64EDFF"/>
<path d="M132.456 236.173C133.413 236.2 134.21 235.446 134.236 234.489C134.262 233.532 133.507 232.734 132.55 232.707C131.592 232.68 130.795 233.434 130.769 234.391C130.743 235.348 131.498 236.146 132.456 236.173Z" fill="#64EDFF"/>
<path fill-rule="evenodd" clip-rule="evenodd" d="M132.474 235.485C133.051 235.501 133.532 235.046 133.548 234.469C133.563 233.892 133.108 233.411 132.531 233.395C131.954 233.379 131.473 233.833 131.458 234.41C131.442 234.987 131.897 235.468 132.474 235.485ZM134.236 234.489C134.21 235.446 133.413 236.2 132.456 236.173C131.498 236.146 130.743 235.348 130.769 234.391C130.795 233.434 131.592 232.68 132.55 232.707C133.507 232.734 134.262 233.532 134.236 234.489Z" fill="#64EDFF"/>
<path d="M138.352 236.331C139.309 236.358 140.106 235.604 140.132 234.646C140.158 233.689 139.403 232.892 138.446 232.865C137.489 232.838 136.692 233.592 136.666 234.549C136.64 235.506 137.395 236.304 138.352 236.331Z" fill="#64EDFF"/>
<path fill-rule="evenodd" clip-rule="evenodd" d="M138.371 235.642C138.948 235.659 139.428 235.204 139.444 234.627C139.46 234.05 139.005 233.569 138.427 233.553C137.85 233.537 137.37 233.991 137.354 234.568C137.339 235.145 137.794 235.626 138.371 235.642ZM140.132 234.646C140.106 235.604 139.309 236.358 138.352 236.331C137.395 236.304 136.64 235.506 136.666 234.549C136.692 233.592 137.489 232.838 138.446 232.865C139.403 232.892 140.158 233.689 140.132 234.646Z" fill="#64EDFF"/>
<path d="M144.067 236.494C145.024 236.521 145.821 235.767 145.847 234.81C145.873 233.853 145.118 233.055 144.161 233.028C143.204 233.001 142.407 233.755 142.381 234.712C142.355 235.67 143.11 236.467 144.067 236.494Z" fill="#64EDFF"/>
<path fill-rule="evenodd" clip-rule="evenodd" d="M144.086 235.806C144.663 235.822 145.143 235.368 145.159 234.791C145.174 234.214 144.719 233.733 144.142 233.717C143.565 233.7 143.085 234.155 143.069 234.732C143.053 235.309 143.508 235.79 144.086 235.806ZM145.847 234.81C145.821 235.767 145.024 236.521 144.067 236.494C143.11 236.467 142.355 235.67 142.381 234.712C142.407 233.755 143.204 233.001 144.161 233.028C145.118 233.055 145.873 233.853 145.847 234.81Z" fill="#64EDFF"/>
<path d="M149.735 236.647C150.692 236.674 151.489 235.92 151.515 234.963C151.541 234.005 150.786 233.208 149.829 233.181C148.872 233.154 148.075 233.908 148.049 234.865C148.023 235.822 148.778 236.62 149.735 236.647Z" fill="#64EDFF"/>
<path fill-rule="evenodd" clip-rule="evenodd" d="M149.754 235.959C150.331 235.975 150.811 235.52 150.827 234.943C150.842 234.366 150.387 233.885 149.81 233.869C149.233 233.853 148.753 234.307 148.737 234.884C148.721 235.461 149.176 235.942 149.754 235.959ZM151.515 234.963C151.489 235.92 150.692 236.674 149.735 236.647C148.778 236.62 148.023 235.822 148.049 234.865C148.075 233.908 148.872 233.154 149.829 233.181C150.786 233.208 151.541 234.005 151.515 234.963Z" fill="#64EDFF"/>
<path d="M149.299 223.948L133.602 223.507C132.477 223.475 131.564 222.559 131.596 221.387C131.627 220.263 132.589 219.352 133.714 219.383L149.411 219.824C150.536 219.856 151.448 220.82 151.417 221.944C151.385 223.116 150.424 223.98 149.299 223.948Z" fill="#64EDFF"/>
<path fill-rule="evenodd" clip-rule="evenodd" d="M133.621 222.818L149.318 223.259C150.073 223.281 150.707 222.706 150.729 221.925C150.749 221.18 150.137 220.534 149.393 220.513L133.695 220.072C132.951 220.051 132.305 220.662 132.285 221.407C132.264 222.188 132.866 222.797 133.621 222.818ZM133.602 223.507L149.299 223.948C150.424 223.98 151.385 223.116 151.417 221.944C151.448 220.82 150.536 219.856 149.411 219.824L133.714 219.383C132.589 219.352 131.627 220.263 131.596 221.387C131.564 222.559 132.477 223.475 133.602 223.507Z" fill="#64EDFF"/>
<path d="M132.942 229.634C133.899 229.661 134.696 228.907 134.722 227.95C134.748 226.993 133.993 226.195 133.036 226.168C132.079 226.141 131.282 226.896 131.256 227.853C131.23 228.81 131.985 229.608 132.942 229.634Z" fill="#64EDFF"/>
<path fill-rule="evenodd" clip-rule="evenodd" d="M132.961 228.946C133.538 228.963 134.018 228.508 134.034 227.931C134.049 227.354 133.594 226.873 133.017 226.857C132.44 226.84 131.96 227.295 131.944 227.872C131.928 228.449 132.384 228.93 132.961 228.946ZM134.722 227.95C134.696 228.907 133.899 229.661 132.942 229.634C131.985 229.608 131.23 228.81 131.256 227.853C131.282 226.896 132.079 226.141 133.036 226.168C133.993 226.195 134.748 226.993 134.722 227.95Z" fill="#64EDFF"/>
<path d="M138.807 229.794C139.764 229.821 140.561 229.067 140.587 228.11C140.613 227.153 139.858 226.355 138.901 226.328C137.944 226.301 137.147 227.055 137.121 228.012C137.095 228.969 137.85 229.767 138.807 229.794Z" fill="#64EDFF"/>
<path fill-rule="evenodd" clip-rule="evenodd" d="M138.826 229.106C139.403 229.122 139.883 228.668 139.899 228.091C139.915 227.514 139.46 227.033 138.882 227.016C138.305 227 137.825 227.455 137.809 228.032C137.794 228.609 138.249 229.09 138.826 229.106ZM140.587 228.11C140.561 229.067 139.764 229.821 138.807 229.794C137.85 229.767 137.095 228.969 137.121 228.012C137.147 227.055 137.944 226.301 138.901 226.328C139.858 226.355 140.613 227.153 140.587 228.11Z" fill="#64EDFF"/>
<path d="M144.516 229.956C145.473 229.983 146.27 229.229 146.296 228.272C146.322 227.315 145.567 226.517 144.61 226.49C143.653 226.463 142.856 227.217 142.83 228.174C142.804 229.132 143.559 229.929 144.516 229.956Z" fill="#64EDFF"/>
<path fill-rule="evenodd" clip-rule="evenodd" d="M144.535 229.268C145.112 229.284 145.592 228.83 145.608 228.253C145.624 227.676 145.169 227.195 144.591 227.178C144.014 227.162 143.534 227.617 143.518 228.194C143.503 228.771 143.958 229.252 144.535 229.268ZM146.296 228.272C146.27 229.229 145.473 229.983 144.516 229.956C143.559 229.929 142.804 229.132 142.83 228.174C142.856 227.217 143.653 226.463 144.61 226.49C145.567 226.517 146.322 227.315 146.296 228.272Z" fill="#64EDFF"/>
<path d="M150.247 230.109C151.204 230.136 152.001 229.382 152.027 228.425C152.053 227.468 151.298 226.67 150.341 226.643C149.383 226.616 148.586 227.37 148.56 228.327C148.534 229.285 149.289 230.082 150.247 230.109Z" fill="#64EDFF"/>
<path fill-rule="evenodd" clip-rule="evenodd" d="M150.265 229.421C150.842 229.437 151.323 228.983 151.338 228.406C151.354 227.829 150.899 227.348 150.322 227.331C149.745 227.315 149.264 227.77 149.249 228.347C149.233 228.924 149.688 229.405 150.265 229.421ZM152.027 228.425C152.001 229.382 151.204 230.136 150.247 230.109C149.289 230.082 148.534 229.285 148.56 228.327C148.586 227.37 149.383 226.616 150.341 226.643C151.298 226.67 152.053 227.468 152.027 228.425Z" fill="#64EDFF"/>
<path d="M174.507 219.15L164.95 218.88C164.096 218.856 163.386 219.528 163.362 220.382L163.104 229.936C163.081 230.79 163.754 231.501 164.608 231.526L174.164 231.795C175.018 231.82 175.729 231.147 175.752 230.294L176.011 220.739C176.034 219.885 175.36 219.174 174.507 219.15Z" fill="#64EDFF"/>
<path fill-rule="evenodd" clip-rule="evenodd" d="M174.488 219.838L164.932 219.568C164.458 219.555 164.064 219.928 164.051 220.401L163.792 229.956C163.78 230.429 164.153 230.824 164.627 230.837L174.183 231.107C174.657 231.121 175.051 230.748 175.064 230.274L175.322 220.72C175.335 220.246 174.962 219.851 174.488 219.838ZM164.95 218.88L174.507 219.15C175.36 219.174 176.034 219.885 176.011 220.739L175.752 230.294C175.729 231.147 175.018 231.82 174.164 231.795L164.608 231.526C163.754 231.501 163.081 230.79 163.104 229.936L163.362 220.382C163.386 219.528 164.096 218.856 164.95 218.88Z" fill="#64EDFF"/>
<path d="M174.837 237.828L163.638 237.513C162.654 237.485 161.879 236.666 161.905 235.729C161.931 234.745 162.75 233.971 163.734 233.999L174.933 234.314C175.917 234.341 176.692 235.16 176.665 236.144C176.639 237.081 175.821 237.855 174.837 237.828Z" fill="#64EDFF"/>
<path fill-rule="evenodd" clip-rule="evenodd" d="M163.657 236.824L174.856 237.139C175.472 237.156 175.962 236.67 175.976 236.125C175.993 235.521 175.518 235.019 174.914 235.002L163.715 234.687C163.111 234.67 162.61 235.145 162.593 235.748C162.578 236.293 163.041 236.807 163.657 236.824ZM163.638 237.513L174.837 237.828C175.821 237.855 176.639 237.081 176.665 236.144C176.692 235.16 175.917 234.341 174.933 234.314L163.734 233.999C162.75 233.971 161.931 234.745 161.905 235.729C161.879 236.666 162.654 237.485 163.638 237.513Z" fill="#64EDFF"/>
<path d="M201.608 147.012C203.211 152.145 201.819 157.749 198.001 161.532C198.444 152.9 195.897 144.766 190.36 137.129C195.66 138.063 199.996 141.874 201.608 147.012Z" fill="white"/>
<path fill-rule="evenodd" clip-rule="evenodd" d="M198.428 162.622C198.146 162.722 197.84 162.716 197.559 162.593C197.116 162.392 196.843 161.948 196.868 161.467C197.299 153.143 194.805 145.184 189.451 137.809C189.171 137.421 189.157 136.906 189.404 136.5C189.66 136.099 190.133 135.89 190.6 135.967C196.355 136.983 201.01 141.08 202.757 146.655C204.504 152.231 203.007 158.244 198.86 162.354C198.735 162.479 198.584 162.566 198.428 162.622ZM193.186 139.17C196.94 145.182 198.959 151.54 199.223 158.15C201.167 154.952 201.681 151.039 200.525 147.354C199.361 143.625 196.663 140.678 193.186 139.17Z" fill="#64EDFF"/>
<path fill-rule="evenodd" clip-rule="evenodd" d="M161.04 200.188C152.081 203.373 142.799 204.205 134.085 202.605C117.796 199.609 105.056 188.349 99.1371 171.713C94.7141 159.282 95.4635 145.81 101.246 133.773C106.997 121.801 116.965 112.791 129.315 108.402C154.77 99.3544 181.495 110.671 191.562 134.727L192.236 135.522C192.25 135.535 192.262 135.549 192.271 135.563C192.482 135.833 192.656 136.055 192.815 136.255C194.08 137.854 194.137 138.016 195.601 142.165C195.842 142.843 196.124 143.635 196.454 144.565C199.234 152.377 198.509 168.712 189.934 179.092L189.059 180.376C189.036 180.412 189.01 180.446 188.981 180.479C181.602 189.15 172.496 195.758 162.664 199.584C162.124 199.79 161.583 199.991 161.04 200.188ZM130.098 110.603C105.513 119.341 92.6129 146.404 101.339 170.93C106.973 186.763 119.062 197.469 134.504 200.307C152.903 203.689 173.078 195.531 187.161 179.01L188.038 177.732C188.054 177.704 188.076 177.676 188.102 177.648C196.047 168.06 196.784 152.463 194.252 145.348C193.921 144.418 193.637 143.62 193.396 142.942C192.006 138.996 192.006 138.996 190.985 137.703C190.826 137.503 190.646 137.283 190.443 137.017L189.663 136.098C189.583 136.005 189.518 135.9 189.472 135.788C179.95 112.788 154.419 101.959 130.098 110.603Z" fill="#64EDFF"/>
<path d="M130.098 110.603C105.513 119.341 92.6129 146.404 101.339 170.93C106.973 186.763 119.062 197.469 134.504 200.307C152.903 203.689 173.078 195.531 187.161 179.01L188.038 177.732C188.054 177.704 188.076 177.676 188.102 177.648C196.047 168.06 196.784 152.463 194.252 145.348L193.396 142.942C192.006 138.996 192.006 138.996 190.985 137.703C190.826 137.503 190.646 137.283 190.443 137.017L189.663 136.098C189.583 136.005 189.518 135.9 189.472 135.788C179.95 112.788 154.419 101.959 130.098 110.603Z" fill="white"/>
<path fill-rule="evenodd" clip-rule="evenodd" d="M110.555 167.296C109.351 161.405 104.286 157.468 99.2446 158.496C92.0099 167.307 96.7535 178.777 103.608 179.821C108.65 178.793 111.758 173.187 110.555 167.296Z" fill="white"/>
<path d="M99.3072 179.667C100.284 180.004 102.257 180.097 103.608 179.821C96.7535 178.777 92.0099 167.307 99.2446 158.496C98.1932 158.71 96.9994 159.155 96.5139 159.433C92.943 161.479 90.9741 166.166 91.9684 171.05C92.8545 175.365 95.8086 178.633 99.3062 179.667L99.3072 179.667Z" fill="#F2F2F2"/>
<path fill-rule="evenodd" clip-rule="evenodd" d="M103.243 181.154C103.677 181.067 104.098 180.951 104.506 180.806C106.732 180.015 108.601 178.391 109.853 176.135C111.298 173.527 111.742 170.368 111.105 167.249C109.774 160.734 104.081 156.378 98.4151 157.533C92.7576 158.693 89.2243 164.929 90.5614 171.442C91.198 174.561 92.8462 177.293 95.2015 179.126C97.612 180.999 100.471 181.72 103.243 181.154ZM100.335 178.924C100.487 178.909 100.638 178.886 100.787 178.855C102.412 178.521 103.771 177.288 104.622 175.384C105.518 173.362 105.73 170.861 105.21 168.336C104.2 163.395 100.71 159.896 97.3251 160.342C93.8673 161.972 91.9083 166.377 92.8485 170.974C93.3735 173.551 94.7177 175.79 96.6352 177.285C97.7804 178.172 99.0441 178.726 100.335 178.924ZM105.671 177.531C106.514 176.879 107.24 176.026 107.808 175.003C108.984 172.876 109.341 170.289 108.816 167.711C108.036 163.905 105.476 160.998 102.45 160.03C104.656 161.709 106.42 164.535 107.12 167.947C107.718 170.864 107.46 173.787 106.402 176.17C106.186 176.658 105.941 177.112 105.671 177.531Z" fill="#64EDFF"/>
<path fill-rule="evenodd" clip-rule="evenodd" d="M125.155 128.119C125.339 127.363 124.932 126.196 123.824 124.639C121.04 120.729 117.025 119.723 113.894 119.775C112.935 119.735 112.069 119.831 111.305 120.03C108.484 121.876 109.386 125.155 110.683 125.164C116.08 125.2 119.286 125.981 125.155 128.119Z" fill="white"/>
<path d="M109.414 127.531C112.814 127.207 116.449 127.166 119.994 128.427C122.974 129.49 124.855 129.356 125.155 128.119C119.286 125.981 116.08 125.2 110.683 125.164C109.386 125.155 108.484 121.876 111.305 120.03C107.003 121.15 105.9 125.543 109.414 127.531Z" fill="#F2F2F2"/>
<path fill-rule="evenodd" clip-rule="evenodd" d="M124.718 130.128C123.554 130.542 121.844 130.352 119.612 129.55C116.114 128.306 112.555 128.429 109.535 128.719C109.298 128.735 109.057 128.686 108.847 128.571C106.714 127.363 105.732 125.191 106.347 123.046C107.008 120.723 109.61 118.46 113.922 118.63C116.544 118.591 121.412 119.239 124.791 123.986C126.43 126.296 126.807 128.075 125.898 129.283C125.6 129.673 125.206 129.954 124.718 130.128ZM109.707 126.353C112.736 126.087 116.612 126.001 120.398 127.352C122.93 128.256 123.91 127.989 124.037 127.87C124.031 127.872 124.223 127.215 122.886 125.339C120.115 121.444 116.085 120.93 113.929 120.967C113.906 120.966 113.883 120.965 113.86 120.964C110.793 120.837 109.008 122.242 108.59 123.688C108.301 124.717 108.7 125.67 109.707 126.353Z" fill="#64EDFF"/>
<path fill-rule="evenodd" clip-rule="evenodd" d="M173.857 120.474C174.844 119.906 175.448 118.658 174.938 117.643C169.883 107.456 165.081 106.974 161.313 109.791C167.191 112.027 170.073 114.071 173.857 120.474Z" fill="white"/>
<path d="M170.866 120.009C171.483 120.966 172.877 121.045 173.857 120.474C170.073 114.071 167.191 112.027 161.313 109.791C161.015 110.014 160.723 110.258 160.438 110.52C159.911 111.003 160.147 111.854 160.814 112.112C164.801 113.656 168.61 116.516 170.866 120.009Z" fill="#F2F2F2"/>
<path fill-rule="evenodd" clip-rule="evenodd" d="M174.059 118.079L174.059 118.079C171.362 112.643 168.858 110.271 166.777 109.55C164.82 108.872 162.946 109.572 161.157 111.192C161.16 111.194 161.164 111.195 161.168 111.197C165.318 112.803 169.305 115.784 171.69 119.477L171.69 119.477C171.811 119.663 172.025 119.8 172.346 119.84C172.677 119.881 173.054 119.805 173.362 119.626L173.368 119.623L173.368 119.623C174.068 119.221 174.261 118.481 174.061 118.083L174.059 118.079ZM170.866 120.009C171.483 120.966 172.877 121.045 173.857 120.474C174.844 119.906 175.448 118.658 174.938 117.643C169.483 106.649 164.321 106.958 160.438 110.52C159.911 111.003 160.147 111.854 160.814 112.112C164.801 113.656 168.61 116.516 170.866 120.009Z" fill="#64EDFF"/>
<path d="M138.204 92.8248C138.121 92.6653 138.048 92.4983 137.986 92.3243C137.255 90.27 138.329 88.0124 140.384 87.2818C142.439 86.5512 144.698 87.6243 145.428 89.6786C146.159 91.7328 145.085 93.9904 143.03 94.721C141.922 95.115 140.754 94.9844 139.799 94.4581C137.599 96.5792 136.579 99.0236 136.231 101.382C135.737 104.729 136.592 107.961 137.524 109.882L135.469 110.878C134.378 108.63 133.398 104.935 133.972 101.049C134.39 98.2125 135.635 95.3046 138.204 92.8248Z" fill="#64EDFF"/>
<path fill-rule="evenodd" clip-rule="evenodd" d="M123.641 97.6546C123.64 97.6545 123.645 97.6641 123.658 97.6837C123.649 97.6645 123.643 97.6547 123.641 97.6546ZM124.36 98.3302C124.865 98.1931 125.543 98.0728 126.399 97.9969C128.879 97.7775 132.344 97.9732 136.172 98.6894C140 99.4057 143.301 100.476 145.533 101.577C146.304 101.958 146.892 102.315 147.313 102.625C146.808 102.762 146.131 102.883 145.274 102.958C142.795 103.178 139.33 102.982 135.502 102.266C131.674 101.55 128.373 100.479 126.141 99.3781C125.369 98.9976 124.782 98.6407 124.36 98.3302ZM148.228 102.255C148.227 102.255 148.217 102.262 148.202 102.276C148.221 102.263 148.229 102.255 148.228 102.255ZM148.032 103.301C148.033 103.301 148.029 103.291 148.015 103.272C148.024 103.291 148.031 103.301 148.032 103.301ZM123.472 98.679C123.452 98.6925 123.445 98.6998 123.446 98.7001C123.447 98.7005 123.457 98.6937 123.472 98.679ZM135.081 104.51C127.136 103.023 121.033 100.012 121.45 97.7857C121.867 95.5589 128.647 94.9589 136.592 96.4457C144.537 97.9324 150.64 100.943 150.223 103.17C149.806 105.396 143.027 105.996 135.081 104.51Z" fill="#64EDFF"/>
<path fill-rule="evenodd" clip-rule="evenodd" d="M165.47 194.26C142.083 204.472 116.213 197.104 107.797 177.848C99.3785 158.587 111.552 134.614 134.938 124.403C158.319 114.194 184.193 121.553 192.611 140.814C201.027 160.07 188.85 184.051 165.47 194.26ZM135.716 126.182C113.316 135.963 101.593 158.787 109.583 177.069C117.57 195.344 142.289 202.256 164.689 192.475C187.09 182.694 198.813 159.87 190.826 141.594C182.836 123.313 158.116 116.401 135.716 126.182Z" fill="#64EDFF"/>
<path d="M135.716 126.182C113.316 135.963 101.593 158.787 109.583 177.069C117.57 195.344 142.289 202.256 164.689 192.475C187.09 182.694 198.813 159.87 190.826 141.594C182.836 123.313 158.116 116.401 135.716 126.182Z" fill="#00A4FF"/>
<path fill-rule="evenodd" clip-rule="evenodd" d="M163.767 190.403C143.095 199.43 120.41 193.34 113.192 176.826C105.975 160.313 116.917 139.533 137.589 130.506C158.262 121.479 180.95 127.576 188.167 144.089C195.384 160.602 184.44 181.377 163.767 190.403Z" fill="#6C6C6C"/>
<path d="M153.96 191.042C156.512 190.393 159.05 189.521 161.495 188.453C175.042 182.538 184.583 171.34 186.502 159.162C185.992 158.599 185.418 158.065 184.786 157.556C184.517 157.339 184.385 156.988 184.442 156.643C185.029 152.975 184.964 149.265 184.255 145.607C184.041 144.498 183.757 143.385 183.428 142.299C175.357 128.667 155.441 124.445 137.033 132.483C127.152 136.798 119.093 144.215 114.883 152.87C114.877 154.908 115.071 156.957 115.463 158.968C116.175 162.617 117.505 166.088 119.431 169.27C119.609 169.568 119.613 169.941 119.446 170.243C117.882 173.059 117.352 175.82 117.868 178.465C119.754 188.154 135.6 193.673 153.96 191.042Z" fill="#B0401E"/>
<path d="M134.639 136.062C139.137 135.189 143.563 136.237 147.076 138.629C149.418 134.938 153.214 132.176 157.847 131.279C170.046 128.912 182.854 143.221 175.064 156.01C178.492 153.863 185.039 156.004 187.326 158.158C193.126 169.174 178.219 185.024 161.894 189.374C159.332 190.493 156.739 191.368 154.156 192.023C135.267 194.747 118.941 189.069 116.923 178.68C116.347 175.742 116.98 172.721 118.603 169.802C120.954 167.136 124.145 165.738 128.175 165.609C124.881 163.239 122.45 159.666 121.615 155.368C119.875 146.442 125.707 137.794 134.639 136.062Z" fill="#FFCAA1" stroke="#6C6C6C" stroke-width="1.96261" stroke-linejoin="round"/>
<path d="M164.093 176.37C159.835 176.577 157.558 176.868 154.612 179.146" stroke="#6C6C6C" stroke-width="2.77305" stroke-linecap="round" stroke-linejoin="round"/>
<path d="M154.172 168.134C154.183 168.108 154.193 168.083 154.203 168.057C154.775 167.057 155.942 166.513 157.084 166.726C157.615 166.828 158.121 166.475 158.225 165.95C158.321 165.422 157.973 164.913 157.443 164.811C155.783 164.5 154.087 165.129 153.011 166.38C151.548 165.619 149.777 165.677 148.331 166.599C147.88 166.886 147.749 167.492 148.036 167.944C148.33 168.392 148.93 168.526 149.382 168.239C150.252 167.682 151.332 167.663 152.204 168.156C152.538 170.173 152.761 171.392 153.301 174.15C153.405 174.675 153.918 175.021 154.448 174.914C154.517 174.903 154.584 174.882 154.651 174.853C155.059 174.675 155.302 174.229 155.214 173.774C154.705 171.178 154.477 169.956 154.172 168.134Z" fill="#6C6C6C"/>
<path d="M168.46 153.52C168.704 157.305 166.903 160.357 164.434 160.337C161.971 160.314 159.769 157.232 159.526 153.447C159.282 149.662 161.083 146.611 163.552 146.63C166.021 146.65 168.217 149.735 168.46 153.52Z" fill="#6C6C6C"/>
<path d="M163.564 156.744C163.964 157.292 164.03 158 163.713 158.326C163.389 158.648 162.802 158.467 162.403 157.918C162.003 157.37 161.937 156.663 162.259 156.334C162.578 156.014 163.165 156.196 163.564 156.744Z" fill="white"/>
<path d="M165.883 149.419C166.437 150.609 166.301 151.919 165.583 152.343C164.863 152.762 163.831 152.136 163.274 150.941C162.726 149.749 162.859 148.433 163.58 148.014C164.3 147.595 165.332 148.222 165.883 149.419Z" fill="white"/>
<path d="M134.695 160.296C135.898 163.833 138.686 165.933 140.926 164.985C143.16 164.037 144.004 160.402 142.8 156.865C141.597 153.328 138.809 151.229 136.569 152.176C134.329 153.124 133.491 156.759 134.695 160.296Z" fill="#6C6C6C"/>
<path d="M140.367 161.387C140.21 162.037 140.417 162.706 140.827 162.883C141.244 163.054 141.71 162.668 141.867 162.019C142.024 161.369 141.818 160.7 141.401 160.523C140.99 160.351 140.525 160.738 140.367 161.387Z" fill="white"/>
<path d="M135.498 155.592C135.441 156.883 136.059 158.025 136.872 158.141C137.685 158.251 138.388 157.292 138.445 155.994C138.496 154.703 137.879 153.555 137.065 153.445C136.252 153.335 135.549 154.294 135.498 155.592Z" fill="white"/>
<g opacity="0.2" filter="url(#filter10_f_29924_66923)">
<path d="M187.809 208.185L190.822 233.482M115.425 217.208L115.064 242.681" stroke="black" stroke-width="0.82634"/>
</g>
<path d="M162.265 261.402L161.18 243.651L178.739 240.287C178.739 240.287 189.006 241.837 190.099 243.861C191.193 245.885 189.836 246.286 189.667 247.84C189.498 249.394 190.638 249.538 190.858 250.747C191.15 252.353 190.418 253.271 190.445 254.903C190.467 256.221 191.071 256.968 190.814 258.258C190.374 260.474 186.923 262.439 186.923 262.439C186.923 262.439 185.299 266.314 183.47 265.858C178.996 264.742 167.08 260.872 167.08 260.872L162.265 261.402Z" fill="url(#paint7_linear_29924_66923)"/>
<path fill-rule="evenodd" clip-rule="evenodd" d="M91.8825 245.854C87.7998 250.277 89.9568 259.342 91.8826 263.678C93.8083 268.013 100.987 271.746 110.244 270.113C121.816 268.072 163.758 263.143 163.758 263.143L164.018 242.435C150.752 242.435 97.663 239.592 91.8825 245.854Z" fill="url(#paint8_linear_29924_66923)"/>
<path fill-rule="evenodd" clip-rule="evenodd" d="M152.078 200.697C150.595 201.83 150.189 202.673 150.23 204.553C152.833 205.084 154.171 205.554 155.791 207.557L165.667 218.71L180.887 213.481L176.513 198.486C175.023 196.232 173.384 194.318 171.121 192.263C170.643 191.828 170.137 191.388 169.599 190.936C169.136 190.548 168.708 190.182 168.303 189.836C165.495 187.433 163.783 185.967 158.992 184.525C156.431 183.973 154.454 184.424 154.082 185.658C158.577 188.168 160.999 189.614 163.948 192.813C163.696 192.775 163.453 192.737 163.218 192.701C160.562 192.293 158.864 192.032 156.351 192.851C155.108 194.016 154.63 194.821 154.152 196.503C152.83 197.814 152.33 198.702 152.078 200.697Z" fill="url(#paint9_linear_29924_66923)"/>
<path d="M171.121 192.263C173.384 194.318 175.023 196.232 176.513 198.486L176.053 188.589C176.356 185.947 173.429 187.765 172.361 189.727L171.121 192.263Z" fill="url(#paint10_linear_29924_66923)"/>
<g opacity="0.5" filter="url(#filter11_f_29924_66923)">
<path fill-rule="evenodd" clip-rule="evenodd" d="M160.212 198.004C158.549 196.821 157.088 196.833 154.716 196.955L154.26 196.449C156.691 196.096 159.577 196.248 161.425 197.794L160.212 198.004ZM154.992 201.483C154.163 201.266 153.283 201.183 152.077 201.179L152.106 200.677C153.355 200.68 154.536 200.61 155.474 200.855C156.412 201.1 158.165 201.906 159.246 202.502L157.67 202.632C156.624 202.055 155.821 201.699 154.992 201.483Z" fill="#844F00"/>
</g>
<path fill-rule="evenodd" clip-rule="evenodd" d="M211.204 259.812C209.301 268.394 204.375 270.347 198.568 270.672C192.762 270.997 190.529 269.415 185.37 261.558C178.921 251.735 163.292 216.857 163.292 216.857L180.74 206.534C190.462 217.931 212.987 251.767 211.204 259.812Z" fill="url(#paint11_linear_29924_66923)"/>
<g opacity="0.9">
<rect x="199.672" y="15.8288" width="21.4966" height="16.611" rx="6.83983" transform="rotate(13.61 199.672 15.8288)" stroke="#5F3C38" stroke-width="4.8856"/>
<rect x="179.328" y="20.9568" width="59.6043" height="40.0619" rx="3.90848" transform="rotate(13.61 179.328 20.9568)" fill="#DF732A"/>
<path d="M235.458 32.0327L182.192 19.1366C180.127 18.6366 178.041 19.8779 177.495 21.9314L173.751 36.021C173.229 37.9827 174.296 40.0171 176.207 40.7032L202.489 50.1431C202.755 50.2384 203.03 50.3047 203.309 50.3409L230.608 53.8709C232.585 54.1266 234.438 52.8525 234.908 50.9144L238.337 36.7512C238.845 34.6532 237.556 32.5407 235.458 32.0327Z" fill="#A65425"/>
<rect x="197.492" y="41.4395" width="14.6568" height="11.7254" rx="4.8856" transform="rotate(13.61 197.492 41.4395)" fill="#82381B"/>
</g>
<g filter="url(#filter12_d_29924_66923)">
<path fill-rule="evenodd" clip-rule="evenodd" d="M257.357 113.086C255.112 116.052 251.617 120.54 252.038 120.78C259.719 125.158 265.168 129.851 269.544 137.141C269.993 137.889 273.406 132.659 276.006 129.31C271.094 120.7 266.823 117.333 257.357 113.086Z" fill="url(#paint12_linear_29924_66923)"/>
<path d="M257.357 113.086C266.823 117.333 271.094 120.7 276.006 129.31C285.711 126.474 296.757 121.538 297.927 114.97C298.522 109.543 295.083 107.277 290.537 105.509C288.704 100.493 287.089 98.6533 282.855 97.3328C280.61 92.5473 277.743 89.7386 274.171 89.7239C263.456 89.6793 260.255 101.377 257.357 113.086Z" fill="url(#paint13_radial_29924_66923)"/>
</g>
<g opacity="0.5" filter="url(#filter13_f_29924_66923)">
<path d="M275.887 94.462C272.748 95.243 271.199 95.9471 269.298 98.2924M281.302 97.9138C276.09 99.5184 274.116 101.471 271.979 106.448M290.835 107.384C288.356 111.451 286.621 112.844 283.091 114.21M293.966 110.397C293.546 113.406 292.92 114.888 290.368 116.812M261.839 105.262C260.991 108.469 260.34 110.177 258.094 112.677M263.674 110.842C262.937 112.195 262.524 112.974 261.801 114.55M269.239 112.58C268.571 114.572 268.141 115.639 266.934 117.143M275.5 118.607C273.972 119.694 273.123 120.426 271.628 122.02M282.341 122.779C279.175 123.766 277.561 124.577 275.038 126.607" stroke="#6C6C6C" stroke-width="0.63898" stroke-linecap="round" stroke-linejoin="round"/>
</g>
<path d="M250.112 201.259C251.408 200.94 252.2 199.631 251.882 198.335C251.563 197.039 250.254 196.247 248.958 196.566C247.869 196.834 247.135 197.802 247.119 198.874C246.28 199.228 244.774 199.971 244.337 200.904C243.754 202.149 243.908 203.498 244.238 204.841L246.629 214.558L248.975 213.98L246.336 203.254C246.002 201.894 247.429 201.037 247.98 200.762C248.551 201.241 249.334 201.45 250.112 201.259Z" fill="white"/>
<path d="M260.841 198.62C259.545 198.938 258.236 198.146 257.917 196.85C257.599 195.555 258.391 194.246 259.687 193.927C260.776 193.659 261.875 194.176 262.387 195.118C263.294 195.043 264.972 195.002 265.792 195.626C266.886 196.458 267.376 197.725 267.707 199.068L270.097 208.784L267.751 209.362L265.112 198.635C264.778 197.276 263.115 197.178 262.499 197.19C262.216 197.879 261.619 198.428 260.841 198.62Z" fill="white"/>
<path d="M270.898 209.776C270.734 214.616 267.88 219.033 263.474 221.148C263.561 221.333 263.632 221.53 263.683 221.738C263.903 222.631 263.712 223.529 263.231 224.234L265.729 234.387C267.277 240.682 273.635 244.529 279.929 242.98C286.223 241.432 290.07 235.074 288.522 228.78L285.966 218.389L289.988 217.399L292.544 227.79C294.639 236.306 289.434 244.908 280.919 247.003C272.403 249.098 263.801 243.893 261.706 235.377L259.208 225.223C258.455 224.823 257.869 224.115 257.65 223.222C257.585 222.961 257.556 222.7 257.559 222.443C252.93 222.366 248.66 219.826 246.379 215.808C245.79 214.771 246.456 213.534 247.615 213.249C248.581 213.011 249.557 213.532 250.102 214.364C252.178 217.529 256.095 219.2 259.98 218.245C263.865 217.289 266.559 213.991 266.93 210.224C267.027 209.234 267.65 208.32 268.616 208.082C269.774 207.797 270.939 208.584 270.898 209.776Z" fill="#A1E8FC"/>
<path d="M294.027 212.14C294.983 216.027 292.607 219.954 288.719 220.911C284.832 221.867 280.905 219.491 279.949 215.603C278.992 211.716 281.368 207.789 285.256 206.832C289.144 205.876 293.07 208.252 294.027 212.14ZM283.741 214.67C284.182 216.463 285.993 217.559 287.786 217.118C289.579 216.677 290.675 214.866 290.234 213.073C289.793 211.28 287.982 210.184 286.189 210.625C284.396 211.066 283.3 212.877 283.741 214.67Z" fill="#FCD49A"/>
<path d="M283.741 214.67C284.182 216.463 285.993 217.559 287.786 217.118C289.579 216.677 290.675 214.866 290.234 213.073C289.793 211.28 287.982 210.184 286.189 210.625C284.396 211.066 283.3 212.877 283.741 214.67Z" fill="#FF9390"/>
<path fill-rule="evenodd" clip-rule="evenodd" d="M59.1107 54.8828L64.2816 76.6545C68.2442 76.6767 70.2476 75.9727 73.2337 73.1089L71.6973 69.2296L64.5365 51.15C63.9593 51.5623 63.2336 52.0441 62.4694 52.5514C61.3099 53.3212 60.062 54.1496 59.1107 54.8828ZM89.4796 40.9121L96.7632 59.3018L98.2996 63.1811C102.037 62.2281 103.868 61.5618 106.356 59.99L96.1127 40.2275C93.7255 40.3981 91.5278 40.6239 89.4796 40.9121Z" fill="url(#paint14_linear_29924_66923)"/>
<path d="M71.6973 69.2296C80.7753 63.4919 86.1851 61.2689 96.7632 59.3018L89.4796 40.9121C79.036 42.3819 72.4817 45.475 64.5365 51.15L71.6973 69.2296Z" fill="#D7DFE0"/>
<path fill-rule="evenodd" clip-rule="evenodd" d="M56.1453 37.3287C53.6876 42.3777 53.3794 48.0032 55.2794 53.0067C70.0782 45.1067 80.4142 40.9265 97.0639 36.4898C95.0264 31.529 90.9444 27.6291 85.6861 25.6286C81.712 24.1166 77.3082 23.7821 73.0306 24.6159L72.6414 23.6333C72.3804 22.9741 71.6342 22.6514 70.9751 22.9124L64.4102 25.5126C63.751 25.7737 63.4283 26.5198 63.6893 27.1789L64.1258 28.2811C60.6906 30.5741 57.913 33.697 56.1453 37.3287Z" fill="url(#paint15_linear_29924_66923)"/>
<path d="M56.934 57.1844C75.7203 47.0011 78.2856 45.9183 98.7185 40.6675C99.8722 40.2106 100.746 39.7276 100.289 38.5739C99.8323 37.4203 98.7469 36.4231 97.0639 36.4898C80.4142 40.9265 70.0782 45.1067 55.2794 53.0067C54.3006 54.0269 53.7618 55.3222 54.2187 56.4758C54.6756 57.6294 55.7804 57.6413 56.934 57.1844Z" fill="url(#paint16_linear_29924_66923)"/>
<ellipse cx="72.1675" cy="35.5583" rx="3.53052" ry="4.49339" transform="rotate(-21.607 72.1675 35.5583)" fill="#FBEA28"/>
<ellipse cx="34.5348" cy="129.186" rx="25.2816" ry="12.0242" transform="rotate(20.7036 34.5348 129.186)" fill="url(#paint17_linear_29924_66923)"/>
<path fill-rule="evenodd" clip-rule="evenodd" d="M46.8378 143.723C47.5045 143.454 48.0969 142.136 48.2866 141.634C49.3099 138.926 42.3922 133.803 32.8354 130.191C23.2786 126.579 14.7016 125.846 13.6783 128.554C13.4886 129.056 13.0609 130.437 13.3831 131.079L46.8378 143.723Z" fill="url(#paint18_linear_29924_66923)"/>
<path d="M13.5456 131.517C14.6889 135.368 18.0997 140.773 25.7641 143.669C33.4285 146.566 43.019 146.075 46.4234 143.943C46.963 142.515 38.6772 138.988 30.6538 135.959C22.2452 132.785 14.0562 130.168 13.5456 131.517Z" fill="url(#paint19_linear_29924_66923)"/>
<ellipse cx="36.5286" cy="125.654" rx="3.69975" ry="4.31638" transform="rotate(20.7036 36.5286 125.654)" fill="#DDDE3A"/>
<path d="M19.7057 263C22.9646 269.229 30.6559 271.637 36.8853 268.379C43.1148 265.12 45.5228 257.428 42.2639 251.199C41.45 249.643 40.3598 248.326 39.0849 247.275C34.7445 255.133 27.7068 250.833 18.9211 253.035C17.8523 256.209 18.0305 259.798 19.7057 263Z" fill="url(#paint20_radial_29924_66923)"/>
<path d="M22.8854 229.412C19.091 229.513 17.133 230.453 14.1128 234.002L21.6601 248.429C20.4172 249.765 19.4915 251.341 18.9211 253.035C27.7068 250.833 34.7445 255.133 39.0849 247.275C38.9988 247.204 38.9119 247.135 38.8241 247.066C36.5122 245.262 33.6355 244.309 30.7106 244.37L22.8854 229.412Z" fill="#F2FEFF"/>
<path d="M21.3182 263.028C24.0514 268.253 30.7556 270.14 36.2929 267.243C41.8302 264.347 44.1031 257.763 41.3699 252.539C40.6872 251.234 39.757 250.137 38.6592 249.271C34.686 256.035 28.5947 252.528 20.8345 254.58C19.8306 257.298 19.9132 260.343 21.3182 263.028Z" fill="url(#paint21_linear_29924_66923)"/>
<g opacity="0.3" filter="url(#filter14_f_29924_66923)">
<path fill-rule="evenodd" clip-rule="evenodd" d="M30.0658 244.811L22.7083 230.747C19.5471 230.782 17.9278 231.557 15.4582 234.54L22.5771 248.148C21.7484 249.061 21.0971 250.113 20.6393 251.247C20.5347 251.506 20.4402 251.769 20.356 252.036C20.6262 251.971 20.8945 251.914 21.1609 251.863C23.4067 251.434 25.515 251.487 27.4543 251.535C31.4938 251.635 34.7995 251.717 37.0845 247.399C37.0118 247.337 36.9384 247.277 36.8643 247.217C34.9132 245.649 32.5028 244.798 30.0658 244.811ZM36.1734 247.575C34.392 246.23 32.2386 245.507 30.0695 245.518L29.6389 245.521L22.2854 231.464C20.9849 231.512 20.0257 231.714 19.1477 232.167C18.2474 232.63 17.3755 233.385 16.3048 234.632L23.4325 248.257L23.1008 248.623C22.4336 249.358 21.889 250.191 21.4774 251.088C22.9064 250.852 24.2708 250.795 25.5533 250.796C26.2446 250.797 26.892 250.813 27.5112 250.829C28.4221 250.851 29.2719 250.873 30.1106 250.84C31.4811 250.787 32.6578 250.588 33.6868 250.049C34.5865 249.579 35.4222 248.823 36.1734 247.575Z" fill="#B8B8B8"/>
</g>
<circle opacity="0.5" cx="34.8639" cy="258.414" r="1.41436" transform="rotate(-27.6158 34.8639 258.414)" stroke="#E18700" stroke-width="0.310561"/>
<circle opacity="0.5" cx="30.5651" cy="265.452" r="1.41436" transform="rotate(-27.6158 30.5651 265.452)" stroke="#E18700" stroke-width="0.310561"/>
<circle opacity="0.5" cx="25.0794" cy="259.542" r="0.707181" transform="rotate(-27.6158 25.0794 259.542)" stroke="#E18700" stroke-width="0.15528"/>
<path d="M198.075 92.8399C200.369 87.508 205.999 84.9886 212.94 88.1821C219.046 90.9915 221.791 96.2466 218.981 102.353C216.374 108.019 210.874 109.215 205.099 106.611L203.364 109.804L196.775 106.773L200.314 98.5009L202.95 99.7136C207.079 101.613 210.278 102.18 211.71 98.9535C212.619 96.9768 211.955 95.1809 210.022 94.2915C207.87 93.3012 206.077 94.0733 205.148 96.094L198.075 92.8399ZM201.198 117.75C200.167 119.99 197.538 120.963 194.902 119.75C192.222 118.517 191.25 115.887 192.281 113.647C193.352 111.319 195.982 110.347 198.661 111.58C201.297 112.792 202.269 115.422 201.198 117.75Z" fill="white"/>
<path d="M208.874 116.454C210.283 115.296 212.219 115.405 213.696 117.298C214.996 118.963 215.004 120.827 213.339 122.126C211.793 123.332 210.085 122.873 208.848 121.312L207.903 121.954L206.5 120.157L208.682 118.358L209.243 119.076C210.122 120.203 210.933 120.823 211.799 120.128C212.338 119.707 212.412 119.11 212 118.583C211.542 117.996 210.93 117.953 210.379 118.383L208.874 116.454ZM206.152 123.86C205.541 124.337 204.666 124.229 204.105 123.51C203.535 122.779 203.643 121.905 204.254 121.428C204.889 120.932 205.763 121.04 206.334 121.771C206.895 122.49 206.787 123.364 206.152 123.86Z" fill="white"/>
<path d="M185.705 100.75C185.78 98.7143 187.303 97.1763 189.979 97.3418C192.334 97.4875 193.898 98.8596 193.753 101.214C193.617 103.399 191.969 104.487 189.749 104.367L189.585 105.632L187.045 105.475L187.155 102.319L188.171 102.382C189.763 102.481 190.882 102.261 190.942 101.023C190.989 100.261 190.544 99.7573 189.799 99.7112C188.969 99.6598 188.48 100.14 188.432 100.919L185.705 100.75ZM189.884 108.507C189.83 109.371 189.093 110.023 188.076 109.96C187.043 109.896 186.392 109.158 186.445 108.295C186.501 107.397 187.238 106.745 188.271 106.809C189.288 106.872 189.939 107.61 189.884 108.507Z" fill="white"/>
</g>
<defs>
<filter id="filter0_f_29924_66923" x="258.607" y="141.396" width="18.9323" height="18.933" filterUnits="userSpaceOnUse" color-interpolation-filters="sRGB">
<feFlood flood-opacity="0" result="BackgroundImageFix"/>
<feBlend mode="normal" in="SourceGraphic" in2="BackgroundImageFix" result="shape"/>
<feGaussianBlur stdDeviation="2.77068" result="effect1_foregroundBlur_29924_66923"/>
</filter>
<filter id="filter1_f_29924_66923" x="282.459" y="27.4586" width="18.9323" height="18.933" filterUnits="userSpaceOnUse" color-interpolation-filters="sRGB">
<feFlood flood-opacity="0" result="BackgroundImageFix"/>
<feBlend mode="normal" in="SourceGraphic" in2="BackgroundImageFix" result="shape"/>
<feGaussianBlur stdDeviation="2.77068" result="effect1_foregroundBlur_29924_66923"/>
</filter>
<filter id="filter2_f_29924_66923" x="143.459" y="1.45857" width="18.9323" height="18.933" filterUnits="userSpaceOnUse" color-interpolation-filters="sRGB">
<feFlood flood-opacity="0" result="BackgroundImageFix"/>
<feBlend mode="normal" in="SourceGraphic" in2="BackgroundImageFix" result="shape"/>
<feGaussianBlur stdDeviation="2.77068" result="effect1_foregroundBlur_29924_66923"/>
</filter>
<filter id="filter3_f_29924_66923" x="14.4586" y="15.4586" width="18.9323" height="18.933" filterUnits="userSpaceOnUse" color-interpolation-filters="sRGB">
<feFlood flood-opacity="0" result="BackgroundImageFix"/>
<feBlend mode="normal" in="SourceGraphic" in2="BackgroundImageFix" result="shape"/>
<feGaussianBlur stdDeviation="2.77068" result="effect1_foregroundBlur_29924_66923"/>
</filter>
<filter id="filter4_f_29924_66923" x="28.3434" y="179.934" width="18.9323" height="18.933" filterUnits="userSpaceOnUse" color-interpolation-filters="sRGB">
<feFlood flood-opacity="0" result="BackgroundImageFix"/>
<feBlend mode="normal" in="SourceGraphic" in2="BackgroundImageFix" result="shape"/>
<feGaussianBlur stdDeviation="2.77068" result="effect1_foregroundBlur_29924_66923"/>
</filter>
<filter id="filter5_f_29924_66923" x="273.058" y="263.754" width="18.9323" height="18.933" filterUnits="userSpaceOnUse" color-interpolation-filters="sRGB">
<feFlood flood-opacity="0" result="BackgroundImageFix"/>
<feBlend mode="normal" in="SourceGraphic" in2="BackgroundImageFix" result="shape"/>
<feGaussianBlur stdDeviation="2.77068" result="effect1_foregroundBlur_29924_66923"/>
</filter>
<filter id="filter6_f_29924_66923" x="149.738" y="68.1741" width="18.9323" height="18.933" filterUnits="userSpaceOnUse" color-interpolation-filters="sRGB">
<feFlood flood-opacity="0" result="BackgroundImageFix"/>
<feBlend mode="normal" in="SourceGraphic" in2="BackgroundImageFix" result="shape"/>
<feGaussianBlur stdDeviation="2.77068" result="effect1_foregroundBlur_29924_66923"/>
</filter>
<filter id="filter7_f_29924_66923" x="51.4664" y="282.059" width="18.9323" height="18.933" filterUnits="userSpaceOnUse" color-interpolation-filters="sRGB">
<feFlood flood-opacity="0" result="BackgroundImageFix"/>
<feBlend mode="normal" in="SourceGraphic" in2="BackgroundImageFix" result="shape"/>
<feGaussianBlur stdDeviation="2.77068" result="effect1_foregroundBlur_29924_66923"/>
</filter>
<filter id="filter8_f_29924_66923" x="48.5758" y="68.1744" width="18.9323" height="18.933" filterUnits="userSpaceOnUse" color-interpolation-filters="sRGB">
<feFlood flood-opacity="0" result="BackgroundImageFix"/>
<feBlend mode="normal" in="SourceGraphic" in2="BackgroundImageFix" result="shape"/>
<feGaussianBlur stdDeviation="2.77068" result="effect1_foregroundBlur_29924_66923"/>
</filter>
<filter id="filter9_f_29924_66923" x="80.8422" y="358.115" width="169.114" height="44.0547" filterUnits="userSpaceOnUse" color-interpolation-filters="sRGB">
<feFlood flood-opacity="0" result="BackgroundImageFix"/>
<feBlend mode="normal" in="SourceGraphic" in2="BackgroundImageFix" result="shape"/>
<feGaussianBlur stdDeviation="1.08867" result="effect1_foregroundBlur_29924_66923"/>
</filter>
<filter id="filter10_f_29924_66923" x="112.998" y="206.483" width="79.8874" height="37.8568" filterUnits="userSpaceOnUse" color-interpolation-filters="sRGB">
<feFlood flood-opacity="0" result="BackgroundImageFix"/>
<feBlend mode="normal" in="SourceGraphic" in2="BackgroundImageFix" result="shape"/>
<feGaussianBlur stdDeviation="0.82634" result="effect1_foregroundBlur_29924_66923"/>
</filter>
<filter id="filter11_f_29924_66923" x="151.883" y="196.098" width="9.73303" height="6.72721" filterUnits="userSpaceOnUse" color-interpolation-filters="sRGB">
<feFlood flood-opacity="0" result="BackgroundImageFix"/>
<feBlend mode="normal" in="SourceGraphic" in2="BackgroundImageFix" result="shape"/>
<feGaussianBlur stdDeviation="0.0963446" result="effect1_foregroundBlur_29924_66923"/>
</filter>
<filter id="filter12_d_29924_66923" x="249.448" y="87.1678" width="51.1021" height="52.6015" filterUnits="userSpaceOnUse" color-interpolation-filters="sRGB">
<feFlood flood-opacity="0" result="BackgroundImageFix"/>
<feColorMatrix in="SourceAlpha" type="matrix" values="0 0 0 0 0 0 0 0 0 0 0 0 0 0 0 0 0 0 127 0" result="hardAlpha"/>
<feOffset/>
<feGaussianBlur stdDeviation="1.27796"/>
<feComposite in2="hardAlpha" operator="out"/>
<feColorMatrix type="matrix" values="0 0 0 0 0 0 0 0 0 0 0 0 0 0 0 0 0 0 0.25 0"/>
<feBlend mode="normal" in2="BackgroundImageFix" result="effect1_dropShadow_29924_66923"/>
<feBlend mode="normal" in="SourceGraphic" in2="effect1_dropShadow_29924_66923" result="shape"/>
</filter>
<filter id="filter13_f_29924_66923" x="257.134" y="93.5035" width="37.7897" height="34.0618" filterUnits="userSpaceOnUse" color-interpolation-filters="sRGB">
<feFlood flood-opacity="0" result="BackgroundImageFix"/>
<feBlend mode="normal" in="SourceGraphic" in2="BackgroundImageFix" result="shape"/>
<feGaussianBlur stdDeviation="0.31949" result="effect1_foregroundBlur_29924_66923"/>
</filter>
<filter id="filter14_f_29924_66923" x="15.2519" y="230.54" width="22.0391" height="21.7034" filterUnits="userSpaceOnUse" color-interpolation-filters="sRGB">
<feFlood flood-opacity="0" result="BackgroundImageFix"/>
<feBlend mode="normal" in="SourceGraphic" in2="BackgroundImageFix" result="shape"/>
<feGaussianBlur stdDeviation="0.10352" result="effect1_foregroundBlur_29924_66923"/>
</filter>
<radialGradient id="paint0_radial_29924_66923" cx="0" cy="0" r="1" gradientUnits="userSpaceOnUse" gradientTransform="translate(159.612 198) rotate(87.0089) scale(267.721 189.082)">
<stop stop-color="#A587F5"/>
<stop offset="0.786107" stop-color="#7E54F1"/>
</radialGradient>
<radialGradient id="paint1_radial_29924_66923" cx="0" cy="0" r="1" gradientUnits="userSpaceOnUse" gradientTransform="translate(161.539 194.628) rotate(90) scale(222.074 194.134)">
<stop stop-color="white"/>
<stop offset="1" stop-color="white" stop-opacity="0"/>
</radialGradient>
<linearGradient id="paint2_linear_29924_66923" x1="112.16" y1="200.701" x2="93.6444" y2="256.81" gradientUnits="userSpaceOnUse">
<stop stop-color="#767CF2"/>
<stop offset="1" stop-color="#565CDE"/>
</linearGradient>
<linearGradient id="paint3_linear_29924_66923" x1="187.796" y1="199.788" x2="204.224" y2="256.543" gradientUnits="userSpaceOnUse">
<stop stop-color="#767CF2"/>
<stop offset="1" stop-color="#565CDE"/>
</linearGradient>
<linearGradient id="paint4_linear_29924_66923" x1="160.949" y1="185.575" x2="183.303" y2="379.107" gradientUnits="userSpaceOnUse">
<stop stop-color="#7A80FB"/>
<stop offset="1" stop-color="#3A3FA8"/>
</linearGradient>
<linearGradient id="paint5_linear_29924_66923" x1="122.122" y1="352.039" x2="118.351" y2="384.487" gradientUnits="userSpaceOnUse">
<stop stop-color="#EA7E25"/>
<stop offset="1" stop-color="#FC861F"/>
</linearGradient>
<linearGradient id="paint6_linear_29924_66923" x1="201.403" y1="351.965" x2="207.69" y2="384.021" gradientUnits="userSpaceOnUse">
<stop stop-color="#EA7E25"/>
<stop offset="1" stop-color="#FC861F"/>
</linearGradient>
<linearGradient id="paint7_linear_29924_66923" x1="175.008" y1="240.698" x2="177.856" y2="266.555" gradientUnits="userSpaceOnUse">
<stop stop-color="#FB9C18"/>
<stop offset="1" stop-color="#FD7917"/>
</linearGradient>
<linearGradient id="paint8_linear_29924_66923" x1="97.9021" y1="262.716" x2="160.768" y2="250.671" gradientUnits="userSpaceOnUse">
<stop stop-color="#656BE8"/>
<stop offset="1" stop-color="#8D92F7"/>
</linearGradient>
<linearGradient id="paint9_linear_29924_66923" x1="160.177" y1="183.392" x2="168.195" y2="218.126" gradientUnits="userSpaceOnUse">
<stop stop-color="#FB9718"/>
<stop offset="1" stop-color="#FD8017"/>
</linearGradient>
<linearGradient id="paint10_linear_29924_66923" x1="173.913" y1="180.606" x2="171.731" y2="194.48" gradientUnits="userSpaceOnUse">
<stop stop-color="#FB9718"/>
<stop offset="1" stop-color="#E67D24"/>
</linearGradient>
<linearGradient id="paint11_linear_29924_66923" x1="169.712" y1="212.643" x2="209.406" y2="257.305" gradientUnits="userSpaceOnUse">
<stop stop-color="#8C90F1"/>
<stop offset="1" stop-color="#656BE8"/>
</linearGradient>
<linearGradient id="paint12_linear_29924_66923" x1="272.207" y1="120.879" x2="264.451" y2="130.563" gradientUnits="userSpaceOnUse">
<stop stop-color="#E4E4E4"/>
<stop offset="1" stop-color="white"/>
</linearGradient>
<radialGradient id="paint13_radial_29924_66923" cx="0" cy="0" r="1" gradientUnits="userSpaceOnUse" gradientTransform="translate(275.92 115.107) rotate(116.804) scale(22.5666 19.8806)">
<stop stop-color="white"/>
<stop offset="1" stop-color="#F0F0F0"/>
</radialGradient>
<linearGradient id="paint14_linear_29924_66923" x1="75.889" y1="44.5131" x2="85.3191" y2="68.3223" gradientUnits="userSpaceOnUse">
<stop stop-color="#E1FAFF"/>
<stop offset="1" stop-color="white"/>
</linearGradient>
<linearGradient id="paint15_linear_29924_66923" x1="67.9762" y1="24.1002" x2="77.8168" y2="48.946" gradientUnits="userSpaceOnUse">
<stop stop-color="#DF362F"/>
<stop offset="1" stop-color="#972621"/>
</linearGradient>
<linearGradient id="paint16_linear_29924_66923" x1="75.7757" y1="43.7952" x2="77.8168" y2="48.946" gradientUnits="userSpaceOnUse">
<stop stop-color="#C92019"/>
<stop offset="1" stop-color="#8E1F1A"/>
</linearGradient>
<linearGradient id="paint17_linear_29924_66923" x1="34.5348" y1="110.995" x2="34.5348" y2="136.277" gradientUnits="userSpaceOnUse">
<stop stop-color="#5D5F61"/>
<stop offset="1" stop-color="#1C252E"/>
</linearGradient>
<linearGradient id="paint18_linear_29924_66923" x1="34.2774" y1="130.736" x2="31.2254" y2="138.812" gradientUnits="userSpaceOnUse">
<stop stop-color="#404448"/>
<stop offset="1" stop-color="#848B91"/>
</linearGradient>
<linearGradient id="paint19_linear_29924_66923" x1="31.6229" y1="138.632" x2="28.8979" y2="145.842" gradientUnits="userSpaceOnUse">
<stop stop-color="#676767"/>
<stop offset="1" stop-color="#A5A5A5"/>
</linearGradient>
<radialGradient id="paint20_radial_29924_66923" cx="0" cy="0" r="1" gradientUnits="userSpaceOnUse" gradientTransform="translate(27.0822 249.639) rotate(62.3842) scale(21.1484 12.7293)">
<stop stop-color="#FFD883"/>
<stop offset="1" stop-color="#FFC035"/>
</radialGradient>
<linearGradient id="paint21_linear_29924_66923" x1="24.0683" y1="256.08" x2="36.293" y2="267.243" gradientUnits="userSpaceOnUse">
<stop stop-color="#F2A600"/>
<stop offset="1" stop-color="#FEC549"/>
</linearGradient>
<clipPath id="clip0_29924_66923">
<rect width="320" height="410" fill="white"/>
</clipPath>
</defs>
</svg>
