<svg width="320" height="120" viewBox="0 0 320 120" fill="none" xmlns="http://www.w3.org/2000/svg">
<g clip-path="url(#clip0_29914_69342)">
<rect width="320" height="120" fill="url(#paint0_radial_29914_69342)"/>
<path fill-rule="evenodd" clip-rule="evenodd" d="M133.455 57.8113L133.242 47.145C124.086 48.1371 122.726 66.8948 122.726 66.8948C122.138 73.0794 129.45 72.1991 131.557 68.9992C132.321 68.1023 133.455 57.8113 133.455 57.8113Z" fill="url(#paint1_linear_29914_69342)"/>
<path fill-rule="evenodd" clip-rule="evenodd" d="M156.354 61.2987C155.773 59.9832 154.77 59.0964 154.228 57.3897L155.753 46.4718C164.867 47.8018 165.333 68.2875 165.333 68.2875C165.692 74.4896 159.09 74.0825 157.103 70.8069C156.373 69.8824 157.684 64.312 156.354 61.2987Z" fill="url(#paint2_linear_29914_69342)"/>
<path fill-rule="evenodd" clip-rule="evenodd" d="M139.584 43.5679L149.512 43.8455C149.523 43.8458 149.533 43.8468 149.544 43.8488C149.863 43.9093 154.695 45.088 158.189 47.3918C158.249 47.4316 158.283 47.5022 158.277 47.5743C157.955 51.9603 158.218 54.4269 157.974 58.6253L157.617 71.4028C157.616 71.418 157.617 71.4332 157.62 71.4481L163.317 99.6657C163.34 99.7771 163.265 99.885 163.153 99.9035L153.134 101.56C153.037 101.576 152.943 101.52 152.911 101.427L146.84 83.8585C146.836 83.8471 146.833 83.8349 146.831 83.8229C146.652 82.7315 145.56 82.7071 145.53 83.8048L143.301 101.321C143.287 101.43 143.188 101.508 143.079 101.495L132.839 100.337C132.739 100.325 132.662 100.242 132.661 100.141L132.161 72.1087L131.925 66.4141C131.732 57.9416 131.755 55.1567 131.921 47.591C131.923 47.5107 131.972 47.4373 132.047 47.4069C135.561 45.9745 139.499 43.5686 139.579 43.5678C139.58 43.5678 139.581 43.5678 139.582 43.5678L139.584 43.5679Z" fill="url(#paint3_linear_29914_69342)"/>
<g opacity="0.3" filter="url(#filter0_f_29914_69342)">
<ellipse cx="149.379" cy="111.656" rx="28.723" ry="6.92104" fill="#333333"/>
</g>
<path d="M149.117 81.194C146.866 82.9038 145.416 82.9547 142.486 81.2842C142.486 81.2842 144.609 83.0602 146.188 82.9034C147.522 82.7709 149.117 81.194 149.117 81.194Z" fill="#64EDFF"/>
<path d="M148.332 76.954C152.224 74.2508 154.059 73.2978 157.704 72.1946L157.58 73.0066L157.765 73.6233C152.003 75.6402 152.915 74.6719 148.332 76.954Z" fill="#64EDFF"/>
<path d="M141.508 76.7631C137.773 73.8467 135.995 72.7927 132.417 71.4875L132.496 72.3051L132.276 72.9105C137.917 75.2462 137.06 74.2284 141.508 76.7631Z" fill="#64EDFF"/>
<path d="M144.127 110.785C141.12 112.224 125.745 114.147 124.071 110.382C123.911 110.018 123.874 109.65 123.95 109.277C124.289 107.54 125.682 105.361 128.737 103.927C131.792 102.488 132.741 99.8993 132.741 99.8993L143.163 100.799C144.627 103.375 145.609 106.091 145.156 108.977C145.165 109.76 144.877 110.424 144.126 110.791L144.127 110.785Z" fill="url(#paint4_linear_29914_69342)"/>
<path d="M144.123 110.781C141.116 112.22 125.528 114.803 123.855 111.038C123.694 110.673 123.42 109.692 124.292 108.493C127.722 109.552 133.801 111.211 145.181 107.987C145.359 109.694 144.873 110.419 144.122 110.787L144.123 110.781Z" fill="#3167D5"/>
<path d="M152.819 111.498C155.928 112.699 171.407 113.418 172.782 109.535C172.914 109.159 172.922 108.789 172.817 108.423C172.343 106.718 170.785 104.654 167.628 103.463C164.47 102.266 163.322 99.7588 163.322 99.7588L153.002 101.468C151.743 104.15 150.975 106.934 151.652 109.776C151.704 110.557 152.042 111.197 152.82 111.504L152.819 111.498Z" fill="url(#paint5_linear_29914_69342)"/>
<path d="M152.824 111.494C155.934 112.694 171.675 114.055 173.05 110.171C173.182 109.795 173.379 108.795 172.416 107.668C169.079 108.991 163.147 111.119 151.551 108.791C151.507 110.507 152.047 111.192 152.825 111.5L152.824 111.494Z" fill="#3167D5"/>
<path d="M154.47 64.9774C154.454 64.9606 154.715 65.0006 155.095 64.8315C155.294 64.739 155.511 64.5654 155.682 64.2923C155.751 64.1635 155.821 64.002 155.858 63.8233C155.879 63.6604 155.869 63.4476 155.874 63.2517C155.919 61.5857 155.967 59.2008 156.047 56.2609C156.067 55.5205 156.083 54.7473 156.094 53.9413C156.104 53.5493 155.935 53.1686 155.632 52.8985C155.471 52.7796 155.294 52.6765 155.099 52.6384C154.905 52.5838 154.692 52.5942 154.463 52.5878C152.732 52.539 150.886 52.487 148.925 52.4318C145.021 52.3218 140.725 52.2009 136.233 52.0743C135.694 52.0592 135.178 52.4042 134.985 52.8891C134.864 53.1309 134.873 53.3927 134.865 53.6703C134.858 53.9425 134.85 54.2202 134.843 54.5033C134.813 55.5921 134.784 56.67 134.755 57.7371C134.726 58.8041 134.698 59.844 134.67 60.8566C134.657 61.3683 134.643 61.8746 134.629 62.3755C134.623 62.6205 134.599 62.8813 134.609 63.1268C134.619 63.3559 134.694 63.5868 134.82 63.7702C135.071 64.1695 135.523 64.3947 135.981 64.3749C136.46 64.3884 136.928 64.4016 137.386 64.4145C138.311 64.4514 139.209 64.4822 140.081 64.5067C141.812 64.5555 143.429 64.601 144.916 64.6429C147.856 64.742 150.24 64.8255 151.906 64.8725C152.723 64.8955 153.36 64.9298 153.801 64.9422C154.019 64.9483 154.182 64.9529 154.291 64.956C154.367 64.969 154.427 64.9761 154.47 64.9774C154.427 64.9761 154.367 64.9799 154.29 64.9886C154.181 64.9856 154.018 64.981 153.8 64.9748C153.359 64.9624 152.721 64.9608 151.905 64.9378C150.238 64.8909 147.853 64.84 144.912 64.7736C143.426 64.7317 141.809 64.6862 140.077 64.6374C139.206 64.6129 138.307 64.593 137.381 64.5778C136.924 64.5649 136.456 64.5517 135.976 64.5382C135.485 64.5571 134.969 64.2974 134.687 63.8645C134.546 63.648 134.455 63.3839 134.445 63.1222C134.453 62.8608 134.459 62.6322 134.466 62.3709C134.479 61.87 134.493 61.3637 134.507 60.852C134.535 59.8394 134.563 58.7995 134.592 57.7325C134.621 56.6654 134.65 55.5875 134.679 54.4987C134.687 54.2156 134.695 53.9379 134.702 53.6657C134.709 53.4044 134.701 53.0936 134.823 52.8192C135.051 52.2699 135.633 51.8777 136.237 51.911C140.73 52.0375 145.026 52.1585 148.93 52.2685C150.89 52.34 152.736 52.392 154.467 52.4408C154.679 52.4467 154.909 52.4369 155.136 52.4923C155.347 52.5473 155.556 52.6676 155.716 52.8028C156.052 53.0901 156.236 53.5203 156.225 53.945C156.203 54.7507 156.182 55.5238 156.162 56.2642C156.065 59.2035 156.001 61.588 155.939 63.2535C155.934 63.4495 155.945 63.6459 155.907 63.841C155.869 64.0197 155.8 64.1812 155.714 64.3259C155.543 64.599 155.31 64.7722 155.111 64.8483C154.913 64.9408 154.748 64.9689 154.634 64.982C154.557 64.9798 154.503 64.9783 154.47 64.9774Z" fill="#64EDFF"/>
<path d="M137.894 61.4594C138.228 61.4688 138.506 61.2057 138.515 60.8719C138.524 60.5381 138.261 60.2598 137.927 60.2504C137.593 60.241 137.315 60.504 137.306 60.8379C137.297 61.1717 137.56 61.45 137.894 61.4594Z" fill="#64EDFF"/>
<path fill-rule="evenodd" clip-rule="evenodd" d="M137.901 61.2193C138.102 61.225 138.269 61.0664 138.275 60.8651C138.28 60.6639 138.122 60.4961 137.92 60.4905C137.719 60.4848 137.551 60.6434 137.546 60.8446C137.54 61.0459 137.699 61.2137 137.901 61.2193ZM138.515 60.8719C138.506 61.2057 138.228 61.4688 137.894 61.4594C137.56 61.45 137.297 61.1717 137.306 60.8379C137.315 60.504 137.593 60.241 137.927 60.2504C138.261 60.2598 138.524 60.5381 138.515 60.8719Z" fill="#64EDFF"/>
<path d="M139.949 61.5141C140.283 61.5235 140.561 61.2605 140.57 60.9266C140.579 60.5928 140.315 60.3145 139.982 60.3051C139.648 60.2957 139.37 60.5587 139.361 60.8926C139.351 61.2264 139.615 61.5047 139.949 61.5141Z" fill="#64EDFF"/>
<path fill-rule="evenodd" clip-rule="evenodd" d="M139.955 61.2741C140.157 61.2797 140.324 61.1212 140.33 60.9199C140.335 60.7186 140.176 60.5508 139.975 60.5452C139.774 60.5395 139.606 60.6981 139.601 60.8993C139.595 61.1006 139.754 61.2684 139.955 61.2741ZM140.57 60.9266C140.561 61.2605 140.283 61.5235 139.949 61.5141C139.615 61.5047 139.351 61.2264 139.361 60.8926C139.37 60.5587 139.648 60.2957 139.982 60.3051C140.315 60.3145 140.579 60.5928 140.57 60.9266Z" fill="#64EDFF"/>
<path d="M141.941 61.5712C142.275 61.5806 142.553 61.3176 142.562 60.9838C142.571 60.6499 142.308 60.3716 141.974 60.3622C141.64 60.3528 141.362 60.6159 141.353 60.9497C141.344 61.2836 141.607 61.5618 141.941 61.5712Z" fill="#64EDFF"/>
<path fill-rule="evenodd" clip-rule="evenodd" d="M141.947 61.3312C142.149 61.3369 142.316 61.1783 142.322 60.977C142.327 60.7757 142.169 60.608 141.967 60.6023C141.766 60.5966 141.598 60.7552 141.593 60.9565C141.587 61.1578 141.746 61.3255 141.947 61.3312ZM142.562 60.9838C142.553 61.3176 142.275 61.5806 141.941 61.5712C141.607 61.5618 141.344 61.2836 141.353 60.9497C141.362 60.6159 141.64 60.3528 141.974 60.3622C142.308 60.3716 142.571 60.6499 142.562 60.9838Z" fill="#64EDFF"/>
<path d="M143.917 61.6245C144.251 61.6339 144.529 61.3708 144.538 61.037C144.548 60.7031 144.284 60.4249 143.95 60.4155C143.616 60.4061 143.338 60.6691 143.329 61.0029C143.32 61.3368 143.584 61.6151 143.917 61.6245Z" fill="#64EDFF"/>
<path fill-rule="evenodd" clip-rule="evenodd" d="M143.924 61.3844C144.125 61.3901 144.293 61.2315 144.298 61.0302C144.304 60.829 144.145 60.6612 143.944 60.6555C143.742 60.6499 143.575 60.8084 143.569 61.0097C143.564 61.211 143.723 61.3787 143.924 61.3844ZM144.538 61.037C144.529 61.3708 144.251 61.6339 143.917 61.6245C143.584 61.6151 143.32 61.3368 143.329 61.0029C143.338 60.6691 143.616 60.4061 143.95 60.4155C144.284 60.4249 144.548 60.7031 144.538 61.037Z" fill="#64EDFF"/>
<path d="M143.764 57.1962L138.291 57.0424C137.899 57.0314 137.581 56.7118 137.592 56.3033C137.602 55.9112 137.938 55.5937 138.33 55.6047L143.803 55.7585C144.195 55.7695 144.513 56.1054 144.503 56.4975C144.492 56.906 144.156 57.2072 143.764 57.1962Z" fill="#64EDFF"/>
<path fill-rule="evenodd" clip-rule="evenodd" d="M138.298 56.8024L143.771 56.9561C144.034 56.9635 144.255 56.7631 144.263 56.4908C144.27 56.2313 144.056 56.0058 143.797 55.9985L138.324 55.8447C138.064 55.8374 137.839 56.0506 137.832 56.3101C137.824 56.5824 138.035 56.795 138.298 56.8024ZM138.291 57.0424L143.764 57.1962C144.156 57.2072 144.492 56.906 144.503 56.4975C144.513 56.1054 144.195 55.7695 143.803 55.7585L138.33 55.6047C137.938 55.5937 137.602 55.9112 137.592 56.3033C137.581 56.7118 137.899 57.0314 138.291 57.0424Z" fill="#64EDFF"/>
<path d="M138.062 59.1797C138.396 59.1891 138.674 58.9261 138.683 58.5922C138.692 58.2583 138.429 57.9801 138.095 57.9706C137.761 57.9612 137.483 58.2243 137.474 58.5581C137.465 58.892 137.728 59.1703 138.062 59.1797Z" fill="#64EDFF"/>
<path fill-rule="evenodd" clip-rule="evenodd" d="M138.069 58.9396C138.27 58.9453 138.437 58.7867 138.443 58.5854C138.448 58.3842 138.29 58.2164 138.088 58.2107C137.887 58.205 137.719 58.3636 137.714 58.5649C137.708 58.7662 137.867 58.9339 138.069 58.9396ZM138.683 58.5922C138.674 58.9261 138.396 59.1891 138.062 59.1797C137.728 59.1703 137.465 58.892 137.474 58.5581C137.483 58.2243 137.761 57.9612 138.095 57.9706C138.429 57.9801 138.692 58.2583 138.683 58.5922Z" fill="#64EDFF"/>
<path d="M140.107 59.2353C140.441 59.2448 140.719 58.9817 140.728 58.6479C140.737 58.314 140.474 58.0357 140.14 58.0263C139.806 58.0169 139.528 58.2799 139.519 58.6138C139.51 58.9477 139.773 59.2259 140.107 59.2353Z" fill="#64EDFF"/>
<path fill-rule="evenodd" clip-rule="evenodd" d="M140.113 58.9953C140.315 59.001 140.482 58.8424 140.488 58.6411C140.493 58.4398 140.335 58.2721 140.133 58.2664C139.932 58.2607 139.764 58.4193 139.759 58.6206C139.753 58.8218 139.912 58.9896 140.113 58.9953ZM140.728 58.6479C140.719 58.9817 140.441 59.2448 140.107 59.2353C139.773 59.2259 139.51 58.9477 139.519 58.6138C139.528 58.2799 139.806 58.0169 140.14 58.0263C140.474 58.0357 140.737 58.314 140.728 58.6479Z" fill="#64EDFF"/>
<path d="M142.099 59.292C142.433 59.3014 142.711 59.0384 142.72 58.7045C142.729 58.3706 142.466 58.0924 142.132 58.083C141.798 58.0735 141.52 58.3366 141.511 58.6704C141.502 59.0043 141.765 59.2826 142.099 59.292Z" fill="#64EDFF"/>
<path fill-rule="evenodd" clip-rule="evenodd" d="M142.106 59.0519C142.307 59.0576 142.475 58.899 142.48 58.6977C142.485 58.4965 142.327 58.3287 142.125 58.323C141.924 58.3173 141.756 58.4759 141.751 58.6772C141.746 58.8785 141.904 59.0462 142.106 59.0519ZM142.72 58.7045C142.711 59.0384 142.433 59.3014 142.099 59.292C141.765 59.2826 141.502 59.0043 141.511 58.6704C141.52 58.3366 141.798 58.0735 142.132 58.083C142.466 58.0924 142.729 58.3706 142.72 58.7045Z" fill="#64EDFF"/>
<path d="M144.097 59.3452C144.431 59.3546 144.709 59.0916 144.718 58.7577C144.727 58.4239 144.464 58.1456 144.13 58.1362C143.796 58.1268 143.518 58.3898 143.509 58.7237C143.5 59.0575 143.763 59.3358 144.097 59.3452Z" fill="#64EDFF"/>
<path fill-rule="evenodd" clip-rule="evenodd" d="M144.104 59.1051C144.305 59.1108 144.473 58.9522 144.478 58.751C144.484 58.5497 144.325 58.3819 144.123 58.3762C143.922 58.3706 143.755 58.5291 143.749 58.7304C143.744 58.9317 143.902 59.0995 144.104 59.1051ZM144.718 58.7577C144.709 59.0916 144.431 59.3546 144.097 59.3452C143.763 59.3358 143.5 59.0575 143.509 58.7237C143.518 58.3898 143.796 58.1268 144.13 58.1362C144.464 58.1456 144.727 58.4239 144.718 58.7577Z" fill="#64EDFF"/>
<path d="M152.555 55.5234L149.223 55.4293C148.925 55.4209 148.677 55.6553 148.669 55.953L148.579 59.2843C148.571 59.5819 148.806 59.83 149.103 59.8384L152.435 59.9325C152.733 59.9409 152.981 59.7065 152.989 59.4089L153.079 56.0775C153.087 55.7799 152.852 55.5318 152.555 55.5234Z" fill="#64EDFF"/>
<path fill-rule="evenodd" clip-rule="evenodd" d="M152.548 55.7633L149.216 55.6692C149.051 55.6646 148.913 55.7946 148.909 55.9597L148.819 59.2911C148.814 59.4562 148.945 59.5938 149.11 59.5985L152.442 59.6926C152.607 59.6972 152.744 59.5672 152.749 59.4021L152.839 56.0707C152.843 55.9056 152.713 55.768 152.548 55.7633ZM149.223 55.4293L152.555 55.5234C152.852 55.5318 153.087 55.7799 153.079 56.0775L152.989 59.4089C152.981 59.7065 152.733 59.9409 152.435 59.9325L149.103 59.8384C148.806 59.83 148.571 59.5819 148.579 59.2843L148.669 55.953C148.677 55.6553 148.925 55.4209 149.223 55.4293Z" fill="#64EDFF"/>
<path d="M152.668 62.0356L148.763 61.9258C148.42 61.9161 148.15 61.6306 148.159 61.3039C148.168 60.9608 148.454 60.6909 148.797 60.7006L152.701 60.8104C153.044 60.82 153.315 61.1055 153.305 61.4486C153.296 61.7753 153.011 62.0452 152.668 62.0356Z" fill="#64EDFF"/>
<path fill-rule="evenodd" clip-rule="evenodd" d="M148.77 61.6857L152.675 61.7955C152.889 61.8016 153.06 61.6319 153.065 61.4418C153.071 61.2314 152.905 61.0563 152.695 61.0504L148.79 60.9406C148.58 60.9347 148.405 61.1001 148.399 61.3106C148.394 61.5007 148.555 61.6797 148.77 61.6857ZM148.763 61.9258L152.668 62.0356C153.011 62.0452 153.296 61.7753 153.305 61.4486C153.315 61.1055 153.044 60.82 152.701 60.8104L148.797 60.7006C148.454 60.6909 148.168 60.9608 148.159 61.3039C148.15 61.6306 148.42 61.9161 148.763 61.9258Z" fill="#64EDFF"/>
<path d="M162.002 30.3712C162.561 32.1611 162.075 34.1149 160.744 35.4339C160.899 32.4243 160.011 29.5882 158.08 26.9255C159.928 27.2512 161.44 28.5799 162.002 30.3712Z" fill="white"/>
<path fill-rule="evenodd" clip-rule="evenodd" d="M160.894 35.8144C160.796 35.8493 160.689 35.8472 160.591 35.8042C160.437 35.7342 160.342 35.5796 160.35 35.4116C160.501 32.5094 159.631 29.7342 157.764 27.1628C157.666 27.0278 157.661 26.8481 157.748 26.7067C157.837 26.5666 158.002 26.4938 158.165 26.5208C160.171 26.875 161.794 28.3033 162.403 30.2474C163.013 32.1915 162.491 34.2879 161.045 35.7208C161.001 35.7645 160.948 35.795 160.894 35.8144ZM159.066 27.6376C160.375 29.7335 161.079 31.9503 161.171 34.255C161.849 33.1399 162.028 31.7757 161.625 30.491C161.219 29.1909 160.279 28.1634 159.066 27.6376Z" fill="#64EDFF"/>
<path fill-rule="evenodd" clip-rule="evenodd" d="M147.857 48.9125C144.734 50.0227 141.497 50.3129 138.459 49.7552C132.779 48.7104 128.338 44.7847 126.274 38.984C124.732 34.6498 124.993 29.9526 127.009 25.7557C129.014 21.5815 132.49 18.4399 136.796 16.9095C145.671 13.755 154.989 17.7008 158.499 26.0885L158.734 26.3654C158.739 26.37 158.743 26.3748 158.747 26.3799C158.82 26.4739 158.881 26.5514 158.936 26.6212C159.377 27.1784 159.397 27.2349 159.907 28.6818C159.991 28.9182 160.09 29.1943 160.205 29.5186C161.174 32.2421 160.922 37.9377 157.932 41.557L157.627 42.0047C157.618 42.017 157.609 42.0289 157.599 42.0404C155.027 45.0637 151.852 47.3679 148.423 48.7019C148.235 48.7735 148.046 48.8437 147.857 48.9125ZM137.069 17.6772C128.497 20.7238 123.999 30.1597 127.042 38.7111C129.006 44.2315 133.221 47.9644 138.605 48.9539C145.02 50.1329 152.054 47.2888 156.965 41.5284L157.27 41.0828C157.276 41.0728 157.284 41.0631 157.293 41.0535C160.063 37.7103 160.32 32.2724 159.437 29.7915C159.322 29.4672 159.223 29.189 159.139 28.9527C158.654 27.5768 158.654 27.5768 158.298 27.1261C158.242 27.0562 158.18 26.9795 158.109 26.8868L157.837 26.5664C157.809 26.534 157.787 26.4972 157.77 26.4582C154.45 18.4389 145.549 14.6633 137.069 17.6772Z" fill="#64EDFF"/>
<path d="M137.069 17.6772C128.497 20.7238 123.999 30.1597 127.042 38.7111C129.006 44.2315 133.221 47.9644 138.605 48.9539C145.02 50.1329 152.054 47.2888 156.965 41.5284L157.27 41.0828C157.276 41.0728 157.284 41.0631 157.293 41.0535C160.063 37.7103 160.32 32.2724 159.437 29.7915L159.139 28.9527C158.654 27.5768 158.654 27.5768 158.298 27.1261C158.242 27.0562 158.18 26.9795 158.109 26.8868L157.837 26.5664C157.809 26.534 157.787 26.4972 157.77 26.4582C154.45 18.4389 145.549 14.6633 137.069 17.6772Z" fill="white"/>
<path fill-rule="evenodd" clip-rule="evenodd" d="M130.256 37.4439C129.836 35.3899 128.07 34.017 126.313 34.3755C123.79 37.4475 125.444 41.4468 127.834 41.8109C129.592 41.4524 130.676 39.4978 130.256 37.4439Z" fill="white"/>
<path d="M126.334 41.7571C126.675 41.8745 127.363 41.9069 127.834 41.8109C125.444 41.4468 123.79 37.4475 126.313 34.3755C125.946 34.4503 125.53 34.6052 125.36 34.7022C124.115 35.4157 123.429 37.0499 123.776 38.7528C124.085 40.257 125.115 41.3966 126.334 41.7573L126.334 41.7571Z" fill="#F2F2F2"/>
<path fill-rule="evenodd" clip-rule="evenodd" d="M127.707 42.2753C127.858 42.2452 128.004 42.2048 128.147 42.1543C128.923 41.8784 129.575 41.3121 130.011 40.5255C130.515 39.616 130.67 38.5147 130.448 37.4273C129.984 35.1558 127.999 33.6369 126.023 34.0398C124.051 34.444 122.819 36.6185 123.285 38.8892C123.507 39.9767 124.081 40.9294 124.903 41.5683C125.743 42.2215 126.74 42.4728 127.707 42.2753ZM126.692 41.4978C126.746 41.4927 126.798 41.4847 126.85 41.4739C127.417 41.3574 127.891 40.9274 128.187 40.2636C128.5 39.5587 128.573 38.6866 128.392 37.8061C128.04 36.0835 126.823 34.8635 125.643 35.0192C124.437 35.5872 123.754 37.1231 124.082 38.726C124.265 39.6246 124.734 40.4053 125.403 40.9264C125.802 41.2357 126.242 41.4291 126.692 41.4978ZM128.553 41.0123C128.847 40.7849 129.1 40.4875 129.298 40.1309C129.708 39.389 129.833 38.4871 129.65 37.5884C129.377 36.2613 128.485 35.2477 127.43 34.9101C128.199 35.4957 128.814 36.4809 129.058 37.6708C129.267 38.6876 129.177 39.7068 128.808 40.5378C128.733 40.7077 128.647 40.8662 128.553 41.0123Z" fill="#64EDFF"/>
<path fill-rule="evenodd" clip-rule="evenodd" d="M135.345 23.7843C135.409 23.5208 135.267 23.1138 134.88 22.571C133.91 21.2075 132.51 20.8568 131.418 20.8749C131.084 20.8611 130.782 20.8944 130.515 20.9638C129.532 21.6075 129.846 22.751 130.298 22.754C132.18 22.7664 133.298 23.0387 135.345 23.7843Z" fill="white"/>
<path d="M129.856 23.5791C131.042 23.4665 132.309 23.4519 133.545 23.8916C134.584 24.2624 135.24 24.2155 135.345 23.7843C133.298 23.0387 132.18 22.7664 130.298 22.754C129.846 22.751 129.532 21.6075 130.515 20.9638C129.015 21.3543 128.631 22.8861 129.856 23.5791Z" fill="#F2F2F2"/>
<path fill-rule="evenodd" clip-rule="evenodd" d="M135.193 24.4844C134.787 24.6287 134.191 24.5625 133.413 24.283C132.193 23.8493 130.952 23.8922 129.899 23.9931C129.817 23.9989 129.733 23.9816 129.66 23.9417C128.916 23.5203 128.573 22.7631 128.788 22.0152C129.018 21.2052 129.925 20.4163 131.429 20.4757C132.343 20.4618 134.041 20.688 135.219 22.3429C135.79 23.1482 135.921 23.7685 135.605 24.1898C135.501 24.3257 135.364 24.4239 135.193 24.4844ZM129.959 23.1682C131.015 23.0757 132.367 23.0454 133.687 23.5164C134.57 23.8318 134.912 23.7386 134.956 23.697C134.954 23.6978 135.021 23.4689 134.554 22.8146C133.588 21.4567 132.183 21.2774 131.431 21.2902C131.423 21.2899 131.415 21.2896 131.407 21.2892C130.338 21.2451 129.716 21.7349 129.57 22.2392C129.469 22.5979 129.608 22.9301 129.959 23.1682Z" fill="#64EDFF"/>
<path fill-rule="evenodd" clip-rule="evenodd" d="M152.326 21.1181C152.67 20.9203 152.881 20.485 152.703 20.1311C150.941 16.5794 149.266 16.4111 147.953 17.3935C150.002 18.1732 151.007 18.8859 152.326 21.1181Z" fill="white"/>
<path d="M151.283 20.9562C151.498 21.2897 151.984 21.3173 152.326 21.1181C151.007 18.8859 150.002 18.1732 147.953 17.3935C147.848 17.4713 147.747 17.5564 147.647 17.6476C147.463 17.8161 147.546 18.1128 147.778 18.2028C149.169 18.741 150.496 19.7383 151.283 20.9562Z" fill="#F2F2F2"/>
<path fill-rule="evenodd" clip-rule="evenodd" d="M152.397 20.2832L152.397 20.2832C151.456 18.3878 150.583 17.5609 149.858 17.3095C149.175 17.073 148.522 17.3171 147.898 17.8819C147.899 17.8826 147.9 17.8832 147.902 17.8837C149.349 18.4438 150.739 19.483 151.571 20.7705L151.571 20.7706C151.613 20.8355 151.687 20.8834 151.799 20.8973C151.914 20.9116 152.046 20.8852 152.154 20.8225L152.156 20.8214L152.156 20.8214C152.4 20.6812 152.467 20.4234 152.397 20.2847L152.397 20.2832ZM151.283 20.9562C151.498 21.2897 151.984 21.3173 152.326 21.1181C152.67 20.9203 152.881 20.485 152.703 20.1311C150.801 16.298 149.001 16.4057 147.647 17.6476C147.463 17.8161 147.546 18.1128 147.778 18.2028C149.169 18.741 150.496 19.7383 151.283 20.9562Z" fill="#64EDFF"/>
<path d="M139.895 11.478C139.866 11.4224 139.84 11.3641 139.819 11.3035C139.564 10.5872 139.938 9.80006 140.655 9.54533C141.371 9.2906 142.159 9.66474 142.414 10.381C142.668 11.0973 142.294 11.8844 141.577 12.1391C141.191 12.2765 140.784 12.231 140.451 12.0475C139.684 12.787 139.328 13.6393 139.207 14.4616C139.034 15.6285 139.333 16.7555 139.658 17.4253L138.941 17.7727C138.561 16.9889 138.219 15.7004 138.419 14.3455C138.565 13.3565 138.999 12.3426 139.895 11.478Z" fill="#64EDFF"/>
<path fill-rule="evenodd" clip-rule="evenodd" d="M134.818 13.1621C134.818 13.1621 134.819 13.1654 134.824 13.1723C134.821 13.1656 134.818 13.1621 134.818 13.1621ZM135.069 13.3977C135.245 13.3499 135.481 13.3079 135.78 13.2815C136.644 13.205 137.852 13.2732 139.187 13.5229C140.522 13.7727 141.673 14.1459 142.451 14.5298C142.72 14.6624 142.925 14.7869 143.072 14.8952C142.895 14.943 142.659 14.9849 142.361 15.0113C141.496 15.0878 140.288 15.0196 138.953 14.7699C137.619 14.5201 136.468 14.1469 135.689 13.763C135.421 13.6304 135.216 13.5059 135.069 13.3977ZM143.391 14.7662C143.39 14.7661 143.387 14.7684 143.381 14.7735C143.388 14.7688 143.391 14.7663 143.391 14.7662ZM143.322 15.1307C143.323 15.1308 143.321 15.1274 143.316 15.1206C143.32 15.1273 143.322 15.1307 143.322 15.1307ZM134.759 13.5193C134.752 13.524 134.749 13.5266 134.75 13.5267C134.75 13.5268 134.754 13.5244 134.759 13.5193ZM138.807 15.5522C136.037 15.0339 133.909 13.9842 134.054 13.2078C134.199 12.4314 136.563 12.2222 139.334 12.7406C142.104 13.259 144.232 14.3086 144.086 15.085C143.941 15.8614 141.577 16.0706 138.807 15.5522Z" fill="#64EDFF"/>
<path fill-rule="evenodd" clip-rule="evenodd" d="M149.402 46.8454C141.247 50.4058 132.227 47.837 129.293 41.1231C126.358 34.4072 130.602 26.0488 138.756 22.4883C146.908 18.9288 155.93 21.4947 158.865 28.2106C161.799 34.9245 157.554 43.2858 149.402 46.8454ZM139.027 23.1089C131.217 26.5191 127.13 34.4771 129.916 40.8512C132.701 47.2233 141.319 49.6331 149.129 46.2228C156.94 42.8125 161.027 34.8546 158.242 28.4825C155.456 22.1084 146.838 19.6986 139.027 23.1089Z" fill="#64EDFF"/>
<path d="M139.027 23.1089C131.217 26.5191 127.13 34.4771 129.916 40.8512C132.701 47.2233 141.319 49.6331 149.129 46.2228C156.94 42.8125 161.027 34.8546 158.242 28.4825C155.456 22.1084 146.838 19.6986 139.027 23.1089Z" fill="#00A4FF"/>
<path fill-rule="evenodd" clip-rule="evenodd" d="M148.808 45.5006C141.6 48.6479 133.691 46.5244 131.174 40.7667C128.658 35.0091 132.473 27.7637 139.681 24.6164C146.888 21.4691 154.799 23.5947 157.315 29.3523C159.832 35.11 156.016 42.3533 148.808 45.5006Z" fill="#6C6C6C"/>
<path d="M145.389 45.7233C146.279 45.4971 147.164 45.1931 148.017 44.8208C152.74 42.7585 156.067 38.854 156.736 34.6078C156.558 34.4117 156.358 34.2253 156.137 34.0479C156.044 33.9724 155.997 33.8497 156.017 33.7295C156.222 32.4506 156.199 31.157 155.952 29.8816C155.878 29.495 155.778 29.1071 155.664 28.7283C152.85 23.9753 145.906 22.5034 139.488 25.3059C136.042 26.8102 133.232 29.3963 131.764 32.414C131.762 33.1248 131.83 33.8391 131.967 34.5401C132.215 35.8126 132.678 37.0227 133.35 38.1323C133.412 38.2359 133.413 38.3662 133.355 38.4716C132.81 39.4534 132.625 40.4161 132.805 41.3381C133.463 44.7166 138.988 46.6408 145.389 45.7233Z" fill="#B0401E"/>
<path d="M138.653 26.5538C140.221 26.2494 141.764 26.6149 142.989 27.4489C143.806 26.1621 145.129 25.1989 146.745 24.886C150.998 24.0609 155.464 29.0498 152.748 33.5089C153.943 32.7605 156.226 33.507 157.023 34.2581C159.045 38.0989 153.847 43.6254 148.156 45.142C147.262 45.5321 146.358 45.8371 145.457 46.0657C138.872 47.0153 133.179 45.0358 132.476 41.4132C132.275 40.3888 132.496 39.3355 133.061 38.318C133.881 37.3882 134.994 36.9008 136.399 36.8558C135.25 36.0297 134.403 34.7837 134.112 33.2853C133.505 30.1728 135.539 27.1577 138.653 26.5538Z" fill="#FFCAA1" stroke="#6C6C6C" stroke-width="0.684298" stroke-linejoin="round"/>
<path d="M148.923 40.6077C147.438 40.6798 146.644 40.7812 145.617 41.5757" stroke="#6C6C6C" stroke-width="0.96687" stroke-linecap="round" stroke-linejoin="round"/>
<path d="M145.464 37.7361C145.468 37.7273 145.471 37.7185 145.474 37.7095C145.674 37.3608 146.081 37.1709 146.479 37.2454C146.664 37.2809 146.841 37.1578 146.877 36.9747C146.91 36.7905 146.789 36.6132 146.604 36.5778C146.026 36.4691 145.434 36.6884 145.059 37.1246C144.549 36.8593 143.931 36.8795 143.427 37.201C143.27 37.3011 143.224 37.5125 143.324 37.6698C143.427 37.8263 143.636 37.8729 143.793 37.7727C144.097 37.5787 144.473 37.572 144.778 37.7438C144.894 38.4471 144.972 38.872 145.16 39.834C145.196 40.0168 145.375 40.1374 145.56 40.1003C145.584 40.0962 145.608 40.0891 145.631 40.0791C145.773 40.0169 145.858 39.8612 145.827 39.7026C145.65 38.7977 145.57 38.3716 145.464 37.7361Z" fill="#6C6C6C"/>
<path d="M150.444 32.6409C150.529 33.9606 149.902 35.0245 149.041 35.0175C148.182 35.0097 147.414 33.9349 147.329 32.6153C147.244 31.2956 147.872 30.2317 148.733 30.2387C149.594 30.2456 150.36 31.3213 150.444 32.6409Z" fill="#6C6C6C"/>
<path d="M148.737 33.7649C148.877 33.9561 148.9 34.203 148.789 34.3166C148.676 34.4291 148.471 34.3658 148.332 34.1745C148.193 33.9833 148.17 33.7365 148.282 33.6219C148.393 33.5104 148.598 33.5737 148.737 33.7649Z" fill="white"/>
<path d="M149.546 31.2109C149.739 31.6257 149.692 32.0828 149.441 32.2309C149.19 32.377 148.83 32.1584 148.636 31.7415C148.445 31.3258 148.491 30.8667 148.743 30.7206C148.994 30.5746 149.354 30.7931 149.546 31.2109Z" fill="white"/>
<path d="M138.673 35.0035C139.092 36.2367 140.064 36.9688 140.845 36.6384C141.624 36.3079 141.918 35.0404 141.499 33.8072C141.079 32.574 140.107 31.842 139.326 32.1724C138.545 32.5028 138.253 33.7703 138.673 35.0035Z" fill="#6C6C6C"/>
<path d="M140.65 35.3839C140.595 35.6105 140.667 35.8438 140.811 35.9057C140.956 35.9655 141.118 35.8308 141.173 35.6042C141.228 35.3777 141.156 35.1443 141.011 35.0824C140.867 35.0227 140.705 35.1574 140.65 35.3839Z" fill="white"/>
<path d="M138.952 33.3638C138.932 33.8142 139.148 34.2123 139.431 34.2529C139.715 34.2912 139.96 33.9568 139.98 33.5042C139.998 33.0537 139.783 32.6534 139.499 32.615C139.215 32.5767 138.97 32.9111 138.952 33.3638Z" fill="white"/>
<g opacity="0.2" filter="url(#filter1_f_29914_69342)">
<path d="M157.192 51.7002L158.242 60.5206M131.954 54.8462L131.828 63.7281" stroke="black" stroke-width="0.288117"/>
</g>
<path d="M148.284 70.2558L147.905 64.0663L154.028 62.8935C154.028 62.8935 157.607 63.434 157.989 64.1397C158.37 64.8454 157.897 64.9853 157.838 65.5271C157.779 66.069 158.176 66.1191 158.253 66.5407C158.355 67.1008 158.1 67.4206 158.109 67.9897C158.117 68.4491 158.327 68.7098 158.238 69.1594C158.085 69.9321 156.881 70.6174 156.881 70.6174C156.881 70.6174 156.315 71.9682 155.677 71.8093C154.117 71.4203 149.963 70.0709 149.963 70.0709L148.284 70.2558Z" fill="url(#paint6_linear_29914_69342)"/>
<path fill-rule="evenodd" clip-rule="evenodd" d="M123.744 64.8343C122.321 66.3765 123.073 69.5373 123.744 71.0489C124.416 72.5605 126.919 73.8621 130.146 73.2928C134.181 72.5811 148.805 70.8624 148.805 70.8624L148.896 63.6422C144.27 63.6422 125.76 62.6508 123.744 64.8343Z" fill="url(#paint7_linear_29914_69342)"/>
<path fill-rule="evenodd" clip-rule="evenodd" d="M144.734 49.0893C144.217 49.4844 144.076 49.7784 144.09 50.4338C144.997 50.6188 145.464 50.7828 146.029 51.481L149.472 55.3698L154.779 53.5468L153.254 48.3184C152.735 47.5324 152.163 46.8651 151.374 46.1485C151.207 45.9971 151.031 45.8435 150.843 45.6861C150.682 45.5508 150.533 45.4231 150.391 45.3023C149.412 44.4645 148.815 43.9536 147.145 43.4508C146.252 43.2581 145.563 43.4155 145.433 43.8458C147 44.7208 147.845 45.225 148.873 46.3403C148.785 46.3271 148.701 46.3141 148.619 46.3015C147.692 46.159 147.1 46.068 146.224 46.3538C145.791 46.7599 145.624 47.0404 145.457 47.6269C144.996 48.084 144.822 48.3936 144.734 49.0893Z" fill="url(#paint8_linear_29914_69342)"/>
<path d="M151.374 46.1485C152.163 46.8651 152.735 47.5324 153.254 48.3184L153.094 44.8676C153.199 43.9463 152.179 44.5805 151.806 45.2644L151.374 46.1485Z" fill="url(#paint9_linear_29914_69342)"/>
<g opacity="0.5" filter="url(#filter2_f_29914_69342)">
<path fill-rule="evenodd" clip-rule="evenodd" d="M147.57 48.1505C146.99 47.738 146.48 47.7421 145.653 47.7847L145.494 47.6081C146.342 47.485 147.348 47.5383 147.992 48.077L147.57 48.1505ZM145.75 49.3633C145.461 49.2878 145.154 49.2587 144.733 49.2575L144.743 49.0823C145.179 49.0835 145.59 49.0591 145.918 49.1445C146.245 49.2299 146.856 49.5108 147.233 49.7187L146.683 49.7642C146.319 49.5628 146.039 49.4387 145.75 49.3633Z" fill="#844F00"/>
</g>
<path fill-rule="evenodd" clip-rule="evenodd" d="M165.35 69.7007C164.687 72.6931 162.969 73.374 160.945 73.4873C158.92 73.6007 158.141 73.0491 156.343 70.3093C154.094 66.8844 148.645 54.7239 148.645 54.7239L154.728 51.1246C158.118 55.0983 165.972 66.8957 165.35 69.7007Z" fill="url(#paint10_linear_29914_69342)"/>
<path d="M159.728 6.93777C160.922 4.16347 163.851 2.85264 167.462 4.51421C170.639 5.97598 172.068 8.71028 170.606 11.8873C169.249 14.8358 166.388 15.4577 163.383 14.1029L162.48 15.7645L159.052 14.1871L160.893 9.88325L162.265 10.5142C164.413 11.5028 166.078 11.7978 166.822 10.1187C167.296 9.09021 166.95 8.15578 165.944 7.69306C164.825 7.17776 163.892 7.57951 163.408 8.6309L159.728 6.93777ZM161.353 19.8988C160.817 21.0645 159.449 21.5705 158.077 20.9395C156.683 20.298 156.177 18.9297 156.713 17.764C157.271 16.5527 158.639 16.0467 160.033 16.6882C161.405 17.3192 161.911 18.6875 161.353 19.8988Z" fill="white"/>
<path d="M165.347 19.2241C166.081 18.6217 167.088 18.6783 167.856 19.6633C168.533 20.5299 168.537 21.4994 167.67 22.1756C166.866 22.8032 165.977 22.564 165.334 21.7521L164.842 22.0858L164.112 21.1507L165.247 20.2147L165.539 20.5887C165.997 21.1747 166.419 21.4973 166.869 21.1359C167.15 20.917 167.188 20.6062 166.974 20.3319C166.736 20.0264 166.417 20.0041 166.13 20.2278L165.347 19.2241ZM163.931 23.0777C163.613 23.3258 163.158 23.2696 162.866 22.8956C162.569 22.5153 162.625 22.0603 162.943 21.8121C163.274 21.5543 163.729 21.6105 164.026 21.9907C164.317 22.3648 164.261 22.8199 163.931 23.0777Z" fill="white"/>
<path d="M153.291 11.0537C153.33 9.99441 154.123 9.19412 155.515 9.28028C156.74 9.35608 157.554 10.07 157.479 11.2951C157.408 12.432 156.55 12.9982 155.395 12.9356L155.31 13.5939L153.988 13.5121L154.046 11.8701L154.574 11.9028C155.403 11.954 155.985 11.8397 156.016 11.1957C156.041 10.7991 155.809 10.5371 155.421 10.5131C154.989 10.4864 154.735 10.736 154.71 11.1415L153.291 11.0537ZM155.466 15.0898C155.438 15.5393 155.054 15.8783 154.525 15.8456C153.988 15.8123 153.649 15.4286 153.676 14.9791C153.705 14.512 154.089 14.173 154.627 14.2063C155.155 14.239 155.494 14.6227 155.466 15.0898Z" fill="white"/>
<g opacity="0.9">
<rect x="197.248" y="52.02" width="8.99169" height="6.94813" rx="2.86099" transform="rotate(13.61 197.248 52.02)" stroke="#5F3C38" stroke-width="2.04357"/>
<rect x="188.738" y="54.165" width="24.9315" height="16.7572" rx="1.63485" transform="rotate(13.61 188.738 54.165)" fill="#DF732A"/>
<path d="M212.216 58.7976L189.936 53.4033C189.072 53.1942 188.2 53.7134 187.972 54.5724L186.405 60.4658C186.187 61.2864 186.634 62.1373 187.433 62.4243L198.426 66.3729C198.537 66.4127 198.652 66.4405 198.769 66.4556L210.188 67.9321C211.015 68.0391 211.79 67.5062 211.986 66.6955L213.421 60.7712C213.633 59.8937 213.094 59.0101 212.216 58.7976Z" fill="#A65425"/>
<rect x="196.336" y="62.7324" width="6.1307" height="4.90456" rx="2.04357" transform="rotate(13.61 196.336 62.7324)" fill="#82381B"/>
</g>
<g filter="url(#filter3_d_29914_69342)">
<path fill-rule="evenodd" clip-rule="evenodd" d="M210.915 24.3298C209.976 25.5705 208.514 27.4475 208.69 27.5479C211.903 29.3793 214.182 31.3423 216.013 34.3916C216.2 34.7043 217.628 32.5167 218.716 31.1158C216.661 27.5146 214.874 26.1062 210.915 24.3298Z" fill="url(#paint11_linear_29914_69342)"/>
<path d="M210.915 24.3298C214.874 26.1062 216.661 27.5146 218.716 31.1158C222.775 29.9297 227.395 27.865 227.885 25.1178C228.133 22.8478 226.695 21.8997 224.793 21.1604C224.027 19.0622 223.351 18.2927 221.58 17.7404C220.641 15.7387 219.442 14.5639 217.948 14.5577C213.466 14.5391 212.127 19.4319 210.915 24.3298Z" fill="url(#paint12_radial_29914_69342)"/>
</g>
<g opacity="0.5" filter="url(#filter4_f_29914_69342)">
<path d="M218.665 16.5396C217.353 16.8662 216.705 17.1607 215.91 18.1417M220.93 17.9834C218.751 18.6546 217.925 19.4715 217.031 21.553M224.918 21.9445C223.881 23.6458 223.155 24.2285 221.679 24.7997M226.228 23.205C226.052 24.4635 225.79 25.0835 224.722 25.8882M212.79 21.0572C212.435 22.3985 212.162 23.1128 211.223 24.1584M213.557 23.3912C213.249 23.9568 213.076 24.2828 212.773 24.9419M215.885 24.1181C215.605 24.9512 215.425 25.3976 214.92 26.0266M218.504 26.6392C217.865 27.0936 217.51 27.4 216.884 28.0668M221.365 28.3843C220.041 28.7971 219.366 29.1363 218.311 29.9852" stroke="#6C6C6C" stroke-width="0.267275" stroke-linecap="round" stroke-linejoin="round"/>
</g>
<path d="M233.393 43.9641C233.935 43.8308 234.267 43.2832 234.133 42.7412C234 42.1993 233.453 41.8679 232.911 42.0012C232.455 42.1133 232.148 42.5185 232.141 42.9668C231.79 43.1146 231.161 43.4255 230.978 43.8158C230.734 44.3364 230.798 44.9008 230.936 45.4625L231.936 49.5269L232.918 49.2854L231.814 44.7988C231.674 44.23 232.271 43.8714 232.502 43.7564C232.74 43.9567 233.068 44.0442 233.393 43.9641Z" fill="white"/>
<path d="M237.881 42.8601C237.339 42.9934 236.791 42.662 236.658 42.1201C236.525 41.5782 236.856 41.0305 237.398 40.8972C237.854 40.7851 238.314 41.0016 238.528 41.3956C238.907 41.3639 239.609 41.3471 239.952 41.608C240.41 41.956 240.614 42.4859 240.753 43.0475L241.753 47.1119L240.771 47.3533L239.667 42.8667C239.528 42.2979 238.832 42.2573 238.575 42.2622C238.456 42.5504 238.207 42.78 237.881 42.8601Z" fill="white"/>
<path d="M242.087 47.527C242.018 49.5514 240.825 51.3989 238.981 52.2834C239.018 52.3611 239.048 52.4436 239.069 52.5303C239.161 52.904 239.081 53.2798 238.88 53.5743L239.925 57.8214C240.572 60.4542 243.232 62.0634 245.865 61.4157C248.497 60.768 250.106 58.1087 249.459 55.4759L248.39 51.1295L250.072 50.7156L251.141 55.062C252.018 58.624 249.84 62.2219 246.278 63.0982C242.716 63.9745 239.119 61.7973 238.242 58.2354L237.197 53.9882C236.882 53.8207 236.637 53.5249 236.545 53.1512C236.519 53.0421 236.506 52.9328 236.508 52.8254C234.571 52.7933 232.785 51.7305 231.831 50.0501C231.585 49.616 231.863 49.0987 232.348 48.9795C232.752 48.8801 233.16 49.0979 233.388 49.4459C234.257 50.7701 235.895 51.469 237.52 51.0692C239.145 50.6694 240.272 49.2902 240.427 47.7142C240.468 47.3001 240.728 46.9179 241.132 46.8185C241.617 46.6992 242.104 47.0281 242.087 47.527Z" fill="#A1E8FC"/>
<path d="M251.761 48.5157C252.162 50.1418 251.168 51.7843 249.541 52.1844C247.915 52.5844 246.273 51.5905 245.873 49.9644C245.473 48.3383 246.467 46.6957 248.093 46.2957C249.719 45.8956 251.361 46.8896 251.761 48.5157ZM247.459 49.5741C247.644 50.324 248.401 50.7824 249.151 50.5979C249.901 50.4134 250.359 49.6559 250.175 48.906C249.991 48.156 249.233 47.6977 248.483 47.8822C247.733 48.0667 247.275 48.8241 247.459 49.5741Z" fill="#FCD49A"/>
<path d="M247.459 49.5741C247.644 50.324 248.401 50.7824 249.151 50.5979C249.901 50.4134 250.359 49.6559 250.175 48.906C249.991 48.156 249.233 47.6977 248.483 47.8822C247.733 48.0667 247.275 48.8241 247.459 49.5741Z" fill="#FF9390"/>
<path fill-rule="evenodd" clip-rule="evenodd" d="M87.9026 75.6823L90.0655 84.7891C91.723 84.7983 92.561 84.5038 93.8101 83.306L93.1674 81.6833L90.1721 74.1209C89.9307 74.2934 89.6272 74.4949 89.3075 74.7071C88.8225 75.0291 88.3005 75.3756 87.9026 75.6823ZM100.605 69.8386L103.652 77.5307L104.295 79.1533C105.858 78.7547 106.624 78.476 107.665 77.8185L103.38 69.5522C102.381 69.6236 101.462 69.718 100.605 69.8386Z" fill="url(#paint13_linear_29914_69342)"/>
<path d="M93.1674 81.6833C96.9646 79.2833 99.2274 78.3535 103.652 77.5307L100.605 69.8386C96.2371 70.4534 93.4955 71.7472 90.1721 74.1209L93.1674 81.6833Z" fill="#D7DFE0"/>
<path fill-rule="evenodd" clip-rule="evenodd" d="M86.6619 68.3396C85.6339 70.4515 85.505 72.8046 86.2997 74.8975C92.4898 71.593 96.8132 69.8445 103.777 67.9887C102.925 65.9137 101.218 64.2824 99.0184 63.4456C97.356 62.8132 95.514 62.6733 93.7248 63.0221L93.562 62.611C93.4528 62.3353 93.1407 62.2003 92.865 62.3095L90.119 63.3971C89.8433 63.5063 89.7082 63.8184 89.8174 64.0941L90 64.5551C88.5631 65.5143 87.4013 66.8205 86.6619 68.3396Z" fill="url(#paint14_linear_29914_69342)"/>
<path d="M86.9918 76.6449C94.8498 72.3854 95.9228 71.9325 104.47 69.7362C104.952 69.5451 105.318 69.343 105.127 68.8605C104.935 68.3779 104.481 67.9608 103.777 67.9887C96.8132 69.8445 92.4898 71.593 86.2997 74.8975C85.8903 75.3242 85.6649 75.866 85.856 76.3486C86.0471 76.8311 86.5093 76.836 86.9918 76.6449Z" fill="url(#paint15_linear_29914_69342)"/>
<ellipse cx="93.3639" cy="67.5992" rx="1.47676" ry="1.87951" transform="rotate(-21.607 93.3639 67.5992)" fill="#FBEA28"/>
<ellipse cx="98.3541" cy="20.4433" rx="10.5749" ry="5.02953" transform="rotate(20.7036 98.3541 20.4433)" fill="url(#paint16_linear_29914_69342)"/>
<path fill-rule="evenodd" clip-rule="evenodd" d="M103.499 26.5242C103.778 26.4117 104.026 25.8602 104.105 25.6503C104.533 24.5177 101.64 22.3748 97.6423 20.864C93.6449 19.3532 90.0573 19.0466 89.6292 20.1792C89.5499 20.3891 89.371 20.9666 89.5058 21.2355L103.499 26.5242Z" fill="url(#paint17_linear_29914_69342)"/>
<path d="M89.5755 21.4185C90.0538 23.0291 91.4804 25.29 94.6863 26.5016C97.8922 27.7133 101.904 27.5077 103.328 26.616C103.553 26.0189 100.088 24.5434 96.7316 23.2765C93.2144 21.9489 89.7891 20.8544 89.5755 21.4185Z" fill="url(#paint18_linear_29914_69342)"/>
<ellipse cx="99.1882" cy="18.9665" rx="1.54755" ry="1.80547" transform="rotate(20.7036 99.1882 18.9665)" fill="#DDDE3A"/>
<path d="M55.7329 45.8947C57.096 48.5003 60.3132 49.5075 62.9188 48.1444C65.5245 46.7813 66.5317 43.5641 65.1686 40.9585C64.8282 40.3077 64.3721 39.7566 63.8389 39.3173C62.0234 42.6039 59.0796 40.8056 55.4047 41.7266C54.9576 43.0543 55.0322 44.5552 55.7329 45.8947Z" fill="url(#paint19_radial_29914_69342)"/>
<path d="M57.0629 31.8455C55.4757 31.8878 54.6568 32.2809 53.3935 33.7651L56.5504 39.7997C56.0305 40.3587 55.6433 41.0179 55.4047 41.7266C59.0796 40.8056 62.0234 42.6039 63.8389 39.3173C63.8029 39.2876 63.7665 39.2585 63.7298 39.2298C62.7628 38.4751 61.5595 38.0767 60.336 38.1022L57.0629 31.8455Z" fill="#F2FEFF"/>
<path d="M56.4071 45.9067C57.5503 48.0921 60.3546 48.8814 62.6707 47.6698C64.9869 46.4581 65.9376 43.7044 64.7944 41.519C64.5088 40.9732 64.1198 40.5144 63.6606 40.1522C61.9986 42.9816 59.4507 41.5146 56.2048 42.3727C55.7849 43.5098 55.8194 44.7833 56.4071 45.9067Z" fill="url(#paint20_linear_29914_69342)"/>
<g opacity="0.3" filter="url(#filter5_f_29914_69342)">
<path fill-rule="evenodd" clip-rule="evenodd" d="M60.0666 38.2864L56.989 32.4036C55.6667 32.4183 54.9894 32.7423 53.9564 33.99L56.9341 39.682C56.5875 40.0641 56.3151 40.5039 56.1236 40.9783C56.0798 41.0867 56.0403 41.1968 56.0051 41.3085C56.1181 41.2813 56.2303 41.2572 56.3418 41.236C57.2811 41.0568 58.163 41.0787 58.9742 41.0988C60.6639 41.1407 62.0466 41.1749 63.0024 39.3688C62.9719 39.343 62.9412 39.3177 62.9102 39.2928C62.0941 38.6367 61.0859 38.2811 60.0666 38.2864ZM62.6213 39.4425C61.8761 38.8798 60.9754 38.5775 60.0681 38.5822L59.888 38.5832L56.8121 32.7036C56.2682 32.7235 55.8669 32.8083 55.4997 32.9974C55.1231 33.1913 54.7584 33.5071 54.3106 34.0288L57.2919 39.7278L57.1532 39.8808C56.8741 40.1884 56.6463 40.5367 56.4742 40.912C57.0719 40.8131 57.6426 40.7893 58.179 40.7898C58.4682 40.79 58.739 40.7968 58.998 40.8034C59.379 40.813 59.7345 40.8219 60.0853 40.8083C60.6585 40.7861 61.1508 40.7027 61.5811 40.4775C61.9575 40.2806 62.307 39.9644 62.6213 39.4425Z" fill="#B8B8B8"/>
</g>
<circle opacity="0.5" cx="62.0738" cy="43.976" r="0.591605" transform="rotate(-27.6158 62.0738 43.976)" stroke="#E18700" stroke-width="0.129903"/>
<circle opacity="0.5" cx="60.275" cy="46.9204" r="0.591605" transform="rotate(-27.6158 60.275 46.9204)" stroke="#E18700" stroke-width="0.129903"/>
<circle opacity="0.5" cx="57.9813" cy="44.4482" r="0.295802" transform="rotate(-27.6158 57.9813 44.4482)" stroke="#E18700" stroke-width="0.0649513"/>
<g opacity="0.8" filter="url(#filter6_f_29914_69342)">
<circle cx="49" cy="63.8828" r="2" fill="white"/>
</g>
<path d="M48.9689 62.3644C49.0002 62.2799 49.1197 62.2799 49.151 62.3644L49.5376 63.4077C49.5474 63.4343 49.5684 63.4553 49.5949 63.4651L50.6392 63.851C50.7238 63.8823 50.7238 64.0019 50.6392 64.0332L49.5949 64.4191C49.5684 64.4289 49.5474 64.4499 49.5376 64.4765L49.151 65.5198C49.1197 65.6043 49.0002 65.6043 48.9689 65.5198L48.5824 64.4765C48.5726 64.4499 48.5516 64.4289 48.525 64.4191L47.4808 64.0332C47.3962 64.0019 47.3962 63.8823 47.4808 63.851L48.525 63.4651C48.5516 63.4553 48.5726 63.4343 48.5824 63.4077L48.9689 62.3644Z" fill="#FFEF5C"/>
<g opacity="0.8" filter="url(#filter7_f_29914_69342)">
<circle cx="36" cy="27" r="2" fill="white"/>
</g>
<path d="M35.9689 25.4816C36.0002 25.3971 36.1197 25.3971 36.151 25.4816L36.5376 26.5249C36.5474 26.5515 36.5684 26.5724 36.5949 26.5823L37.6392 26.9682C37.7238 26.9995 37.7238 27.1191 37.6392 27.1504L36.5949 27.5363C36.5684 27.5461 36.5474 27.5671 36.5376 27.5936L36.151 28.637C36.1197 28.7215 36.0002 28.7215 35.9689 28.637L35.5824 27.5936C35.5726 27.5671 35.5516 27.5461 35.525 27.5363L34.4808 27.1504C34.3962 27.1191 34.3962 26.9995 34.4808 26.9682L35.525 26.5823C35.5516 26.5724 35.5726 26.5515 35.5824 26.5249L35.9689 25.4816Z" fill="#FFEF5C"/>
<g opacity="0.8" filter="url(#filter8_f_29914_69342)">
<circle cx="105" cy="45" r="2" fill="white"/>
</g>
<path d="M104.969 43.4816C105 43.3971 105.12 43.3971 105.151 43.4816L105.538 44.5249C105.547 44.5515 105.568 44.5724 105.595 44.5823L106.639 44.9682C106.724 44.9995 106.724 45.1191 106.639 45.1504L105.595 45.5363C105.568 45.5461 105.547 45.5671 105.538 45.5936L105.151 46.637C105.12 46.7215 105 46.7215 104.969 46.637L104.582 45.5936C104.573 45.5671 104.552 45.5461 104.525 45.5363L103.481 45.1504C103.396 45.1191 103.396 44.9995 103.481 44.9682L104.525 44.5823C104.552 44.5724 104.573 44.5515 104.582 44.5249L104.969 43.4816Z" fill="#FFEF5C"/>
<g opacity="0.8" filter="url(#filter9_f_29914_69342)">
<circle cx="75" cy="13" r="2" fill="white"/>
</g>
<path d="M74.9689 11.4816C75.0002 11.3971 75.1197 11.3971 75.151 11.4816L75.5376 12.5249C75.5474 12.5515 75.5684 12.5724 75.5949 12.5823L76.6392 12.9682C76.7238 12.9995 76.7238 13.1191 76.6392 13.1504L75.5949 13.5363C75.5684 13.5461 75.5474 13.5671 75.5376 13.5936L75.151 14.637C75.1197 14.7215 75.0002 14.7215 74.9689 14.637L74.5824 13.5936C74.5726 13.5671 74.5516 13.5461 74.525 13.5363L73.4808 13.1504C73.3962 13.1191 73.3962 12.9995 73.4808 12.9682L74.525 12.5823C74.5516 12.5724 74.5726 12.5515 74.5824 12.5249L74.9689 11.4816Z" fill="#FFEF5C"/>
<g opacity="0.8" filter="url(#filter10_f_29914_69342)">
<circle cx="177" cy="42" r="2" fill="white"/>
</g>
<path d="M176.969 40.4816C177 40.3971 177.12 40.3971 177.151 40.4816L177.538 41.5249C177.547 41.5515 177.568 41.5724 177.595 41.5823L178.639 41.9682C178.724 41.9995 178.724 42.1191 178.639 42.1504L177.595 42.5363C177.568 42.5461 177.547 42.5671 177.538 42.5936L177.151 43.637C177.12 43.7215 177 43.7215 176.969 43.637L176.582 42.5936C176.573 42.5671 176.552 42.5461 176.525 42.5363L175.481 42.1504C175.396 42.1191 175.396 41.9995 175.481 41.9682L176.525 41.5823C176.552 41.5724 176.573 41.5515 176.582 41.5249L176.969 40.4816Z" fill="#FFEF5C"/>
<g opacity="0.8" filter="url(#filter11_f_29914_69342)">
<circle cx="248" cy="21" r="2" fill="white"/>
</g>
<path d="M247.969 19.4816C248 19.3971 248.12 19.3971 248.151 19.4816L248.538 20.5249C248.547 20.5515 248.568 20.5724 248.595 20.5823L249.639 20.9682C249.724 20.9995 249.724 21.1191 249.639 21.1504L248.595 21.5363C248.568 21.5461 248.547 21.5671 248.538 21.5936L248.151 22.637C248.12 22.7215 248 22.7215 247.969 22.637L247.582 21.5936C247.573 21.5671 247.552 21.5461 247.525 21.5363L246.481 21.1504C246.396 21.1191 246.396 20.9995 246.481 20.9682L247.525 20.5823C247.552 20.5724 247.573 20.5515 247.582 20.5249L247.969 19.4816Z" fill="#FFEF5C"/>
<g opacity="0.8" filter="url(#filter12_f_29914_69342)">
<circle cx="233" cy="84" r="2" fill="white"/>
</g>
<path d="M232.969 82.4816C233 82.3971 233.12 82.3971 233.151 82.4816L233.538 83.5249C233.547 83.5515 233.568 83.5724 233.595 83.5823L234.639 83.9682C234.724 83.9995 234.724 84.1191 234.639 84.1504L233.595 84.5363C233.568 84.5461 233.547 84.5671 233.538 84.5936L233.151 85.637C233.12 85.7215 233 85.7215 232.969 85.637L232.582 84.5936C232.573 84.5671 232.552 84.5461 232.525 84.5363L231.481 84.1504C231.396 84.1191 231.396 83.9995 231.481 83.9682L232.525 83.5823C232.552 83.5724 232.573 83.5515 232.582 83.5249L232.969 82.4816Z" fill="#FFEF5C"/>
<g opacity="0.8" filter="url(#filter13_f_29914_69342)">
<circle cx="179" cy="82" r="2" fill="white"/>
</g>
<path d="M178.969 80.4816C179 80.3971 179.12 80.3971 179.151 80.4816L179.538 81.5249C179.547 81.5515 179.568 81.5724 179.595 81.5823L180.639 81.9682C180.724 81.9995 180.724 82.1191 180.639 82.1504L179.595 82.5363C179.568 82.5461 179.547 82.5671 179.538 82.5936L179.151 83.637C179.12 83.7215 179 83.7215 178.969 83.637L178.582 82.5936C178.573 82.5671 178.552 82.5461 178.525 82.5363L177.481 82.1504C177.396 82.1191 177.396 81.9995 177.481 81.9682L178.525 81.5823C178.552 81.5724 178.573 81.5515 178.582 81.5249L178.969 80.4816Z" fill="#FFEF5C"/>
<g opacity="0.8" filter="url(#filter14_f_29914_69342)">
<circle cx="273" cy="56" r="2" fill="white"/>
</g>
<path d="M272.969 54.4816C273 54.3971 273.12 54.3971 273.151 54.4816L273.538 55.5249C273.547 55.5515 273.568 55.5724 273.595 55.5823L274.639 55.9682C274.724 55.9995 274.724 56.1191 274.639 56.1504L273.595 56.5363C273.568 56.5461 273.547 56.5671 273.538 56.5936L273.151 57.637C273.12 57.7215 273 57.7215 272.969 57.637L272.582 56.5936C272.573 56.5671 272.552 56.5461 272.525 56.5363L271.481 56.1504C271.396 56.1191 271.396 55.9995 271.481 55.9682L272.525 55.5823C272.552 55.5724 272.573 55.5515 272.582 55.5249L272.969 54.4816Z" fill="#FFEF5C"/>
<g opacity="0.8" filter="url(#filter15_f_29914_69342)">
<circle cx="79" cy="86" r="2" fill="white"/>
</g>
<path d="M78.9689 84.4816C79.0002 84.3971 79.1197 84.3971 79.151 84.4816L79.5376 85.5249C79.5474 85.5515 79.5684 85.5724 79.5949 85.5823L80.6392 85.9682C80.7238 85.9995 80.7238 86.1191 80.6392 86.1504L79.5949 86.5363C79.5684 86.5461 79.5474 86.5671 79.5376 86.5936L79.151 87.637C79.1197 87.7215 79.0002 87.7215 78.9689 87.637L78.5824 86.5936C78.5726 86.5671 78.5516 86.5461 78.525 86.5363L77.4808 86.1504C77.3962 86.1191 77.3962 85.9995 77.4808 85.9682L78.525 85.5823C78.5516 85.5724 78.5726 85.5515 78.5824 85.5249L78.9689 84.4816Z" fill="#FFEF5C"/>
<g opacity="0.8" filter="url(#filter16_f_29914_69342)">
<circle cx="201" cy="12" r="2" fill="white"/>
</g>
<path d="M200.969 10.4816C201 10.3971 201.12 10.3971 201.151 10.4816L201.538 11.5249C201.547 11.5515 201.568 11.5724 201.595 11.5823L202.639 11.9682C202.724 11.9995 202.724 12.1191 202.639 12.1504L201.595 12.5363C201.568 12.5461 201.547 12.5671 201.538 12.5936L201.151 13.637C201.12 13.7215 201 13.7215 200.969 13.637L200.582 12.5936C200.573 12.5671 200.552 12.5461 200.525 12.5363L199.481 12.1504C199.396 12.1191 199.396 11.9995 199.481 11.9682L200.525 11.5823C200.552 11.5724 200.573 11.5515 200.582 11.5249L200.969 10.4816Z" fill="#FFEF5C"/>
</g>
<defs>
<filter id="filter0_f_29914_69342" x="119.897" y="103.976" width="58.9636" height="15.3606" filterUnits="userSpaceOnUse" color-interpolation-filters="sRGB">
<feFlood flood-opacity="0" result="BackgroundImageFix"/>
<feBlend mode="normal" in="SourceGraphic" in2="BackgroundImageFix" result="shape"/>
<feGaussianBlur stdDeviation="0.379584" result="effect1_foregroundBlur_29914_69342"/>
</filter>
<filter id="filter1_f_29914_69342" x="131.107" y="51.1069" width="27.8536" height="13.1993" filterUnits="userSpaceOnUse" color-interpolation-filters="sRGB">
<feFlood flood-opacity="0" result="BackgroundImageFix"/>
<feBlend mode="normal" in="SourceGraphic" in2="BackgroundImageFix" result="shape"/>
<feGaussianBlur stdDeviation="0.288117" result="effect1_foregroundBlur_29914_69342"/>
</filter>
<filter id="filter2_f_29914_69342" x="144.665" y="47.486" width="3.39413" height="2.34531" filterUnits="userSpaceOnUse" color-interpolation-filters="sRGB">
<feFlood flood-opacity="0" result="BackgroundImageFix"/>
<feBlend mode="normal" in="SourceGraphic" in2="BackgroundImageFix" result="shape"/>
<feGaussianBlur stdDeviation="0.0335922" result="effect1_foregroundBlur_29914_69342"/>
</filter>
<filter id="filter3_d_29914_69342" x="207.607" y="13.4885" width="21.3745" height="22.0025" filterUnits="userSpaceOnUse" color-interpolation-filters="sRGB">
<feFlood flood-opacity="0" result="BackgroundImageFix"/>
<feColorMatrix in="SourceAlpha" type="matrix" values="0 0 0 0 0 0 0 0 0 0 0 0 0 0 0 0 0 0 127 0" result="hardAlpha"/>
<feOffset/>
<feGaussianBlur stdDeviation="0.53455"/>
<feComposite in2="hardAlpha" operator="out"/>
<feColorMatrix type="matrix" values="0 0 0 0 0 0 0 0 0 0 0 0 0 0 0 0 0 0 0.25 0"/>
<feBlend mode="normal" in2="BackgroundImageFix" result="effect1_dropShadow_29914_69342"/>
<feBlend mode="normal" in="SourceGraphic" in2="effect1_dropShadow_29914_69342" result="shape"/>
</filter>
<filter id="filter4_f_29914_69342" x="210.823" y="16.1385" width="15.806" height="14.2474" filterUnits="userSpaceOnUse" color-interpolation-filters="sRGB">
<feFlood flood-opacity="0" result="BackgroundImageFix"/>
<feBlend mode="normal" in="SourceGraphic" in2="BackgroundImageFix" result="shape"/>
<feGaussianBlur stdDeviation="0.133637" result="effect1_foregroundBlur_29914_69342"/>
</filter>
<filter id="filter5_f_29914_69342" x="53.8704" y="32.3172" width="9.21813" height="9.07799" filterUnits="userSpaceOnUse" color-interpolation-filters="sRGB">
<feFlood flood-opacity="0" result="BackgroundImageFix"/>
<feBlend mode="normal" in="SourceGraphic" in2="BackgroundImageFix" result="shape"/>
<feGaussianBlur stdDeviation="0.0433009" result="effect1_foregroundBlur_29914_69342"/>
</filter>
<filter id="filter6_f_29914_69342" x="44.1765" y="59.0593" width="9.64706" height="9.64706" filterUnits="userSpaceOnUse" color-interpolation-filters="sRGB">
<feFlood flood-opacity="0" result="BackgroundImageFix"/>
<feBlend mode="normal" in="SourceGraphic" in2="BackgroundImageFix" result="shape"/>
<feGaussianBlur stdDeviation="1.41176" result="effect1_foregroundBlur_29914_69342"/>
</filter>
<filter id="filter7_f_29914_69342" x="31.1765" y="22.1765" width="9.64706" height="9.64706" filterUnits="userSpaceOnUse" color-interpolation-filters="sRGB">
<feFlood flood-opacity="0" result="BackgroundImageFix"/>
<feBlend mode="normal" in="SourceGraphic" in2="BackgroundImageFix" result="shape"/>
<feGaussianBlur stdDeviation="1.41176" result="effect1_foregroundBlur_29914_69342"/>
</filter>
<filter id="filter8_f_29914_69342" x="100.176" y="40.1765" width="9.64706" height="9.64706" filterUnits="userSpaceOnUse" color-interpolation-filters="sRGB">
<feFlood flood-opacity="0" result="BackgroundImageFix"/>
<feBlend mode="normal" in="SourceGraphic" in2="BackgroundImageFix" result="shape"/>
<feGaussianBlur stdDeviation="1.41176" result="effect1_foregroundBlur_29914_69342"/>
</filter>
<filter id="filter9_f_29914_69342" x="70.1765" y="8.17647" width="9.64706" height="9.64706" filterUnits="userSpaceOnUse" color-interpolation-filters="sRGB">
<feFlood flood-opacity="0" result="BackgroundImageFix"/>
<feBlend mode="normal" in="SourceGraphic" in2="BackgroundImageFix" result="shape"/>
<feGaussianBlur stdDeviation="1.41176" result="effect1_foregroundBlur_29914_69342"/>
</filter>
<filter id="filter10_f_29914_69342" x="172.176" y="37.1765" width="9.64706" height="9.64706" filterUnits="userSpaceOnUse" color-interpolation-filters="sRGB">
<feFlood flood-opacity="0" result="BackgroundImageFix"/>
<feBlend mode="normal" in="SourceGraphic" in2="BackgroundImageFix" result="shape"/>
<feGaussianBlur stdDeviation="1.41176" result="effect1_foregroundBlur_29914_69342"/>
</filter>
<filter id="filter11_f_29914_69342" x="243.176" y="16.1765" width="9.64706" height="9.64706" filterUnits="userSpaceOnUse" color-interpolation-filters="sRGB">
<feFlood flood-opacity="0" result="BackgroundImageFix"/>
<feBlend mode="normal" in="SourceGraphic" in2="BackgroundImageFix" result="shape"/>
<feGaussianBlur stdDeviation="1.41176" result="effect1_foregroundBlur_29914_69342"/>
</filter>
<filter id="filter12_f_29914_69342" x="228.176" y="79.1765" width="9.64706" height="9.64706" filterUnits="userSpaceOnUse" color-interpolation-filters="sRGB">
<feFlood flood-opacity="0" result="BackgroundImageFix"/>
<feBlend mode="normal" in="SourceGraphic" in2="BackgroundImageFix" result="shape"/>
<feGaussianBlur stdDeviation="1.41176" result="effect1_foregroundBlur_29914_69342"/>
</filter>
<filter id="filter13_f_29914_69342" x="174.176" y="77.1765" width="9.64706" height="9.64706" filterUnits="userSpaceOnUse" color-interpolation-filters="sRGB">
<feFlood flood-opacity="0" result="BackgroundImageFix"/>
<feBlend mode="normal" in="SourceGraphic" in2="BackgroundImageFix" result="shape"/>
<feGaussianBlur stdDeviation="1.41176" result="effect1_foregroundBlur_29914_69342"/>
</filter>
<filter id="filter14_f_29914_69342" x="268.176" y="51.1765" width="9.64706" height="9.64706" filterUnits="userSpaceOnUse" color-interpolation-filters="sRGB">
<feFlood flood-opacity="0" result="BackgroundImageFix"/>
<feBlend mode="normal" in="SourceGraphic" in2="BackgroundImageFix" result="shape"/>
<feGaussianBlur stdDeviation="1.41176" result="effect1_foregroundBlur_29914_69342"/>
</filter>
<filter id="filter15_f_29914_69342" x="74.1765" y="81.1765" width="9.64706" height="9.64706" filterUnits="userSpaceOnUse" color-interpolation-filters="sRGB">
<feFlood flood-opacity="0" result="BackgroundImageFix"/>
<feBlend mode="normal" in="SourceGraphic" in2="BackgroundImageFix" result="shape"/>
<feGaussianBlur stdDeviation="1.41176" result="effect1_foregroundBlur_29914_69342"/>
</filter>
<filter id="filter16_f_29914_69342" x="196.176" y="7.17647" width="9.64706" height="9.64706" filterUnits="userSpaceOnUse" color-interpolation-filters="sRGB">
<feFlood flood-opacity="0" result="BackgroundImageFix"/>
<feBlend mode="normal" in="SourceGraphic" in2="BackgroundImageFix" result="shape"/>
<feGaussianBlur stdDeviation="1.41176" result="effect1_foregroundBlur_29914_69342"/>
</filter>
<radialGradient id="paint0_radial_29914_69342" cx="0" cy="0" r="1" gradientUnits="userSpaceOnUse" gradientTransform="translate(160 60) rotate(90) scale(88.4483 235.862)">
<stop stop-color="#9F7CFF"/>
<stop offset="1" stop-color="#7E54F1"/>
</radialGradient>
<linearGradient id="paint1_linear_29914_69342" x1="130.814" y1="49.0906" x2="124.358" y2="68.6539" gradientUnits="userSpaceOnUse">
<stop stop-color="#767CF2"/>
<stop offset="1" stop-color="#565CDE"/>
</linearGradient>
<linearGradient id="paint2_linear_29914_69342" x1="157.187" y1="48.7726" x2="162.915" y2="68.5612" gradientUnits="userSpaceOnUse">
<stop stop-color="#767CF2"/>
<stop offset="1" stop-color="#565CDE"/>
</linearGradient>
<linearGradient id="paint3_linear_29914_69342" x1="147.827" y1="43.8169" x2="155.621" y2="111.295" gradientUnits="userSpaceOnUse">
<stop stop-color="#7A80FB"/>
<stop offset="1" stop-color="#3A3FA8"/>
</linearGradient>
<linearGradient id="paint4_linear_29914_69342" x1="134.288" y1="101.858" x2="132.974" y2="113.171" gradientUnits="userSpaceOnUse">
<stop stop-color="#EA7E25"/>
<stop offset="1" stop-color="#FC861F"/>
</linearGradient>
<linearGradient id="paint5_linear_29914_69342" x1="161.932" y1="101.832" x2="164.124" y2="113.009" gradientUnits="userSpaceOnUse">
<stop stop-color="#EA7E25"/>
<stop offset="1" stop-color="#FC861F"/>
</linearGradient>
<linearGradient id="paint6_linear_29914_69342" x1="152.727" y1="63.0368" x2="153.72" y2="72.0522" gradientUnits="userSpaceOnUse">
<stop stop-color="#FB9C18"/>
<stop offset="1" stop-color="#FD7917"/>
</linearGradient>
<linearGradient id="paint7_linear_29914_69342" x1="125.843" y1="70.7137" x2="147.762" y2="66.5139" gradientUnits="userSpaceOnUse">
<stop stop-color="#656BE8"/>
<stop offset="1" stop-color="#8D92F7"/>
</linearGradient>
<linearGradient id="paint8_linear_29914_69342" x1="147.558" y1="43.0556" x2="150.354" y2="55.1663" gradientUnits="userSpaceOnUse">
<stop stop-color="#FB9718"/>
<stop offset="1" stop-color="#FD8017"/>
</linearGradient>
<linearGradient id="paint9_linear_29914_69342" x1="152.347" y1="42.0844" x2="151.587" y2="46.9218" gradientUnits="userSpaceOnUse">
<stop stop-color="#FB9718"/>
<stop offset="1" stop-color="#E67D24"/>
</linearGradient>
<linearGradient id="paint10_linear_29914_69342" x1="150.883" y1="53.2543" x2="164.723" y2="68.8265" gradientUnits="userSpaceOnUse">
<stop stop-color="#8C90F1"/>
<stop offset="1" stop-color="#656BE8"/>
</linearGradient>
<linearGradient id="paint11_linear_29914_69342" x1="217.126" y1="27.5894" x2="213.882" y2="31.6399" gradientUnits="userSpaceOnUse">
<stop stop-color="#E4E4E4"/>
<stop offset="1" stop-color="white"/>
</linearGradient>
<radialGradient id="paint12_radial_29914_69342" cx="0" cy="0" r="1" gradientUnits="userSpaceOnUse" gradientTransform="translate(218.679 25.175) rotate(116.804) scale(9.43927 8.31572)">
<stop stop-color="white"/>
<stop offset="1" stop-color="#F0F0F0"/>
</radialGradient>
<linearGradient id="paint13_linear_29914_69342" x1="94.9207" y1="71.3448" x2="98.8652" y2="81.3038" gradientUnits="userSpaceOnUse">
<stop stop-color="#E1FAFF"/>
<stop offset="1" stop-color="white"/>
</linearGradient>
<linearGradient id="paint14_linear_29914_69342" x1="91.6106" y1="62.8063" x2="95.7268" y2="73.1989" gradientUnits="userSpaceOnUse">
<stop stop-color="#DF362F"/>
<stop offset="1" stop-color="#972621"/>
</linearGradient>
<linearGradient id="paint15_linear_29914_69342" x1="94.873" y1="71.0444" x2="95.7268" y2="73.1989" gradientUnits="userSpaceOnUse">
<stop stop-color="#C92019"/>
<stop offset="1" stop-color="#8E1F1A"/>
</linearGradient>
<linearGradient id="paint16_linear_29914_69342" x1="98.3541" y1="12.8345" x2="98.3541" y2="23.4095" gradientUnits="userSpaceOnUse">
<stop stop-color="#5D5F61"/>
<stop offset="1" stop-color="#1C252E"/>
</linearGradient>
<linearGradient id="paint17_linear_29914_69342" x1="98.2455" y1="21.0919" x2="96.9689" y2="24.4697" gradientUnits="userSpaceOnUse">
<stop stop-color="#404448"/>
<stop offset="1" stop-color="#848B91"/>
</linearGradient>
<linearGradient id="paint18_linear_29914_69342" x1="97.137" y1="24.3948" x2="95.9972" y2="27.4106" gradientUnits="userSpaceOnUse">
<stop stop-color="#676767"/>
<stop offset="1" stop-color="#A5A5A5"/>
</linearGradient>
<radialGradient id="paint19_radial_29914_69342" cx="0" cy="0" r="1" gradientUnits="userSpaceOnUse" gradientTransform="translate(58.8183 40.3062) rotate(62.3842) scale(8.84602 5.32444)">
<stop stop-color="#FFD883"/>
<stop offset="1" stop-color="#FFC035"/>
</radialGradient>
<linearGradient id="paint20_linear_29914_69342" x1="57.5574" y1="43.0003" x2="62.6708" y2="47.6696" gradientUnits="userSpaceOnUse">
<stop stop-color="#F2A600"/>
<stop offset="1" stop-color="#FEC549"/>
</linearGradient>
<clipPath id="clip0_29914_69342">
<rect width="320" height="120" fill="white"/>
</clipPath>
</defs>
</svg>
