<svg width="320" height="410" viewBox="0 0 320 410" fill="none" xmlns="http://www.w3.org/2000/svg">
<g clip-path="url(#clip0_29924_65304)">
<rect width="320" height="410" fill="white"/>
<path d="M146.8 -84.4955C59.5455 -88.6065 -39.8162 -166.439 -79.0828 -88.4487C-114.478 -18.1472 -19.3336 -7.86799 -25.9078 70.5587C-31.2655 134.474 -63.9651 152.254 -63.2622 216.389C-62.72 265.868 -15.3534 280.745 -5.69283 329.275C9.69151 406.559 -105.295 463.413 -55.7914 524.74C-3.88107 589.05 72.1008 505.515 154.71 502.339C243.94 498.908 352.773 594.146 383.23 510.245C404.535 451.556 322.204 424.19 323.903 361.78C325.494 303.329 377.476 282.484 383.23 224.295C389.294 162.969 346.507 132.173 347.634 70.5587C348.678 13.4463 403.164 -17.7835 383.23 -71.3181C350.975 -157.944 241.401 -80.0384 146.8 -84.4955Z" fill="url(#paint0_radial_29924_65304)"/>
<path d="M89.2115 185.888C85.3689 187.56 80.4576 191.8 72.7183 201.666C65.585 210.759 42.021 241.486 61.8897 258.604L85.2656 253.627C85.4926 253.579 85.6727 253.406 85.7304 253.181L86.9864 248.294C95.7999 223.4 96.5053 210.792 89.2115 185.888Z" fill="url(#paint1_linear_29924_65304)"/>
<path fill-rule="evenodd" clip-rule="evenodd" d="M112.969 176.989H143.213C143.245 176.989 143.276 176.991 143.308 176.996C144.294 177.155 159.37 180.389 170.225 187.233C172.399 201.247 173.794 208.807 170.225 221.254V260.176C170.225 260.222 170.23 260.268 170.24 260.313L189.981 345.714C190.059 346.052 189.842 346.386 189.502 346.452L159.146 352.347C158.854 352.403 158.563 352.241 158.457 351.962L138.483 299.004C138.47 298.97 138.46 298.933 138.453 298.896C137.817 295.59 134.491 295.609 134.491 298.952L129.197 352.456C129.164 352.789 128.87 353.034 128.537 353.005L97.2708 350.351C96.965 350.325 96.7258 350.076 96.7118 349.769L92.811 264.582C92.8082 264.521 92.7963 264.461 92.7756 264.404L86.9864 248.294C95.7999 223.4 96.5053 210.792 89.2115 185.888C99.8797 181.247 112.709 176.999 112.954 176.989C112.959 176.989 112.961 176.989 112.964 176.989L112.969 176.989Z" fill="url(#paint2_linear_29924_65304)"/>
<path d="M189.393 201.666C184.535 194.085 171.945 188.318 170.225 187.233C172.399 201.247 173.794 208.807 170.225 221.254L190.606 263.967C190.686 264.135 190.675 264.332 190.578 264.49C209.82 264.49 214.263 256.877 210.47 249.372C210.47 249.372 200.318 218.715 189.393 201.666Z" fill="url(#paint3_linear_29924_65304)"/>
<path d="M145.188 290.699C138.483 296.095 134.073 296.373 125.014 291.538C125.014 291.538 131.624 296.763 136.417 296.152C140.466 295.635 145.188 290.699 145.188 290.699Z" fill="#64EDFF"/>
<path d="M142.438 277.861C154.053 269.302 159.555 266.245 170.557 262.577L170.248 265.059L170.865 266.921C153.498 273.55 156.193 270.525 142.438 277.861Z" fill="#64EDFF"/>
<g opacity="0.25" filter="url(#filter0_f_29924_65304)">
<ellipse cx="152.572" cy="383.157" rx="95.1855" ry="16.2298" fill="#333333"/>
</g>
<path d="M121.652 277.861C110.037 269.302 104.535 266.245 93.5332 262.577L93.8417 265.059L93.2248 266.921C110.592 273.55 107.897 270.525 121.652 277.861Z" fill="#64EDFF"/>
<path d="M132.517 381.191C123.487 385.826 76.8532 392.988 71.4394 381.672C70.9192 380.577 70.7754 379.46 70.9757 378.318C71.8605 373.003 75.915 366.25 85.0899 361.628C94.2665 356.987 96.9344 349.027 96.9344 349.027L128.733 350.879C133.409 358.593 136.628 366.777 135.494 375.6C135.589 377.982 134.771 380.027 132.515 381.209L132.517 381.191Z" fill="url(#paint4_linear_29924_65304)"/>
<path d="M132.503 381.179C123.474 385.814 76.2498 395.002 70.836 383.685C70.3157 382.59 69.3968 379.626 71.9501 375.902C82.4811 378.834 101.125 383.366 135.487 372.584C136.173 377.767 134.757 380.015 132.502 381.197L132.503 381.179Z" fill="#3167D5"/>
<path d="M159.033 382.623C168.6 386.012 215.773 386.885 219.628 374.947C219.997 373.792 219.991 372.666 219.64 371.561C218.053 366.412 213.134 360.261 203.424 356.904C193.71 353.53 190.003 345.997 190.003 345.997L158.737 352.077C155.132 360.347 153.034 368.888 155.336 377.48C155.559 379.854 156.644 381.771 159.037 382.641L159.033 382.623Z" fill="url(#paint5_linear_29924_65304)"/>
<path d="M159.044 382.609C168.611 385.998 216.639 388.8 220.494 376.861C220.863 375.707 221.378 372.646 218.35 369.296C208.305 373.608 190.433 380.588 154.939 374.49C154.951 379.718 156.655 381.756 159.048 382.627L159.044 382.609Z" fill="#3167D5"/>
<path d="M160.099 240.886C160.049 240.837 160.845 240.936 161.989 240.389C162.586 240.091 163.233 239.544 163.73 238.698C163.928 238.3 164.127 237.803 164.226 237.256C164.275 236.758 164.225 236.111 164.225 235.514C164.22 230.44 164.165 223.177 164.157 214.222C164.155 211.967 164.137 209.612 164.102 207.158C164.101 205.964 163.552 204.819 162.606 204.023C162.108 203.675 161.561 203.376 160.964 203.277C160.366 203.127 159.719 203.177 159.023 203.177C153.748 203.176 148.126 203.174 142.155 203.173C130.262 203.171 117.176 203.168 103.492 203.165C101.85 203.165 100.308 204.259 99.7621 205.752C99.4144 206.498 99.4648 207.294 99.4655 208.139C99.4662 208.969 99.4669 209.814 99.4676 210.677C99.4703 213.993 99.4731 217.277 99.4757 220.527C99.4784 223.777 99.481 226.944 99.4836 230.029C99.4849 231.588 99.4862 233.13 99.4874 234.655C99.488 235.402 99.4389 236.198 99.4893 236.944C99.5396 237.64 99.789 238.337 100.188 238.884C100.985 240.078 102.378 240.725 103.772 240.626C105.231 240.626 106.658 240.627 108.051 240.627C110.871 240.661 113.607 240.678 116.261 240.678C121.536 240.68 126.462 240.681 130.99 240.681C139.946 240.733 147.211 240.784 152.287 240.785C154.775 240.786 156.715 240.836 158.059 240.836C158.722 240.836 159.22 240.836 159.552 240.837C159.784 240.87 159.966 240.886 160.099 240.886C159.966 240.886 159.784 240.903 159.552 240.936C159.22 240.936 158.722 240.936 158.059 240.936C156.715 240.935 154.775 240.985 152.287 240.984C147.211 240.983 139.947 241.032 130.99 241.079C126.462 241.079 121.536 241.078 116.261 241.076C113.608 241.076 110.871 241.092 108.051 241.124C106.658 241.124 105.232 241.124 103.772 241.124C102.279 241.223 100.686 240.476 99.7897 239.183C99.3414 238.536 99.0421 237.74 98.9917 236.944C98.9911 236.148 98.9905 235.451 98.9898 234.655C98.9886 233.13 98.9873 231.588 98.986 230.029C98.9835 226.944 98.9808 223.777 98.9782 220.527C98.9755 217.276 98.9728 213.993 98.97 210.677C98.9693 209.814 98.9686 208.968 98.9679 208.139C98.9673 207.343 98.9167 206.398 99.2643 205.552C99.9098 203.861 101.65 202.618 103.491 202.668C117.175 202.671 130.262 202.673 142.154 202.676C148.125 202.727 153.748 202.728 159.022 202.729C159.669 202.729 160.366 202.679 161.063 202.829C161.71 202.978 162.357 203.327 162.855 203.725C163.9 204.571 164.499 205.864 164.5 207.158C164.502 209.612 164.504 211.967 164.505 214.222C164.463 223.177 164.469 230.44 164.424 235.514C164.424 236.111 164.474 236.708 164.375 237.305C164.276 237.853 164.078 238.35 163.829 238.798C163.332 239.643 162.636 240.19 162.039 240.439C161.442 240.737 160.945 240.837 160.597 240.886C160.364 240.886 160.198 240.886 160.099 240.886Z" fill="#64EDFF"/>
<path d="M109.342 231.587C110.359 231.588 111.182 230.764 111.181 229.747C111.18 228.731 110.356 227.907 109.339 227.907C108.322 227.906 107.499 228.73 107.5 229.747C107.5 230.763 108.325 231.587 109.342 231.587Z" fill="#64EDFF"/>
<path fill-rule="evenodd" clip-rule="evenodd" d="M109.341 230.857C109.954 230.857 110.451 230.36 110.45 229.747C110.45 229.134 109.952 228.638 109.339 228.637C108.727 228.637 108.23 229.134 108.231 229.747C108.231 230.36 108.728 230.856 109.341 230.857ZM111.181 229.747C111.182 230.764 110.359 231.588 109.342 231.587C108.325 231.587 107.5 230.763 107.5 229.747C107.499 228.73 108.322 227.906 109.339 227.907C110.356 227.907 111.18 228.731 111.181 229.747Z" fill="#64EDFF"/>
<path d="M115.604 231.58C116.62 231.58 117.444 230.756 117.443 229.74C117.442 228.723 116.617 227.899 115.601 227.899C114.584 227.899 113.76 228.722 113.761 229.739C113.762 230.755 114.587 231.58 115.604 231.58Z" fill="#64EDFF"/>
<path fill-rule="evenodd" clip-rule="evenodd" d="M115.603 230.849C116.216 230.849 116.712 230.352 116.712 229.74C116.711 229.127 116.214 228.63 115.601 228.63C114.988 228.63 114.492 229.126 114.492 229.739C114.493 230.352 114.99 230.849 115.603 230.849ZM117.443 229.74C117.444 230.756 116.62 231.58 115.604 231.58C114.587 231.58 113.762 230.755 113.761 229.739C113.76 228.722 114.584 227.899 115.601 227.899C116.617 227.899 117.442 228.723 117.443 229.74Z" fill="#64EDFF"/>
<path d="M121.674 231.584C122.691 231.584 123.514 230.76 123.513 229.744C123.512 228.727 122.687 227.903 121.671 227.903C120.654 227.903 119.831 228.727 119.832 229.743C119.832 230.76 120.657 231.584 121.674 231.584Z" fill="#64EDFF"/>
<path fill-rule="evenodd" clip-rule="evenodd" d="M121.673 230.853C122.286 230.853 122.783 230.357 122.782 229.744C122.782 229.131 122.284 228.634 121.671 228.634C121.059 228.634 120.562 229.131 120.563 229.743C120.563 230.356 121.06 230.853 121.673 230.853ZM123.513 229.744C123.514 230.76 122.691 231.584 121.674 231.584C120.657 231.584 119.832 230.76 119.832 229.743C119.831 228.727 120.654 227.903 121.671 227.903C122.687 227.903 123.512 228.727 123.513 229.744Z" fill="#64EDFF"/>
<path d="M127.695 231.577C128.712 231.578 129.536 230.754 129.535 229.737C129.534 228.721 128.709 227.897 127.692 227.896C126.676 227.896 125.852 228.72 125.853 229.737C125.854 230.753 126.679 231.577 127.695 231.577Z" fill="#64EDFF"/>
<path fill-rule="evenodd" clip-rule="evenodd" d="M127.695 230.847C128.308 230.847 128.804 230.35 128.804 229.737C128.803 229.124 128.306 228.628 127.693 228.627C127.08 228.627 126.584 229.124 126.584 229.737C126.585 230.35 127.082 230.846 127.695 230.847ZM129.535 229.737C129.536 230.754 128.712 231.578 127.695 231.577C126.679 231.577 125.854 230.753 125.853 229.737C125.852 228.72 126.676 227.896 127.692 227.896C128.709 227.897 129.534 228.721 129.535 229.737Z" fill="#64EDFF"/>
<path d="M126.855 218.114L110.183 218.112C108.989 218.112 107.993 217.166 107.992 215.922C107.991 214.727 108.986 213.732 110.18 213.732L126.852 213.735C128.046 213.735 129.042 214.73 129.043 215.925C129.044 217.169 128.049 218.114 126.855 218.114Z" fill="#64EDFF"/>
<path fill-rule="evenodd" clip-rule="evenodd" d="M110.183 217.381L126.854 217.383C127.656 217.383 128.312 216.754 128.312 215.925C128.311 215.134 127.643 214.466 126.852 214.466L110.181 214.464C109.39 214.464 108.723 215.131 108.723 215.922C108.724 216.751 109.381 217.381 110.183 217.381ZM110.183 218.112L126.855 218.114C128.049 218.114 129.044 217.169 129.043 215.925C129.042 214.73 128.046 213.735 126.852 213.735L110.18 213.732C108.986 213.732 107.991 214.727 107.992 215.922C107.993 217.166 108.989 218.112 110.183 218.112Z" fill="#64EDFF"/>
<path d="M109.666 224.634C110.683 224.634 111.506 223.811 111.505 222.794C111.504 221.778 110.68 220.953 109.663 220.953C108.646 220.953 107.823 221.777 107.824 222.793C107.825 223.81 108.649 224.634 109.666 224.634Z" fill="#64EDFF"/>
<path fill-rule="evenodd" clip-rule="evenodd" d="M109.665 223.903C110.278 223.903 110.775 223.407 110.774 222.794C110.774 222.181 110.277 221.684 109.664 221.684C109.051 221.684 108.554 222.181 108.555 222.793C108.555 223.406 109.053 223.903 109.665 223.903ZM111.505 222.794C111.506 223.811 110.683 224.634 109.666 224.634C108.649 224.634 107.825 223.81 107.824 222.793C107.823 221.777 108.646 220.953 109.663 220.953C110.68 220.953 111.504 221.778 111.505 222.794Z" fill="#64EDFF"/>
<path d="M115.897 224.629C116.913 224.63 117.737 223.806 117.736 222.789C117.735 221.773 116.91 220.949 115.893 220.948C114.877 220.948 114.053 221.772 114.054 222.789C114.055 223.805 114.88 224.629 115.897 224.629Z" fill="#64EDFF"/>
<path fill-rule="evenodd" clip-rule="evenodd" d="M115.896 223.899C116.509 223.899 117.005 223.402 117.005 222.789C117.004 222.176 116.507 221.679 115.894 221.679C115.281 221.679 114.785 222.176 114.785 222.789C114.786 223.402 115.283 223.898 115.896 223.899ZM117.736 222.789C117.737 223.806 116.913 224.63 115.897 224.629C114.88 224.629 114.055 223.805 114.054 222.789C114.053 221.772 114.877 220.948 115.893 220.948C116.91 220.949 117.735 221.773 117.736 222.789Z" fill="#64EDFF"/>
<path d="M121.961 224.632C122.978 224.633 123.801 223.809 123.8 222.792C123.799 221.776 122.975 220.952 121.958 220.951C120.941 220.951 120.118 221.775 120.119 222.791C120.12 223.808 120.944 224.632 121.961 224.632Z" fill="#64EDFF"/>
<path fill-rule="evenodd" clip-rule="evenodd" d="M121.96 223.901C122.573 223.902 123.07 223.405 123.069 222.792C123.069 222.179 122.571 221.682 121.959 221.682C121.346 221.682 120.849 222.179 120.85 222.792C120.85 223.404 121.348 223.901 121.96 223.901ZM123.8 222.792C123.801 223.809 122.978 224.633 121.961 224.632C120.944 224.632 120.12 223.808 120.119 222.791C120.118 221.775 120.941 220.951 121.958 220.951C122.975 220.952 123.799 221.776 123.8 222.792Z" fill="#64EDFF"/>
<path d="M128.045 224.625C129.062 224.625 129.885 223.801 129.884 222.784C129.883 221.768 129.059 220.944 128.042 220.944C127.025 220.943 126.202 221.767 126.203 222.784C126.204 223.8 127.028 224.624 128.045 224.625Z" fill="#64EDFF"/>
<path fill-rule="evenodd" clip-rule="evenodd" d="M128.044 223.894C128.657 223.894 129.154 223.397 129.153 222.784C129.153 222.171 128.655 221.675 128.043 221.674C127.43 221.674 126.933 222.171 126.934 222.784C126.934 223.397 127.432 223.894 128.044 223.894ZM129.884 222.784C129.885 223.801 129.062 224.625 128.045 224.625C127.028 224.624 126.204 223.8 126.203 222.784C126.202 221.767 127.025 220.943 128.042 220.944C129.059 220.944 129.883 221.768 129.884 222.784Z" fill="#64EDFF"/>
<path d="M153.465 212.274L143.316 212.271C142.409 212.271 141.674 213.006 141.675 213.912L141.685 224.06C141.685 224.966 142.421 225.701 143.328 225.702L153.477 225.705C154.384 225.705 155.119 224.97 155.118 224.064L155.109 213.916C155.108 213.01 154.372 212.275 153.465 212.274Z" fill="#64EDFF"/>
<path fill-rule="evenodd" clip-rule="evenodd" d="M153.466 213.005L143.316 213.002C142.813 213.002 142.406 213.41 142.406 213.913L142.416 224.06C142.416 224.563 142.824 224.971 143.327 224.971L153.477 224.974C153.98 224.974 154.387 224.566 154.387 224.063L154.378 213.916C154.377 213.413 153.969 213.005 153.466 213.005ZM143.316 212.271L153.465 212.274C154.372 212.275 155.108 213.01 155.109 213.916L155.118 224.064C155.119 224.97 154.384 225.705 153.477 225.705L143.328 225.702C142.421 225.701 141.685 224.966 141.685 224.06L141.675 213.912C141.674 213.006 142.409 212.271 143.316 212.271Z" fill="#64EDFF"/>
<path d="M154.368 232.086L142.474 232.084C141.429 232.084 140.582 231.238 140.582 230.242C140.581 229.197 141.426 228.352 142.471 228.352L154.365 228.354C155.41 228.354 156.257 229.2 156.258 230.245C156.259 231.24 155.413 232.086 154.368 232.086Z" fill="#64EDFF"/>
<path fill-rule="evenodd" clip-rule="evenodd" d="M142.474 231.353L154.368 231.355C155.022 231.355 155.527 230.824 155.527 230.245C155.526 229.604 155.007 229.085 154.366 229.085L142.472 229.083C141.831 229.083 141.312 229.601 141.313 230.242C141.313 230.821 141.82 231.353 142.474 231.353ZM142.474 232.084L154.368 232.086C155.413 232.086 156.259 231.24 156.258 230.245C156.257 229.2 155.41 228.354 154.365 228.354L142.471 228.352C141.426 228.352 140.581 229.197 140.582 230.242C140.582 231.238 141.429 232.084 142.474 232.084Z" fill="#64EDFF"/>
<path d="M94.1416 210.919C94.1416 210.919 70.1576 222.334 59.295 230.176C44.4751 240.875 58.3078 266.245 75.1198 262.577C81.2333 264.106 112.64 225.285 112.64 225.285C112.64 225.285 102.553 215.198 94.1416 210.919Z" fill="url(#paint6_linear_29924_65304)"/>
<path d="M188.535 141.151C189.39 145.908 187.8 150.742 184.38 154.055C185.452 146.083 184.007 138.22 180.066 130.48C184.464 132.378 187.668 136.366 188.535 141.151Z" fill="white" stroke="#64EDFF" stroke-width="1.22269"/>
<path d="M120.039 96.3756C146.887 90.4562 172.584 105.258 179.648 131.004L180.353 132.073C182.066 134.967 181.613 133.625 183.367 141.578C185.12 149.531 182.419 166.002 172.456 175.361L171.34 176.621C138.409 206.757 90.6192 197.846 81.5134 156.545C75.5124 129.326 93.1899 102.295 120.039 96.3756Z" fill="white" stroke="#64EDFF" stroke-width="2.44538"/>
<path d="M129.106 114.886C154.372 109.315 178.349 121.626 182.861 142.092C187.372 162.55 170.795 183.802 145.528 189.373C120.255 194.945 96.2852 182.633 91.7746 162.174C87.2625 141.708 103.833 120.458 129.106 114.886Z" fill="#00A4FF" stroke="#64EDFF" stroke-width="1.22269"/>
<path d="M144.67 185.499C167.021 180.571 181.972 162.203 178.063 144.473C174.154 126.743 152.865 116.365 130.514 121.293C108.162 126.221 93.2118 144.589 97.1208 162.319C101.03 180.049 122.318 190.427 144.67 185.499Z" fill="#6C6C6C"/>
<path d="M177.743 141.523C177.881 142.765 177.949 144.029 177.945 145.308C177.936 149.399 177.191 153.331 175.841 156.989C176.524 157.804 177.113 158.654 177.603 159.519C173.376 171.633 161.18 182.029 145.203 185.551C142.355 186.179 139.526 186.551 136.75 186.701C116.872 185.676 101.315 176.569 101.35 165.529C101.355 162.406 102.613 159.441 104.863 156.782C103.53 153.111 102.813 149.181 102.828 145.082C102.833 142.762 103.075 140.498 103.53 138.302C109.518 130.289 119.254 123.946 131.047 121.346C152.11 116.702 172.223 125.647 177.743 141.523Z" fill="#B0401E"/>
<path d="M128.107 125.937L128.107 125.937C132.763 125.951 136.97 127.866 140.002 130.944C140.086 131.028 140.2 131.076 140.319 131.074C140.438 131.073 140.551 131.024 140.633 130.938C143.695 127.717 148.024 125.709 152.82 125.726L152.82 125.726C159.103 125.745 164.761 129.939 167.556 135.571C170.342 141.188 170.252 148.173 165.116 153.777C164.984 153.921 164.963 154.135 165.065 154.302C165.167 154.469 165.367 154.548 165.555 154.496C169.141 153.517 172.972 154.59 175.532 157.292C176.172 158.058 176.727 158.854 177.192 159.663C177.354 161.781 176.491 164.193 174.793 166.709C173.075 169.255 170.532 171.861 167.452 174.306C161.291 179.196 153.043 183.389 145.127 185.134C142.311 185.755 139.513 186.123 136.768 186.273C126.894 185.76 118.116 183.243 111.825 179.504C105.517 175.756 101.79 170.837 101.807 165.541L101.807 165.54C101.812 162.555 103.007 159.701 105.186 157.113C108.014 154.964 111.422 154.204 115.453 154.866C115.638 154.897 115.822 154.806 115.91 154.64C115.999 154.474 115.972 154.271 115.844 154.133C113.025 151.122 111.306 147.08 111.319 142.63L111.319 142.629C111.342 133.384 118.861 125.907 128.107 125.937Z" fill="#FFCAA1" stroke="#6C6C6C" stroke-width="0.877286" stroke-linejoin="round"/>
<path d="M132.924 174.244C134.874 176.532 136.358 177.068 139.802 176.586" stroke="#6C6C6C" stroke-width="1.83403" stroke-linecap="round"/>
<path d="M140.877 160.907C140.507 160.989 140.105 160.86 139.859 160.547C139.073 159.543 137.742 159.184 136.559 159.648C136.039 159.851 135.452 159.593 135.242 159.075C135.039 158.555 135.296 157.961 135.816 157.758C137.845 156.964 140.109 157.58 141.452 159.291C141.801 159.731 141.724 160.367 141.284 160.715C141.162 160.81 141.02 160.876 140.877 160.907Z" fill="#6C6C6C"/>
<path d="M140.881 160.911C140.589 160.975 140.276 160.915 140.027 160.711C139.591 160.365 139.518 159.728 139.863 159.285C141.2 157.609 143.521 156.996 145.505 157.789C146.028 158.001 146.28 158.591 146.076 159.112C145.863 159.629 145.274 159.888 144.751 159.677C143.588 159.212 142.232 159.572 141.455 160.553C141.306 160.742 141.101 160.862 140.881 160.911Z" fill="#6C6C6C"/>
<path d="M140.629 167.489C140.555 167.505 140.482 167.512 140.409 167.51C139.845 167.512 139.39 167.055 139.39 166.497C139.395 163.374 139.416 162.111 139.492 159.713C139.511 159.151 139.978 158.708 140.54 158.727C141.102 158.746 141.54 159.221 141.52 159.776C141.444 162.146 141.428 163.401 141.423 166.497C141.421 166.981 141.083 167.389 140.629 167.489Z" fill="#6C6C6C"/>
<path d="M81.0932 140.374L81.0933 140.374C86.0225 139.996 90.5368 144.377 90.9989 150.386C91.4611 156.396 87.6752 161.416 82.7466 161.795L82.7458 161.795C77.8192 162.18 73.3032 157.793 72.841 151.783C72.3788 145.773 76.171 140.752 81.0932 140.374Z" fill="white" stroke="#64EDFF" stroke-width="1.22269"/>
<path d="M79.1241 140.921L79.1241 140.921L79.1302 140.92C81.0124 140.776 82.854 141.708 84.3095 143.449C85.7642 145.189 86.7939 147.701 87.0184 150.575C87.2389 153.446 86.6058 156.084 85.434 158.027C84.2615 159.97 82.583 161.174 80.7009 161.318L80.6962 161.319C80.0884 161.37 79.4931 161.303 78.9105 161.131C75.6733 159.699 73.1741 156.157 72.8335 151.789C72.4571 146.844 74.9704 142.541 78.62 140.985C78.7768 140.953 78.946 140.932 79.1241 140.921Z" fill="white" stroke="#64EDFF" stroke-width="1.22269"/>
<path d="M112.062 107.514L112.062 107.514C109.57 102.884 105.34 101.246 101.963 100.876C98.5238 100.306 95.8581 101.474 94.6053 103.345C93.9793 104.28 93.7191 105.381 93.9185 106.473C94.1183 107.567 94.7696 108.6 95.8715 109.42L96.0259 109.535L96.2182 109.541C99.7497 109.646 103.409 110.07 106.793 111.774C108.009 112.387 109.094 112.788 110.007 112.956C110.899 113.119 111.742 113.079 112.358 112.652C113.021 112.192 113.236 111.423 113.154 110.569C113.073 109.727 112.701 108.702 112.062 107.514Z" fill="white" stroke="#64EDFF" stroke-width="1.22269"/>
<path opacity="0.25" d="M96.2381 108.926C99.7986 109.032 103.566 109.46 107.07 111.224C109.051 112.224 110.588 112.599 111.526 112.36C107.028 108.943 104.071 107.637 98.4152 106.749C96.2381 105.964 96.5178 103.625 97.2386 101.943C94.1618 103.335 93.3862 106.805 96.2381 108.926Z" fill="#333333"/>
<path d="M164.218 110.088L164.212 110.073C165.265 109.494 166.023 108.248 165.593 107.033C163.278 100.399 160.578 97.1791 157.77 96.2026C154.943 95.2192 152.148 96.5545 149.773 98.6464L149.415 98.9612L149.417 98.9619L149.415 98.9634L149.85 99.1573C154.266 101.125 158.435 104.886 160.507 109.191C160.812 109.824 161.383 110.206 162.01 110.364C162.635 110.522 163.333 110.466 163.938 110.208L164.218 110.088Z" fill="white" stroke="#64EDFF" stroke-width="0.611345"/>
<path opacity="0.25" d="M165.379 107.424C165.362 107.327 165.337 107.23 165.303 107.134C161.05 94.9487 155.615 94.6938 151.111 97.9613C151.284 98.2152 151.472 98.4799 151.674 98.7552C158.593 101.35 161.604 103.678 165.379 107.424Z" fill="#333333"/>
<path d="M159.082 148.187C158.566 152.11 156.106 154.87 153.584 154.351C151.068 153.831 149.438 150.232 149.954 146.309C150.47 142.386 152.929 139.626 155.452 140.145C157.974 140.663 159.598 144.264 159.082 148.187Z" fill="#6C6C6C"/>
<path d="M157.274 143.696C157.601 145.025 157.197 146.338 156.377 146.628C155.555 146.911 154.626 146.062 154.298 144.726C153.977 143.395 154.38 142.075 155.202 141.792C156.024 141.509 156.952 142.359 157.274 143.696Z" fill="white"/>
<path d="M153.378 150.728C153.676 151.37 153.601 152.108 153.211 152.378C152.814 152.642 152.25 152.338 151.952 151.696C151.654 151.054 151.729 150.316 152.125 150.045C152.516 149.782 153.08 150.086 153.378 150.728Z" fill="white"/>
<path d="M126.572 140.853C129.026 140.414 131.33 143.15 131.72 146.955C132.118 150.765 130.447 154.201 127.998 154.632C125.551 155.07 123.24 152.335 122.85 148.53C122.459 144.719 124.123 141.284 126.572 140.853Z" fill="#6C6C6C"/>
<path d="M126.775 142.445C127.561 142.741 127.919 144.023 127.569 145.304C127.219 146.585 126.3 147.386 125.512 147.083C124.726 146.788 124.369 145.506 124.719 144.225C125.069 142.944 125.989 142.149 126.775 142.445Z" fill="white"/>
<path d="M129.512 150.495C129.891 150.765 129.947 151.481 129.64 152.093C129.332 152.705 128.783 152.99 128.403 152.719C128.03 152.448 127.975 151.732 128.282 151.12C128.589 150.508 129.14 150.23 129.512 150.495Z" fill="white"/>
<g opacity="0.2">
<g opacity="0.2">
<g opacity="0.2">
<path opacity="0.2" d="M177.487 159.319C177.529 159.385 177.57 159.45 177.605 159.518C177.347 160.259 177.06 160.994 176.744 161.722C177.019 160.933 177.271 160.129 177.487 159.319Z" fill="#6C6C6C"/>
</g>
</g>
<g opacity="0.2">
<g opacity="0.2">
<path opacity="0.2" d="M102.106 169.723C101.61 168.37 101.348 166.966 101.353 165.536C101.36 162.698 102.397 160 104.268 157.533C104.599 159.093 105.03 160.617 105.567 162.097C103.587 164.438 102.379 167.01 102.106 169.723Z" fill="#6C6C6C"/>
</g>
</g>
</g>
<path d="M141.963 89.6525C142.637 87.5461 137.493 83.9888 130.25 81.435L127.587 80.5719C123.422 79.338 119.587 78.7448 116.871 78.8208C115.079 79.6449 115.152 80.3234 116.41 81.4747C116.845 81.4424 117.364 81.4321 117.972 81.4542C120.142 81.5332 123.006 82.0074 126.168 82.8976C129.676 84.0815 135.185 86.2856 137.18 87.6015C137.688 87.9364 138.105 88.2467 138.44 88.5251C139.371 87.2152 141.908 88.6708 141.963 89.6525Z" fill="#64EDFF"/>
<path fill-rule="evenodd" clip-rule="evenodd" d="M130.718 76.8452C130.751 76.9948 130.792 77.1407 130.84 77.2826C129.526 78.2728 128.454 79.3873 127.585 80.5717L126.167 82.8974C125.731 83.7682 125.381 84.6561 125.105 85.543C125.066 85.6668 125.029 85.7906 124.993 85.9143L124.429 88.5045C123.981 91.4685 124.209 94.1746 124.523 95.9016L127.108 95.4315C126.846 93.9906 126.657 91.7709 126.966 89.3393L127.487 86.7507C127.527 86.6088 127.569 86.4668 127.614 86.3249C127.891 85.4363 128.251 84.5489 128.717 83.6867L130.248 81.4348C130.867 80.701 131.59 80.0071 132.436 79.3718C133.338 79.9812 134.48 80.2335 135.627 79.9805C137.849 79.4908 139.252 77.293 138.763 75.0717C138.273 72.8503 136.075 71.4466 133.854 71.9363C131.632 72.4261 130.229 74.6239 130.718 76.8452Z" fill="#64EDFF"/>
<path fill-rule="evenodd" clip-rule="evenodd" d="M116.869 78.8208C114.662 78.8826 113.193 79.3863 112.885 80.3473C112.217 82.4372 117.276 85.9553 124.429 88.5046L127.108 89.3823C134.723 91.6624 141.271 91.8107 141.961 89.6525C141.906 88.6708 139.369 87.2152 138.438 88.5251C138.004 88.5574 137.484 88.5677 136.876 88.5456C134.437 88.4568 128.625 87.0319 124.993 85.9145C121.983 84.819 119.444 83.5695 117.668 82.3983C117.16 82.0634 116.743 81.7531 116.408 81.4747C115.151 80.3234 115.077 79.6449 116.869 78.8208Z" fill="#64EDFF"/>
<path d="M139.62 190.948C146.447 180.897 138.868 176.656 132.297 187.566L127.512 193.486C127.43 191.635 122.911 189.395 121.258 190.136C120.747 188.416 117.269 186.553 115.553 187.079C115.535 185.443 111.765 183.784 110.543 184.395C106.866 186.579 101.103 192.884 101.103 192.884L95.6007 204.849L112.057 217.911C112.057 217.911 120.126 217.116 124.197 214.31C129.041 210.969 132.571 201.783 132.571 201.783L139.62 190.948Z" fill="url(#paint7_linear_29924_65304)"/>
<g opacity="0.2" filter="url(#filter1_f_29924_65304)">
<path d="M107.205 193.968C106.549 196.864 110.178 198.447 111.625 197.419C112.372 200.705 115.659 201.925 116.656 201.066C117.133 203.62 119.186 205.05 121.468 204.468" stroke="black" stroke-width="0.611345" stroke-linecap="round" stroke-linejoin="round"/>
</g>
<path d="M121.256 190.137C122.909 189.395 127.428 191.636 127.509 193.487C125.8 198.104 122.341 204.245 121.467 204.468C119.185 205.05 117.132 203.62 116.655 201.065C119.053 196.937 120.06 194.59 121.256 190.137Z" fill="url(#paint8_linear_29924_65304)"/>
<path d="M115.55 187.08C117.267 186.553 120.745 188.417 121.256 190.137C120.06 194.59 119.053 196.937 116.655 201.065C115.658 201.924 112.371 200.705 111.624 197.418C113.535 193.388 114.386 191.102 115.55 187.08Z" fill="url(#paint9_linear_29924_65304)"/>
<path d="M110.54 184.396C111.763 183.785 115.533 185.444 115.55 187.08C114.386 191.102 113.535 193.388 111.624 197.418C110.177 198.447 106.548 196.863 107.204 193.968C108.381 190.202 109.24 184.655 110.54 184.396Z" fill="url(#paint10_linear_29924_65304)"/>
<g opacity="0.3" filter="url(#filter2_f_29924_65304)">
<path d="M127.513 193.486C125.804 198.103 122.345 204.245 121.47 204.467M121.259 190.136C120.063 194.589 119.056 196.937 116.658 201.065M115.553 187.08C114.389 191.102 113.539 193.387 111.627 197.418" stroke="#333333" stroke-width="0.611345" stroke-linecap="round" stroke-linejoin="round"/>
</g>
<path d="M126.979 199.683L123.907 196.118C119.946 191.494 118.091 195.932 120.075 199.924C121.405 201.671 122.24 202.529 123.833 203.952C121.856 207.964 120.304 209.638 124.086 214.711L130.496 206.239C129.764 202.985 128.583 201.73 126.979 199.683Z" fill="url(#paint11_linear_29924_65304)"/>
<path d="M75.498 210.332C75.498 207.111 78.1092 204.5 81.3302 204.5H186.601C189.822 204.5 192.434 207.111 192.434 210.332L188.351 260.489C188.351 263.71 185.74 266.321 182.519 266.321H87.1624C83.9414 266.321 81.3302 263.71 81.3302 260.489L75.498 210.332Z" fill="#242424"/>
<path d="M181.785 214.155C181.939 212.552 183.364 211.378 184.967 211.533C186.57 211.687 187.744 213.112 187.59 214.715L186.75 223.423C186.596 225.026 185.171 226.2 183.568 226.046C181.965 225.891 180.791 224.466 180.945 222.863L181.785 214.155Z" fill="#444444"/>
<path d="M182.628 214.528C182.737 213.406 183.734 212.584 184.856 212.692C185.978 212.801 186.8 213.798 186.692 214.92C186.584 216.042 185.586 216.864 184.464 216.756C183.342 216.648 182.52 215.65 182.628 214.528Z" fill="white"/>
<path d="M181.956 221.495C182.065 220.373 183.062 219.551 184.184 219.659C185.306 219.767 186.128 220.765 186.02 221.887C185.912 223.009 184.915 223.831 183.792 223.723C182.67 223.615 181.848 222.617 181.956 221.495Z" fill="#B9B9B9"/>
<path d="M202.797 244.21C201.589 238.923 195.1 231.936 193.657 228.29C192.063 222.762 190.808 225.576 190.639 228.142C190.47 230.707 192.91 237.596 192.084 240.47C191.071 243.995 182.04 244.017 175.262 244.713C172.562 245.299 173.171 248.808 175.84 248.593C173.983 249.724 174.613 252.861 176.358 253.212C173.949 253.856 174.586 256.995 176.005 257.657C174.171 258.417 174.837 261.185 175.71 261.36C180.475 263.298 185.252 264.08 186.713 264.291C188.173 264.502 192.93 264.074 192.93 264.074L203.221 261.093C207.101 259.104 207.288 251.649 206.044 248.26C205.43 246.591 203.836 248.762 202.797 244.21Z" fill="url(#paint12_linear_29924_65304)"/>
<g opacity="0.5" filter="url(#filter3_f_29924_65304)">
<path fill-rule="evenodd" clip-rule="evenodd" d="M175.017 249.357C179.158 249.514 182.68 249.925 186.53 249.425C187.255 249.356 187.155 248.36 186.416 248.456C182.614 248.949 181.354 248.803 177.205 248.646C176.029 248.568 175.714 248.796 175.017 249.357ZM176.113 254.641C180.986 255.882 183.193 256.474 187.491 256.165L187.865 256.139C188.472 255.854 188.315 255.253 187.784 255.166L187.41 255.193C183.211 255.494 181.299 255.356 176.437 254.118C175.853 253.932 175.108 254.007 176.113 254.641ZM175.17 259.339C180.028 261.386 183.173 262.362 188.05 261.806C188.5 261.761 188.611 260.99 187.945 260.836C183.222 261.374 181.989 261.477 177.159 259.441C175.551 258.747 175.069 258.688 175.17 259.339Z" fill="#333333"/>
</g>
<path d="M18.4261 186.011C18.3954 185.703 18.7643 185.524 18.9879 185.737L20.9411 187.603C21.0115 187.671 21.1076 187.704 21.2044 187.694L23.8925 187.426C24.2003 187.395 24.3802 187.764 24.1665 187.988L22.3003 189.941C22.2332 190.011 22.2 190.108 22.2097 190.204L22.4777 192.893C22.5084 193.2 22.1395 193.38 21.9158 193.167L19.9626 191.3C19.8923 191.233 19.7961 191.2 19.6994 191.21L17.0113 191.478C16.7034 191.508 16.5235 191.14 16.7373 190.916L18.6034 188.963C18.6706 188.892 18.7037 188.796 18.6941 188.699L18.4261 186.011Z" stroke="#FFEFF5" stroke-width="0.877286"/>
<path d="M55.9177 77.1715C56.1281 76.9447 56.5071 77.1021 56.495 77.4112L56.3891 80.1106C56.3853 80.2078 56.4241 80.3018 56.4954 80.3679L58.4756 82.2054C58.7024 82.4159 58.545 82.7948 58.2359 82.7827L55.5366 82.6768C55.4394 82.673 55.3454 82.7118 55.2792 82.7831L53.4417 84.7634C53.2313 84.9901 52.8523 84.8327 52.8644 84.5236L52.9703 81.8243C52.9741 81.7271 52.9353 81.6331 52.864 81.5669L50.8838 79.7294C50.657 79.519 50.8144 79.14 51.1235 79.1522L53.8229 79.2581C53.9201 79.2619 54.0141 79.223 54.0802 79.1517L55.9177 77.1715Z" stroke="#FFEFF5" stroke-width="0.877286"/>
<path d="M220.513 162.845C220.62 162.554 221.03 162.554 221.138 162.845L222.075 165.378C222.109 165.469 222.181 165.541 222.272 165.575L224.806 166.513C225.096 166.62 225.096 167.03 224.806 167.138L222.272 168.075C222.181 168.109 222.109 168.181 222.075 168.272L221.138 170.806C221.03 171.096 220.62 171.096 220.513 170.806L219.575 168.272C219.541 168.181 219.469 168.109 219.378 168.075L216.845 167.138C216.554 167.03 216.554 166.62 216.845 166.513L219.378 165.575C219.469 165.541 219.541 165.469 219.575 165.378L220.513 162.845Z" stroke="#FFEFF5" stroke-width="0.877286"/>
<path d="M282.513 238.845C282.62 238.554 283.03 238.554 283.138 238.845L284.075 241.378C284.109 241.469 284.181 241.541 284.272 241.575L286.806 242.513C287.096 242.62 287.096 243.03 286.806 243.138L284.272 244.075C284.181 244.109 284.109 244.181 284.075 244.272L283.138 246.806C283.03 247.096 282.62 247.096 282.513 246.806L281.575 244.272C281.541 244.181 281.469 244.109 281.378 244.075L278.845 243.138C278.554 243.03 278.554 242.62 278.845 242.513L281.378 241.575C281.469 241.541 281.541 241.469 281.575 241.378L282.513 238.845Z" stroke="#FFEFF5" stroke-width="0.877286"/>
<path d="M263.163 55.0549C263.27 54.7648 263.681 54.7648 263.788 55.0549L264.725 57.5885C264.759 57.6797 264.831 57.7516 264.922 57.7854L267.456 58.7229C267.746 58.8302 267.746 59.2406 267.456 59.3479L264.922 60.2854C264.831 60.3192 264.759 60.3911 264.725 60.4823L263.788 63.0159C263.681 63.306 263.27 63.306 263.163 63.0159L262.225 60.4823C262.192 60.3911 262.12 60.3192 262.029 60.2854L259.495 59.3479C259.205 59.2406 259.205 58.8302 259.495 58.7229L262.029 57.7854C262.12 57.7516 262.192 57.6797 262.225 57.5885L263.163 55.0549Z" stroke="#FFEFF5" stroke-width="0.877286"/>
<path d="M182.249 39.7667C182.415 39.5054 182.816 39.5909 182.86 39.897L183.249 42.5704C183.263 42.6666 183.318 42.7519 183.401 42.804L185.683 44.249C185.944 44.4145 185.859 44.8158 185.553 44.8603L182.88 45.2491C182.783 45.2631 182.698 45.3184 182.646 45.4006L181.201 47.6831C181.035 47.9444 180.634 47.8589 180.59 47.5528L180.201 44.8795C180.187 44.7832 180.131 44.6979 180.049 44.6458L177.767 43.2008C177.505 43.0353 177.591 42.634 177.897 42.5895L180.57 42.2007C180.667 42.1867 180.752 42.1314 180.804 42.0492L182.249 39.7667Z" stroke="#FFEFF5" stroke-width="0.877286"/>
<path d="M218 89.645C218 87.5927 219.664 85.929 221.716 85.929H288.605C290.657 85.929 292.321 87.5927 292.321 89.645V135.166C292.321 137.219 290.657 138.883 288.605 138.883H221.716C219.664 138.883 218 137.219 218 135.166V89.645Z" fill="#434343"/>
<rect x="219.395" y="85" width="74.3208" height="52.9536" rx="3.71604" fill="url(#paint13_linear_29924_65304)"/>
<path d="M219.395 88.716C219.395 86.6637 221.058 85 223.111 85H289.999C292.052 85 293.715 86.6637 293.715 88.716V94.2901H219.395V88.716Z" fill="#706B6B"/>
<circle cx="256.09" cy="114.264" r="13.4706" fill="#FF6161"/>
<path d="M262.924 116.103C264.052 115.492 264.052 113.965 262.924 113.354L253.301 107.511C252.173 106.9 250.763 107.664 250.763 108.886V120.571C250.763 121.793 252.173 122.556 253.301 121.945L262.924 116.103Z" fill="white"/>
<path d="M270.026 90.1095C270.026 91.3922 268.986 92.432 267.703 92.432C266.421 92.432 265.381 91.3922 265.381 90.1095C265.381 88.8268 266.421 87.787 267.703 87.787C268.986 87.787 270.026 88.8268 270.026 90.1095Z" fill="#70C253"/>
<path d="M277.92 90.1095C277.92 91.3922 276.881 92.432 275.598 92.432C274.315 92.432 273.275 91.3922 273.275 90.1095C273.275 88.8268 274.315 87.787 275.598 87.787C276.881 87.787 277.92 88.8268 277.92 90.1095Z" fill="#FFB017"/>
<path d="M285.819 90.1095C285.819 91.3922 284.779 92.432 283.496 92.432C282.214 92.432 281.174 91.3922 281.174 90.1095C281.174 88.8268 282.214 87.787 283.496 87.787C284.779 87.787 285.819 88.8268 285.819 90.1095Z" fill="#FF6161"/>
<path fill-rule="evenodd" clip-rule="evenodd" d="M24.1762 141.858L64.4834 110.441C55.7824 99.331 39.7306 97.2947 28.621 105.996C17.4598 114.695 15.4751 130.749 24.1762 141.858ZM26.5766 130.827C24.7709 123.955 27.1196 116.331 33.0442 111.708C39.022 107.034 46.9353 106.655 53.1833 110.098L26.5766 130.827Z" fill="url(#paint14_linear_29924_65304)"/>
<path d="M61.5257 112.675L61.9495 112.327L59.8622 109.629L59.4384 109.978L61.5257 112.675Z" fill="url(#paint15_linear_29924_65304)"/>
<path d="M58.6171 114.912L59.0393 114.615L56.952 111.918L56.5298 112.215L58.6171 114.912Z" fill="url(#paint16_linear_29924_65304)"/>
<path d="M55.7054 117.198L56.1292 116.849L54.0418 114.152L53.6181 114.501L55.7054 117.198Z" fill="url(#paint17_linear_29924_65304)"/>
<path d="M52.7953 119.487L53.219 119.138L51.1317 116.441L50.7095 116.738L52.7953 119.487Z" fill="url(#paint18_linear_29924_65304)"/>
<path d="M49.891 121.723L50.3131 121.426L48.2274 118.677L47.8036 119.025L49.891 121.723Z" fill="url(#paint19_linear_29924_65304)"/>
<path d="M46.9789 124.01L47.4026 123.661L45.3153 120.964L44.8915 121.312L46.9789 124.01Z" fill="url(#paint20_linear_29924_65304)"/>
<path d="M44.0703 126.245L44.4924 125.948L42.4051 123.251L41.983 123.548L44.0703 126.245Z" fill="url(#paint21_linear_29924_65304)"/>
<path d="M41.1585 128.532L41.5807 128.235L39.495 125.487L39.0712 125.835L41.1585 128.532Z" fill="url(#paint22_linear_29924_65304)"/>
<path d="M38.2523 130.82L38.676 130.471L36.5887 127.774L36.165 128.122L38.2523 130.82Z" fill="url(#paint23_linear_29924_65304)"/>
<path d="M35.3418 133.057L35.7639 132.76L33.6766 130.062L33.2544 130.359L35.3418 133.057Z" fill="url(#paint24_linear_29924_65304)"/>
<path d="M32.432 135.343L32.8557 134.994L30.7684 132.297L30.3447 132.646L32.432 135.343Z" fill="url(#paint25_linear_29924_65304)"/>
<path d="M29.5238 137.631L29.9475 137.283L27.8602 134.586L27.438 134.883L29.5238 137.631Z" fill="url(#paint26_linear_29924_65304)"/>
<path d="M26.6132 139.866L27.0354 139.569L24.9481 136.872L24.5259 137.169L26.6132 139.866Z" fill="url(#paint27_linear_29924_65304)"/>
<path opacity="0.2" d="M56.0853 104.659C44.3085 99.6017 35.5225 103.209 32.1608 105.069C31.3195 105.56 31.0803 106.637 31.6259 107.377C31.6593 107.412 31.676 107.43 31.676 107.43C32.1716 108.117 33.0457 108.246 33.7806 107.856C42.7182 102.652 51.6947 106.385 54.4419 107.759C55.0016 108.034 55.6224 108.002 56.1509 107.605L56.4151 107.406C57.3674 106.66 57.1548 105.156 56.0853 104.659Z" fill="white"/>
<path d="M199.54 41.9215L201.237 46.4434C201.71 46.5177 202.159 46.4715 202.585 46.305L203.415 41.4973L199.54 41.9215Z" fill="url(#paint28_linear_29924_65304)"/>
<path opacity="0.2" d="M202.027 45.7281L202.163 42.2553L202.872 42.1534L202.392 45.6861L202.027 45.7281Z" fill="white"/>
<path d="M201.123 16.2179C201.118 16.1911 201.115 16.1778 201.115 16.1778C201.085 15.8088 199.971 15.6516 198.623 15.7901C197.275 15.9286 196.231 16.341 196.261 16.71C196.261 16.71 196.264 16.7234 196.269 16.7501L199.038 41.9974C199.028 42.0134 199.022 42.0214 199.022 42.0214C199.189 42.4471 200.27 42.6522 201.538 42.5294C202.797 42.3665 203.818 41.9379 203.876 41.4891C203.871 41.4624 203.873 41.441 203.884 41.425L201.123 16.2179Z" fill="url(#paint29_linear_29924_65304)"/>
<path opacity="0.3" d="M201.375 18.4812L201.359 18.5052C201.369 18.4892 201.372 18.4678 201.367 18.4411C201.336 18.1763 200.438 18.0601 199.291 18.1594C199.152 18.1588 199.016 18.1716 198.882 18.1977C198.743 18.1971 198.607 18.2099 198.473 18.2361C197.318 18.3994 196.482 18.7085 196.513 18.9733C196.519 19 196.521 19.0134 196.521 19.0134L198.826 40.2893C198.826 40.2893 198.834 40.2947 198.85 40.3055C198.969 40.5947 199.835 40.7588 200.926 40.6914C201.049 40.6812 201.185 40.6684 201.335 40.6531C201.474 40.6537 201.61 40.6409 201.744 40.6147C202.795 40.4509 203.622 40.1017 203.68 39.7571C203.691 39.7411 203.688 39.7277 203.672 39.717L201.375 18.4812Z" fill="white"/>
<path d="M203.876 41.4889L203.884 41.4235C203.874 41.4398 203.871 41.4616 203.876 41.4889Z" fill="url(#paint30_linear_29924_65304)"/>
<path d="M199.037 41.9983L198.997 41.9018C199.002 41.9286 199.005 41.942 199.005 41.942C199.01 41.9687 199.021 41.9875 199.037 41.9983Z" fill="url(#paint31_linear_29924_65304)"/>
<path d="M199.236 21.6069C198.747 21.6609 198.376 22.1083 198.454 22.6138L199.88 35.8751C199.934 36.3645 200.381 36.7353 200.894 36.6975C201.4 36.6195 201.771 36.172 201.717 35.6826L200.267 22.4052C200.213 21.9158 199.765 21.545 199.236 21.6069Z" fill="url(#paint32_linear_29924_65304)"/>
<path d="M58.5563 56.907L61.8354 60.7622C61.6598 61.237 61.4051 61.6357 61.0054 61.9418L56.1821 60.2645L58.5563 56.907Z" fill="url(#paint33_linear_29924_65304)"/>
<path d="M34.0708 45.2984L34.0642 45.2687C34.0444 45.2731 34.0224 45.2676 33.9983 45.2521C33.7018 45.0372 34.1094 43.9196 34.9459 42.7697C35.7462 41.5967 36.6679 40.8329 36.9644 41.0479C36.9886 41.0633 37.0029 41.0809 37.0072 41.1007L58.8622 56.4639C58.8864 56.4794 58.8985 56.4871 58.8985 56.4871C59.1915 56.8274 58.8432 57.9319 58.0595 59.0389C57.3056 60.1395 56.3708 60.8438 55.962 60.6848C55.9181 60.6737 55.8939 60.6583 55.8895 60.6385L34.0708 45.2984Z" fill="url(#paint34_linear_29924_65304)"/>
<path d="M36.0261 46.6772C36.0261 46.6772 36.0141 46.6695 35.9899 46.6541C35.7659 46.4854 36.1005 45.6019 36.7785 44.5804C36.8557 44.4596 36.9329 44.3388 37.0101 44.218C37.0872 44.0971 37.1765 43.984 37.2778 43.8786C37.9986 42.91 38.732 42.2812 38.956 42.4498C38.9604 42.4696 38.9725 42.4773 38.9923 42.473L57.3876 55.4222C57.3876 55.4222 57.3898 55.4321 57.3942 55.4519C57.6081 55.7162 57.3329 56.5866 56.7077 57.5653C56.6306 57.6861 56.5534 57.8069 56.4762 57.9277C56.3947 58.0288 56.3054 58.1419 56.2084 58.2671C55.5043 59.1697 54.7875 59.7326 54.4512 59.6199C54.4314 59.6243 54.4094 59.6187 54.3852 59.6033L36.0261 46.6772Z" fill="url(#paint35_linear_29924_65304)"/>
<path d="M58.8984 56.4899C58.8984 56.4899 58.8839 56.4806 58.8549 56.462L58.8984 56.4899Z" fill="url(#paint36_linear_29924_65304)"/>
<path d="M55.9324 60.6909L55.8884 60.6366C55.8929 60.657 55.9177 60.6728 55.9629 60.6842L55.9324 60.6909Z" fill="url(#paint37_linear_29924_65304)"/>
<path d="M58.8633 56.4673L58.7888 56.4197C58.8091 56.4152 58.8215 56.4231 58.826 56.4435C58.8464 56.439 58.8588 56.4469 58.8633 56.4673Z" fill="url(#paint38_linear_29924_65304)"/>
<path d="M39.9631 46.3061C40.2706 45.8646 40.8711 45.7633 41.3127 46.0709L52.7821 54.1624C53.2171 54.4403 53.3249 55.0705 53.0108 55.4824C52.733 55.9173 52.1027 56.0251 51.6909 55.711L40.1983 47.6557C39.7865 47.3416 39.6555 46.7476 39.9631 46.3061Z" fill="url(#paint39_linear_29924_65304)"/>
<path opacity="0.2" d="M61.2679 61.0152L58.524 58.5992L58.9111 57.9532L61.4762 60.689L61.2679 61.0152Z" fill="white"/>
<path d="M232.058 190.62L228.03 196.038C228.3 196.649 228.695 197.142 229.213 197.516L235.491 194.852L232.058 190.62Z" fill="url(#paint40_linear_29924_65304)"/>
<path opacity="0.2" d="M229.268 196.499L233.452 194.03L234.108 194.785L229.594 196.897L229.268 196.499Z" fill="white"/>
<path d="M263.456 173.013C263.483 172.987 263.497 172.973 263.497 172.973C263.908 172.658 263.249 171.23 262.065 169.752C260.882 168.273 259.607 167.358 259.196 167.674C259.196 167.674 259.183 167.687 259.155 167.713L231.587 190.085C231.56 190.085 231.547 190.085 231.547 190.085C231.173 190.603 231.751 192.029 232.855 193.425C234 194.782 235.276 195.656 235.848 195.385C235.875 195.358 235.902 195.345 235.929 195.346L263.456 173.013Z" fill="url(#paint41_linear_29924_65304)"/>
<path opacity="0.3" d="M260.985 175.025L260.945 175.024C260.972 175.024 260.999 175.011 261.026 174.985C261.314 174.748 260.771 173.605 259.786 172.333C259.681 172.169 259.563 172.018 259.431 171.881C259.326 171.717 259.208 171.567 259.076 171.429C258.009 170.196 257.013 169.448 256.726 169.685C256.698 169.711 256.684 169.725 256.684 169.725L233.431 188.544C233.431 188.544 233.431 188.558 233.431 188.585C233.181 188.944 233.643 190.085 234.549 191.315C234.654 191.452 234.772 191.603 234.904 191.767C235.008 191.931 235.126 192.081 235.258 192.219C236.247 193.33 237.284 194.038 237.732 193.844C237.759 193.845 237.773 193.832 237.773 193.805L260.985 175.025Z" fill="white"/>
<path d="M235.849 195.387L235.932 195.347C235.905 195.347 235.877 195.36 235.849 195.387Z" fill="url(#paint42_linear_29924_65304)"/>
<path d="M231.585 190.086L231.669 189.966C231.641 189.993 231.628 190.006 231.628 190.006C231.6 190.032 231.586 190.059 231.585 190.086Z" fill="url(#paint43_linear_29924_65304)"/>
<path d="M255.696 174.879C255.262 174.345 254.455 174.248 253.92 174.723L239.418 186.44C238.884 186.874 238.787 187.681 239.221 188.255C239.695 188.79 240.502 188.887 241.036 188.453L255.538 176.695C256.073 176.261 256.169 175.455 255.696 174.879Z" fill="url(#paint44_linear_29924_65304)"/>
<path opacity="0.6" d="M245.812 45.2211C247.019 45.1193 247.597 43.7978 246.853 42.8424L240.738 34.1463C239.994 33.1909 238.485 33.3181 238.023 34.3753L233.601 44.4848C233.138 45.542 234.069 46.7363 235.276 46.6345L245.812 45.2211Z" stroke="white" stroke-width="0.877286" stroke-dasharray="1.75 1.75"/>
<path opacity="0.6" d="M246.401 223.87C245.627 222.093 246.441 220.026 248.218 219.252L257.066 215.401C258.843 214.627 260.91 215.441 261.684 217.218L265.535 226.066C266.309 227.843 265.495 229.91 263.718 230.684L254.87 234.535C253.093 235.309 251.026 234.495 250.252 232.718L246.401 223.87Z" stroke="white" stroke-width="0.877286" stroke-dasharray="1.75 1.75"/>
<path opacity="0.7" d="M94.926 40.818C95.6205 39.0087 97.6503 38.105 99.4596 38.7996L114.61 44.6155C116.419 45.3101 117.323 47.3399 116.628 49.1492L113.17 58.1583C112.475 59.9676 110.445 60.8713 108.636 60.1767L93.4859 54.3608C91.6766 53.6663 90.7729 51.6365 91.4675 49.8272L94.926 40.818Z" stroke="white" stroke-width="0.877286" stroke-dasharray="1.75 1.75"/>
<circle opacity="0.7" cx="30.5554" cy="237.563" r="7.01829" stroke="white" stroke-width="0.877286" stroke-dasharray="1.75 1.75"/>
<g opacity="0.8" filter="url(#filter4_f_29924_65304)">
<circle cx="223.625" cy="274.474" r="3.57411" fill="white"/>
</g>
<path d="M223.57 271.761C223.626 271.61 223.84 271.61 223.896 271.761L224.587 273.625C224.604 273.673 224.642 273.71 224.689 273.728L226.555 274.417C226.706 274.473 226.706 274.687 226.555 274.743L224.689 275.432C224.642 275.45 224.604 275.487 224.587 275.535L223.896 277.399C223.84 277.55 223.626 277.55 223.57 277.399L222.88 275.535C222.862 275.487 222.825 275.45 222.777 275.432L220.911 274.743C220.76 274.687 220.76 274.473 220.911 274.417L222.777 273.728C222.825 273.71 222.862 273.673 222.88 273.625L223.57 271.761Z" fill="#FFEF5C"/>
<g opacity="0.8" filter="url(#filter5_f_29924_65304)">
<circle cx="198.182" cy="194.641" r="3.57411" fill="white"/>
</g>
<path d="M198.127 191.928C198.183 191.777 198.397 191.777 198.453 191.928L199.143 193.792C199.161 193.84 199.198 193.877 199.246 193.895L201.112 194.584C201.263 194.64 201.263 194.854 201.112 194.91L199.246 195.599C199.198 195.617 199.161 195.654 199.143 195.702L198.453 197.566C198.397 197.717 198.183 197.717 198.127 197.566L197.436 195.702C197.419 195.654 197.381 195.617 197.334 195.599L195.468 194.91C195.317 194.854 195.317 194.64 195.468 194.584L197.334 193.895C197.381 193.877 197.419 193.84 197.436 193.792L198.127 191.928Z" fill="#FFEF5C"/>
<g opacity="0.8" filter="url(#filter6_f_29924_65304)">
<circle cx="124.49" cy="26.2022" r="3.57411" fill="white"/>
</g>
<path d="M124.436 23.4884C124.492 23.3374 124.705 23.3374 124.761 23.4884L125.452 25.3529C125.469 25.4004 125.507 25.4378 125.554 25.4553L127.421 26.1451C127.572 26.2009 127.572 26.4147 127.421 26.4705L125.554 27.1603C125.507 27.1778 125.469 27.2152 125.452 27.2627L124.761 29.1272C124.705 29.2782 124.492 29.2782 124.436 29.1272L123.745 27.2627C123.727 27.2152 123.69 27.1778 123.642 27.1603L121.776 26.4705C121.625 26.4147 121.625 26.2009 121.776 26.1451L123.642 25.4553C123.69 25.4378 123.727 25.4004 123.745 25.3529L124.436 23.4884Z" fill="#FFEF5C"/>
<g opacity="0.8" filter="url(#filter7_f_29924_65304)">
<circle cx="287.574" cy="185.574" r="3.57411" fill="white"/>
</g>
<path d="M287.52 182.86C287.576 182.709 287.789 182.709 287.845 182.86L288.536 184.725C288.553 184.772 288.591 184.81 288.638 184.827L290.505 185.517C290.656 185.573 290.656 185.787 290.505 185.843L288.638 186.532C288.591 186.55 288.553 186.587 288.536 186.635L287.845 188.499C287.789 188.65 287.576 188.65 287.52 188.499L286.829 186.635C286.811 186.587 286.774 186.55 286.726 186.532L284.86 185.843C284.709 185.787 284.709 185.573 284.86 185.517L286.726 184.827C286.774 184.81 286.811 184.772 286.829 184.725L287.52 182.86Z" fill="#FFEF5C"/>
<g opacity="0.8" filter="url(#filter8_f_29924_65304)">
<circle cx="194.574" cy="87.5741" r="3.57411" fill="white"/>
</g>
<path d="M194.52 84.8604C194.576 84.7095 194.789 84.7095 194.845 84.8604L195.536 86.7249C195.553 86.7724 195.591 86.8098 195.638 86.8274L197.505 87.5171C197.656 87.573 197.656 87.7867 197.505 87.8426L195.638 88.5323C195.591 88.5499 195.553 88.5873 195.536 88.6348L194.845 90.4993C194.789 90.6503 194.576 90.6503 194.52 90.4993L193.829 88.6348C193.811 88.5873 193.774 88.5499 193.726 88.5323L191.86 87.8426C191.709 87.7867 191.709 87.573 191.86 87.5171L193.726 86.8274C193.774 86.8098 193.811 86.7724 193.829 86.7249L194.52 84.8604Z" fill="#FFEF5C"/>
<g opacity="0.8" filter="url(#filter9_f_29924_65304)">
<circle cx="28.8671" cy="68.3121" r="3.57411" fill="white"/>
</g>
<path d="M28.8127 65.5983C28.8686 65.4474 29.0821 65.4474 29.1381 65.5983L29.8288 67.4629C29.8464 67.5103 29.8839 67.5478 29.9313 67.5653L31.7975 68.255C31.9486 68.3109 31.9486 68.5247 31.7975 68.5805L29.9313 69.2702C29.8839 69.2878 29.8464 69.3252 29.8288 69.3727L29.1381 71.2372C29.0821 71.3882 28.8686 71.3882 28.8127 71.2372L28.1219 69.3727C28.1043 69.3252 28.0669 69.2878 28.0194 69.2702L26.1532 68.5805C26.0021 68.5247 26.0021 68.3109 26.1532 68.255L28.0194 67.5653C28.0669 67.5478 28.1043 67.5103 28.1219 67.4629L28.8127 65.5983Z" fill="#FFEF5C"/>
<g opacity="0.8" filter="url(#filter10_f_29924_65304)">
<circle cx="82.3808" cy="82.3489" r="3.57411" fill="white"/>
</g>
<path d="M82.3263 79.6352C82.3823 79.4842 82.5958 79.4842 82.6517 79.6352L83.3425 81.4997C83.3601 81.5472 83.3975 81.5846 83.445 81.6022L85.3112 82.2919C85.4623 82.3478 85.4623 82.5615 85.3112 82.6174L83.445 83.3071C83.3975 83.3247 83.3601 83.3621 83.3425 83.4096L82.6517 85.2741C82.5958 85.4251 82.3823 85.4251 82.3263 85.2741L81.6356 83.4096C81.618 83.3621 81.5805 83.3247 81.533 83.3071L79.6669 82.6174C79.5158 82.5615 79.5158 82.3478 79.6669 82.2919L81.533 81.6022C81.5805 81.5846 81.618 81.5472 81.6356 81.4997L82.3263 79.6352Z" fill="#FFEF5C"/>
<g opacity="0.8" filter="url(#filter11_f_29924_65304)">
<circle cx="291.574" cy="26.5742" r="3.57411" fill="white"/>
</g>
<path d="M291.52 23.8604C291.576 23.7095 291.789 23.7095 291.845 23.8604L292.536 25.7249C292.553 25.7724 292.591 25.8098 292.638 25.8274L294.505 26.5171C294.656 26.573 294.656 26.7867 294.505 26.8426L292.638 27.5323C292.591 27.5499 292.553 27.5873 292.536 27.6348L291.845 29.4993C291.789 29.6503 291.576 29.6503 291.52 29.4993L290.829 27.6348C290.811 27.5873 290.774 27.5499 290.726 27.5323L288.86 26.8426C288.709 26.7867 288.709 26.573 288.86 26.5171L290.726 25.8274C290.774 25.8098 290.811 25.7724 290.829 25.7249L291.52 23.8604Z" fill="#FFEF5C"/>
<g opacity="0.8" filter="url(#filter12_f_29924_65304)">
<circle cx="69.5741" cy="305.574" r="3.57411" fill="white"/>
</g>
<path d="M69.5197 302.86C69.5756 302.709 69.7892 302.709 69.8451 302.86L70.5358 304.725C70.5534 304.772 70.5909 304.81 70.6384 304.827L72.5045 305.517C72.6557 305.573 72.6557 305.787 72.5045 305.843L70.6384 306.532C70.5909 306.55 70.5534 306.587 70.5358 306.635L69.8451 308.499C69.7892 308.65 69.5756 308.65 69.5197 308.499L68.8289 306.635C68.8113 306.587 68.7739 306.55 68.7264 306.532L66.8602 305.843C66.7091 305.787 66.7091 305.573 66.8602 305.517L68.7264 304.827C68.7739 304.81 68.8113 304.772 68.8289 304.725L69.5197 302.86Z" fill="#FFEF5C"/>
<g opacity="0.8" filter="url(#filter13_f_29924_65304)">
<circle cx="29.746" cy="281.493" r="3.57411" fill="white"/>
</g>
<path d="M29.6916 278.779C29.7475 278.628 29.961 278.628 30.017 278.779L30.7077 280.644C30.7253 280.691 30.7628 280.728 30.8103 280.746L32.6764 281.436C32.8275 281.492 32.8275 281.705 32.6764 281.761L30.8103 282.451C30.7628 282.468 30.7253 282.506 30.7077 282.553L30.017 284.418C29.961 284.569 29.7475 284.569 29.6916 284.418L29.0008 282.553C28.9832 282.506 28.9458 282.468 28.8983 282.451L27.0321 281.761C26.881 281.705 26.881 281.492 27.0321 281.436L28.8983 280.746C28.9458 280.728 28.9832 280.691 29.0008 280.644L29.6916 278.779Z" fill="#FFEF5C"/>
<g opacity="0.8" filter="url(#filter14_f_29924_65304)">
<circle cx="36.7616" cy="158.672" r="3.57411" fill="white"/>
</g>
<path d="M36.7072 155.959C36.7631 155.808 36.9767 155.808 37.0326 155.959L37.7233 157.823C37.7409 157.871 37.7784 157.908 37.8259 157.926L39.692 158.615C39.8432 158.671 39.8432 158.885 39.692 158.941L37.8259 159.631C37.7784 159.648 37.7409 159.686 37.7233 159.733L37.0326 161.598C36.9767 161.749 36.7631 161.749 36.7072 161.598L36.0164 159.733C35.9988 159.686 35.9614 159.648 35.9139 159.631L34.0477 158.941C33.8966 158.885 33.8966 158.671 34.0477 158.615L35.9139 157.926C35.9614 157.908 35.9988 157.871 36.0164 157.823L36.7072 155.959Z" fill="#FFEF5C"/>
</g>
<defs>
<filter id="filter0_f_29924_65304" x="53.8776" y="363.418" width="197.389" height="39.4779" filterUnits="userSpaceOnUse" color-interpolation-filters="sRGB">
<feFlood flood-opacity="0" result="BackgroundImageFix"/>
<feBlend mode="normal" in="SourceGraphic" in2="BackgroundImageFix" result="shape"/>
<feGaussianBlur stdDeviation="1.75457" result="effect1_foregroundBlur_29924_65304"/>
</filter>
<filter id="filter1_f_29924_65304" x="106.209" y="193.051" width="16.1758" height="12.4632" filterUnits="userSpaceOnUse" color-interpolation-filters="sRGB">
<feFlood flood-opacity="0" result="BackgroundImageFix"/>
<feBlend mode="normal" in="SourceGraphic" in2="BackgroundImageFix" result="shape"/>
<feGaussianBlur stdDeviation="0.305672" result="effect1_foregroundBlur_29924_65304"/>
</filter>
<filter id="filter2_f_29924_65304" x="111.017" y="186.468" width="17.1074" height="18.6106" filterUnits="userSpaceOnUse" color-interpolation-filters="sRGB">
<feFlood flood-opacity="0" result="BackgroundImageFix"/>
<feBlend mode="normal" in="SourceGraphic" in2="BackgroundImageFix" result="shape"/>
<feGaussianBlur stdDeviation="0.152836" result="effect1_foregroundBlur_29924_65304"/>
</filter>
<filter id="filter3_f_29924_65304" x="173.795" y="247.226" width="15.8438" height="15.9565" filterUnits="userSpaceOnUse" color-interpolation-filters="sRGB">
<feFlood flood-opacity="0" result="BackgroundImageFix"/>
<feBlend mode="normal" in="SourceGraphic" in2="BackgroundImageFix" result="shape"/>
<feGaussianBlur stdDeviation="0.611345" result="effect1_foregroundBlur_29924_65304"/>
</filter>
<filter id="filter4_f_29924_65304" x="215.005" y="265.854" width="17.24" height="17.2398" filterUnits="userSpaceOnUse" color-interpolation-filters="sRGB">
<feFlood flood-opacity="0" result="BackgroundImageFix"/>
<feBlend mode="normal" in="SourceGraphic" in2="BackgroundImageFix" result="shape"/>
<feGaussianBlur stdDeviation="2.5229" result="effect1_foregroundBlur_29924_65304"/>
</filter>
<filter id="filter5_f_29924_65304" x="189.562" y="186.021" width="17.24" height="17.2398" filterUnits="userSpaceOnUse" color-interpolation-filters="sRGB">
<feFlood flood-opacity="0" result="BackgroundImageFix"/>
<feBlend mode="normal" in="SourceGraphic" in2="BackgroundImageFix" result="shape"/>
<feGaussianBlur stdDeviation="2.5229" result="effect1_foregroundBlur_29924_65304"/>
</filter>
<filter id="filter6_f_29924_65304" x="115.87" y="17.5822" width="17.24" height="17.2398" filterUnits="userSpaceOnUse" color-interpolation-filters="sRGB">
<feFlood flood-opacity="0" result="BackgroundImageFix"/>
<feBlend mode="normal" in="SourceGraphic" in2="BackgroundImageFix" result="shape"/>
<feGaussianBlur stdDeviation="2.5229" result="effect1_foregroundBlur_29924_65304"/>
</filter>
<filter id="filter7_f_29924_65304" x="278.954" y="176.954" width="17.24" height="17.2398" filterUnits="userSpaceOnUse" color-interpolation-filters="sRGB">
<feFlood flood-opacity="0" result="BackgroundImageFix"/>
<feBlend mode="normal" in="SourceGraphic" in2="BackgroundImageFix" result="shape"/>
<feGaussianBlur stdDeviation="2.5229" result="effect1_foregroundBlur_29924_65304"/>
</filter>
<filter id="filter8_f_29924_65304" x="185.954" y="78.9542" width="17.24" height="17.2398" filterUnits="userSpaceOnUse" color-interpolation-filters="sRGB">
<feFlood flood-opacity="0" result="BackgroundImageFix"/>
<feBlend mode="normal" in="SourceGraphic" in2="BackgroundImageFix" result="shape"/>
<feGaussianBlur stdDeviation="2.5229" result="effect1_foregroundBlur_29924_65304"/>
</filter>
<filter id="filter9_f_29924_65304" x="20.2472" y="59.6922" width="17.24" height="17.2398" filterUnits="userSpaceOnUse" color-interpolation-filters="sRGB">
<feFlood flood-opacity="0" result="BackgroundImageFix"/>
<feBlend mode="normal" in="SourceGraphic" in2="BackgroundImageFix" result="shape"/>
<feGaussianBlur stdDeviation="2.5229" result="effect1_foregroundBlur_29924_65304"/>
</filter>
<filter id="filter10_f_29924_65304" x="73.7608" y="73.729" width="17.24" height="17.2398" filterUnits="userSpaceOnUse" color-interpolation-filters="sRGB">
<feFlood flood-opacity="0" result="BackgroundImageFix"/>
<feBlend mode="normal" in="SourceGraphic" in2="BackgroundImageFix" result="shape"/>
<feGaussianBlur stdDeviation="2.5229" result="effect1_foregroundBlur_29924_65304"/>
</filter>
<filter id="filter11_f_29924_65304" x="282.954" y="17.9543" width="17.24" height="17.2398" filterUnits="userSpaceOnUse" color-interpolation-filters="sRGB">
<feFlood flood-opacity="0" result="BackgroundImageFix"/>
<feBlend mode="normal" in="SourceGraphic" in2="BackgroundImageFix" result="shape"/>
<feGaussianBlur stdDeviation="2.5229" result="effect1_foregroundBlur_29924_65304"/>
</filter>
<filter id="filter12_f_29924_65304" x="60.9542" y="296.954" width="17.24" height="17.2398" filterUnits="userSpaceOnUse" color-interpolation-filters="sRGB">
<feFlood flood-opacity="0" result="BackgroundImageFix"/>
<feBlend mode="normal" in="SourceGraphic" in2="BackgroundImageFix" result="shape"/>
<feGaussianBlur stdDeviation="2.5229" result="effect1_foregroundBlur_29924_65304"/>
</filter>
<filter id="filter13_f_29924_65304" x="21.1261" y="272.873" width="17.24" height="17.2398" filterUnits="userSpaceOnUse" color-interpolation-filters="sRGB">
<feFlood flood-opacity="0" result="BackgroundImageFix"/>
<feBlend mode="normal" in="SourceGraphic" in2="BackgroundImageFix" result="shape"/>
<feGaussianBlur stdDeviation="2.5229" result="effect1_foregroundBlur_29924_65304"/>
</filter>
<filter id="filter14_f_29924_65304" x="28.1417" y="150.052" width="17.24" height="17.2398" filterUnits="userSpaceOnUse" color-interpolation-filters="sRGB">
<feFlood flood-opacity="0" result="BackgroundImageFix"/>
<feBlend mode="normal" in="SourceGraphic" in2="BackgroundImageFix" result="shape"/>
<feGaussianBlur stdDeviation="2.5229" result="effect1_foregroundBlur_29924_65304"/>
</filter>
<radialGradient id="paint0_radial_29924_65304" cx="0" cy="0" r="1" gradientUnits="userSpaceOnUse" gradientTransform="translate(150.306 213) rotate(87.0089) scale(243.779 172.173)">
<stop stop-color="#A587F5"/>
<stop offset="0.786107" stop-color="#7E54F1"/>
</radialGradient>
<linearGradient id="paint1_linear_29924_65304" x1="94.4449" y1="219.371" x2="17.9645" y2="305.369" gradientUnits="userSpaceOnUse">
<stop stop-color="#6F75FC"/>
<stop offset="1" stop-color="#3A3FA8"/>
</linearGradient>
<linearGradient id="paint2_linear_29924_65304" x1="138.081" y1="177.045" x2="167.546" y2="381.766" gradientUnits="userSpaceOnUse">
<stop stop-color="#595FE2"/>
<stop offset="1" stop-color="#3A3FA8"/>
</linearGradient>
<linearGradient id="paint3_linear_29924_65304" x1="166.565" y1="207.946" x2="197.008" y2="276.539" gradientUnits="userSpaceOnUse">
<stop stop-color="#5C62E8"/>
<stop offset="1" stop-color="#6E72D5"/>
</linearGradient>
<linearGradient id="paint4_linear_29924_65304" x1="101.811" y1="354.856" x2="98.7728" y2="389.403" gradientUnits="userSpaceOnUse">
<stop stop-color="#EA7E25"/>
<stop offset="1" stop-color="#FC861F"/>
</linearGradient>
<linearGradient id="paint5_linear_29924_65304" x1="185.948" y1="352.425" x2="193.571" y2="386.258" gradientUnits="userSpaceOnUse">
<stop stop-color="#EA7E25"/>
<stop offset="1" stop-color="#FC861F"/>
</linearGradient>
<linearGradient id="paint6_linear_29924_65304" x1="116.691" y1="240.569" x2="74.3505" y2="236.595" gradientUnits="userSpaceOnUse">
<stop stop-color="#4E54C8"/>
<stop offset="1" stop-color="#6369E1"/>
</linearGradient>
<linearGradient id="paint7_linear_29924_65304" x1="145.157" y1="173.317" x2="104.918" y2="188.6" gradientUnits="userSpaceOnUse">
<stop stop-color="#FFBC3F"/>
<stop offset="1" stop-color="#E07524"/>
</linearGradient>
<linearGradient id="paint8_linear_29924_65304" x1="121.549" y1="201.565" x2="112.522" y2="186.782" gradientUnits="userSpaceOnUse">
<stop stop-color="#FFBC3F"/>
<stop offset="1" stop-color="#F77C1F"/>
</linearGradient>
<linearGradient id="paint9_linear_29924_65304" x1="121.549" y1="201.565" x2="112.522" y2="186.782" gradientUnits="userSpaceOnUse">
<stop stop-color="#FFBC3F"/>
<stop offset="1" stop-color="#F77C1F"/>
</linearGradient>
<linearGradient id="paint10_linear_29924_65304" x1="121.549" y1="201.565" x2="112.522" y2="186.782" gradientUnits="userSpaceOnUse">
<stop stop-color="#FFBC3F"/>
<stop offset="1" stop-color="#F77C1F"/>
</linearGradient>
<linearGradient id="paint11_linear_29924_65304" x1="127.041" y1="197.505" x2="119.373" y2="211.818" gradientUnits="userSpaceOnUse">
<stop stop-color="#FFBC3F"/>
<stop offset="1" stop-color="#F77C1F"/>
</linearGradient>
<linearGradient id="paint12_linear_29924_65304" x1="189.758" y1="264.966" x2="196.8" y2="229.982" gradientUnits="userSpaceOnUse">
<stop stop-color="#F6741B"/>
<stop offset="1" stop-color="#FFBE40"/>
</linearGradient>
<linearGradient id="paint13_linear_29924_65304" x1="256.555" y1="85" x2="256.555" y2="137.954" gradientUnits="userSpaceOnUse">
<stop stop-color="white"/>
<stop offset="1" stop-color="#E6FFFC"/>
</linearGradient>
<linearGradient id="paint14_linear_29924_65304" x1="42.1534" y1="100.515" x2="40.884" y2="142.365" gradientUnits="userSpaceOnUse">
<stop stop-color="#8BC7FF"/>
<stop offset="1" stop-color="#3C8CD7"/>
</linearGradient>
<linearGradient id="paint15_linear_29924_65304" x1="65.8552" y1="116.37" x2="60.1281" y2="107.675" gradientUnits="userSpaceOnUse">
<stop stop-color="#FFE15B"/>
<stop offset="1" stop-color="#FF9E2A"/>
</linearGradient>
<linearGradient id="paint16_linear_29924_65304" x1="62.7981" y1="118.396" x2="57.071" y2="109.7" gradientUnits="userSpaceOnUse">
<stop stop-color="#FFE15B"/>
<stop offset="1" stop-color="#FF9E2A"/>
</linearGradient>
<linearGradient id="paint17_linear_29924_65304" x1="59.6878" y1="120.418" x2="53.9622" y2="111.671" gradientUnits="userSpaceOnUse">
<stop stop-color="#FFE15B"/>
<stop offset="1" stop-color="#FF9E2A"/>
</linearGradient>
<linearGradient id="paint18_linear_29924_65304" x1="56.6307" y1="122.444" x2="50.9051" y2="113.697" gradientUnits="userSpaceOnUse">
<stop stop-color="#FFE15B"/>
<stop offset="1" stop-color="#FF9E2A"/>
</linearGradient>
<linearGradient id="paint19_linear_29924_65304" x1="53.5778" y1="124.469" x2="47.8522" y2="115.722" gradientUnits="userSpaceOnUse">
<stop stop-color="#FFE15B"/>
<stop offset="1" stop-color="#FF9E2A"/>
</linearGradient>
<linearGradient id="paint20_linear_29924_65304" x1="50.4672" y1="126.491" x2="44.7415" y2="117.744" gradientUnits="userSpaceOnUse">
<stop stop-color="#FFE15B"/>
<stop offset="1" stop-color="#FF9E2A"/>
</linearGradient>
<linearGradient id="paint21_linear_29924_65304" x1="47.41" y1="128.516" x2="41.6844" y2="119.769" gradientUnits="userSpaceOnUse">
<stop stop-color="#FFE15B"/>
<stop offset="1" stop-color="#FF9E2A"/>
</linearGradient>
<linearGradient id="paint22_linear_29924_65304" x1="44.3529" y1="130.489" x2="38.6257" y2="121.793" gradientUnits="userSpaceOnUse">
<stop stop-color="#FFE15B"/>
<stop offset="1" stop-color="#FF9E2A"/>
</linearGradient>
<linearGradient id="paint23_linear_29924_65304" x1="41.2481" y1="132.512" x2="35.5209" y2="123.816" gradientUnits="userSpaceOnUse">
<stop stop-color="#FFE15B"/>
<stop offset="1" stop-color="#FF9E2A"/>
</linearGradient>
<linearGradient id="paint24_linear_29924_65304" x1="38.189" y1="134.537" x2="32.4635" y2="125.791" gradientUnits="userSpaceOnUse">
<stop stop-color="#FFE15B"/>
<stop offset="1" stop-color="#FF9E2A"/>
</linearGradient>
<linearGradient id="paint25_linear_29924_65304" x1="35.1323" y1="136.561" x2="29.4067" y2="127.814" gradientUnits="userSpaceOnUse">
<stop stop-color="#FFE15B"/>
<stop offset="1" stop-color="#FF9E2A"/>
</linearGradient>
<linearGradient id="paint26_linear_29924_65304" x1="32.0255" y1="138.585" x2="26.2999" y2="129.838" gradientUnits="userSpaceOnUse">
<stop stop-color="#FFE15B"/>
<stop offset="1" stop-color="#FF9E2A"/>
</linearGradient>
<linearGradient id="paint27_linear_29924_65304" x1="28.9664" y1="140.609" x2="23.2408" y2="131.862" gradientUnits="userSpaceOnUse">
<stop stop-color="#FFE15B"/>
<stop offset="1" stop-color="#FF9E2A"/>
</linearGradient>
<linearGradient id="paint28_linear_29924_65304" x1="204.222" y1="45.839" x2="203.881" y2="39.4064" gradientUnits="userSpaceOnUse">
<stop stop-color="#FE462C"/>
<stop offset="1" stop-color="#EF422A"/>
</linearGradient>
<linearGradient id="paint29_linear_29924_65304" x1="195.735" y1="15.9379" x2="195.581" y2="42.3191" gradientUnits="userSpaceOnUse">
<stop stop-color="#FF6F5B"/>
<stop offset="1" stop-color="#FB3418"/>
</linearGradient>
<linearGradient id="paint30_linear_29924_65304" x1="203.287" y1="41.4128" x2="203.279" y2="41.4782" gradientUnits="userSpaceOnUse">
<stop stop-color="#FE5086"/>
<stop offset="1" stop-color="#ED2F4D"/>
</linearGradient>
<linearGradient id="paint31_linear_29924_65304" x1="198.412" y1="41.8913" x2="198.435" y2="42.0117" gradientUnits="userSpaceOnUse">
<stop stop-color="#FE5086"/>
<stop offset="1" stop-color="#ED2F4D"/>
</linearGradient>
<linearGradient id="paint32_linear_29924_65304" x1="202.562" y1="36.7047" x2="200.588" y2="20.4259" gradientUnits="userSpaceOnUse">
<stop stop-color="#E35541"/>
<stop offset="1" stop-color="#E22C13"/>
</linearGradient>
<linearGradient id="paint33_linear_29924_65304" x1="59.7596" y1="63.213" x2="53.9862" y2="59.6274" gradientUnits="userSpaceOnUse">
<stop stop-color="#46B679"/>
<stop offset="1" stop-color="#1F7553"/>
</linearGradient>
<linearGradient id="paint34_linear_29924_65304" x1="36.5536" y1="40.173" x2="60.9324" y2="53.4226" gradientUnits="userSpaceOnUse">
<stop stop-color="#46B779"/>
<stop offset="1" stop-color="#1F7553"/>
</linearGradient>
<linearGradient id="paint35_linear_29924_65304" x1="58.1824" y1="59.4514" x2="39.8276" y2="63.4977" gradientUnits="userSpaceOnUse">
<stop stop-color="#46B679"/>
<stop offset="1" stop-color="#1F7553"/>
</linearGradient>
<linearGradient id="paint36_linear_29924_65304" x1="59.2008" y1="55.8243" x2="59.2443" y2="55.8521" gradientUnits="userSpaceOnUse">
<stop stop-color="#FE5086"/>
<stop offset="1" stop-color="#ED2F4D"/>
</linearGradient>
<linearGradient id="paint37_linear_29924_65304" x1="56.1843" y1="60.0913" x2="56.2521" y2="60.1084" gradientUnits="userSpaceOnUse">
<stop stop-color="#FE5086"/>
<stop offset="1" stop-color="#ED2F4D"/>
</linearGradient>
<linearGradient id="paint38_linear_29924_65304" x1="59.0779" y1="55.8439" x2="59.1897" y2="55.9153" gradientUnits="userSpaceOnUse">
<stop stop-color="#FE5086"/>
<stop offset="1" stop-color="#ED2F4D"/>
</linearGradient>
<linearGradient id="paint39_linear_29924_65304" x1="51.2218" y1="56.1259" x2="34.9566" y2="45.6346" gradientUnits="userSpaceOnUse">
<stop stop-color="#46B679"/>
<stop offset="1" stop-color="#1F7553"/>
</linearGradient>
<linearGradient id="paint40_linear_29924_65304" x1="231.001" y1="199.088" x2="238.301" y2="193.816" gradientUnits="userSpaceOnUse">
<stop stop-color="#FFE15B"/>
<stop offset="1" stop-color="#FF9E2A"/>
</linearGradient>
<linearGradient id="paint41_linear_29924_65304" x1="259.705" y1="166.471" x2="228.591" y2="186.267" gradientUnits="userSpaceOnUse">
<stop stop-color="#FFE15B"/>
<stop offset="1" stop-color="#FF9E2A"/>
</linearGradient>
<linearGradient id="paint42_linear_29924_65304" x1="235.493" y1="194.638" x2="235.409" y2="194.677" gradientUnits="userSpaceOnUse">
<stop stop-color="#FE5086"/>
<stop offset="1" stop-color="#ED2F4D"/>
</linearGradient>
<linearGradient id="paint43_linear_29924_65304" x1="231.238" y1="189.27" x2="231.114" y2="189.389" gradientUnits="userSpaceOnUse">
<stop stop-color="#FE5086"/>
<stop offset="1" stop-color="#ED2F4D"/>
</linearGradient>
<linearGradient id="paint44_linear_29924_65304" x1="240.475" y1="190.221" x2="258.107" y2="175.574" gradientUnits="userSpaceOnUse">
<stop stop-color="#FFE15B"/>
<stop offset="1" stop-color="#FF9E2A"/>
</linearGradient>
<clipPath id="clip0_29924_65304">
<rect width="320" height="410" fill="white"/>
</clipPath>
</defs>
</svg>
