<svg width="320" height="120" viewBox="0 0 320 120" fill="none" xmlns="http://www.w3.org/2000/svg">
<rect width="320" height="120" fill="url(#paint0_radial_29914_67832)"/>
<path d="M114.961 46.3584C114.961 46.3584 114.961 46.3584 114.961 46.3584C114.961 46.3584 115.114 46.7967 114.999 47.1673C114.794 47.8264 113.888 48.3065 113.488 48.1058C112.935 47.8288 113.114 47.1407 113.566 46.7193C113.897 46.4116 114.666 46.3662 114.895 46.3595L113.081 41.2856L113.198 41.2438L113.278 41.4683C113.607 41.9348 113.882 42.1851 114.471 42.4137C115.989 43.0581 116.354 43.7495 115.94 45.6736C116.275 43.4132 115.183 42.8474 113.742 42.7663L115.019 46.3375L114.961 46.3584Z" fill="#64EDFF"/>
<path d="M127.652 20.5791C127.652 20.5791 127.652 20.5791 127.652 20.5791C127.652 20.5791 127.805 21.0174 127.69 21.388C127.485 22.0471 126.58 22.5272 126.179 22.3265C125.626 22.0495 125.805 21.3614 126.258 20.94C126.588 20.6323 127.357 20.5869 127.587 20.5802L125.772 15.5063L125.889 15.4645L125.97 15.689C126.299 16.1555 126.574 16.4058 127.163 16.6344C128.68 17.2788 129.045 17.9702 128.631 19.8943C128.967 17.6339 127.874 17.0681 126.434 16.987L127.711 20.5582L127.652 20.5791Z" fill="#64EDFF"/>
<path d="M162.951 21.769C162.951 21.769 162.951 21.769 162.951 21.769C162.951 21.769 163.104 22.2074 162.989 22.5779C162.784 23.2371 161.879 23.7171 161.478 23.5165C160.925 23.2394 161.104 22.5514 161.556 22.1299C161.887 21.8222 162.656 21.7769 162.885 21.7702L161.071 16.6963L161.188 16.6545L161.268 16.879C161.597 17.3454 161.873 17.5957 162.461 17.8244C163.979 18.4688 164.344 19.1601 163.93 21.0843C164.266 18.8239 163.173 18.2581 161.733 18.1769L163.009 21.7481L162.951 21.769Z" fill="#64EDFF"/>
<path d="M167.711 37.2366C167.711 37.2366 167.711 37.2366 167.711 37.2366C167.711 37.2366 167.864 37.6749 167.749 38.0455C167.544 38.7046 166.638 39.1847 166.238 38.984C165.685 38.707 165.864 38.0189 166.316 37.5974C166.647 37.2898 167.416 37.2444 167.645 37.2377L165.831 32.1638L165.948 32.122L166.028 32.3465C166.357 32.813 166.632 33.0633 167.221 33.2919C168.739 33.9363 169.104 34.6276 168.69 36.5518C169.025 34.2914 167.933 33.7256 166.492 33.6445L167.769 37.2156L167.711 37.2366Z" fill="#64EDFF"/>
<path d="M167.431 46.9705C167.274 46.8621 166.911 46.6361 166.647 46.6616C166.247 46.7002 165.884 46.9845 166.059 47.3458C166.186 47.6074 166.843 47.7174 167.209 47.4586C167.31 47.3872 167.498 47.1525 167.498 47.1525L168.288 44.8185L170.762 45.6868L170.02 47.8788C169.863 47.7704 169.5 47.5444 169.236 47.5699C168.836 47.6085 168.473 47.8928 168.648 48.2541C168.775 48.5157 169.432 48.6257 169.798 48.3668C169.899 48.2955 170.087 48.0608 170.087 48.0608L171.026 45.285C171.065 45.1698 171.004 45.0447 170.889 45.0044L168.605 44.203C168.488 44.1621 168.361 44.2242 168.321 44.3412L167.431 46.9705Z" fill="#64EDFF"/>
<path d="M145.617 13.2593C145.46 13.1509 145.096 12.925 144.833 12.9504C144.433 12.989 144.069 13.2733 144.245 13.6346C144.372 13.8962 145.028 14.0063 145.395 13.7474C145.496 13.676 145.683 13.4413 145.683 13.4413L146.473 11.1073L148.948 11.9756L148.206 14.1676C148.049 14.0592 147.685 13.8333 147.422 13.8587C147.022 13.8973 146.658 14.1816 146.834 14.5429C146.961 14.8045 147.617 14.9146 147.984 14.6557C148.085 14.5843 148.272 14.3496 148.272 14.3496L149.212 11.5738C149.251 11.4586 149.19 11.3335 149.075 11.2932L146.79 10.4918C146.674 10.4509 146.546 10.5131 146.507 10.6301L145.617 13.2593Z" fill="#64EDFF"/>
<path d="M118.252 29.5201C118.094 29.4117 117.731 29.1857 117.468 29.2111C117.068 29.2498 116.704 29.534 116.88 29.8953C117.007 30.157 117.663 30.267 118.029 30.0081C118.13 29.9368 118.318 29.702 118.318 29.702L119.108 27.3681L121.583 28.2363L120.841 30.4284C120.683 30.32 120.32 30.094 120.057 30.1194C119.657 30.1581 119.293 30.4423 119.469 30.8036C119.596 31.0653 120.252 31.1753 120.618 30.9164C120.719 30.8451 120.907 30.6103 120.907 30.6103L121.846 27.8345C121.885 27.7193 121.824 27.5942 121.71 27.554L119.425 26.7525C119.309 26.7116 119.181 26.7738 119.142 26.8908L118.252 29.5201Z" fill="#64EDFF"/>
<g opacity="0.3" filter="url(#filter0_f_29914_67832)">
<ellipse cx="164.387" cy="77.1733" rx="33.9116" ry="8.17128" transform="rotate(-5.88715 164.387 77.1733)" fill="#333333"/>
</g>
<path d="M175.524 43.7369C174.918 48.0269 172.813 52.1432 170.512 56.5211L180.979 61.3451C182.481 55.8403 183.458 55.0256 183.631 47.0937L175.524 43.7369Z" fill="url(#paint1_linear_29914_67832)"/>
<path d="M172.413 56.2548C160.238 53.9144 138.564 65.2947 138.564 65.2947L150.164 79.0344C161.256 80.5129 175.312 82.1184 184.566 76.7935C194.433 71.1158 196.673 67.9793 201.155 58.2507L192.725 54.0747C189.512 57.2683 187.337 58.9896 181.761 61.7395C181.761 61.7395 177.652 57.2619 172.413 56.2548Z" fill="url(#paint2_linear_29914_67832)"/>
<path d="M132.307 71.4096L125.087 73.5362C125.98 75.513 127.241 77.5193 129.657 77.7473C132.012 77.9694 135.445 77.017 137.821 75.9256L132.307 71.4096Z" fill="url(#paint3_linear_29914_67832)"/>
<path d="M157.27 62.1017L130.248 62.3547L132.261 71.9222C142.928 81.3361 152.877 81.1969 157.428 76.4525L157.27 62.1017Z" fill="url(#paint4_linear_29914_67832)"/>
<path d="M160.786 67.1835C159.864 63.7784 158.013 61.086 154.651 62.3886L148.773 78.8971C151.625 82.3963 154.601 84.1582 158.639 83.0678C164.646 81.4458 161.87 71.1876 160.805 67.2536L160.786 67.1835Z" fill="url(#paint5_linear_29914_67832)"/>
<path d="M118.801 47.6954C118.409 49.8433 119.248 52.0313 120.974 53.365C120.367 49.9098 120.991 46.5061 122.844 43.1537C120.754 43.7942 119.196 45.5455 118.801 47.6954Z" fill="#6A6A6A"/>
<path fill-rule="evenodd" clip-rule="evenodd" d="M120.86 53.824C120.978 53.8503 121.101 53.8326 121.208 53.7689C121.377 53.666 121.465 53.4737 121.431 53.2808C120.845 49.9493 121.455 46.6185 123.248 43.3804C123.341 43.2105 123.322 43.0023 123.202 42.8512C123.079 42.7021 122.878 42.6416 122.693 42.696C120.424 43.3922 118.752 45.2745 118.324 47.6078C117.896 49.9411 118.797 52.2886 120.672 53.7374C120.729 53.7817 120.794 53.8094 120.86 53.824ZM121.81 44.1153C120.595 46.7241 120.096 49.386 120.318 52.062C119.376 50.8705 118.975 49.3199 119.258 47.778C119.542 46.2179 120.484 44.8961 121.81 44.1153Z" fill="#6A6A6A"/>
<path d="M146.001 30.1278C135.691 27.84 125.469 34.3387 123.17 44.6454C120.871 54.9496 127.366 65.1603 137.676 67.4481C147.984 69.7353 158.206 63.2341 160.505 52.9299C162.804 42.6232 156.309 32.415 146.001 30.1278Z" fill="white"/>
<path d="M145.751 30.3644C135.301 28.0458 125.281 33.7922 122.506 43.8081L122.231 44.2237C121.561 45.3491 121.738 44.8269 121.048 47.921C120.358 51.0151 121.394 57.427 125.265 61.0748L125.699 61.5657C138.493 73.3121 157.111 69.8708 160.696 53.8023C163.058 43.2128 156.2 32.683 145.751 30.3644Z" fill="white"/>
<path fill-rule="evenodd" clip-rule="evenodd" d="M137.623 68.4655C141.393 69.3018 145.175 69.1744 148.609 68.0955C155.026 66.0762 159.603 60.9045 161.164 53.9063C162.331 48.6772 161.361 43.2865 158.433 38.7248C155.521 34.1879 151.056 31.0544 145.861 29.9015C135.152 27.5252 124.94 33.4172 122.075 43.6117L121.842 43.9653C121.837 43.9713 121.833 43.9775 121.83 43.9838C121.759 44.103 121.7 44.2012 121.645 44.2898C121.215 44.9968 121.2 45.0649 120.816 46.8099C120.752 47.0951 120.678 47.4282 120.59 47.8194C119.857 51.1053 120.959 57.6509 124.93 61.4059L125.347 61.8796C125.358 61.8927 125.37 61.9052 125.383 61.9169C128.788 65.0428 132.786 67.2517 136.939 68.303C137.167 68.3588 137.395 68.413 137.623 68.4655ZM145.654 30.8277C155.997 33.1228 162.539 43.3838 160.238 53.7007C158.752 60.3608 154.409 65.2772 148.326 67.1904C141.077 69.4701 132.54 67.1892 126.044 61.2346L125.628 60.7633C125.619 60.7527 125.609 60.7425 125.597 60.7328C121.92 57.2654 120.849 51.0181 121.517 48.025C121.604 47.6338 121.679 47.2982 121.743 47.013C122.108 45.3538 122.108 45.3538 122.455 44.782C122.509 44.6934 122.571 44.5958 122.639 44.4786L122.908 44.0694C122.936 44.0279 122.957 43.9822 122.97 43.9348C125.668 34.1931 135.422 28.5573 145.654 30.8277Z" fill="#64EDFF"/>
<path d="M142.255 37.335C132.338 35.1345 122.826 39.9424 121.012 48.0742C119.198 56.2035 125.769 64.58 135.686 66.7806C145.605 68.9817 155.115 64.1731 156.928 56.0439C158.742 47.9121 152.174 39.5361 142.255 37.335Z" fill="#00A4FF"/>
<path fill-rule="evenodd" clip-rule="evenodd" d="M135.597 67.1682C145.713 69.413 155.453 64.4597 157.311 56.1311C159.17 47.7999 152.454 39.1977 142.337 36.9529C132.223 34.7087 122.481 39.6589 120.623 47.99C118.765 56.3187 125.483 64.924 135.597 67.1682ZM142.166 37.7227C151.855 39.8728 158.303 48.0525 156.539 55.9597C154.775 63.8643 145.459 68.546 135.769 66.3959C126.079 64.2458 119.632 56.0661 121.395 48.1615C123.159 40.2543 132.476 35.5726 142.166 37.7227Z" fill="#64EDFF"/>
<path d="M136.074 65.0347C127.375 63.1044 121.57 55.9473 123.109 49.0489C124.648 42.1506 132.947 38.1232 141.647 40.0536C150.346 41.984 156.151 49.141 154.612 56.0394C153.073 62.9378 144.773 66.9651 136.074 65.0347Z" fill="#6C6C6C"/>
<path fill-rule="evenodd" clip-rule="evenodd" d="M135.971 65.4956C144.914 67.4799 153.483 63.284 155.077 56.1415C156.67 48.999 150.693 41.5725 141.751 39.5882C132.808 37.6039 124.238 41.8023 122.644 48.9449C121.051 56.0874 127.029 63.5113 135.971 65.4956ZM141.544 40.5145C149.974 42.3851 155.63 49.3032 154.15 55.9359C152.671 62.566 144.608 66.4399 136.178 64.5693C127.748 62.6987 122.092 55.7806 123.571 49.1505C125.051 42.5178 133.114 38.6439 141.544 40.5145Z" fill="#6C6C6C"/>
<path d="M123.233 47.9019C123.178 48.3851 123.15 48.8769 123.15 49.3749C123.15 50.9668 123.437 52.4978 123.959 53.9222C123.692 54.2391 123.462 54.5695 123.271 54.9057C124.905 59.623 129.645 63.6757 135.863 65.0555C136.971 65.3015 138.073 65.4479 139.154 65.5076C146.895 65.1196 152.962 61.5842 152.959 57.2871C152.96 56.0716 152.473 54.9172 151.599 53.881C152.121 52.4528 152.404 50.9236 152.402 49.3287C152.403 48.4255 152.31 47.5441 152.135 46.6895C149.811 43.5674 146.026 41.0931 141.436 40.0747C133.238 38.2556 125.397 41.7259 123.233 47.9019Z" fill="#B0401E"/>
<path fill-rule="evenodd" clip-rule="evenodd" d="M135.776 65.4384C136.884 65.6843 138.012 65.8419 139.13 65.9019C139.144 65.9032 139.158 65.9028 139.173 65.9008C147.26 65.4967 153.356 61.793 153.355 57.2846C153.353 56.0684 152.913 54.8953 152.044 53.8019C152.543 52.3605 152.796 50.8566 152.795 49.3281C152.795 48.4142 152.702 47.5009 152.522 46.6107C152.509 46.5521 152.486 46.4994 152.451 46.4545C149.993 43.149 146.009 40.6838 141.52 39.6877C137.491 38.7936 133.37 39.1269 129.912 40.6268C126.453 42.1292 123.945 44.6664 122.857 47.7706C122.847 47.8001 122.841 47.8295 122.838 47.8589C122.781 48.3603 122.752 48.8703 122.754 49.374C122.755 50.9025 123.008 52.4049 123.51 53.846C123.286 54.1274 123.091 54.4179 122.925 54.7121C122.869 54.8108 122.858 54.9277 122.895 55.0365C123.735 57.4585 125.359 59.7048 127.595 61.5359C129.882 63.4102 132.711 64.7583 135.776 65.4384ZM139.153 65.1123C138.085 65.0528 137.005 64.9033 135.947 64.6686C130.088 63.3683 125.414 59.6506 123.702 54.948C123.861 54.6841 124.049 54.4264 124.261 54.1742C124.351 54.0671 124.377 53.9165 124.327 53.7836C123.808 52.3679 123.546 50.8846 123.544 49.3718C123.543 48.9133 123.57 48.4479 123.617 47.9894C125.774 41.9283 133.385 38.6931 141.348 40.46C145.622 41.4085 149.412 43.7352 151.763 46.8554C151.923 47.6671 152.005 48.4985 152.005 49.3302C152.005 50.8399 151.745 52.3265 151.225 53.7446C151.177 53.877 151.204 54.0262 151.294 54.1335C152.136 55.1335 152.563 56.1923 152.562 57.2862C152.564 61.2941 146.676 64.7288 139.153 65.1123Z" fill="#6C6C6C"/>
<path d="M142.589 41.6907C140.728 41.6937 139.045 42.4566 137.831 43.6836C136.61 42.3957 134.882 41.5911 132.965 41.5949C127.919 41.6034 123.465 47.7479 127.564 52.236C126.106 51.8357 125.007 52.8264 123.964 53.9248C123.698 54.2417 123.468 54.5721 123.276 54.9083C124.91 59.6256 129.65 63.6783 135.868 65.0581C136.977 65.3041 138.078 65.4504 139.159 65.5102C146.9 65.1222 152.967 61.5867 152.964 57.2897C152.965 56.0742 152.478 54.9198 151.604 53.8836C150.46 53.0045 149.079 52.6964 147.462 52.9593C148.591 51.7583 149.282 50.1449 149.282 48.3674C149.281 44.675 146.284 41.6843 142.589 41.6907Z" fill="#FFCAA1"/>
<path d="M122.889 49.0692C122.455 51.0145 122.604 52.9807 123.24 54.8456C123.424 54.529 123.644 54.2203 123.894 53.9184C123.372 52.4969 123.088 50.967 123.088 49.373C123.086 48.9542 123.108 48.5379 123.144 48.125C123.046 48.4342 122.96 48.7488 122.889 49.0692Z" fill="#FFCAA1"/>
<path fill-rule="evenodd" clip-rule="evenodd" d="M123.155 55.2296C123.17 55.233 123.185 55.2355 123.201 55.2372C123.356 55.2531 123.506 55.1777 123.583 55.0439C123.755 54.7484 123.961 54.4551 124.199 54.1717C124.289 54.062 124.317 53.9146 124.267 53.7817C123.749 52.3664 123.484 50.883 123.484 49.3712C123.484 48.9711 123.503 48.5649 123.54 48.1601C123.559 47.9577 123.425 47.7744 123.227 47.7358C123.029 47.6971 122.834 47.8101 122.77 48.0025C122.665 48.3288 122.576 48.656 122.504 48.9814C122.064 50.9545 122.186 52.9704 122.868 54.9726C122.913 55.1044 123.021 55.1999 123.155 55.2296ZM123.449 53.8411C123.426 53.8713 123.403 53.9014 123.378 53.9313C123.291 53.5959 123.22 53.2606 123.166 52.9256C123.249 53.2335 123.343 53.5387 123.449 53.8411Z" fill="#6C6C6C"/>
<path d="M123.095 54.3874C123.328 54.3304 123.542 54.2375 123.737 54.1138C123.789 54.046 123.84 53.9832 123.895 53.9159C123.466 52.7484 123.198 51.5051 123.115 50.2155C122.984 50.1839 122.846 50.1612 122.707 50.1542C122.545 51.5826 122.69 53.0104 123.095 54.3874Z" fill="#FF9999"/>
<path fill-rule="evenodd" clip-rule="evenodd" d="M123.008 54.7763C123.066 54.7892 123.127 54.7894 123.189 54.774C123.458 54.7066 123.715 54.5995 123.95 54.4477C123.987 54.4242 124.018 54.3939 124.046 54.3605C124.095 54.2972 124.146 54.2343 124.197 54.1715C124.287 54.0644 124.312 53.9164 124.265 53.7841C123.842 52.6283 123.587 51.4197 123.509 50.1921C123.497 50.0199 123.375 49.8764 123.21 49.8344C123.049 49.796 122.887 49.7708 122.728 49.7619C122.519 49.7499 122.336 49.9027 122.313 50.1122C122.148 51.5664 122.285 53.0427 122.717 54.5024C122.759 54.6443 122.874 54.7466 123.008 54.7763ZM123.441 53.8316C123.415 53.847 123.389 53.8615 123.363 53.8751C123.285 53.5666 123.22 53.2583 123.169 52.9503C123.251 53.2474 123.342 53.5412 123.441 53.8316Z" fill="#6C6C6C"/>
<path d="M137.332 55.3121C137.353 56.067 137.357 56.5712 137.356 57.6489C137.356 57.8369 137.488 57.9958 137.664 58.035C137.693 58.0414 137.721 58.0442 137.75 58.0434C137.97 58.0445 138.147 57.8668 138.148 57.6499C138.148 56.5094 138.142 56.0066 138.119 55.1776C138.429 54.9035 138.868 54.8224 139.264 54.9786C139.466 55.0579 139.695 54.9578 139.777 54.7563C139.857 54.5542 139.757 54.3231 139.555 54.2438C138.902 53.987 138.184 54.1062 137.659 54.5319C137.133 54.1193 136.41 54.0019 135.774 54.2547C135.57 54.3366 135.471 54.5661 135.55 54.769C135.633 54.9699 135.862 55.0711 136.066 54.9892C136.511 54.8124 137.028 54.9453 137.332 55.3121Z" fill="#6C6C6C"/>
<g opacity="0.3">
<g opacity="0.3">
<path opacity="0.3" d="M148.51 55.7461C147.734 57.4758 145.699 58.7116 143.92 59.8345C147.26 59.1681 149.089 58.0633 149.407 56.5199C149.594 55.4701 149.798 55.3405 148.51 55.7461Z" fill="#6C6C6C"/>
</g>
</g>
<path d="M131.208 56.1663C130.325 55.712 129.524 56.0751 130.054 57.3834C132.326 62.9998 142.927 63.2115 145.433 57.6883C146.016 56.4028 145.232 56.008 144.33 56.4286C140.39 58.2658 135.069 58.1595 131.208 56.1663Z" fill="white"/>
<path fill-rule="evenodd" clip-rule="evenodd" d="M135.214 61.6046C135.983 61.7924 136.801 61.8979 137.653 61.9157C141.298 61.9867 144.414 60.3796 145.606 57.8152C145.623 57.7901 145.636 57.7625 145.643 57.7338C146.019 56.8783 145.787 56.4624 145.61 56.288C145.318 55.9998 144.794 55.9803 144.243 56.2369C140.333 58.0559 135.135 57.9535 131.306 55.9807C130.768 55.7017 130.243 55.7015 129.939 55.9794C129.753 56.1474 129.497 56.565 129.859 57.4621C130.679 59.4827 132.672 60.9843 135.214 61.6046ZM137.661 61.4927C140.801 61.5554 143.519 60.3305 144.844 58.3177C144.455 58.5265 144.049 58.6949 143.639 58.8379C142.976 59.0671 142.298 59.2305 141.616 59.3609C141.55 59.3734 141.487 59.3331 141.469 59.2683C141.452 59.2018 141.492 59.1317 141.561 59.1146C142.223 58.942 142.875 58.7368 143.499 58.4731C144.12 58.2086 144.715 57.8844 145.216 57.4664L145.218 57.4652L145.232 57.4542C145.259 57.4352 145.288 57.4217 145.317 57.4136C145.459 57.0295 145.46 56.7339 145.314 56.5889C145.268 56.5439 145.206 56.5129 145.134 56.4952C144.95 56.4505 144.693 56.4925 144.421 56.6183C140.399 58.4898 135.051 58.3844 131.113 56.3548C130.739 56.1641 130.392 56.1378 130.224 56.2907C130.07 56.4309 130.058 56.7279 130.186 57.1192C130.223 57.1299 130.259 57.1491 130.29 57.177L130.292 57.1774C130.784 57.6157 131.375 57.9644 131.993 58.2522C132.613 58.5404 133.267 58.7711 133.93 58.9703C133.988 58.988 134.022 59.046 134.009 59.1051C133.995 59.1676 133.934 59.206 133.872 59.1925C133.188 59.0399 132.507 58.8541 131.845 58.6017C131.425 58.4415 131.009 58.2544 130.612 58.0242C131.847 60.0951 134.517 61.4318 137.661 61.4927Z" fill="#6C6C6C"/>
<path fill-rule="evenodd" clip-rule="evenodd" d="M139.128 65.8915C138.01 65.8316 136.882 65.6741 135.774 65.4285C132.71 64.749 129.882 63.4021 127.595 61.5295C125.36 59.6999 123.736 57.4555 122.897 55.0355C122.86 54.9268 122.87 54.81 122.927 54.7113C123.093 54.4174 123.287 54.1271 123.512 53.846C123.009 52.406 122.757 50.9048 122.756 49.3775C122.754 48.8743 122.783 48.3646 122.839 47.8636C122.842 47.8343 122.849 47.8049 122.859 47.7754C123.946 44.6737 126.454 42.1384 129.913 40.637C133.37 39.1382 137.49 38.805 141.518 39.6982C146.006 40.6933 149.989 43.1564 152.446 46.4591C152.481 46.5039 152.504 46.5565 152.518 46.6151C152.698 47.5046 152.791 48.4172 152.791 49.3303C152.792 50.8576 152.538 52.3603 152.039 53.8006C152.908 54.8931 153.348 56.0652 153.35 57.2804C153.351 61.7852 147.255 65.4863 139.17 65.8904C139.156 65.8924 139.141 65.8928 139.128 65.8915ZM135.946 64.6593C137.003 64.8938 138.083 65.0431 139.15 65.1025C146.672 64.719 152.559 61.2867 152.557 57.282C152.558 56.189 152.132 55.1312 151.29 54.132C151.257 54.093 151.232 54.0485 151.217 54.0013C150.174 53.2748 148.956 53.0359 147.5 53.2704C147.349 53.2951 147.193 53.1996 147.146 53.0517C147.115 52.9441 147.141 52.8256 147.221 52.7427C148.339 51.556 148.955 50.0042 148.954 48.3735C148.953 44.8639 146.091 42.0113 142.577 42.0156C140.862 42.0192 139.254 42.6949 138.047 43.9146C137.988 43.9757 137.904 44.0099 137.82 44.0072C137.732 44.0063 137.65 43.9722 137.593 43.9092C136.374 42.6254 134.728 41.919 132.958 41.9209C130.578 41.9252 128.266 43.5509 127.2 45.9639C126.181 48.271 126.575 50.7455 128.252 52.581C128.345 52.6864 128.361 52.8408 128.287 52.9593C128.212 53.0804 128.068 53.1356 127.932 53.1003C126.66 52.7505 125.306 53.0882 124.349 53.9834C124.338 54.0528 124.309 54.119 124.262 54.1739C124.05 54.4258 123.863 54.6833 123.703 54.947C125.414 59.6458 130.087 63.3603 135.946 64.6593ZM151.361 53.3387C151.787 52.0446 152.001 50.698 152.001 49.3325C152.001 48.5015 151.919 47.6707 151.758 46.8596C149.408 43.7421 145.619 41.4174 141.346 40.4699C133.385 38.7047 125.776 41.9377 123.618 47.994C123.572 48.4521 123.545 48.9172 123.546 49.3753C123.547 50.7178 123.754 52.037 124.164 53.3062C125.035 52.6046 126.137 52.2628 127.246 52.3421C125.858 50.4066 125.618 47.9845 126.621 45.7085C127.785 43.0711 130.333 41.2937 132.958 41.291C134.797 41.2885 136.514 41.9787 137.827 43.2493C139.124 42.0466 140.799 41.3885 142.577 41.3858C146.441 41.3797 149.585 44.5143 149.587 48.3736C149.586 49.8953 149.098 51.3566 148.196 52.5619C149.377 52.5035 150.438 52.7625 151.361 53.3387Z" fill="#6C6C6C"/>
<path d="M160.905 47.275C158.822 47.1121 156.975 48.9511 156.782 51.3845C156.589 53.818 158.12 55.9216 160.203 56.0845C162.286 56.2499 164.133 54.4084 164.326 51.975C164.519 49.5415 162.986 47.4374 160.905 47.275Z" fill="#6A6A6A"/>
<path fill-rule="evenodd" clip-rule="evenodd" d="M159.64 56.49C159.811 56.5281 159.987 56.5538 160.166 56.567C161.311 56.657 162.428 56.224 163.307 55.349C164.165 54.4933 164.694 53.3103 164.796 52.0219C165.012 49.3313 163.279 46.9948 160.941 46.8098C158.6 46.6268 156.521 48.6657 156.307 51.3569C156.205 52.6452 156.541 53.8956 157.253 54.8745C157.869 55.7211 158.703 56.2822 159.64 56.49ZM161.252 47.8138C162.87 48.1728 164.011 49.9355 163.851 51.9473C163.767 53.0119 163.336 53.981 162.637 54.6788C161.957 55.3541 161.106 55.6897 160.239 55.6218C159.374 55.5545 158.585 55.0906 158.021 54.3167C157.441 53.518 157.169 52.4936 157.253 51.4289C157.427 49.2613 159.047 47.6133 160.865 47.7544C160.997 47.766 161.126 47.7858 161.252 47.8138Z" fill="#6A6A6A"/>
<path d="M161.803 55.8199C163.162 55.2287 164.191 53.7645 164.334 51.9822C164.493 49.9649 163.467 48.1747 161.926 47.5284C161.846 47.5105 161.761 47.4996 161.675 47.4937C160.016 47.3642 158.525 49.1417 158.338 51.4652C158.154 53.7867 159.347 55.7755 161.005 55.9051C161.278 55.9286 161.545 55.8976 161.803 55.8199Z" fill="#6A6A6A"/>
<path fill-rule="evenodd" clip-rule="evenodd" d="M160.596 56.2479C160.715 56.2744 160.836 56.2923 160.958 56.3016C161.273 56.3265 161.59 56.2936 161.899 56.2007C161.914 56.1969 161.93 56.1915 161.945 56.1844C163.477 55.5178 164.563 53.8809 164.712 52.015C164.88 49.8833 163.794 47.889 162.064 47.1637C162.04 47.1547 162.014 47.1472 161.987 47.1412C161.885 47.1214 161.785 47.1071 161.689 47.099C159.819 46.9543 158.132 48.8975 157.929 51.4347C157.833 52.6395 158.081 53.8043 158.626 54.7118C159.122 55.5395 159.813 56.0743 160.596 56.2479ZM161.654 55.4496C161.444 55.5091 161.23 55.5305 161.022 55.5135C160.351 55.4598 159.742 55.0308 159.305 54.3061C158.843 53.5364 158.634 52.5391 158.718 51.4958C158.886 49.393 160.19 47.7754 161.627 47.8877C161.682 47.8929 161.738 47.9 161.794 47.909C163.192 48.5184 164.065 50.174 163.923 51.9538C163.798 53.5231 162.909 54.8913 161.654 55.4496Z" fill="#6A6A6A"/>
<path d="M149.054 34.8325C148.08 36.6323 148.936 37.0975 150.786 36.1676C152.152 35.4826 153.62 35.3181 155.006 35.2787C156.559 34.129 155.364 31.9542 152.816 32.3771C151.551 32.5124 149.983 33.118 149.054 34.8325Z" fill="white"/>
<path fill-rule="evenodd" clip-rule="evenodd" d="M148.967 37.0748C149.457 37.1835 150.137 37.0217 150.997 36.5874C152.345 35.9118 153.786 35.7837 155.018 35.7497C155.114 35.7446 155.209 35.7126 155.288 35.656C156.088 35.0627 156.376 34.1386 156.022 33.3051C155.64 32.402 154.48 31.62 152.75 31.9037C151.691 32.0184 149.761 32.5226 148.634 34.6036C148.087 35.6161 148.024 36.3516 148.45 36.7932C148.59 36.9354 148.762 37.0293 148.967 37.0748ZM154.831 34.8051C153.597 34.8492 152.031 35.0075 150.571 35.7407C149.595 36.2314 149.187 36.1727 149.13 36.1309C149.133 36.1315 149.023 35.8766 149.469 35.0537C150.393 33.3463 151.992 32.9381 152.863 32.8453C152.872 32.8438 152.881 32.8423 152.89 32.8408C154.12 32.6368 154.909 33.1139 155.15 33.6757C155.317 34.0758 155.203 34.4797 154.831 34.8051Z" fill="#64EDFF"/>
<path d="M128.092 34.5339C127.937 34.9683 128.242 35.4412 128.668 35.6205C129.092 35.8018 129.649 35.7004 129.851 35.2842C130.676 33.5815 132.326 32.1013 134.069 31.328C132.243 29.7152 129.903 29.3868 128.092 34.5339Z" fill="white"/>
<path fill-rule="evenodd" clip-rule="evenodd" d="M128.752 36.1317C129.325 36.2588 130.005 36.0707 130.29 35.4824C131.037 33.9397 132.565 32.5092 134.272 31.7544C134.419 31.6891 134.524 31.5533 134.549 31.3921C134.574 31.2334 134.517 31.0724 134.395 30.9659C133.274 29.9729 132.176 29.6076 131.136 29.8774C129.749 30.2399 128.577 31.7493 127.654 34.3679C127.428 35.0143 127.795 35.7527 128.492 36.0477C128.574 36.0844 128.663 36.1121 128.752 36.1317ZM133.194 31.2319C131.577 32.1285 130.174 33.5469 129.436 35.0705C129.358 35.2332 129.065 35.261 128.864 35.1767C128.664 35.0898 128.487 34.8625 128.55 34.6833C129.349 32.413 130.327 31.0674 131.373 30.7962C131.93 30.6496 132.541 30.7983 133.194 31.2319Z" fill="#64EDFF"/>
<g opacity="0.3">
<g opacity="0.3">
<path opacity="0.3" d="M162.656 51.991C162.566 53.6765 161.649 55.2103 160.207 56.0927C162.419 56.0351 164.218 54.2866 164.337 52.0779C164.457 49.8693 162.858 47.9415 160.663 47.6506C162.002 48.6785 162.747 50.3029 162.656 51.991Z" fill="#6C6C6C"/>
</g>
</g>
<g opacity="0.3">
<g opacity="0.3">
<path opacity="0.3" d="M130.183 35.5707C131.46 34.2702 133.187 33.2141 135.362 32.4023C136.456 30.9182 136.025 30.5577 134.067 31.3205C132.849 31.6013 131.553 33.0168 130.183 35.5707Z" fill="#6C6C6C"/>
</g>
</g>
<g opacity="0.3">
<g opacity="0.3">
<path opacity="0.3" d="M155.417 33.1847C155.011 32.5833 154.214 32.3881 153.576 32.7338C153.999 32.6423 154.423 32.8794 154.565 33.2871C154.704 33.6967 154.56 34.282 154.132 34.3354C152.368 34.5612 150.639 35.0544 148.979 36.2251C149.704 36.4655 151.759 36.0773 155.144 35.0606C155.706 34.5997 155.824 33.7861 155.417 33.1847Z" fill="#6C6C6C"/>
</g>
</g>
<g opacity="0.3">
<g opacity="0.3">
<path opacity="0.3" d="M133.178 30.8218C130.585 32.1075 129.233 33.6746 129.123 35.5234C130.431 34.004 131.9 32.6701 133.528 31.5218C133.574 31.5302 133.457 31.2968 133.178 30.8218Z" fill="#6C6C6C"/>
</g>
</g>
<path fill-rule="evenodd" clip-rule="evenodd" d="M136.114 65.0787C144.971 67.044 153.457 62.9011 155.032 55.8444C156.606 48.7877 150.681 41.447 141.825 39.4818C132.968 37.5165 124.481 41.6594 122.907 48.7161C121.333 55.7728 127.258 63.1134 136.114 65.0787ZM141.687 40.0976C150.203 41.9872 155.911 48.9911 154.413 55.7071C152.915 62.4231 144.768 66.35 136.252 64.4604C127.736 62.5707 122.028 55.5693 123.526 48.8534C125.024 42.1374 133.171 38.208 141.687 40.0976Z" fill="#6C6C6C"/>
<path d="M130.499 50.5049C130.696 52.0317 131.651 53.1069 132.633 52.9063C133.613 52.7052 134.252 51.3053 134.055 49.7784C133.858 48.2516 132.903 47.1764 131.921 47.377C130.938 47.5776 130.302 48.978 130.499 50.5049Z" fill="#6C6C6C"/>
<path d="M131.195 48.7627C131.066 49.2797 131.223 49.791 131.542 49.9042C131.861 50.0149 132.224 49.6848 132.353 49.1653C132.479 48.6477 132.323 48.1339 132.004 48.0232C131.684 47.9125 131.322 48.2426 131.195 48.7627Z" fill="white"/>
<path d="M132.709 51.4977C132.593 51.7473 132.621 52.0344 132.773 52.1395C132.927 52.2426 133.147 52.1245 133.263 51.875C133.38 51.6254 133.351 51.3383 133.197 51.2327C133.045 51.1301 132.826 51.2482 132.709 51.4977Z" fill="white"/>
<path d="M143.171 47.6836C142.216 47.5115 141.317 48.5753 141.161 50.0557C141.002 51.5381 141.649 52.8761 142.602 53.045C143.555 53.2166 144.457 52.1533 144.612 50.6729C144.769 49.19 144.124 47.8526 143.171 47.6836Z" fill="#6C6C6C"/>
<path d="M143.092 48.2853C142.786 48.4 142.645 48.8986 142.781 49.3973C142.916 49.8961 143.273 50.2083 143.58 50.0911C143.886 49.9763 144.026 49.4778 143.891 48.979C143.756 48.4803 143.399 48.1705 143.092 48.2853Z" fill="white"/>
<path d="M142.018 51.4304C141.87 51.5353 141.847 51.8137 141.966 52.052C142.085 52.2903 142.299 52.4013 142.447 52.2964C142.592 52.1909 142.615 51.9125 142.496 51.6742C142.377 51.4359 142.162 51.3274 142.018 51.4304Z" fill="white"/>
<g opacity="0.2">
<g opacity="0.2">
<g opacity="0.2">
<path opacity="0.2" d="M152.106 52.1374C152.303 51.23 152.406 50.2938 152.405 49.332C152.406 48.4286 152.313 47.5471 152.138 46.6923C149.814 43.5695 146.028 41.0947 141.437 40.0761C133.239 38.2567 125.397 41.7278 123.232 47.9052C123.177 48.3885 123.149 48.8804 123.15 49.3785C123.149 49.4049 123.151 49.4293 123.151 49.4557C125.564 43.6036 133.193 40.374 141.159 42.1418C145.75 43.1605 149.536 45.6353 151.86 48.758C152.035 49.6129 152.128 50.4944 152.127 51.3978C152.128 51.6468 152.118 51.8911 152.106 52.1374Z" fill="#6C6C6C"/>
</g>
</g>
<g opacity="0.2">
<g opacity="0.2">
<path opacity="0.2" d="M123.315 54.8208C123.299 54.8463 123.283 54.8718 123.269 54.8979C123.369 55.1866 123.48 55.4726 123.602 55.7557C123.496 55.4488 123.398 55.1359 123.315 54.8208Z" fill="#6C6C6C"/>
</g>
</g>
</g>
<path fill-rule="evenodd" clip-rule="evenodd" d="M143.78 25.8158C144.204 27.3529 143.992 28.8906 143.664 29.8508L142.786 29.5519C143.067 28.7314 143.251 27.3864 142.886 26.0627C142.528 24.7628 141.636 23.4608 139.709 22.6714L140.062 21.8139C142.268 22.7179 143.35 24.2548 143.78 25.8158Z" fill="#64EDFF"/>
<path d="M141.727 22.5015C141.534 23.3657 140.677 23.9107 139.813 23.7188C138.948 23.5269 138.404 22.6708 138.596 21.8067C138.789 20.9425 139.646 20.3975 140.511 20.5893C141.375 20.7812 141.92 21.6373 141.727 22.5015Z" fill="#64EDFF"/>
<path fill-rule="evenodd" clip-rule="evenodd" d="M147.782 23.9353C147.782 23.9352 147.781 23.9393 147.777 23.9478C147.779 23.9396 147.781 23.9354 147.782 23.9353ZM147.526 24.2431C147.315 24.2131 147.036 24.1984 146.687 24.2106C145.677 24.2459 144.289 24.4975 142.781 24.9767C141.274 25.456 139.996 26.0515 139.15 26.606C138.858 26.7976 138.639 26.9706 138.484 27.1166C138.695 27.1466 138.974 27.1613 139.323 27.1491C140.333 27.1138 141.721 26.8622 143.229 26.383C144.736 25.9038 146.014 25.3082 146.86 24.7537C147.152 24.5621 147.371 24.3891 147.526 24.2431ZM138.097 27.0133C138.098 27.0131 138.102 27.0154 138.109 27.0205C138.1 27.0161 138.097 27.0135 138.097 27.0133ZM138.228 27.4245C138.228 27.4245 138.229 27.4204 138.233 27.4119C138.231 27.4201 138.229 27.4244 138.228 27.4245ZM147.901 24.3392C147.91 24.3436 147.913 24.3462 147.913 24.3464C147.912 24.3466 147.908 24.3444 147.901 24.3392ZM143.509 27.2653C146.639 26.2706 148.95 24.7544 148.672 23.8788C148.393 23.0031 145.631 23.0997 142.501 24.0944C139.371 25.0891 137.06 26.6053 137.338 27.481C137.617 28.3566 140.379 28.26 143.509 27.2653Z" fill="#64EDFF"/>
<path d="M154.513 64.9751C154.402 66.151 154.044 67.4816 152.019 68.5195C154.554 70.2691 156.305 73.1226 158.504 76.4735C160.015 78.7759 159.209 83.8851 155.503 83.1034C151.964 82.5568 149.613 80.2799 148.5 78.339C146.618 74.083 145.307 69.8302 145.81 67.9338C146.118 66.7748 147.538 66.1254 149.304 65.2396C152.025 63.8756 150.782 62.7272 152.39 62.2909C153.277 62.0504 154.639 63.6446 154.513 64.9751Z" fill="url(#paint6_linear_29914_67832)"/>
<path d="M152.019 68.5195C154.044 67.4816 154.402 66.151 154.513 64.9751C154.639 63.6446 153.277 62.0504 152.39 62.2909C150.782 62.7272 152.025 63.8756 149.304 65.2396C147.538 66.1254 146.118 66.7748 145.81 67.9338C145.615 68.6718 145.694 69.7666 145.974 71.0796C149.102 70.1092 150.559 69.5533 152.019 68.5195Z" fill="url(#paint7_linear_29914_67832)"/>
<path d="M125.185 73.7043C125.457 74.8754 127.501 77.7087 129.754 77.8649C131.59 77.9923 132.177 73.6362 132.16 71.0021L132.839 66.9245C132.839 66.9245 131.289 66.2684 128.534 64.5161C125.78 62.7639 123.332 59.2762 122.8 59.4089C122.268 59.542 122.715 61.5033 123.287 62.8301C124.063 64.6285 126.07 67.0023 126.07 67.0023C126.07 67.0023 124.48 70.6596 125.185 73.7043Z" fill="url(#paint8_linear_29914_67832)"/>
<path d="M123.287 62.8303C124.063 64.6287 126.07 67.0026 126.07 67.0026C128.289 68.0259 129.676 68.3928 132.591 68.4134C132.591 68.4134 132.822 67.5139 132.839 66.9248C132.884 65.3092 131.105 65.8775 128.351 64.1252C125.596 62.373 123.332 59.2765 122.8 59.4092C122.268 59.5423 122.715 61.5036 123.287 62.8303Z" fill="url(#paint9_linear_29914_67832)"/>
<path d="M137.211 75.5448L136.154 74.1492L144.195 77.0676L146.046 79.1863" stroke="#64EDFF" stroke-width="0.224077" stroke-linecap="round" stroke-linejoin="round"/>
<path d="M176.655 38.5188C179.287 37.8353 193.7 39.0331 194.431 42.3357C194.501 42.655 194.471 42.9577 194.35 43.2465C193.8 44.5936 191.601 47.0378 188.932 47.7093C186.26 48.3855 183.112 47.2924 183.112 47.2924L175.321 43.8467C175.321 43.8467 175.163 41.7318 175.542 39.8141C175.661 39.181 175.997 38.6912 176.656 38.5141L176.655 38.5188Z" fill="#C6681B"/>
<path d="M176.658 38.5229C179.291 37.8394 193.704 39.0371 194.435 42.3398C194.505 42.6591 194.449 43.4715 193.833 44.2775C191.264 42.8786 184.955 39.9698 175.349 40.7649C175.482 39.3594 176.001 38.6953 176.66 38.5182L176.658 38.5229Z" fill="#2355BB"/>
<path d="M194.009 49.0021C196.812 48.2742 212.161 49.5498 212.939 53.0668C213.014 53.4068 212.982 53.7292 212.853 54.0368C212.268 55.4713 209.926 58.0742 207.083 58.7893C204.238 59.5094 200.886 58.3453 200.886 58.3453L192.589 54.6759C192.589 54.6759 192.42 52.4237 192.824 50.3815C192.951 49.7073 193.309 49.1857 194.011 48.9971L194.009 49.0021Z" fill="url(#paint10_linear_29914_67832)"/>
<path d="M194.014 49.0062C196.818 48.2783 212.166 49.5538 212.945 53.0709C213.019 53.4109 213.085 54.3005 212.137 55.1831C209.401 53.6934 202.866 50.381 192.636 51.2277C192.777 49.7306 193.314 49.1898 194.016 49.0012L194.014 49.0062Z" fill="#3167D5"/>
<g opacity="0.3" filter="url(#filter1_f_29914_67832)">
<path d="M117.824 107.74C123.205 110.046 127.51 108.201 127.51 108.201L152.618 116.967C153.17 117.159 153.78 117.079 154.263 116.751L180.488 98.9348C180.951 98.6205 180.788 97.9018 180.235 97.818L176.712 97.2843L151.804 114.351C151.804 114.351 137.589 110.58 127.51 107.74C124.229 106.815 120.437 106.817 117.824 107.74Z" fill="#333333"/>
<path d="M111.827 102.666C111.827 102.666 115.064 106.557 117.824 107.74C117.824 107.74 116.488 103.661 114.287 102.666C107.829 99.7444 89.686 94.0554 89.686 94.0554L87.3511 94.8059C86.7687 94.9931 86.787 95.8234 87.3772 95.9847L111.827 102.666Z" fill="#333333"/>
<path d="M127.51 107.74C137.589 110.58 151.804 114.351 151.804 114.351L146.115 103.348C138.02 99.7795 132.945 99.2989 123.648 99.1293C123.648 99.1293 119.325 104.289 117.824 107.74C120.437 106.817 124.229 106.815 127.51 107.74Z" fill="#333333"/>
<path d="M95.8363 87.2901L89.686 94.0554C89.686 94.0554 107.829 99.7444 114.287 102.666C116.488 103.661 117.824 107.74 117.824 107.74C123.334 94.8155 113.792 91.9941 95.8363 87.2901Z" fill="#333333"/>
<path fill-rule="evenodd" clip-rule="evenodd" d="M117.824 107.74C123.334 94.8155 113.792 91.9941 95.8363 87.2901L122.129 74.3745C125.227 76.479 128.814 77.6944 132.147 78.8236C137.579 80.6645 142.336 82.276 143.193 87.1363C154.112 82.9444 158.17 84.8716 162.734 87.0397C165.368 88.291 168.172 89.6226 172.561 89.9039L146.115 103.348C138.02 99.7795 132.945 99.2989 123.648 99.1293C123.648 99.1293 119.325 104.289 117.824 107.74Z" fill="#333333"/>
<path d="M176.712 97.2843L172.561 89.9039L146.115 103.348L151.804 114.351L176.712 97.2843Z" fill="#333333"/>
</g>
<path d="M117.443 106.029C122.824 108.335 127.129 106.49 127.129 106.49L152.237 115.256C152.789 115.448 153.399 115.368 153.882 115.04L180.107 97.2239C180.57 96.9095 180.407 96.1908 179.854 96.107L176.331 95.5733L151.423 112.64C151.423 112.64 137.208 108.869 127.129 106.029C123.849 105.104 120.057 105.106 117.443 106.029Z" fill="#EB920E"/>
<path d="M111.446 100.955C111.446 100.955 114.683 104.846 117.443 106.029C117.443 106.029 116.107 101.95 113.906 100.955C107.448 98.0334 89.3052 92.3444 89.3052 92.3444L86.9702 93.0949C86.3878 93.2822 86.4062 94.1125 86.9963 94.2737L111.446 100.955Z" fill="#EB920E"/>
<path d="M127.129 106.029C137.208 108.869 151.423 112.64 151.423 112.64L145.734 101.637C137.639 98.0685 132.564 97.588 123.267 97.4184C123.267 97.4184 118.944 102.578 117.443 106.029C120.057 105.106 123.849 105.104 127.129 106.029Z" fill="#FFE8AC"/>
<path d="M95.4555 85.5791L89.3052 92.3444C89.3052 92.3444 107.448 98.0334 113.906 100.955C116.107 101.95 117.443 106.029 117.443 106.029C122.953 93.1046 113.411 90.2832 95.4555 85.5791Z" fill="#FFE8AC"/>
<path fill-rule="evenodd" clip-rule="evenodd" d="M117.443 106.029C122.953 93.1046 113.411 90.2832 95.4555 85.5791L121.748 72.6636C124.846 74.768 128.433 75.9835 131.766 77.1127C137.199 78.9535 141.955 80.5651 142.812 85.4254C153.731 81.2334 157.789 83.1607 162.353 85.3287C164.988 86.5801 167.791 87.9117 172.18 88.193L145.734 101.637C137.639 98.0685 132.564 97.588 123.267 97.4184C123.267 97.4184 118.944 102.578 117.443 106.029Z" fill="#FFF3D2"/>
<path d="M176.331 95.5733L172.18 88.193L145.734 101.637L151.423 112.64L176.331 95.5733Z" fill="#F7DFA2"/>
<g opacity="0.3" filter="url(#filter2_f_29914_67832)">
<path d="M142.965 85.7331C133.912 90.1561 127.279 93.6326 122.977 97.8798C122.865 98.014 122.561 98.4027 122.362 98.6486C121.964 99.1405 121.417 99.8487 120.824 100.647C119.634 102.251 118.331 104.184 117.595 105.875H117.441C118.207 104.116 119.322 101.932 120.516 100.324C121.115 99.5163 121.667 98.8177 122.069 98.3208C122.27 98.0723 122.556 98.0161 122.669 97.8798C127.055 93.546 133.303 89.8454 142.35 85.4255H142.811L142.965 85.7331Z" fill="#BC7100"/>
</g>
<path opacity="0.3" d="M122.979 99.8785C125.592 97.8797 138.354 99.8785 143.889 102.8M126.515 101.416C133.584 101.124 138.303 102.457 144.812 105.106M124.362 102.8C128.206 102.185 136.523 102.812 143.889 106.336M128.206 105.26C135.025 105.507 139.154 106.851 146.042 109.873" stroke="#784800" stroke-width="0.0950463" stroke-linecap="round"/>
<path opacity="0.25" d="M149.117 103.107L159.265 97.7255M161.879 100.032L165.262 97.7255M164.493 100.032L173.257 94.4966M152.346 103.107L167.414 94.4966M153.422 106.951L161.879 101.877M157.728 106.951L168.952 99.1093" stroke="#784800" stroke-width="0.0950463" stroke-linecap="round"/>
<path opacity="0.25" d="M96.2241 87.8856C96.2241 87.8856 107.295 89.8844 112.215 93.5746C114.533 95.3133 116.366 99.7248 116.366 99.7248M96.6854 90.4994C100.301 91.1831 102.365 91.7461 106.218 93.5746M102.836 94.1896C102.836 94.1896 108.148 94.6884 110.37 96.1884C111.707 97.0913 113.291 99.1098 113.291 99.1098M112.215 95.5734C112.957 96.2295 113.334 96.6843 113.906 97.726M93.3027 92.037C97.5874 93.1551 99.8729 93.9483 103.758 95.5734M119.882 91.3878L106.218 84.9247M123.494 90.4994C117.133 86.79 113.896 85.1354 108.476 82.6436M126.82 87.8856C121.116 85.0961 117.919 83.5321 112.215 80.7426M129.767 84.9247C124.547 81.7709 121.61 80.5232 116.366 78.6516M146.685 97.726L140.792 96.1884M149.821 95.5734C144.265 93.6821 141.143 92.9417 135.565 92.037M154.764 92.6234C149.562 90.174 146.488 89.4872 140.792 89.2018M159.231 89.772C154.212 87.5631 151.475 86.9859 146.685 86.7305" stroke="#784800" stroke-width="0.0950463" stroke-linecap="round"/>
<circle cx="226.668" cy="33.9906" r="3.04845" fill="#C23333"/>
<g filter="url(#filter3_f_29914_67832)">
<ellipse cx="226.765" cy="33.5143" rx="2.76266" ry="2.57213" fill="#F05C5C"/>
</g>
<g filter="url(#filter4_f_29914_67832)">
<ellipse cx="227.049" cy="32.0858" rx="1.3337" ry="0.762112" fill="#FFBDBD"/>
</g>
<g filter="url(#filter5_f_29914_67832)">
<path fill-rule="evenodd" clip-rule="evenodd" d="M232.956 34.1817C232.956 34.8131 230.056 35.3249 226.478 35.3249C222.9 35.3249 220 34.8131 220 34.1817C220 33.7225 221.535 33.3264 223.749 33.1447L223.67 33.397C222.041 33.5686 220.953 33.8802 220.953 34.2362C220.953 34.7774 223.469 35.216 226.573 35.216C229.677 35.216 232.194 34.7774 232.194 34.2362C232.194 33.8942 231.189 33.5931 229.666 33.4178L229.608 33.1807C231.604 33.3755 232.956 33.7508 232.956 34.1817Z" fill="white"/>
</g>
<g filter="url(#filter6_f_29914_67832)">
<path fill-rule="evenodd" clip-rule="evenodd" d="M229.716 28.5717C230.263 28.8873 229.256 31.655 227.467 34.7533C225.678 37.8517 223.785 40.1075 223.238 39.7918C222.832 39.5572 223.283 37.9686 224.276 35.8964L224.454 36.0869C223.745 37.6513 223.444 38.8107 223.762 38.994C224.23 39.2646 225.868 37.3047 227.42 34.6164C228.972 31.9281 229.851 29.5295 229.382 29.2589C229.086 29.0879 228.323 29.8072 227.41 31.0379L227.166 30.9837C228.336 29.3445 229.342 28.3556 229.716 28.5717Z" fill="white"/>
</g>
<g filter="url(#filter7_f_29914_67832)">
<path fill-rule="evenodd" clip-rule="evenodd" d="M223.239 28.5717C222.692 28.8873 223.699 31.655 225.488 34.7533C227.277 37.8517 229.17 40.1075 229.717 39.7918C230.105 39.5676 229.71 38.106 228.807 36.1675L228.611 36.3338C229.241 37.7723 229.494 38.8205 229.194 38.994C228.725 39.2646 227.087 37.3047 225.535 34.6164C223.983 31.9281 223.104 29.5295 223.573 29.2589C223.877 29.0836 224.671 29.8445 225.615 31.1332L225.843 31.0584C224.649 29.3746 223.619 28.3523 223.239 28.5717Z" fill="white"/>
</g>
<path d="M74.8194 34.1792L72.8711 40.1267L78.4085 44.6387" stroke="url(#paint11_linear_29914_67832)" stroke-width="0.90645" stroke-linecap="round"/>
<circle cx="73.3839" cy="40.1266" r="3.38394" fill="#187480"/>
<path d="M72.256 43.3054C74.0683 43.3054 75.5374 41.8363 75.5374 40.024C75.5374 38.4025 74.3613 37.0556 72.8156 36.79C71.2173 37.0604 70 38.4514 70 40.1265C70 41.5866 70.9248 42.8307 72.2206 43.3052C72.2324 43.3052 72.2441 43.3054 72.256 43.3054Z" fill="#40A8B5"/>
<path opacity="0.6" d="M70.5797 39.8264C70.8793 39.9666 71.2993 39.7019 71.5178 39.235C71.7133 38.8173 71.6812 38.3793 71.4577 38.1913C71.1609 38.1372 70.7919 38.4014 70.5899 38.8329C70.4139 39.2091 70.4168 39.6011 70.5738 39.8236C70.5758 39.8245 70.5777 39.8255 70.5797 39.8264Z" fill="#AAF6FF"/>
<circle cx="75.2315" cy="32.7432" r="1.74324" fill="#B43939"/>
<path d="M74.3364 34.2393C73.8284 33.9347 73.4883 33.3787 73.4883 32.7432C73.4883 32.1077 73.8284 31.5518 74.3364 31.2471C74.4591 31.2197 74.5871 31.2051 74.7188 31.2051C75.6249 31.2051 76.3595 31.8936 76.3595 32.7432C76.3595 33.5928 75.6249 34.2814 74.7188 34.2814C74.5871 34.2814 74.4591 34.2668 74.3364 34.2393Z" fill="#FC7474"/>
<path d="M74.5396 33.7216C74.5353 33.5969 74.4609 33.4203 74.3319 33.2523C74.2028 33.0843 74.0514 32.9669 73.932 32.9306C73.9125 32.9341 73.895 32.9413 73.8801 32.9528C73.7775 33.0316 73.8341 33.2776 74.0066 33.5022C74.1791 33.7268 74.4022 33.8448 74.5048 33.766C74.5197 33.7545 74.5313 33.7395 74.5396 33.7216Z" fill="#FFBBBB"/>
<circle cx="79.1261" cy="45.2535" r="1.74324" fill="#B43939"/>
<path d="M78.2309 46.7496C77.7229 46.445 77.3828 45.889 77.3828 45.2535C77.3828 44.618 77.7229 44.062 78.2309 43.7574C78.3536 43.73 78.4817 43.7153 78.6133 43.7153C79.5195 43.7153 80.254 44.4039 80.254 45.2535C80.254 46.1031 79.5195 46.7916 78.6133 46.7916C78.4817 46.7916 78.3536 46.777 78.2309 46.7496Z" fill="#FC7474"/>
<path d="M77.8107 44.6542C77.9329 44.6288 78.0943 44.5257 78.2381 44.3701C78.3818 44.2144 78.4718 44.0453 78.4874 43.9215C78.4808 43.9029 78.4706 43.8869 78.4568 43.8741C78.3617 43.7863 78.1289 43.8837 77.9367 44.0918C77.7446 44.2998 77.666 44.5396 77.761 44.6274C77.7749 44.6402 77.7916 44.649 77.8107 44.6542Z" fill="#FFBBBB"/>
<path d="M86.1855 62L87.3255 62.4752M89.5322 63.3951L88.6554 63.0296M88.6554 63.0296L87.6523 65.4358C87.5514 65.6779 87.6658 65.9561 87.908 66.057V66.057M88.6554 63.0296L87.3255 62.4752M87.3255 62.4752L86.6148 64.1799C86.3524 64.8095 85.6293 65.1071 84.9997 64.8447V64.8447" stroke="white" stroke-width="0.72516" stroke-linecap="round" stroke-linejoin="round"/>
<path d="M185.324 9.18299L184.982 8.3342L181.955 9.55225L184.025 10.6734L183.308 12.916L186.336 11.6979" stroke="white" stroke-width="0.72516" stroke-linecap="round" stroke-linejoin="round"/>
<path d="M118.884 8.14285L115.949 7.01658L112.896 9.72897L112.263 8.70058" stroke="white" stroke-width="0.72516" stroke-linecap="round" stroke-linejoin="round"/>
<path d="M226 64.717L229.739 64M226.341 66.4975L230.08 65.7804" stroke="white" stroke-width="0.72516" stroke-linecap="round" stroke-linejoin="round"/>
<path d="M101.624 26.9924L104.905 28.9246M100.65 28.6463L103.931 30.5785M104.811 27.5324L100.34 29.9488" stroke="white" stroke-width="0.72516" stroke-linecap="round"/>
<g opacity="0.8" filter="url(#filter8_f_29914_67832)">
<circle cx="64.0003" cy="20.0002" r="3.00027" transform="rotate(-90 64.0003 20.0002)" fill="white"/>
</g>
<path d="M61.7885 20.738C61.6638 20.6902 61.6638 20.5138 61.7885 20.466L63.3677 19.8607C63.4074 19.8455 63.4384 19.8137 63.4527 19.7737L64.0319 18.1528C64.0779 18.0239 64.2601 18.0239 64.3062 18.1528L64.8853 19.7737C64.8996 19.8137 64.9306 19.8455 64.9703 19.8607L66.5496 20.466C66.6743 20.5138 66.6743 20.6902 66.5496 20.738L64.9703 21.3432C64.9306 21.3584 64.8996 21.3902 64.8853 21.4302L64.3062 23.0512C64.2601 23.18 64.0779 23.18 64.0319 23.0512L63.4527 21.4302C63.4384 21.3902 63.4074 21.3584 63.3677 21.3432L61.7885 20.738Z" fill="#FFEF5C"/>
<g opacity="0.8" filter="url(#filter9_f_29914_67832)">
<circle cx="97.0003" cy="11.0002" r="3.00027" transform="matrix(0 -1 1 0 86 108)" fill="white"/>
</g>
<path d="M94.7885 11.738C94.6638 11.6902 94.6638 11.5138 94.7885 11.466L96.3677 10.8607C96.4074 10.8455 96.4384 10.8137 96.4527 10.7737L97.0319 9.15276C97.0779 9.0239 97.2601 9.0239 97.3062 9.15276L97.8853 10.7737C97.8996 10.8137 97.9306 10.8455 97.9703 10.8607L99.5496 11.466C99.6743 11.5138 99.6743 11.6902 99.5496 11.738L97.9703 12.3432C97.9306 12.3584 97.8996 12.3902 97.8853 12.4302L97.3062 14.0512C97.2601 14.18 97.0779 14.18 97.0319 14.0512L96.4527 12.4302C96.4384 12.3902 96.4074 12.3584 96.3677 12.3432L94.7885 11.738Z" fill="#FFEF5C"/>
<g opacity="0.8" filter="url(#filter10_f_29914_67832)">
<circle cx="168" cy="11.0002" r="3.00027" transform="rotate(-90 168 11.0002)" fill="white"/>
</g>
<path d="M165.788 11.738C165.664 11.6902 165.664 11.5138 165.788 11.466L167.368 10.8607C167.407 10.8455 167.438 10.8137 167.453 10.7737L168.032 9.15276C168.078 9.0239 168.26 9.0239 168.306 9.15276L168.885 10.7737C168.9 10.8137 168.931 10.8455 168.97 10.8607L170.55 11.466C170.674 11.5138 170.674 11.6902 170.55 11.738L168.97 12.3432C168.931 12.3584 168.9 12.3902 168.885 12.4302L168.306 14.0512C168.26 14.18 168.078 14.18 168.032 14.0512L167.453 12.4302C167.438 12.3902 167.407 12.3584 167.368 12.3432L165.788 11.738Z" fill="#FFEF5C"/>
<g opacity="0.8" filter="url(#filter11_f_29914_67832)">
<circle cx="210" cy="75.0002" r="3.00027" transform="rotate(-90 210 75.0002)" fill="white"/>
</g>
<path d="M207.788 75.738C207.664 75.6902 207.664 75.5138 207.788 75.466L209.368 74.8607C209.407 74.8455 209.438 74.8137 209.453 74.7737L210.032 73.1528C210.078 73.0239 210.26 73.0239 210.306 73.1528L210.885 74.7737C210.9 74.8137 210.931 74.8455 210.97 74.8607L212.55 75.466C212.674 75.5138 212.674 75.6902 212.55 75.738L210.97 76.3432C210.931 76.3584 210.9 76.3902 210.885 76.4302L210.306 78.0512C210.26 78.18 210.078 78.18 210.032 78.0512L209.453 76.4302C209.438 76.3902 209.407 76.3584 209.368 76.3432L207.788 75.738Z" fill="#FFEF5C"/>
<g opacity="0.8" filter="url(#filter12_f_29914_67832)">
<circle cx="261" cy="58.0002" r="3.00027" transform="rotate(-90 261 58.0002)" fill="white"/>
</g>
<path d="M258.788 58.738C258.664 58.6902 258.664 58.5138 258.788 58.466L260.368 57.8607C260.407 57.8455 260.438 57.8137 260.453 57.7737L261.032 56.1528C261.078 56.0239 261.26 56.0239 261.306 56.1528L261.885 57.7737C261.9 57.8137 261.931 57.8455 261.97 57.8607L263.55 58.466C263.674 58.5138 263.674 58.6902 263.55 58.738L261.97 59.3432C261.931 59.3584 261.9 59.3902 261.885 59.4302L261.306 61.0512C261.26 61.18 261.078 61.18 261.032 61.0512L260.453 59.4302C260.438 59.3902 260.407 59.3584 260.368 59.3432L258.788 58.738Z" fill="#FFEF5C"/>
<g opacity="0.8" filter="url(#filter13_f_29914_67832)">
<circle cx="201" cy="31.0002" r="3.00027" transform="rotate(-90 201 31.0002)" fill="white"/>
</g>
<path d="M198.788 31.738C198.664 31.6902 198.664 31.5138 198.788 31.466L200.368 30.8607C200.407 30.8455 200.438 30.8137 200.453 30.7737L201.032 29.1528C201.078 29.0239 201.26 29.0239 201.306 29.1528L201.885 30.7737C201.9 30.8137 201.931 30.8455 201.97 30.8607L203.55 31.466C203.674 31.5138 203.674 31.6902 203.55 31.738L201.97 32.3432C201.931 32.3584 201.9 32.3902 201.885 32.4302L201.306 34.0512C201.26 34.18 201.078 34.18 201.032 34.0512L200.453 32.4302C200.438 32.3902 200.407 32.3584 200.368 32.3432L198.788 31.738Z" fill="#FFEF5C"/>
<g opacity="0.8" filter="url(#filter14_f_29914_67832)">
<circle cx="228" cy="16.0002" r="3.00027" transform="rotate(-90 228 16.0002)" fill="white"/>
</g>
<path d="M225.788 16.738C225.664 16.6902 225.664 16.5138 225.788 16.466L227.368 15.8607C227.407 15.8455 227.438 15.8137 227.453 15.7737L228.032 14.1528C228.078 14.0239 228.26 14.0239 228.306 14.1528L228.885 15.7737C228.9 15.8137 228.931 15.8455 228.97 15.8607L230.55 16.466C230.674 16.5138 230.674 16.6902 230.55 16.738L228.97 17.3432C228.931 17.3584 228.9 17.3902 228.885 17.4302L228.306 19.0512C228.26 19.18 228.078 19.18 228.032 19.0512L227.453 17.4302C227.438 17.3902 227.407 17.3584 227.368 17.3432L225.788 16.738Z" fill="#FFEF5C"/>
<g opacity="0.8" filter="url(#filter15_f_29914_67832)">
<circle cx="109" cy="64.0002" r="3.00027" transform="rotate(-90 109 64.0002)" fill="white"/>
</g>
<path d="M106.788 64.738C106.664 64.6902 106.664 64.5138 106.788 64.466L108.368 63.8607C108.407 63.8455 108.438 63.8137 108.453 63.7737L109.032 62.1528C109.078 62.0239 109.26 62.0239 109.306 62.1528L109.885 63.7737C109.9 63.8137 109.931 63.8455 109.97 63.8607L111.55 64.466C111.674 64.5138 111.674 64.6902 111.55 64.738L109.97 65.3432C109.931 65.3584 109.9 65.3902 109.885 65.4302L109.306 67.0512C109.26 67.18 109.078 67.18 109.032 67.0512L108.453 65.4302C108.438 65.3902 108.407 65.3584 108.368 65.3432L106.788 64.738Z" fill="#FFEF5C"/>
<g opacity="0.8" filter="url(#filter16_f_29914_67832)">
<circle cx="58.0003" cy="70.0002" r="3.00027" transform="matrix(0 -1 1 0 -12 128)" fill="white"/>
</g>
<path d="M55.7885 70.738C55.6638 70.6902 55.6638 70.5138 55.7885 70.466L57.3677 69.8607C57.4074 69.8455 57.4384 69.8137 57.4527 69.7737L58.0319 68.1528C58.0779 68.0239 58.2601 68.0239 58.3062 68.1528L58.8853 69.7737C58.8996 69.8137 58.9306 69.8455 58.9703 69.8607L60.5496 70.466C60.6743 70.5138 60.6743 70.6902 60.5496 70.738L58.9703 71.3432C58.9306 71.3584 58.8996 71.3902 58.8853 71.4302L58.3062 73.0512C58.2601 73.18 58.0779 73.18 58.0319 73.0512L57.4527 71.4302C57.4384 71.3902 57.4074 71.3584 57.3677 71.3432L55.7885 70.738Z" fill="#FFEF5C"/>
<defs>
<filter id="filter0_f_29914_67832" x="129.748" y="67.4335" width="69.2789" height="19.4796" filterUnits="userSpaceOnUse" color-interpolation-filters="sRGB">
<feFlood flood-opacity="0" result="BackgroundImageFix"/>
<feBlend mode="normal" in="SourceGraphic" in2="BackgroundImageFix" result="shape"/>
<feGaussianBlur stdDeviation="0.448154" result="effect1_foregroundBlur_29914_67832"/>
</filter>
<filter id="filter1_f_29914_67832" x="85.7833" y="73.234" width="96.1151" height="44.9762" filterUnits="userSpaceOnUse" color-interpolation-filters="sRGB">
<feFlood flood-opacity="0" result="BackgroundImageFix"/>
<feBlend mode="normal" in="SourceGraphic" in2="BackgroundImageFix" result="shape"/>
<feGaussianBlur stdDeviation="0.570278" result="effect1_foregroundBlur_29914_67832"/>
</filter>
<filter id="filter2_f_29914_67832" x="117.251" y="85.2354" width="25.9036" height="20.8299" filterUnits="userSpaceOnUse" color-interpolation-filters="sRGB">
<feFlood flood-opacity="0" result="BackgroundImageFix"/>
<feBlend mode="normal" in="SourceGraphic" in2="BackgroundImageFix" result="shape"/>
<feGaussianBlur stdDeviation="0.0950463" result="effect1_foregroundBlur_29914_67832"/>
</filter>
<filter id="filter3_f_29914_67832" x="223.639" y="30.5796" width="6.25055" height="5.86945" filterUnits="userSpaceOnUse" color-interpolation-filters="sRGB">
<feFlood flood-opacity="0" result="BackgroundImageFix"/>
<feBlend mode="normal" in="SourceGraphic" in2="BackgroundImageFix" result="shape"/>
<feGaussianBlur stdDeviation="0.18129" result="effect1_foregroundBlur_29914_67832"/>
</filter>
<filter id="filter4_f_29914_67832" x="224.99" y="30.5986" width="4.11829" height="2.97449" filterUnits="userSpaceOnUse" color-interpolation-filters="sRGB">
<feFlood flood-opacity="0" result="BackgroundImageFix"/>
<feBlend mode="normal" in="SourceGraphic" in2="BackgroundImageFix" result="shape"/>
<feGaussianBlur stdDeviation="0.36258" result="effect1_foregroundBlur_29914_67832"/>
</filter>
<filter id="filter5_f_29914_67832" x="219.819" y="32.9635" width="13.3177" height="2.54276" filterUnits="userSpaceOnUse" color-interpolation-filters="sRGB">
<feFlood flood-opacity="0" result="BackgroundImageFix"/>
<feBlend mode="normal" in="SourceGraphic" in2="BackgroundImageFix" result="shape"/>
<feGaussianBlur stdDeviation="0.090645" result="effect1_foregroundBlur_29914_67832"/>
</filter>
<filter id="filter6_f_29914_67832" x="222.909" y="28.3609" width="7.13797" height="11.6416" filterUnits="userSpaceOnUse" color-interpolation-filters="sRGB">
<feFlood flood-opacity="0" result="BackgroundImageFix"/>
<feBlend mode="normal" in="SourceGraphic" in2="BackgroundImageFix" result="shape"/>
<feGaussianBlur stdDeviation="0.090645" result="effect1_foregroundBlur_29914_67832"/>
</filter>
<filter id="filter7_f_29914_67832" x="222.909" y="28.3609" width="7.13797" height="11.6416" filterUnits="userSpaceOnUse" color-interpolation-filters="sRGB">
<feFlood flood-opacity="0" result="BackgroundImageFix"/>
<feBlend mode="normal" in="SourceGraphic" in2="BackgroundImageFix" result="shape"/>
<feGaussianBlur stdDeviation="0.090645" result="effect1_foregroundBlur_29914_67832"/>
</filter>
<filter id="filter8_f_29914_67832" x="56.7643" y="12.7643" width="14.4713" height="14.4718" filterUnits="userSpaceOnUse" color-interpolation-filters="sRGB">
<feFlood flood-opacity="0" result="BackgroundImageFix"/>
<feBlend mode="normal" in="SourceGraphic" in2="BackgroundImageFix" result="shape"/>
<feGaussianBlur stdDeviation="2.11784" result="effect1_foregroundBlur_29914_67832"/>
</filter>
<filter id="filter9_f_29914_67832" x="89.7643" y="3.76433" width="14.4713" height="14.4718" filterUnits="userSpaceOnUse" color-interpolation-filters="sRGB">
<feFlood flood-opacity="0" result="BackgroundImageFix"/>
<feBlend mode="normal" in="SourceGraphic" in2="BackgroundImageFix" result="shape"/>
<feGaussianBlur stdDeviation="2.11784" result="effect1_foregroundBlur_29914_67832"/>
</filter>
<filter id="filter10_f_29914_67832" x="160.764" y="3.76433" width="14.4713" height="14.4718" filterUnits="userSpaceOnUse" color-interpolation-filters="sRGB">
<feFlood flood-opacity="0" result="BackgroundImageFix"/>
<feBlend mode="normal" in="SourceGraphic" in2="BackgroundImageFix" result="shape"/>
<feGaussianBlur stdDeviation="2.11784" result="effect1_foregroundBlur_29914_67832"/>
</filter>
<filter id="filter11_f_29914_67832" x="202.764" y="67.7643" width="14.4713" height="14.4718" filterUnits="userSpaceOnUse" color-interpolation-filters="sRGB">
<feFlood flood-opacity="0" result="BackgroundImageFix"/>
<feBlend mode="normal" in="SourceGraphic" in2="BackgroundImageFix" result="shape"/>
<feGaussianBlur stdDeviation="2.11784" result="effect1_foregroundBlur_29914_67832"/>
</filter>
<filter id="filter12_f_29914_67832" x="253.764" y="50.7643" width="14.4713" height="14.4718" filterUnits="userSpaceOnUse" color-interpolation-filters="sRGB">
<feFlood flood-opacity="0" result="BackgroundImageFix"/>
<feBlend mode="normal" in="SourceGraphic" in2="BackgroundImageFix" result="shape"/>
<feGaussianBlur stdDeviation="2.11784" result="effect1_foregroundBlur_29914_67832"/>
</filter>
<filter id="filter13_f_29914_67832" x="193.764" y="23.7643" width="14.4713" height="14.4718" filterUnits="userSpaceOnUse" color-interpolation-filters="sRGB">
<feFlood flood-opacity="0" result="BackgroundImageFix"/>
<feBlend mode="normal" in="SourceGraphic" in2="BackgroundImageFix" result="shape"/>
<feGaussianBlur stdDeviation="2.11784" result="effect1_foregroundBlur_29914_67832"/>
</filter>
<filter id="filter14_f_29914_67832" x="220.764" y="8.76433" width="14.4713" height="14.4718" filterUnits="userSpaceOnUse" color-interpolation-filters="sRGB">
<feFlood flood-opacity="0" result="BackgroundImageFix"/>
<feBlend mode="normal" in="SourceGraphic" in2="BackgroundImageFix" result="shape"/>
<feGaussianBlur stdDeviation="2.11784" result="effect1_foregroundBlur_29914_67832"/>
</filter>
<filter id="filter15_f_29914_67832" x="101.764" y="56.7643" width="14.4713" height="14.4718" filterUnits="userSpaceOnUse" color-interpolation-filters="sRGB">
<feFlood flood-opacity="0" result="BackgroundImageFix"/>
<feBlend mode="normal" in="SourceGraphic" in2="BackgroundImageFix" result="shape"/>
<feGaussianBlur stdDeviation="2.11784" result="effect1_foregroundBlur_29914_67832"/>
</filter>
<filter id="filter16_f_29914_67832" x="50.7643" y="62.7643" width="14.4713" height="14.4718" filterUnits="userSpaceOnUse" color-interpolation-filters="sRGB">
<feFlood flood-opacity="0" result="BackgroundImageFix"/>
<feBlend mode="normal" in="SourceGraphic" in2="BackgroundImageFix" result="shape"/>
<feGaussianBlur stdDeviation="2.11784" result="effect1_foregroundBlur_29914_67832"/>
</filter>
<radialGradient id="paint0_radial_29914_67832" cx="0" cy="0" r="1" gradientUnits="userSpaceOnUse" gradientTransform="translate(160 60) rotate(90) scale(88.4483 235.862)">
<stop stop-color="#9F7CFF"/>
<stop offset="1" stop-color="#7E54F1"/>
</radialGradient>
<linearGradient id="paint1_linear_29914_67832" x1="176.272" y1="45.1982" x2="175.71" y2="57.7938" gradientUnits="userSpaceOnUse">
<stop stop-color="#888EFB"/>
<stop offset="1" stop-color="#454BBE"/>
</linearGradient>
<linearGradient id="paint2_linear_29914_67832" x1="168.686" y1="55.7889" x2="171.178" y2="79.0006" gradientUnits="userSpaceOnUse">
<stop offset="1" stop-color="#454BBE"/>
<stop stop-color="#7C82F2"/>
</linearGradient>
<linearGradient id="paint3_linear_29914_67832" x1="134.836" y1="72.0802" x2="130.558" y2="76.2123" gradientUnits="userSpaceOnUse">
<stop stop-color="#454BBE"/>
<stop offset="1" stop-color="#656BED"/>
</linearGradient>
<linearGradient id="paint4_linear_29914_67832" x1="154.108" y1="64.7136" x2="137.575" y2="75.3626" gradientUnits="userSpaceOnUse">
<stop stop-color="#454BBE"/>
<stop offset="1" stop-color="#6B72F8"/>
</linearGradient>
<linearGradient id="paint5_linear_29914_67832" x1="157.134" y1="61.441" x2="155.091" y2="83.0946" gradientUnits="userSpaceOnUse">
<stop offset="1" stop-color="#454BBE"/>
<stop stop-color="#8086F4"/>
</linearGradient>
<linearGradient id="paint6_linear_29914_67832" x1="151.506" y1="64.7979" x2="156.678" y2="80.945" gradientUnits="userSpaceOnUse">
<stop offset="1" stop-color="#4D53C6"/>
<stop stop-color="#9499FF"/>
</linearGradient>
<linearGradient id="paint7_linear_29914_67832" x1="150.555" y1="62.0722" x2="149.673" y2="71.4285" gradientUnits="userSpaceOnUse">
<stop offset="1" stop-color="#F77B1F"/>
<stop stop-color="#FFDF6B"/>
</linearGradient>
<linearGradient id="paint8_linear_29914_67832" x1="125.305" y1="60.922" x2="128.392" y2="77.9379" gradientUnits="userSpaceOnUse">
<stop stop-color="#5A61DE"/>
<stop offset="1" stop-color="#636AEB"/>
</linearGradient>
<linearGradient id="paint9_linear_29914_67832" x1="125.324" y1="58.4399" x2="127.456" y2="66.7407" gradientUnits="userSpaceOnUse">
<stop stop-color="#EECC55"/>
<stop offset="1" stop-color="#F88527"/>
</linearGradient>
<linearGradient id="paint10_linear_29914_67832" x1="200.848" y1="58.3336" x2="203.92" y2="48.8425" gradientUnits="userSpaceOnUse">
<stop stop-color="#EA7E25"/>
<stop offset="1" stop-color="#FC861F"/>
</linearGradient>
<linearGradient id="paint11_linear_29914_67832" x1="76.4601" y1="36.7428" x2="70.3075" y2="38.8962" gradientUnits="userSpaceOnUse">
<stop stop-color="#BBBBBB"/>
<stop offset="1" stop-color="#555555"/>
</linearGradient>
</defs>
</svg>
