<svg width="320" height="410" viewBox="0 0 320 410" fill="none" xmlns="http://www.w3.org/2000/svg">
<path d="M144.025 -91.6221C57.0599 -95.7195 -41.9725 -173.294 -81.109 -95.5622C-116.387 -25.4937 -21.5578 -15.2485 -28.1102 62.9184C-33.4501 126.622 -66.0414 144.342 -65.3409 208.265C-64.8004 257.58 -17.5908 272.408 -7.96222 320.778C7.37115 397.806 -107.234 454.471 -57.8948 515.595C-6.15647 579.692 69.5736 496.434 151.91 493.268C240.844 489.848 349.316 584.77 379.672 501.148C400.906 442.653 318.848 415.378 320.541 353.174C322.128 294.918 373.938 274.141 379.672 216.146C385.716 155.023 343.07 124.329 344.194 62.9184C345.235 5.99519 399.54 -25.1311 379.672 -78.4883C347.524 -164.827 238.313 -87.1797 144.025 -91.6221Z" fill="url(#paint0_radial_29924_64947)"/>
<g opacity="0.4" filter="url(#filter0_f_29924_64947)">
<ellipse cx="159.352" cy="365.199" rx="141.352" ry="23.4141" fill="#333333"/>
</g>
<g opacity="0.2" filter="url(#filter1_f_29924_64947)">
<path fill-rule="evenodd" clip-rule="evenodd" d="M24.8814 171.992C24.8814 171.992 14.0827 157.529 14.95 147.092C15.6702 138.424 22.4215 135.512 24.8814 127.172C26.464 121.806 25.3789 118.291 27.3643 113.062C32.1688 100.408 47.2229 77.5931 53.0206 89.8214C56.466 97.0883 54.8809 104.004 49.7101 110.157C45.8903 114.702 38.8953 111.887 36.2613 117.212C33.7222 122.345 40.1345 126.3 38.3303 131.737C36.4536 137.392 30.5466 137.286 27.3643 142.319C21.1555 152.141 24.8814 171.992 24.8814 171.992ZM39.5719 101.442C38.9705 102.078 38.2782 102.434 38.3303 103.309C38.411 104.665 40.2874 104.397 41.641 104.347C44.2698 104.248 47.5156 102.257 46.6067 99.7815C45.6315 97.1254 41.5138 99.3876 39.5719 101.442ZM27.3643 132.152C26.6481 133.718 24.4678 135.472 24.4678 135.472C24.4678 135.472 32.0764 133.197 31.9164 129.454C31.8617 128.174 30.5243 127.572 30.8818 126.342C31.2527 125.066 33.5099 125.594 33.5716 124.267C33.6357 122.888 32.2569 122.034 30.8818 121.984C29.4442 121.932 28.5995 122.962 27.9852 124.267C27.3986 125.512 28.0718 126.419 27.9852 127.794C27.877 129.51 28.0789 130.589 27.3643 132.152Z" fill="#70F6FF"/>
<path d="M263.03 251.229C263.03 251.229 268.827 247.9 271.927 245.004C275.381 241.778 275.069 233.523 279.376 235.459C283.783 237.44 279.014 243.809 275.651 247.287C272.058 251.004 263.03 251.229 263.03 251.229Z" fill="#70F6FF"/>
<path d="M104.427 52.682C104.427 52.682 101.807 44.9761 104.427 41.4769C107.387 37.524 112.64 41.7787 116.842 39.1944C123.698 34.9773 116.711 19.2051 124.704 20.1042C127.469 20.4153 129.158 21.2359 131.118 23.2167C136.693 28.8502 128.696 36.9126 122.221 41.4769C117.571 44.7549 112.09 41.1022 108.152 45.2119C105.898 47.5635 104.427 52.682 104.427 52.682Z" fill="#70F6FF"/>
<path fill-rule="evenodd" clip-rule="evenodd" d="M215.566 112.024C217.491 116.363 221.807 116.906 226.533 117.212C230.343 117.459 232.613 115.253 234.987 112.946C237.001 110.99 239.09 108.96 242.257 108.289C245.166 107.673 247.851 108.732 250.386 109.733C253.59 110.997 256.555 112.166 259.431 109.742C261.703 107.825 262.302 105.752 263.03 103.233C263.25 102.472 263.482 101.67 263.776 100.819C265.983 94.4166 265.845 83.5964 265.845 83.5964C265.845 83.5964 256.603 89.6709 251.154 94.179C249.942 95.1822 249.032 96.1207 248.161 97.0194C246.875 98.3459 245.673 99.5857 243.706 100.819C241.246 102.361 239.213 102.946 236.969 103.591C235.671 103.965 234.302 104.358 232.74 104.969C230.414 105.878 227.305 106.21 224.348 106.526C218.716 107.127 213.636 107.67 215.566 112.024ZM248.671 104.969C248.671 104.969 252.17 101.832 252.603 100.819C253.271 99.2528 257.319 101.175 256.534 102.686C255.954 103.802 248.671 104.969 248.671 104.969ZM224.348 114.099L223.429 112.946C223.429 112.946 229.669 111.024 228.808 112.946C228.072 114.592 224.348 114.099 224.348 114.099Z" fill="#70F6FF"/>
</g>
<g opacity="0.8" filter="url(#filter2_f_29924_64947)">
<circle cx="231.666" cy="120.688" r="4.70088" transform="rotate(-90 231.666 120.688)" fill="white"/>
</g>
<path d="M228.097 120.758C227.899 120.685 227.899 120.404 228.097 120.33L230.549 119.422C230.612 119.399 230.661 119.35 230.684 119.287L231.591 116.833C231.665 116.634 231.946 116.634 232.019 116.833L232.927 119.287C232.95 119.35 232.999 119.399 233.061 119.422L235.514 120.33C235.712 120.404 235.712 120.685 235.514 120.758L233.061 121.667C232.999 121.69 232.95 121.739 232.927 121.802L232.019 124.256C231.946 124.455 231.665 124.455 231.591 124.256L230.684 121.802C230.661 121.739 230.612 121.69 230.549 121.667L228.097 120.758Z" fill="#FFEF5C"/>
<g opacity="0.8" filter="url(#filter3_f_29924_64947)">
<circle cx="146.496" cy="304.852" r="4.70088" transform="rotate(-90 146.496 304.852)" fill="white"/>
</g>
<path d="M142.927 304.923C142.729 304.849 142.729 304.568 142.927 304.495L145.38 303.586C145.442 303.563 145.491 303.514 145.514 303.451L146.421 300.997C146.495 300.798 146.776 300.798 146.85 300.997L147.757 303.451C147.78 303.514 147.829 303.563 147.891 303.586L150.344 304.495C150.542 304.568 150.542 304.849 150.344 304.923L147.891 305.831C147.829 305.854 147.78 305.904 147.757 305.966L146.85 308.421C146.776 308.619 146.495 308.619 146.421 308.421L145.514 305.966C145.491 305.904 145.442 305.854 145.38 305.831L142.927 304.923Z" fill="#FFEF5C"/>
<g opacity="0.8" filter="url(#filter4_f_29924_64947)">
<circle cx="60.2224" cy="236.274" r="4.70088" transform="rotate(-90 60.2224 236.274)" fill="white"/>
</g>
<path d="M56.6538 236.345C56.4552 236.272 56.4552 235.991 56.6538 235.917L59.1061 235.009C59.1685 234.986 59.2178 234.936 59.2409 234.874L60.148 232.419C60.2215 232.221 60.5026 232.221 60.5761 232.419L61.4833 234.874C61.5064 234.936 61.5556 234.986 61.618 235.009L64.0704 235.917C64.2689 235.991 64.2689 236.272 64.0704 236.345L61.618 237.254C61.5556 237.277 61.5064 237.326 61.4833 237.389L60.5761 239.843C60.5026 240.042 60.2215 240.042 60.148 239.843L59.2409 237.389C59.2178 237.326 59.1685 237.277 59.1061 237.254L56.6538 236.345Z" fill="#FFEF5C"/>
<g opacity="0.8" filter="url(#filter5_f_29924_64947)">
<circle cx="145.392" cy="50.451" r="4.70088" transform="rotate(-90 145.392 50.451)" fill="white"/>
</g>
<path d="M141.824 50.5218C141.625 50.4482 141.625 50.1674 141.824 50.0938L144.276 49.1853C144.338 49.1621 144.388 49.1129 144.411 49.0504L145.318 46.5959C145.391 46.3972 145.673 46.3972 145.746 46.5959L146.653 49.0504C146.676 49.1129 146.726 49.1621 146.788 49.1853L149.24 50.0938C149.439 50.1674 149.439 50.4482 149.24 50.5218L146.788 51.4303C146.726 51.4534 146.676 51.5027 146.653 51.5652L145.746 54.0196C145.673 54.2184 145.391 54.2184 145.318 54.0196L144.411 51.5652C144.388 51.5027 144.338 51.4534 144.276 51.4303L141.824 50.5218Z" fill="#FFEF5C"/>
<g opacity="0.8" filter="url(#filter6_f_29924_64947)">
<circle cx="286.701" cy="186.701" r="4.70088" transform="rotate(-90 286.701 186.701)" fill="white"/>
</g>
<path d="M283.132 186.772C282.934 186.698 282.934 186.417 283.132 186.344L285.585 185.435C285.647 185.412 285.696 185.363 285.719 185.301L286.627 182.846C286.7 182.647 286.981 182.647 287.055 182.846L287.962 185.301C287.985 185.363 288.034 185.412 288.097 185.435L290.549 186.344C290.747 186.417 290.747 186.698 290.549 186.772L288.097 187.68C288.034 187.704 287.985 187.753 287.962 187.815L287.055 190.27C286.981 190.469 286.7 190.469 286.627 190.27L285.719 187.815C285.696 187.753 285.647 187.704 285.585 187.68L283.132 186.772Z" fill="#FFEF5C"/>
<g opacity="0.8" filter="url(#filter7_f_29924_64947)">
<circle cx="302.701" cy="333.701" r="4.70088" transform="rotate(-90 302.701 333.701)" fill="white"/>
</g>
<path d="M299.132 333.772C298.934 333.698 298.934 333.417 299.132 333.344L301.585 332.435C301.647 332.412 301.696 332.363 301.719 332.3L302.627 329.846C302.7 329.647 302.981 329.647 303.055 329.846L303.962 332.3C303.985 332.363 304.034 332.412 304.097 332.435L306.549 333.344C306.747 333.417 306.747 333.698 306.549 333.772L304.097 334.68C304.034 334.703 303.985 334.752 303.962 334.815L303.055 337.269C302.981 337.468 302.7 337.468 302.627 337.269L301.719 334.815C301.696 334.752 301.647 334.703 301.585 334.68L299.132 333.772Z" fill="#FFEF5C"/>
<g opacity="0.8" filter="url(#filter8_f_29924_64947)">
<circle cx="291.701" cy="54.701" r="4.70088" transform="rotate(-90 291.701 54.701)" fill="white"/>
</g>
<path d="M288.132 54.7718C287.934 54.6982 287.934 54.4174 288.132 54.3438L290.585 53.4353C290.647 53.4121 290.696 53.3629 290.719 53.3004L291.627 50.8459C291.7 50.6472 291.981 50.6472 292.055 50.8459L292.962 53.3004C292.985 53.3629 293.034 53.4121 293.097 53.4353L295.549 54.3438C295.747 54.4174 295.747 54.6982 295.549 54.7718L293.097 55.6803C293.034 55.7034 292.985 55.7527 292.962 55.8152L292.055 58.2696C291.981 58.4684 291.7 58.4684 291.627 58.2696L290.719 55.8152C290.696 55.7527 290.647 55.7034 290.585 55.6803L288.132 54.7718Z" fill="#FFEF5C"/>
<g opacity="0.8" filter="url(#filter9_f_29924_64947)">
<circle cx="18.7009" cy="300.701" r="4.70088" transform="rotate(-90 18.7009 300.701)" fill="white"/>
</g>
<path d="M15.1323 300.772C14.9337 300.698 14.9337 300.417 15.1323 300.344L17.5846 299.435C17.6471 299.412 17.6963 299.363 17.7194 299.3L18.6265 296.846C18.7 296.647 18.9812 296.647 19.0546 296.846L19.9618 299.3C19.9849 299.363 20.0341 299.412 20.0966 299.435L22.5489 300.344C22.7474 300.417 22.7474 300.698 22.5489 300.772L20.0966 301.68C20.0341 301.703 19.9849 301.753 19.9618 301.815L19.0546 304.269C18.9812 304.468 18.7 304.468 18.6265 304.269L17.7194 301.815C17.6963 301.753 17.6471 301.703 17.5846 301.68L15.1323 300.772Z" fill="#FFEF5C"/>
<g opacity="0.8" filter="url(#filter10_f_29924_64947)">
<circle cx="246.597" cy="287.707" r="4.70088" transform="rotate(-90 246.597 287.707)" fill="white"/>
</g>
<path d="M243.029 287.778C242.83 287.705 242.83 287.424 243.029 287.35L245.481 286.442C245.544 286.419 245.593 286.369 245.616 286.307L246.523 283.852C246.596 283.654 246.878 283.654 246.951 283.852L247.858 286.307C247.881 286.369 247.931 286.419 247.993 286.442L250.445 287.35C250.644 287.424 250.644 287.705 250.445 287.778L247.993 288.687C247.931 288.71 247.881 288.759 247.858 288.822L246.951 291.276C246.878 291.475 246.596 291.475 246.523 291.276L245.616 288.822C245.593 288.759 245.544 288.71 245.481 288.687L243.029 287.778Z" fill="#FFEF5C"/>
<g opacity="0.8" filter="url(#filter11_f_29924_64947)">
<circle cx="120.306" cy="130.894" r="4.70088" transform="rotate(-90 120.306 130.894)" fill="white"/>
</g>
<path d="M116.736 130.965C116.537 130.891 116.537 130.611 116.736 130.537L119.188 129.629C119.251 129.605 119.3 129.556 119.323 129.494L120.23 127.039C120.304 126.84 120.585 126.84 120.658 127.039L121.565 129.494C121.588 129.556 121.638 129.605 121.7 129.629L124.152 130.537C124.351 130.611 124.351 130.891 124.152 130.965L121.7 131.874C121.638 131.897 121.588 131.946 121.565 132.008L120.658 134.463C120.585 134.662 120.304 134.662 120.23 134.463L119.323 132.008C119.3 131.946 119.251 131.897 119.188 131.874L116.736 130.965Z" fill="#FFEF5C"/>
<g opacity="0.8" filter="url(#filter12_f_29924_64947)">
<circle cx="71.3415" cy="39.0843" r="4.70088" transform="rotate(-90 71.3415 39.0843)" fill="white"/>
</g>
<path d="M67.771 39.1551C67.5724 39.0815 67.5724 38.8007 67.771 38.7271L70.2233 37.8186C70.2857 37.7954 70.335 37.7462 70.3581 37.6837L71.2652 35.2292C71.3387 35.0305 71.6198 35.0305 71.6933 35.2292L72.6005 37.6837C72.6236 37.7462 72.6728 37.7954 72.7352 37.8186L75.1876 38.7271C75.3861 38.8007 75.3861 39.0815 75.1876 39.1551L72.7352 40.0636C72.6728 40.0867 72.6236 40.136 72.6005 40.1985L71.6933 42.6529C71.6198 42.8517 71.3387 42.8517 71.2652 42.6529L70.3581 40.1985C70.335 40.136 70.2857 40.0867 70.2233 40.0636L67.771 39.1551Z" fill="#FFEF5C"/>
<rect width="74.0921" height="49.1872" rx="1.67138" transform="matrix(-1 0 0 1 256.268 30.13)" fill="#5F5F5F"/>
<rect width="74.0921" height="49.1872" rx="1.67138" transform="matrix(-1 0 0 1 258.771 28.2626)" fill="url(#paint1_linear_29924_64947)"/>
<path d="M258.771 29.934C258.771 29.0109 258.023 28.2626 257.1 28.2626L186.351 28.2626C185.428 28.2626 184.679 29.0109 184.679 29.934V35.734H258.771V29.934Z" fill="#706B6B"/>
<circle cx="1.78618" cy="1.78618" r="1.78618" transform="matrix(-1 0 0 1 194.105 30.5159)" fill="#FF6161"/>
<circle cx="1.78618" cy="1.78618" r="1.78618" transform="matrix(-1 0 0 1 200.6 30.5159)" fill="#FFB017"/>
<circle cx="1.78618" cy="1.78618" r="1.78618" transform="matrix(-1 0 0 1 207.096 30.5159)" fill="#70C253"/>
<rect width="2.59808" height="4.22188" transform="matrix(-1 0 0 1 197.109 46.5875)" fill="#A1A1A1"/>
<rect width="2.59808" height="10.7171" transform="matrix(-1 0 0 1 202.307 40.0924)" fill="#A1A1A1"/>
<rect width="2.59808" height="8.11899" transform="matrix(-1 0 0 1 207.504 42.8567)" fill="#A1A1A1"/>
<rect width="2.59808" height="12.6656" transform="matrix(-1 0 0 1 212.699 38.3094)" fill="#A1A1A1"/>
<rect width="2.49049" height="6.22623" transform="matrix(-1 0 0 1 217.68 44.4507)" fill="#A1A1A1"/>
<rect width="34.2442" height="3.11311" rx="1.55656" transform="matrix(-1 0 0 1 222.66 54.4126)" fill="#A2A2A2"/>
<rect width="34.2442" height="3.11311" rx="1.55656" transform="matrix(-1 0 0 1 222.662 61.2612)" fill="#A2A2A2"/>
<rect width="21.8595" height="3.49752" rx="1.74876" transform="matrix(-1 0 0 1 210.037 68.4844)" fill="#A2A2A2"/>
<g opacity="0.9">
<rect width="5.28767" height="4.08593" rx="2.04296" transform="matrix(-1 0 0 1 245.123 45.6584)" stroke="#5F3C38" stroke-width="1.5462"/>
<rect width="14.6613" height="9.8543" rx="1.23696" transform="matrix(-1 0 0 1 249.689 48.0623)" fill="#DF732A"/>
<path d="M235.904 47.4611H248.84C249.512 47.4611 250.062 47.9983 250.077 48.6705L250.145 51.7332C250.159 52.3755 249.679 52.9218 249.04 52.9905L242.492 53.6958C242.403 53.7053 242.314 53.7052 242.225 53.6955L235.77 52.9895C235.143 52.9209 234.667 52.391 234.667 51.7599V48.698C234.667 48.0149 235.221 47.4611 235.904 47.4611Z" fill="#A65425"/>
<rect width="3.60523" height="2.88419" rx="1.44209" transform="matrix(-1 0 0 1 244.164 51.9073)" fill="#82381B"/>
</g>
<path d="M261.573 54.9056C261.573 65.7569 252.777 74.5536 241.925 74.5536C231.074 74.5536 222.277 65.7569 222.277 54.9056C222.277 44.0544 231.074 35.2577 241.925 35.2577C252.777 35.2577 261.573 44.0544 261.573 54.9056ZM225.602 54.9056C225.602 63.9209 232.91 71.2292 241.925 71.2292C250.941 71.2292 258.249 63.9209 258.249 54.9056C258.249 45.8904 250.941 38.5821 241.925 38.5821C232.91 38.5821 225.602 45.8904 225.602 54.9056Z" fill="#2F3A60"/>
<path d="M252.107 68.4038L256.402 63.807L268.784 75.3757C270.054 76.5617 270.121 78.5522 268.935 79.8215C267.749 81.0909 265.759 81.1585 264.49 79.9725L252.107 68.4038Z" fill="#2F3A60"/>
<path d="M262.448 54.0311C262.448 64.8824 253.652 73.6791 242.8 73.6791C231.949 73.6791 223.152 64.8824 223.152 54.0311C223.152 43.1799 231.949 34.3832 242.8 34.3832C253.652 34.3832 262.448 43.1799 262.448 54.0311ZM226.477 54.0311C226.477 63.0464 233.785 70.3547 242.8 70.3547C251.816 70.3547 259.124 63.0464 259.124 54.0311C259.124 45.0159 251.816 37.7076 242.8 37.7076C233.785 37.7076 226.477 45.0159 226.477 54.0311Z" fill="#545E81"/>
<path d="M252.982 67.5291L257.277 62.9323L269.659 74.501C270.929 75.687 270.996 77.6774 269.81 78.9468C268.624 80.2161 266.634 80.2837 265.365 79.0978L252.982 67.5291Z" fill="#545E81"/>
<path d="M173.393 355.114L160.596 231.41H264.678L291.551 355.114H173.393Z" stroke="#747474" stroke-width="3.49752" stroke-linejoin="round"/>
<path d="M151.636 105.956C150.714 105.956 149.951 106.672 149.891 107.592L133.255 364.384C133.224 364.867 133.393 365.34 133.724 365.693C134.055 366.046 134.517 366.246 135 366.246H260.41C261.332 366.246 262.096 365.53 262.155 364.61L278.791 107.818C278.823 107.336 278.653 106.862 278.322 106.509C277.992 106.156 277.53 105.956 277.046 105.956H151.636Z" fill="url(#paint2_linear_29924_64947)" stroke="#747474" stroke-width="3.49752" stroke-linejoin="round"/>
<mask id="mask0_29924_64947" style="mask-type:alpha" maskUnits="userSpaceOnUse" x="135" y="107" width="143" height="258">
<path d="M151.636 107.705H277.046L260.41 364.497H135L151.636 107.705Z" fill="url(#paint3_linear_29924_64947)"/>
</mask>
<g mask="url(#mask0_29924_64947)">
<g opacity="0.7" filter="url(#filter13_f_29924_64947)">
<path fill-rule="evenodd" clip-rule="evenodd" d="M259.099 229.771L260.796 205.324C276.485 211.008 287.165 250.995 287.165 250.995C288.695 267.093 269.523 267.222 264.04 258.893C262.051 256.558 259.099 229.771 259.099 229.771Z" fill="url(#paint4_linear_29924_64947)"/>
<path fill-rule="evenodd" clip-rule="evenodd" d="M199.783 242.22C201.294 238.796 203.905 236.488 205.316 232.046L201.347 203.627C177.625 207.089 173.659 254.067 173.659 254.067C172.726 270.21 190.752 270.404 195.923 261.878C197.825 259.471 196.321 250.064 199.783 242.22Z" fill="url(#paint5_linear_29924_64947)"/>
<path fill-rule="evenodd" clip-rule="evenodd" d="M243.435 196.068L217.592 196.791C217.564 196.792 217.538 196.794 217.51 196.799C216.679 196.957 204.101 200.025 195.007 206.022C194.85 206.125 194.763 206.309 194.777 206.497C195.615 217.913 194.932 224.333 195.567 235.262L196.497 268.52C196.498 268.56 196.495 268.6 196.487 268.638L181.658 342.087C181.6 342.377 181.793 342.657 182.085 342.706L208.166 347.017C208.417 347.059 208.662 346.913 208.745 346.672L224.548 300.942C224.559 300.912 224.566 300.88 224.571 300.849C225.036 298.008 227.878 297.945 227.958 300.802L233.76 346.395C233.797 346.679 234.054 346.881 234.338 346.849L260.992 343.833C261.252 343.804 261.451 343.586 261.455 343.323L262.755 270.358L263.371 255.535C263.873 233.482 263.202 226.233 262.763 206.54C262.758 206.331 262.63 206.14 262.436 206.061C253.302 202.332 243.656 196.07 243.448 196.068C243.444 196.068 243.442 196.068 243.439 196.068L243.435 196.068Z" fill="url(#paint6_linear_29924_64947)"/>
<path d="M218.618 294.005C224.477 298.455 228.252 298.588 235.877 294.24C235.877 294.24 230.354 298.863 226.244 298.454C222.771 298.11 218.618 294.005 218.618 294.005Z" fill="#64EDFF"/>
<path d="M220.664 282.969C210.534 275.933 205.759 273.452 196.271 270.58L196.593 272.694L196.111 274.299C211.11 279.549 208.735 277.029 220.664 282.969Z" fill="#64EDFF"/>
<path d="M238.424 282.472C248.145 274.881 252.774 272.137 262.087 268.74L261.883 270.868L262.454 272.444C247.772 278.524 250.003 275.875 238.424 282.472Z" fill="#64EDFF"/>
<path d="M231.607 371.029C239.433 374.774 279.454 379.78 283.81 369.98C284.228 369.032 284.325 368.074 284.126 367.103C283.243 362.583 279.617 356.909 271.667 353.179C263.714 349.432 261.244 342.694 261.244 342.694L234.116 345.036C230.305 351.74 227.749 358.81 228.929 366.322C228.905 368.36 229.653 370.088 231.609 371.044L231.607 371.029Z" fill="url(#paint7_linear_29924_64947)"/>
<path d="M231.617 371.018C239.444 374.764 280.017 381.487 284.373 371.687C284.791 370.739 285.505 368.184 283.235 365.063C274.306 367.82 258.483 372.138 228.862 363.745C228.399 368.19 229.663 370.078 231.619 371.034L231.617 371.018Z" fill="#3167D5"/>
<path d="M208.984 372.886C200.89 376.01 160.601 377.884 157.021 367.774C156.678 366.797 156.657 365.834 156.93 364.882C158.163 360.444 162.22 355.07 170.437 351.97C178.657 348.854 181.644 342.329 181.644 342.329L208.507 346.777C211.785 353.758 213.782 361.006 212.021 368.403C211.886 370.437 211.005 372.101 208.981 372.902L208.984 372.886Z" fill="url(#paint8_linear_29924_64947)"/>
<path d="M208.973 372.874C200.879 375.999 159.905 379.54 156.326 369.431C155.983 368.453 155.47 365.85 157.977 362.915C166.663 366.36 182.102 371.897 212.287 365.838C212.402 370.306 210.994 372.089 208.97 372.89L208.973 372.874Z" fill="#3167D5"/>
<path d="M204.683 251.796C204.725 251.752 204.047 251.856 203.056 251.416C202.539 251.175 201.974 250.723 201.529 250.013C201.349 249.677 201.168 249.257 201.07 248.792C201.016 248.368 201.044 247.814 201.03 247.304C200.912 242.968 200.786 236.76 200.579 229.107C200.526 227.18 200.486 225.168 200.457 223.07C200.43 222.049 200.871 221.058 201.66 220.355C202.077 220.046 202.538 219.778 203.046 219.678C203.553 219.536 204.107 219.563 204.702 219.546C209.209 219.42 214.014 219.284 219.116 219.141C229.278 218.854 240.461 218.539 252.154 218.21C253.557 218.171 254.9 219.069 255.403 220.331C255.718 220.96 255.694 221.642 255.713 222.364C255.733 223.073 255.752 223.796 255.772 224.532C255.849 227.367 255.925 230.172 256 232.95C256.076 235.727 256.149 238.434 256.221 241.07C256.257 242.402 256.293 243.719 256.328 245.023C256.345 245.661 256.406 246.34 256.381 246.979C256.355 247.575 256.158 248.176 255.831 248.653C255.178 249.693 254.003 250.279 252.81 250.228C251.563 250.263 250.344 250.297 249.153 250.331C246.744 250.427 244.406 250.507 242.139 250.571C237.631 250.698 233.422 250.816 229.553 250.925C221.9 251.183 215.694 251.4 211.357 251.523C209.231 251.583 207.574 251.672 206.426 251.704C205.859 251.72 205.433 251.732 205.15 251.74C204.952 251.774 204.797 251.792 204.683 251.796C204.797 251.792 204.953 251.802 205.152 251.825C205.436 251.817 205.861 251.805 206.428 251.789C207.576 251.757 209.235 251.753 211.361 251.693C215.698 251.571 221.907 251.438 229.562 251.265C233.431 251.156 237.641 251.038 242.148 250.911C244.415 250.847 246.754 250.795 249.165 250.756C250.355 250.722 251.574 250.688 252.821 250.653C254.099 250.702 255.443 250.026 256.178 248.899C256.546 248.335 256.782 247.648 256.806 246.967C256.788 246.287 256.772 245.691 256.753 245.011C256.718 243.707 256.682 242.39 256.646 241.058C256.574 238.422 256.501 235.715 256.426 232.938C256.35 230.16 256.274 227.355 256.197 224.52C256.177 223.784 256.158 223.061 256.138 222.352C256.12 221.672 256.141 220.863 255.823 220.149C255.231 218.719 253.714 217.698 252.142 217.785C240.449 218.114 229.267 218.429 219.105 218.715C214.003 218.902 209.199 219.037 204.692 219.164C204.139 219.179 203.542 219.154 202.951 219.298C202.401 219.441 201.857 219.754 201.441 220.106C200.567 220.854 200.087 221.974 200.117 223.079C200.174 225.176 200.229 227.189 200.281 229.116C200.531 236.767 200.699 242.974 200.86 247.309C200.874 247.819 200.845 248.33 200.944 248.838C201.041 249.303 201.223 249.723 201.446 250.1C201.891 250.811 202.499 251.262 203.015 251.46C203.532 251.7 203.959 251.773 204.258 251.808C204.457 251.802 204.598 251.798 204.683 251.796Z" fill="#64EDFF"/>
<path d="M247.839 242.637C246.97 242.662 246.246 241.977 246.223 241.109C246.199 240.24 246.884 239.516 247.753 239.492C248.622 239.467 249.345 240.152 249.369 241.02C249.392 241.889 248.707 242.613 247.839 242.637Z" fill="#64EDFF"/>
<path fill-rule="evenodd" clip-rule="evenodd" d="M247.822 242.013C247.298 242.027 246.862 241.615 246.848 241.091C246.833 240.567 247.246 240.131 247.77 240.116C248.294 240.101 248.73 240.514 248.744 241.038C248.758 241.561 248.345 241.998 247.822 242.013ZM246.223 241.109C246.246 241.977 246.97 242.662 247.839 242.637C248.707 242.613 249.392 241.889 249.369 241.02C249.345 240.152 248.622 239.467 247.753 239.492C246.884 239.516 246.199 240.24 246.223 241.109Z" fill="#64EDFF"/>
<path d="M242.485 242.78C241.616 242.805 240.893 242.12 240.869 241.252C240.846 240.383 241.531 239.659 242.4 239.635C243.268 239.61 243.992 240.294 244.015 241.163C244.039 242.032 243.354 242.756 242.485 242.78Z" fill="#64EDFF"/>
<path fill-rule="evenodd" clip-rule="evenodd" d="M242.468 242.155C241.944 242.17 241.508 241.758 241.494 241.234C241.48 240.71 241.893 240.274 242.417 240.259C242.94 240.244 243.376 240.657 243.391 241.181C243.405 241.704 242.992 242.141 242.468 242.155ZM240.869 241.252C240.893 242.12 241.616 242.805 242.485 242.78C243.354 242.756 244.039 242.032 244.015 241.163C243.992 240.294 243.268 239.61 242.4 239.635C241.531 239.659 240.846 240.383 240.869 241.252Z" fill="#64EDFF"/>
<path d="M237.298 242.928C236.429 242.953 235.705 242.268 235.682 241.4C235.658 240.531 236.343 239.807 237.212 239.783C238.081 239.758 238.804 240.443 238.828 241.311C238.851 242.18 238.166 242.904 237.298 242.928Z" fill="#64EDFF"/>
<path fill-rule="evenodd" clip-rule="evenodd" d="M237.281 242.304C236.757 242.319 236.321 241.906 236.307 241.382C236.292 240.859 236.705 240.422 237.229 240.407C237.753 240.393 238.189 240.805 238.203 241.329C238.217 241.853 237.804 242.289 237.281 242.304ZM235.682 241.4C235.705 242.268 236.429 242.953 237.298 242.928C238.166 242.904 238.851 242.18 238.828 241.311C238.804 240.443 238.081 239.758 237.212 239.783C236.343 239.807 235.658 240.531 235.682 241.4Z" fill="#64EDFF"/>
<path d="M232.155 243.067C231.286 243.091 230.563 242.407 230.539 241.538C230.516 240.67 231.201 239.946 232.07 239.921C232.938 239.897 233.662 240.581 233.685 241.45C233.709 242.318 233.024 243.042 232.155 243.067Z" fill="#64EDFF"/>
<path fill-rule="evenodd" clip-rule="evenodd" d="M232.138 242.442C231.614 242.457 231.178 242.044 231.164 241.521C231.15 240.997 231.563 240.56 232.087 240.546C232.61 240.531 233.046 240.944 233.061 241.467C233.075 241.991 232.662 242.427 232.138 242.442ZM230.539 241.538C230.563 242.407 231.286 243.091 232.155 243.067C233.024 243.042 233.709 242.318 233.685 241.45C233.662 240.581 232.938 239.897 232.07 239.921C231.201 239.946 230.516 240.67 230.539 241.538Z" fill="#64EDFF"/>
<path d="M232.549 231.542L246.795 231.142C247.816 231.113 248.644 230.281 248.615 229.218C248.588 228.197 247.714 227.371 246.693 227.399L232.447 227.8C231.427 227.828 230.599 228.703 230.627 229.723C230.656 230.787 231.528 231.571 232.549 231.542Z" fill="#64EDFF"/>
<path fill-rule="evenodd" clip-rule="evenodd" d="M246.778 230.517L232.532 230.917C231.847 230.936 231.271 230.415 231.252 229.706C231.233 229.03 231.789 228.444 232.464 228.425L246.71 228.024C247.386 228.005 247.972 228.56 247.99 229.236C248.01 229.944 247.463 230.498 246.778 230.517ZM246.795 231.142L232.549 231.542C231.528 231.571 230.656 230.787 230.627 229.723C230.599 228.703 231.427 227.828 232.447 227.8L246.693 227.399C247.714 227.371 248.588 228.197 248.615 229.218C248.644 230.281 247.816 231.113 246.795 231.142Z" fill="#64EDFF"/>
<path d="M247.395 236.703C246.526 236.727 245.803 236.043 245.78 235.175C245.756 234.306 246.441 233.582 247.31 233.557C248.179 233.533 248.902 234.217 248.925 235.086C248.949 235.954 248.264 236.679 247.395 236.703Z" fill="#64EDFF"/>
<path fill-rule="evenodd" clip-rule="evenodd" d="M247.378 236.078C246.855 236.093 246.418 235.681 246.404 235.157C246.39 234.633 246.803 234.197 247.327 234.182C247.851 234.167 248.287 234.58 248.301 235.103C248.315 235.627 247.902 236.064 247.378 236.078ZM245.78 235.175C245.803 236.043 246.526 236.727 247.395 236.703C248.264 236.679 248.949 235.954 248.925 235.086C248.902 234.217 248.179 233.533 247.31 233.557C246.441 233.582 245.756 234.306 245.78 235.175Z" fill="#64EDFF"/>
<path d="M242.071 236.848C241.202 236.872 240.479 236.188 240.455 235.319C240.432 234.451 241.117 233.727 241.986 233.702C242.854 233.678 243.578 234.362 243.601 235.231C243.625 236.099 242.94 236.823 242.071 236.848Z" fill="#64EDFF"/>
<path fill-rule="evenodd" clip-rule="evenodd" d="M242.054 236.223C241.53 236.238 241.094 235.825 241.08 235.302C241.066 234.778 241.479 234.342 242.003 234.327C242.526 234.312 242.962 234.725 242.977 235.248C242.991 235.772 242.578 236.208 242.054 236.223ZM240.455 235.319C240.479 236.188 241.202 236.872 242.071 236.848C242.94 236.823 243.625 236.099 243.601 235.231C243.578 234.362 242.854 233.678 241.986 233.702C241.117 233.727 240.432 234.451 240.455 235.319Z" fill="#64EDFF"/>
<path d="M236.889 236.995C236.021 237.019 235.297 236.335 235.274 235.466C235.25 234.598 235.935 233.874 236.804 233.849C237.673 233.825 238.396 234.509 238.42 235.378C238.443 236.246 237.758 236.97 236.889 236.995Z" fill="#64EDFF"/>
<path fill-rule="evenodd" clip-rule="evenodd" d="M236.872 236.37C236.349 236.385 235.913 235.972 235.898 235.449C235.884 234.925 236.297 234.488 236.821 234.474C237.345 234.459 237.781 234.872 237.795 235.395C237.809 235.919 237.396 236.355 236.872 236.37ZM235.274 235.466C235.297 236.335 236.021 237.019 236.889 236.995C237.758 236.97 238.443 236.246 238.42 235.378C238.396 234.509 237.673 233.825 236.804 233.849C235.935 233.874 235.25 234.598 235.274 235.466Z" fill="#64EDFF"/>
<path d="M231.69 237.134C230.821 237.158 230.098 236.474 230.075 235.605C230.051 234.737 230.736 234.013 231.605 233.988C232.473 233.964 233.197 234.648 233.22 235.517C233.244 236.385 232.559 237.109 231.69 237.134Z" fill="#64EDFF"/>
<path fill-rule="evenodd" clip-rule="evenodd" d="M231.673 236.509C231.149 236.524 230.713 236.111 230.699 235.588C230.685 235.064 231.098 234.627 231.622 234.613C232.145 234.598 232.582 235.01 232.596 235.534C232.61 236.058 232.197 236.494 231.673 236.509ZM230.075 235.605C230.098 236.474 230.821 237.158 231.69 237.134C232.559 237.109 233.244 236.385 233.22 235.517C233.197 234.648 232.473 233.964 231.605 233.988C230.736 234.013 230.051 234.737 230.075 235.605Z" fill="#64EDFF"/>
<path d="M209.672 227.188L218.345 226.943C219.12 226.921 219.765 227.531 219.786 228.306L220.021 236.977C220.041 237.752 219.43 238.397 218.655 238.419L209.983 238.664C209.208 238.686 208.563 238.076 208.542 237.301L208.307 228.63C208.286 227.855 208.897 227.209 209.672 227.188Z" fill="#64EDFF"/>
<path fill-rule="evenodd" clip-rule="evenodd" d="M209.689 227.812L218.362 227.567C218.792 227.555 219.15 227.894 219.161 228.323L219.396 236.995C219.407 237.424 219.068 237.782 218.639 237.795L209.966 238.04C209.536 238.052 209.178 237.713 209.166 237.283L208.932 228.612C208.92 228.182 209.259 227.824 209.689 227.812ZM218.345 226.943L209.672 227.188C208.897 227.209 208.286 227.855 208.307 228.63L208.542 237.301C208.563 238.076 209.208 238.686 209.983 238.664L218.655 238.419C219.43 238.397 220.041 237.752 220.021 236.977L219.786 228.306C219.765 227.531 219.12 226.921 218.345 226.943Z" fill="#64EDFF"/>
<path d="M209.37 244.138L219.533 243.853C220.426 243.827 221.13 243.084 221.106 242.234C221.082 241.341 220.34 240.638 219.447 240.663L209.283 240.949C208.39 240.974 207.687 241.717 207.711 242.61C207.734 243.461 208.477 244.163 209.37 244.138Z" fill="#64EDFF"/>
<path fill-rule="evenodd" clip-rule="evenodd" d="M219.516 243.228L209.353 243.514C208.794 243.529 208.349 243.087 208.336 242.593C208.321 242.045 208.752 241.589 209.3 241.574L219.463 241.288C220.011 241.273 220.467 241.703 220.482 242.251C220.495 242.746 220.075 243.212 219.516 243.228ZM219.533 243.853L209.37 244.138C208.477 244.163 207.734 243.461 207.711 242.61C207.687 241.717 208.39 240.974 209.283 240.949L219.447 240.663C220.34 240.638 221.082 241.341 221.106 242.234C221.13 243.084 220.426 243.827 219.533 243.853Z" fill="#64EDFF"/>
<path d="M180.819 162.397C179.893 166.424 181.054 170.617 183.838 173.586C183.249 166.735 184.805 160.08 188.487 153.632C184.654 155.073 181.754 158.347 180.819 162.397Z" fill="white" stroke="#64EDFF" stroke-width="1.04522"/>
<path d="M241.142 126.97C218.459 120.816 195.912 132.403 188.826 154.097L188.18 154.981C186.599 157.382 187.04 156.255 185.218 162.973C183.395 169.692 185.027 183.867 193.15 192.267L194.052 193.388C220.936 220.468 262.108 214.817 271.574 179.924C277.813 156.929 263.825 133.124 241.142 126.97Z" fill="white" stroke="#64EDFF" stroke-width="2.09043"/>
<path d="M232.644 142.405C211.298 136.613 190.321 146.144 185.63 163.434C180.941 180.718 194.225 199.543 215.571 205.334C236.923 211.127 257.894 201.595 262.583 184.311C267.274 167.021 253.995 148.197 232.644 142.405Z" fill="#00A4FF" stroke="#64EDFF" stroke-width="1.04522"/>
<path d="M216.458 202.061C197.574 196.938 185.561 180.642 189.624 165.663C193.688 150.684 212.29 142.694 231.174 147.817C250.057 152.94 262.071 169.236 258.007 184.215C253.943 199.194 235.341 207.184 216.458 202.061Z" fill="#6C6C6C"/>
<path d="M190.015 163.157C189.847 164.212 189.737 165.288 189.688 166.381C189.529 169.874 190.004 173.262 191.007 176.441C190.39 177.109 189.853 177.811 189.399 178.529C192.512 189.046 202.5 198.422 215.998 202.084C218.404 202.737 220.804 203.17 223.169 203.412C240.183 203.35 253.84 196.212 254.263 186.783C254.386 184.116 253.433 181.533 251.621 179.171C252.91 176.09 253.683 172.764 253.838 169.264C253.928 167.282 253.814 165.339 253.516 163.446C248.731 156.358 240.677 150.543 230.714 147.84C212.92 143.013 195.379 149.827 190.015 163.157Z" fill="#B0401E"/>
<path d="M233.037 151.881L233.037 151.881C229.06 151.702 225.39 153.165 222.674 155.669C222.6 155.738 222.5 155.774 222.399 155.768C222.297 155.762 222.203 155.715 222.136 155.639C219.653 152.763 216.039 150.871 211.944 150.689L211.944 150.689C206.578 150.448 201.575 153.797 198.958 158.492C196.349 163.174 196.14 169.142 200.296 174.137C200.402 174.266 200.411 174.449 200.318 174.588C200.224 174.726 200.05 174.785 199.891 174.734C196.869 173.751 193.554 174.51 191.258 176.712C190.68 177.34 190.173 177.997 189.743 178.669C189.518 180.471 190.157 182.566 191.503 184.783C192.866 187.027 194.931 189.357 197.46 191.571C202.521 195.998 209.392 199.916 216.08 201.731C218.459 202.376 220.832 202.805 223.171 203.045C231.623 203.012 239.221 201.222 244.746 198.287C250.286 195.345 253.669 191.298 253.871 186.775L253.872 186.774C253.989 184.225 253.086 181.739 251.332 179.44C249.005 177.489 246.125 176.701 242.657 177.101C242.498 177.119 242.344 177.034 242.275 176.889C242.207 176.744 242.238 176.571 242.353 176.459C244.883 174.003 246.517 170.623 246.688 166.822L246.688 166.822C247.047 158.927 240.933 152.234 233.037 151.881Z" fill="#FFCAA1" stroke="#6C6C6C" stroke-width="0.749947" stroke-linejoin="round"/>
<path d="M213.798 190.352L226.805 190.976C226.805 190.976 223.617 197.236 220.175 197.175C216.628 197.112 213.798 190.352 213.798 190.352Z" fill="#FF5959" stroke="#6C6C6C" stroke-width="1.42994" stroke-linecap="round" stroke-linejoin="round"/>
<path d="M220.705 181.218C221.017 181.303 221.366 181.21 221.589 180.952C222.301 180.128 223.452 179.875 224.443 180.32C224.879 180.515 225.391 180.319 225.591 179.885C225.786 179.449 225.591 178.931 225.155 178.737C223.455 177.976 221.496 178.409 220.279 179.815C219.964 180.176 220.004 180.722 220.365 181.038C220.465 181.124 220.584 181.186 220.705 181.218Z" fill="#6C6C6C"/>
<path d="M220.702 181.221C220.948 181.288 221.218 181.249 221.439 181.085C221.826 180.808 221.914 180.267 221.638 179.875C220.564 178.389 218.608 177.77 216.881 178.366C216.426 178.525 216.186 179.019 216.34 179.473C216.5 179.922 216.992 180.168 217.447 180.009C218.46 179.66 219.603 180.023 220.226 180.892C220.345 181.06 220.515 181.17 220.702 181.221Z" fill="#6C6C6C"/>
<path d="M220.646 186.848C220.708 186.865 220.77 186.874 220.833 186.875C221.314 186.9 221.721 186.528 221.745 186.052C221.868 183.385 221.902 182.305 221.935 180.255C221.941 179.774 221.561 179.377 221.08 179.37C220.6 179.363 220.206 179.751 220.201 180.226C220.169 182.253 220.131 183.325 220.008 185.969C219.99 186.382 220.262 186.744 220.646 186.848Z" fill="#6C6C6C"/>
<path d="M272.594 166.134L272.594 166.134C268.401 165.609 264.367 169.165 263.726 174.278C263.085 179.39 266.112 183.832 270.305 184.357L270.306 184.357C274.497 184.887 278.533 181.326 279.173 176.213C279.814 171.101 276.782 166.658 272.594 166.134Z" fill="white" stroke="#64EDFF" stroke-width="1.04522"/>
<path d="M274.253 166.681L274.253 166.681L274.248 166.68C272.647 166.48 271.036 167.2 269.722 168.628C268.409 170.054 267.427 172.157 267.117 174.602C266.812 177.044 267.244 179.323 268.165 181.029C269.087 182.737 270.471 183.833 272.072 184.033L272.076 184.034C272.593 184.103 273.104 184.07 273.608 183.947C276.431 182.857 278.71 179.935 279.18 176.218C279.704 172.012 277.734 168.235 274.681 166.757C274.549 166.723 274.405 166.698 274.253 166.681Z" fill="white" stroke="#64EDFF" stroke-width="1.04522"/>
<path d="M247.496 136.807L247.496 136.807C249.814 132.955 253.492 131.73 256.391 131.552C259.351 131.206 261.579 132.313 262.572 133.962C263.069 134.786 263.246 135.737 263.031 136.661C262.815 137.587 262.217 138.443 261.242 139.097L261.106 139.189L260.942 139.186C257.922 139.131 254.779 139.344 251.82 140.66C250.757 141.134 249.814 141.432 249.028 141.537C248.26 141.64 247.541 141.572 247.033 141.182C246.486 140.762 246.333 140.096 246.438 139.371C246.542 138.655 246.901 137.795 247.496 136.807Z" fill="white" stroke="#64EDFF" stroke-width="1.04522"/>
<path opacity="0.25" d="M260.95 138.66C257.906 138.605 254.672 138.816 251.607 140.179C249.875 140.952 248.547 141.209 247.756 140.967C251.737 138.233 254.315 137.24 259.181 136.712C261.072 136.132 260.929 134.123 260.382 132.657C262.952 133.972 263.472 136.966 260.95 138.66Z" fill="#333333"/>
<path d="M215.952 127.975L215.95 127.975L215.952 127.977L215.572 128.124C211.721 129.623 208.008 132.664 206.061 136.255C205.776 136.783 205.272 137.086 204.73 137.196C204.19 137.305 203.596 137.228 203.091 136.983L202.856 136.87L202.862 136.857C201.987 136.319 201.39 135.225 201.808 134.205C204.056 128.635 206.493 125.996 208.93 125.277C211.385 124.553 213.716 125.808 215.659 127.691L215.952 127.975Z" fill="white" stroke="#64EDFF" stroke-width="0.522608"/>
<path opacity="0.25" d="M201.97 134.547C201.989 134.465 202.014 134.384 202.047 134.303C206.177 124.072 210.829 124.077 214.54 127.051C214.382 127.261 214.211 127.479 214.027 127.706C208.013 129.639 205.347 131.504 201.97 134.547Z" fill="#333333"/>
<path d="M205.683 169.611C205.963 172.982 207.95 175.439 210.125 175.1C212.295 174.759 213.834 171.752 213.554 168.381C213.274 165.01 211.287 162.553 209.112 162.893C206.937 163.233 205.404 166.241 205.683 169.611Z" fill="#6C6C6C"/>
<path d="M207.412 165.851C207.079 166.972 207.37 168.11 208.059 168.391C208.749 168.667 209.577 167.979 209.912 166.852C210.24 165.729 209.95 164.586 209.26 164.31C208.57 164.035 207.742 164.722 207.412 165.851Z" fill="white"/>
<path d="M210.447 172.014C210.166 172.55 210.201 173.183 210.522 173.43C210.851 173.672 211.345 173.435 211.626 172.899C211.906 172.363 211.872 171.73 211.545 171.482C211.222 171.242 210.728 171.478 210.447 172.014Z" fill="white"/>
<path d="M233.741 164.68C231.664 164.204 229.585 166.447 229.096 169.679C228.6 172.916 229.886 175.919 231.96 176.387C234.032 176.861 236.116 174.62 236.605 171.387C237.095 168.149 235.815 165.148 233.741 164.68Z" fill="#6C6C6C"/>
<path d="M233.499 166.031C232.816 166.251 232.458 167.331 232.704 168.439C232.951 169.548 233.702 170.269 234.387 170.043C235.071 169.823 235.429 168.743 235.182 167.635C234.936 166.526 234.183 165.81 233.499 166.031Z" fill="white"/>
<path d="M230.838 172.793C230.503 173.008 230.426 173.617 230.663 174.152C230.901 174.687 231.358 174.953 231.693 174.737C232.023 174.521 232.1 173.912 231.862 173.377C231.625 172.841 231.166 172.581 230.838 172.793Z" fill="white"/>
<g opacity="0.2">
<g opacity="0.2">
<g opacity="0.2">
<path opacity="0.2" d="M189.508 178.363C189.47 178.418 189.431 178.472 189.399 178.528C189.589 179.172 189.804 179.811 190.044 180.445C189.841 179.76 189.659 179.063 189.508 178.363Z" fill="#6C6C6C"/>
</g>
</g>
<g opacity="0.2">
<g opacity="0.2">
<path opacity="0.2" d="M253.451 190.333C253.929 189.198 254.21 188.01 254.265 186.789C254.375 184.365 253.6 182.019 252.103 179.836C251.758 181.154 251.327 182.438 250.808 183.68C252.403 185.76 253.329 188.006 253.451 190.333Z" fill="#6C6C6C"/>
</g>
</g>
</g>
<path d="M222.696 120.331C222.206 118.505 226.745 115.678 233.034 113.794L235.343 113.166C238.95 112.283 242.248 111.934 244.565 112.11C246.061 112.887 245.971 113.463 244.849 114.395C244.48 114.349 244.036 114.319 243.516 114.313C241.661 114.292 239.196 114.579 236.459 115.21C233.415 116.077 228.621 117.734 226.863 118.776C226.416 119.041 226.047 119.289 225.75 119.513C225.009 118.356 222.783 119.495 222.696 120.331Z" fill="#64EDFF"/>
<path fill-rule="evenodd" clip-rule="evenodd" d="M232.82 109.856C232.786 109.982 232.745 110.105 232.698 110.224C233.78 111.124 234.65 112.119 235.343 113.166L236.459 115.21C236.796 115.971 237.058 116.744 237.257 117.512C237.285 117.62 237.312 117.727 237.338 117.834L237.713 120.069C237.974 122.618 237.669 124.919 237.33 126.381L235.142 125.874C235.424 124.654 235.677 122.767 235.513 120.678L235.173 118.446C235.145 118.323 235.115 118.2 235.083 118.077C234.883 117.307 234.611 116.535 234.249 115.779L233.034 113.794C232.536 113.142 231.946 112.52 231.25 111.943C230.455 112.426 229.47 112.595 228.5 112.332C226.623 111.823 225.515 109.889 226.024 108.012C226.533 106.135 228.467 105.027 230.344 105.536C232.221 106.045 233.329 107.979 232.82 109.856Z" fill="#64EDFF"/>
<path fill-rule="evenodd" clip-rule="evenodd" d="M244.565 112.11C246.447 112.253 247.681 112.743 247.904 113.576C248.39 115.388 243.926 118.185 237.714 120.069L235.39 120.709C228.795 122.344 223.198 122.202 222.696 120.331C222.784 119.495 225.009 118.356 225.75 119.513C226.12 119.558 226.563 119.588 227.083 119.594C229.17 119.618 234.191 118.64 237.338 117.834C239.953 117.022 242.172 116.059 243.736 115.132C244.184 114.867 244.553 114.619 244.85 114.395C245.971 113.463 246.062 112.887 244.565 112.11Z" fill="#64EDFF"/>
<path fill-rule="evenodd" clip-rule="evenodd" d="M285.278 242.923C288.338 247.295 287.328 255.149 285.716 258.224C284.104 261.3 282.33 265.196 273.724 265.577C262.966 266.053 213.835 256.782 213.835 256.782C220.064 254.612 223.557 253.395 229.787 251.224L250.988 243.837C263.557 243.332 283.307 240.106 285.278 242.923Z" fill="url(#paint9_linear_29924_64947)"/>
<path fill-rule="evenodd" clip-rule="evenodd" d="M213.835 256.782C220.064 254.612 223.557 253.395 229.787 251.224L225.934 237.794C198.862 239.85 186.832 240.811 180.061 243.686C173.289 246.561 172.792 251.915 173.333 257.288C173.917 263.09 177.306 269.129 183.761 268.843L213.835 256.782Z" fill="url(#paint10_linear_29924_64947)"/>
<path d="M225.934 237.794C240.544 236.684 250.988 243.837 250.988 243.837L229.787 251.224L225.934 237.794Z" fill="url(#paint11_linear_29924_64947)"/>
<g opacity="0.2" filter="url(#filter14_f_29924_64947)">
<path d="M215.72 256.699L232.426 251.108L254.629 243.676M215.72 256.699L196.885 263.949M215.72 256.699C215.72 256.699 242.776 261.526 261.928 263.986M197.601 217.236L194.867 240.195" stroke="black" stroke-width="0.749947"/>
</g>
</g>
<g opacity="0.3" filter="url(#filter15_f_29924_64947)">
<path d="M277.898 129.144L147.369 179.478L144.81 202.94L275.765 149.192L277.898 129.144Z" fill="url(#paint12_linear_29924_64947)"/>
<path d="M273.633 179.478L142.677 235.359V245.17L273.633 190.143V179.478Z" fill="url(#paint13_linear_29924_64947)"/>
<path d="M134.572 330.909L266.807 266.924V273.323L134.572 338.161V330.909Z" fill="url(#paint14_linear_29924_64947)"/>
</g>
</g>
<path fill-rule="evenodd" clip-rule="evenodd" d="M46.9151 226.274L45.2177 201.827C29.529 207.51 18.8486 247.498 18.8486 247.498C17.3189 263.596 36.4907 263.724 41.9737 255.395C43.9627 253.06 46.9151 226.274 46.9151 226.274Z" fill="url(#paint15_linear_29924_64947)"/>
<path fill-rule="evenodd" clip-rule="evenodd" d="M106.229 238.723C104.718 235.299 102.107 232.99 100.696 228.548L104.665 200.13C128.387 203.591 132.353 250.569 132.353 250.569C133.286 266.713 115.26 266.907 110.088 258.38C108.187 255.974 109.691 246.566 106.229 238.723Z" fill="url(#paint16_linear_29924_64947)"/>
<path fill-rule="evenodd" clip-rule="evenodd" d="M62.5787 192.571L88.422 193.293C88.4497 193.294 88.4762 193.297 88.5033 193.302C89.3342 193.459 101.912 196.527 111.006 202.524C111.164 202.628 111.25 202.811 111.237 202.999C110.398 214.415 111.082 220.836 110.447 231.764L109.517 265.023C109.516 265.062 109.519 265.102 109.527 265.141L124.355 338.589C124.414 338.879 124.22 339.16 123.928 339.208L97.8478 343.52C97.5965 343.561 97.3518 343.415 97.2686 343.175L81.4654 297.444C81.4551 297.414 81.4474 297.382 81.4423 297.351C80.9774 294.511 78.1356 294.447 78.0557 297.304L72.2532 342.898C72.2171 343.181 71.96 343.383 71.676 343.351L45.0221 340.336C44.7614 340.306 44.563 340.088 44.5583 339.826L43.2588 266.86L42.6428 252.038C42.1406 229.984 42.8117 222.735 43.2509 203.043C43.2556 202.833 43.3837 202.642 43.5773 202.563C52.7115 198.835 62.3581 192.573 62.5655 192.57C62.5701 192.57 62.5715 192.57 62.5742 192.571L62.5787 192.571Z" fill="url(#paint17_linear_29924_64947)"/>
<path d="M87.3936 290.507C81.5351 294.958 77.76 295.09 70.1343 290.742C70.1343 290.742 75.6579 295.365 79.768 294.957C83.2408 294.612 87.3936 290.507 87.3936 290.507Z" fill="#64EDFF"/>
<path d="M85.3517 279.471C95.4818 272.435 100.256 269.954 109.745 267.083L109.422 269.196L109.905 270.802C94.9058 276.051 97.281 273.531 85.3517 279.471Z" fill="#64EDFF"/>
<path d="M67.588 278.974C57.8668 271.383 53.2382 268.64 43.9249 265.243L44.1292 267.371L43.5576 268.947C58.2398 275.026 56.0092 272.377 67.588 278.974Z" fill="#64EDFF"/>
<path d="M74.4048 367.531C66.5782 371.276 26.5574 376.282 22.2017 366.483C21.7832 365.535 21.687 364.577 21.8855 363.606C22.7686 359.085 26.3946 353.412 34.3451 349.681C42.2975 345.935 44.7674 339.196 44.7674 339.196L71.8954 341.538C75.707 348.243 78.2623 355.313 77.0826 362.824C77.107 364.863 76.3585 366.59 74.403 367.546L74.4048 367.531Z" fill="url(#paint18_linear_29924_64947)"/>
<path d="M74.3946 367.521C66.568 371.266 25.9948 377.989 21.639 368.189C21.2206 367.241 20.5062 364.686 22.777 361.565C31.7059 364.323 47.5288 368.64 77.1498 360.248C77.6123 364.693 76.3483 366.58 74.3928 367.536L74.3946 367.521Z" fill="#3167D5"/>
<path d="M97.0294 369.389C105.124 372.513 145.413 374.386 148.992 364.277C149.336 363.299 149.357 362.337 149.083 361.384C147.851 356.946 143.794 351.572 135.577 348.472C127.357 345.357 124.369 338.831 124.369 338.831L97.5062 343.28C94.2285 350.261 92.2318 357.508 93.9931 364.905C94.1276 366.939 95.0084 368.603 97.0324 369.404L97.0294 369.389Z" fill="url(#paint19_linear_29924_64947)"/>
<path d="M97.0403 369.377C105.135 372.501 146.109 376.043 149.688 365.933C150.031 364.955 150.544 362.353 148.037 359.418C139.35 362.863 123.912 368.4 93.727 362.34C93.6121 366.808 95.0193 368.591 97.0434 369.392L97.0403 369.377Z" fill="#3167D5"/>
<path d="M101.326 248.298C101.285 248.254 101.963 248.358 102.954 247.918C103.471 247.677 104.036 247.225 104.481 246.515C104.66 246.179 104.842 245.759 104.94 245.294C104.994 244.87 104.966 244.316 104.98 243.806C105.098 239.47 105.224 233.262 105.431 225.61C105.483 223.682 105.524 221.67 105.552 219.572C105.58 218.551 105.139 217.56 104.35 216.857C103.932 216.548 103.472 216.28 102.964 216.18C102.457 216.038 101.903 216.065 101.308 216.049C96.8006 215.922 91.9959 215.786 86.8936 215.643C76.7314 215.356 65.5488 215.041 53.8559 214.712C52.4528 214.673 51.1093 215.571 50.607 216.833C50.292 217.462 50.3161 218.144 50.2965 218.866C50.2773 219.575 50.2576 220.298 50.2377 221.034C50.1608 223.869 50.0846 226.674 50.0093 229.452C49.9339 232.229 49.8605 234.936 49.789 237.572C49.7528 238.904 49.7171 240.222 49.6817 241.525C49.6644 242.163 49.6034 242.842 49.6286 243.481C49.655 244.077 49.8515 244.678 50.1789 245.155C50.8316 246.195 52.0071 246.781 53.2 246.73C54.4472 246.765 55.6661 246.799 56.8567 246.833C59.2653 246.929 61.6035 247.009 63.8712 247.073C68.3783 247.2 72.5877 247.318 76.457 247.427C84.1094 247.685 90.3161 247.903 94.6531 248.025C96.7791 248.085 98.4362 248.174 99.5842 248.206C100.151 248.222 100.576 248.234 100.86 248.242C101.057 248.276 101.213 248.295 101.326 248.298C101.213 248.295 101.057 248.304 100.857 248.327C100.574 248.319 100.149 248.307 99.5819 248.291C98.4338 248.259 96.7744 248.255 94.6485 248.195C90.3115 248.073 84.1025 247.94 76.4478 247.767C72.5785 247.658 68.3691 247.54 63.862 247.413C61.5943 247.349 59.2553 247.297 56.8451 247.258C55.6546 247.224 54.4357 247.19 53.1884 247.155C51.9105 247.204 50.5672 246.528 49.8319 245.401C49.4642 244.838 49.2275 244.15 49.2034 243.469C49.2219 242.789 49.238 242.193 49.2565 241.513C49.2919 240.21 49.3276 238.892 49.3638 237.56C49.4353 234.924 49.5087 232.217 49.5841 229.44C49.6594 226.662 49.7356 223.857 49.8125 221.022C49.8324 220.286 49.8521 219.563 49.8713 218.854C49.8897 218.174 49.8691 217.365 50.1864 216.651C50.7784 215.221 52.2954 214.2 53.8674 214.287C65.5603 214.616 76.7429 214.931 86.9051 215.217C92.0063 215.404 96.811 215.539 101.318 215.666C101.871 215.681 102.467 215.656 103.059 215.8C103.608 215.943 104.153 216.256 104.569 216.608C105.442 217.356 105.923 218.476 105.893 219.581C105.836 221.678 105.781 223.691 105.729 225.618C105.479 233.269 105.31 239.476 105.15 243.811C105.136 244.321 105.165 244.832 105.066 245.34C104.968 245.805 104.787 246.225 104.564 246.602C104.119 247.313 103.511 247.764 102.995 247.962C102.478 248.203 102.05 248.276 101.752 248.31C101.553 248.304 101.411 248.3 101.326 248.298Z" fill="#64EDFF"/>
<path d="M58.1771 239.139C59.0458 239.163 59.7692 238.479 59.7928 237.61C59.8164 236.742 59.1313 236.018 58.2625 235.993C57.3937 235.969 56.6703 236.653 56.6467 237.522C56.6231 238.39 57.3083 239.114 58.1771 239.139Z" fill="#64EDFF"/>
<path fill-rule="evenodd" clip-rule="evenodd" d="M58.194 238.514C58.7178 238.529 59.1539 238.116 59.1681 237.593C59.1823 237.069 58.7693 236.633 58.2455 236.618C57.7218 236.603 57.2856 237.016 57.2714 237.539C57.2572 238.063 57.6703 238.499 58.194 238.514ZM59.7928 237.61C59.7692 238.479 59.0458 239.163 58.1771 239.139C57.3083 239.114 56.6231 238.39 56.6467 237.522C56.6703 236.653 57.3937 235.969 58.2625 235.993C59.1313 236.018 59.8164 236.742 59.7928 237.61Z" fill="#64EDFF"/>
<path d="M63.5267 239.282C64.3954 239.306 65.1188 238.622 65.1423 237.753C65.1659 236.885 64.4808 236.161 63.612 236.136C62.7433 236.112 62.02 236.796 61.9964 237.665C61.9728 238.533 62.658 239.257 63.5267 239.282Z" fill="#64EDFF"/>
<path fill-rule="evenodd" clip-rule="evenodd" d="M63.5436 238.657C64.0674 238.672 64.5035 238.259 64.5177 237.736C64.5319 237.212 64.1188 236.776 63.5951 236.761C63.0713 236.746 62.6353 237.159 62.621 237.682C62.6068 238.206 63.0199 238.643 63.5436 238.657ZM65.1423 237.753C65.1188 238.622 64.3954 239.306 63.5267 239.282C62.658 239.257 61.9728 238.533 61.9964 237.665C62.02 236.796 62.7433 236.112 63.612 236.136C64.4808 236.161 65.1659 236.885 65.1423 237.753Z" fill="#64EDFF"/>
<path d="M68.7122 239.43C69.5809 239.455 70.3043 238.771 70.3279 237.902C70.3514 237.033 69.6663 236.309 68.7976 236.285C67.9288 236.26 67.2055 236.945 67.1819 237.813C67.1584 238.682 67.8435 239.406 68.7122 239.43Z" fill="#64EDFF"/>
<path fill-rule="evenodd" clip-rule="evenodd" d="M68.7292 238.806C69.2529 238.821 69.689 238.408 69.7032 237.884C69.7174 237.361 69.3044 236.924 68.7806 236.909C68.2569 236.895 67.8208 237.307 67.8066 237.831C67.7924 238.355 68.2054 238.791 68.7292 238.806ZM70.3279 237.902C70.3043 238.771 69.5809 239.455 68.7122 239.43C67.8435 239.406 67.1584 238.682 67.1819 237.813C67.2055 236.945 67.9288 236.26 68.7976 236.285C69.6663 236.309 70.3514 237.033 70.3279 237.902Z" fill="#64EDFF"/>
<path d="M73.8587 239.569C74.7274 239.593 75.4508 238.909 75.4744 238.04C75.4979 237.172 74.8128 236.448 73.9441 236.423C73.0753 236.399 72.352 237.083 72.3284 237.952C72.3048 238.82 72.99 239.544 73.8587 239.569Z" fill="#64EDFF"/>
<path fill-rule="evenodd" clip-rule="evenodd" d="M73.8757 238.944C74.3994 238.959 74.8355 238.546 74.8497 238.023C74.8639 237.499 74.4509 237.063 73.9271 237.048C73.4034 237.033 72.9673 237.446 72.9531 237.969C72.9389 238.493 73.3519 238.93 73.8757 238.944ZM75.4744 238.04C75.4508 238.909 74.7274 239.593 73.8587 239.569C72.99 239.544 72.3048 238.82 72.3284 237.952C72.352 237.083 73.0753 236.399 73.9441 236.423C74.8128 236.448 75.4979 237.172 75.4744 238.04Z" fill="#64EDFF"/>
<path d="M73.4628 228.044L59.2166 227.644C58.196 227.615 57.3675 226.784 57.3964 225.72C57.4241 224.7 58.2978 223.873 59.3184 223.902L73.5645 224.302C74.5852 224.331 75.4126 225.205 75.3848 226.226C75.3559 227.289 74.4834 228.073 73.4628 228.044Z" fill="#64EDFF"/>
<path fill-rule="evenodd" clip-rule="evenodd" d="M59.2336 227.019L73.4798 227.42C74.1646 227.439 74.7407 226.917 74.7599 226.208C74.7783 225.533 74.2231 224.946 73.5475 224.927L59.3014 224.527C58.6259 224.508 58.0396 225.062 58.0212 225.738C58.002 226.447 58.5488 227 59.2336 227.019ZM59.2166 227.644L73.4628 228.044C74.4834 228.073 75.3559 227.289 75.3848 226.226C75.4126 225.205 74.5852 224.331 73.5645 224.302L59.3184 223.902C58.2978 223.873 57.4241 224.7 57.3964 225.72C57.3675 226.784 58.196 227.615 59.2166 227.644Z" fill="#64EDFF"/>
<path d="M58.6165 233.206C59.4853 233.23 60.2086 232.546 60.2321 231.677C60.2557 230.808 59.5706 230.084 58.7018 230.06C57.8331 230.035 57.1098 230.72 57.0863 231.588C57.0627 232.457 57.7478 233.181 58.6165 233.206Z" fill="#64EDFF"/>
<path fill-rule="evenodd" clip-rule="evenodd" d="M58.6335 232.581C59.1572 232.596 59.5933 232.183 59.6075 231.659C59.6217 231.136 59.2086 230.699 58.6849 230.685C58.1612 230.67 57.7251 231.082 57.7109 231.606C57.6967 232.13 58.1098 232.566 58.6335 232.581ZM60.2321 231.677C60.2086 232.546 59.4853 233.23 58.6165 233.206C57.7478 233.181 57.0627 232.457 57.0863 231.588C57.1098 230.72 57.8331 230.035 58.7018 230.06C59.5706 230.084 60.2557 230.808 60.2321 231.677Z" fill="#64EDFF"/>
<path d="M63.9388 233.351C64.8075 233.375 65.5309 232.691 65.5544 231.822C65.578 230.954 64.8928 230.23 64.0241 230.205C63.1554 230.181 62.4321 230.865 62.4085 231.734C62.385 232.602 63.0701 233.326 63.9388 233.351Z" fill="#64EDFF"/>
<path fill-rule="evenodd" clip-rule="evenodd" d="M63.9557 232.726C64.4795 232.741 64.9156 232.328 64.9298 231.805C64.944 231.281 64.5309 230.844 64.0072 230.83C63.4834 230.815 63.0474 231.227 63.0332 231.751C63.019 232.275 63.432 232.711 63.9557 232.726ZM65.5544 231.822C65.5309 232.691 64.8075 233.375 63.9388 233.351C63.0701 233.326 62.385 232.602 62.4085 231.734C62.4321 230.865 63.1554 230.181 64.0241 230.205C64.8928 230.23 65.578 230.954 65.5544 231.822Z" fill="#64EDFF"/>
<path d="M69.1224 233.498C69.9911 233.522 70.7145 232.838 70.738 231.969C70.7616 231.1 70.0764 230.376 69.2077 230.352C68.339 230.327 67.6157 231.012 67.5921 231.88C67.5686 232.749 68.2537 233.473 69.1224 233.498Z" fill="#64EDFF"/>
<path fill-rule="evenodd" clip-rule="evenodd" d="M69.1394 232.873C69.6631 232.888 70.0992 232.475 70.1134 231.951C70.1276 231.428 69.7145 230.991 69.1908 230.977C68.667 230.962 68.231 231.374 68.2168 231.898C68.2026 232.422 68.6156 232.858 69.1394 232.873ZM70.738 231.969C70.7145 232.838 69.9911 233.522 69.1224 233.498C68.2537 233.473 67.5686 232.749 67.5921 231.88C67.6157 231.012 68.339 230.327 69.2077 230.352C70.0764 230.376 70.7616 231.1 70.738 231.969Z" fill="#64EDFF"/>
<path d="M74.3236 233.636C75.1923 233.661 75.9156 232.976 75.9392 232.108C75.9627 231.239 75.2776 230.515 74.4089 230.49C73.5402 230.466 72.8168 231.15 72.7933 232.019C72.7697 232.888 73.4549 233.612 74.3236 233.636Z" fill="#64EDFF"/>
<path fill-rule="evenodd" clip-rule="evenodd" d="M74.3405 233.011C74.8642 233.026 75.3003 232.614 75.3145 232.09C75.3287 231.566 74.9157 231.13 74.3919 231.115C73.8682 231.1 73.4321 231.513 73.4179 232.037C73.4037 232.56 73.8168 232.997 74.3405 233.011ZM75.9392 232.108C75.9156 232.976 75.1923 233.661 74.3236 233.636C73.4549 233.612 72.7697 232.888 72.7933 232.019C72.8168 231.15 73.5402 230.466 74.4089 230.49C75.2776 230.515 75.9627 231.239 75.9392 232.108Z" fill="#64EDFF"/>
<path d="M96.3395 223.69L87.6667 223.445C86.8918 223.423 86.2467 224.033 86.2257 224.808L85.9912 233.479C85.9702 234.254 86.5814 234.899 87.3562 234.921L96.0291 235.166C96.8039 235.188 97.4491 234.578 97.47 233.803L97.7046 225.132C97.7255 224.357 97.1144 223.712 96.3395 223.69Z" fill="#64EDFF"/>
<path fill-rule="evenodd" clip-rule="evenodd" d="M96.3226 224.314L87.6498 224.069C87.2199 224.057 86.862 224.396 86.8504 224.825L86.6159 233.497C86.6042 233.926 86.9433 234.285 87.3731 234.297L96.046 234.542C96.4758 234.554 96.8337 234.215 96.8453 233.786L97.0799 225.114C97.0915 224.685 96.7525 224.326 96.3226 224.314ZM87.6667 223.445L96.3395 223.69C97.1144 223.712 97.7255 224.357 97.7046 225.132L97.47 233.803C97.4491 234.578 96.8039 235.188 96.0291 235.166L87.3562 234.921C86.5814 234.899 85.9702 234.254 85.9912 233.479L86.2257 224.808C86.2467 224.033 86.8918 223.423 87.6667 223.445Z" fill="#64EDFF"/>
<path d="M96.6402 240.641L86.4766 240.355C85.5835 240.33 84.8802 239.587 84.9034 238.736C84.9276 237.843 85.6702 237.141 86.5632 237.166L96.7269 237.451C97.6199 237.477 98.3232 238.22 98.2989 239.113C98.2758 239.963 97.5332 240.666 96.6402 240.641Z" fill="#64EDFF"/>
<path fill-rule="evenodd" clip-rule="evenodd" d="M86.4936 239.73L96.6572 240.016C97.216 240.032 97.6607 239.59 97.6741 239.095C97.689 238.547 97.2578 238.092 96.7099 238.076L86.5463 237.79C85.9983 237.775 85.5431 238.206 85.5282 238.754C85.5148 239.248 85.9348 239.714 86.4936 239.73ZM86.4766 240.355L96.6402 240.641C97.5332 240.666 98.2758 239.963 98.2989 239.113C98.3232 238.22 97.6199 237.477 96.7269 237.451L86.5632 237.166C85.6702 237.141 84.9276 237.843 84.9034 238.736C84.8802 239.587 85.5835 240.33 86.4766 240.355Z" fill="#64EDFF"/>
<path d="M125.193 158.9C126.118 162.927 124.958 167.119 122.173 170.088C122.762 163.238 121.207 156.583 117.524 150.135C121.358 151.576 124.257 154.849 125.193 158.9Z" fill="white" stroke="#64EDFF" stroke-width="1.04522"/>
<path d="M64.8733 123.472C87.5562 117.318 110.104 128.905 117.19 150.599L117.836 151.483C119.417 153.884 118.975 152.757 120.798 159.476C122.621 166.194 120.989 180.37 112.865 188.769L111.963 189.89C85.0792 216.971 43.9079 211.319 34.4416 176.426C28.203 153.431 42.1905 129.626 64.8733 123.472Z" fill="white" stroke="#64EDFF" stroke-width="2.09043"/>
<path d="M73.3719 138.907C94.718 133.116 115.695 142.646 120.386 159.936C125.075 177.22 111.791 196.045 90.4445 201.836C69.093 207.629 48.1214 198.097 43.4322 180.813C38.7414 163.523 52.0204 144.699 73.3719 138.907Z" fill="#00A4FF" stroke="#64EDFF" stroke-width="1.04522"/>
<path d="M89.558 198.563C108.441 193.44 120.455 177.145 116.391 162.166C112.328 147.187 93.7252 139.197 74.8418 144.32C55.9584 149.443 43.9447 165.739 48.0085 180.718C52.0722 195.697 70.6746 203.686 89.558 198.563Z" fill="#6C6C6C"/>
<path d="M115.996 159.659C116.165 160.714 116.274 161.79 116.324 162.883C116.483 166.376 116.008 169.764 115.005 172.943C115.622 173.611 116.159 174.313 116.613 175.031C113.5 185.548 103.512 194.924 90.0136 198.586C87.6078 199.239 85.2072 199.672 82.8428 199.914C65.8283 199.852 52.1714 192.714 51.7492 183.285C51.6257 180.618 52.5784 178.035 54.3909 175.673C53.1021 172.592 52.3291 169.266 52.1739 165.766C52.0834 163.784 52.1976 161.841 52.4959 159.948C57.2805 152.86 65.3343 147.045 75.2975 144.342C93.0919 139.515 110.632 146.329 115.996 159.659Z" fill="#B0401E"/>
<path d="M72.9751 148.383L72.9752 148.383C76.9515 148.205 80.6221 149.668 83.3373 152.172C83.412 152.241 83.5114 152.276 83.6128 152.27C83.7142 152.265 83.809 152.218 83.8754 152.141C86.3583 149.265 89.9726 147.374 94.0681 147.191L94.0682 147.191C99.434 146.951 104.437 150.3 107.054 154.995C109.663 159.676 109.872 165.645 105.716 170.64C105.609 170.768 105.6 170.952 105.694 171.09C105.788 171.228 105.962 171.288 106.12 171.236C109.142 170.253 112.457 171.013 114.753 173.215C115.332 173.843 115.838 174.5 116.268 175.171C116.493 176.973 115.855 179.068 114.508 181.286C113.146 183.53 111.081 185.86 108.551 188.073C103.491 192.501 96.6197 196.419 89.9319 198.233C87.5531 198.879 85.1793 199.308 82.8408 199.548C74.3886 199.514 66.791 197.724 61.2662 194.79C55.7261 191.848 52.3428 187.8 52.1402 183.277L52.1402 183.277C52.0222 180.728 52.9259 178.241 54.6802 175.942C57.007 173.992 59.8862 173.204 63.3545 173.604C63.514 173.622 63.6675 173.537 63.7363 173.392C63.8051 173.247 63.7739 173.074 63.6587 172.962C61.1286 170.506 59.4951 167.125 59.3239 163.324L59.3239 163.324C58.9651 155.429 65.0787 148.737 72.9751 148.383Z" fill="#FFCAA1" stroke="#6C6C6C" stroke-width="0.749947" stroke-linejoin="round"/>
<path d="M92.2119 186.855L79.2051 187.479C79.2051 187.479 82.3927 193.739 85.8345 193.678C89.382 193.615 92.2119 186.855 92.2119 186.855Z" fill="#FF5959" stroke="#6C6C6C" stroke-width="1.42994" stroke-linecap="round" stroke-linejoin="round"/>
<path d="M85.309 177.721C84.9967 177.806 84.6477 177.712 84.4249 177.455C83.7128 176.63 82.5617 176.378 81.5706 176.823C81.135 177.018 80.6228 176.821 80.4227 176.387C80.228 175.952 80.423 175.434 80.8585 175.239C82.5583 174.478 84.5174 174.912 85.7342 176.317C86.05 176.679 86.0099 177.225 85.6484 177.541C85.5482 177.627 85.4296 177.688 85.309 177.721Z" fill="#6C6C6C"/>
<path d="M85.312 177.723C85.0654 177.79 84.796 177.751 84.5751 177.587C84.188 177.31 84.1001 176.769 84.376 176.376C85.4497 174.891 87.4058 174.272 89.1327 174.868C89.5876 175.027 89.8275 175.521 89.674 175.975C89.5136 176.424 89.0212 176.669 88.5662 176.51C87.5537 176.161 86.4107 176.524 85.7875 177.394C85.6683 177.561 85.4983 177.672 85.312 177.723Z" fill="#6C6C6C"/>
<path d="M85.3716 183.351C85.3095 183.367 85.2472 183.376 85.1848 183.378C84.7032 183.402 84.2963 183.03 84.273 182.554C84.1496 179.887 84.1157 178.808 84.083 176.757C84.0762 176.277 84.4567 175.879 84.9373 175.873C85.4179 175.866 85.8114 176.253 85.8167 176.728C85.8489 178.755 85.8868 179.828 86.0098 182.471C86.0276 182.884 85.7552 183.246 85.3716 183.351Z" fill="#6C6C6C"/>
<path d="M33.4176 162.636L33.4177 162.636C37.6111 162.111 41.6451 165.667 42.2858 170.78C42.9265 175.892 39.8994 180.334 35.7065 180.859L35.7059 180.859C31.5149 181.389 27.4792 177.828 26.8384 172.715C26.1977 167.603 29.2302 163.16 33.4176 162.636Z" fill="white" stroke="#64EDFF" stroke-width="1.04522"/>
<path d="M31.7584 163.183L31.7584 163.183L31.7636 163.182C33.3647 162.982 34.9754 163.703 36.2896 165.13C37.6029 166.556 38.5851 168.659 38.8944 171.104C39.2001 173.546 38.7676 175.825 37.8466 177.531C36.925 179.239 35.5411 180.335 33.94 180.536L33.9359 180.536C33.4191 180.605 32.908 180.572 32.4035 180.449C29.5807 179.359 27.3017 176.437 26.832 172.721C26.3082 168.514 28.278 164.737 31.3305 163.259C31.4631 163.225 31.6067 163.201 31.7584 163.183Z" fill="white" stroke="#64EDFF" stroke-width="1.04522"/>
<path d="M58.5201 133.309L58.52 133.309C56.2021 129.458 52.5232 128.233 49.6245 128.055C46.6647 127.709 44.4363 128.815 43.4432 130.465C42.947 131.289 42.7699 132.239 42.9849 133.164C43.2003 134.09 43.7987 134.945 44.7732 135.6L44.9097 135.692L45.0741 135.689C48.0939 135.634 51.2362 135.846 54.1954 137.162C55.2582 137.637 56.2012 137.935 56.9876 138.04C57.7559 138.143 58.4743 138.074 58.9827 137.684C59.5297 137.265 59.6823 136.599 59.5772 135.873C59.4736 135.158 59.1143 134.297 58.5201 133.309Z" fill="white" stroke="#64EDFF" stroke-width="1.04522"/>
<path opacity="0.25" d="M45.0652 135.163C48.1097 135.108 51.3441 135.319 54.4086 136.682C56.1407 137.455 57.4685 137.712 58.2595 137.469C54.2791 134.736 51.7003 133.742 46.835 133.215C44.9439 132.634 45.087 130.626 45.6336 129.16C43.0634 130.474 42.5432 133.469 45.0652 135.163Z" fill="#333333"/>
<path d="M90.0639 124.477L90.0654 124.478L90.064 124.479L90.4434 124.627C94.2943 126.126 98.008 129.167 99.9542 132.758C100.24 133.286 100.743 133.588 101.285 133.698C101.825 133.808 102.419 133.731 102.925 133.486L103.159 133.372L103.153 133.359C104.029 132.822 104.625 131.727 104.208 130.707C101.959 125.137 99.5228 122.498 97.0853 121.78C94.6307 121.056 92.2993 122.31 90.3563 124.194L90.0639 124.477Z" fill="white" stroke="#64EDFF" stroke-width="0.522608"/>
<path opacity="0.25" d="M104.046 131.05C104.027 130.968 104.001 130.886 103.968 130.805C99.8383 120.575 95.1868 120.579 91.4753 123.554C91.6334 123.764 91.8044 123.982 91.9882 124.209C98.0025 126.141 100.669 128.006 104.046 131.05Z" fill="#333333"/>
<path d="M100.328 166.114C100.048 169.485 98.0614 171.942 95.8865 171.602C93.717 171.261 92.1777 168.254 92.4576 164.884C92.7375 161.513 94.7244 159.056 96.8993 159.395C99.0742 159.735 100.608 162.743 100.328 166.114Z" fill="#6C6C6C"/>
<path d="M98.6031 162.354C98.9368 163.476 98.6455 164.614 97.9568 164.895C97.2667 165.17 96.4389 164.483 96.1037 163.356C95.7755 162.233 96.0654 161.089 96.7555 160.814C97.4457 160.538 98.2735 161.226 98.6031 162.354Z" fill="white"/>
<path d="M95.5646 168.517C95.8454 169.053 95.8112 169.687 95.4895 169.933C95.1609 170.175 94.667 169.938 94.3862 169.402C94.1055 168.866 94.1397 168.233 94.4668 167.985C94.79 167.745 95.2839 167.982 95.5646 168.517Z" fill="white"/>
<path d="M72.2742 161.182C74.3516 160.706 76.4308 162.949 76.9196 166.181C77.4153 169.418 76.1294 172.421 74.0559 172.889C71.984 173.363 69.8993 171.122 69.4105 167.889C68.9203 164.651 70.2007 161.65 72.2742 161.182Z" fill="#6C6C6C"/>
<path d="M72.5107 162.533C73.1942 162.753 73.5518 163.833 73.3053 164.941C73.0588 166.05 72.3073 166.771 71.6223 166.545C70.9388 166.325 70.5812 165.245 70.8277 164.137C71.0742 163.028 71.8272 162.312 72.5107 162.533Z" fill="white"/>
<path d="M75.1778 169.294C75.5128 169.509 75.5897 170.118 75.3523 170.653C75.115 171.189 74.6573 171.454 74.3223 171.239C73.9928 171.022 73.9158 170.413 74.1532 169.878C74.3905 169.343 74.8497 169.083 75.1778 169.294Z" fill="white"/>
<g opacity="0.2">
<g opacity="0.2">
<g opacity="0.2">
<path opacity="0.2" d="M116.506 174.865C116.544 174.92 116.582 174.974 116.615 175.03C116.425 175.674 116.21 176.313 115.97 176.947C116.172 176.262 116.354 175.566 116.506 174.865Z" fill="#6C6C6C"/>
</g>
</g>
<g opacity="0.2">
<g opacity="0.2">
<path opacity="0.2" d="M52.565 186.835C52.0864 185.7 51.8051 184.512 51.7505 183.291C51.6402 180.867 52.4157 178.521 53.9122 176.338C54.2581 177.657 54.6887 178.94 55.2079 180.182C53.613 182.262 52.6867 184.508 52.565 186.835Z" fill="#6C6C6C"/>
</g>
</g>
</g>
<path d="M83.3199 116.834C83.8093 115.008 79.2707 112.181 72.9818 110.297L70.6728 109.669C67.0661 108.786 63.7674 108.436 61.4511 108.612C59.9544 109.389 60.0451 109.966 61.1662 110.897C61.5358 110.852 61.9792 110.822 62.4991 110.816C64.3549 110.794 66.82 111.082 69.5568 111.713C72.6002 112.58 77.3947 114.236 79.1522 115.278C79.5994 115.544 79.9684 115.791 80.2658 116.015C81.0069 114.859 83.2323 115.998 83.3199 116.834Z" fill="#64EDFF"/>
<path fill-rule="evenodd" clip-rule="evenodd" d="M73.1956 106.358C73.2299 106.485 73.2706 106.608 73.3174 106.727C72.2358 107.626 71.3661 108.622 70.6727 109.669L69.5566 111.713C69.22 112.474 68.9578 113.246 68.7581 114.015C68.7303 114.122 68.7036 114.23 68.6781 114.337L68.3025 116.571C68.0413 119.121 68.3467 121.422 68.6855 122.884L70.8741 122.376C70.5914 121.157 70.3385 119.269 70.503 117.18L70.8421 114.949C70.8705 114.826 70.9006 114.703 70.9326 114.58C71.1326 113.81 71.4044 113.037 71.7669 112.282L72.9817 110.297C73.48 109.645 74.0696 109.023 74.7653 108.445C75.5611 108.929 76.5459 109.098 77.5155 108.835C79.3921 108.325 80.5008 106.391 79.9916 104.515C79.4825 102.638 77.5484 101.529 75.6717 102.039C73.795 102.548 72.6864 104.482 73.1956 106.358Z" fill="#64EDFF"/>
<path fill-rule="evenodd" clip-rule="evenodd" d="M61.4505 108.612C59.5683 108.756 58.3347 109.246 58.1115 110.079C57.6259 111.891 62.0898 114.688 68.302 116.572L70.6259 117.211C77.2211 118.846 82.818 118.705 83.3193 116.834C83.2317 115.998 81.0063 114.859 80.2652 116.015C79.8956 116.061 79.4522 116.091 78.9323 116.097C76.8457 116.121 71.8248 115.142 68.6777 114.337C66.0627 113.525 63.8434 112.562 62.2792 111.634C61.832 111.369 61.463 111.121 61.1656 110.897C60.0445 109.966 59.9538 109.39 61.4505 108.612Z" fill="#64EDFF"/>
<path fill-rule="evenodd" clip-rule="evenodd" d="M20.7373 239.425C17.6777 243.797 18.6878 251.651 20.2999 254.727C21.912 257.802 23.6855 261.699 32.2915 262.08C43.0498 262.556 92.181 253.285 92.181 253.285C85.9513 251.114 82.4586 249.897 76.2289 247.727L55.0271 240.34C42.4582 239.835 22.7083 236.609 20.7373 239.425Z" fill="url(#paint20_linear_29924_64947)"/>
<path fill-rule="evenodd" clip-rule="evenodd" d="M92.181 253.285C85.9513 251.114 82.4586 249.897 76.2289 247.727L80.0815 234.296C107.154 236.353 119.184 237.314 125.955 240.188C132.726 243.063 133.224 248.418 132.683 253.79C132.098 259.592 128.71 265.631 122.255 265.345L92.181 253.285Z" fill="url(#paint21_linear_29924_64947)"/>
<path d="M80.0815 234.296C65.4712 233.186 55.0271 240.34 55.0271 240.34L76.2289 247.727L80.0815 234.296Z" fill="url(#paint22_linear_29924_64947)"/>
<g opacity="0.2" filter="url(#filter16_f_29924_64947)">
<path d="M90.2916 253.201L73.5859 247.61L51.3827 240.179M90.2916 253.201L109.127 260.451M90.2916 253.201C90.2916 253.201 63.2355 258.029 44.0834 260.488M108.411 213.739L111.145 236.697" stroke="black" stroke-width="0.749947"/>
</g>
<path fill-rule="evenodd" clip-rule="evenodd" d="M22.9862 22.7434C22.7858 26.0422 26.0322 31.1543 26.0322 31.1543C26.0322 31.1543 22.6533 36.685 22.4838 40.2008C22.3253 43.489 23.9865 46.1731 26.5331 48.2562C29.5673 50.7381 33.5906 49.7265 35.1529 48.9234C35.1529 48.9234 39.0852 53.6043 37.3615 56.2295C36.4243 57.6569 35.229 57.8091 34.5195 57.7456C34.7502 57.1995 34.8191 56.5551 34.6769 55.9007C34.3446 54.3705 32.9843 53.3654 31.6386 53.6557C30.2929 53.946 29.6216 55.0943 29.9776 56.2721C30.31 57.8022 31.0494 58.3513 32.3085 58.9208C32.3864 58.904 32.9963 59.1594 33.0706 59.1348C33.7198 59.1955 34.9551 59.2599 35.7827 58.9875C37.5659 58.4005 38.7709 57.5287 39.1638 55.3017C39.6412 52.5957 36.4299 47.9803 36.4299 47.9803C36.4299 47.9803 37.9748 46.8562 38.3548 45.4485C39.1326 42.567 38.8564 39.7486 35.2959 37.5115C32.789 35.9364 30.6277 37.1121 30.6277 37.1121L28.8261 33.9658C28.8261 33.9658 30.8072 28.9085 30.2405 25.6689C29.4596 21.2044 26.5265 17.46 25.0996 17.7346C23.9842 17.9493 23.1151 20.6224 22.9862 22.7434ZM30.9984 40.8649L34.743 47.5674C34.743 47.5674 32.9152 49.0428 29.7747 48.5296C27.5593 48.1676 26.3107 46.7989 25.4625 44.7147C24.2117 41.6413 27.1001 36.5244 28.0194 35.2019L29.433 37.9258C29.433 37.9258 26.5432 40.3663 27.8003 44.0079C28.8179 46.956 32.401 46.8826 32.401 46.8826C33.0212 46.6951 32.784 46.14 32.2968 46.0784C32.2968 46.0784 30.4099 45.8654 29.8124 44.0612C29.2309 42.3052 30.9984 40.8649 30.9984 40.8649ZM35.7226 46.7315L32.2557 40.2585C32.2557 40.2585 34.9261 39.5847 36.3367 42.3327C37.8144 45.2113 35.7226 46.7315 35.7226 46.7315ZM26.5697 29.9471C26.5697 29.9471 28.229 26.9354 28.1939 24.7554C28.1706 23.3001 27.8959 21.4154 26.8666 21.5704C25.1567 21.8278 25.0602 25.3842 25.6561 27.7859C25.8767 28.6753 26.5697 29.9471 26.5697 29.9471Z" fill="#DFE230"/>
<path d="M153.564 119.921C153.564 119.921 153.565 119.921 153.565 119.921C153.565 119.921 152.323 121.574 150.666 122.066C147.72 122.94 143.701 120.781 143.451 118.803C143.106 116.071 146.094 115.027 148.774 115.657C150.731 116.116 152.805 118.85 153.398 119.681L167.671 100.398L168.115 100.727L167.484 101.58C166.574 103.953 166.33 105.592 166.943 108.336C168.319 115.546 166.666 118.609 158.523 121.845C167.716 117.487 167.102 112.043 163.833 106.513L153.787 120.085L153.564 119.921Z" fill="#ECA62C"/>
<path d="M11.4387 216.931L22.2094 236L21.7279 236.272L10.502 216.397C10.502 216.397 11.7626 213.101 13.4133 212.098C15.6749 210.724 19.491 210.207 20.1566 212.768C20.6236 214.565 18.9007 215.912 16.383 217.088C15.1992 217.642 12.7513 217.704 11.4387 216.931Z" fill="#FF343D"/>
<path d="M242.33 140.661C241.252 139.918 238.762 138.37 236.957 138.544C234.216 138.809 231.722 140.757 232.926 143.233C233.798 145.026 238.297 145.78 240.807 144.006C241.498 143.517 242.784 141.908 242.784 141.908L248.197 125.913L265.158 131.863L260.074 146.886C258.996 146.143 256.505 144.594 254.7 144.769C251.96 145.033 249.465 146.982 250.669 149.458C251.541 151.251 256.04 152.005 258.55 150.231C259.242 149.742 260.527 148.133 260.527 148.133L266.966 129.109C267.233 128.32 266.815 127.463 266.028 127.187L250.373 121.694C249.574 121.414 248.7 121.84 248.429 122.642L242.33 140.661Z" fill="#FC65C5"/>
<path d="M87.3016 79.1184C86.2851 79.0222 82.8604 78.8006 81.2323 79.9789C79.0019 81.593 77.8352 84.5351 80.1259 86.0624C81.7848 87.1684 86.0479 85.5438 87.3157 82.7441C87.87 81.52 87.8618 79.089 87.8618 79.089L85.7696 69.7292C90.6254 70.6465 94.0784 73.1069 91.9805 80.8084C94.2136 74.2759 93.2585 71.7064 88.3412 68.8016C86.4819 67.7806 85.6401 66.8163 84.7447 65.1443L84.1781 62.6093C90.5114 63.7328 95.4596 65.9983 94.6426 73.8954C95.7487 67.2589 93.9435 65.1313 87.592 61.4519C85.1166 60.1189 84.0375 58.8621 82.8395 56.6211L82.6078 55.5847C82.5745 55.4356 82.4267 55.3418 82.2777 55.3751C82.1286 55.4084 82.0348 55.5563 82.0681 55.7053L87.3016 79.1184Z" fill="#75CA98"/>
<defs>
<filter id="filter0_f_29924_64947" x="14.4449" y="338.23" width="289.813" height="53.9384" filterUnits="userSpaceOnUse" color-interpolation-filters="sRGB">
<feFlood flood-opacity="0" result="BackgroundImageFix"/>
<feBlend mode="normal" in="SourceGraphic" in2="BackgroundImageFix" result="shape"/>
<feGaussianBlur stdDeviation="1.77757" result="effect1_foregroundBlur_29924_64947"/>
</filter>
<filter id="filter1_f_29924_64947" x="12.2773" y="17.4441" width="271.498" height="236.408" filterUnits="userSpaceOnUse" color-interpolation-filters="sRGB">
<feFlood flood-opacity="0" result="BackgroundImageFix"/>
<feBlend mode="normal" in="SourceGraphic" in2="BackgroundImageFix" result="shape"/>
<feGaussianBlur stdDeviation="1.31157" result="effect1_foregroundBlur_29924_64947"/>
</filter>
<filter id="filter2_f_29924_64947" x="220.328" y="109.35" width="22.6754" height="22.6748" filterUnits="userSpaceOnUse" color-interpolation-filters="sRGB">
<feFlood flood-opacity="0" result="BackgroundImageFix"/>
<feBlend mode="normal" in="SourceGraphic" in2="BackgroundImageFix" result="shape"/>
<feGaussianBlur stdDeviation="3.31827" result="effect1_foregroundBlur_29924_64947"/>
</filter>
<filter id="filter3_f_29924_64947" x="135.158" y="293.514" width="22.6754" height="22.6748" filterUnits="userSpaceOnUse" color-interpolation-filters="sRGB">
<feFlood flood-opacity="0" result="BackgroundImageFix"/>
<feBlend mode="normal" in="SourceGraphic" in2="BackgroundImageFix" result="shape"/>
<feGaussianBlur stdDeviation="3.31827" result="effect1_foregroundBlur_29924_64947"/>
</filter>
<filter id="filter4_f_29924_64947" x="48.885" y="224.937" width="22.6754" height="22.6748" filterUnits="userSpaceOnUse" color-interpolation-filters="sRGB">
<feFlood flood-opacity="0" result="BackgroundImageFix"/>
<feBlend mode="normal" in="SourceGraphic" in2="BackgroundImageFix" result="shape"/>
<feGaussianBlur stdDeviation="3.31827" result="effect1_foregroundBlur_29924_64947"/>
</filter>
<filter id="filter5_f_29924_64947" x="134.055" y="39.1136" width="22.6754" height="22.6748" filterUnits="userSpaceOnUse" color-interpolation-filters="sRGB">
<feFlood flood-opacity="0" result="BackgroundImageFix"/>
<feBlend mode="normal" in="SourceGraphic" in2="BackgroundImageFix" result="shape"/>
<feGaussianBlur stdDeviation="3.31827" result="effect1_foregroundBlur_29924_64947"/>
</filter>
<filter id="filter6_f_29924_64947" x="275.363" y="175.364" width="22.6754" height="22.6748" filterUnits="userSpaceOnUse" color-interpolation-filters="sRGB">
<feFlood flood-opacity="0" result="BackgroundImageFix"/>
<feBlend mode="normal" in="SourceGraphic" in2="BackgroundImageFix" result="shape"/>
<feGaussianBlur stdDeviation="3.31827" result="effect1_foregroundBlur_29924_64947"/>
</filter>
<filter id="filter7_f_29924_64947" x="291.363" y="322.363" width="22.6754" height="22.6748" filterUnits="userSpaceOnUse" color-interpolation-filters="sRGB">
<feFlood flood-opacity="0" result="BackgroundImageFix"/>
<feBlend mode="normal" in="SourceGraphic" in2="BackgroundImageFix" result="shape"/>
<feGaussianBlur stdDeviation="3.31827" result="effect1_foregroundBlur_29924_64947"/>
</filter>
<filter id="filter8_f_29924_64947" x="280.363" y="43.3636" width="22.6754" height="22.6748" filterUnits="userSpaceOnUse" color-interpolation-filters="sRGB">
<feFlood flood-opacity="0" result="BackgroundImageFix"/>
<feBlend mode="normal" in="SourceGraphic" in2="BackgroundImageFix" result="shape"/>
<feGaussianBlur stdDeviation="3.31827" result="effect1_foregroundBlur_29924_64947"/>
</filter>
<filter id="filter9_f_29924_64947" x="7.36347" y="289.363" width="22.6754" height="22.6748" filterUnits="userSpaceOnUse" color-interpolation-filters="sRGB">
<feFlood flood-opacity="0" result="BackgroundImageFix"/>
<feBlend mode="normal" in="SourceGraphic" in2="BackgroundImageFix" result="shape"/>
<feGaussianBlur stdDeviation="3.31827" result="effect1_foregroundBlur_29924_64947"/>
</filter>
<filter id="filter10_f_29924_64947" x="235.26" y="276.37" width="22.6754" height="22.6748" filterUnits="userSpaceOnUse" color-interpolation-filters="sRGB">
<feFlood flood-opacity="0" result="BackgroundImageFix"/>
<feBlend mode="normal" in="SourceGraphic" in2="BackgroundImageFix" result="shape"/>
<feGaussianBlur stdDeviation="3.31827" result="effect1_foregroundBlur_29924_64947"/>
</filter>
<filter id="filter11_f_29924_64947" x="108.969" y="119.557" width="22.6754" height="22.6748" filterUnits="userSpaceOnUse" color-interpolation-filters="sRGB">
<feFlood flood-opacity="0" result="BackgroundImageFix"/>
<feBlend mode="normal" in="SourceGraphic" in2="BackgroundImageFix" result="shape"/>
<feGaussianBlur stdDeviation="3.31827" result="effect1_foregroundBlur_29924_64947"/>
</filter>
<filter id="filter12_f_29924_64947" x="60.0041" y="27.7469" width="22.6754" height="22.6748" filterUnits="userSpaceOnUse" color-interpolation-filters="sRGB">
<feFlood flood-opacity="0" result="BackgroundImageFix"/>
<feBlend mode="normal" in="SourceGraphic" in2="BackgroundImageFix" result="shape"/>
<feGaussianBlur stdDeviation="3.31827" result="effect1_foregroundBlur_29924_64947"/>
</filter>
<filter id="filter13_f_29924_64947" x="155.161" y="104.538" width="132.969" height="273.108" filterUnits="userSpaceOnUse" color-interpolation-filters="sRGB">
<feFlood flood-opacity="0" result="BackgroundImageFix"/>
<feBlend mode="normal" in="SourceGraphic" in2="BackgroundImageFix" result="shape"/>
<feGaussianBlur stdDeviation="0.43719" result="effect1_foregroundBlur_29924_64947"/>
</filter>
<filter id="filter14_f_29924_64947" x="192.994" y="215.692" width="70.4822" height="50.1658" filterUnits="userSpaceOnUse" color-interpolation-filters="sRGB">
<feFlood flood-opacity="0" result="BackgroundImageFix"/>
<feBlend mode="normal" in="SourceGraphic" in2="BackgroundImageFix" result="shape"/>
<feGaussianBlur stdDeviation="0.749947" result="effect1_foregroundBlur_29924_64947"/>
</filter>
<filter id="filter15_f_29924_64947" x="131.075" y="125.646" width="150.321" height="216.012" filterUnits="userSpaceOnUse" color-interpolation-filters="sRGB">
<feFlood flood-opacity="0" result="BackgroundImageFix"/>
<feBlend mode="normal" in="SourceGraphic" in2="BackgroundImageFix" result="shape"/>
<feGaussianBlur stdDeviation="1.74876" result="effect1_foregroundBlur_29924_64947"/>
</filter>
<filter id="filter16_f_29924_64947" x="42.5353" y="212.194" width="70.4822" height="50.1658" filterUnits="userSpaceOnUse" color-interpolation-filters="sRGB">
<feFlood flood-opacity="0" result="BackgroundImageFix"/>
<feBlend mode="normal" in="SourceGraphic" in2="BackgroundImageFix" result="shape"/>
<feGaussianBlur stdDeviation="0.749947" result="effect1_foregroundBlur_29924_64947"/>
</filter>
<radialGradient id="paint0_radial_29924_64947" cx="0" cy="0" r="1" gradientUnits="userSpaceOnUse" gradientTransform="translate(147.52 204.887) rotate(87.0089) scale(242.971 171.602)">
<stop stop-color="#A587F5"/>
<stop offset="0.786107" stop-color="#7E54F1"/>
</radialGradient>
<linearGradient id="paint1_linear_29924_64947" x1="37.046" y1="0" x2="37.046" y2="49.1872" gradientUnits="userSpaceOnUse">
<stop stop-color="white"/>
<stop offset="1" stop-color="#EDFCFF"/>
</linearGradient>
<linearGradient id="paint2_linear_29924_64947" x1="206.023" y1="107.705" x2="206.023" y2="364.497" gradientUnits="userSpaceOnUse">
<stop stop-color="#E9FEFF"/>
<stop offset="1" stop-color="#E9FEFF"/>
</linearGradient>
<linearGradient id="paint3_linear_29924_64947" x1="206.023" y1="107.705" x2="206.023" y2="364.497" gradientUnits="userSpaceOnUse">
<stop stop-color="white"/>
<stop offset="1" stop-color="#E9FEFF"/>
</linearGradient>
<linearGradient id="paint4_linear_29924_64947" x1="265.967" y1="207.072" x2="282.77" y2="257.994" gradientUnits="userSpaceOnUse">
<stop stop-color="#767CF2"/>
<stop offset="1" stop-color="#565CDE"/>
</linearGradient>
<linearGradient id="paint5_linear_29924_64947" x1="197.613" y1="209.616" x2="182.704" y2="261.124" gradientUnits="userSpaceOnUse">
<stop stop-color="#767CF2"/>
<stop offset="1" stop-color="#565CDE"/>
</linearGradient>
<linearGradient id="paint6_linear_29924_64947" x1="221.979" y1="196.716" x2="201.691" y2="372.357" gradientUnits="userSpaceOnUse">
<stop stop-color="#7A80FB"/>
<stop offset="1" stop-color="#3A3FA8"/>
</linearGradient>
<linearGradient id="paint7_linear_29924_64947" x1="257.216" y1="347.791" x2="260.638" y2="377.24" gradientUnits="userSpaceOnUse">
<stop stop-color="#EA7E25"/>
<stop offset="1" stop-color="#FC861F"/>
</linearGradient>
<linearGradient id="paint8_linear_29924_64947" x1="185.263" y1="347.725" x2="179.557" y2="376.817" gradientUnits="userSpaceOnUse">
<stop stop-color="#EA7E25"/>
<stop offset="1" stop-color="#FC861F"/>
</linearGradient>
<linearGradient id="paint9_linear_29924_64947" x1="282.73" y1="259.441" x2="223.95" y2="253.64" gradientUnits="userSpaceOnUse">
<stop stop-color="#5E64E3"/>
<stop offset="1" stop-color="#565CDD"/>
</linearGradient>
<linearGradient id="paint10_linear_29924_64947" x1="225.901" y1="244.619" x2="173.052" y2="254.379" gradientUnits="userSpaceOnUse">
<stop stop-color="#565CDD"/>
<stop offset="1" stop-color="#7176F1"/>
</linearGradient>
<linearGradient id="paint11_linear_29924_64947" x1="228.104" y1="246.368" x2="248.808" y2="243.465" gradientUnits="userSpaceOnUse">
<stop stop-color="#FE7017"/>
<stop offset="1" stop-color="#FBA018"/>
</linearGradient>
<linearGradient id="paint12_linear_29924_64947" x1="206.235" y1="129.144" x2="206.235" y2="338.161" gradientUnits="userSpaceOnUse">
<stop stop-color="#C5FFFF"/>
<stop offset="1" stop-color="white"/>
</linearGradient>
<linearGradient id="paint13_linear_29924_64947" x1="206.235" y1="129.144" x2="206.235" y2="338.161" gradientUnits="userSpaceOnUse">
<stop stop-color="#C5FFFF"/>
<stop offset="1" stop-color="white"/>
</linearGradient>
<linearGradient id="paint14_linear_29924_64947" x1="206.235" y1="129.144" x2="206.235" y2="338.161" gradientUnits="userSpaceOnUse">
<stop stop-color="#C5FFFF"/>
<stop offset="1" stop-color="white"/>
</linearGradient>
<linearGradient id="paint15_linear_29924_64947" x1="40.047" y1="203.575" x2="23.2434" y2="254.496" gradientUnits="userSpaceOnUse">
<stop stop-color="#767CF2"/>
<stop offset="1" stop-color="#565CDE"/>
</linearGradient>
<linearGradient id="paint16_linear_29924_64947" x1="108.398" y1="206.118" x2="123.307" y2="257.627" gradientUnits="userSpaceOnUse">
<stop stop-color="#767CF2"/>
<stop offset="1" stop-color="#565CDE"/>
</linearGradient>
<linearGradient id="paint17_linear_29924_64947" x1="84.035" y1="193.219" x2="104.322" y2="368.86" gradientUnits="userSpaceOnUse">
<stop stop-color="#7A80FB"/>
<stop offset="1" stop-color="#3A3FA8"/>
</linearGradient>
<linearGradient id="paint18_linear_29924_64947" x1="48.7956" y1="344.294" x2="45.3737" y2="373.742" gradientUnits="userSpaceOnUse">
<stop stop-color="#EA7E25"/>
<stop offset="1" stop-color="#FC861F"/>
</linearGradient>
<linearGradient id="paint19_linear_29924_64947" x1="120.75" y1="344.227" x2="126.456" y2="373.319" gradientUnits="userSpaceOnUse">
<stop stop-color="#EA7E25"/>
<stop offset="1" stop-color="#FC861F"/>
</linearGradient>
<linearGradient id="paint20_linear_29924_64947" x1="23.2854" y1="255.943" x2="82.0655" y2="250.143" gradientUnits="userSpaceOnUse">
<stop stop-color="#5E64E3"/>
<stop offset="1" stop-color="#565CDD"/>
</linearGradient>
<linearGradient id="paint21_linear_29924_64947" x1="80.1142" y1="241.122" x2="132.964" y2="250.881" gradientUnits="userSpaceOnUse">
<stop stop-color="#565CDD"/>
<stop offset="1" stop-color="#7176F1"/>
</linearGradient>
<linearGradient id="paint22_linear_29924_64947" x1="77.9121" y1="242.87" x2="57.2079" y2="239.968" gradientUnits="userSpaceOnUse">
<stop stop-color="#FE7017"/>
<stop offset="1" stop-color="#FBA018"/>
</linearGradient>
</defs>
</svg>
