<svg width="186" height="63" viewBox="0 0 186 63" fill="none" xmlns="http://www.w3.org/2000/svg">
<rect y="57.75" width="185.25" height="4.5" fill="#CA9E47"/>
<path d="M1.5 28.8864V59.25H183.75V37.4211H126.75V0H63V28.8864H1.5Z" fill="#F7D162"/>
<path d="M89.898 25.046V21.23H96.546V38.75H92.274V25.046H89.898Z" fill="white"/>
<path d="M25.452 48.284C25.86 47.96 26.046 47.81 26.01 47.834C27.186 46.862 28.11 46.064 28.782 45.44C29.466 44.816 30.042 44.162 30.51 43.478C30.978 42.794 31.212 42.128 31.212 41.48C31.212 40.988 31.098 40.604 30.87 40.328C30.642 40.052 30.3 39.914 29.844 39.914C29.388 39.914 29.028 40.088 28.764 40.436C28.512 40.772 28.386 41.252 28.386 41.876H25.416C25.44 40.856 25.656 40.004 26.064 39.32C26.484 38.636 27.03 38.132 27.702 37.808C28.386 37.484 29.142 37.322 29.97 37.322C31.398 37.322 32.472 37.688 33.192 38.42C33.924 39.152 34.29 40.106 34.29 41.282C34.29 42.566 33.852 43.76 32.976 44.864C32.1 45.956 30.984 47.024 29.628 48.068H34.488V50.57H25.452V48.284Z" fill="white"/>
<path d="M152.862 46.462C152.894 45.606 153.174 44.946 153.702 44.482C154.23 44.018 154.946 43.786 155.85 43.786C156.45 43.786 156.962 43.89 157.386 44.098C157.818 44.306 158.142 44.59 158.358 44.95C158.582 45.31 158.694 45.714 158.694 46.162C158.694 46.69 158.562 47.122 158.298 47.458C158.034 47.786 157.726 48.01 157.374 48.13V48.178C157.83 48.33 158.19 48.582 158.454 48.934C158.718 49.286 158.85 49.738 158.85 50.29C158.85 50.786 158.734 51.226 158.502 51.61C158.278 51.986 157.946 52.282 157.506 52.498C157.074 52.714 156.558 52.822 155.958 52.822C154.998 52.822 154.23 52.586 153.654 52.114C153.086 51.642 152.786 50.93 152.754 49.978H154.746C154.754 50.33 154.854 50.61 155.046 50.818C155.238 51.018 155.518 51.118 155.886 51.118C156.198 51.118 156.438 51.03 156.606 50.854C156.782 50.67 156.87 50.43 156.87 50.134C156.87 49.75 156.746 49.474 156.498 49.306C156.258 49.13 155.87 49.042 155.334 49.042H154.95V47.374H155.334C155.742 47.374 156.07 47.306 156.318 47.17C156.574 47.026 156.702 46.774 156.702 46.414C156.702 46.126 156.622 45.902 156.462 45.742C156.302 45.582 156.082 45.502 155.802 45.502C155.498 45.502 155.27 45.594 155.118 45.778C154.974 45.962 154.89 46.19 154.866 46.462H152.862Z" fill="white"/>
<path d="M63 59.25V28.5L58.5 59.25H63Z" fill="#C19207"/>
<path d="M126.75 59.25V37.5L131.25 59.25H126.75Z" fill="#C19207"/>
</svg>
