<svg width="33" height="32" viewBox="0 0 33 32" fill="none" xmlns="http://www.w3.org/2000/svg">
<path d="M9.4196 19.3356C9.2445 19.3356 9.07109 19.37 8.90931 19.437C8.74752 19.504 8.60051 19.6022 8.47669 19.7261C8.35287 19.8499 8.25466 19.9969 8.18767 20.1587C8.12068 20.3205 8.08623 20.4939 8.08627 20.669V23.0453C6.36767 21.1018 5.41921 18.5967 5.4196 16.0023C5.41936 15.6102 5.44284 15.2184 5.48991 14.8291C5.5115 14.655 5.49852 14.4784 5.45172 14.3094C5.40492 14.1403 5.32522 13.9821 5.21719 13.8439C5.10915 13.7057 4.97491 13.5902 4.82215 13.504C4.66939 13.4178 4.50111 13.3626 4.32697 13.3415C4.15283 13.3204 3.97624 13.3339 3.80732 13.3812C3.63841 13.4285 3.48048 13.5087 3.34261 13.6171C3.20473 13.7256 3.08961 13.8601 3.00384 14.0132C2.91807 14.1662 2.86333 14.3346 2.84278 14.5088C2.78238 15.0043 2.75238 15.5031 2.75294 16.0023C2.75475 19.1838 3.89821 22.2591 5.97543 24.669H4.08627C3.73265 24.669 3.39351 24.8094 3.14346 25.0595C2.89341 25.3095 2.75294 25.6487 2.75294 26.0023C2.75294 26.3559 2.89341 26.6951 3.14346 26.9451C3.39351 27.1952 3.73265 27.3356 4.08627 27.3356H9.4196C9.62814 27.333 9.83302 27.2806 10.0172 27.1828C10.2014 27.0849 10.3595 26.9445 10.4784 26.7732C10.494 26.7527 10.5138 26.7375 10.5283 26.7159C10.5372 26.7026 10.5374 26.6869 10.5457 26.6734C10.6093 26.5661 10.6569 26.45 10.6871 26.329C10.7068 26.261 10.7208 26.1915 10.729 26.1212C10.7328 26.08 10.753 26.0445 10.753 26.0023V20.669C10.753 20.4939 10.7186 20.3205 10.6516 20.1587C10.5846 19.9969 10.4864 19.8499 10.3626 19.7261C10.2387 19.6022 10.0917 19.504 9.92992 19.437C9.76813 19.37 9.59472 19.3356 9.4196 19.3356ZM11.4196 8.0023H9.04298C10.9867 6.28377 13.4918 5.33533 16.0863 5.33563C16.4782 5.33469 16.8698 5.35817 17.2588 5.40595C17.4327 5.42707 17.609 5.41373 17.7778 5.36669C17.9465 5.31965 18.1044 5.23983 18.2423 5.1318C18.3802 5.02377 18.4954 4.88963 18.5815 4.73705C18.6675 4.58447 18.7227 4.41643 18.7438 4.24254C18.7649 4.06864 18.7516 3.89228 18.7046 3.72354C18.6575 3.5548 18.5777 3.39697 18.4697 3.25907C18.3616 3.12117 18.2275 3.00591 18.0749 2.91985C17.9223 2.83379 17.7543 2.77863 17.5804 2.75751C17.0846 2.6977 16.5857 2.66813 16.0863 2.66896C12.9048 2.67069 9.82949 3.81407 7.4196 5.89122V4.0023C7.4196 3.64867 7.27913 3.30954 7.02908 3.05949C6.77903 2.80944 6.43989 2.66896 6.08627 2.66896C5.73265 2.66896 5.39351 2.80944 5.14346 3.05949C4.89341 3.30954 4.75294 3.64867 4.75294 4.0023V9.33563C4.76132 9.42376 4.77889 9.51077 4.80535 9.59524L4.80567 9.59687C4.83805 9.76094 4.90197 9.91716 4.9939 10.0569L5.00912 10.0794C5.09723 10.2075 5.20765 10.3188 5.33512 10.4079C5.3497 10.4185 5.35694 10.4349 5.37207 10.445C5.39112 10.4577 5.41268 10.4617 5.43214 10.4732C5.50775 10.5187 5.58788 10.5562 5.67123 10.5852C5.78388 10.6244 5.90132 10.6481 6.02035 10.6557C6.04346 10.6569 6.06291 10.669 6.08627 10.669H11.4196C11.7732 10.669 12.1124 10.5285 12.3624 10.2785C12.6125 10.0284 12.7529 9.68929 12.7529 9.33567C12.7529 8.98205 12.6125 8.64291 12.3624 8.39286C12.1124 8.14281 11.7732 8.00234 11.4196 8.00234V8.0023ZM27.3669 22.4077C27.3345 22.2436 27.2706 22.0873 27.1786 21.9476L27.1635 21.9252C27.0753 21.797 26.9648 21.6857 26.8372 21.5966C26.8227 21.5861 26.8155 21.5696 26.8005 21.5595C26.7861 21.55 26.769 21.5497 26.7543 21.5407C26.5852 21.4467 26.3999 21.3854 26.208 21.3601C26.1659 21.3561 26.1295 21.3356 26.0863 21.3356H20.7529C20.3993 21.3356 20.0602 21.476 19.8101 21.7261C19.5601 21.9761 19.4196 22.3153 19.4196 22.6689C19.4196 23.0225 19.5601 23.3617 19.8101 23.6117C20.0602 23.8618 20.3993 24.0022 20.7529 24.0022H23.1295C21.1858 25.7208 18.6808 26.6692 16.0863 26.6689C15.6943 26.6694 15.3027 26.6455 14.9137 26.5973C14.5625 26.5546 14.2088 26.6532 13.9303 26.8714C13.6518 27.0896 13.4714 27.4095 13.4287 27.7607C13.3861 28.1119 13.4847 28.4657 13.7029 28.7442C13.921 29.0227 14.2409 29.2031 14.5921 29.2457C15.0879 29.3055 15.5869 29.3355 16.0863 29.3356C19.2678 29.3338 22.3431 28.1905 24.7529 26.1133V28.0023C24.7529 28.3559 24.8934 28.6951 25.1435 28.9451C25.3935 29.1952 25.7327 29.3356 26.0863 29.3356C26.4399 29.3356 26.779 29.1952 27.0291 28.9451C27.2791 28.6951 27.4196 28.3559 27.4196 28.0023V22.669C27.4112 22.5808 27.3937 22.4938 27.3672 22.4094L27.3669 22.4077ZM28.0863 7.33563C28.4399 7.33563 28.779 7.19515 29.0291 6.94511C29.2791 6.69506 29.4196 6.35592 29.4196 6.0023C29.4196 5.64867 29.2791 5.30954 29.0291 5.05949C28.779 4.80944 28.4399 4.66896 28.0863 4.66896H22.7529C22.6661 4.67733 22.5804 4.69462 22.4972 4.72056L22.4883 4.72235C22.3264 4.75474 22.1722 4.8179 22.034 4.90839L22.0079 4.92604C21.8804 5.01401 21.7696 5.12409 21.6808 5.25108C21.6703 5.26548 21.6542 5.27256 21.6442 5.28746C21.6347 5.30178 21.6344 5.31871 21.6254 5.33327C21.5303 5.50339 21.4685 5.69016 21.4436 5.88348C21.4398 5.92467 21.4196 5.96015 21.4196 6.0023V11.3356C21.4196 11.6893 21.5601 12.0284 21.8101 12.2784C22.0602 12.5285 22.3993 12.669 22.7529 12.669C23.1066 12.669 23.4457 12.5285 23.6957 12.2784C23.9458 12.0284 24.0863 11.6893 24.0863 11.3356V8.95846C25.8047 10.9024 26.7532 13.4076 26.7529 16.0022C26.7532 16.3944 26.7297 16.7861 26.6826 17.1754C26.6404 17.5264 26.7391 17.8798 26.9571 18.1581C27.175 18.4363 27.4945 18.6168 27.8454 18.6598C27.8994 18.666 27.9538 18.6691 28.0082 18.6689C28.3337 18.6685 28.6479 18.5489 28.8913 18.3328C29.1348 18.1167 29.2907 17.8189 29.3298 17.4957C29.3902 17.0002 29.4202 16.5015 29.4196 16.0023C29.4178 12.8207 28.2742 9.74545 26.1969 7.33563H28.0863Z" fill="#8270F6"/>
</svg>
