<svg width="33" height="32" viewBox="0 0 33 32" fill="none" xmlns="http://www.w3.org/2000/svg">
<path d="M16.1198 1.48507C15.9234 1.53094 15.7561 1.66148 15.6652 1.84494C15.5961 1.98606 15.5889 2.05663 15.5889 2.77283C15.5889 3.50668 15.5925 3.55607 15.6725 3.70426C15.7161 3.78893 15.8143 3.90889 15.8907 3.96534C16.018 4.06412 16.058 4.07471 16.2761 4.07471C16.5852 4.07471 16.7743 3.96534 16.8943 3.72542C16.9707 3.57724 16.9743 3.53138 16.9634 2.72344L16.9525 1.87669L16.8398 1.7391C16.6434 1.50624 16.4034 1.42157 16.1198 1.48507Z" fill="#8270F7"/>
<path d="M21.2728 2.59338C21.0437 2.70628 21.0182 2.74509 20.6582 3.52833C20.3309 4.24454 20.2982 4.40683 20.4328 4.65733C20.6109 4.99603 21.0146 5.11951 21.36 4.94664C21.56 4.84432 21.6328 4.73142 21.9746 3.98699C22.2146 3.46483 22.2582 3.34134 22.2582 3.17552C22.2618 2.93914 22.1746 2.77684 21.9673 2.63572C21.7528 2.49107 21.5128 2.47343 21.2728 2.59338Z" fill="#8270F7"/>
<path d="M10.5589 2.71994C10.3698 2.81872 10.2352 3.03041 10.2134 3.26327C10.1989 3.4432 10.2171 3.49259 10.5334 4.15941C10.7989 4.71685 10.9007 4.89325 11.0098 4.98851C11.4316 5.36249 12.1334 5.04496 12.1334 4.48046C12.1334 4.32876 11.9916 3.97947 11.5989 3.18212C11.4571 2.89634 11.4134 2.83636 11.268 2.74816C11.0607 2.62115 10.7734 2.61056 10.5589 2.71994Z" fill="#8270F7"/>
<path d="M25.7585 5.58838C25.6785 5.61661 25.5803 5.66953 25.5403 5.70481C24.3585 6.72091 24.3076 6.78088 24.3076 7.09489C24.3076 7.56765 24.8349 7.90282 25.2676 7.70172C25.4676 7.60999 26.5185 6.67857 26.5949 6.53039C26.8567 6.0047 26.3113 5.39433 25.7585 5.58838Z" fill="#8270F7"/>
<path d="M15.7628 5.7153C12.0865 5.9411 8.7992 8.0368 7.11193 11.2333C6.37738 12.6304 6.01375 13.9746 5.96284 15.5235L5.94466 16.1409L4.42466 18.6988C3.59193 20.1065 2.88647 21.2955 2.86102 21.3413C2.83556 21.3907 2.81738 21.5142 2.81738 21.62C2.81738 21.7753 2.8392 21.8423 2.92284 21.9587C3.12284 22.2304 3.16284 22.241 4.17011 22.2622L5.06102 22.2798L5.0792 24.0791C5.10102 25.7973 5.10466 25.8926 5.18102 26.1607C5.45375 27.1098 6.0792 27.8436 6.97375 28.2599C7.14102 28.3376 7.41011 28.4364 7.57011 28.4787C7.85375 28.5563 7.92284 28.5563 9.86829 28.5704L11.8719 28.581L11.8865 29.329C11.8974 30.0663 11.8974 30.0805 11.9956 30.2357C12.1228 30.4509 12.3156 30.5532 12.5847 30.5532C12.8247 30.5532 12.9519 30.4968 13.1083 30.3274C13.261 30.1581 13.2974 29.9499 13.2974 29.2125V28.581L14.2392 28.5704L15.181 28.5598L15.3228 28.4505C15.4901 28.3235 15.6247 28.08 15.6247 27.9071C15.621 27.6319 15.3992 27.3462 15.1228 27.2721C15.0356 27.2509 13.8319 27.2368 11.6428 27.2368C9.48284 27.2368 8.21375 27.2227 8.06102 27.198C7.69738 27.1415 7.33011 26.9545 7.04647 26.6758C6.76284 26.4006 6.63193 26.1748 6.53375 25.8044C6.46466 25.5468 6.46102 25.4092 6.46102 23.5076C6.46102 21.3237 6.46102 21.3413 6.26829 21.1402C6.09738 20.9603 6.01011 20.9426 5.34102 20.9215L4.71193 20.9038L5.07193 20.3041C5.96284 18.8152 7.22102 16.6948 7.2792 16.5854C7.33375 16.4831 7.34466 16.349 7.35193 15.774C7.36284 15.026 7.39556 14.719 7.53738 14.0522C8.35193 10.1889 11.8683 7.25356 15.9192 7.06304C17.5992 6.98189 19.0828 7.28531 20.5483 8.00504C22.8392 9.13051 24.5774 11.2192 25.2137 13.6183C25.5701 14.9695 25.6065 16.4619 25.3119 17.7426C25.0028 19.0939 24.3919 20.3217 23.5047 21.3872C23.0828 21.8917 22.8683 22.0716 22.0283 22.6185C21.1956 23.1654 21.0937 23.2641 21.0537 23.5676C21.0247 23.7792 21.181 24.0685 21.3919 24.1885C21.5337 24.2697 21.5847 24.2802 21.7847 24.2661C21.9956 24.2555 22.0465 24.2344 22.3301 24.0509C22.501 23.9415 22.6501 23.8498 22.661 23.8498C22.6719 23.8498 22.6792 25.2469 22.6792 26.951C22.6792 29.0573 22.6901 30.0875 22.7192 30.1545C22.7665 30.2745 22.9192 30.4368 23.0501 30.5038C23.1047 30.5321 23.2428 30.5532 23.3592 30.5532C23.6537 30.5532 23.8283 30.4509 23.9592 30.2039L24.061 30.0169V26.4183V22.8196L24.2647 22.6044C25.4683 21.3413 26.3956 19.5138 26.7301 17.7321C26.8756 16.9735 26.9083 16.5043 26.8865 15.6293C26.8465 14.0593 26.5301 12.7856 25.8428 11.4132C24.8574 9.44804 23.2356 7.83569 21.2428 6.84076C19.5156 5.97638 17.6719 5.59887 15.7628 5.7153Z" fill="#8270F7"/>
<path d="M6.30897 5.83523C6.07261 5.93402 5.87988 6.21626 5.87988 6.45618C5.87988 6.70667 5.99261 6.8478 6.57806 7.35585C6.88352 7.62045 7.19988 7.86742 7.27988 7.90623C7.74534 8.11792 8.25079 7.8145 8.25443 7.32056C8.25806 7.21825 8.22897 7.08771 8.19261 7.01009C8.11625 6.85838 7.02534 5.90932 6.83625 5.83523C6.69443 5.77525 6.44352 5.77525 6.30897 5.83523Z" fill="#8270F7"/>
<path d="M13.8239 8.34736C12.7184 8.58727 11.8384 9.37757 11.5293 10.4043L11.453 10.6653L11.1584 10.7606C10.7075 10.9052 10.3802 11.1134 9.98388 11.498C9.68206 11.7943 9.61297 11.8825 9.44933 12.2071C9.17661 12.7469 9.10024 13.0856 9.1257 13.6889C9.14751 14.257 9.20206 14.4686 9.44206 14.9414C9.79479 15.6329 10.4312 16.1762 11.1512 16.4056C11.3693 16.4726 11.3948 16.4938 11.5112 16.6737C11.7548 17.0653 12.2457 17.4993 12.6966 17.718C12.7984 17.7674 13.0166 17.8521 13.1875 17.9085C13.4639 17.9968 13.5475 18.0038 13.9875 18.0038C14.3693 18.0038 14.5402 17.9862 14.7584 17.9297C15.3948 17.7604 16.0312 17.3582 16.4639 16.8501L16.6857 16.5855L16.8275 16.7619C17.5148 17.6016 18.5257 18.0744 19.5148 18.0179C20.0784 17.9862 20.6857 17.7674 21.1148 17.4464C21.3839 17.2417 21.6966 16.9207 21.8602 16.6737C21.933 16.5643 22.0202 16.4655 22.053 16.455C23.5148 16.021 24.4275 14.6839 24.2421 13.2479C24.1075 12.2071 23.5039 11.3674 22.5657 10.9052C22.413 10.8312 22.2057 10.75 22.1075 10.7253L21.9221 10.6794L21.8093 10.3443C21.6457 9.86445 21.4093 9.494 21.0421 9.13766C19.8602 7.99808 18.0421 8.01572 16.8639 9.17647L16.6784 9.35993L16.5475 9.21528C16.2493 8.87658 15.7184 8.55905 15.2057 8.41439C14.7839 8.29444 14.1948 8.26621 13.8239 8.34736ZM14.7257 9.68451C14.8384 9.71274 15.0057 9.77272 15.1002 9.81506C15.3148 9.91031 15.6239 10.2067 15.7693 10.4536C15.9693 10.7923 15.9912 10.9899 15.9802 12.3659L15.9693 13.6007L15.8093 13.3008C15.7221 13.135 15.5621 12.8034 15.453 12.5599C15.1912 11.9707 15.0348 11.819 14.6784 11.819C14.2566 11.819 13.9657 12.1224 13.9948 12.5211C14.0057 12.6587 14.0675 12.8457 14.2021 13.1421C14.3075 13.3749 14.4021 13.5901 14.4093 13.6184C14.4202 13.6536 14.3621 13.703 14.2202 13.7736C13.9039 13.9324 13.6348 14.1899 13.573 14.391C13.453 14.7826 13.6821 15.1531 14.0966 15.2448C14.2966 15.2907 14.4857 15.2378 14.7002 15.079C14.8784 14.9449 15.0712 14.8532 15.1693 14.8532C15.2312 14.8532 15.7802 15.3013 15.7984 15.3613C15.8202 15.4424 15.5184 15.8693 15.2784 16.1092C14.9802 16.3985 14.6166 16.5926 14.2493 16.6596C13.7948 16.7407 13.2639 16.5749 12.9366 16.2503C12.7912 16.1057 12.7802 16.0845 12.7766 15.8834C12.7693 15.7105 12.7512 15.6435 12.6602 15.52C12.5148 15.3189 12.3475 15.2448 11.9693 15.206C11.5584 15.1637 11.2639 15.0331 11.0021 14.7721C10.6566 14.4369 10.4966 14.0453 10.4966 13.5619C10.4966 12.9798 10.8457 12.3941 11.3366 12.1542L11.5039 12.0695L11.5512 12.2177C11.7221 12.7716 12.2675 13.4949 12.6239 13.6395C13.0493 13.8089 13.5112 13.5549 13.573 13.1174C13.6057 12.8916 13.5366 12.7293 13.3075 12.4788C13.0457 12.193 12.9112 11.9601 12.8421 11.6708C12.7039 11.0711 12.8566 10.5207 13.2821 10.1044C13.6748 9.71627 14.2239 9.5575 14.7257 9.68451ZM19.2675 9.6704C19.8784 9.79389 20.3293 10.2208 20.5148 10.8453C20.5621 11.004 20.573 11.1381 20.5621 11.3815C20.5475 11.6603 20.5257 11.7449 20.4166 11.9707C20.3402 12.126 20.1984 12.3271 20.0675 12.4647C19.7221 12.8351 19.6893 13.1632 19.9621 13.4667C20.1002 13.6184 20.2602 13.6889 20.4675 13.6889C20.7039 13.6854 20.893 13.5831 21.1511 13.3114C21.4311 13.0186 21.5912 12.7681 21.7584 12.3729C21.8312 12.2001 21.8966 12.0872 21.9221 12.0942C22.0384 12.1224 22.3257 12.3341 22.4602 12.4894C23.0384 13.1597 23.0021 14.1582 22.373 14.7685C22.1039 15.0296 21.8021 15.1637 21.3875 15.2095C20.8384 15.2695 20.6093 15.4742 20.5912 15.9152C20.5839 16.1269 20.5766 16.141 20.4202 16.2786C19.5657 17.03 18.2384 16.6667 17.6384 15.52L17.5548 15.3542L17.8602 15.1002C18.1621 14.8497 18.1657 14.8497 18.3039 14.885C18.3839 14.9061 18.533 14.9873 18.6421 15.0649C18.8966 15.2519 19.0675 15.2942 19.3075 15.2378C19.613 15.1672 19.8421 14.8814 19.8421 14.5674C19.8421 14.4016 19.6675 14.1264 19.4675 13.9818C19.3221 13.8724 19.013 13.6889 18.9439 13.6678C18.9366 13.6678 19.0239 13.4631 19.133 13.2162C19.2457 12.9657 19.3511 12.6975 19.3693 12.6164C19.4348 12.3306 19.2784 12.0237 18.9984 11.8861C18.7766 11.7767 18.4748 11.8049 18.2893 11.946C18.1293 12.0695 18.1039 12.1154 17.7875 12.8245C17.6566 13.1138 17.5148 13.4102 17.4675 13.4772L17.3875 13.6007L17.3766 12.3835C17.373 11.6779 17.3839 11.0887 17.4057 10.9723C17.4893 10.5207 17.8348 10.0409 18.2311 9.83622C18.5802 9.65276 18.9111 9.59984 19.2675 9.6704Z" fill="#8270F7"/>
<path d="M27.9341 10.2811C27.5559 10.401 27.1923 10.528 27.1305 10.5598C26.9705 10.6409 26.8359 10.8068 26.785 10.9832C26.6759 11.3713 27.0214 11.8158 27.4323 11.8193C27.6177 11.8193 28.9923 11.3783 29.1377 11.2725C29.5777 10.9444 29.4396 10.2352 28.905 10.0906C28.705 10.0376 28.6796 10.0412 27.9341 10.2811Z" fill="#8270F7"/>
<path d="M3.69706 10.4108C3.40251 10.5237 3.23888 10.7954 3.26797 11.1094C3.28615 11.2964 3.40615 11.4904 3.57342 11.5963C3.62433 11.628 3.99524 11.755 4.39888 11.8785C5.21706 12.1325 5.33706 12.1431 5.59888 11.9738C5.95887 11.7409 6.00978 11.2823 5.70433 10.9647C5.58069 10.8377 5.51524 10.8095 4.84251 10.6013C4.11524 10.3755 3.88979 10.3367 3.69706 10.4108Z" fill="#8270F7"/>
</svg>
