<svg width="18" height="18" viewBox="0 0 18 18" fill="none" xmlns="http://www.w3.org/2000/svg">
<path fill-rule="evenodd" clip-rule="evenodd" d="M7.194 11.4043C9.96075 11.4043 12.3255 11.8235 12.3255 13.4983C12.3255 15.173 9.9765 15.6043 7.194 15.6043C4.4265 15.6043 2.0625 15.1888 2.0625 13.5133C2.0625 11.8378 4.41075 11.4043 7.194 11.4043Z" stroke="white" stroke-width="1.5" stroke-linecap="round" stroke-linejoin="round"/>
<path opacity="0.4" fill-rule="evenodd" clip-rule="evenodd" d="M7.1938 9.015C5.3773 9.015 3.9043 7.54275 3.9043 5.72625C3.9043 3.90975 5.3773 2.4375 7.1938 2.4375C9.00955 2.4375 10.4825 3.90975 10.4825 5.72625C10.4893 7.536 9.0268 9.00825 7.21705 9.015H7.1938Z" stroke="white" stroke-width="1.5" stroke-linecap="round" stroke-linejoin="round"/>
<path opacity="0.4" d="M12.3623 8.16194C13.5631 7.99319 14.4878 6.96269 14.4901 5.71544C14.4901 4.48619 13.5938 3.46619 12.4186 3.27344" stroke="white" stroke-width="1.5" stroke-linecap="round" stroke-linejoin="round"/>
<path d="M13.9473 11.0488C15.1105 11.2221 15.9228 11.6301 15.9228 12.4701C15.9228 13.0483 15.5403 13.4233 14.9223 13.6581" stroke="white" stroke-width="1.5" stroke-linecap="round" stroke-linejoin="round"/>
</svg>
