<svg width="21" height="21" viewBox="0 0 21 21" fill="none" xmlns="http://www.w3.org/2000/svg">
<path opacity="0.4" fill-rule="evenodd" clip-rule="evenodd" d="M6.42025 17.8203C6.84225 17.8203 7.18525 18.1633 7.18525 18.5853C7.18525 19.0073 6.84225 19.3493 6.42025 19.3493C5.99825 19.3493 5.65625 19.0073 5.65625 18.5853C5.65625 18.1633 5.99825 17.8203 6.42025 17.8203Z" stroke="#130F26" stroke-width="1.5" stroke-linecap="round" stroke-linejoin="round"/>
<path opacity="0.4" fill-rule="evenodd" clip-rule="evenodd" d="M17.6732 17.8203C18.0952 17.8203 18.4382 18.1633 18.4382 18.5853C18.4382 19.0073 18.0952 19.3493 17.6732 19.3493C17.2512 19.3493 16.9082 19.0073 16.9082 18.5853C16.9082 18.1633 17.2512 17.8203 17.6732 17.8203Z" stroke="#130F26" stroke-width="1.5" stroke-linecap="round" stroke-linejoin="round"/>
<path d="M1.74805 1.25L3.82805 1.61L4.79105 13.083C4.86905 14.018 5.65005 14.736 6.58805 14.736H17.5C18.396 14.736 19.156 14.078 19.285 13.19L20.234 6.632C20.351 5.823 19.724 5.099 18.907 5.099H4.16205" stroke="#130F26" stroke-width="1.5" stroke-linecap="round" stroke-linejoin="round"/>
<path opacity="0.4" d="M13.123 8.79492H15.896" stroke="#130F26" stroke-width="1.5" stroke-linecap="round" stroke-linejoin="round"/>
</svg>
