<svg width="18" height="18" viewBox="0 0 18 18" fill="none" xmlns="http://www.w3.org/2000/svg">
<path fill-rule="evenodd" clip-rule="evenodd" d="M7.194 11.4062C9.96075 11.4062 12.3255 11.8255 12.3255 13.5003C12.3255 15.175 9.9765 15.6062 7.194 15.6062C4.4265 15.6062 2.0625 15.1908 2.0625 13.5153C2.0625 11.8398 4.41075 11.4062 7.194 11.4062Z" stroke="#7E54F1" stroke-width="1.5" stroke-linecap="round" stroke-linejoin="round"/>
<path opacity="0.4" fill-rule="evenodd" clip-rule="evenodd" d="M7.19575 9.015C5.37925 9.015 3.90625 7.54275 3.90625 5.72625C3.90625 3.90975 5.37925 2.4375 7.19575 2.4375C9.0115 2.4375 10.4845 3.90975 10.4845 5.72625C10.4912 7.536 9.02875 9.00825 7.219 9.015H7.19575Z" stroke="#7E54F1" stroke-width="1.5" stroke-linecap="round" stroke-linejoin="round"/>
<path opacity="0.4" d="M12.3633 8.16194C13.564 7.99319 14.4888 6.96269 14.491 5.71544C14.491 4.48619 13.5948 3.46619 12.4195 3.27344" stroke="#7E54F1" stroke-width="1.5" stroke-linecap="round" stroke-linejoin="round"/>
<path d="M13.9453 11.0508C15.1086 11.224 15.9208 11.632 15.9208 12.472C15.9208 13.0503 15.5383 13.4253 14.9203 13.66" stroke="#7E54F1" stroke-width="1.5" stroke-linecap="round" stroke-linejoin="round"/>
</svg>
