<svg width="176" height="66" viewBox="0 0 176 66" fill="none" xmlns="http://www.w3.org/2000/svg">
<path d="M0.00667847 44.1176C0.113914 46.7823 1.74195 49.1691 4.22461 50.3025C2.53484 46.3434 2.36802 42.1202 3.72417 37.6328C1.33575 38.9493 -0.0973075 41.4498 0.00667847 44.1176V44.1176Z" fill="white"/>
<path fill-rule="evenodd" clip-rule="evenodd" d="M4.69662 51.3614C4.84548 51.3614 4.988 51.304 5.09885 51.1926C5.27305 51.0137 5.32689 50.7437 5.23504 50.5074C3.64511 46.4267 3.48675 42.0085 4.7663 37.3743C4.83281 37.1313 4.75363 36.8714 4.56993 36.7127C4.38307 36.5575 4.12653 36.5372 3.92066 36.6587C1.39324 38.1877 -0.104841 41.0601 0.00601067 44.1552C0.116862 47.2503 1.82081 49.9877 4.44958 51.304C4.52876 51.3445 4.61427 51.3614 4.69662 51.3614V51.3614ZM3.24287 38.7176C2.48592 42.3866 2.59994 45.9205 3.5786 49.2687C2.13436 48.0165 1.24121 46.1534 1.16837 44.1079C1.09235 42.0389 1.86515 40.088 3.24287 38.7176V38.7176Z" fill="black"/>
<path d="M29.0365 15.4609C15.9166 15.4609 5.27984 26.0954 5.27984 39.2166C5.27984 52.3346 15.9166 62.9723 29.0365 62.9723C42.1533 62.9723 52.79 52.3346 52.79 39.2166C52.79 26.0954 42.1533 15.4609 29.0365 15.4609V15.4609Z" fill="white"/>
<path d="M28.8894 15.4609C15.322 15.4609 4.51135 25.2806 3.84265 38.38L3.61647 38.9674C3.09855 40.5371 3.17394 39.8453 3.17394 43.8463C3.17394 47.8472 6.22571 55.4641 12.0211 58.9005L12.6931 59.3867C31.7642 70.3616 53.8477 61.0315 53.8477 40.2532C53.8477 26.5599 42.4568 15.4609 28.8894 15.4609V15.4609Z" fill="#FF8B13"/>
<path fill-rule="evenodd" clip-rule="evenodd" d="M29.3229 65.0889C34.1036 65.0889 38.641 63.876 42.4995 61.5663C49.7106 57.2462 53.8477 49.4832 53.8477 40.268C53.8477 33.3823 51.222 26.8888 46.4541 21.9804C41.7118 17.0986 35.4709 14.4102 28.8811 14.4102C15.2978 14.4102 4.54527 24.6456 3.83121 38.2342L3.64549 38.7426C3.64122 38.7515 3.63802 38.7603 3.63588 38.7692C3.58145 38.9387 3.53662 39.0783 3.49499 39.2045C3.16518 40.2115 3.16518 40.3012 3.17158 42.5975C3.17158 42.973 3.17158 43.4117 3.17158 43.9268C3.17158 48.2536 6.26799 56.1595 12.0798 59.7652L12.7106 60.2437C12.7276 60.257 12.7458 60.2692 12.765 60.2803C17.7218 63.2545 23.1493 64.9128 28.452 65.0756C28.7423 65.0823 29.0326 65.0867 29.3229 65.0889V65.0889ZM28.8811 15.6298C42 15.6298 52.6725 26.6827 52.6725 40.268C52.6725 49.0379 48.75 56.4154 41.9135 60.5095C33.7674 65.388 22.8355 64.9028 13.3798 59.2401L12.749 58.7649C12.7362 58.7538 12.7212 58.7438 12.7042 58.735C7.32467 55.4084 4.34674 47.8681 4.34674 43.9268C4.34674 43.4117 4.34674 42.9697 4.34674 42.5942C4.34034 40.4109 4.34034 40.4109 4.60611 39.5967C4.64774 39.4704 4.69577 39.3308 4.747 39.1647L4.96154 38.5764C4.98395 38.5166 4.99677 38.4535 4.99997 38.3903C5.63398 25.4166 15.903 15.6298 28.8811 15.6298V15.6298Z" fill="black"/>
<path d="M26.3968 24.9668C13.5701 24.9668 3.16962 33.4762 3.16962 43.973C3.16962 54.4664 13.5701 62.9759 26.3968 62.9759C39.2268 62.9759 49.624 54.4664 49.624 43.973C49.624 33.4762 39.2268 24.9668 26.3968 24.9668V24.9668Z" fill="white"/>
<path fill-rule="evenodd" clip-rule="evenodd" d="M26.3968 62.9759C39.206 62.9759 49.624 54.4483 49.624 43.9713C49.624 33.4912 39.206 24.9668 26.3968 24.9668C13.5908 24.9668 3.16962 33.4912 3.16962 43.9713C3.16962 54.4483 13.5908 62.9759 26.3968 62.9759ZM26.3968 25.9351C38.6657 25.9351 48.6458 34.0246 48.6458 43.9713C48.6458 53.9149 38.6657 62.0044 26.3968 62.0044C14.1279 62.0044 4.1478 53.9149 4.1478 43.9713C4.1478 34.0246 14.1279 25.9351 26.3968 25.9351V25.9351Z" fill="black"/>
<path d="M26.3952 60.8629C15.3165 60.8629 6.33536 53.536 6.33536 44.4978C6.33536 35.4597 15.3165 28.1328 26.3952 28.1328C37.474 28.1328 46.4551 35.4597 46.4551 44.4978C46.4551 53.536 37.474 60.8629 26.3952 60.8629Z" fill="black"/>
<path fill-rule="evenodd" clip-rule="evenodd" d="M26.3961 60.8628C38.0404 60.8628 47.5117 53.5229 47.5117 44.4994C47.5117 35.4759 38.0404 28.1328 26.3961 28.1328C14.7517 28.1328 5.28043 35.4759 5.28043 44.4994C5.28043 53.5229 14.7517 60.8628 26.3961 60.8628ZM26.3961 29.303C37.3731 29.303 46.3052 36.12 46.3052 44.4994C46.3052 52.8756 37.3731 59.6927 26.3961 59.6927C15.4191 59.6927 6.48695 52.8756 6.48695 44.4994C6.48695 36.12 15.4191 29.303 26.3961 29.303Z" fill="black"/>
<path d="M6.33548 42.947C6.4003 43.5653 6.50079 44.187 6.63692 44.8087C7.07127 46.796 7.83947 48.6279 8.86698 50.2615C8.62712 50.731 8.43588 51.2072 8.29326 51.6801C11.58 57.1163 18.4841 60.8629 26.4677 60.8629C27.8906 60.8629 29.2779 60.7405 30.6166 60.5156C39.9809 57.8868 46.4378 51.7925 45.2611 46.429C44.9305 44.9112 44.0197 43.605 42.668 42.5535C42.9176 40.6257 42.8463 38.6383 42.4087 36.6477C42.1624 35.5201 41.8091 34.4454 41.3618 33.4269C37.6666 30.1731 32.3605 28.1328 26.4677 28.1328C15.9429 28.1328 7.29816 34.6372 6.33548 42.947V42.947Z" fill="#B0401E"/>
<path fill-rule="evenodd" clip-rule="evenodd" d="M25.9394 60.8628C27.3646 60.8628 28.7897 60.7506 30.1759 60.5228C30.1932 60.5207 30.2105 60.5164 30.2278 60.51C40.0253 57.8474 46.4823 51.7236 45.2487 46.2638C44.9143 44.7914 44.054 43.4889 42.6906 42.3983C42.9081 40.5184 42.8074 38.629 42.3887 36.7781C42.1387 35.6713 41.7751 34.5903 41.3109 33.5606C41.2784 33.4932 41.2362 33.4354 41.181 33.3905C37.2659 30.0479 31.7114 28.1328 25.9394 28.1328C20.7583 28.1328 15.8011 29.6437 11.9737 32.3897C8.14621 35.1388 5.76665 38.8856 5.28294 42.9372C5.27861 42.9757 5.27861 43.0131 5.28294 43.0495C5.35111 43.6718 5.45499 44.2973 5.59458 44.9068C6.01336 46.7578 6.73405 48.5093 7.74366 50.1196C7.54564 50.5206 7.38657 50.9248 7.26321 51.3258C7.22101 51.4605 7.24048 51.6049 7.31515 51.7268C9.00649 54.4343 11.6101 56.7183 14.8499 58.335C18.1644 59.9903 21.9984 60.8628 25.9394 60.8628V60.8628ZM29.9876 59.5604C28.6631 59.7754 27.2996 59.8844 25.9394 59.8844C18.4047 59.8844 11.662 56.6381 8.27931 51.4028C8.40267 51.0403 8.56174 50.6778 8.75328 50.3153C8.83444 50.1613 8.8247 49.9721 8.72731 49.8245C7.70471 48.2495 6.97753 46.5236 6.562 44.6919C6.43539 44.1369 6.34125 43.5659 6.27308 42.9981C7.25996 35.0779 15.7005 29.1144 25.9394 29.1144C31.4355 29.1144 36.714 30.914 40.4473 34.061C40.8661 35.0009 41.194 35.9857 41.4212 36.993C41.8335 38.8215 41.9212 40.6917 41.6712 42.549C41.6485 42.7223 41.7232 42.8955 41.8627 43.0014C43.1678 43.9862 43.9794 45.1538 44.278 46.4787C45.3753 51.3322 39.1001 57.0743 29.9876 59.5604V59.5604Z" fill="black"/>
<path d="M27.8966 30.4462C25.5659 30.955 23.67 32.3453 22.4914 34.1763C20.6022 32.9319 18.2117 32.4166 15.8112 32.9416C9.48961 34.3222 6.35869 43.6036 12.75 47.9819C10.811 47.8879 8.9783 48.8439 7.97893 50.4708C7.73323 50.931 7.53735 51.3976 7.39126 51.8611C10.7579 57.1888 17.8299 60.8606 26.0074 60.8606C27.465 60.8606 28.886 60.7407 30.2573 60.5203C39.8492 57.9439 46.463 51.9712 45.2578 46.7148C44.9191 45.2273 43.9862 43.9472 42.6016 42.9166C40.9216 42.1518 39.1055 42.1496 37.1533 42.9101C38.2323 41.1342 38.6473 38.9726 38.1493 36.7981C37.1167 32.2805 32.5249 29.4351 27.8966 30.4462Z" fill="#FFCAA1"/>
<path fill-rule="evenodd" clip-rule="evenodd" d="M26.0144 60.8617C27.4348 60.8617 28.8585 60.7441 30.24 60.5153C30.253 60.5131 30.2671 60.5098 30.2823 60.5055C40.0402 57.8059 46.473 51.6159 45.2508 46.109C44.903 44.5501 43.9798 43.1807 42.5009 42.0466C42.4792 42.0292 42.4554 42.015 42.4294 42.0041C40.9666 41.3178 39.3901 41.2067 37.7324 41.6642C38.5093 39.9288 38.7075 37.9908 38.2915 36.1115C37.2318 31.3465 32.5154 28.3365 27.7761 29.4019C25.595 29.8921 23.7195 31.1635 22.4583 33.0035C20.4983 31.7942 18.2034 31.4118 15.9476 31.9184C12.7263 32.6407 10.0869 35.5331 9.38158 39.1085C8.77373 42.1937 9.73263 45.1187 11.9657 47.1287C10.3405 47.3705 8.8875 48.3281 8.02287 49.7792C8.01853 49.7857 8.0142 49.7934 8.00987 49.8021C7.75958 50.2891 7.5548 50.7826 7.40853 51.2728C7.37602 51.3806 7.38902 51.5016 7.45078 51.5996C9.13454 54.3416 11.7284 56.6588 14.9562 58.2962C18.2587 59.9728 22.0845 60.8617 26.0144 60.8617V60.8617ZM30.0905 59.7277C28.7578 59.9499 27.3861 60.061 26.0144 60.061C18.418 60.061 11.6179 56.7209 8.2244 51.3349C8.35117 50.9525 8.5137 50.5636 8.71198 50.1812C9.61562 48.6713 11.2669 47.7889 13.0156 47.8771C13.1912 47.8836 13.3537 47.7758 13.4122 47.6058C13.4707 47.4392 13.4089 47.2529 13.2659 47.1483C10.7045 45.341 9.5441 42.393 10.1617 39.2654C10.8085 35.9939 13.2009 33.3532 16.1199 32.6963C18.2912 32.2093 20.5048 32.6309 22.351 33.8826C22.4388 33.9447 22.5493 33.9643 22.6566 33.9414C22.7606 33.9218 22.8549 33.8565 22.9101 33.765C24.0576 31.9282 25.8453 30.6536 27.9484 30.1797C32.2586 29.2123 36.5525 31.9511 37.5146 36.2848C37.9632 38.298 37.6316 40.3831 36.585 42.1545C36.5102 42.2787 36.5102 42.4323 36.5785 42.5565C36.676 42.7264 36.8938 42.8016 37.0725 42.7297C38.8798 42.0074 40.5083 42.0009 42.0523 42.7101C43.3557 43.7199 44.1716 44.9226 44.4739 46.2822C45.5856 51.2826 39.2666 57.185 30.0905 59.7277V59.7277Z" fill="black"/>
<path d="M13.8299 51.02C12.0461 50.5857 10.7674 51.6033 12.2955 53.7488C18.852 62.9596 37.9717 58.6264 40.0336 47.4582C40.5131 44.8589 38.9307 44.4895 37.4986 45.6562C31.2362 50.7542 21.6395 52.9289 13.8299 51.02V51.02Z" fill="white"/>
<path fill-rule="evenodd" clip-rule="evenodd" d="M23.9229 59.8067C25.4009 59.8067 26.9305 59.6318 28.4828 59.2788C35.1563 57.7511 40.1034 53.3167 41.0812 47.9781C41.4136 46.1601 40.794 45.4772 40.3906 45.2297C39.7323 44.8272 38.7739 45.0284 37.8897 45.7543C31.6162 50.9015 22.1512 53.0659 14.332 51.139C13.2316 50.8652 12.2796 51.1027 11.8537 51.756C11.5923 52.152 11.3147 53.0428 12.37 54.5441C14.758 57.9227 19.0403 59.8067 23.9229 59.8067V59.8067ZM39.6194 45.8302C39.7581 45.8302 39.884 45.8599 39.9873 45.9226C40.3681 46.1568 40.4842 46.853 40.3067 47.8297C39.387 52.8514 34.6787 57.0352 28.3085 58.4902C21.9415 59.9486 15.9359 58.2131 13.0122 54.0689C12.4442 53.2639 12.2603 52.5842 12.5088 52.2047C12.7443 51.8451 13.3865 51.7362 14.1481 51.921C22.19 53.904 31.9293 51.6768 38.3834 46.3812C38.8191 46.0249 39.2676 45.8302 39.6194 45.8302V45.8302Z" fill="black"/>
<path d="M6.33467 45.0769C6.33467 47.3291 6.92957 49.4616 7.99341 51.3633C8.10864 50.9689 8.26139 50.5746 8.44629 50.1802C7.59682 48.7401 6.96441 47.1217 6.60533 45.3631C6.50886 44.9016 6.4365 44.4371 6.38023 43.9727C6.35075 44.3378 6.33467 44.7059 6.33467 45.0769V45.0769Z" fill="#FFCAA1"/>
<path fill-rule="evenodd" clip-rule="evenodd" d="M8.25918 52.4163C8.28233 52.4163 8.30549 52.4152 8.32865 52.413C8.56021 52.3895 8.75319 52.2522 8.82266 52.0612C8.97703 51.639 9.18158 51.2101 9.4363 50.7846C9.53279 50.6204 9.52507 50.4261 9.40929 50.272C8.19357 48.6269 7.3252 46.8243 6.83505 44.9111C6.70383 44.4052 6.59962 43.8859 6.52243 43.3632C6.48384 43.1019 6.22912 42.9075 5.92809 42.9142C5.62705 42.9209 5.38005 43.1186 5.34917 43.38C5.30286 43.8222 5.2797 44.2611 5.2797 44.6934C5.2797 47.3135 6.11333 49.8297 7.75745 52.1717C7.86552 52.3259 8.05463 52.4163 8.25918 52.4163V52.4163ZM8.23603 50.5769C8.21287 50.6216 8.18842 50.6662 8.16269 50.7109C7.92598 50.3111 7.71371 49.9068 7.52589 49.498C7.74716 49.8643 7.98388 50.224 8.23603 50.5769Z" fill="black"/>
<path d="M7.7231 51.3591C7.9522 51.2219 8.1537 51.0445 8.3276 50.8336C8.36624 50.7332 8.40488 50.6395 8.44629 50.5391C7.72862 49.1835 7.16 47.6873 6.77356 46.0807C6.63002 46.0773 6.48097 46.0874 6.33467 46.1175C6.49753 47.9685 6.98058 49.7324 7.7231 51.3591V51.3591Z" fill="#FF9999"/>
<path fill-rule="evenodd" clip-rule="evenodd" d="M7.86659 51.3591C7.95729 51.3591 8.04799 51.3451 8.13475 51.3143C8.51335 51.1797 8.8604 51.0059 9.16013 50.79C9.20745 50.7564 9.24295 50.7172 9.2745 50.6751C9.32577 50.5966 9.38098 50.5181 9.43619 50.4396C9.53478 50.3051 9.52295 50.1425 9.40858 50.0135C8.39504 48.8894 7.61418 47.67 7.08966 46.3889C7.01473 46.2094 6.786 46.0861 6.52572 46.0805C6.27332 46.0777 6.02486 46.0889 5.78429 46.1169C5.46879 46.1534 5.24795 46.358 5.28344 46.5851C5.52007 48.1634 6.21416 49.694 7.34207 51.1377C7.45249 51.2778 7.65757 51.3591 7.86659 51.3591V51.3591ZM8.19786 50.2574C8.16368 50.2798 8.1295 50.3013 8.09532 50.3219C7.8771 50.0135 7.6786 49.7024 7.49982 49.3884C7.72067 49.6837 7.95335 49.9734 8.19786 50.2574Z" fill="black"/>
<path d="M25.8623 48.1917C26.0578 48.1917 26.2465 48.0855 26.3357 47.9063C26.6205 47.3321 27.2517 47.0134 27.9001 47.113C28.1849 47.1562 28.4525 46.967 28.5005 46.6915C28.5451 46.416 28.3495 46.1538 28.0648 46.1107C26.9532 45.9414 25.8794 46.4857 25.3923 47.4648C25.2653 47.7171 25.3751 48.0191 25.6358 48.1419C25.7079 48.1751 25.7868 48.1917 25.8623 48.1917Z" fill="black"/>
<path d="M25.9113 48.1964C26.0536 48.1964 26.1928 48.1503 26.2878 48.0581C26.4554 47.9004 26.4238 47.6675 26.2182 47.5365C25.4241 47.044 24.282 47.0076 23.4405 47.4467C23.219 47.5632 23.1621 47.7937 23.3108 47.9635C23.4626 48.1309 23.7632 48.177 23.9846 48.0606C24.4782 47.8034 25.1457 47.8252 25.6076 48.1139C25.6962 48.1697 25.8037 48.1964 25.9113 48.1964V48.1964Z" fill="black"/>
<path d="M26.0949 51.3639C26.1171 51.3639 26.1387 51.3595 26.1595 51.3508C26.322 51.2922 26.4238 51.0249 26.3885 50.7576C26.1889 49.2617 26.1028 48.6587 25.9286 47.518C25.8875 47.2508 25.725 47.0878 25.5645 47.1562C25.404 47.2247 25.3081 47.4985 25.3492 47.7625C25.5215 48.8901 25.6056 49.4898 25.8033 50.9728C25.8346 51.2042 25.9579 51.3639 26.0949 51.3639V51.3639Z" fill="black"/>
<path d="M40.2206 47.344C39.4471 48.329 38.4492 49.1843 37.3718 49.9424C36.2876 50.7006 35.1205 51.3647 33.9188 51.9738C33.7945 52.0354 33.7496 52.1812 33.8152 52.2946C33.8808 52.4047 34.0224 52.4501 34.1433 52.3983C35.4036 51.8572 36.6398 51.2578 37.8173 50.5451C38.9913 49.829 40.1136 48.9964 41.0493 47.9564C41.2393 47.7458 41.2116 47.4348 40.9906 47.2566C40.7662 47.0816 40.4347 47.1075 40.2448 47.3149C40.2379 47.3235 40.231 47.3322 40.2241 47.3408L40.2206 47.344Z" fill="black"/>
<path opacity="0.3" d="M38.9307 45.5755C38.4977 48.123 36.5417 50.383 34.8421 52.416C38.3906 50.5309 40.1502 48.5073 40.1207 46.3454C40.0677 44.8837 40.2621 44.6495 38.9307 45.5755V45.5755Z" fill="black"/>
<path d="M11.9131 54.4071C13.1865 54.9553 14.5255 55.2421 15.8547 55.4047C17.1871 55.5672 18.5228 55.6023 19.8486 55.5768C19.9698 55.5736 20.0647 55.478 20.0614 55.36C20.0582 55.2485 19.9698 55.1593 19.8552 55.1529C18.5457 55.086 17.2395 54.9585 15.9692 54.7131C14.7023 54.4677 13.4583 54.1012 12.355 53.5307H12.3517C12.1062 53.4032 11.805 53.4925 11.6741 53.7315C11.5431 53.9673 11.6381 54.2637 11.8803 54.3912C11.8934 54.3944 11.9032 54.4008 11.9131 54.4071V54.4071Z" fill="black"/>
<path opacity="0.3" d="M12.0365 52.7439C12.8906 54.7454 15.5656 55.6885 20.0615 55.5732C17.4446 54.5892 14.4689 53.5296 12.9691 51.4139C11.1892 51.2553 11.4933 51.3707 12.0365 52.7439Z" fill="black"/>
<path fill-rule="evenodd" clip-rule="evenodd" d="M25.9394 60.8628C27.3646 60.8628 28.7897 60.7506 30.1759 60.5228C30.1932 60.5207 30.2105 60.5164 30.2278 60.51C40.0253 57.8474 46.4823 51.7236 45.2487 46.2638C44.9143 44.7914 44.054 43.4889 42.6906 42.3983C42.9081 40.5184 42.8074 38.629 42.3887 36.7781C42.1387 35.6713 41.7751 34.5903 41.3109 33.5606C41.2784 33.4932 41.2362 33.4354 41.181 33.3905C37.2659 30.0479 31.7114 28.1328 25.9394 28.1328C20.7583 28.1328 15.8011 29.6437 11.9737 32.3897C8.14621 35.1388 5.76665 38.8856 5.28294 42.9372C5.27861 42.9757 5.27861 43.0131 5.28294 43.0495C5.35111 43.6718 5.45499 44.2973 5.59458 44.9068C6.01336 46.7578 6.73405 48.5093 7.74366 50.1196C7.54564 50.5206 7.38657 50.9248 7.26321 51.3258C7.22101 51.4605 7.24048 51.6049 7.31515 51.7268C9.00649 54.4343 11.6101 56.7183 14.8499 58.335C18.1644 59.9903 21.9984 60.8628 25.9394 60.8628V60.8628ZM29.9876 59.5604C28.6631 59.7754 27.2996 59.8844 25.9394 59.8844C18.4047 59.8844 11.662 56.6381 8.27931 51.4028C8.40267 51.0403 8.56174 50.6778 8.75328 50.3153C8.83444 50.1613 8.8247 49.9721 8.72731 49.8245C7.70471 48.2495 6.97753 46.5236 6.562 44.6919C6.43539 44.1369 6.34125 43.5659 6.27308 42.9981C7.25996 35.0779 15.7005 29.1144 25.9394 29.1144C31.4355 29.1144 36.714 30.914 40.4473 34.061C40.8661 35.0009 41.194 35.9857 41.4212 36.993C41.8335 38.8215 41.9212 40.6917 41.6712 42.549C41.6485 42.7223 41.7232 42.8955 41.8627 43.0014C43.1678 43.9862 43.9794 45.1538 44.278 46.4787C45.3753 51.3322 39.1001 57.0743 29.9876 59.5604V59.5604Z" fill="black"/>
<path d="M51.9328 32.3961C49.0565 32.746 47.1079 35.3747 47.5824 38.2696C48.057 41.1646 50.7715 43.2267 53.6478 42.8768C56.5241 42.53 58.4727 39.8982 57.9982 37.0033C57.5236 34.1083 54.8055 32.0462 51.9328 32.3961Z" fill="white"/>
<path fill-rule="evenodd" clip-rule="evenodd" d="M52.9807 43.9705C53.198 43.9705 53.4164 43.9537 53.6359 43.9202C55.0422 43.7123 56.2728 42.8504 57.0974 41.4956C57.9029 40.1709 58.2225 38.5244 57.9988 36.8644C57.5353 33.3968 54.8153 30.9253 51.9451 31.3478C49.0717 31.7737 47.1124 34.9394 47.579 38.407C47.8028 40.067 48.5443 41.5559 49.6662 42.5955C50.6378 43.4943 51.7949 43.9705 52.9807 43.9705V43.9705ZM52.5907 32.5316C54.6395 32.5316 56.4901 34.4431 56.8385 37.0354C57.0239 38.407 56.765 39.7551 56.1098 40.8349C55.4705 41.8812 54.534 42.5452 53.4697 42.7028C52.4085 42.8605 51.3314 42.4949 50.4428 41.6733C49.5287 40.8249 48.9246 39.6042 48.7392 38.2326C48.3653 35.4391 49.8771 32.8971 52.1081 32.5651C52.27 32.5428 52.4309 32.5316 52.5907 32.5316V32.5316Z" fill="black"/>
<path d="M55.7264 42.5667C57.3913 41.4713 58.3443 39.3944 57.999 37.1679C57.6035 34.6489 55.6688 32.7312 53.3818 32.3574C53.2667 32.3574 53.148 32.3672 53.0294 32.3834C50.7387 32.676 49.2536 35.2632 49.7031 38.1658C50.1562 41.065 52.3785 43.181 54.6691 42.8885C55.0467 42.843 55.3991 42.7325 55.7264 42.5667Z" fill="white"/>
<path fill-rule="evenodd" clip-rule="evenodd" d="M54.1918 42.9147C54.3424 42.9147 54.492 42.9038 54.6406 42.882C55.0258 42.8265 55.3982 42.699 55.7452 42.4998C55.7621 42.4911 55.7791 42.4802 55.7961 42.4671C57.4577 41.2257 58.3236 38.9094 58.0021 36.567C57.6328 33.8914 55.7929 31.7287 53.5201 31.3073C53.4883 31.303 53.4554 31.3008 53.4214 31.3008C53.2941 31.304 53.17 31.3138 53.0522 31.3302C50.7666 31.6634 49.261 34.522 49.6971 37.7072C49.904 39.2198 50.5152 40.5886 51.4128 41.5589C52.2309 42.4442 53.205 42.9147 54.1918 42.9147V42.9147ZM55.2486 41.6406C55.013 41.7712 54.7616 41.8562 54.5069 41.8921C53.6856 42.0097 52.8389 41.6471 52.1195 40.8728C51.3587 40.0496 50.8399 38.8768 50.6616 37.5667C50.2987 34.9271 51.4319 32.5749 53.1891 32.3201C53.257 32.3113 53.3259 32.3048 53.396 32.3005C55.239 32.6696 56.732 34.473 57.0376 36.7075C57.3081 38.6775 56.6078 40.6082 55.2486 41.6406V41.6406Z" fill="black"/>
<path d="M33.9958 19.688C33.2708 22.0802 34.4859 22.4071 36.567 20.8165C38.1044 19.644 39.917 19.0625 41.6624 18.6507C43.3038 16.8777 41.1757 14.6113 38.0674 15.7838C36.5032 16.2773 34.6873 17.409 33.9958 19.688V19.688Z" fill="#FF8B13"/>
<path fill-rule="evenodd" clip-rule="evenodd" d="M34.0579 22.8516C34.6976 22.8516 35.4988 22.4857 36.4483 21.7541C37.9386 20.6131 39.696 20.0892 41.2193 19.7295C41.338 19.6985 41.4468 19.6365 41.5292 19.5497C42.3601 18.6475 42.4623 17.491 41.7897 16.6074C41.0643 15.6494 39.4026 15.0355 37.3287 15.8168C36.0428 16.2261 33.781 17.3174 32.9567 20.0458C32.5577 21.3727 32.683 22.2501 33.3359 22.6563C33.5491 22.7865 33.7898 22.8516 34.0579 22.8516V22.8516ZM40.7247 18.6723C39.2014 19.0443 37.2957 19.6365 35.6834 20.8735C34.6053 21.7013 34.081 21.7386 33.9986 21.7045C34.0019 21.7045 33.7942 21.4347 34.1206 20.3558C34.7965 18.1173 36.6726 17.2244 37.7309 16.8896C37.7419 16.8854 37.7529 16.8813 37.7639 16.8772C39.2377 16.3191 40.3521 16.6725 40.8071 17.2678C41.127 17.6926 41.0973 18.1948 40.7247 18.6723Z" fill="black"/>
<path d="M8.45599 24.8377C8.38589 25.4046 8.87979 25.8946 9.4406 25.9971C9.99821 26.1028 10.6419 25.8306 10.7725 25.2733C11.3078 22.9928 12.8946 20.7604 14.7842 19.3575C12.1554 17.897 9.25259 18.1276 8.45599 24.8377V24.8377Z" fill="#FF8B13"/>
<path fill-rule="evenodd" clip-rule="evenodd" d="M9.16986 27.0754C9.88209 27.0754 10.6383 26.6712 10.8202 25.8944C11.2971 23.8578 12.7279 21.7486 14.5508 20.3971C14.7077 20.2803 14.7955 20.0909 14.783 19.8919C14.7704 19.6962 14.6606 19.5193 14.4881 19.4246C12.8973 18.5373 11.5011 18.3921 10.3402 18.9889C8.79336 19.7877 7.80502 21.897 7.40341 25.2629C7.30615 26.0934 7.9368 26.8764 8.84042 27.0438C8.9471 27.0659 9.06005 27.0754 9.16986 27.0754V27.0754ZM13.1358 20.0593C11.4572 21.556 10.1708 23.6178 9.70012 25.6292C9.64992 25.8439 9.31106 25.9544 9.05064 25.9071C8.79022 25.8566 8.52039 25.6324 8.54863 25.4019C8.89376 22.4843 9.69698 20.6213 10.8642 20.0214C11.4854 19.6993 12.2478 19.7151 13.1358 20.0593V20.0593Z" fill="black"/>
<path opacity="0.3" d="M55.7075 37.186C56.0913 39.2897 55.3202 41.4325 53.6499 42.9155C56.5995 42.2393 58.4901 39.5902 57.989 36.8333C57.4879 34.0763 54.7658 32.136 51.7345 32.3777C53.8383 33.2793 55.3237 35.0791 55.7075 37.186V37.186Z" fill="black"/>
<path opacity="0.3" d="M11.6145 26.0196C12.6971 24.0175 14.3315 22.1986 16.5179 20.5626C17.3545 18.3798 16.7939 18.045 14.8331 19.5582C13.5666 20.2546 12.4918 22.4072 11.6145 26.0196Z" fill="black"/>
<path opacity="0.3" d="M41.6174 15.9761C40.8825 15.3111 39.7404 15.2869 38.9766 15.921C39.5242 15.6798 40.1727 15.8658 40.4898 16.3551C40.8032 16.8479 40.7852 17.6507 40.2196 17.8437C37.8886 18.6466 35.6873 19.7871 33.785 21.7891C34.8442 21.8925 37.5211 20.7944 41.8156 18.495C42.4389 17.7334 42.3524 16.6411 41.6174 15.9761V15.9761Z" fill="black"/>
<path opacity="0.3" d="M13.1192 19.6875C10.393 21.7921 9.20837 23.9037 9.56532 26.0223C10.7113 23.9756 12.0953 22.0986 13.7172 20.3914C13.7736 20.3894 13.5743 20.1548 13.1192 19.6875Z" fill="black"/>
<path opacity="0.3" d="M8.44692 50.7147C11.6537 56.0909 18.5282 59.8093 26.4877 59.8093C37.5163 59.8093 46.4551 52.6752 46.4551 43.8768C46.4551 39.872 44.6052 36.2116 41.5456 33.4141C42.7842 35.4841 43.4755 37.8052 43.4755 40.2519C43.4755 49.0503 34.5335 56.1843 23.5049 56.1843C21.8471 56.1843 20.2373 56.0233 18.6979 55.7175C19.2035 55.5211 19.7188 55.2958 20.2405 55.0318C18.1602 55.0661 16.0298 54.7571 13.8492 54.1046C13.8684 54.1465 13.8908 54.1851 13.9068 54.2237C11.8362 53.3191 9.98632 52.128 8.44692 50.7147V50.7147Z" fill="black"/>
<path fill-rule="evenodd" clip-rule="evenodd" d="M26.924 60.8628C38.276 60.8628 47.5117 53.521 47.5117 44.4978C47.5117 35.4746 38.276 28.1328 26.924 28.1328C15.5719 28.1328 6.33622 35.4746 6.33622 44.4978C6.33622 53.521 15.5719 60.8628 26.924 60.8628V60.8628ZM26.924 28.9202C37.8392 28.9202 46.7189 35.9103 46.7189 44.4978C46.7189 53.0853 37.8392 60.0722 26.924 60.0722C16.0088 60.0722 7.12905 53.0853 7.12905 44.4978C7.12905 35.9103 16.0088 28.9202 26.924 28.9202V28.9202Z" fill="black"/>
<path d="M15.1332 44.4443C15.8588 46.4079 17.4706 47.5511 18.7358 46.997C19.9975 46.443 20.4371 44.4022 19.7115 42.4386C18.986 40.4749 17.3741 39.3318 16.1089 39.8858C14.8437 40.4398 14.4077 42.4806 15.1332 44.4443Z" fill="black"/>
<path d="M15.8394 41.7812C15.817 42.3604 16.274 42.8665 16.8564 42.9115C17.4389 42.9537 17.9273 42.5179 17.9497 41.9359C17.9676 41.3567 17.5106 40.8477 16.9281 40.8056C16.3457 40.7634 15.8573 41.1992 15.8394 41.7812V41.7812Z" fill="white"/>
<path d="M30.2552 37.6341C29.1044 37.6799 28.3371 39.1377 28.5397 40.8858C28.7392 42.637 29.8348 44.0153 30.9826 43.9664C32.1304 43.9206 32.9007 42.4628 32.6981 40.7147C32.4956 38.9635 31.403 37.5852 30.2552 37.6341Z" fill="black"/>
<path d="M29.9259 38.7639C29.4874 38.9755 29.4419 39.5887 29.8266 40.1314C30.2114 40.674 30.8775 40.9438 31.316 40.7292C31.7545 40.5177 31.8 39.9045 31.4153 39.3618C31.0305 38.8191 30.3644 38.5524 29.9259 38.7639Z" fill="white"/>
<path d="M29.6644 41.9402C29.4928 42.099 29.5476 42.4259 29.785 42.6703C30.0224 42.9146 30.3511 42.9879 30.5228 42.8291C30.6908 42.6703 30.6361 42.3434 30.3986 42.099C30.1612 41.8547 29.8325 41.7844 29.6644 41.9402Z" fill="white"/>
<path opacity="0.2" d="M42.2314 40.3196C42.2251 39.1239 42.0975 37.9182 41.839 36.7092C41.5966 35.5734 41.2489 34.491 40.8086 33.4651C37.1717 30.1878 31.9493 28.1328 26.1494 28.1328C15.7907 28.1328 7.28236 34.6841 6.33486 43.054C6.39866 43.6768 6.49756 44.303 6.63155 44.9291C6.63793 44.9624 6.6475 44.9924 6.65388 45.0257C7.9874 36.9956 16.3044 30.8073 26.3696 30.8073C32.1694 30.8073 37.3919 32.8623 41.0287 36.1396C41.469 37.1655 41.8167 38.2479 42.0592 39.3837C42.1262 39.6967 42.1804 40.0065 42.2314 40.3196V40.3196Z" fill="black"/>
<path opacity="0.2" d="M7.44914 51.3594C7.42781 51.3947 7.40648 51.43 7.39048 51.4653C7.72109 51.7883 8.07302 52.105 8.44629 52.4152C8.09435 52.0718 7.75842 51.7188 7.44914 51.3594V51.3594Z" fill="black"/>
<path opacity="0.2" d="M45.3287 48.1931C45.4475 47.534 45.4188 46.8749 45.2263 46.2311C44.8453 44.9527 43.8623 43.8399 42.4081 42.9141C42.4163 43.6498 42.359 44.3794 42.232 45.0999C43.7353 45.9582 44.8044 46.9975 45.3287 48.1931Z" fill="black"/>
<path fill-rule="evenodd" clip-rule="evenodd" d="M25.3274 10.1408C26.3284 12.0335 26.4986 14.1065 26.3494 15.4632L24.6475 15.2746C24.7668 14.1899 24.6243 12.4771 23.8151 10.9471C23.0274 9.45762 21.5917 8.10224 19.0059 7.65519L19.2964 5.96094C22.4326 6.50313 24.3049 8.20746 25.3274 10.1408Z" fill="black"/>
<path d="M22.1734 7.01787C22.1734 8.18408 21.228 9.12948 20.0618 9.12948C18.8956 9.12948 17.9502 8.18408 17.9502 7.01787C17.9502 5.85165 18.8956 4.90625 20.0618 4.90625C21.228 4.90625 22.1734 5.85165 22.1734 7.01787Z" fill="black"/>
<path fill-rule="evenodd" clip-rule="evenodd" d="M29.2814 6.96271C29.2821 6.96237 29.2806 6.96997 29.2747 6.98651C29.2777 6.97132 29.2806 6.96304 29.2814 6.96271ZM28.6744 7.84714C28.5703 7.86947 28.4593 7.89571 28.3412 7.92629C27.1412 8.23703 25.5313 8.91235 23.828 9.90295C22.1246 10.8935 20.7415 11.9589 19.878 12.8481C19.793 12.9356 19.7153 13.0192 19.6444 13.0986C19.7485 13.0763 19.8596 13.05 19.9776 13.0195C21.1776 12.7087 22.7875 12.0334 24.4908 11.0428C26.1942 10.0522 27.5773 8.9869 28.4408 8.09764C28.5258 8.01013 28.6035 7.92657 28.6744 7.84714ZM18.5756 13.1888C18.5762 13.1883 18.5849 13.1898 18.5996 13.1947C18.5822 13.1917 18.5749 13.1892 18.5756 13.1888ZM19.0375 13.983C19.0367 13.9834 19.0382 13.9758 19.0442 13.9592C19.0411 13.9744 19.0382 13.9827 19.0375 13.983ZM29.7193 7.75104C29.7366 7.75408 29.7439 7.75653 29.7433 7.75699C29.7426 7.75746 29.734 7.75594 29.7193 7.75104ZM25.2123 12.2835C28.779 10.2093 31.199 7.71714 30.6174 6.71715C30.0359 5.71717 26.6731 6.58801 23.1065 8.66224C19.5398 10.7365 17.1199 13.2286 17.7014 14.2286C18.2829 15.2286 21.6457 14.3577 25.2123 12.2835Z" fill="black"/>
<path d="M175.89 6.52937L82.4037 29.5701L83.6265 32.0953L154.046 21.7817L146.932 32.3537L146.825 34.8216L151.146 41.3127L141.531 50.9115L143.137 52.9587L158.517 41.6307L158.623 39.1628L156.478 32.7655L175.747 9.861L175.89 6.52937Z" fill="black"/>
<path d="M176 3.98249L82.5441 26.3026L83.7698 28.762L154.174 18.8038L147.072 29.0862L146.969 31.4883L151.296 37.8116L141.693 47.1438L143.302 49.1384L158.667 38.1296L158.771 35.7275L156.618 29.498L175.86 7.22528L176 3.98249Z" fill="#FF8B13"/>
<path d="M103.562 61.8714L103.692 62.8083L97.9625 63.6027L96.0903 60.5093L89.707 61.3944L88.747 64.8806L83.0173 65.6751L82.8874 64.7382L85.3928 64.3908L89.5984 49.2409L92.8881 48.7848L101.035 62.2219L103.562 61.8714ZM91.8825 53.5429L90.5785 58.2315L94.3911 57.7028L91.8825 53.5429Z" fill="black"/>
<path d="M116.092 60.1341L116.222 61.0709L101.233 63.1493L101.103 62.2124L103.216 61.9194L101.235 47.6274L106.616 46.8812C108.954 46.557 110.717 46.7789 111.904 47.5469C113.104 48.2984 113.834 49.6182 114.096 51.5064C114.356 53.38 113.994 54.8291 113.011 55.8537C112.043 56.8762 110.433 57.5435 108.182 57.8556L106.156 58.1366L106.615 61.4482L116.092 60.1341ZM108.036 54.8782C109.168 54.7211 109.907 54.3893 110.251 53.8826C110.593 53.3614 110.704 52.6651 110.583 51.7937C110.46 50.9077 110.105 50.3204 109.517 50.0318C108.942 49.7267 108.095 49.6516 106.977 49.8067L105.038 50.0756L105.748 55.1954L108.036 54.8782Z" fill="black"/>
<path d="M117.96 59.875L115.979 45.583L126.959 44.0605L127.379 47.0888L119.797 48.1401L120.232 51.2773L127.051 50.3318L127.453 53.2294L120.634 54.175L121.072 57.334L128.893 56.2495L129.18 58.3193L131.293 58.0262L131.423 58.9631L115.977 61.1049L115.847 60.168L117.96 59.875Z" fill="black"/>
<path d="M144.241 56.2309L144.371 57.1678L130.471 59.0951L130.341 58.1582L133.304 57.7474C132.449 57.4515 131.65 57.0293 130.908 56.4809L132.59 53.7162C134.43 54.9266 136.048 55.4351 137.442 55.2418C138.067 55.1552 138.535 54.957 138.847 54.6472C139.172 54.3209 139.303 53.9326 139.241 53.4823C139.177 53.0176 138.937 52.6806 138.524 52.4716C138.108 52.248 137.321 52.0757 136.165 51.9548C134.334 51.7793 132.959 51.4149 132.038 50.8616C131.13 50.2917 130.577 49.2878 130.377 47.8499C130.176 46.3975 130.537 45.2076 131.459 44.2803C132.396 43.351 133.642 42.7785 135.196 42.5631C136.212 42.4221 137.253 42.4554 138.318 42.663C139.383 42.8706 140.338 43.2416 141.181 43.776L139.805 46.4983C138.344 45.6794 136.909 45.3676 135.501 45.5629C134.934 45.6415 134.503 45.8419 134.207 46.1642C133.924 46.4699 133.813 46.8479 133.876 47.2982C133.936 47.7339 134.181 48.0553 134.609 48.2624C135.052 48.4674 136.018 48.6518 137.506 48.8155C139.007 48.9627 140.206 49.3368 141.103 49.9377C142.001 50.5386 142.537 51.4709 142.712 52.7345C142.93 54.3032 142.51 55.5975 141.452 56.6176L144.241 56.2309Z" fill="black"/>
<path d="M80.9928 48.3075L81.1342 49.2427L67.2594 51.3407L67.118 50.4055L70.0756 49.9583C69.2169 49.6729 68.413 49.2606 67.6641 48.7213L69.3118 45.9362C71.1671 47.1239 72.7907 47.6124 74.1825 47.402C74.8059 47.3077 75.2719 47.1038 75.5804 46.7902C75.9012 46.4599 76.0276 46.07 75.9596 45.6206C75.8895 45.1566 75.6462 44.8227 75.2298 44.6187C74.8112 44.4002 74.0229 44.2377 72.8649 44.131C71.0325 43.978 69.6527 43.6305 68.7255 43.0885C67.8105 42.5299 67.2445 41.5329 67.0275 40.0975C66.8083 38.6477 67.1542 37.4535 68.0652 36.5149C68.9906 35.5741 70.229 34.9864 71.7803 34.7519C72.7952 34.5984 73.8364 34.6189 74.9039 34.8134C75.9714 35.0079 76.9303 35.3671 77.7807 35.8911L76.4375 38.6301C74.9669 37.8292 73.5284 37.5351 72.1221 37.7477C71.5567 37.8333 71.1281 38.0389 70.8363 38.3648C70.5568 38.674 70.451 39.0534 70.519 39.5028C70.5847 39.9378 70.8331 40.2562 71.264 40.4579C71.7094 40.6575 72.6772 40.83 74.1673 40.9755C75.6697 41.1042 76.8733 41.4635 77.7782 42.0533C78.683 42.6432 79.2308 43.5688 79.4215 44.8302C79.6583 46.396 79.2541 47.6954 78.2091 48.7284L80.9928 48.3075Z" fill="black"/>
<path d="M95.1647 37.3332L92.3107 46.2624L90.2882 46.5682L84.9435 38.8788L86.3904 48.4478L80.8883 49.2798L80.7469 48.3447L82.8564 48.0257L80.6992 33.7591L85.2879 33.0653L90.4652 40.8245L93.1387 31.8781L97.7056 31.1875L99.8628 45.4541L101.972 45.1351L102.114 46.0703L96.6116 46.9023L95.1647 37.3332Z" fill="black"/>
<path d="M120.155 42.3856L120.297 43.3208L114.577 44.1856L112.667 41.1155L106.295 42.079L105.378 45.5767L99.6584 46.4415L99.517 45.5064L102.018 45.1282L106.037 29.9277L109.321 29.4312L117.633 42.7671L120.155 42.3856ZM108.374 34.2013L107.128 38.9055L110.933 38.33L108.374 34.2013Z" fill="black"/>
<path d="M119.81 42.4378L117.653 28.1713L123.416 27.2998C125.779 26.9425 127.521 27.0869 128.642 27.733C129.777 28.377 130.479 29.5834 130.746 31.3522C131.115 33.788 130.388 35.5068 128.567 36.5089L132.423 40.5305L134.467 40.2214L134.609 41.1566L129.063 41.9951L124.959 37.6551L122.61 38.0102L123.344 42.86L117.842 43.692L117.7 42.7568L119.81 42.4378ZM124.646 34.6994C125.806 34.524 126.567 34.2161 126.931 33.7755C127.294 33.335 127.414 32.7087 127.292 31.8968C127.167 31.0704 126.864 30.5379 126.383 30.2992C125.902 30.0605 125.118 30.0233 124.03 30.1877L121.486 30.5725L122.167 35.0743L124.646 34.6994Z" fill="black"/>
<path d="M146.963 38.332L147.104 39.2671L133.882 41.2665L133.74 40.3314L138.655 39.5882L136.942 28.2576L132.636 28.9087L132.192 25.9727L144.197 24.1575L144.64 27.0934L140.335 27.7446L142.048 39.0752L146.963 38.332Z" fill="black"/>
</svg>
