<svg width="70" height="70" viewBox="0 0 70 70" fill="none" xmlns="http://www.w3.org/2000/svg">
<rect width="70" height="70" transform="translate(0 -0.00390625)" fill="white"/>
<path opacity="0.25" d="M0.851923 29.331C-1.55753 39.6065 1.25308 49.1258 7.90209 55.5362C11.9207 59.4107 47.5235 64.5531 66.9815 58.5653C71.1413 57.2853 72.1836 35.591 62.3285 28.4857C56.1935 24.0625 53.5631 26.4923 46.2542 24.5408C34.5127 21.4059 30.0252 7.87904 18.2655 10.9451C8.6925 13.4411 3.10885 19.706 0.851923 29.331Z" fill="#7E54F1"/>
<path opacity="0.25" d="M10.1696 22.0015C7.60727 25.8411 8.43874 28.9957 7.22033 33.4482C5.32411 40.3777 -1.13871 44.5901 1.9537 51.0748C3.786 54.917 10.1696 56.2221 10.1696 56.2221C10.1696 56.2221 69.9986 69.5824 69.9986 52.1984C69.9986 45.1387 69.5772 44.1225 67.0493 39.5578C63.1601 32.5353 71.7541 20.3533 57.9205 12.8019C49.4883 8.19907 43.2654 15.1175 33.8344 16.9452C24.5949 18.7358 15.394 14.1729 10.1696 22.0015Z" fill="#7E54F1"/>
<rect x="4.33984" y="15.3096" width="53.3513" height="35.4629" rx="2.35373" fill="#3653B4"/>
<rect x="3.55469" y="14.9961" width="53.3513" height="35.4629" rx="2.35373" fill="#B0E3FF"/>
<path d="M24.7383 19.4688H35.8008" stroke="white" stroke-width="1.25532" stroke-linecap="round"/>
<path d="M18.7773 22.2139H41.8439" stroke="white" stroke-width="1.25532" stroke-linecap="round"/>
<path d="M9.20312 26.9219H51.4134" stroke="white" stroke-width="1.25532" stroke-linecap="round"/>
<path d="M9.20312 31.1572H51.4134" stroke="white" stroke-width="1.25532" stroke-linecap="round"/>
<path d="M9.20312 35.3945L31.0928 35.3945" stroke="white" stroke-width="1.25532" stroke-linecap="round"/>
<path d="M9.28125 42.9259C10.0658 42.9259 10.1149 44.5261 10.8504 44.4951C11.8117 44.4545 11.3793 42.5575 12.3411 42.5336C13.3217 42.5092 12.9515 44.2878 13.9103 44.4951C15.3063 44.7968 14.6262 41.2428 16.0286 41.5137C17.3247 41.764 16.7549 43.4427 17.2839 44.652C17.8331 45.9074 18.7657 46.6342 20.1084 46.6134C21.7115 46.5886 23.0064 45.3137 23.0114 43.7105C23.016 42.1914 21.9303 40.99 20.4223 40.8076C19.5365 40.7004 18.2254 41.4352 18.2254 41.4352" stroke="white" stroke-width="1.25532" stroke-linecap="round"/>
<path d="M42.4727 48.3799L48.7682 46.693L51.557 57.1008C51.6183 57.3297 51.4137 57.5413 51.183 57.4878L48.0564 56.7626C47.949 56.7377 47.8365 56.7709 47.7599 56.8501L45.7821 58.8946C45.6125 59.0699 45.3165 58.9932 45.2534 58.7576L42.4727 48.3799Z" fill="#EAA828"/>
<path d="M43.6852 48.055L42.4727 48.3799L45.2534 58.7576C45.3165 58.9933 45.6124 59.0699 45.782 58.8945L46.4145 58.2409L43.6852 48.055Z" fill="#D06C6C"/>
<path d="M47.4744 47.0397L50.2138 57.263L51.183 57.4878C51.3518 57.527 51.5066 57.4243 51.5535 57.2767C51.5708 57.2226 51.5735 57.1623 51.557 57.1009L48.7682 46.693L47.4744 47.0397Z" fill="#D06C6C"/>
<path d="M44.4727 48.3799L38.1771 46.693L35.3883 57.1008C35.327 57.3297 35.5316 57.5413 35.7623 57.4878L38.8889 56.7626C38.9963 56.7377 39.1088 56.7709 39.1854 56.8501L41.1633 58.8946C41.3328 59.0699 41.6288 58.9932 41.692 58.7576L44.4727 48.3799Z" fill="#EAA828"/>
<path d="M43.2601 48.055L44.4727 48.3799L41.692 58.7576C41.6288 58.9933 41.3329 59.0699 41.1633 58.8945L40.5308 58.2409L43.2601 48.055Z" fill="#D06C6C"/>
<path d="M39.4709 47.0397L36.7315 57.263L35.7623 57.4878C35.5935 57.527 35.4387 57.4243 35.3918 57.2767C35.3746 57.2226 35.3718 57.1623 35.3883 57.1009L38.1771 46.693L39.4709 47.0397Z" fill="#D06C6C"/>
<path d="M42.6095 36.7243C43.0437 36.2591 43.781 36.2591 44.2153 36.7243L45.3424 37.9315C45.6005 38.2081 45.9828 38.3323 46.3542 38.2603L47.9757 37.9461C48.6004 37.8251 49.1969 38.2585 49.2748 38.89L49.4771 40.5292C49.5234 40.9047 49.7597 41.2299 50.1024 41.3899L51.599 42.0888C52.1755 42.3581 52.4033 43.0593 52.0952 43.616L51.2953 45.0611C51.112 45.392 51.112 45.794 51.2953 46.125L52.0952 47.57C52.4033 48.1267 52.1755 48.828 51.599 49.0972L50.1024 49.7961C49.7597 49.9562 49.5234 50.2814 49.4771 50.6568L49.2748 52.2961C49.1969 52.9276 48.6004 53.361 47.9757 53.2399L46.3542 52.9257C45.9828 52.8538 45.6005 52.978 45.3424 53.2545L44.2152 54.4618C43.781 54.9269 43.0437 54.9269 42.6095 54.4618L41.4823 53.2545C41.2242 52.978 40.8419 52.8538 40.4705 52.9257L38.849 53.2399C38.2243 53.361 37.6278 52.9276 37.5499 52.2961L37.3476 50.6568C37.3013 50.2814 37.065 49.9562 36.7223 49.7961L35.2258 49.0972C34.6492 48.828 34.4214 48.1267 34.7295 47.57L35.5295 46.125C35.7127 45.794 35.7127 45.392 35.5295 45.0611L34.7296 43.616C34.4214 43.0593 34.6492 42.3581 35.2258 42.0888L36.7223 41.3899C37.065 41.2299 37.3013 40.9047 37.3476 40.5292L37.5499 38.89C37.6278 38.2585 38.2243 37.8251 38.849 37.9461L40.4705 38.2603C40.8419 38.3323 41.2242 38.2081 41.4823 37.9316L42.6095 36.7243Z" fill="#FFDB5A"/>
<circle cx="43.4133" cy="45.592" r="5.33513" fill="#D06C6C"/>
</svg>
