<svg width="108" height="108" viewBox="0 0 108 108" fill="none" xmlns="http://www.w3.org/2000/svg">
<path d="M44.6326 65.9039C44.6326 64.6803 43.6407 63.6885 42.4172 63.6885L25.3582 63.6885C24.1346 63.6885 23.1428 64.6803 23.1428 65.9039V103.711C23.1428 105.509 25.1721 106.558 26.6392 105.518L43.6982 93.4276C44.2843 93.0123 44.6326 92.3385 44.6326 91.6202V65.9039Z" fill="url(#paint0_linear_26744_20952)"/>
<path d="M64.4695 65.9039C64.4695 64.6803 65.4613 63.6885 66.6849 63.6885L83.7439 63.6885C84.9674 63.6885 85.9593 64.6803 85.9593 65.9039V103.711C85.9593 105.509 83.93 106.558 82.4629 105.518L65.4038 93.4276C64.8178 93.0123 64.4695 92.3385 64.4695 91.6202V65.9039Z" fill="url(#paint1_linear_26744_20952)"/>
<path d="M49.4929 2.02745C51.5905 0.776097 54.2054 0.776094 56.303 2.02745L71.853 11.3042L87.647 20.2164C89.7602 21.4088 91.0556 23.658 91.0266 26.0843L90.8081 44.3038L91.0266 62.5234C91.0556 64.9496 89.7602 67.1989 87.647 68.3913L71.853 77.3034L56.303 86.5802C54.2054 87.8315 51.5905 87.8315 49.4929 86.5802L33.9428 77.3034L18.1488 68.3913C16.0356 67.1988 14.7402 64.9496 14.7693 62.5233L14.9877 44.3038L14.7693 26.0843C14.7402 23.658 16.0356 21.4088 18.1488 20.2164L33.9428 11.3042L49.4929 2.02745Z" fill="url(#paint2_radial_26744_20952)"/>
<path d="M48.391 9.78136C50.4886 8.53 53.1035 8.53 55.2011 9.78136L67.434 17.0792L79.8644 24.0933C81.9776 25.2858 83.273 27.535 83.2439 29.9613L83.072 44.3039L83.2439 58.6465C83.273 61.0727 81.9776 63.322 79.8644 64.5144L67.434 71.5285L55.2011 78.8264C53.1035 80.0777 50.4886 80.0777 48.391 78.8264L36.1581 71.5285L23.7277 64.5144C21.6145 63.322 20.3191 61.0727 20.3482 58.6465L20.5201 44.3039L20.3482 29.9613C20.3191 27.535 21.6145 25.2858 23.7277 24.0933L36.1581 17.0792L48.391 9.78136Z" fill="#808080"/>
<path d="M49.493 10.8888C51.5905 9.63742 54.2055 9.63742 56.303 10.8888L68.0621 17.9039L80.0119 24.6469C82.1251 25.8393 83.4206 28.0886 83.3915 30.5148L83.2262 44.3036L83.3915 58.0924C83.4206 60.5186 82.1251 62.7679 80.0119 63.9603L68.0621 70.7033L56.303 77.7184C54.2055 78.9698 51.5905 78.9698 49.493 77.7184L37.7339 70.7033L25.7841 63.9603C23.6709 62.7679 22.3754 60.5186 22.4045 58.0924L22.5698 44.3036L22.4045 30.5148C22.3754 28.0886 23.6709 25.8393 25.784 24.6469L37.7339 17.9039L49.493 10.8888Z" fill="url(#paint3_linear_26744_20952)"/>
<path fill-rule="evenodd" clip-rule="evenodd" d="M41.1804 69.2215C40.9592 69.526 40.5313 69.4559 40.0167 69.0197C39.6385 68.6986 39.2692 68.3619 38.9086 68.0094L39.7081 67.1573C40.0433 67.4852 40.3869 67.7989 40.7388 68.0982C41.2221 68.5087 41.4029 68.9141 41.1804 69.2215ZM42.2828 67.4274C42.0677 67.7175 41.6929 67.673 41.2383 67.2827C40.9367 67.0225 40.6416 66.7512 40.353 66.4688L41.1113 65.6603C41.3833 65.9264 41.6614 66.1821 41.9458 66.4274C42.3709 66.7932 42.5001 67.134 42.2828 67.4278V67.4274ZM42.6966 70.4831C43.0042 69.9582 42.7931 69.1984 42.1616 68.5772C42.842 68.8883 43.5128 68.8126 43.8438 68.262C44.2741 67.5306 43.8737 66.682 42.8434 65.8321C42.0629 65.1828 41.3411 64.4655 40.6864 63.6885L36.7164 67.1739C37.6024 68.2255 38.5822 69.1935 39.6435 70.0658C41.0749 71.2262 42.2631 71.2348 42.6966 70.4836V70.4831ZM48.818 74.5238C49.5083 74.676 50.2037 74.7945 50.9043 74.8793C50.1466 73.0405 49.6077 71.1182 49.299 69.1523C48.7241 69.0019 48.1575 68.8209 47.6017 68.6101C46.2354 70.0428 44.6968 71.2988 43.0214 72.349C43.6488 72.6929 44.2886 73.0036 44.9408 73.281C45.2132 73.0564 45.4798 72.8272 45.7405 72.5934C46.6567 72.9597 47.5974 73.2609 48.5556 73.4949C48.6361 73.8385 48.7236 74.1816 48.818 74.5243V74.5238ZM48.3298 72.4016C47.7319 72.2409 47.1406 72.0518 46.556 71.8345C47.066 71.3303 47.5509 70.81 48.0108 70.2734C48.0873 70.9811 48.1937 71.6907 48.3298 72.4021V72.4016ZM57.9654 72.9699C57.5739 71.325 54.1906 72.1628 54.1565 71.1428C54.1475 70.8079 54.4335 70.6409 54.8179 70.6211C55.2488 70.5978 55.5703 70.7655 55.6389 71.1027C56.2338 71.0346 56.8252 70.9373 57.4132 70.8107C57.1204 69.8263 56.1121 69.481 54.7725 69.5798C53.4866 69.6746 52.4864 70.1493 52.4055 71.1621C52.2418 73.1489 55.9484 72.5181 56.0588 73.3963C56.0975 73.7046 55.7653 73.9418 55.2071 73.986C54.6712 74.028 54.2838 73.8399 54.2189 73.4315C53.5612 73.4528 52.9037 73.4424 52.2464 73.4003C52.2107 74.476 53.5645 75.1655 55.3448 75.0203C57.2795 74.8507 58.1705 73.8301 57.9642 72.9699H57.9654ZM60.0565 74.0585C60.6974 73.8603 61.3305 73.6319 61.9557 73.3732L59.9759 68.4265C59.4988 68.6237 59.015 68.7983 58.5245 68.95L60.0565 74.0585ZM62.344 70.256C62.9952 71.6926 65.0877 71.9788 67.1392 70.3804C68.7737 69.0945 69.3534 67.3654 68.8029 66.2591C68.3229 66.8089 67.8145 67.3329 67.2797 67.8288C67.3376 68.3927 67.0138 68.9903 66.4153 69.4598C65.4389 70.2229 64.4217 70.1446 63.9446 69.3405C63.4636 68.5297 63.7613 67.6615 64.5784 67.0208C65.0884 66.6203 65.6306 66.4364 66.157 66.5655C66.648 66.1101 67.1148 65.629 67.5555 65.1242C66.4095 64.6943 65.0995 65.114 63.8837 66.0676C62.3969 67.2391 61.6778 68.7955 62.344 70.256Z" fill="#959595"/>
<g opacity="0.8">
<path fill-rule="evenodd" clip-rule="evenodd" d="M35.3645 54.9001C35.4724 54.9001 35.5758 54.8583 35.6562 54.7771C35.7825 54.6467 35.8215 54.45 35.7549 54.2778C34.6021 51.3039 34.4873 48.084 35.415 44.7067C35.4633 44.5296 35.4059 44.3402 35.2727 44.2246C35.1372 44.1115 34.9512 44.0967 34.8019 44.1852C32.9694 45.2995 31.8832 47.3928 31.9636 49.6484C32.044 51.9041 33.2794 53.899 35.1854 54.8583C35.2428 54.8878 35.3048 54.9001 35.3645 54.9001ZM34.3105 45.6857C33.7616 48.3595 33.8443 50.9349 34.5539 53.375C33.5067 52.4624 32.8592 51.1046 32.8064 49.614C32.7512 48.1062 33.3116 46.6844 34.3105 45.6857Z" fill="#808080"/>
<path fill-rule="evenodd" clip-rule="evenodd" d="M53.2199 64.9029C56.6862 64.9029 59.976 64.0189 62.7736 62.3357C68.002 59.1873 71.0016 53.5299 71.0016 46.8141C71.0016 41.796 69.0978 37.0638 65.6409 33.4867C62.2025 29.929 57.6775 27.9697 52.8995 27.9697C43.051 27.9697 35.2548 35.429 34.7371 45.3319L34.6025 45.7025C34.5994 45.7089 34.597 45.7154 34.5955 45.7219C34.556 45.8454 34.5235 45.9471 34.4933 46.0391C34.2542 46.7729 34.2542 46.8383 34.2588 48.5118C34.2588 48.7855 34.2588 49.1052 34.2588 49.4806C34.2588 52.6338 36.5039 58.3954 40.7177 61.0231L41.1751 61.3718C41.1875 61.3815 41.2006 61.3904 41.2146 61.3985C44.8085 63.566 48.7437 64.7745 52.5884 64.8932C52.7989 64.898 53.0094 64.9013 53.2199 64.9029ZM52.8995 28.8585C62.4114 28.8585 70.1495 36.9136 70.1495 46.8141C70.1495 53.2054 67.3055 58.5819 62.3487 61.5656C56.4424 65.1208 48.5162 64.7673 41.6603 60.6404L41.203 60.2941C41.1937 60.286 41.1828 60.2788 41.1705 60.2723C37.2701 57.848 35.1109 52.3529 35.1109 49.4806C35.1109 49.1052 35.1109 48.7831 35.1109 48.5094C35.1063 46.9182 35.1063 46.9182 35.299 46.3249C35.3291 46.2329 35.364 46.1311 35.4011 46.0101L35.5567 45.5814C35.5729 45.5378 35.5822 45.4918 35.5845 45.4458C36.0442 35.9909 43.4898 28.8585 52.8995 28.8585Z" fill="#808080"/>
<path fill-rule="evenodd" clip-rule="evenodd" d="M51.0988 63.3639C60.3861 63.3639 67.9397 57.1493 67.9397 49.514C67.9397 41.8764 60.3861 35.6641 51.0988 35.6641C41.8138 35.6641 34.2579 41.8764 34.2579 49.514C34.2579 57.1493 41.8138 63.3639 51.0988 63.3639ZM51.0988 36.3697C59.9944 36.3697 67.2305 42.2651 67.2305 49.514C67.2305 56.7606 59.9944 62.6559 51.0988 62.6559C42.2032 62.6559 34.9671 56.7606 34.9671 49.514C34.9671 42.2651 42.2032 36.3697 51.0988 36.3697Z" fill="#808080"/>
<path fill-rule="evenodd" clip-rule="evenodd" d="M51.0983 61.8243C59.541 61.8243 66.4082 56.4752 66.4082 49.8992C66.4082 43.3231 59.541 37.9717 51.0983 37.9717C42.6555 37.9717 35.7884 43.3231 35.7884 49.8992C35.7884 56.4752 42.6555 61.8243 51.0983 61.8243ZM51.0983 38.8245C59.0572 38.8245 65.5334 43.7925 65.5334 49.8992C65.5334 56.0035 59.0572 60.9715 51.0983 60.9715C43.1394 60.9715 36.6632 56.0035 36.6632 49.8992C36.6632 43.7925 43.1394 38.8245 51.0983 38.8245Z" fill="#808080"/>
<path fill-rule="evenodd" clip-rule="evenodd" d="M50.767 61.8243C51.8003 61.8243 52.8336 61.7425 53.8386 61.5765C53.8512 61.575 53.8638 61.5719 53.8763 61.5672C60.98 59.6268 65.6616 55.1639 64.7672 51.185C64.5247 50.1119 63.901 49.1628 62.9124 48.3679C63.0701 46.998 62.9971 45.621 62.6935 44.2721C62.5123 43.4655 62.2486 42.6777 61.9121 41.9273C61.8885 41.8782 61.8579 41.8361 61.8179 41.8033C58.9793 39.3674 54.952 37.9717 50.767 37.9717C47.0104 37.9717 43.4162 39.0728 40.6411 41.074C37.866 43.0775 36.1407 45.808 35.79 48.7607C35.7868 48.7887 35.7868 48.816 35.79 48.8425C35.8394 49.296 35.9147 49.7519 36.0159 50.1961C36.3196 51.545 36.8421 52.8214 37.5741 53.995C37.4305 54.2872 37.2499 54.4502 37.1604 54.7424C37.1298 54.8406 37.3532 55.1333 37.4073 55.2222C38.7076 57.1413 40.4194 58.6633 42.7265 59.9821C45.1297 61.1885 47.9095 61.8243 50.767 61.8243ZM53.7021 60.8752C52.7418 61.0318 51.7532 61.1113 50.767 61.1113C45.3039 61.1113 40.4151 58.7454 37.9625 54.9301C38.0519 54.666 38.1673 54.4018 38.3061 54.1376C38.365 54.0254 38.3579 53.8875 38.2873 53.7799C37.5459 52.6321 37.0186 51.3743 36.7174 50.0394C36.6256 49.635 36.5573 49.2189 36.5079 48.8051C37.2234 43.033 43.3432 38.687 50.767 38.687C54.7519 38.687 58.5791 39.9986 61.286 42.292C61.5896 42.9769 61.8273 43.6946 61.9921 44.4287C62.291 45.7613 62.3546 47.1242 62.1733 48.4778C62.1569 48.604 62.211 48.7303 62.3122 48.8074C63.2584 49.5251 63.8469 50.3761 64.0634 51.3416C64.859 54.8787 60.3091 59.0634 53.7021 60.8752Z" fill="#808080"/>
<path fill-rule="evenodd" clip-rule="evenodd" d="M50.8213 61.8225C51.8512 61.8225 52.8835 61.7367 53.8851 61.57C53.8945 61.5684 53.9048 61.566 53.9158 61.5629C60.9908 59.5955 65.6548 55.0844 64.7687 51.0711C64.5165 49.935 63.8472 48.9371 62.7749 48.1106C62.7592 48.0979 62.7419 48.0876 62.723 48.0796C61.6625 47.5795 60.5194 47.4985 59.3175 47.8319C59.8807 46.5672 60.0245 45.1548 59.7228 43.7853C58.9545 40.3127 55.5349 38.119 52.0987 38.8955C50.5173 39.2528 49.1574 40.1793 48.243 41.5202C46.8219 40.639 45.158 40.3603 43.5224 40.7295C41.1868 41.2558 39.2731 43.3637 38.7617 45.9694C38.321 48.2178 39.0162 50.3495 40.6353 51.8143C39.4569 51.9905 38.4035 52.6884 37.7766 53.7459C37.7734 53.7506 37.7703 53.7562 37.7671 53.7625C37.5857 54.1174 37.4372 54.4771 37.3311 54.8343C37.3076 54.9129 37.317 55.0011 37.3618 55.0725C38.5826 57.0708 40.4633 58.7595 42.8036 59.9528C45.198 61.1746 47.972 61.8225 50.8213 61.8225ZM53.7767 60.996C52.8104 61.158 51.8159 61.2389 50.8213 61.2389C45.3135 61.2389 40.3832 58.8048 37.9227 54.8796C38.0146 54.6009 38.1324 54.3175 38.2762 54.0388C38.9314 52.9385 40.1286 52.2954 41.3966 52.3597C41.5238 52.3644 41.6417 52.2858 41.6841 52.162C41.7265 52.0405 41.6817 51.9048 41.578 51.8285C39.7209 50.5114 38.8795 48.3631 39.3273 46.0837C39.7963 43.6995 41.5309 41.7751 43.6473 41.2963C45.2216 40.9414 46.8266 41.2487 48.1652 42.1609C48.2289 42.2062 48.309 42.2205 48.3868 42.2038C48.4622 42.1895 48.5305 42.1419 48.5706 42.0752C49.4025 40.7366 50.6988 39.8077 52.2236 39.4624C55.3487 38.7574 58.462 40.7533 59.1596 43.9115C59.4848 45.3787 59.2444 46.8983 58.4855 48.1892C58.4313 48.2797 58.4313 48.3916 58.4808 48.4821C58.5515 48.606 58.7094 48.6608 58.8391 48.6084C60.1494 48.082 61.3302 48.0772 62.4496 48.5941C63.3947 49.3301 63.9863 50.2066 64.2054 51.1974C65.0114 54.8415 60.4299 59.143 53.7767 60.996Z" fill="#808080"/>
<path fill-rule="evenodd" clip-rule="evenodd" d="M49.3046 61.0554C50.3762 61.0554 51.4853 60.9279 52.6107 60.6706C57.4494 59.5573 61.0363 56.3256 61.7453 52.4351C61.9863 51.1102 61.5371 50.6124 61.2446 50.4321C60.7673 50.1387 60.0723 50.2854 59.4312 50.8144C54.8827 54.5655 48.0201 56.1429 42.3508 54.7386C41.5529 54.5391 40.8627 54.7122 40.5538 55.1883C40.3643 55.4768 40.1631 56.1261 40.9282 57.2201C42.6596 59.6824 45.7645 61.0554 49.3046 61.0554ZM60.6854 50.8697C60.786 50.8697 60.8772 50.8914 60.9521 50.937C61.2282 51.1078 61.3124 51.6151 61.1837 52.3269C60.5169 55.9866 57.1031 59.0356 52.4844 60.096C47.868 61.1588 43.5136 59.894 41.3938 56.8739C40.982 56.2872 40.8486 55.7918 41.0288 55.5153C41.1996 55.2532 41.6652 55.1739 42.2174 55.3085C48.0482 56.7536 55.1096 55.1306 59.7892 51.2713C60.1051 51.0116 60.4303 50.8697 60.6854 50.8697Z" fill="#808080"/>
<path d="M50.7111 52.5906C50.8529 52.5906 50.9897 52.5132 51.0544 52.3826C51.2608 51.9642 51.7185 51.732 52.1886 51.8045C52.3951 51.836 52.5891 51.6981 52.6239 51.4973C52.6563 51.2966 52.5145 51.1055 52.308 51.0741C51.5021 50.9507 50.7235 51.3474 50.3703 52.0609C50.2783 52.2448 50.3579 52.4649 50.5469 52.5544C50.5992 52.5785 50.6564 52.5906 50.7111 52.5906Z" fill="#808080"/>
<path d="M50.7463 52.5937C50.8495 52.5937 50.9505 52.5601 51.0193 52.4929C51.1409 52.3779 51.1179 52.2082 50.9688 52.1127C50.3931 51.7538 49.565 51.7273 48.9549 52.0473C48.7943 52.1322 48.753 52.3001 48.8608 52.4239C48.9709 52.5459 49.1888 52.5795 49.3494 52.4946C49.7072 52.3072 50.1912 52.3231 50.5261 52.5335C50.5903 52.5742 50.6683 52.5937 50.7463 52.5937Z" fill="#808080"/>
<path d="M50.8795 54.902C50.8956 54.902 50.9112 54.8988 50.9263 54.8925C51.0441 54.8497 51.1179 54.655 51.0924 54.4602C50.9476 53.37 50.8852 52.9306 50.7589 52.0992C50.7291 51.9045 50.6113 51.7857 50.4949 51.8356C50.3785 51.8855 50.309 52.085 50.3388 52.2774C50.4637 53.0992 50.5247 53.5362 50.668 54.617C50.6907 54.7856 50.7801 54.902 50.8795 54.902Z" fill="#808080"/>
<path d="M61.1214 51.9725C60.5606 52.6902 59.8371 53.3136 59.0559 53.8661C58.2698 54.4186 57.4235 54.9026 56.5523 55.3465C56.4622 55.3914 56.4296 55.4976 56.4772 55.5803C56.5247 55.6606 56.6274 55.6936 56.715 55.6558C57.6288 55.2615 58.5251 54.8247 59.3789 54.3053C60.2301 53.7835 61.0438 53.1766 61.7223 52.4187C61.86 52.2652 61.84 52.0386 61.6797 51.9087C61.517 51.7812 61.2766 51.8001 61.1389 51.9512C61.1339 51.9575 61.1289 51.9638 61.1239 51.9701L61.1214 51.9725Z" fill="#808080"/>
<path d="M40.5978 57.1195C41.5212 57.519 42.492 57.728 43.4557 57.8465C44.4217 57.9649 45.3902 57.9905 46.3515 57.9719C46.4393 57.9696 46.5082 57.8999 46.5058 57.8139C46.5034 57.7327 46.4393 57.6676 46.3563 57.663C45.4068 57.6142 44.4597 57.5213 43.5387 57.3425C42.6202 57.1636 41.7182 56.8965 40.9182 56.4808H40.9159C40.7379 56.3879 40.5195 56.4529 40.4245 56.6271C40.3296 56.799 40.3984 57.015 40.5741 57.1079C40.5836 57.1102 40.5907 57.1149 40.5978 57.1195Z" fill="#808080"/>
<path fill-rule="evenodd" clip-rule="evenodd" d="M50.767 61.8243C51.8003 61.8243 52.8336 61.7425 53.8386 61.5765C53.8512 61.575 53.8638 61.5719 53.8763 61.5672C60.98 59.6268 65.6616 55.1639 64.7672 51.185C64.5247 50.1119 63.901 49.1628 62.9124 48.3679C63.0701 46.998 62.9971 45.621 62.6935 44.2721C62.5123 43.4655 62.2486 42.6777 61.9121 41.9273C61.8885 41.8782 61.8579 41.8361 61.8179 41.8033C58.9793 39.3674 54.952 37.9717 50.767 37.9717C47.0104 37.9717 43.4162 39.0728 40.6411 41.074C37.866 43.0775 36.1407 45.808 35.79 48.7607C35.7868 48.7887 35.7868 48.816 35.79 48.8425C35.8394 49.296 35.9147 49.7519 36.0159 50.1961C36.3196 51.545 36.8421 52.8214 37.5741 53.995C37.4305 54.2872 37.3152 54.5818 37.2258 54.874C37.1952 54.9722 37.3203 55.0837 37.3744 55.1726C38.757 57.1082 40.3865 58.5806 42.7265 59.9821C45.1297 61.1885 47.9095 61.8243 50.767 61.8243ZM53.7021 60.8752C52.7418 61.0318 51.7532 61.1113 50.767 61.1113C45.3039 61.1113 40.4151 58.7454 37.9625 54.9301C38.0519 54.666 38.1673 54.4018 38.3061 54.1376C38.365 54.0254 38.3579 53.8875 38.2873 53.7799C37.5459 52.6321 37.0186 51.3743 36.7174 50.0394C36.6256 49.635 36.5573 49.2189 36.5079 48.8051C37.2234 43.033 43.3432 38.687 50.767 38.687C54.7519 38.687 58.5791 39.9986 61.286 42.292C61.5896 42.9769 61.8273 43.6946 61.9921 44.4287C62.291 45.7613 62.3546 47.1242 62.1733 48.4778C62.1569 48.604 62.211 48.7303 62.3122 48.8074C63.2584 49.5251 63.8469 50.3761 64.0634 51.3416C64.859 54.8787 60.3091 59.0634 53.7021 60.8752Z" fill="#808080"/>
<path fill-rule="evenodd" clip-rule="evenodd" d="M70.3732 49.5136C70.5308 49.5136 70.6891 49.5013 70.8482 49.4769C71.8679 49.3254 72.7601 48.6973 73.358 47.7099C73.942 46.7446 74.1738 45.5446 74.0115 44.3348C73.6755 41.8078 71.7034 40.0066 69.6223 40.3146C67.5389 40.6249 66.1184 42.932 66.4567 45.4591C66.6189 46.6688 67.1566 47.7539 67.97 48.5115C68.6745 49.1665 69.5134 49.5136 70.3732 49.5136ZM70.0904 41.1773C71.5759 41.1773 72.9177 42.5703 73.1703 44.4595C73.3047 45.4591 73.117 46.4415 72.6419 47.2285C72.1784 47.991 71.4994 48.4749 70.7277 48.5898C69.9583 48.7046 69.1774 48.4382 68.5331 47.8395C67.8703 47.2211 67.4323 46.3315 67.2979 45.332C67.0268 43.2962 68.1229 41.4437 69.7405 41.2017C69.8579 41.1854 69.9746 41.1773 70.0904 41.1773Z" fill="#808080"/>
<path fill-rule="evenodd" clip-rule="evenodd" d="M71.2513 48.7441C71.3605 48.7441 71.469 48.7362 71.5767 48.7203C71.856 48.6798 72.126 48.587 72.3776 48.4418C72.3899 48.4354 72.4022 48.4275 72.4145 48.4179C73.6193 47.5132 74.247 45.8252 74.0139 44.1182C73.7462 42.1683 72.4122 40.5922 70.7643 40.285C70.7412 40.2819 70.7174 40.2803 70.6928 40.2803C70.6004 40.2827 70.5104 40.2898 70.425 40.3017C68.7679 40.5445 67.6762 42.6278 67.9924 44.9491C68.1424 46.0514 68.5856 47.049 69.2364 47.7561C69.8296 48.4013 70.5358 48.7441 71.2513 48.7441ZM72.0175 47.8156C71.8467 47.9108 71.6644 47.9727 71.4798 47.9989C70.8843 48.0846 70.2704 47.8204 69.7488 47.2561C69.1972 46.6561 68.821 45.8014 68.6917 44.8467C68.4286 42.923 69.2503 41.2088 70.5243 41.0231C70.5735 41.0167 70.6235 41.012 70.6743 41.0088C72.0106 41.2778 73.0931 42.5921 73.3146 44.2205C73.5108 45.6562 73.003 47.0633 72.0175 47.8156Z" fill="#808080"/>
<path fill-rule="evenodd" clip-rule="evenodd" d="M56.653 34.1234C57.1168 34.1234 57.6977 33.8568 58.3862 33.3235C59.4667 32.4921 60.7409 32.1102 61.8454 31.8481C61.9314 31.8255 62.0103 31.7803 62.0701 31.7171C62.6725 31.0596 62.7466 30.2168 62.2589 29.5728C61.733 28.8747 60.5281 28.4273 59.0245 28.9967C58.0921 29.2949 56.4522 30.0903 55.8546 32.0786C55.5653 33.0456 55.6561 33.6851 56.1295 33.981C56.2841 34.0759 56.4586 34.1234 56.653 34.1234ZM61.4868 31.0776C60.3823 31.3488 59.0006 31.7803 57.8316 32.6819C57.0498 33.2851 56.6697 33.3122 56.61 33.2874C56.6124 33.2874 56.4618 33.0908 56.6984 32.3045C57.1885 30.6732 58.5487 30.0225 59.3161 29.7784C59.3241 29.7754 59.3321 29.7724 59.34 29.7694C60.4086 29.3627 61.2166 29.6203 61.5465 30.0541C61.7784 30.3636 61.7569 30.7297 61.4868 31.0776Z" fill="#808080"/>
<path fill-rule="evenodd" clip-rule="evenodd" d="M38.6078 37.2004C39.1242 37.2004 39.6725 36.9059 39.8044 36.3398C40.1502 34.8556 41.1875 33.3184 42.5093 32.3336C42.623 32.2484 42.6867 32.1104 42.6776 31.9654C42.6685 31.8227 42.5889 31.6938 42.4638 31.6248C41.3104 30.9782 40.2981 30.8723 39.4563 31.3073C38.3348 31.8894 37.6182 33.4266 37.327 35.8796C37.2565 36.4848 37.7138 37.0555 38.3689 37.1774C38.4463 37.1935 38.5282 37.2004 38.6078 37.2004ZM41.4833 32.0873C40.2662 33.1781 39.3335 34.6807 38.9923 36.1465C38.9559 36.303 38.7102 36.3835 38.5214 36.349C38.3325 36.3122 38.1369 36.1488 38.1574 35.9808C38.4076 33.8546 38.99 32.4969 39.8362 32.0597C40.2867 31.825 40.8395 31.8365 41.4833 32.0873Z" fill="#808080"/>
<path opacity="0.3" d="M41.4712 31.8164C39.4946 33.3502 38.6357 34.8891 38.8945 36.433C39.7254 34.9415 40.7289 33.5736 41.9049 32.3294C41.9457 32.3279 41.8012 32.1569 41.4712 31.8164Z" fill="#808080"/>
<path fill-rule="evenodd" clip-rule="evenodd" d="M50.9355 61.7374C59.1663 61.7374 65.8627 56.3869 65.8627 49.8111C65.8627 43.2353 59.1663 37.8848 50.9355 37.8848C42.7047 37.8848 36.0083 43.2353 36.0083 49.8111C36.0083 56.3869 42.7047 61.7374 50.9355 61.7374ZM50.9355 38.4586C58.8496 38.4586 65.2878 43.5528 65.2878 49.8111C65.2878 56.0694 58.8496 61.1612 50.9355 61.1612C43.0214 61.1612 36.5832 56.0694 36.5832 49.8111C36.5832 43.5528 43.0214 38.4586 50.9355 38.4586Z" fill="#808080"/>
<path fill-rule="evenodd" clip-rule="evenodd" d="M45.5446 51.7198C44.6273 52.1236 43.4586 51.2905 42.9325 49.8594C42.4065 48.4284 42.7226 46.9411 43.64 46.5374C44.5573 46.1336 45.726 46.9667 46.252 48.3977C46.7781 49.8288 46.4593 51.316 45.5446 51.7198ZM44.1808 48.742C43.7585 48.7092 43.4271 48.3404 43.4434 47.9183C43.4563 47.4941 43.8104 47.1765 44.2328 47.2073C44.6551 47.238 44.9864 47.6089 44.9734 48.031C44.9572 48.4552 44.6031 48.7728 44.1808 48.742Z" fill="#808080"/>
<path fill-rule="evenodd" clip-rule="evenodd" d="M53.8964 44.8964C53.062 44.9298 52.5057 45.9922 52.6525 47.2662C52.7972 48.5424 53.5916 49.5469 54.4238 49.5112C55.256 49.4778 55.8145 48.4154 55.6676 47.1415C55.5208 45.8653 54.7286 44.8608 53.8964 44.8964ZM53.6571 45.7199C53.3392 45.8741 53.3062 46.321 53.5851 46.7164C53.8641 47.1119 54.347 47.3086 54.665 47.1522C54.983 46.998 55.016 46.5511 54.737 46.1556C54.458 45.7601 53.9751 45.5657 53.6571 45.7199ZM53.5547 48.5665C53.3825 48.3884 53.3428 48.1502 53.4673 48.0344C53.5891 47.9209 53.8274 47.9721 53.9996 48.1502C54.1717 48.3283 54.2115 48.5665 54.0896 48.6822C53.9652 48.798 53.7268 48.7446 53.5547 48.5665Z" fill="#808080"/>
<path fill-rule="evenodd" clip-rule="evenodd" d="M50.3228 24.8596C51.0486 26.239 51.172 27.7497 51.0638 28.7384L49.8299 28.601C49.9163 27.8105 49.8131 26.5623 49.2263 25.4472C48.6552 24.3618 47.6143 23.374 45.7394 23.0482L45.95 21.8135C48.2239 22.2086 49.5814 23.4507 50.3228 24.8596Z" fill="#808080"/>
<path d="M48.0359 22.5828C48.0359 23.4327 47.3505 24.1217 46.5049 24.1217C45.6593 24.1217 44.9739 23.4327 44.9739 22.5828C44.9739 21.7329 45.6593 21.0439 46.5049 21.0439C47.3505 21.0439 48.0359 21.7329 48.0359 22.5828Z" fill="#808080"/>
<path fill-rule="evenodd" clip-rule="evenodd" d="M53.1897 22.5439C53.1902 22.5437 53.1891 22.5492 53.1848 22.5613C53.187 22.5502 53.1891 22.5441 53.1897 22.5439ZM52.7496 23.1884C52.6741 23.2047 52.5936 23.2238 52.508 23.2461C51.638 23.4726 50.4707 23.9647 49.2357 24.6867C48.0007 25.4086 46.9978 26.1849 46.3717 26.833C46.3101 26.8968 46.2538 26.9577 46.2024 27.0156C46.2779 26.9993 46.3584 26.9802 46.444 26.9579C47.314 26.7314 48.4813 26.2393 49.7163 25.5174C50.9513 24.7954 51.9542 24.0191 52.5802 23.371C52.6418 23.3072 52.6982 23.2463 52.7496 23.1884ZM45.4274 27.0813C45.4279 27.0809 45.4342 27.082 45.4448 27.0856C45.4323 27.0834 45.4269 27.0816 45.4274 27.0813ZM45.7623 27.6601C45.7618 27.6604 45.7629 27.6548 45.7672 27.6428C45.765 27.6538 45.7628 27.6599 45.7623 27.6601ZM53.5072 23.1184C53.5197 23.1206 53.525 23.1224 53.5246 23.1228C53.5241 23.1231 53.5178 23.122 53.5072 23.1184ZM50.2394 26.4215C52.8254 24.9099 54.58 23.0937 54.1584 22.3649C53.7368 21.6362 51.2986 22.2708 48.7126 23.7825C46.1265 25.2941 44.372 27.1103 44.7936 27.8391C45.2152 28.5678 47.6534 27.9332 50.2394 26.4215Z" fill="#808080"/>
</g>
<path fill-rule="evenodd" clip-rule="evenodd" d="M99.1624 69.13L106.439 69.244C107.202 69.256 107.725 70.0175 107.461 70.7337L103.293 82.0768C103.2 82.3285 103.202 82.6051 103.298 82.8554L107.423 93.6171C107.701 94.3425 107.166 95.1213 106.389 95.1213H83.9597C83.3479 95.1213 82.852 94.6254 82.852 94.0136L82.852 90.221C82.852 89.6401 83.3007 89.1579 83.8801 89.1162L99.0276 88.0248L99.1624 69.13ZM8.97239 69.13L1.56068 69.2444C0.797854 69.2561 0.275012 70.0175 0.537951 70.7337L4.70264 82.0772C4.79495 82.3286 4.79304 82.605 4.69725 82.8551L0.575877 93.6175C0.298127 94.3428 0.833648 95.1213 1.61032 95.1213H24.0435C24.6553 95.1213 25.1512 94.6254 25.1512 94.0136L25.1512 90.221C25.1512 89.6401 24.7025 89.1579 24.1231 89.1162L8.97238 88.0248L8.97239 69.13Z" fill="#C9C9C9"/>
<path d="M99.1624 69.13L99.0603 64.2185C99.0478 63.6158 98.5556 63.1338 97.9529 63.1338H10.0801C9.46832 63.1338 8.97238 63.6297 8.97238 64.2415L8.97239 69.13L8.97238 88.0248H99.0276L99.1624 69.13Z" fill="#DDDDDD"/>
<path d="M32.2132 75.2909C33.0626 75.4719 33.745 75.8966 34.2602 76.5651C34.7754 77.2195 35.0331 77.9715 35.0331 78.821C35.0331 80.0464 34.6014 81.0211 33.738 81.7453C32.8886 82.4555 31.698 82.8105 30.1662 82.8105H23.3358V68.1472H29.9364C31.4264 68.1472 32.5892 68.4884 33.4247 69.1707C34.2741 69.8531 34.6988 70.7791 34.6988 71.9488C34.6988 72.8122 34.4691 73.5293 34.0095 74.1003C33.5639 74.6712 32.9652 75.0681 32.2132 75.2909ZM26.9077 74.0794H29.2471C29.832 74.0794 30.2776 73.9541 30.5839 73.7034C30.9042 73.4388 31.0644 73.0559 31.0644 72.5546C31.0644 72.0533 30.9042 71.6703 30.5839 71.4057C30.2776 71.1412 29.832 71.0089 29.2471 71.0089H26.9077V74.0794ZM29.5395 79.928C30.1383 79.928 30.5979 79.7957 30.9181 79.5311C31.2523 79.2526 31.4194 78.8558 31.4194 78.3405C31.4194 77.8253 31.2454 77.4215 30.8972 77.129C30.563 76.8366 30.0965 76.6904 29.4978 76.6904H26.9077V79.928H29.5395ZM46.2327 80.2204H40.7601L39.8828 82.8105H36.1439L41.4494 68.1472H45.5852L50.8907 82.8105H47.11L46.2327 80.2204ZM45.3137 77.4632L43.4964 72.095L41.7001 77.4632H45.3137ZM57.811 82.9568C56.7388 82.9568 55.7779 82.7827 54.9285 82.4346C54.079 82.0864 53.3967 81.5712 52.8815 80.8889C52.3801 80.2065 52.1156 79.3849 52.0877 78.4241H55.8893C55.945 78.9672 56.133 79.3849 56.4533 79.6774C56.7736 79.9559 57.1913 80.0951 57.7066 80.0951C58.2357 80.0951 58.6535 79.9768 58.9598 79.74C59.2662 79.4894 59.4194 79.1482 59.4194 78.7165C59.4194 78.3545 59.294 78.0551 59.0434 77.8183C58.8067 77.5816 58.5073 77.3867 58.1452 77.2335C57.7971 77.0803 57.2958 76.9062 56.6413 76.7113C55.6944 76.4188 54.9215 76.1264 54.3227 75.834C53.7239 75.5416 53.2087 75.1099 52.777 74.5389C52.3453 73.968 52.1295 73.223 52.1295 72.3039C52.1295 70.9392 52.6238 69.874 53.6125 69.1081C54.6012 68.3283 55.8893 67.9384 57.4768 67.9384C59.0921 67.9384 60.3941 68.3283 61.3828 69.1081C62.3715 69.874 62.9007 70.9462 62.9703 72.3248H59.1061C59.0782 71.8514 58.9041 71.4823 58.5839 71.2178C58.2636 70.9392 57.8528 70.8 57.3515 70.8C56.9198 70.8 56.5717 70.9184 56.3071 71.1551C56.0425 71.3779 55.9102 71.7051 55.9102 72.1368C55.9102 72.6103 56.133 72.9793 56.5786 73.2439C57.0242 73.5085 57.7205 73.7939 58.6674 74.1003C59.6143 74.4206 60.3802 74.7269 60.9651 75.0194C61.5639 75.3118 62.0791 75.7365 62.5108 76.2935C62.9425 76.8505 63.1583 77.5677 63.1583 78.445C63.1583 79.2805 62.9425 80.0394 62.5108 80.7218C62.093 81.4041 61.4803 81.9472 60.6726 82.351C59.865 82.7548 58.9111 82.9568 57.811 82.9568ZM68.9283 68.1472V82.8105H65.3564V68.1472H68.9283ZM70.911 75.458C70.911 74.0098 71.2243 72.7217 71.8509 71.5937C72.4776 70.4519 73.3479 69.5676 74.4619 68.941C75.5899 68.3004 76.864 67.9801 78.2844 67.9801C80.0251 67.9801 81.5151 68.4397 82.7544 69.3587C83.9938 70.2778 84.8223 71.5311 85.2401 73.1186H81.3132C81.0207 72.5058 80.603 72.0393 80.0599 71.7191C79.5307 71.3988 78.925 71.2386 78.2426 71.2386C77.1426 71.2386 76.2513 71.6216 75.569 72.3875C74.8867 73.1534 74.5455 74.1769 74.5455 75.458C74.5455 76.7391 74.8867 77.7626 75.569 78.5285C76.2513 79.2944 77.1426 79.6774 78.2426 79.6774C78.925 79.6774 79.5307 79.5172 80.0599 79.1969C80.603 78.8767 81.0207 78.4102 81.3132 77.7974H85.2401C84.8223 79.3849 83.9938 80.6382 82.7544 81.5573C81.5151 82.4624 80.0251 82.915 78.2844 82.915C76.864 82.915 75.5899 82.6017 74.4619 81.975C73.3479 81.3345 72.4776 80.4502 71.8509 79.3223C71.2243 78.1943 70.911 76.9062 70.911 75.458Z" fill="#808080"/>
<path d="M8.81628 88.0576H25.1655L25.3469 95.2576L8.81628 88.0576Z" fill="#808080"/>
<path d="M99.1837 88.0576H82.6531L82.7607 95.2576L99.1837 88.0576Z" fill="#808080"/>
<defs>
<linearGradient id="paint0_linear_26744_20952" x1="22.9559" y1="83.1686" x2="22.9559" y2="113.535" gradientUnits="userSpaceOnUse">
<stop stop-color="#919194"/>
<stop offset="1" stop-color="#DDDDDD"/>
</linearGradient>
<linearGradient id="paint1_linear_26744_20952" x1="86.1461" y1="83.1686" x2="86.1461" y2="113.535" gradientUnits="userSpaceOnUse">
<stop stop-color="#919194"/>
<stop offset="1" stop-color="#DDDDDD"/>
</linearGradient>
<radialGradient id="paint2_radial_26744_20952" cx="0" cy="0" r="1" gradientUnits="userSpaceOnUse" gradientTransform="translate(52.8979 44.3038) rotate(90) scale(44.3077 44.0816)">
<stop offset="0.28" stop-color="#E6E6E6"/>
<stop offset="1" stop-color="#A7A7A7"/>
</radialGradient>
<linearGradient id="paint3_linear_26744_20952" x1="52.898" y1="8.85742" x2="52.898" y2="79.7498" gradientUnits="userSpaceOnUse">
<stop stop-color="#D6D6D6"/>
<stop offset="1" stop-color="#F7F7F7"/>
</linearGradient>
</defs>
</svg>
