<svg width="109" height="109" viewBox="0 0 109 109" fill="none" xmlns="http://www.w3.org/2000/svg">
<path d="M44.2537 66.4039C44.2537 65.1803 43.2618 64.1885 42.0383 64.1885L24.9792 64.1885C23.7557 64.1885 22.7639 65.1803 22.7639 66.4039V104.211C22.7639 106.009 24.7932 107.058 26.2603 106.018L43.3193 93.9276C43.9054 93.5123 44.2537 92.8385 44.2537 92.1202V66.4039Z" fill="url(#paint0_linear_26744_21024)"/>
<path d="M64.0905 66.4039C64.0905 65.1803 65.0823 64.1885 66.3058 64.1885L83.3649 64.1885C84.5884 64.1885 85.5802 65.1803 85.5802 66.4039V104.211C85.5802 106.009 83.5509 107.058 82.0838 106.018L65.0248 93.9276C64.4387 93.5123 64.0905 92.8385 64.0905 92.1202V66.4039Z" fill="url(#paint1_linear_26744_21024)"/>
<path d="M49.114 2.52745C51.2115 1.2761 53.8265 1.27609 55.924 2.52745L71.4741 11.8042L87.2681 20.7163C89.3813 21.9088 90.6767 24.158 90.6477 26.5843L90.4292 44.8038L90.6477 63.0233C90.6767 65.4496 89.3813 67.6988 87.2681 68.8912L71.4741 77.8034L55.924 87.0801C53.8265 88.3315 51.2115 88.3315 49.114 87.0801L33.5639 77.8034L17.7699 68.8912C15.6567 67.6988 14.3613 65.4495 14.3904 63.0233L14.6088 44.8038L14.3904 26.5843C14.3613 24.158 15.6567 21.9088 17.7699 20.7163L33.5639 11.8042L49.114 2.52745Z" fill="url(#paint2_radial_26744_21024)"/>
<path d="M48.012 10.2823C50.1096 9.03098 52.7245 9.03098 54.8221 10.2823L67.055 17.5802L79.4854 24.5943C81.5986 25.7867 82.894 28.036 82.8649 30.4622L82.6929 44.8048L82.8649 59.1474C82.894 61.5737 81.5986 63.8229 79.4854 65.0153L67.055 72.0295L54.8221 79.3273C52.7245 80.5787 50.1096 80.5787 48.012 79.3273L35.7791 72.0295L23.3487 65.0153C21.2355 63.8229 19.9401 61.5737 19.9692 59.1474L20.1411 44.8048L19.9692 30.4622C19.9401 28.036 21.2355 25.7867 23.3487 24.5943L35.7791 17.5802L48.012 10.2823Z" fill="#C89A25"/>
<path d="M49.1141 11.3888C51.2116 10.1374 53.8266 10.1374 55.9241 11.3888L67.6832 18.4039L79.633 25.1469C81.7462 26.3393 83.0417 28.5886 83.0126 31.0148L82.8473 44.8036L83.0126 58.5923C83.0417 61.0186 81.7462 63.2678 79.633 64.4602L67.6832 71.2032L55.9241 78.2184C53.8266 79.4697 51.2116 79.4697 49.1141 78.2184L37.355 71.2032L25.4051 64.4602C23.2919 63.2678 21.9965 61.0186 22.0256 58.5923L22.1909 44.8036L22.0256 31.0148C21.9965 28.5886 23.2919 26.3393 25.4051 25.1469L37.355 18.4039L49.1141 11.3888Z" fill="url(#paint3_linear_26744_21024)"/>
<g opacity="0.8">
<path fill-rule="evenodd" clip-rule="evenodd" d="M34.9854 55.3991C35.0933 55.3991 35.1966 55.3573 35.277 55.2761C35.4033 55.1458 35.4423 54.949 35.3757 54.7768C34.223 51.8029 34.1082 48.583 35.0359 45.2058C35.0841 45.0286 35.0267 44.8392 34.8935 44.7236C34.758 44.6105 34.572 44.5957 34.4228 44.6843C32.5902 45.7986 31.5041 47.8918 31.5844 50.1475C31.6648 52.4031 32.9003 54.398 34.8062 55.3573C34.8637 55.3868 34.9257 55.3991 34.9854 55.3991ZM33.9313 46.1847C33.3825 48.8585 33.4652 51.4339 34.1747 53.874C33.1276 52.9615 32.48 51.6037 32.4272 50.113C32.3721 48.6052 32.9324 47.1834 33.9313 46.1847Z" fill="#C89A25"/>
<path fill-rule="evenodd" clip-rule="evenodd" d="M52.8411 65.4038C56.3074 65.4038 59.5972 64.5199 62.3948 62.8367C67.6232 59.6883 70.6228 54.0308 70.6228 47.3151C70.6228 42.297 68.719 37.5647 65.2621 33.9877C61.8237 30.43 57.2987 28.4707 52.5207 28.4707C42.6722 28.4707 34.8761 35.93 34.3583 45.8329L34.2237 46.2034C34.2206 46.2099 34.2183 46.2164 34.2167 46.2228C34.1772 46.3463 34.1447 46.4481 34.1146 46.5401C33.8754 47.2739 33.8754 47.3393 33.8801 49.0128C33.8801 49.2865 33.8801 49.6061 33.8801 49.9815C33.8801 53.1348 36.1251 58.8963 40.3389 61.524L40.7963 61.8728C40.8087 61.8825 40.8219 61.8914 40.8358 61.8994C44.4297 64.067 48.365 65.2755 52.2096 65.3941C52.4201 65.399 52.6306 65.4022 52.8411 65.4038ZM52.5207 29.3595C62.0326 29.3595 69.7708 37.4146 69.7708 47.3151C69.7708 53.7063 66.9267 59.0828 61.9699 62.0665C56.0636 65.6218 48.1374 65.2682 41.2815 61.1414L40.8242 60.7951C40.8149 60.787 40.8041 60.7797 40.7917 60.7733C36.8913 58.349 34.7321 52.8538 34.7321 49.9815C34.7321 49.6061 34.7321 49.284 34.7321 49.0104C34.7275 47.4192 34.7275 47.4192 34.9202 46.8259C34.9504 46.7338 34.9852 46.6321 35.0223 46.511L35.1779 46.0824C35.1941 46.0388 35.2034 45.9927 35.2057 45.9467C35.6654 36.4919 43.111 29.3595 52.5207 29.3595Z" fill="#C89A25"/>
<path fill-rule="evenodd" clip-rule="evenodd" d="M50.7195 63.8639C60.0068 63.8639 67.5604 57.6493 67.5604 50.014C67.5604 42.3764 60.0068 36.1641 50.7195 36.1641C41.4345 36.1641 33.8786 42.3764 33.8786 50.014C33.8786 57.6493 41.4345 63.8639 50.7195 63.8639ZM50.7195 36.8697C59.6151 36.8697 66.8512 42.7651 66.8512 50.014C66.8512 57.2606 59.6151 63.1559 50.7195 63.1559C41.8239 63.1559 34.5878 57.2606 34.5878 50.014C34.5878 42.7651 41.8239 36.8697 50.7195 36.8697Z" fill="#C89A25"/>
<path fill-rule="evenodd" clip-rule="evenodd" d="M50.7191 62.3243C59.1619 62.3243 66.0291 56.9752 66.0291 50.3992C66.0291 43.8231 59.1619 38.4717 50.7191 38.4717C42.2764 38.4717 35.4092 43.8231 35.4092 50.3992C35.4092 56.9752 42.2764 62.3243 50.7191 62.3243ZM50.7191 39.3245C58.678 39.3245 65.1543 44.2925 65.1543 50.3992C65.1543 56.5035 58.678 61.4715 50.7191 61.4715C42.7603 61.4715 36.284 56.5035 36.284 50.3992C36.284 44.2925 42.7603 39.3245 50.7191 39.3245Z" fill="#C89A25"/>
<path fill-rule="evenodd" clip-rule="evenodd" d="M50.388 62.3243C51.4213 62.3243 52.4546 62.2425 53.4596 62.0765C53.4722 62.075 53.4847 62.0718 53.4973 62.0672C60.6009 60.1268 65.2826 55.6639 64.3881 51.685C64.1457 50.6119 63.522 49.6628 62.5334 48.8679C62.6911 47.498 62.6181 46.121 62.3145 44.7721C62.1332 43.9655 61.8696 43.1777 61.533 42.4272C61.5095 42.3782 61.4789 42.3361 61.4389 42.3033C58.6002 39.8674 54.5729 38.4717 50.388 38.4717C46.6313 38.4717 43.0371 39.5728 40.2621 41.5739C37.487 43.5774 35.7617 46.308 35.4109 49.2607C35.4078 49.2887 35.4078 49.316 35.4109 49.3425C35.4604 49.796 35.5357 50.2519 35.6369 50.6961C35.9405 52.045 36.4631 53.3214 37.1951 54.495C37.0515 54.7872 36.8709 54.9502 36.7814 55.2424C36.7508 55.3406 36.9742 55.6333 37.0283 55.7222C38.3286 57.6412 40.0403 59.1633 42.3475 60.4821C44.7507 61.6884 47.5305 62.3243 50.388 62.3243ZM53.3231 61.3752C52.3628 61.5318 51.3742 61.6113 50.388 61.6113C44.9249 61.6113 40.0361 59.2454 37.5835 55.4301C37.6729 55.166 37.7882 54.9018 37.9271 54.6376C37.986 54.5254 37.9789 54.3875 37.9083 54.2799C37.1669 53.1321 36.6396 51.8743 36.3383 50.5394C36.2465 50.135 36.1783 49.7189 36.1288 49.3051C36.8444 43.533 42.9642 39.187 50.388 39.187C54.3729 39.187 58.2001 40.4986 60.9069 42.7919C61.2106 43.4769 61.4483 44.1946 61.6131 44.9287C61.912 46.2613 61.9755 47.6242 61.7943 48.9778C61.7778 49.104 61.832 49.2303 61.9332 49.3074C62.8794 50.0251 63.4678 50.8761 63.6844 51.8416C64.4799 55.3787 59.9301 59.5634 53.3231 61.3752Z" fill="#C89A25"/>
<path fill-rule="evenodd" clip-rule="evenodd" d="M50.4423 62.3234C51.4722 62.3234 52.5045 62.2377 53.5061 62.071C53.5155 62.0694 53.5257 62.067 53.5367 62.0638C60.6118 60.0965 65.2758 55.5854 64.3897 51.5721C64.1375 50.436 63.4682 49.438 62.3958 48.6116C62.3801 48.5989 62.3628 48.5885 62.344 48.5806C61.2834 48.0804 60.1404 47.9994 58.9385 48.3329C59.5017 47.0682 59.6455 45.6558 59.3438 44.2863C58.5755 40.8136 55.1558 38.62 51.7197 39.3965C50.1383 39.7537 48.7784 40.6803 47.864 42.0212C46.4428 41.1399 44.779 40.8613 43.1433 41.2304C40.8078 41.7568 38.8941 43.8647 38.3827 46.4703C37.9419 48.7187 38.6372 50.8504 40.2563 52.3152C39.0779 52.4915 38.0244 53.1893 37.3975 54.2468C37.3944 54.2516 37.3912 54.2572 37.3881 54.2635C37.2066 54.6184 37.0582 54.978 36.9521 55.3353C36.9285 55.4139 36.938 55.502 36.9827 55.5735C38.2036 57.5718 40.0843 59.2605 42.4245 60.4537C44.819 61.6756 47.5929 62.3234 50.4423 62.3234ZM53.3977 61.497C52.4314 61.6589 51.4368 61.7399 50.4423 61.7399C44.9345 61.7399 40.0041 59.3057 37.5437 55.3806C37.6356 55.1019 37.7534 54.8185 37.8972 54.5398C38.5524 53.4394 39.7496 52.7963 41.0175 52.8607C41.1448 52.8654 41.2626 52.7868 41.3051 52.663C41.3475 52.5415 41.3027 52.4057 41.199 52.3295C39.3419 51.0124 38.5005 48.864 38.9483 46.5847C39.4173 44.2005 41.1519 42.276 43.2683 41.7973C44.8426 41.4424 46.4475 41.7497 47.7862 42.6619C47.8498 42.7071 47.93 42.7214 48.0077 42.7048C48.0832 42.6905 48.1515 42.6428 48.1916 42.5761C49.0235 41.2376 50.3197 40.3087 51.8446 39.9633C54.9696 39.2583 58.0829 41.2543 58.7805 44.4125C59.1058 45.8797 58.8654 47.3992 58.1065 48.6902C58.0523 48.7807 58.0523 48.8926 58.1018 48.9831C58.1725 49.107 58.3304 49.1618 58.46 49.1094C59.7704 48.583 60.9511 48.5782 62.0706 49.0951C63.0157 49.831 63.6072 50.7075 63.8264 51.6983C64.6324 55.3425 60.0509 59.6439 53.3977 61.497Z" fill="#C89A25"/>
<path fill-rule="evenodd" clip-rule="evenodd" d="M48.9255 61.5544C49.9971 61.5544 51.1062 61.4269 52.2316 61.1697C57.0703 60.0564 60.6572 56.8247 61.3661 52.9341C61.6071 51.6092 61.1579 51.1115 60.8654 50.9311C60.3881 50.6378 59.6932 50.7844 59.0521 51.3134C54.5035 55.0645 47.6409 56.6419 41.9716 55.2377C41.1737 55.0381 40.4835 55.2112 40.1747 55.6873C39.9851 55.9758 39.7839 56.6251 40.549 57.7191C42.2805 60.1814 45.3854 61.5544 48.9255 61.5544ZM60.3062 51.3687C60.4068 51.3687 60.4981 51.3904 60.573 51.4361C60.849 51.6068 60.9333 52.1142 60.8046 52.8259C60.1378 56.4856 56.724 59.5346 52.1053 60.595C47.4888 61.6578 43.1345 60.393 41.0146 57.3729C40.6028 56.7862 40.4695 56.2908 40.6496 56.0143C40.8204 55.7522 41.2861 55.6729 41.8382 55.8075C47.669 57.2527 54.7305 55.6296 59.4101 51.7703C59.726 51.5106 60.0512 51.3687 60.3062 51.3687Z" fill="#C89A25"/>
<path d="M50.3321 53.0897C50.4738 53.0897 50.6107 53.0123 50.6753 52.8816C50.8818 52.4632 51.3395 52.231 51.8096 52.3036C52.0161 52.335 52.2101 52.1971 52.2449 51.9964C52.2773 51.7956 52.1355 51.6045 51.929 51.5731C51.1231 51.4497 50.3445 51.8464 49.9913 52.5599C49.8992 52.7438 49.9788 52.9639 50.1679 53.0534C50.2201 53.0776 50.2773 53.0897 50.3321 53.0897Z" fill="#C89A25"/>
<path d="M50.3673 53.0927C50.4705 53.0927 50.5714 53.0591 50.6403 52.9919C50.7618 52.877 50.7389 52.7072 50.5898 52.6117C50.014 52.2528 49.186 52.2263 48.5758 52.5463C48.4153 52.6312 48.374 52.7992 48.4818 52.9229C48.5919 53.0449 48.8098 53.0785 48.9704 52.9937C49.3282 52.8062 49.8122 52.8222 50.1471 53.0326C50.2113 53.0732 50.2893 53.0927 50.3673 53.0927Z" fill="#C89A25"/>
<path d="M50.5005 55.401C50.5165 55.401 50.5322 55.3978 50.5473 55.3915C50.6651 55.3488 50.7389 55.154 50.7133 54.9592C50.5686 53.869 50.5061 53.4296 50.3798 52.5983C50.35 52.4035 50.2322 52.2847 50.1159 52.3346C49.9995 52.3845 49.93 52.584 49.9598 52.7764C50.0846 53.5982 50.1457 54.0353 50.289 55.116C50.3117 55.2846 50.4011 55.401 50.5005 55.401Z" fill="#C89A25"/>
<path d="M60.7421 52.4715C60.1813 53.1893 59.4578 53.8126 58.6766 54.3651C57.8905 54.9176 57.0443 55.4016 56.173 55.8455C56.0829 55.8904 56.0503 55.9967 56.0979 56.0793C56.1455 56.1596 56.2481 56.1926 56.3357 56.1549C57.2496 55.7605 58.1459 55.3237 58.9996 54.8043C59.8508 54.2825 60.6645 53.6757 61.343 52.9177C61.4807 52.7643 61.4607 52.5376 61.3005 52.4077C61.1377 52.2802 60.8974 52.2991 60.7597 52.4502C60.7547 52.4565 60.7497 52.4628 60.7446 52.4691L60.7421 52.4715Z" fill="#C89A25"/>
<path d="M40.2187 57.6185C41.142 58.018 42.1128 58.227 43.0765 58.3455C44.0426 58.4639 45.011 58.4895 45.9724 58.4709C46.0602 58.4686 46.129 58.3989 46.1266 58.313C46.1243 58.2317 46.0602 58.1666 45.9771 58.162C45.0277 58.1132 44.0806 58.0203 43.1596 57.8415C42.241 57.6627 41.339 57.3956 40.5391 56.9798H40.5367C40.3587 56.8869 40.1403 56.952 40.0454 57.1261C39.9504 57.298 40.0193 57.514 40.1949 57.6069C40.2044 57.6092 40.2115 57.6139 40.2187 57.6185Z" fill="#C89A25"/>
<path fill-rule="evenodd" clip-rule="evenodd" d="M50.388 62.3243C51.4213 62.3243 52.4546 62.2425 53.4596 62.0765C53.4722 62.075 53.4847 62.0718 53.4973 62.0672C60.6009 60.1268 65.2826 55.6639 64.3881 51.685C64.1457 50.6119 63.522 49.6628 62.5334 48.8679C62.6911 47.498 62.6181 46.121 62.3145 44.7721C62.1332 43.9655 61.8696 43.1777 61.533 42.4272C61.5095 42.3782 61.4789 42.3361 61.4389 42.3033C58.6002 39.8674 54.5729 38.4717 50.388 38.4717C46.6313 38.4717 43.0371 39.5728 40.2621 41.5739C37.487 43.5774 35.7617 46.308 35.4109 49.2607C35.4078 49.2887 35.4078 49.316 35.4109 49.3425C35.4604 49.796 35.5357 50.2519 35.6369 50.6961C35.9405 52.045 36.4631 53.3214 37.1951 54.495C37.0515 54.7872 36.9362 55.0818 36.8467 55.374C36.8161 55.4722 36.9412 55.5837 36.9954 55.6725C38.378 57.6082 40.0074 59.0805 42.3475 60.4821C44.7507 61.6884 47.5305 62.3243 50.388 62.3243ZM53.3231 61.3752C52.3628 61.5318 51.3742 61.6113 50.388 61.6113C44.9249 61.6113 40.0361 59.2454 37.5835 55.4301C37.6729 55.166 37.7882 54.9018 37.9271 54.6376C37.986 54.5254 37.9789 54.3875 37.9083 54.2799C37.1669 53.1321 36.6396 51.8743 36.3383 50.5394C36.2465 50.135 36.1783 49.7189 36.1288 49.3051C36.8444 43.533 42.9642 39.187 50.388 39.187C54.3729 39.187 58.2001 40.4986 60.9069 42.7919C61.2106 43.4769 61.4483 44.1946 61.6131 44.9287C61.912 46.2613 61.9755 47.6242 61.7943 48.9778C61.7778 49.104 61.832 49.2303 61.9332 49.3074C62.8794 50.0251 63.4678 50.8761 63.6844 51.8416C64.4799 55.3787 59.9301 59.5634 53.3231 61.3752Z" fill="#C89A25"/>
<path fill-rule="evenodd" clip-rule="evenodd" d="M69.994 50.0136C70.1516 50.0136 70.31 50.0013 70.4691 49.9769C71.4888 49.8254 72.381 49.1973 72.9789 48.2099C73.5629 47.2446 73.7946 46.0446 73.6324 44.8348C73.2964 42.3078 71.3242 40.5066 69.2432 40.8146C67.1598 41.1249 65.7392 43.432 66.0776 45.9591C66.2398 47.1688 66.7774 48.2539 67.5908 49.0115C68.2953 49.6665 69.1343 50.0136 69.994 50.0136ZM69.7113 41.6773C71.1968 41.6773 72.5386 43.0703 72.7912 44.9595C72.9256 45.9591 72.7379 46.9415 72.2628 47.7285C71.7993 48.491 71.1203 48.9749 70.3486 49.0897C69.5792 49.2046 68.7982 48.9382 68.154 48.3395C67.4912 47.7211 67.0532 46.8315 66.9188 45.832C66.6476 43.7962 67.7438 41.9437 69.3614 41.7017C69.4788 41.6854 69.5954 41.6773 69.7113 41.6773Z" fill="#C89A25"/>
<path fill-rule="evenodd" clip-rule="evenodd" d="M70.8721 49.2441C70.9814 49.2441 71.0899 49.2362 71.1976 49.2203C71.4768 49.1798 71.7469 49.087 71.9984 48.9417C72.0107 48.9354 72.023 48.9275 72.0354 48.9179C73.2401 48.0132 73.8679 46.3252 73.6348 44.6182C73.3671 42.6683 72.0331 41.0922 70.3852 40.785C70.3621 40.7819 70.3382 40.7803 70.3136 40.7803C70.2213 40.7827 70.1313 40.7898 70.0459 40.8017C68.3887 41.0445 67.2971 43.1278 67.6133 45.4491C67.7633 46.5514 68.2064 47.549 68.8573 48.2561C69.4504 48.9013 70.1567 49.2441 70.8721 49.2441ZM71.6384 48.3156C71.4676 48.4108 71.2853 48.4727 71.1006 48.4989C70.5052 48.5846 69.8912 48.3204 69.3696 47.7561C68.818 47.1561 68.4418 46.3014 68.3126 45.3467C68.0495 43.423 68.8711 41.7088 70.1451 41.5231C70.1944 41.5167 70.2444 41.512 70.2951 41.5088C71.6315 41.7778 72.7139 43.0921 72.9355 44.7205C73.1317 46.1562 72.6239 47.5633 71.6384 48.3156Z" fill="#C89A25"/>
<path fill-rule="evenodd" clip-rule="evenodd" d="M56.2739 34.6234C56.7376 34.6234 57.3185 34.3568 58.007 33.8235C59.0876 32.9921 60.3618 32.6102 61.4662 32.3481C61.5523 32.3255 61.6312 32.2803 61.6909 32.2171C62.2933 31.5596 62.3675 30.7168 61.8798 30.0728C61.3538 29.3747 60.149 28.9273 58.6453 29.4967C57.713 29.7949 56.0731 30.5903 55.4754 32.5786C55.1861 33.5456 55.277 34.185 55.7503 34.481C55.9049 34.5759 56.0794 34.6234 56.2739 34.6234ZM61.1076 31.5776C60.0032 31.8488 58.6214 32.2803 57.4524 33.1818C56.6707 33.7851 56.2906 33.8122 56.2308 33.7874C56.2332 33.7874 56.0826 33.5908 56.3193 32.8045C56.8094 31.1732 58.1696 30.5225 58.937 30.2784C58.9449 30.2754 58.9529 30.2724 58.9609 30.2694C60.0295 29.8627 60.8375 30.1203 61.1674 30.5541C61.3993 30.8636 61.3777 31.2297 61.1076 31.5776Z" fill="#C89A25"/>
<path fill-rule="evenodd" clip-rule="evenodd" d="M38.2289 37.7004C38.7453 37.7004 39.2936 37.4059 39.4255 36.8398C39.7713 35.3556 40.8086 33.8184 42.1304 32.8336C42.2441 32.7484 42.3078 32.6104 42.2987 32.4654C42.2896 32.3227 42.21 32.1938 42.0849 32.1248C40.9315 31.4782 39.9191 31.3723 39.0774 31.8073C37.9559 32.3894 37.2393 33.9266 36.9481 36.3796C36.8776 36.9848 37.3349 37.5555 37.99 37.6774C38.0674 37.6935 38.1493 37.7004 38.2289 37.7004ZM41.1044 32.5873C39.8873 33.6781 38.9546 35.1807 38.6134 36.6465C38.577 36.803 38.3313 36.8835 38.1425 36.849C37.9536 36.8122 37.758 36.6488 37.7785 36.4808C38.0287 34.3546 38.6111 32.9969 39.4573 32.5597C39.9078 32.325 40.4606 32.3365 41.1044 32.5873Z" fill="#C89A25"/>
<path opacity="0.3" d="M41.0923 32.3154C39.1157 33.8492 38.2568 35.3881 38.5156 36.9321C39.3465 35.4405 40.35 34.0726 41.526 32.8284C41.5668 32.8269 41.4223 32.6559 41.0923 32.3154Z" fill="#C89A25"/>
<path fill-rule="evenodd" clip-rule="evenodd" d="M50.5563 62.2364C58.7872 62.2364 65.4835 56.8859 65.4835 50.3101C65.4835 43.7343 58.7872 38.3838 50.5563 38.3838C42.3255 38.3838 35.6292 43.7343 35.6292 50.3101C35.6292 56.8859 42.3255 62.2364 50.5563 62.2364ZM50.5563 38.9576C58.4704 38.9576 64.9087 44.0518 64.9087 50.3101C64.9087 56.5684 58.4704 61.6602 50.5563 61.6602C42.6423 61.6602 36.204 56.5684 36.204 50.3101C36.204 44.0518 42.6423 38.9576 50.5563 38.9576Z" fill="#C89A25"/>
<path fill-rule="evenodd" clip-rule="evenodd" d="M45.1655 52.2188C44.2481 52.6226 43.0794 51.7895 42.5534 50.3585C42.0273 48.9274 42.3435 47.4402 43.2608 47.0364C44.1782 46.6326 45.3468 47.4657 45.8729 48.8968C46.3989 50.3278 46.0802 51.8151 45.1655 52.2188ZM43.8016 49.241C43.3793 49.2083 43.048 48.8394 43.0642 48.4173C43.0772 47.9931 43.4313 47.6755 43.8536 47.7063C44.2759 47.737 44.6073 48.1079 44.5943 48.53C44.578 48.9542 44.2239 49.2718 43.8016 49.241Z" fill="#C89A25"/>
<path fill-rule="evenodd" clip-rule="evenodd" d="M53.5174 45.3955C52.6829 45.4289 52.1267 46.4912 52.2735 47.7652C52.4181 49.0414 53.2125 50.0459 54.0447 50.0103C54.877 49.9768 55.4355 48.9145 55.2886 47.6405C55.1418 46.3643 54.3496 45.3598 53.5174 45.3955ZM53.2781 46.2189C52.9601 46.3731 52.9271 46.82 53.2061 47.2155C53.4851 47.611 53.968 47.8076 54.286 47.6512C54.6039 47.497 54.6369 47.0501 54.358 46.6546C54.079 46.2592 53.596 46.0648 53.2781 46.2189ZM53.1756 49.0655C53.0035 48.8874 52.9638 48.6492 53.0882 48.5335C53.2101 48.4199 53.4484 48.4711 53.6206 48.6492C53.7927 48.8273 53.8324 49.0655 53.7106 49.1813C53.5861 49.297 53.3478 49.2436 53.1756 49.0655Z" fill="#C89A25"/>
<path fill-rule="evenodd" clip-rule="evenodd" d="M49.9438 25.3586C50.6696 26.738 50.793 28.2487 50.6848 29.2375L49.4508 29.1C49.5373 28.3095 49.434 27.0613 48.8473 25.9462C48.2762 24.8608 47.2353 23.873 45.3604 23.5472L45.571 22.3125C47.8449 22.7076 49.2024 23.9497 49.9438 25.3586Z" fill="#C89A25"/>
<path d="M47.6568 23.0818C47.6568 23.9317 46.9713 24.6207 46.1258 24.6207C45.2802 24.6207 44.5947 23.9317 44.5947 23.0818C44.5947 22.2319 45.2802 21.543 46.1258 21.543C46.9713 21.543 47.6568 22.2319 47.6568 23.0818Z" fill="#C89A25"/>
<path fill-rule="evenodd" clip-rule="evenodd" d="M52.8108 23.0429C52.8113 23.0427 52.8102 23.0482 52.8059 23.0603C52.8081 23.0492 52.8102 23.0432 52.8108 23.0429ZM52.3707 23.6875C52.2952 23.7037 52.2147 23.7229 52.1291 23.7452C51.2591 23.9716 50.0918 24.4638 48.8568 25.1857C47.6218 25.9076 46.6189 26.684 45.9928 27.332C45.9312 27.3958 45.8749 27.4567 45.8235 27.5146C45.899 27.4983 45.9795 27.4792 46.0651 27.4569C46.9351 27.2304 48.1024 26.7383 49.3374 26.0164C50.5724 25.2945 51.5752 24.5181 52.2013 23.87C52.2629 23.8063 52.3193 23.7454 52.3707 23.6875ZM45.0485 27.5803C45.049 27.5799 45.0552 27.5811 45.0659 27.5846C45.0534 27.5824 45.048 27.5806 45.0485 27.5803ZM45.3834 28.1591C45.3829 28.1594 45.384 28.1538 45.3883 28.1418C45.3861 28.1529 45.3839 28.1589 45.3834 28.1591ZM53.1283 23.6174C53.1408 23.6197 53.1461 23.6214 53.1457 23.6218C53.1452 23.6221 53.1389 23.621 53.1283 23.6174ZM49.8605 26.9206C52.4465 25.4089 54.2011 23.5927 53.7795 22.864C53.3579 22.1352 50.9197 22.7699 48.3337 24.2815C45.7476 25.7931 43.993 27.6093 44.4147 28.3381C44.8363 29.0668 47.2745 28.4322 49.8605 26.9206Z" fill="#C89A25"/>
</g>
<path fill-rule="evenodd" clip-rule="evenodd" d="M99.8856 68.5235L107.162 68.6376C107.925 68.6495 108.448 69.4111 108.185 70.1272L104.016 81.4704C103.923 81.722 103.925 81.9987 104.021 82.249L108.147 93.0107C108.425 93.736 107.889 94.5148 107.112 94.5148H84.6828C84.0711 94.5148 83.5751 94.0189 83.5751 93.4072L83.5751 89.6145C83.5751 89.0337 84.0238 88.5515 84.6032 88.5097L99.7507 87.4183L99.8856 68.5235ZM9.69554 68.5235L2.28382 68.6379C1.521 68.6497 0.998157 69.4111 1.2611 70.1272L5.42579 81.4707C5.51809 81.7222 5.51618 81.9985 5.4204 82.2486L1.29902 93.011C1.02127 93.7363 1.55679 94.5148 2.33346 94.5148H24.7666C25.3784 94.5148 25.8743 94.0189 25.8743 93.4072L25.8743 89.6146C25.8743 89.0337 25.4256 88.5515 24.8462 88.5097L9.69553 87.4183L9.69554 68.5235Z" fill="#EACE46"/>
<path d="M99.8856 68.5235L99.7835 63.612C99.7709 63.0094 99.2788 62.5273 98.676 62.5273H10.8032C10.1915 62.5273 9.69553 63.0233 9.69553 63.635L9.69554 68.5235L9.69553 87.4183H99.7507L99.8856 68.5235Z" fill="#F5DA4C"/>
<path d="M24.5283 73.5374C24.5283 74.2582 24.3629 74.9198 24.0321 75.5224C23.7012 76.1132 23.1932 76.5917 22.5079 76.958C21.8226 77.3243 20.9719 77.5074 19.9558 77.5074H18.0771V81.9736H15.0465V69.532H19.9558C20.9482 69.532 21.7871 69.7034 22.4724 70.046C23.1577 70.3886 23.6717 70.8613 24.0143 71.4638C24.357 72.0664 24.5283 72.7576 24.5283 73.5374ZM19.7254 75.0971C20.3043 75.0971 20.7356 74.9612 21.0191 74.6894C21.3027 74.4177 21.4445 74.0337 21.4445 73.5374C21.4445 73.0412 21.3027 72.6572 21.0191 72.3854C20.7356 72.1137 20.3043 71.9778 19.7254 71.9778H18.0771V75.0971H19.7254ZM32.4509 81.9736L29.8634 77.277H29.1367V81.9736H26.1061V69.532H31.1926C32.1733 69.532 33.0063 69.7034 33.6916 70.046C34.3887 70.3886 34.9085 70.8613 35.2512 71.4638C35.5938 72.0546 35.7652 72.7163 35.7652 73.4488C35.7652 74.2759 35.5288 75.0144 35.0562 75.6642C34.5954 76.3141 33.9101 76.7749 33.0004 77.0466L35.8715 81.9736H32.4509ZM29.1367 75.1325H31.0154C31.5707 75.1325 31.9842 74.9966 32.256 74.7249C32.5396 74.4531 32.6813 74.0691 32.6813 73.5729C32.6813 73.1003 32.5396 72.7281 32.256 72.4563C31.9842 72.1846 31.5707 72.0487 31.0154 72.0487H29.1367V75.1325ZM40.6983 71.9601V74.4768H44.7568V76.8162H40.6983V79.5456H45.2885V81.9736H37.6676V69.532H45.2885V71.9601H40.6983ZM61.3459 69.532V81.9736H58.3153V74.5122L55.5328 81.9736H53.087L50.2867 74.4945V81.9736H47.2561V69.532H50.8361L54.3276 78.1454L57.7836 69.532H61.3459ZM66.556 69.532V81.9736H63.5253V69.532H66.556ZM71.7297 69.532V76.9757C71.7297 77.7201 71.9129 78.2931 72.2791 78.6949C72.6454 79.0966 73.183 79.2974 73.8919 79.2974C74.6009 79.2974 75.1444 79.0966 75.5225 78.6949C75.9005 78.2931 76.0896 77.7201 76.0896 76.9757V69.532H79.1202V76.958C79.1202 78.0686 78.8839 79.008 78.4113 79.776C77.9387 80.544 77.3007 81.1229 76.4972 81.5128C75.7056 81.9027 74.8194 82.0977 73.8388 82.0977C72.8581 82.0977 71.9778 81.9086 71.198 81.5306C70.43 81.1406 69.8215 80.5617 69.3725 79.7937C68.9236 79.0139 68.6991 78.0686 68.6991 76.958V69.532H71.7297ZM95.3382 69.532V81.9736H92.3076V74.5122L89.5251 81.9736H87.0793L84.279 74.4945V81.9736H81.2484V69.532H84.8285L88.3199 78.1454L91.7759 69.532H95.3382Z" fill="#C89A25"/>
<path d="M9.53943 87.4502H25.8887L26.07 94.6502L9.53943 87.4502Z" fill="#C89A25"/>
<path d="M99.9068 87.4502H83.3762L83.4839 94.6502L99.9068 87.4502Z" fill="#C89A25"/>
<defs>
<linearGradient id="paint0_linear_26744_21024" x1="22.577" y1="83.6686" x2="22.577" y2="114.035" gradientUnits="userSpaceOnUse">
<stop stop-color="#E6C208"/>
<stop offset="1" stop-color="#EBEBEB"/>
</linearGradient>
<linearGradient id="paint1_linear_26744_21024" x1="85.7671" y1="83.6686" x2="85.7671" y2="114.035" gradientUnits="userSpaceOnUse">
<stop stop-color="#E6C208"/>
<stop offset="1" stop-color="#EBEBEB"/>
</linearGradient>
<radialGradient id="paint2_radial_26744_21024" cx="0" cy="0" r="1" gradientUnits="userSpaceOnUse" gradientTransform="translate(52.519 44.8038) rotate(90) scale(44.3077 44.0816)">
<stop stop-color="#FFF4BE"/>
<stop offset="1" stop-color="#FCDE48"/>
</radialGradient>
<linearGradient id="paint3_linear_26744_21024" x1="52.5191" y1="9.35742" x2="52.5191" y2="80.2497" gradientUnits="userSpaceOnUse">
<stop stop-color="#FFF6C9"/>
<stop offset="1" stop-color="#E7CD4D"/>
</linearGradient>
</defs>
</svg>
