<svg width="109" height="109" viewBox="0 0 109 109" fill="none" xmlns="http://www.w3.org/2000/svg">
<path d="M45.3557 66.4039C45.3557 65.1803 44.3639 64.1885 43.1403 64.1885L26.0813 64.1885C24.8578 64.1885 23.8659 65.1803 23.8659 66.4039V104.211C23.8659 106.009 25.8952 107.058 27.3623 106.018L44.4214 93.9276C45.0074 93.5123 45.3557 92.8385 45.3557 92.1202V66.4039Z" fill="url(#paint0_linear_26744_21094)"/>
<path d="M65.1926 66.4039C65.1926 65.1803 66.1845 64.1885 67.408 64.1885L84.467 64.1885C85.6906 64.1885 86.6824 65.1803 86.6824 66.4039V104.211C86.6824 106.009 84.6531 107.058 83.186 106.018L66.127 93.9276C65.5409 93.5123 65.1926 92.8385 65.1926 92.1202V66.4039Z" fill="url(#paint1_linear_26744_21094)"/>
<path d="M50.2162 2.52745C52.3137 1.2761 54.9286 1.27609 57.0262 2.52745L72.5763 11.8042L88.3703 20.7163C90.4835 21.9088 91.7789 24.158 91.7498 26.5843L91.5314 44.8038L91.7498 63.0233C91.7789 65.4496 90.4835 67.6988 88.3703 68.8912L72.5763 77.8034L57.0262 87.0801C54.9287 88.3315 52.3137 88.3315 50.2162 87.0801L34.6661 77.8034L18.8721 68.8912C16.7589 67.6988 15.4635 65.4495 15.4925 63.0233L15.711 44.8038L15.4925 26.5843C15.4635 24.158 16.7589 21.9088 18.8721 20.7163L34.6661 11.8042L50.2162 2.52745Z" fill="url(#paint2_radial_26744_21094)"/>
<path d="M49.1139 10.2823C51.2115 9.03098 53.8264 9.03098 55.924 10.2823L68.1569 17.5802L80.5873 24.5943C82.7005 25.7867 83.9959 28.036 83.9668 30.4622L83.7949 44.8048L83.9668 59.1474C83.9959 61.5737 82.7005 63.8229 80.5873 65.0153L68.1569 72.0295L55.924 79.3273C53.8264 80.5787 51.2115 80.5787 49.1139 79.3273L36.881 72.0295L24.4506 65.0153C22.3374 63.8229 21.042 61.5737 21.0711 59.1474L21.243 44.8048L21.0711 30.4622C21.042 28.036 22.3374 25.7867 24.4506 24.5943L36.881 17.5802L49.1139 10.2823Z" fill="#6053AD"/>
<path d="M50.216 11.3888C52.3136 10.1374 54.9285 10.1374 57.026 11.3888L68.7851 18.4039L80.735 25.1469C82.8482 26.3393 84.1436 28.5886 84.1145 31.0148L83.9492 44.8036L84.1145 58.5923C84.1436 61.0186 82.8482 63.2678 80.735 64.4602L68.7851 71.2032L57.026 78.2184C54.9285 79.4697 52.3136 79.4697 50.216 78.2184L38.4569 71.2032L26.5071 64.4602C24.3939 63.2678 23.0984 61.0186 23.1275 58.5923L23.2929 44.8036L23.1275 31.0148C23.0984 28.5886 24.3939 26.3393 26.5071 25.1469L38.4569 18.4039L50.216 11.3888Z" fill="url(#paint3_linear_26744_21094)"/>
<path fill-rule="evenodd" clip-rule="evenodd" d="M46.38 66.9013C45.2128 66.1565 44.1615 65.2423 43.2603 64.1885L39.3196 67.7067C40.5578 69.155 42.0023 70.4113 43.6062 71.4347C43.7868 71.1396 43.9673 70.8444 44.1477 70.5493C43.2446 69.9737 42.3941 69.3188 41.6061 68.5921L42.3753 67.7212C43.0291 68.3237 43.7289 68.8737 44.4683 69.3661C44.6477 69.0856 44.8272 68.8051 45.0068 68.5246C44.3099 68.0606 43.6504 67.5423 43.0343 66.9744L43.7434 66.1713C44.3934 66.7702 45.0948 67.31 45.8394 67.7846L46.3809 66.8992L46.38 66.9013ZM47.6867 67.6361L45.4004 72.4443C46.8894 73.1777 48.4675 73.7121 50.0945 74.034C50.1576 73.7055 50.2208 73.377 50.2841 73.0484C49.413 72.8761 48.5558 72.6395 47.7194 72.3404L49.1355 68.2499C48.6411 68.0731 48.157 67.8682 47.6858 67.6361H47.6867ZM51.7202 74.2833C52.4252 74.3606 53.134 74.3985 53.8433 74.3968L53.8315 69.0572C53.3153 69.0584 52.7994 69.0308 52.2862 68.9747L51.7202 74.2833ZM55.1526 70.0379C55.7537 69.9831 56.351 69.8917 56.9412 69.7643C57.2348 71.1656 57.5284 72.5667 57.8221 73.9678C58.5202 73.8172 59.2094 73.6273 59.8863 73.3989L58.5525 69.3198C59.1323 69.1242 59.6995 68.8926 60.2507 68.6264C60.1045 68.3126 59.9582 67.9987 59.8117 67.6846C58.3186 68.4049 56.7091 68.8504 55.0596 68.9999C55.0897 69.3459 55.1202 69.6919 55.1509 70.0379H55.1526ZM64.0955 64.4641C63.1724 65.4894 62.1037 66.372 60.9239 67.0832L63.5897 71.6847C65.2108 70.7074 66.6793 69.4947 67.9477 68.0858C67.6972 67.8503 67.4467 67.6147 67.1962 67.3789C66.4653 68.1898 65.6639 68.9335 64.8016 69.6012L64.1078 68.6667C64.8203 68.115 65.4885 67.5077 66.1062 66.8505L65.3964 66.154C64.8142 66.7733 64.1844 67.3456 63.513 67.8656L62.8734 67.0035C63.5844 66.4527 64.2453 65.8393 64.8482 65.1708L64.0955 64.4641Z" fill="#7063BD"/>
<g opacity="0.8">
<path fill-rule="evenodd" clip-rule="evenodd" d="M36.0875 55.3991C36.1955 55.3991 36.2988 55.3573 36.3792 55.2761C36.5055 55.1458 36.5445 54.949 36.4779 54.7768C35.3251 51.8029 35.2103 48.583 36.1381 45.2058C36.1863 45.0286 36.1289 44.8392 35.9957 44.7236C35.8602 44.6105 35.6742 44.5957 35.5249 44.6843C33.6924 45.7986 32.6062 47.8918 32.6866 50.1475C32.767 52.4031 34.0024 54.398 35.9084 55.3573C35.9658 55.3868 36.0278 55.3991 36.0875 55.3991ZM35.0335 46.1847C34.4847 48.8585 34.5673 51.4339 35.2769 53.874C34.2298 52.9615 33.5822 51.6037 33.5294 50.113C33.4743 48.6052 34.0346 47.1834 35.0335 46.1847Z" fill="#6053AD"/>
<path fill-rule="evenodd" clip-rule="evenodd" d="M53.9432 65.4038C57.4094 65.4038 60.6992 64.5199 63.4969 62.8367C68.7253 59.6883 71.7249 54.0308 71.7249 47.3151C71.7249 42.297 69.8211 37.5647 66.3641 33.9877C62.9257 30.43 58.4008 28.4707 53.6228 28.4707C43.7743 28.4707 35.9781 35.93 35.4604 45.8329L35.3257 46.2034C35.3226 46.2099 35.3203 46.2164 35.3188 46.2228C35.2793 46.3463 35.2468 46.4481 35.2166 46.5401C34.9775 47.2739 34.9775 47.3393 34.9821 49.0128C34.9821 49.2865 34.9821 49.6061 34.9821 49.9815C34.9821 53.1348 37.2272 58.8963 41.441 61.524L41.8984 61.8728C41.9107 61.8825 41.9239 61.8914 41.9378 61.8994C45.5318 64.067 49.467 65.2755 53.3117 65.3941C53.5222 65.399 53.7327 65.4022 53.9432 65.4038ZM53.6228 29.3595C63.1347 29.3595 70.8728 37.4146 70.8728 47.3151C70.8728 53.7063 68.0288 59.0828 63.072 62.0665C57.1657 65.6218 49.2395 65.2682 42.3836 61.1414L41.9262 60.7951C41.9169 60.787 41.9061 60.7797 41.8937 60.7733C37.9933 58.349 35.8342 52.8538 35.8342 49.9815C35.8342 49.6061 35.8342 49.284 35.8342 49.0104C35.8295 47.4192 35.8295 47.4192 36.0222 46.8259C36.0524 46.7338 36.0872 46.6321 36.1244 46.511L36.2799 46.0824C36.2962 46.0388 36.3055 45.9927 36.3078 45.9467C36.7675 36.4919 44.2131 29.3595 53.6228 29.3595Z" fill="#6053AD"/>
<path fill-rule="evenodd" clip-rule="evenodd" d="M51.8217 63.8639C61.109 63.8639 68.6626 57.6493 68.6626 50.014C68.6626 42.3764 61.109 36.1641 51.8217 36.1641C42.5367 36.1641 34.9808 42.3764 34.9808 50.014C34.9808 57.6493 42.5367 63.8639 51.8217 63.8639ZM51.8217 36.8697C60.7173 36.8697 67.9534 42.7651 67.9534 50.014C67.9534 57.2606 60.7173 63.1559 51.8217 63.1559C42.9261 63.1559 35.69 57.2606 35.69 50.014C35.69 42.7651 42.9261 36.8697 51.8217 36.8697Z" fill="#6053AD"/>
<path fill-rule="evenodd" clip-rule="evenodd" d="M51.8214 62.3243C60.2642 62.3243 67.1313 56.9752 67.1313 50.3992C67.1313 43.8231 60.2642 38.4717 51.8214 38.4717C43.3787 38.4717 36.5115 43.8231 36.5115 50.3992C36.5115 56.9752 43.3787 62.3243 51.8214 62.3243ZM51.8214 39.3245C59.7803 39.3245 66.2566 44.2925 66.2566 50.3992C66.2566 56.5035 59.7803 61.4715 51.8214 61.4715C43.8626 61.4715 37.3863 56.5035 37.3863 50.3992C37.3863 44.2925 43.8626 39.3245 51.8214 39.3245Z" fill="#6053AD"/>
<path fill-rule="evenodd" clip-rule="evenodd" d="M51.4901 62.3243C52.5234 62.3243 53.5567 62.2425 54.5618 62.0765C54.5743 62.075 54.5869 62.0718 54.5995 62.0672C61.7031 60.1268 66.3848 55.6639 65.4903 51.685C65.2479 50.6119 64.6241 49.6628 63.6356 48.8679C63.7933 47.498 63.7203 46.121 63.4167 44.7721C63.2354 43.9655 62.9718 43.1777 62.6352 42.4272C62.6117 42.3782 62.5811 42.3361 62.5411 42.3033C59.7024 39.8674 55.6751 38.4717 51.4901 38.4717C47.7335 38.4717 44.1393 39.5728 41.3642 41.5739C38.5891 43.5774 36.8638 46.308 36.5131 49.2607C36.51 49.2887 36.51 49.316 36.5131 49.3425C36.5625 49.796 36.6379 50.2519 36.7391 50.6961C37.0427 52.045 37.5652 53.3214 38.2973 54.495C38.1537 54.7872 37.973 54.9502 37.8836 55.2424C37.853 55.3406 38.0763 55.6333 38.1305 55.7222C39.4308 57.6412 41.1425 59.1633 43.4497 60.4821C45.8529 61.6884 48.6327 62.3243 51.4901 62.3243ZM54.4253 61.3752C53.4649 61.5318 52.4764 61.6113 51.4901 61.6113C46.027 61.6113 41.1383 59.2454 38.6856 55.4301C38.7751 55.166 38.8904 54.9018 39.0293 54.6376C39.0881 54.5254 39.0811 54.3875 39.0105 54.2799C38.269 53.1321 37.7418 51.8743 37.4405 50.5394C37.3487 50.135 37.2804 49.7189 37.231 49.3051C37.9466 43.533 44.0663 39.187 51.4901 39.187C55.475 39.187 59.3023 40.4986 62.0091 42.7919C62.3127 43.4769 62.5505 44.1946 62.7152 44.9287C63.0142 46.2613 63.0777 47.6242 62.8965 48.9778C62.88 49.104 62.9341 49.2303 63.0353 49.3074C63.9816 50.0251 64.57 50.8761 64.7865 51.8416C65.5821 55.3787 61.0323 59.5634 54.4253 61.3752Z" fill="#6053AD"/>
<path fill-rule="evenodd" clip-rule="evenodd" d="M51.5445 62.3234C52.5744 62.3234 53.6066 62.2377 54.6083 62.071C54.6177 62.0694 54.6279 62.067 54.6389 62.0638C61.7139 60.0965 66.378 55.5854 65.4918 51.5721C65.2397 50.436 64.5703 49.438 63.498 48.6116C63.4823 48.5989 63.465 48.5885 63.4462 48.5806C62.3856 48.0804 61.2426 47.9994 60.0406 48.3329C60.6039 47.0682 60.7477 45.6558 60.446 44.2863C59.6777 40.8136 56.258 38.62 52.8218 39.3965C51.2404 39.7537 49.8806 40.6803 48.9661 42.0212C47.545 41.1399 45.8811 40.8613 44.2455 41.2304C41.91 41.7568 39.9963 43.8647 39.4848 46.4703C39.0441 48.7187 39.7394 50.8504 41.3585 52.3152C40.1801 52.4915 39.1266 53.1893 38.4997 54.2468C38.4966 54.2516 38.4934 54.2572 38.4903 54.2635C38.3088 54.6184 38.1603 54.978 38.0543 55.3353C38.0307 55.4139 38.0401 55.502 38.0849 55.5735C39.3057 57.5718 41.1864 59.2605 43.5267 60.4537C45.9212 61.6756 48.6951 62.3234 51.5445 62.3234ZM54.4998 61.497C53.5336 61.6589 52.539 61.7399 51.5445 61.7399C46.0367 61.7399 41.1063 59.3057 38.6458 55.3806C38.7377 55.1019 38.8556 54.8185 38.9993 54.5398C39.6545 53.4394 40.8518 52.7963 42.1197 52.8607C42.247 52.8654 42.3648 52.7868 42.4072 52.663C42.4497 52.5415 42.4049 52.4057 42.3012 52.3295C40.444 51.0124 39.6027 48.864 40.0505 46.5847C40.5195 44.2005 42.254 42.276 44.3704 41.7973C45.9448 41.4424 47.5497 41.7497 48.8884 42.6619C48.952 42.7071 49.0321 42.7214 49.1099 42.7048C49.1853 42.6905 49.2537 42.6428 49.2937 42.5761C50.1257 41.2376 51.4219 40.3087 52.9467 39.9633C56.0718 39.2583 59.1851 41.2543 59.8827 44.4125C60.208 45.8797 59.9676 47.3992 59.2087 48.6902C59.1545 48.7807 59.1545 48.8926 59.204 48.9831C59.2747 49.107 59.4326 49.1618 59.5622 49.1094C60.8726 48.583 62.0533 48.5782 63.1728 49.0951C64.1178 49.831 64.7094 50.7075 64.9286 51.6983C65.7346 55.3425 61.153 59.6439 54.4998 61.497Z" fill="#6053AD"/>
<path fill-rule="evenodd" clip-rule="evenodd" d="M50.0279 61.5544C51.0995 61.5544 52.2086 61.4269 53.334 61.1697C58.1727 60.0564 61.7596 56.8247 62.4686 52.9341C62.7096 51.6092 62.2603 51.1115 61.9678 50.9311C61.4905 50.6378 60.7956 50.7844 60.1545 51.3134C55.606 55.0645 48.7433 56.6419 43.074 55.2377C42.2762 55.0381 41.5859 55.2112 41.2771 55.6873C41.0875 55.9758 40.8863 56.6251 41.6514 57.7191C43.3829 60.1814 46.4878 61.5544 50.0279 61.5544ZM61.4086 51.3687C61.5092 51.3687 61.6005 51.3904 61.6754 51.4361C61.9515 51.6068 62.0357 52.1142 61.907 52.8259C61.2402 56.4856 57.8264 59.5346 53.2077 60.595C48.5913 61.6578 44.2369 60.393 42.1171 57.3729C41.7053 56.7862 41.5719 56.2908 41.752 56.0143C41.9229 55.7522 42.3885 55.6729 42.9407 55.8075C48.7714 57.2527 55.8329 55.6296 60.5125 51.7703C60.8284 51.5106 61.1536 51.3687 61.4086 51.3687Z" fill="#6053AD"/>
<path d="M51.4344 53.0897C51.5761 53.0897 51.713 53.0123 51.7776 52.8816C51.9841 52.4632 52.4418 52.231 52.9119 52.3036C53.1184 52.335 53.3124 52.1971 53.3472 51.9964C53.3795 51.7956 53.2378 51.6045 53.0313 51.5731C52.2254 51.4497 51.4468 51.8464 51.0936 52.5599C51.0015 52.7438 51.0811 52.9639 51.2702 53.0534C51.3224 53.0776 51.3796 53.0897 51.4344 53.0897Z" fill="#6053AD"/>
<path d="M51.4695 53.0927C51.5727 53.0927 51.6736 53.0591 51.7424 52.9919C51.864 52.877 51.8411 52.7072 51.692 52.6117C51.1162 52.2528 50.2882 52.2263 49.678 52.5463C49.5174 52.6312 49.4762 52.7992 49.584 52.9229C49.6941 53.0449 49.912 53.0785 50.0725 52.9937C50.4304 52.8062 50.9144 52.8222 51.2493 53.0326C51.3135 53.0732 51.3915 53.0927 51.4695 53.0927Z" fill="#6053AD"/>
<path d="M51.6026 55.401C51.6187 55.401 51.6343 55.3978 51.6495 55.3915C51.7673 55.3488 51.8411 55.154 51.8155 54.9592C51.6708 53.869 51.6083 53.4296 51.482 52.5983C51.4522 52.4035 51.3344 52.2847 51.218 52.3346C51.1017 52.3845 51.0321 52.584 51.0619 52.7764C51.1868 53.5982 51.2478 54.0353 51.3912 55.116C51.4139 55.2846 51.5033 55.401 51.6026 55.401Z" fill="#6053AD"/>
<path d="M61.8446 52.4715C61.2837 53.1893 60.5602 53.8126 59.7791 54.3651C58.9929 54.9176 58.1467 55.4016 57.2754 55.8455C57.1853 55.8904 57.1528 55.9967 57.2003 56.0793C57.2479 56.1596 57.3505 56.1926 57.4382 56.1549C58.352 55.7605 59.2483 55.3237 60.102 54.8043C60.9533 54.2825 61.7669 53.6757 62.4454 52.9177C62.5831 52.7643 62.5631 52.5376 62.4029 52.4077C62.2401 52.2802 61.9998 52.2991 61.8621 52.4502C61.8571 52.4565 61.8521 52.4628 61.8471 52.4691L61.8446 52.4715Z" fill="#6053AD"/>
<path d="M41.3207 57.6185C42.2441 58.018 43.2149 58.227 44.1786 58.3455C45.1446 58.4639 46.1131 58.4895 47.0744 58.4709C47.1622 58.4686 47.2311 58.3989 47.2287 58.313C47.2263 58.2317 47.1622 58.1666 47.0792 58.162C46.1297 58.1132 45.1826 58.0203 44.2616 57.8415C43.3431 57.6627 42.4411 57.3956 41.6411 56.9798H41.6388C41.4608 56.8869 41.2424 56.952 41.1474 57.1261C41.0525 57.298 41.1213 57.514 41.297 57.6069C41.3065 57.6092 41.3136 57.6139 41.3207 57.6185Z" fill="#6053AD"/>
<path fill-rule="evenodd" clip-rule="evenodd" d="M51.4901 62.3243C52.5234 62.3243 53.5567 62.2425 54.5618 62.0765C54.5743 62.075 54.5869 62.0718 54.5995 62.0672C61.7031 60.1268 66.3848 55.6639 65.4903 51.685C65.2479 50.6119 64.6241 49.6628 63.6356 48.8679C63.7933 47.498 63.7203 46.121 63.4167 44.7721C63.2354 43.9655 62.9718 43.1777 62.6352 42.4272C62.6117 42.3782 62.5811 42.3361 62.5411 42.3033C59.7024 39.8674 55.6751 38.4717 51.4901 38.4717C47.7335 38.4717 44.1393 39.5728 41.3642 41.5739C38.5891 43.5774 36.8638 46.308 36.5131 49.2607C36.51 49.2887 36.51 49.316 36.5131 49.3425C36.5625 49.796 36.6379 50.2519 36.7391 50.6961C37.0427 52.045 37.5652 53.3214 38.2973 54.495C38.1537 54.7872 38.0384 55.0818 37.9489 55.374C37.9183 55.4722 38.0434 55.5837 38.0976 55.6725C39.4801 57.6082 41.1096 59.0805 43.4497 60.4821C45.8529 61.6884 48.6327 62.3243 51.4901 62.3243ZM54.4253 61.3752C53.4649 61.5318 52.4764 61.6113 51.4901 61.6113C46.027 61.6113 41.1383 59.2454 38.6856 55.4301C38.7751 55.166 38.8904 54.9018 39.0293 54.6376C39.0881 54.5254 39.0811 54.3875 39.0105 54.2799C38.269 53.1321 37.7418 51.8743 37.4405 50.5394C37.3487 50.135 37.2804 49.7189 37.231 49.3051C37.9466 43.533 44.0663 39.187 51.4901 39.187C55.475 39.187 59.3023 40.4986 62.0091 42.7919C62.3127 43.4769 62.5505 44.1946 62.7152 44.9287C63.0142 46.2613 63.0777 47.6242 62.8965 48.9778C62.88 49.104 62.9341 49.2303 63.0353 49.3074C63.9816 50.0251 64.57 50.8761 64.7865 51.8416C65.5821 55.3787 61.0323 59.5634 54.4253 61.3752Z" fill="#6053AD"/>
<path fill-rule="evenodd" clip-rule="evenodd" d="M71.0961 50.0136C71.2537 50.0136 71.412 50.0013 71.5711 49.9769C72.5908 49.8254 73.483 49.1973 74.0809 48.2099C74.6649 47.2446 74.8967 46.0446 74.7344 44.8348C74.3984 42.3078 72.4263 40.5066 70.3452 40.8146C68.2618 41.1249 66.8413 43.432 67.1796 45.9591C67.3418 47.1688 67.8795 48.2539 68.6929 49.0115C69.3974 49.6665 70.2363 50.0136 71.0961 50.0136ZM70.8133 41.6773C72.2988 41.6773 73.6406 43.0703 73.8932 44.9595C74.0276 45.9591 73.8399 46.9415 73.3648 47.7285C72.9014 48.491 72.2223 48.9749 71.4506 49.0897C70.6812 49.2046 69.9003 48.9382 69.256 48.3395C68.5932 47.7211 68.1552 46.8315 68.0208 45.832C67.7497 43.7962 68.8458 41.9437 70.4634 41.7017C70.5808 41.6854 70.6975 41.6773 70.8133 41.6773Z" fill="#6053AD"/>
<path fill-rule="evenodd" clip-rule="evenodd" d="M71.9742 49.2441C72.0834 49.2441 72.1919 49.2362 72.2996 49.2203C72.5789 49.1798 72.8489 49.087 73.1005 48.9417C73.1128 48.9354 73.1251 48.9275 73.1374 48.9179C74.3422 48.0132 74.9699 46.3252 74.7368 44.6182C74.4691 42.6683 73.1351 41.0922 71.4872 40.785C71.4641 40.7819 71.4403 40.7803 71.4157 40.7803C71.3233 40.7827 71.2333 40.7898 71.1479 40.8017C69.4908 41.0445 68.3991 43.1278 68.7153 45.4491C68.8653 46.5514 69.3085 47.549 69.9593 48.2561C70.5525 48.9013 71.2587 49.2441 71.9742 49.2441ZM72.7404 48.3156C72.5696 48.4108 72.3873 48.4727 72.2027 48.4989C71.6072 48.5846 70.9933 48.3204 70.4717 47.7561C69.9201 47.1561 69.5439 46.3014 69.4146 45.3467C69.1515 43.423 69.9732 41.7088 71.2472 41.5231C71.2964 41.5167 71.3464 41.512 71.3972 41.5088C72.7335 41.7778 73.816 43.0921 74.0375 44.7205C74.2337 46.1562 73.7259 47.5633 72.7404 48.3156Z" fill="#6053AD"/>
<path fill-rule="evenodd" clip-rule="evenodd" d="M57.376 34.6234C57.8398 34.6234 58.4207 34.3568 59.1092 33.8235C60.1897 32.9921 61.4639 32.6102 62.5684 32.3481C62.6544 32.3255 62.7333 32.2803 62.7931 32.2171C63.3955 31.5596 63.4696 30.7168 62.9819 30.0728C62.456 29.3747 61.2512 28.9273 59.7475 29.4967C58.8152 29.7949 57.1752 30.5903 56.5776 32.5786C56.2883 33.5456 56.3792 34.185 56.8525 34.481C57.0071 34.5759 57.1816 34.6234 57.376 34.6234ZM62.2098 31.5776C61.1053 31.8488 59.7236 32.2803 58.5546 33.1818C57.7729 33.7851 57.3928 33.8122 57.333 33.7874C57.3354 33.7874 57.1848 33.5908 57.4215 32.8045C57.9115 31.1732 59.2718 30.5225 60.0391 30.2784C60.0471 30.2754 60.0551 30.2724 60.063 30.2694C61.1316 29.8627 61.9397 30.1203 62.2696 30.5541C62.5014 30.8636 62.4799 31.2297 62.2098 31.5776Z" fill="#6053AD"/>
<path fill-rule="evenodd" clip-rule="evenodd" d="M39.3312 37.7004C39.8476 37.7004 40.3958 37.4059 40.5278 36.8398C40.8736 35.3556 41.9109 33.8184 43.2327 32.8336C43.3464 32.7484 43.4101 32.6104 43.401 32.4654C43.3919 32.3227 43.3123 32.1938 43.1872 32.1248C42.0338 31.4782 41.0214 31.3723 40.1797 31.8073C39.0582 32.3894 38.3416 33.9266 38.0504 36.3796C37.9799 36.9848 38.4372 37.5555 39.0923 37.6774C39.1697 37.6935 39.2516 37.7004 39.3312 37.7004ZM42.2067 32.5873C40.9896 33.6781 40.0569 35.1807 39.7157 36.6465C39.6793 36.803 39.4336 36.8835 39.2447 36.849C39.0559 36.8122 38.8603 36.6488 38.8808 36.4808C39.131 34.3546 39.7134 32.9969 40.5596 32.5597C41.0101 32.325 41.5629 32.3365 42.2067 32.5873Z" fill="#6053AD"/>
<path opacity="0.3" d="M42.1944 32.3154C40.2178 33.8492 39.3588 35.3881 39.6177 36.9321C40.4486 35.4405 41.452 34.0726 42.628 32.8284C42.6689 32.8269 42.5243 32.6559 42.1944 32.3154Z" fill="#6053AD"/>
<path fill-rule="evenodd" clip-rule="evenodd" d="M51.6585 62.2364C59.8893 62.2364 66.5857 56.8859 66.5857 50.3101C66.5857 43.7343 59.8893 38.3838 51.6585 38.3838C43.4277 38.3838 36.7313 43.7343 36.7313 50.3101C36.7313 56.8859 43.4277 62.2364 51.6585 62.2364ZM51.6585 38.9576C59.5726 38.9576 66.0108 44.0518 66.0108 50.3101C66.0108 56.5684 59.5726 61.6602 51.6585 61.6602C43.7444 61.6602 37.3062 56.5684 37.3062 50.3101C37.3062 44.0518 43.7444 38.9576 51.6585 38.9576Z" fill="#6053AD"/>
<path fill-rule="evenodd" clip-rule="evenodd" d="M46.2677 52.2188C45.3504 52.6226 44.1817 51.7895 43.6557 50.3585C43.1296 48.9274 43.4458 47.4402 44.3631 47.0364C45.2804 46.6326 46.4491 47.4657 46.9752 48.8968C47.5012 50.3278 47.1825 51.8151 46.2677 52.2188ZM44.9039 49.241C44.4816 49.2083 44.1503 48.8394 44.1665 48.4173C44.1795 47.9931 44.5336 47.6755 44.9559 47.7063C45.3782 47.737 45.7096 48.1079 45.6966 48.53C45.6803 48.9542 45.3262 49.2718 44.9039 49.241Z" fill="#6053AD"/>
<path fill-rule="evenodd" clip-rule="evenodd" d="M54.6197 45.3955C53.7852 45.4289 53.2289 46.4912 53.3758 47.7652C53.5204 49.0414 54.3148 50.0459 55.147 50.0103C55.9793 49.9768 56.5378 48.9145 56.3909 47.6405C56.244 46.3643 55.4519 45.3598 54.6197 45.3955ZM54.3804 46.2189C54.0624 46.3731 54.0294 46.82 54.3084 47.2155C54.5874 47.611 55.0703 47.8076 55.3883 47.6512C55.7062 47.497 55.7392 47.0501 55.4603 46.6546C55.1813 46.2592 54.6983 46.0648 54.3804 46.2189ZM54.2779 49.0655C54.1058 48.8874 54.0661 48.6492 54.1905 48.5335C54.3124 48.4199 54.5507 48.4711 54.7229 48.6492C54.895 48.8273 54.9347 49.0655 54.8129 49.1813C54.6884 49.297 54.4501 49.2436 54.2779 49.0655Z" fill="#6053AD"/>
<path fill-rule="evenodd" clip-rule="evenodd" d="M51.0458 25.3586C51.7716 26.738 51.895 28.2487 51.7869 29.2375L50.5529 29.1C50.6394 28.3095 50.5361 27.0613 49.9494 25.9462C49.3782 24.8608 48.3373 23.873 46.4624 23.5472L46.6731 22.3125C48.947 22.7076 50.3044 23.9497 51.0458 25.3586Z" fill="#6053AD"/>
<path d="M48.7588 23.0818C48.7588 23.9317 48.0734 24.6207 47.2278 24.6207C46.3822 24.6207 45.6968 23.9317 45.6968 23.0818C45.6968 22.2319 46.3822 21.543 47.2278 21.543C48.0734 21.543 48.7588 22.2319 48.7588 23.0818Z" fill="#6053AD"/>
<path fill-rule="evenodd" clip-rule="evenodd" d="M53.9129 23.0429C53.9135 23.0427 53.9124 23.0482 53.9081 23.0603C53.9103 23.0492 53.9124 23.0432 53.9129 23.0429ZM53.4729 23.6875C53.3974 23.7037 53.3169 23.7229 53.2313 23.7452C52.3612 23.9716 51.194 24.4638 49.959 25.1857C48.7239 25.9076 47.7211 26.684 47.095 27.332C47.0334 27.3958 46.977 27.4567 46.9256 27.5146C47.0011 27.4983 47.0817 27.4792 47.1673 27.4569C48.0373 27.2304 49.2045 26.7383 50.4396 26.0164C51.6746 25.2945 52.6774 24.5181 53.3035 23.87C53.3651 23.8063 53.4215 23.7454 53.4729 23.6875ZM46.1507 27.5803C46.1511 27.5799 46.1574 27.5811 46.1681 27.5846C46.1555 27.5824 46.1502 27.5806 46.1507 27.5803ZM46.4856 28.1591C46.485 28.1594 46.4861 28.1538 46.4904 28.1418C46.4883 28.1529 46.4861 28.1589 46.4856 28.1591ZM54.2304 23.6174C54.243 23.6197 54.2483 23.6214 54.2478 23.6218C54.2474 23.6221 54.2411 23.621 54.2304 23.6174ZM50.9627 26.9206C53.5487 25.4089 55.3033 23.5927 54.8817 22.864C54.46 22.1352 52.0218 22.7699 49.4358 24.2815C46.8498 25.7931 45.0952 27.6093 45.5169 28.3381C45.9385 29.0668 48.3767 28.4322 50.9627 26.9206Z" fill="#6053AD"/>
</g>
<path fill-rule="evenodd" clip-rule="evenodd" d="M99.8856 69.6319L107.162 69.746C107.925 69.7579 108.448 70.5195 108.185 71.2356L104.016 82.5788C103.923 82.8304 103.925 83.1071 104.021 83.3574L108.147 94.1191C108.425 94.8444 107.889 95.6232 107.112 95.6232H84.6828C84.0711 95.6232 83.5751 95.1273 83.5751 94.5156L83.5751 90.7229C83.5751 90.1421 84.0238 89.6599 84.6032 89.6181L99.7507 88.5267L99.8856 69.6319ZM9.69554 69.6319L2.28382 69.7463C1.521 69.7581 0.998157 70.5195 1.2611 71.2356L5.42579 82.5791C5.51809 82.8306 5.51618 83.1069 5.4204 83.357L1.29902 94.1194C1.02127 94.8447 1.55679 95.6232 2.33346 95.6232H24.7666C25.3784 95.6232 25.8743 95.1273 25.8743 94.5156L25.8743 90.723C25.8743 90.1421 25.4256 89.6599 24.8462 89.6181L9.69553 88.5267L9.69554 69.6319Z" fill="#8C7EDC"/>
<path d="M99.8856 69.6319L99.7835 64.7204C99.7709 64.1178 99.2788 63.6357 98.676 63.6357H10.8032C10.1915 63.6357 9.69553 64.1317 9.69553 64.7434L9.69554 69.6319L9.69553 88.5267H99.7507L99.8856 69.6319Z" fill="#BAAEFF"/>
<path d="M34.2431 72.0645V75.0306H39.0264V77.7878H34.2431V81.0046H39.6531V83.8662H30.6713V69.2029H39.6531V72.0645H34.2431ZM45.5438 81.109H50.2227V83.8662H41.972V69.2029H45.5438V81.109ZM55.4982 69.2029V83.8662H51.9264V69.2029H55.4982ZM68.6351 69.2029V72.0645H64.7499V83.8662H61.1781V72.0645H57.2929V69.2029H68.6351ZM73.9995 72.0645V75.0306H78.7828V77.7878H73.9995V81.0046H79.4095V83.8662H70.4277V69.2029H79.4095V72.0645H73.9995Z" fill="#6053AD"/>
<path d="M9.53955 88.5586H25.8888L26.0702 95.7586L9.53955 88.5586Z" fill="#6053AD"/>
<path d="M99.9068 88.5586H83.3762L83.4839 95.7586L99.9068 88.5586Z" fill="#6053AD"/>
<defs>
<linearGradient id="paint0_linear_26744_21094" x1="23.6791" y1="83.6686" x2="23.6791" y2="114.035" gradientUnits="userSpaceOnUse">
<stop stop-color="#6955E8"/>
<stop offset="1" stop-color="#E5E1FF"/>
</linearGradient>
<linearGradient id="paint1_linear_26744_21094" x1="86.8693" y1="83.6686" x2="86.8693" y2="114.035" gradientUnits="userSpaceOnUse">
<stop stop-color="#6955E8"/>
<stop offset="1" stop-color="#E5E1FF"/>
</linearGradient>
<radialGradient id="paint2_radial_26744_21094" cx="0" cy="0" r="1" gradientUnits="userSpaceOnUse" gradientTransform="translate(53.6212 44.8038) rotate(90) scale(44.3077 44.0816)">
<stop stop-color="#DAD4FF"/>
<stop offset="1" stop-color="#8F7EFC"/>
</radialGradient>
<linearGradient id="paint3_linear_26744_21094" x1="53.621" y1="9.35742" x2="53.621" y2="80.2497" gradientUnits="userSpaceOnUse">
<stop stop-color="#C0B6FF"/>
<stop offset="1" stop-color="#A293FF"/>
</linearGradient>
</defs>
</svg>
