<svg width="108" height="108" viewBox="0 0 108 108" fill="none" xmlns="http://www.w3.org/2000/svg">
<path d="M45.1836 65.5674C45.1836 64.3501 44.1968 63.3633 42.9795 63.3633L25.8979 63.3633C24.6806 63.3633 23.6938 64.3501 23.6938 65.5674V103.194C23.6938 104.98 25.7079 106.025 27.168 104.995L44.2497 92.9504C44.8353 92.5375 45.1836 91.8656 45.1836 91.1491V65.5674Z" fill="url(#paint0_linear_26744_20875)"/>
<path d="M65.0205 66.1181C65.0205 64.9009 66.0073 63.9141 67.2246 63.9141L84.3062 63.9141C85.5235 63.9141 86.5103 64.9009 86.5103 66.1181V103.745C86.5103 105.531 84.4962 106.575 83.0361 105.546L65.9544 93.5012C65.3688 93.0882 65.0205 92.4164 65.0205 91.6999V66.1181Z" fill="url(#paint1_linear_26744_20875)"/>
<path d="M50.0741 1.99919C52.1545 0.764355 54.7433 0.764355 56.8238 1.99919L72.404 11.2465L88.2026 20.1157C90.3122 21.3001 91.6066 23.542 91.5775 25.9612L91.3591 44.0777L91.5775 62.1943C91.6066 64.6134 90.3122 66.8554 88.2026 68.0397L72.404 76.9089L56.8238 86.1563C54.7433 87.3911 52.1545 87.3911 50.0741 86.1563L34.4938 76.9089L18.6953 68.0397C16.5857 66.8554 15.2913 64.6134 15.3204 62.1943L15.5387 44.0777L15.3204 25.9612C15.2913 23.542 16.5857 21.3001 18.6953 20.1157L34.4938 11.2465L50.0741 1.99919Z" fill="url(#paint2_radial_26744_20875)"/>
<path d="M48.9721 9.71306C51.0526 8.47822 53.6413 8.47822 55.7218 9.71306L67.9849 16.9916L80.4198 23.9724C82.5295 25.1568 83.8239 27.3987 83.7947 29.8179L83.6229 44.0773L83.7947 58.3367C83.8239 60.7559 82.5295 62.9978 80.4198 64.1822L67.9849 71.163L55.7218 78.4416C53.6413 79.6764 51.0526 79.6764 48.9721 78.4416L36.709 71.163L24.2741 64.1822C22.1644 62.9978 20.8701 60.7559 20.8992 58.3367L21.071 44.0773L20.8992 29.8179C20.8701 27.3987 22.1644 25.1568 24.2741 23.9724L36.709 16.9916L48.9721 9.71306Z" fill="#DC8253"/>
<path d="M50.074 10.8151C52.1545 9.58027 54.7433 9.58027 56.8238 10.8151L68.613 17.8124L80.5674 24.5235C82.677 25.7078 83.9714 27.9498 83.9423 30.3689L83.7771 44.0773L83.9423 57.7857C83.9714 60.2049 82.677 62.4468 80.5674 63.6312L68.613 70.3423L56.8238 77.3395C54.7433 78.5744 52.1545 78.5744 50.074 77.3395L38.2848 70.3423L26.3304 63.6312C24.2208 62.4468 22.9264 60.2049 22.9555 57.7857L23.1207 44.0773L22.9555 30.3689C22.9264 27.9498 24.2208 25.7078 26.3304 24.5235L38.2848 17.8124L50.074 10.8151Z" fill="url(#paint3_linear_26744_20875)"/>
<path fill-rule="evenodd" clip-rule="evenodd" d="M40.2245 67.4297C40.7413 68.0251 41.2956 68.587 41.884 69.1119L43.2804 67.4939C43.9126 68.0576 44.5886 68.5701 45.302 69.0266C45.4787 68.7427 45.6551 68.4587 45.8315 68.1745C45.1619 67.7465 44.5276 67.2659 43.9343 66.7373L44.662 65.8939C45.394 66.5469 46.1933 67.1203 47.0464 67.6045L47.5459 66.699C46.265 65.9705 45.1179 65.0286 44.1539 63.9141L40.2245 67.4297ZM51.7275 69.9318C51.6707 70.3412 51.3126 70.5524 50.6322 70.407C50.2589 70.3257 49.888 70.2301 49.5195 70.12L49.8904 68.8571C50.2269 68.9577 50.5661 69.0454 50.9081 69.12C51.5238 69.2519 51.782 69.5396 51.7275 69.9318ZM48.7117 67.2829L46.6224 72.1579C47.2986 72.4546 47.9924 72.7095 48.6999 72.921L49.2632 70.997C49.4137 71.0419 49.5647 71.0847 49.7163 71.1252C50.0965 71.9348 50.5397 72.7133 51.0418 73.4534C51.8555 73.5828 52.6771 73.6565 53.5009 73.6741C52.8419 72.9777 52.2442 72.2258 51.7143 71.4267C52.9716 71.3428 53.5059 70.6903 53.5159 70.0333C53.5185 69.0941 52.7377 68.394 51.2224 68.0878C50.3601 67.9065 49.5187 67.6368 48.7117 67.2829ZM58.8044 67.3951C57.5868 67.8972 56.2993 68.2092 54.987 68.3203C55.1344 70.0851 55.2819 71.8497 55.4295 73.6141C57.2714 73.4581 59.0785 73.0203 60.7875 72.316L60.4004 71.3558C59.4274 71.7574 58.4193 72.0678 57.389 72.283C57.3117 71.9026 57.2337 71.5221 57.1551 71.1416C58.0045 70.9644 58.8379 70.7179 59.647 70.4045L59.2937 69.4714C58.5343 69.7657 57.7521 69.9971 56.9548 70.1634L56.7392 69.1112C57.5782 68.9361 58.3992 68.6835 59.1915 68.3567C59.0623 68.0357 58.9332 67.7152 58.8042 67.3951H58.8044ZM63.381 64.1888C62.4484 65.2076 61.3585 66.0702 60.1526 66.7437L62.6793 71.4012C64.3716 70.4557 65.9014 69.245 67.2105 67.8152L66.4631 67.1075C65.7108 67.9279 64.881 68.6737 63.9851 69.3344L63.3105 68.39C64.0478 67.8465 64.7373 67.2409 65.3713 66.5799L64.6666 65.8814C64.0714 66.5019 63.4243 67.0703 62.7324 67.5806L62.1102 66.7099C62.8398 66.1719 63.5155 65.5646 64.1281 64.8965L63.381 64.1888Z" fill="#C47B4F"/>
<g opacity="0.8">
<path fill-rule="evenodd" clip-rule="evenodd" d="M35.9153 54.6186C36.0232 54.6186 36.1266 54.577 36.2069 54.4962C36.3332 54.3665 36.3723 54.1707 36.3057 53.9994C35.1529 51.0407 35.0381 47.8373 35.9658 44.4772C36.014 44.301 35.9566 44.1126 35.8234 43.9976C35.688 43.885 35.502 43.8703 35.3527 43.9584C33.5202 45.067 32.434 47.1496 32.5144 49.3937C32.5947 51.6378 33.8302 53.6225 35.7362 54.577C35.7936 54.6063 35.8556 54.6186 35.9153 54.6186ZM34.8613 45.4512C34.3124 48.1114 34.3951 50.6736 35.1047 53.1013C34.0575 52.1934 33.41 50.8425 33.3571 49.3595C33.302 47.8593 33.8623 46.4448 34.8613 45.4512Z" fill="#B76941"/>
<path fill-rule="evenodd" clip-rule="evenodd" d="M53.7709 64.5709C57.2372 64.5709 60.527 63.6914 63.3246 62.0168C68.553 58.8845 71.5526 53.2559 71.5526 46.5744C71.5526 41.5819 69.6488 36.8738 66.1919 33.315C62.7535 29.7754 58.2285 27.8262 53.4506 27.8262C43.602 27.8262 35.8059 35.2474 35.2881 45.0998L35.1535 45.4684C35.1504 45.4749 35.1481 45.4813 35.1465 45.4877C35.107 45.6106 35.0745 45.7118 35.0444 45.8034C34.8052 46.5334 34.8052 46.5985 34.8099 48.2634C34.8099 48.5357 34.8099 48.8538 34.8099 49.2272C34.8099 52.3644 37.0549 58.0966 41.2688 60.7109L41.7261 61.0578C41.7385 61.0675 41.7517 61.0763 41.7656 61.0843C45.3595 63.2408 49.2948 64.4432 53.1395 64.5612C53.35 64.566 53.5604 64.5693 53.7709 64.5709ZM53.4506 28.7105C62.9624 28.7105 70.7006 36.7244 70.7006 46.5744C70.7006 52.933 67.8565 58.2821 62.8998 61.2506C56.9934 64.7877 49.0672 64.4359 42.2114 60.3302L41.754 59.9856C41.7447 59.9776 41.7339 59.9704 41.7215 59.9639C37.8211 57.552 35.6619 52.0849 35.6619 49.2272C35.6619 48.8538 35.6619 48.5333 35.6619 48.261C35.6573 46.678 35.6573 46.678 35.85 46.0877C35.8802 45.9961 35.915 45.8949 35.9521 45.7745L36.1077 45.348C36.1239 45.3046 36.1332 45.2588 36.1355 45.213C36.5952 35.8064 44.0408 28.7105 53.4506 28.7105Z" fill="#B76941"/>
<path fill-rule="evenodd" clip-rule="evenodd" d="M51.6494 63.0395C60.9367 63.0395 68.4904 56.8565 68.4904 49.2602C68.4904 41.6616 60.9367 35.481 51.6494 35.481C42.3645 35.481 34.8085 41.6616 34.8085 49.2602C34.8085 56.8565 42.3645 63.0395 51.6494 63.0395ZM51.6494 36.183C60.545 36.183 67.7811 42.0483 67.7811 49.2602C67.7811 56.4698 60.545 62.3351 51.6494 62.3351C42.7538 62.3351 35.5178 56.4698 35.5178 49.2602C35.5178 42.0483 42.7538 36.183 51.6494 36.183Z" fill="#B76941"/>
<path fill-rule="evenodd" clip-rule="evenodd" d="M51.6492 61.5088C60.0919 61.5088 66.9591 56.1869 66.9591 49.6445C66.9591 43.102 60.0919 37.7778 51.6492 37.7778C43.2064 37.7778 36.3393 43.102 36.3393 49.6445C36.3393 56.1869 43.2064 61.5088 51.6492 61.5088ZM51.6492 38.6263C59.6081 38.6263 66.0843 43.569 66.0843 49.6445C66.0843 55.7176 59.6081 60.6603 51.6492 60.6603C43.6903 60.6603 37.2141 55.7176 37.2141 49.6445C37.2141 43.569 43.6903 38.6263 51.6492 38.6263Z" fill="#B76941"/>
<path fill-rule="evenodd" clip-rule="evenodd" d="M51.3179 61.5088C52.3512 61.5088 53.3845 61.4274 54.3895 61.2622C54.4021 61.2607 54.4147 61.2576 54.4272 61.2529C61.5309 59.3225 66.2125 54.8823 65.3181 50.9237C65.0756 49.8561 64.4519 48.9118 63.4633 48.121C63.621 46.7581 63.548 45.3881 63.2444 44.0461C63.0632 43.2436 62.7996 42.4598 62.463 41.7132C62.4394 41.6644 62.4088 41.6225 62.3688 41.5899C59.5302 39.1664 55.5029 37.7778 51.3179 37.7778C47.5613 37.7778 43.9671 38.8733 41.192 40.8643C38.4169 42.8576 36.6916 45.5742 36.3409 48.5118C36.3377 48.5397 36.3377 48.5668 36.3409 48.5932C36.3903 49.0444 36.4656 49.4979 36.5668 49.9399C36.8705 51.2819 37.393 52.5518 38.125 53.7194C37.9814 54.0101 37.8008 54.1723 37.7113 54.463C37.6807 54.5607 37.9041 54.8519 37.9582 54.9403C39.2585 56.8496 40.9703 58.3638 43.2774 59.676C45.6806 60.8761 48.4604 61.5088 51.3179 61.5088ZM54.253 60.5645C53.2927 60.7203 52.3041 60.7994 51.3179 60.7994C45.8548 60.7994 40.966 58.4456 38.5134 54.6498C38.6028 54.3869 38.7182 54.1241 38.8571 53.8613C38.9159 53.7496 38.9088 53.6124 38.8382 53.5054C38.0968 52.3634 37.5695 51.1121 37.2683 49.784C37.1765 49.3816 37.1082 48.9676 37.0588 48.556C37.7743 42.8134 43.8941 38.4896 51.3179 38.4896C55.3028 38.4896 59.13 39.7944 61.8369 42.0761C62.1405 42.7575 62.3782 43.4716 62.543 44.2019C62.8419 45.5277 62.9055 46.8837 62.7242 48.2303C62.7078 48.3559 62.7619 48.4815 62.8631 48.5583C63.8093 49.2723 64.3978 50.1189 64.6143 51.0795C65.4099 54.5986 60.8601 58.7619 54.253 60.5645Z" fill="#B76941"/>
<path fill-rule="evenodd" clip-rule="evenodd" d="M51.3722 61.5065C52.4021 61.5065 53.4344 61.4211 54.436 61.2553C54.4454 61.2537 54.4557 61.2513 54.4667 61.2482C61.5417 59.2909 66.2057 54.8028 65.3196 50.81C65.0674 49.6797 64.3981 48.6868 63.3258 47.8645C63.3101 47.8519 63.2928 47.8416 63.2739 47.8337C62.2134 47.3361 61.0703 47.2555 59.8684 47.5873C60.4317 46.329 60.5754 44.9238 60.2738 43.5613C59.5054 40.1064 56.0858 37.924 52.6496 38.6965C51.0682 39.0519 49.7083 39.9737 48.7939 41.3078C47.3728 40.431 45.7089 40.1538 44.0733 40.5211C41.7377 41.0448 39.824 43.1419 39.3126 45.7342C38.8719 47.9712 39.5671 50.092 41.1862 51.5493C40.0078 51.7246 38.9544 52.4189 38.3275 53.4711C38.3243 53.4758 38.3212 53.4813 38.318 53.4876C38.1366 53.8407 37.9881 54.1985 37.882 54.554C37.8585 54.6322 37.8679 54.7199 37.9127 54.7909C39.1335 56.7791 41.0142 58.4591 43.3545 59.6463C45.7489 60.8619 48.5229 61.5065 51.3722 61.5065ZM54.3276 60.6842C53.3613 60.8453 52.3668 60.9259 51.3722 60.9259C45.8644 60.9259 40.9341 58.5041 38.4736 54.599C38.5655 54.3218 38.6833 54.0398 38.8271 53.7625C39.4823 52.6678 40.6795 52.028 41.9475 52.0919C42.0747 52.0967 42.1926 52.0185 42.235 51.8953C42.2774 51.7744 42.2326 51.6393 42.1289 51.5635C40.2718 50.2531 39.4304 48.1157 39.8782 45.848C40.3472 43.476 42.0818 41.5613 44.1982 41.085C45.7725 40.732 47.3775 41.0377 48.7161 41.9452C48.7798 41.9902 48.8599 42.0045 48.9377 41.9879C49.0131 41.9737 49.0814 41.9263 49.1215 41.8599C49.9534 40.5282 51.2497 39.604 52.7745 39.2604C55.8996 38.559 59.0129 40.5448 59.7105 43.6869C60.0357 45.1466 59.7953 46.6584 59.0364 47.9427C58.9822 48.0328 58.9822 48.1441 59.0317 48.2342C59.1024 48.3574 59.2603 48.4119 59.39 48.3598C60.7003 47.8361 61.8811 47.8314 63.0005 48.3456C63.9456 49.0778 64.5372 49.9498 64.7563 50.9356C65.5624 54.5611 60.9808 58.8406 54.3276 60.6842Z" fill="#B76941"/>
<path fill-rule="evenodd" clip-rule="evenodd" d="M49.8555 60.7421C50.9271 60.7421 52.0362 60.6153 53.1617 60.3593C58.0003 59.2517 61.5872 56.0365 62.2962 52.1658C62.5372 50.8477 62.088 50.3525 61.7955 50.173C61.3182 49.8812 60.6232 50.0271 59.9821 50.5534C55.4336 54.2854 48.571 55.8547 42.9017 54.4576C42.1038 54.259 41.4136 54.4313 41.1047 54.905C40.9152 55.192 40.714 55.8379 41.4791 56.9264C43.2105 59.3761 46.3154 60.7421 49.8555 60.7421ZM61.2363 50.6084C61.3369 50.6084 61.4281 50.63 61.503 50.6754C61.7791 50.8453 61.8633 51.35 61.7346 52.0581C61.0678 55.6992 57.6541 58.7326 53.0353 59.7876C48.4189 60.845 44.0645 59.5866 41.9447 56.5819C41.5329 55.9982 41.3995 55.5054 41.5797 55.2303C41.7505 54.9695 42.2161 54.8906 42.7683 55.0246C48.5991 56.4623 55.6605 54.8475 60.3401 51.0079C60.656 50.7496 60.9812 50.6084 61.2363 50.6084Z" fill="#B76941"/>
<path d="M51.262 52.3206C51.4038 52.3206 51.5406 52.2436 51.6053 52.1136C51.8117 51.6973 52.2694 51.4663 52.7395 51.5385C52.946 51.5698 53.14 51.4326 53.1748 51.2329C53.2072 51.0331 53.0654 50.843 52.8589 50.8117C52.053 50.689 51.2744 51.0837 50.9212 51.7936C50.8292 51.9765 50.9088 52.1954 51.0978 52.2845C51.1501 52.3085 51.2073 52.3206 51.262 52.3206Z" fill="#B76941"/>
<path d="M51.2971 52.3236C51.4003 52.3236 51.5013 52.2902 51.5701 52.2233C51.6916 52.109 51.6687 51.9401 51.5196 51.8451C50.9439 51.488 50.1158 51.4616 49.5057 51.78C49.3451 51.8645 49.3038 52.0316 49.4116 52.1547C49.5217 52.2761 49.7396 52.3095 49.9002 52.2251C50.258 52.0386 50.742 52.0545 51.0769 52.2638C51.1411 52.3043 51.2191 52.3236 51.2971 52.3236Z" fill="#B76941"/>
<path d="M51.4303 54.6202C51.4464 54.6202 51.462 54.617 51.4771 54.6107C51.5949 54.5682 51.6687 54.3744 51.6431 54.1806C51.4984 53.096 51.4359 52.6588 51.3096 51.8317C51.2798 51.638 51.1621 51.5198 51.0457 51.5694C50.9293 51.6191 50.8598 51.8176 50.8896 52.009C51.0145 52.8266 51.0755 53.2614 51.2188 54.3366C51.2415 54.5044 51.3309 54.6202 51.4303 54.6202Z" fill="#B76941"/>
<path d="M61.6722 51.7056C61.1114 52.4197 60.3878 53.0399 59.6067 53.5896C58.8206 54.1392 57.9743 54.6208 57.1031 55.0624C57.0129 55.1071 56.9804 55.2128 57.028 55.295C57.0755 55.3749 57.1782 55.4078 57.2658 55.3702C58.1796 54.9779 59.0759 54.5433 59.9297 54.0265C60.7809 53.5073 61.5946 52.9036 62.2731 52.1496C62.4108 51.9969 62.3907 51.7714 62.2305 51.6422C62.0678 51.5153 61.8274 51.5341 61.6897 51.6845C61.6847 51.6907 61.6797 51.697 61.6747 51.7032L61.6722 51.7056Z" fill="#B76941"/>
<path d="M41.1486 56.8265C42.0719 57.2239 43.0428 57.4319 44.0065 57.5497C44.9725 57.6676 45.941 57.693 46.9023 57.6745C46.9901 57.6722 47.059 57.6029 47.0566 57.5174C47.0542 57.4365 46.9901 57.3718 46.907 57.3672C45.9576 57.3187 45.0105 57.2262 44.0895 57.0483C43.1709 56.8704 42.2689 56.6046 41.469 56.191H41.4667C41.2886 56.0986 41.0703 56.1633 40.9753 56.3366C40.8804 56.5076 40.9492 56.7225 41.1249 56.8149C41.1343 56.8172 41.1415 56.8219 41.1486 56.8265Z" fill="#B76941"/>
<path fill-rule="evenodd" clip-rule="evenodd" d="M51.3179 61.5088C52.3512 61.5088 53.3845 61.4274 54.3895 61.2622C54.4021 61.2607 54.4147 61.2576 54.4272 61.2529C61.5309 59.3225 66.2125 54.8823 65.3181 50.9237C65.0756 49.8561 64.4519 48.9118 63.4633 48.121C63.621 46.7581 63.548 45.3881 63.2444 44.0461C63.0632 43.2436 62.7996 42.4598 62.463 41.7132C62.4394 41.6644 62.4088 41.6225 62.3688 41.5899C59.5302 39.1664 55.5029 37.7778 51.3179 37.7778C47.5613 37.7778 43.9671 38.8733 41.192 40.8643C38.4169 42.8576 36.6916 45.5742 36.3409 48.5118C36.3377 48.5397 36.3377 48.5668 36.3409 48.5932C36.3903 49.0444 36.4656 49.4979 36.5668 49.9399C36.8705 51.2819 37.393 52.5518 38.125 53.7194C37.9814 54.0101 37.8661 54.3032 37.7767 54.5939C37.7461 54.6916 37.8712 54.8026 37.9253 54.8909C39.3079 56.8167 40.9374 58.2816 43.2774 59.676C45.6806 60.8761 48.4604 61.5088 51.3179 61.5088ZM54.253 60.5645C53.2927 60.7203 52.3041 60.7994 51.3179 60.7994C45.8548 60.7994 40.966 58.4456 38.5134 54.6498C38.6028 54.3869 38.7182 54.1241 38.8571 53.8613C38.9159 53.7496 38.9088 53.6124 38.8382 53.5054C38.0968 52.3634 37.5695 51.1121 37.2683 49.784C37.1765 49.3816 37.1082 48.9676 37.0588 48.556C37.7743 42.8134 43.8941 38.4896 51.3179 38.4896C55.3028 38.4896 59.13 39.7944 61.8369 42.0761C62.1405 42.7575 62.3782 43.4716 62.543 44.2019C62.8419 45.5277 62.9055 46.8837 62.7242 48.2303C62.7078 48.3559 62.7619 48.4815 62.8631 48.5583C63.8093 49.2723 64.3978 50.1189 64.6143 51.0795C65.4099 54.5986 60.8601 58.7619 54.253 60.5645Z" fill="#B76941"/>
<path fill-rule="evenodd" clip-rule="evenodd" d="M70.924 49.2604C71.0815 49.2604 71.2399 49.2482 71.399 49.2239C72.4187 49.0732 73.3109 48.4483 73.9088 47.466C74.4928 46.5055 74.7245 45.3117 74.5623 44.1081C74.2263 41.594 72.2542 39.802 70.1731 40.1083C68.0897 40.4171 66.6691 42.7124 67.0075 45.2266C67.1697 46.4302 67.7073 47.5097 68.5208 48.2635C69.2253 48.9151 70.0642 49.2604 70.924 49.2604ZM70.6412 40.9666C72.1267 40.9666 73.4685 42.3526 73.7211 44.2321C73.8555 45.2266 73.6678 46.204 73.1927 46.987C72.7292 47.7456 72.0502 48.227 71.2785 48.3413C70.5091 48.4556 69.7282 48.1905 69.0839 47.5948C68.4211 46.9797 67.9831 46.0946 67.8487 45.1001C67.5776 43.0747 68.6737 41.2317 70.2913 40.9909C70.4087 40.9747 70.5253 40.9666 70.6412 40.9666Z" fill="#B76941"/>
<path fill-rule="evenodd" clip-rule="evenodd" d="M71.8021 48.4949C71.9113 48.4949 72.0198 48.487 72.1275 48.4712C72.4068 48.4309 72.6768 48.3385 72.9284 48.1941C72.9407 48.1877 72.953 48.1798 72.9653 48.1704C74.1701 47.2703 74.7978 45.5909 74.5647 43.8925C74.297 41.9526 72.963 40.3845 71.3151 40.079C71.292 40.0758 71.2682 40.0742 71.2435 40.0742C71.1512 40.0766 71.0612 40.0837 70.9758 40.0955C69.3187 40.3371 68.227 42.4097 68.5432 44.7192C68.6932 45.8159 69.1363 46.8084 69.7872 47.5119C70.3804 48.1538 71.0866 48.4949 71.8021 48.4949ZM72.5683 47.5711C72.3975 47.6658 72.2152 47.7274 72.0306 47.7535C71.4351 47.8388 70.8212 47.5758 70.2996 47.0145C69.748 46.4175 69.3718 45.5672 69.2425 44.6173C68.9794 42.7035 69.801 40.998 71.0751 40.8132C71.1243 40.8069 71.1743 40.8022 71.2251 40.799C72.5614 41.0667 73.6438 42.3742 73.8654 43.9944C74.0616 45.4227 73.5538 46.8226 72.5683 47.5711Z" fill="#B76941"/>
<path fill-rule="evenodd" clip-rule="evenodd" d="M57.2038 33.948C57.6676 33.948 58.2485 33.6827 58.937 33.1522C60.0175 32.3249 61.2917 31.9451 62.3961 31.6843C62.4822 31.6618 62.5611 31.6169 62.6208 31.5539C63.2233 30.8998 63.2974 30.0613 62.8097 29.4206C62.2838 28.726 61.0789 28.2809 59.5753 28.8474C58.6429 29.1441 57.003 29.9354 56.4053 31.9136C56.1161 32.8757 56.2069 33.5119 56.6803 33.8063C56.8348 33.9007 57.0094 33.948 57.2038 33.948ZM62.0375 30.9177C60.9331 31.1875 59.5513 31.6169 58.3823 32.5138C57.6006 33.114 57.2205 33.1409 57.1608 33.1162C57.1632 33.1162 57.0125 32.9207 57.2492 32.1384C57.7393 30.5154 59.0995 29.868 59.8669 29.6252C59.8749 29.6222 59.8828 29.6192 59.8908 29.6162C60.9594 29.2116 61.7674 29.4678 62.0973 29.8994C62.3292 30.2074 62.3077 30.5716 62.0375 30.9177Z" fill="#B76941"/>
<path fill-rule="evenodd" clip-rule="evenodd" d="M39.1587 37.0103C39.6751 37.0103 40.2234 36.7173 40.3553 36.1541C40.7011 34.6775 41.7384 33.1482 43.0602 32.1683C43.1739 32.0836 43.2376 31.9462 43.2285 31.802C43.2194 31.66 43.1398 31.5318 43.0147 31.4632C41.8613 30.8198 40.849 30.7145 40.0072 31.1472C38.8857 31.7264 38.1691 33.2558 37.8779 35.6962C37.8074 36.2983 38.2647 36.8661 38.9198 36.9875C38.9972 37.0035 39.0791 37.0103 39.1587 37.0103ZM42.0342 31.9233C40.8171 33.0085 39.8844 34.5035 39.5432 35.9618C39.5068 36.1175 39.2611 36.1976 39.0723 36.1633C38.8834 36.1266 38.6878 35.9641 38.7083 35.797C38.9585 33.6816 39.5409 32.3308 40.3872 31.8959C40.8376 31.6623 41.3904 31.6738 42.0342 31.9233Z" fill="#B76941"/>
<path opacity="0.3" d="M42.0223 31.6528C40.0456 33.1788 39.1867 34.7098 39.4455 36.2459C40.2764 34.7619 41.2799 33.401 42.4559 32.1632C42.4968 32.1617 42.3522 31.9916 42.0223 31.6528Z" fill="#B76941"/>
<path fill-rule="evenodd" clip-rule="evenodd" d="M51.4864 61.4209C59.7172 61.4209 66.4136 56.0977 66.4136 49.5554C66.4136 43.0131 59.7172 37.6899 51.4864 37.6899C43.2556 37.6899 36.5592 43.0131 36.5592 49.5554C36.5592 56.0977 43.2556 61.4209 51.4864 61.4209ZM51.4864 38.2609C59.4005 38.2609 65.8387 43.329 65.8387 49.5554C65.8387 55.7818 59.4005 60.8476 51.4864 60.8476C43.5723 60.8476 37.1341 55.7818 37.1341 49.5554C37.1341 43.329 43.5723 38.2609 51.4864 38.2609Z" fill="#B76941"/>
<path fill-rule="evenodd" clip-rule="evenodd" d="M46.0955 51.4546C45.1782 51.8563 44.0095 51.0274 43.4834 49.6037C42.9574 48.1799 43.2735 46.7003 44.1909 46.2986C45.1082 45.8969 46.2769 46.7257 46.8029 48.1494C47.329 49.5732 47.0103 51.0529 46.0955 51.4546ZM44.7317 48.492C44.3094 48.4594 43.978 48.0924 43.9943 47.6724C44.0072 47.2504 44.3613 46.9345 44.7837 46.965C45.206 46.9956 45.5373 47.3646 45.5243 47.7846C45.5081 48.2066 45.154 48.5226 44.7317 48.492Z" fill="#B76941"/>
<path fill-rule="evenodd" clip-rule="evenodd" d="M54.4473 44.666C53.6129 44.6992 53.0566 45.7562 53.2034 47.0236C53.3481 48.2933 54.1425 49.2927 54.9747 49.2572C55.8069 49.224 56.3654 48.167 56.2185 46.8995C56.0717 45.6299 55.2795 44.6305 54.4473 44.666ZM54.208 45.4852C53.89 45.6386 53.857 46.0832 54.136 46.4767C54.4149 46.8702 54.8979 47.0658 55.2158 46.9102C55.5338 46.7568 55.5668 46.3122 55.2878 45.9187C55.0089 45.5253 54.5259 45.3319 54.208 45.4852ZM54.1056 48.3173C53.9334 48.1401 53.8937 47.9031 54.0182 47.788C54.14 47.675 54.3783 47.7259 54.5505 47.9031C54.7226 48.0803 54.7624 48.3173 54.6405 48.4324C54.5161 48.5476 54.2777 48.4945 54.1056 48.3173Z" fill="#B76941"/>
<path fill-rule="evenodd" clip-rule="evenodd" d="M50.8737 24.7318C51.5995 26.1041 51.7229 27.6071 51.6147 28.5908L50.3808 28.454C50.4672 27.6676 50.364 26.4257 49.7772 25.3164C49.2061 24.2364 48.1652 23.2537 46.2903 22.9296L46.5009 21.7012C48.7748 22.0943 50.1323 23.33 50.8737 24.7318Z" fill="#B76941"/>
<path d="M48.5867 22.4666C48.5867 23.3121 47.9013 23.9976 47.0557 23.9976C46.2101 23.9976 45.5247 23.3121 45.5247 22.4666C45.5247 21.621 46.2101 20.9355 47.0557 20.9355C47.9013 20.9355 48.5867 21.621 48.5867 22.4666Z" fill="#B76941"/>
<path fill-rule="evenodd" clip-rule="evenodd" d="M53.7406 22.427C53.7411 22.4267 53.74 22.4322 53.7357 22.4442C53.7379 22.4332 53.74 22.4272 53.7406 22.427ZM53.3005 23.0682C53.225 23.0844 53.1445 23.1035 53.0589 23.1256C52.1889 23.3509 51.0216 23.8406 49.7866 24.5588C48.5516 25.277 47.5487 26.0494 46.9227 26.6942C46.861 26.7576 46.8047 26.8182 46.7533 26.8758C46.8288 26.8596 46.9093 26.8406 46.9949 26.8184C47.8649 26.5931 49.0322 26.1035 50.2672 25.3853C51.5022 24.667 52.5051 23.8946 53.1311 23.2499C53.1927 23.1864 53.2491 23.1258 53.3005 23.0682ZM45.9783 26.9412C45.9788 26.9409 45.9851 26.942 45.9957 26.9455C45.9832 26.9433 45.9778 26.9415 45.9783 26.9412ZM46.3132 27.5171C46.3127 27.5173 46.3138 27.5118 46.3181 27.4998C46.3159 27.5108 46.3137 27.5168 46.3132 27.5171ZM54.0581 22.9986C54.0706 23.0008 54.076 23.0025 54.0755 23.0029C54.075 23.0032 54.0687 23.0021 54.0581 22.9986ZM50.7903 26.2848C53.3764 24.7809 55.1309 22.974 54.7093 22.2489C54.2877 21.5239 51.8495 22.1553 49.2635 23.6592C46.6774 25.1632 44.9229 26.9701 45.3445 27.6951C45.7661 28.4202 48.2043 27.7888 50.7903 26.2848Z" fill="#B76941"/>
</g>
<path fill-rule="evenodd" clip-rule="evenodd" d="M99.1624 69.3289L106.444 69.4424C107.204 69.4542 107.724 70.2134 107.461 70.9262L103.293 82.2079C103.2 82.4593 103.202 82.736 103.299 82.986L107.423 93.6893C107.701 94.4113 107.168 95.1876 106.394 95.1876H83.954C83.3454 95.1876 82.852 94.6942 82.852 94.0855L82.852 90.3127C82.852 89.7346 83.2986 89.2548 83.8752 89.2134L99.0276 88.1273L99.1624 69.3289ZM8.97239 69.3289L1.55558 69.4428C0.795836 69.4544 0.275555 70.2134 0.538613 70.9262L4.702 82.2083C4.79469 82.4595 4.79277 82.7358 4.69659 82.9857L0.576555 93.6897C0.298699 94.4116 0.831532 95.1876 1.60504 95.1876H24.0491C24.6578 95.1876 25.1512 94.6942 25.1512 94.0855L25.1512 90.3127C25.1512 89.7346 24.7045 89.2548 24.1279 89.2135L8.97238 88.1273L8.97239 69.3289Z" fill="#F0B67A"/>
<path d="M99.1624 69.3289L99.0603 64.4423C99.0478 63.8428 98.5582 63.3633 97.9585 63.3633H10.0744C9.46578 63.3633 8.97238 63.8567 8.97238 64.4653L8.97239 69.3289L8.97238 88.1273H99.0276L99.1624 69.3289Z" fill="#FBC288"/>
<path d="M39.9896 68.4681V71.3152H34.0462V74.3908H38.4934V77.1547H34.0462V83.0566H30.4925V68.4681H39.9896ZM49.2971 83.0566L46.263 77.5496H45.4109V83.0566H41.8573V68.4681H47.8216C48.9715 68.4681 49.9482 68.669 50.7518 69.0708C51.5692 69.4726 52.1787 70.0267 52.5805 70.7333C52.9823 71.426 53.1832 72.2019 53.1832 73.0608C53.1832 74.0306 52.9061 74.8965 52.3519 75.6585C51.8116 76.4205 51.0081 76.9608 49.9413 77.2794L53.3079 83.0566H49.2971ZM45.4109 75.035H47.6138C48.2649 75.035 48.7498 74.8757 49.0685 74.5571C49.401 74.2384 49.5672 73.7882 49.5672 73.2063C49.5672 72.6521 49.401 72.2157 49.0685 71.8971C48.7498 71.5784 48.2649 71.4191 47.6138 71.4191H45.4109V75.035ZM58.9675 71.3152V74.2661H63.7265V77.0093H58.9675V80.2096H64.3499V83.0566H55.4139V68.4681H64.3499V71.3152H58.9675ZM70.2106 71.3152V74.2661H74.9695V77.0093H70.2106V80.2096H75.5929V83.0566H66.6569V68.4681H75.5929V71.3152H70.2106Z" fill="#DC8253"/>
<path d="M8.81641 88.1592H25.1657L25.347 95.3224L8.81641 88.1592Z" fill="#DC8253"/>
<path d="M99.1837 88.1592H82.6531L82.7607 95.3224L99.1837 88.1592Z" fill="#DC8253"/>
<defs>
<linearGradient id="paint0_linear_26744_20875" x1="23.5069" y1="82.744" x2="23.5069" y2="112.955" gradientUnits="userSpaceOnUse">
<stop stop-color="#DD7C3D"/>
<stop offset="1" stop-color="#FBD3B9"/>
</linearGradient>
<linearGradient id="paint1_linear_26744_20875" x1="86.6972" y1="83.2948" x2="86.6972" y2="113.506" gradientUnits="userSpaceOnUse">
<stop stop-color="#DD7C3D"/>
<stop offset="1" stop-color="#FBD3B9"/>
</linearGradient>
<radialGradient id="paint2_radial_26744_20875" cx="0" cy="0" r="1" gradientUnits="userSpaceOnUse" gradientTransform="translate(53.4489 41.7359) rotate(90) scale(46.4235)">
<stop stop-color="#FCC5AA"/>
<stop offset="0.45" stop-color="#FCCAB1"/>
<stop offset="1" stop-color="#F99A6E"/>
</radialGradient>
<linearGradient id="paint3_linear_26744_20875" x1="53.4489" y1="8.81201" x2="78.7958" y2="76.312" gradientUnits="userSpaceOnUse">
<stop stop-color="#FFD4A0"/>
<stop offset="1" stop-color="#F19A53"/>
</linearGradient>
</defs>
</svg>
