<svg width="70" height="70" viewBox="0 0 70 70" fill="none" xmlns="http://www.w3.org/2000/svg">
<rect width="70" height="70" transform="translate(0 -0.00390625)" fill="white"/>
<path opacity="0.25" d="M0.851923 29.331C-1.55753 39.6065 1.25308 49.1258 7.90209 55.5362C11.9207 59.4107 47.5235 64.5531 66.9815 58.5653C71.1413 57.2853 72.1836 35.591 62.3285 28.4857C56.1935 24.0625 53.5631 26.4923 46.2542 24.5408C34.5127 21.4059 30.0252 7.87904 18.2655 10.9451C8.6925 13.4411 3.10885 19.706 0.851923 29.331Z" fill="#7E54F1"/>
<path opacity="0.25" d="M10.1696 22.0015C7.60727 25.8411 8.43874 28.9957 7.22033 33.4482C5.32411 40.3777 -1.13871 44.5901 1.9537 51.0748C3.786 54.917 10.1696 56.2221 10.1696 56.2221C10.1696 56.2221 69.9986 69.5824 69.9986 52.1984C69.9986 45.1387 69.5772 44.1225 67.0493 39.5578C63.1601 32.5353 71.7541 20.3533 57.9205 12.8019C49.4883 8.19907 43.2654 15.1175 33.8344 16.9452C24.5949 18.7358 15.394 14.1729 10.1696 22.0015Z" fill="#7E54F1"/>
<path d="M31.0633 8.77075C34.1952 6.35125 38.5657 6.35125 41.6977 8.77075L43.9082 10.4785C45.1317 11.4236 46.5849 12.0256 48.1183 12.2223L50.889 12.5779C54.8144 13.0817 57.9048 16.1721 58.4086 20.0976L58.7642 22.8682C58.9609 24.4016 59.5629 25.8549 60.508 27.0783L62.2158 29.2889C64.6353 32.4208 64.6353 36.7913 62.2158 39.9232L60.508 42.1338C59.5629 43.3572 58.9609 44.8105 58.7642 46.3439L58.4086 49.1145C57.9048 53.04 54.8144 56.1304 50.8889 56.6342L48.1183 56.9897C46.5849 57.1865 45.1316 57.7885 43.9082 58.7336L41.6977 60.4413C38.5657 62.8608 34.1952 62.8608 31.0633 60.4413L28.8527 58.7336C27.6293 57.7885 26.176 57.1865 24.6426 56.9897L21.872 56.6342C17.9465 56.1304 14.8561 53.04 14.3523 49.1145L13.9968 46.3439C13.8 44.8105 13.198 43.3572 12.2529 42.1338L10.5452 39.9232C8.12566 36.7913 8.12567 32.4208 10.5452 29.2889L12.2529 27.0783C13.198 25.8549 13.8 24.4016 13.9968 22.8682L14.3523 20.0976C14.8561 16.1721 17.9465 13.0817 21.872 12.5779L24.6426 12.2223C26.176 12.0256 27.6293 11.4236 28.8527 10.4785L31.0633 8.77075Z" fill="#D86A84"/>
<path d="M29.2195 8.77075C32.3515 6.35125 36.722 6.35125 39.8539 8.77075L42.0645 10.4785C43.2879 11.4236 44.7411 12.0256 46.2746 12.2223L49.0452 12.5779C52.9707 13.0817 56.0611 16.1721 56.5648 20.0976L56.9204 22.8682C57.1172 24.4016 57.7192 25.8549 58.6643 27.0783L60.372 29.2889C62.7915 32.4208 62.7915 36.7913 60.372 39.9232L58.6643 42.1338C57.7192 43.3572 57.1172 44.8105 56.9204 46.3439L56.5648 49.1145C56.0611 53.04 52.9707 56.1304 49.0452 56.6342L46.2746 56.9897C44.7411 57.1865 43.2879 57.7885 42.0645 58.7336L39.8539 60.4413C36.722 62.8608 32.3515 62.8608 29.2195 60.4413L27.009 58.7336C25.7855 57.7885 24.3323 57.1865 22.7989 56.9897L20.0282 56.6342C16.1028 56.1304 13.0123 53.04 12.5086 49.1145L12.153 46.3439C11.9562 44.8105 11.3543 43.3572 10.4091 42.1338L8.70142 39.9232C6.28191 36.7913 6.28192 32.4208 8.70142 29.2889L10.4091 27.0783C11.3543 25.8549 11.9562 24.4016 12.153 22.8682L12.5086 20.0976C13.0123 16.1721 16.1028 13.0817 20.0282 12.5779L22.7989 12.2223C24.3323 12.0256 25.7855 11.4236 27.009 10.4785L29.2195 8.77075Z" fill="#FC6589"/>
<path d="M45.4593 19.4859L43.0898 19.3792L23.4935 51.5514L25.8631 51.6581L45.4593 19.4859Z" fill="white" stroke="white" stroke-width="0.790682" stroke-linecap="round" stroke-linejoin="round"/>
<path d="M33.7993 24.1309C33.7993 26.6615 31.6197 28.7129 28.9309 28.7129C26.2422 28.7129 24.0625 26.6615 24.0625 24.1309C24.0625 21.6003 26.2422 19.5488 28.9309 19.5488C31.6197 19.5488 33.7993 21.6003 33.7993 24.1309ZM26.2046 24.1309C26.2046 25.548 27.4252 26.6968 28.9309 26.6968C30.4366 26.6968 31.6572 25.548 31.6572 24.1309C31.6572 22.7137 30.4366 21.5649 28.9309 21.5649C27.4252 21.5649 26.2046 22.7137 26.2046 24.1309Z" fill="white"/>
<path d="M46.979 47.0401C46.979 49.5706 44.7994 51.6221 42.1106 51.6221C39.4219 51.6221 37.2422 49.5706 37.2422 47.0401C37.2422 44.5095 39.4219 42.458 42.1106 42.458C44.7994 42.458 46.979 44.5095 46.979 47.0401ZM39.3843 47.0401C39.3843 48.4572 40.6049 49.606 42.1106 49.606C43.6163 49.606 44.8369 48.4572 44.8369 47.0401C44.8369 45.6229 43.6163 44.4741 42.1106 44.4741C40.6049 44.4741 39.3843 45.6229 39.3843 47.0401Z" fill="white"/>
</svg>
