<svg width="70" height="70" viewBox="0 0 70 70" fill="none" xmlns="http://www.w3.org/2000/svg">
<rect width="70" height="70" transform="translate(0 -0.00390625)" fill="white"/>
<path opacity="0.25" d="M0.851923 36.9385C-1.55753 47.2139 1.25308 56.7333 7.90209 63.1437C11.9207 67.0181 47.5235 72.1605 66.9815 66.1728C71.1413 64.8927 72.1836 43.1985 62.3285 36.0931C56.1935 31.6699 53.5631 34.0997 46.2542 32.1483C34.5127 29.0134 30.0252 15.4865 18.2655 18.5526C8.6925 21.0485 3.10885 27.3134 0.851923 36.9385Z" fill="#7E54F1"/>
<path opacity="0.25" d="M10.1696 29.6089C7.60727 33.4486 8.43874 36.6031 7.22033 41.0556C5.32411 47.9852 -1.13871 52.1975 1.9537 58.6822C3.786 62.5245 10.1696 63.8296 10.1696 63.8296C10.1696 63.8296 69.9986 77.1898 69.9986 59.8058C69.9986 52.7461 69.5772 51.7299 67.0493 47.1652C63.1601 40.1427 71.7541 27.9607 57.9205 20.4093C49.4883 15.8065 43.2654 22.725 33.8344 24.5526C24.5949 26.3432 15.394 21.7803 10.1696 29.6089Z" fill="#7E54F1"/>
<rect x="12.3789" y="7.33105" width="47.4226" height="54.0478" rx="4.63267" fill="url(#paint0_linear_26325_35306)"/>
<path fill-rule="evenodd" clip-rule="evenodd" d="M47.4208 11.8643C47.4208 11.6717 47.5769 11.5156 47.7695 11.5156H56.1382V15.0026C56.1382 15.1952 55.9821 15.3513 55.7895 15.3513C55.5969 15.3513 55.4408 15.1952 55.4408 15.0026V12.213H47.7695C47.5769 12.213 47.4208 12.0569 47.4208 11.8643ZM51.4308 20.756C51.4308 20.5635 51.5869 20.4074 51.7795 20.4074H55.7895C55.9821 20.4074 56.1382 20.5635 56.1382 20.756C56.1382 20.9486 55.9821 21.1047 55.7895 21.1047H51.7795C51.5869 21.1047 51.4308 20.9486 51.4308 20.756ZM51.4308 26.5095C51.4308 26.3169 51.5869 26.1608 51.7795 26.1608H55.7895C55.9821 26.1608 56.1382 26.3169 56.1382 26.5095C56.1382 26.7021 55.9821 26.8582 55.7895 26.8582H51.7795C51.5869 26.8582 51.4308 26.7021 51.4308 26.5095ZM51.4308 32.263C51.4308 32.0704 51.5869 31.9143 51.7795 31.9143H55.7895C55.9821 31.9143 56.1382 32.0704 56.1382 32.263C56.1382 32.4556 55.9821 32.6117 55.7895 32.6117H51.7795C51.5869 32.6117 51.4308 32.4556 51.4308 32.263ZM28.7656 51.4412C28.7656 51.2487 28.9217 51.0925 29.1143 51.0925H36.96C37.1525 51.0925 37.3087 51.2487 37.3087 51.4412C37.3087 51.6338 37.1525 51.7899 36.96 51.7899H29.1143C28.9217 51.7899 28.7656 51.6338 28.7656 51.4412ZM39.4008 51.4412C39.4008 51.2487 39.5569 51.0925 39.7495 51.0925H42.1904C42.383 51.0925 42.5391 51.2487 42.5391 51.4412C42.5391 51.6338 42.383 51.7899 42.1904 51.7899H39.7495C39.5569 51.7899 39.4008 51.6338 39.4008 51.4412ZM28.7656 54.9282C28.7656 54.7356 28.9217 54.5795 29.1143 54.5795H32.0782C32.2708 54.5795 32.4269 54.7356 32.4269 54.9282C32.4269 55.1208 32.2708 55.2769 32.0782 55.2769H29.1143C28.9217 55.2769 28.7656 55.1208 28.7656 54.9282ZM33.473 54.9282C33.473 54.7356 33.6291 54.5795 33.8217 54.5795H42.1904C42.383 54.5795 42.5391 54.7356 42.5391 54.9282C42.5391 55.1208 42.383 55.2769 42.1904 55.2769H33.8217C33.6291 55.2769 33.473 55.1208 33.473 54.9282Z" fill="#333333"/>
<path d="M43.8025 14.1126C49.6892 20.9207 49.4367 30.9522 43.5355 37.4518C43.0601 37.9754 42.5481 38.476 41.9997 38.9503C41.4771 39.4021 40.9355 39.8178 40.378 40.1975C33.0872 45.1634 23.071 43.9814 17.162 37.1474C10.8011 29.7908 11.6082 18.6706 18.9648 12.3097C26.3214 5.94882 37.4416 6.75598 43.8025 14.1126ZM18.9736 35.581C21.0763 38.0129 23.781 39.6164 26.6752 40.3616C27.8165 40.6554 28.9872 40.8158 30.1622 40.8409C33.7951 40.9185 37.468 39.7025 40.4332 37.1386C45.9733 32.3484 47.2143 24.4343 43.8025 18.2723C43.3 17.3646 42.6965 16.495 41.9909 15.679C40.6874 14.1715 39.1526 12.9823 37.4848 12.1186C37.0851 11.9116 36.6779 11.7233 36.2643 11.5538C31.1267 9.44821 25.0186 10.2413 20.5312 14.1213C15.3586 18.5939 13.9337 25.7897 16.5444 31.74C16.9416 32.6452 17.4322 33.5216 18.0172 34.3552C18.3119 34.7752 18.6307 35.1844 18.9736 35.581Z" fill="url(#paint1_linear_26325_35306)"/>
<path d="M42.3932 43.6397C42.1619 43.3469 42.2021 42.9239 42.4843 42.6799L45.6954 39.9034C45.9776 39.6594 46.402 39.6807 46.6583 39.9519L59.2042 52.4238C59.4771 52.7125 59.4541 53.1706 59.1535 53.4305L53.9261 57.9504C53.6256 58.2102 53.169 58.1669 52.9227 57.8551L42.3932 43.6397Z" fill="url(#paint2_linear_26325_35306)"/>
<path d="M42.5073 42.6601L45.6725 39.9233L43.5355 37.4518C43.0601 37.9754 42.5481 38.476 41.9997 38.9503C41.4771 39.4021 40.9355 39.8178 40.378 40.1975L42.5073 42.6601Z" fill="url(#paint3_linear_26325_35306)"/>
<path fill-rule="evenodd" clip-rule="evenodd" d="M18.9736 35.581C21.0763 38.0129 23.781 39.6164 26.6752 40.3616L41.9909 15.679C40.6874 14.1715 39.1526 12.9823 37.4848 12.1186L18.0172 34.3552C18.3119 34.7752 18.6307 35.1844 18.9736 35.581ZM16.5444 31.74L36.2643 11.5538C31.1267 9.44821 25.0186 10.2413 20.5312 14.1213C15.3586 18.5939 13.9337 25.7897 16.5444 31.74ZM40.4332 37.1386C37.468 39.7025 33.7951 40.9185 30.1622 40.8409L43.8025 18.2723C47.2143 24.4343 45.9733 32.3484 40.4332 37.1386Z" fill="#96FFEC" fill-opacity="0.5"/>
<path d="M36.2643 11.5538L16.5444 31.74C16.9416 32.6452 17.4322 33.5216 18.0172 34.3552L37.4848 12.1186C37.0851 11.9116 36.6779 11.7233 36.2643 11.5538Z" fill="#D5FFDC"/>
<path d="M41.9909 15.679L26.6752 40.3616C27.8165 40.6554 28.9872 40.8158 30.1622 40.8409L43.8025 18.2723C43.3 17.3646 42.6965 16.495 41.9909 15.679Z" fill="#D5FFDC"/>
<path fill-rule="evenodd" clip-rule="evenodd" d="M22.4921 48.4767C19.9886 48.4767 17.9591 50.5062 17.9591 53.0097C17.9591 55.5133 19.9886 57.5428 22.4921 57.5428C24.9957 57.5428 27.0252 55.5133 27.0252 53.0097C27.0252 50.5062 24.9957 48.4767 22.4921 48.4767ZM17.2617 53.0097C17.2617 50.121 19.6035 47.7793 22.4921 47.7793C25.3808 47.7793 27.7226 50.121 27.7226 53.0097C27.7226 55.8984 25.3808 58.2402 22.4921 58.2402C19.6035 58.2402 17.2617 55.8984 17.2617 53.0097Z" fill="#333333"/>
<path fill-rule="evenodd" clip-rule="evenodd" d="M24.3163 51.5528C24.4473 51.694 24.4392 51.9146 24.298 52.0456L22.9195 53.3257C22.1891 54.0039 21.0531 53.9829 20.3483 53.2781L20.1529 53.0828C20.0167 52.9466 20.0167 52.7258 20.1529 52.5896C20.2891 52.4534 20.5099 52.4534 20.646 52.5896L21.3132 53.2568C21.4894 53.433 21.7734 53.4382 21.956 53.2687L23.8235 51.5346C23.9646 51.4035 24.1853 51.4117 24.3163 51.5528Z" fill="#333333"/>
<path fill-rule="evenodd" clip-rule="evenodd" d="M39.5788 19.1866C39.001 19.1866 38.5327 19.655 38.5327 20.2327C38.5327 20.5629 38.6853 20.8572 38.9251 21.0495C39.1043 21.1931 39.331 21.2788 39.5788 21.2788C40.1565 21.2788 40.6248 20.8105 40.6248 20.2327C40.6248 19.655 40.1565 19.1866 39.5788 19.1866ZM37.8353 20.2327C37.8353 19.2698 38.6159 18.4893 39.5788 18.4893C40.5417 18.4893 41.3222 19.2698 41.3222 20.2327C41.3222 21.1956 40.5417 21.9762 39.5788 21.9762C39.282 21.9762 39.0022 21.9019 38.7574 21.7709L35.1035 25.5446C35.2873 25.8209 35.3944 26.1526 35.3944 26.5092C35.3944 27.4721 34.6138 28.2527 33.6509 28.2527C32.688 28.2527 31.9075 27.4721 31.9075 26.5092C31.9075 26.3172 31.9386 26.1321 31.9962 25.9588L29.0295 24.2692C28.7993 24.9629 28.1453 25.4632 27.3744 25.4632C26.8936 25.4632 26.4586 25.2685 26.1434 24.9543L22.9429 28.4036C23.0998 28.6653 23.1901 28.9718 23.1901 29.2988C23.1901 30.2617 22.4095 31.0423 21.4466 31.0423C20.4837 31.0423 19.7031 30.2617 19.7031 29.2988C19.7031 28.3359 20.4837 27.5553 21.4466 27.5553C21.8291 27.5553 22.1831 27.6788 22.4705 27.8875L25.7497 24.3533C25.673 24.1567 25.6309 23.9428 25.6309 23.7197C25.6309 22.7568 26.4115 21.9762 27.3744 21.9762C28.2663 21.9762 29.0018 22.6459 29.1054 23.5099L32.3446 25.3547C32.6637 24.9939 33.1306 24.7658 33.6509 24.7658C34.0049 24.7658 34.3343 24.8713 34.6092 25.0525L38.2192 21.3242C37.9792 21.0256 37.8353 20.6459 37.8353 20.2327ZM27.3744 22.6736C26.7967 22.6736 26.3283 23.1419 26.3283 23.7197C26.3283 23.9108 26.3793 24.089 26.4681 24.2425C26.6495 24.5561 26.9877 24.7658 27.3744 24.7658C27.9522 24.7658 28.4205 24.2974 28.4205 23.7197C28.4205 23.1419 27.9522 22.6736 27.3744 22.6736ZM33.6509 25.4632C33.2642 25.4632 32.926 25.6729 32.7446 25.9865C32.6558 26.14 32.6048 26.3181 32.6048 26.5092C32.6048 27.087 33.0732 27.5553 33.6509 27.5553C34.2287 27.5553 34.697 27.087 34.697 26.5092C34.697 25.9315 34.2287 25.4632 33.6509 25.4632ZM21.4466 28.2527C20.8689 28.2527 20.4005 28.7211 20.4005 29.2988C20.4005 29.8765 20.8689 30.3449 21.4466 30.3449C22.0243 30.3449 22.4927 29.8765 22.4927 29.2988C22.4927 29.0333 22.3942 28.7916 22.2313 28.607C22.0391 28.3892 21.759 28.2527 21.4466 28.2527Z" fill="#8B58F8"/>
<defs>
<linearGradient id="paint0_linear_26325_35306" x1="23.2667" y1="10.7352" x2="63.0394" y2="74.1727" gradientUnits="userSpaceOnUse">
<stop stop-color="#FBFCBC"/>
<stop offset="1" stop-color="white"/>
</linearGradient>
<linearGradient id="paint1_linear_26325_35306" x1="18.9648" y1="12.3097" x2="56.5022" y2="55.7229" gradientUnits="userSpaceOnUse">
<stop stop-color="#7E7D9A"/>
<stop offset="1" stop-color="#5856A3"/>
</linearGradient>
<linearGradient id="paint2_linear_26325_35306" x1="18.9648" y1="12.3097" x2="56.5022" y2="55.7229" gradientUnits="userSpaceOnUse">
<stop stop-color="#7E7D9A"/>
<stop offset="1" stop-color="#5856A3"/>
</linearGradient>
<linearGradient id="paint3_linear_26325_35306" x1="18.9648" y1="12.3097" x2="56.5022" y2="55.7229" gradientUnits="userSpaceOnUse">
<stop stop-color="#7E7D9A"/>
<stop offset="1" stop-color="#5856A3"/>
</linearGradient>
</defs>
</svg>
