<svg width="344" height="270" viewBox="0 0 344 270" fill="none" xmlns="http://www.w3.org/2000/svg">
<mask id="mask0_29022_29893" style="mask-type:alpha" maskUnits="userSpaceOnUse" x="39" y="65" width="275" height="194">
<path d="M283.936 97.2078C238.754 55.8037 193.972 103.707 155.802 84.4178C128.659 70.7011 114.291 59.3499 87.5215 69.5046C57.9751 77.0625 25.2873 119.154 46.9129 167.053C67.5594 205.088 113.857 196.195 133.365 210.402C155.533 226.547 160.96 243.669 181.058 252.906C213.84 267.939 272.343 253.854 296.551 216.202C311.681 192.669 329.919 130.515 283.936 97.2078Z" fill="url(#paint0_linear_29022_29893)"/>
<path d="M93.2534 223.696C91.1053 229.136 97.8283 230.312 101.5 235.36C105.015 240.192 104.254 247.501 110.628 247.64C118.38 247.809 126.555 236.663 120.65 225.785C114.915 215.22 97.5159 212.901 93.2534 223.696Z" fill="url(#paint1_linear_29022_29893)"/>
<path d="M134.849 244.887C132.895 241.835 125.237 249.507 128.293 251.456C130.063 252.585 132.724 252.387 134.415 251.142C136.457 249.637 136.217 247.024 134.849 244.887Z" fill="url(#paint2_linear_29022_29893)"/>
</mask>
<g mask="url(#mask0_29022_29893)">
<path d="M283.936 97.2078C238.754 55.8037 193.972 103.707 155.802 84.4178C128.659 70.7011 114.291 59.3499 87.5215 69.5046C57.9751 77.0625 25.2873 119.154 46.9129 167.053C67.5594 205.088 113.857 196.195 133.365 210.402C155.533 226.547 160.96 243.669 181.058 252.906C213.84 267.939 272.343 253.854 296.551 216.202C311.681 192.669 329.919 130.515 283.936 97.2078Z" fill="url(#paint3_linear_29022_29893)"/>
<path d="M93.2534 223.696C91.1053 229.136 97.8283 230.312 101.5 235.36C105.015 240.192 104.254 247.501 110.628 247.64C118.38 247.809 126.555 236.663 120.65 225.785C114.915 215.22 97.5159 212.901 93.2534 223.696Z" fill="url(#paint4_linear_29022_29893)"/>
<path d="M134.849 244.887C132.895 241.835 125.237 249.507 128.293 251.456C130.063 252.585 132.724 252.387 134.415 251.142C136.457 249.637 136.217 247.024 134.849 244.887Z" fill="url(#paint5_linear_29022_29893)"/>
<g opacity="0.15" filter="url(#filter0_f_29022_29893)">
<path d="M249.565 163.06C271.289 133.571 276.555 53.7664 287.568 77.315C298.581 100.864 334.335 154.284 333.285 155.777C333.285 155.777 277.834 227.04 256.394 260.605L140.744 330.989C140.744 330.989 148.646 263.175 171.995 228.411C194.08 195.528 226.072 194.952 249.565 163.06Z" fill="#FF64D4"/>
</g>
<g opacity="0.8" filter="url(#filter1_f_29022_29893)">
<path d="M-15.9443 139.956C-24.7462 90.3394 8.66434 42.9327 58.6607 34.0636C108.67 25.1922 156.335 58.2162 165.137 107.833C173.937 157.438 140.539 204.842 90.5299 213.714C40.5336 222.583 -7.14461 189.561 -15.9443 139.956Z" fill="url(#paint6_radial_29022_29893)"/>
<path d="M1.1721 135.394C-3.20233 110.735 5.76509 86.7665 22.9301 70.837C29.0283 65.1434 36.1625 60.4737 44.1098 57.1755C48.9504 55.1221 54.0913 53.5935 59.4763 52.6382C78.1167 49.3315 96.3431 53.4718 111.062 62.9488C116.144 66.1965 120.809 70.0836 124.915 74.545C128.9 78.8351 132.378 83.6263 135.211 88.8659C138.763 95.3909 141.321 102.581 142.688 110.29C143.97 117.513 144.115 124.681 143.243 131.593C140.105 156.236 124.104 177.778 101.078 187.965C95.8543 190.266 90.2586 192.004 84.384 193.046C69.8232 195.629 55.4889 193.65 42.9348 188.131C41.4245 187.499 39.9238 186.776 38.4837 186.03C19.7201 176.307 5.53397 158.45 1.34965 136.249C1.27373 135.967 1.22291 135.681 1.1721 135.394Z" fill="url(#paint7_linear_29022_29893)"/>
<g style="mix-blend-mode:overlay" opacity="0.302">
<path d="M1.17116 135.392C-2.78181 113.109 4.16006 91.3897 18.2007 75.6567C20.9152 72.6151 25.4467 71.8809 28.6546 74.3966C39.7944 83.1321 44.9171 99.3408 32.7997 113.339C12.1203 137.265 35.4684 136.849 66.7444 164.263C86.566 181.63 64.256 186.644 45.2133 187.984C43.7128 188.09 42.2069 187.84 40.8459 187.199C40.046 186.823 39.2557 186.429 38.4828 186.028C19.7191 176.305 5.53304 158.448 1.34872 136.247C1.2728 135.965 1.22198 135.679 1.17116 135.392Z" fill="white"/>
</g>
<g style="mix-blend-mode:overlay" opacity="0.302">
<path d="M103.111 169.066C123.662 144.417 127.782 152.678 113.371 129.029C106.259 117.3 109.687 98.3872 118.476 83.5283C121.486 78.4395 128.491 78.2931 131.789 83.1998C133.013 85.0203 134.155 86.9054 135.207 88.8525C138.76 95.3775 141.317 102.567 142.685 110.276C143.966 117.5 144.111 124.668 143.24 131.579C140.374 154.085 126.779 174.005 106.903 185.05C103.447 186.971 98.5574 186.328 97.8194 182.444C97.1556 178.95 98.5148 174.568 103.111 169.066Z" fill="white"/>
</g>
<g style="mix-blend-mode:overlay" opacity="0.302">
<path d="M45.0688 64.1819C44.225 60.0325 46.6877 56.0078 50.7329 54.7568C53.5596 53.8827 56.4709 53.1766 59.4573 52.6468C75.2482 49.8456 90.742 52.3886 104.058 58.9928C107.619 60.7587 107.823 65.4603 104.307 67.3126C75.2859 82.6091 101.883 145.32 81.5805 128.676C71.2335 120.204 50.0666 88.7593 45.0688 64.1819Z" fill="white"/>
</g>
<g style="mix-blend-mode:overlay" opacity="0.302">
<path d="M78.9848 160.96C84.1129 168.118 95.002 168.704 100.12 161.501C102.64 157.971 102.966 153.456 96.431 148.513C84.2625 139.329 71.0315 149.846 78.9848 160.96Z" fill="white"/>
</g>
</g>
<g filter="url(#filter2_f_29022_29893)">
<g opacity="0.3" filter="url(#filter3_f_29022_29893)">
<path d="M407.742 325.927H13.4745L-45.8701 320.935C38.977 240.868 124.91 202.271 214.538 202.271C297.868 202.271 416.491 251.88 466.016 320.935L407.742 325.927Z" fill="white"/>
</g>
<path d="M381.422 317.692H39.6628L-11.7783 313.365C61.769 243.962 136.258 210.504 213.949 210.504C286.181 210.504 389.006 253.507 431.936 313.365L381.422 317.692Z" fill="url(#paint8_linear_29022_29893)" style="mix-blend-mode:screen"/>
<path style="mix-blend-mode:screen" d="M94.4592 240.633C126.853 222.881 167.774 212.292 212.214 212.292C255.12 212.292 294.687 222.16 326.585 238.785C332.044 246.67 332.54 254.78 322.118 260.547C295.815 275.145 255.661 255.546 198.544 260.773C141.381 266.044 91.301 263.881 92.8801 246.67C93.1057 244.598 93.6471 242.57 94.4592 240.633Z" fill="url(#paint9_radial_29022_29893)"/>
<path style="mix-blend-mode:screen" fill-rule="evenodd" clip-rule="evenodd" d="M291.05 236.103C290.554 239.888 282.794 241.78 273.725 240.338C264.702 238.896 257.799 234.616 258.341 230.831C258.837 227.047 266.597 225.154 275.62 226.596C284.689 228.038 291.592 232.273 291.05 236.103ZM141.939 231.057C143.248 234.661 137.337 240.428 128.81 243.943C120.283 247.457 112.343 247.412 111.034 243.807C109.771 240.248 115.681 234.481 124.208 230.966C132.736 227.452 140.676 227.497 141.939 231.057ZM165.761 237.545C166.618 240.113 162.332 244.123 156.151 246.511C150.015 248.854 144.331 248.673 143.473 246.105C142.616 243.537 146.902 239.527 153.083 237.139C159.219 234.796 164.904 234.976 165.761 237.545ZM176.318 219.027C176.905 220.964 173.566 223.848 168.919 225.425C164.272 226.957 160.076 226.686 159.49 224.704C158.903 222.766 162.242 219.928 166.889 218.351C171.536 216.774 175.732 217.044 176.318 219.027ZM322.722 247.907C321.955 249.755 317.714 249.575 313.248 247.457C308.781 245.294 305.803 242.05 306.57 240.203C307.337 238.311 311.578 238.536 316.045 240.653C320.511 242.771 323.489 246.015 322.722 247.907ZM304.36 254.125C304.134 256.423 299.487 257.73 293.983 257.054C288.479 256.378 284.238 253.945 284.463 251.647C284.734 249.349 289.381 247.998 294.885 248.718C300.389 249.394 304.63 251.827 304.36 254.125Z" fill="url(#paint10_radial_29022_29893)"/>
<path style="mix-blend-mode:screen" fill-rule="evenodd" clip-rule="evenodd" d="M131.426 243.669C127.546 245.291 123.757 246.147 120.644 246.282C123.17 245.877 125.967 245.111 128.81 243.939C137.337 240.425 143.247 234.658 141.939 231.054C141.262 229.116 138.6 228.215 134.946 228.35C139.908 227.584 143.743 228.44 144.555 230.828C145.864 234.388 139.954 240.155 131.426 243.669ZM168.377 237.271C169.234 239.884 164.948 243.894 158.767 246.237C156.015 247.319 153.308 247.859 151.097 247.904C152.676 247.634 154.391 247.183 156.15 246.508C162.331 244.12 166.618 240.11 165.76 237.542C165.264 236.145 163.369 235.424 160.752 235.469C164.678 234.838 167.745 235.424 168.377 237.271ZM268.175 226.142C271.063 225.692 274.537 225.737 278.281 226.323C287.305 227.764 294.208 232.045 293.666 235.829C293.305 238.488 289.335 240.245 283.831 240.515C287.936 239.884 290.734 238.308 291.05 236.1C291.591 232.27 284.688 228.035 275.62 226.593C273.003 226.142 270.476 226.007 268.175 226.142ZM325.338 247.634C324.932 248.625 323.534 249.031 321.594 248.896C322.135 248.67 322.541 248.355 322.721 247.904C323.488 246.012 320.511 242.768 316.044 240.65C313.969 239.659 311.939 239.119 310.314 238.938C311.984 238.262 315.277 238.803 318.661 240.38C323.128 242.543 326.105 245.787 325.338 247.634ZM306.976 253.852C306.795 255.654 303.863 256.871 299.983 256.961C302.509 256.51 304.224 255.474 304.359 254.122C304.63 251.824 300.389 249.391 294.884 248.715C293.711 248.535 292.538 248.49 291.501 248.535C293.215 248.22 295.29 248.175 297.501 248.445C303.005 249.121 307.246 251.554 306.976 253.852ZM178.934 218.753C179.521 220.691 176.227 223.574 171.58 225.151C169.55 225.827 167.655 226.142 166.031 226.142C166.963 225.992 167.926 225.752 168.918 225.422C173.566 223.845 176.904 220.961 176.318 219.024C176.002 217.897 174.468 217.311 172.392 217.311C175.776 216.726 178.483 217.221 178.934 218.753Z" fill="url(#paint11_radial_29022_29893)"/>
<path opacity="0.5" d="M293.992 257.05C291.375 256.734 289.074 256.013 287.359 255.112C289.254 254.211 292.367 253.851 295.796 254.301C298.413 254.617 300.714 255.337 302.428 256.239C300.533 257.14 297.42 257.5 293.992 257.05Z" fill="url(#paint12_radial_29022_29893)"/>
<path opacity="0.5" d="M273.732 240.332C267.731 239.385 262.678 237.178 260.106 234.7C262.453 232.086 269.04 230.96 276.574 232.176C282.575 233.123 287.628 235.33 290.199 237.808C287.853 240.422 281.266 241.548 273.732 240.332Z" fill="url(#paint13_radial_29022_29893)"/>
<path opacity="0.5" d="M316.95 246.233C318.619 247.044 320.108 247.991 321.236 248.982C319.476 249.477 316.408 248.937 313.25 247.45C311.581 246.639 310.137 245.693 308.964 244.701C310.769 244.206 313.791 244.747 316.95 246.233Z" fill="url(#paint14_radial_29022_29893)"/>
<path opacity="0.5" d="M125.114 236.544C131.837 233.751 138.198 233.21 141.221 234.877C139.371 237.986 134.724 241.5 128.814 243.933C122.091 246.682 115.73 247.267 112.707 245.6C114.557 242.492 119.204 238.977 125.114 236.544Z" fill="url(#paint15_radial_29022_29893)"/>
<path opacity="0.5" d="M173.839 222.94C172.531 223.886 170.861 224.742 168.921 225.418C166.711 226.139 164.59 226.454 162.921 226.409C164.184 225.463 165.853 224.562 167.794 223.931C170.004 223.165 172.17 222.85 173.839 222.94Z" fill="url(#paint16_radial_29022_29893)"/>
<path opacity="0.5" d="M153.992 242.768C158.053 241.191 161.933 240.74 164.324 241.371C162.609 243.218 159.722 245.155 156.158 246.507C152.097 248.084 148.262 248.49 145.871 247.904C147.54 246.012 150.428 244.119 153.992 242.768Z" fill="url(#paint17_radial_29022_29893)"/>
<path opacity="0.3" d="M136.936 247.906C137.342 249.303 134.906 251.42 131.477 252.592C128.003 253.763 124.89 253.538 124.484 252.096C124.032 250.699 126.514 248.582 129.943 247.41C133.372 246.239 136.53 246.464 136.936 247.906Z" fill="url(#paint18_radial_29022_29893)"/>
<path opacity="0.3" d="M265.739 221.457C265.513 222.944 262.49 223.71 258.926 223.169C255.317 222.628 252.565 221.006 252.79 219.519C252.971 218.033 256.039 217.267 259.603 217.807C263.167 218.348 265.919 219.97 265.739 221.457Z" fill="url(#paint19_radial_29022_29893)"/>
<path opacity="0.3" d="M274.22 222.988C274.175 223.619 272.866 223.979 271.332 223.754C269.844 223.529 268.671 222.808 268.761 222.177C268.806 221.546 270.114 221.231 271.648 221.456C273.137 221.681 274.31 222.357 274.22 222.988Z" fill="url(#paint20_radial_29022_29893)"/>
<path opacity="0.3" d="M289.019 244.389C288.929 245.02 287.62 245.335 286.131 245.11C284.597 244.884 283.424 244.209 283.515 243.578C283.605 242.947 284.913 242.587 286.402 242.812C287.936 243.037 289.109 243.758 289.019 244.389Z" fill="url(#paint21_radial_29022_29893)"/>
<path opacity="0.3" d="M303.365 230.2C303.32 230.83 302.012 231.146 300.478 230.92C298.989 230.695 297.816 230.019 297.906 229.389C297.951 228.758 299.26 228.442 300.794 228.668C302.283 228.893 303.456 229.569 303.365 230.2Z" fill="url(#paint22_radial_29022_29893)"/>
<path opacity="0.3" d="M315.455 252.32C315.274 252.906 313.921 252.861 312.477 252.275C311.078 251.644 310.086 250.698 310.311 250.112C310.537 249.527 311.845 249.527 313.289 250.157C314.733 250.743 315.68 251.734 315.455 252.32Z" fill="url(#paint23_radial_29022_29893)"/>
<path opacity="0.3" d="M312.298 235.333C312.072 236.325 309.951 236.55 307.56 235.874C305.169 235.198 303.455 233.802 303.725 232.855C303.951 231.864 306.071 231.639 308.463 232.315C310.809 232.991 312.568 234.342 312.298 235.333Z" fill="url(#paint24_radial_29022_29893)"/>
<path opacity="0.3" d="M267.952 241.959C267.771 242.995 265.696 243.446 263.259 243.04C260.823 242.635 258.973 241.463 259.154 240.472C259.289 239.436 261.365 238.985 263.801 239.391C266.237 239.841 268.087 240.968 267.952 241.959Z" fill="url(#paint25_radial_29022_29893)"/>
<path opacity="0.3" d="M170.094 229.477C170.275 230.379 168.741 231.595 166.575 232.181C164.454 232.766 162.514 232.541 162.334 231.64C162.108 230.739 163.687 229.522 165.808 228.937C167.974 228.351 169.868 228.576 170.094 229.477Z" fill="url(#paint26_radial_29022_29893)"/>
<path opacity="0.3" d="M167.885 246.372C168.065 247.273 166.531 248.445 164.366 249.03C162.245 249.661 160.305 249.391 160.079 248.535C159.899 247.634 161.478 246.417 163.599 245.831C165.764 245.246 167.659 245.471 167.885 246.372Z" fill="url(#paint27_radial_29022_29893)"/>
<path opacity="0.3" d="M172.259 242.227C172.394 242.813 171.447 243.534 170.093 243.894C168.785 244.3 167.567 244.12 167.431 243.579C167.296 243.038 168.289 242.272 169.642 241.912C170.95 241.551 172.169 241.687 172.259 242.227Z" fill="url(#paint28_radial_29022_29893)"/>
<path opacity="0.3" d="M159.084 219.972C159.219 220.558 158.272 221.279 156.918 221.684C155.565 222.044 154.392 221.864 154.257 221.324C154.121 220.783 155.114 220.017 156.422 219.656C157.776 219.296 158.949 219.431 159.084 219.972Z" fill="url(#paint29_radial_29022_29893)"/>
<path opacity="0.3" d="M142.161 242.227C142.296 242.813 141.349 243.534 139.996 243.894C138.642 244.3 137.469 244.12 137.334 243.579C137.198 243.038 138.191 242.272 139.499 241.912C140.853 241.551 142.026 241.687 142.161 242.227Z" fill="url(#paint30_radial_29022_29893)"/>
<path opacity="0.3" d="M188.68 227.177C189.086 228.573 186.65 230.691 183.176 231.862C179.747 233.034 176.634 232.809 176.228 231.367C175.777 229.97 178.258 227.852 181.687 226.681C185.116 225.51 188.274 225.735 188.68 227.177Z" fill="url(#paint31_radial_29022_29893)"/>
<path opacity="0.3" d="M193.913 221.502C194.048 222.088 193.101 222.809 191.748 223.169C190.394 223.575 189.221 223.395 189.086 222.854C188.95 222.313 189.943 221.547 191.251 221.187C192.605 220.826 193.778 220.962 193.913 221.502Z" fill="url(#paint32_radial_29022_29893)"/>
<path opacity="0.3" d="M143.113 224.341C143.248 224.882 142.256 225.603 140.947 226.008C139.594 226.369 138.421 226.234 138.285 225.648C138.15 225.107 139.097 224.341 140.451 223.981C141.804 223.62 142.977 223.756 143.113 224.341Z" fill="url(#paint33_radial_29022_29893)"/>
</g>
<g opacity="0.15" filter="url(#filter4_f_29022_29893)">
<path d="M77.3756 105.973C41.8858 115.03 -12.7427 173.444 -6.34675 148.246C0.049248 123.049 6.22446 59.0645 7.98222 58.5747C7.98222 58.5747 96.0316 38.561 133.884 26.171L267.956 44.972C267.956 44.972 218.883 92.4382 178.795 104.547C140.876 115.999 115.756 96.1791 77.3756 105.973Z" fill="#64EDFF"/>
</g>
<path d="M154.327 157.351C150.897 150.111 146.505 147.697 140.608 146.681L144.419 201.515L166.902 199.229L154.327 157.351Z" fill="#4449A3"/>
<path d="M98.6884 146.3L140.225 144.395L158.136 204.223H100.213V196.602H83.4455C85.1268 174.291 87.6373 153.922 98.6884 146.3Z" fill="url(#paint34_linear_29022_29893)"/>
<path d="M139.181 220.792L64.1729 203.206V213.973L69.1973 215.247L133.08 231.447L139.181 232.994V220.792Z" fill="url(#paint35_linear_29022_29893)"/>
<path d="M327.239 203.206L139.181 220.792V232.994L321.138 214.59L327.239 213.973V203.206Z" fill="url(#paint36_linear_29022_29893)"/>
<path d="M64.1729 203.206L139.181 220.792L327.239 203.206L211.318 190.645L64.1729 203.206Z" fill="url(#paint37_linear_29022_29893)"/>
<path d="M68.8076 212.293V279.926L132.69 306.843V228.493L68.8076 212.293Z" fill="url(#paint38_linear_29022_29893)"/>
<path fill-rule="evenodd" clip-rule="evenodd" d="M138.791 230.04L320.748 211.636V275.619L132.69 306.843V228.493L138.791 230.04Z" fill="url(#paint39_linear_29022_29893)"/>
</g>
<path d="M140.078 182.904C140.06 182.885 140.362 182.931 140.803 182.734C141.033 182.626 141.285 182.424 141.482 182.107C141.562 181.958 141.643 181.77 141.686 181.563C141.71 181.374 141.697 181.127 141.703 180.9C141.754 178.969 141.807 176.203 141.895 172.795C141.918 171.936 141.935 171.039 141.947 170.105C141.958 169.65 141.762 169.209 141.41 168.897C141.224 168.76 141.018 168.641 140.792 168.597C140.566 168.534 140.32 168.547 140.055 168.54C138.047 168.487 135.907 168.432 133.635 168.372C129.109 168.254 124.128 168.125 118.92 167.989C118.296 167.973 117.698 168.374 117.474 168.937C117.335 169.217 117.346 169.521 117.337 169.843C117.329 170.158 117.321 170.48 117.312 170.808C117.279 172.071 117.247 173.321 117.214 174.558C117.182 175.795 117.151 177.001 117.12 178.175C117.105 178.768 117.089 179.355 117.074 179.936C117.067 180.22 117.04 180.523 117.051 180.807C117.063 181.073 117.151 181.341 117.297 181.553C117.588 182.015 118.112 182.275 118.644 182.251C119.199 182.266 119.742 182.28 120.272 182.294C121.345 182.334 122.386 182.368 123.396 182.394C125.404 182.446 127.278 182.495 129.002 182.54C132.41 182.648 135.174 182.739 137.106 182.789C138.053 182.814 138.791 182.852 139.302 182.865C139.555 182.872 139.744 182.877 139.87 182.88C139.958 182.895 140.028 182.903 140.078 182.904C140.028 182.903 139.958 182.908 139.869 182.918C139.743 182.915 139.554 182.91 139.301 182.903C138.79 182.89 138.051 182.89 137.104 182.865C135.172 182.815 132.407 182.761 128.998 182.692C127.275 182.647 125.4 182.598 123.392 182.545C122.382 182.519 121.341 182.498 120.267 182.483C119.737 182.469 119.194 182.455 118.639 182.441C118.07 182.464 117.471 182.164 117.143 181.662C116.979 181.412 116.873 181.106 116.862 180.802C116.87 180.499 116.877 180.234 116.885 179.931C116.9 179.351 116.915 178.763 116.931 178.17C116.961 176.996 116.993 175.79 117.025 174.553C117.057 173.316 117.09 172.066 117.123 170.804C117.131 170.475 117.14 170.153 117.148 169.838C117.156 169.535 117.146 169.174 117.287 168.856C117.55 168.218 118.225 167.762 118.925 167.8C124.133 167.935 129.114 168.065 133.64 168.183C135.912 168.261 138.052 168.317 140.059 168.369C140.305 168.376 140.571 168.364 140.834 168.427C141.079 168.491 141.322 168.629 141.507 168.786C141.897 169.118 142.111 169.617 142.098 170.109C142.074 171.043 142.05 171.939 142.028 172.798C141.92 176.206 141.848 178.971 141.779 180.902C141.773 181.129 141.786 181.357 141.742 181.583C141.699 181.791 141.618 181.978 141.519 182.146C141.321 182.463 141.051 182.665 140.821 182.753C140.591 182.861 140.401 182.894 140.267 182.909C140.179 182.907 140.116 182.905 140.078 182.904Z" fill="#64EDFF"/>
<path d="M140.078 182.904C140.06 182.885 140.362 182.931 140.803 182.734C141.033 182.626 141.285 182.424 141.482 182.107C141.562 181.958 141.643 181.77 141.686 181.563C141.71 181.374 141.697 181.127 141.703 180.9C141.754 178.969 141.807 176.203 141.895 172.795C141.918 171.936 141.935 171.039 141.947 170.105C141.958 169.65 141.762 169.209 141.41 168.897C141.224 168.76 141.018 168.641 140.792 168.597C140.566 168.534 140.32 168.547 140.055 168.54C138.047 168.487 135.907 168.432 133.635 168.372C129.109 168.254 124.128 168.125 118.92 167.989C118.296 167.973 117.698 168.374 117.474 168.937C117.335 169.217 117.346 169.521 117.337 169.843C117.329 170.158 117.321 170.48 117.312 170.808C117.279 172.071 117.247 173.321 117.214 174.558C117.182 175.795 117.151 177.001 117.12 178.175C117.105 178.768 117.089 179.355 117.074 179.936C117.067 180.22 117.04 180.523 117.051 180.807C117.063 181.073 117.151 181.341 117.297 181.553C117.588 182.015 118.112 182.275 118.644 182.251C119.199 182.266 119.742 182.28 120.272 182.294C121.345 182.334 122.386 182.368 123.396 182.394C125.404 182.446 127.278 182.495 129.002 182.54C132.41 182.648 135.174 182.739 137.106 182.789C138.053 182.814 138.791 182.852 139.302 182.865C139.555 182.872 139.744 182.877 139.87 182.88C139.958 182.895 140.028 182.903 140.078 182.904ZM140.078 182.904C140.028 182.903 139.958 182.908 139.869 182.918C139.743 182.915 139.554 182.91 139.301 182.903C138.79 182.89 138.051 182.89 137.104 182.865C135.172 182.815 132.407 182.761 128.998 182.692C127.275 182.647 125.4 182.598 123.392 182.545C122.382 182.519 121.341 182.498 120.267 182.483C119.737 182.469 119.194 182.455 118.639 182.441C118.07 182.464 117.471 182.164 117.143 181.662C116.979 181.412 116.873 181.106 116.862 180.802C116.87 180.499 116.877 180.234 116.885 179.931C116.9 179.351 116.915 178.763 116.931 178.17C116.961 176.996 116.993 175.79 117.025 174.553C117.057 173.316 117.09 172.066 117.123 170.804C117.131 170.475 117.14 170.153 117.148 169.838C117.156 169.535 117.146 169.174 117.287 168.856C117.55 168.218 118.225 167.762 118.925 167.8C124.133 167.935 129.114 168.065 133.64 168.183C135.912 168.261 138.052 168.317 140.059 168.369C140.305 168.376 140.571 168.364 140.834 168.427C141.079 168.491 141.322 168.629 141.507 168.786C141.897 169.118 142.111 169.617 142.098 170.109C142.074 171.043 142.05 171.939 142.028 172.798C141.92 176.206 141.848 178.971 141.779 180.902C141.773 181.129 141.786 181.357 141.742 181.583C141.699 181.791 141.618 181.978 141.519 182.146C141.321 182.463 141.051 182.665 140.821 182.753C140.591 182.861 140.401 182.894 140.267 182.909C140.179 182.907 140.116 182.905 140.078 182.904Z" stroke="#64EDFF" stroke-width="0.254774"/>
<path d="M120.856 178.857C121.243 178.867 121.564 178.562 121.575 178.175C121.585 177.788 121.279 177.466 120.892 177.456C120.505 177.446 120.183 177.751 120.173 178.138C120.163 178.525 120.469 178.847 120.856 178.857Z" fill="#64EDFF"/>
<path fill-rule="evenodd" clip-rule="evenodd" d="M120.863 178.579C121.096 178.585 121.29 178.401 121.296 178.168C121.302 177.934 121.118 177.74 120.885 177.734C120.652 177.728 120.457 177.912 120.451 178.146C120.445 178.379 120.63 178.573 120.863 178.579ZM121.575 178.175C121.564 178.562 121.243 178.867 120.856 178.857C120.469 178.847 120.163 178.525 120.173 178.138C120.183 177.751 120.505 177.446 120.892 177.456C121.279 177.466 121.585 177.788 121.575 178.175Z" fill="#64EDFF"/>
<path d="M123.241 178.921C123.628 178.931 123.95 178.625 123.96 178.238C123.97 177.851 123.665 177.529 123.278 177.519C122.891 177.509 122.569 177.815 122.559 178.202C122.549 178.589 122.854 178.911 123.241 178.921Z" fill="#64EDFF"/>
<path fill-rule="evenodd" clip-rule="evenodd" d="M123.249 178.642C123.482 178.648 123.676 178.464 123.682 178.231C123.688 177.998 123.504 177.804 123.271 177.797C123.037 177.791 122.843 177.976 122.837 178.209C122.831 178.442 123.015 178.636 123.249 178.642ZM123.96 178.238C123.95 178.625 123.628 178.931 123.241 178.921C122.854 178.911 122.549 178.589 122.559 178.202C122.569 177.815 122.891 177.509 123.278 177.519C123.665 177.529 123.97 177.851 123.96 178.238Z" fill="#64EDFF"/>
<path d="M125.548 178.979C125.935 178.989 126.257 178.683 126.267 178.297C126.277 177.91 125.971 177.588 125.584 177.578C125.197 177.568 124.876 177.873 124.866 178.26C124.855 178.647 125.161 178.969 125.548 178.979Z" fill="#64EDFF"/>
<path fill-rule="evenodd" clip-rule="evenodd" d="M125.555 178.701C125.788 178.707 125.983 178.523 125.989 178.289C125.995 178.056 125.811 177.862 125.577 177.856C125.344 177.85 125.15 178.034 125.144 178.267C125.138 178.501 125.322 178.695 125.555 178.701ZM126.267 178.297C126.257 178.683 125.935 178.989 125.548 178.979C125.161 178.969 124.855 178.647 124.866 178.26C124.876 177.873 125.197 177.568 125.584 177.578C125.971 177.588 126.277 177.91 126.267 178.297Z" fill="#64EDFF"/>
<path d="M127.835 179.04C128.222 179.05 128.544 178.745 128.554 178.358C128.564 177.971 128.259 177.649 127.872 177.639C127.485 177.629 127.163 177.934 127.153 178.321C127.143 178.708 127.448 179.03 127.835 179.04Z" fill="#64EDFF"/>
<path fill-rule="evenodd" clip-rule="evenodd" d="M127.842 178.762C128.076 178.768 128.27 178.584 128.276 178.351C128.282 178.117 128.098 177.923 127.864 177.917C127.631 177.911 127.437 178.095 127.431 178.329C127.425 178.562 127.609 178.756 127.842 178.762ZM128.554 178.358C128.544 178.745 128.222 179.05 127.835 179.04C127.448 179.03 127.143 178.708 127.153 178.321C127.163 177.934 127.485 177.629 127.872 177.639C128.259 177.649 128.564 177.971 128.554 178.358Z" fill="#64EDFF"/>
<path d="M127.659 173.904L121.315 173.739C120.861 173.727 120.491 173.357 120.504 172.884C120.516 172.43 120.904 172.061 121.359 172.072L127.703 172.238C128.157 172.25 128.526 172.638 128.514 173.093C128.502 173.566 128.114 173.916 127.659 173.904Z" fill="#64EDFF"/>
<path fill-rule="evenodd" clip-rule="evenodd" d="M121.322 173.461L127.666 173.626C127.971 173.634 128.228 173.401 128.236 173.086C128.244 172.785 127.996 172.524 127.695 172.516L121.351 172.351C121.051 172.343 120.79 172.59 120.782 172.891C120.774 173.207 121.017 173.453 121.322 173.461ZM121.315 173.739L127.659 173.904C128.114 173.916 128.502 173.566 128.514 173.093C128.526 172.638 128.157 172.25 127.703 172.238L121.359 172.072C120.904 172.061 120.516 172.43 120.504 172.884C120.491 173.357 120.861 173.727 121.315 173.739Z" fill="#64EDFF"/>
<path d="M121.055 176.218C121.442 176.228 121.764 175.923 121.774 175.536C121.784 175.149 121.478 174.827 121.091 174.817C120.704 174.807 120.382 175.112 120.372 175.499C120.362 175.886 120.668 176.208 121.055 176.218Z" fill="#64EDFF"/>
<path fill-rule="evenodd" clip-rule="evenodd" d="M121.062 175.94C121.295 175.946 121.489 175.762 121.495 175.528C121.502 175.295 121.317 175.101 121.084 175.095C120.851 175.089 120.657 175.273 120.651 175.506C120.645 175.74 120.829 175.934 121.062 175.94ZM121.774 175.536C121.764 175.923 121.442 176.228 121.055 176.218C120.668 176.208 120.362 175.886 120.372 175.499C120.382 175.112 120.704 174.807 121.091 174.817C121.478 174.827 121.784 175.149 121.774 175.536Z" fill="#64EDFF"/>
<path d="M123.421 176.279C123.808 176.289 124.13 175.984 124.14 175.597C124.15 175.21 123.844 174.888 123.458 174.878C123.071 174.868 122.749 175.173 122.739 175.56C122.728 175.947 123.034 176.269 123.421 176.279Z" fill="#64EDFF"/>
<path fill-rule="evenodd" clip-rule="evenodd" d="M123.428 176.001C123.662 176.007 123.856 175.823 123.862 175.59C123.868 175.356 123.684 175.162 123.45 175.156C123.217 175.15 123.023 175.334 123.017 175.568C123.011 175.801 123.195 175.995 123.428 176.001ZM124.14 175.597C124.13 175.984 123.808 176.289 123.421 176.279C123.034 176.269 122.728 175.947 122.739 175.56C122.749 175.173 123.071 174.868 123.458 174.878C123.844 174.888 124.15 175.21 124.14 175.597Z" fill="#64EDFF"/>
<path d="M125.729 176.34C126.116 176.35 126.437 176.044 126.448 175.657C126.458 175.27 126.152 174.949 125.765 174.938C125.378 174.928 125.056 175.234 125.046 175.621C125.036 176.008 125.342 176.33 125.729 176.34Z" fill="#64EDFF"/>
<path fill-rule="evenodd" clip-rule="evenodd" d="M125.736 176.062C125.969 176.068 126.163 175.883 126.169 175.65C126.175 175.417 125.991 175.223 125.758 175.217C125.525 175.211 125.331 175.395 125.324 175.628C125.318 175.861 125.503 176.055 125.736 176.062ZM126.448 175.657C126.437 176.044 126.116 176.35 125.729 176.34C125.342 176.33 125.036 176.008 125.046 175.621C125.056 175.234 125.378 174.928 125.765 174.938C126.152 174.949 126.458 175.27 126.448 175.657Z" fill="#64EDFF"/>
<path d="M128.045 176.398C128.432 176.408 128.754 176.103 128.764 175.716C128.774 175.329 128.469 175.007 128.082 174.997C127.695 174.987 127.373 175.292 127.363 175.679C127.353 176.066 127.658 176.388 128.045 176.398Z" fill="#64EDFF"/>
<path fill-rule="evenodd" clip-rule="evenodd" d="M128.052 176.12C128.286 176.126 128.48 175.942 128.486 175.708C128.492 175.475 128.308 175.281 128.074 175.275C127.841 175.269 127.647 175.453 127.641 175.686C127.635 175.92 127.819 176.114 128.052 176.12ZM128.764 175.716C128.754 176.103 128.432 176.408 128.045 176.398C127.658 176.388 127.353 176.066 127.363 175.679C127.373 175.292 127.695 174.987 128.082 174.997C128.469 175.007 128.774 175.329 128.764 175.716Z" fill="#64EDFF"/>
<path d="M137.841 171.946L133.977 171.845C133.632 171.836 133.345 172.109 133.336 172.454L133.236 176.317C133.227 176.662 133.499 176.949 133.844 176.958L137.707 177.059C138.053 177.068 138.34 176.795 138.349 176.45L138.449 172.587C138.458 172.242 138.186 171.955 137.841 171.946Z" fill="#64EDFF"/>
<path fill-rule="evenodd" clip-rule="evenodd" d="M137.833 172.224L133.97 172.123C133.779 172.118 133.619 172.27 133.615 172.461L133.514 176.324C133.509 176.516 133.66 176.675 133.851 176.68L137.715 176.781C137.906 176.786 138.065 176.634 138.07 176.443L138.171 172.58C138.176 172.388 138.025 172.229 137.833 172.224ZM133.977 171.845L137.841 171.946C138.186 171.955 138.458 172.242 138.449 172.587L138.349 176.45C138.34 176.795 138.053 177.068 137.707 177.059L133.844 176.958C133.499 176.949 133.227 176.662 133.236 176.317L133.336 172.454C133.345 172.109 133.632 171.836 133.977 171.845Z" fill="#64EDFF"/>
<path d="M137.984 179.5L133.458 179.382C133.06 179.372 132.747 179.041 132.757 178.663C132.767 178.265 133.097 177.952 133.495 177.962L138.021 178.08C138.419 178.09 138.732 178.42 138.722 178.818C138.712 179.197 138.382 179.51 137.984 179.5Z" fill="#64EDFF"/>
<path fill-rule="evenodd" clip-rule="evenodd" d="M133.465 179.104L137.991 179.222C138.24 179.228 138.438 179.031 138.444 178.811C138.45 178.567 138.258 178.364 138.014 178.358L133.488 178.24C133.244 178.234 133.041 178.426 133.035 178.67C133.029 178.89 133.216 179.097 133.465 179.104ZM133.458 179.382L137.984 179.5C138.382 179.51 138.712 179.197 138.722 178.818C138.732 178.42 138.419 178.09 138.021 178.08L133.495 177.962C133.097 177.952 132.767 178.265 132.757 178.663C132.747 179.041 133.06 179.372 133.458 179.382Z" fill="#64EDFF"/>
<g filter="url(#filter5_f_29022_29893)">
<path d="M163.667 122.685C164.205 126.435 162.607 130.175 159.528 132.377C160.805 126.424 159.948 120.482 156.955 114.55C160.535 115.795 163.123 118.932 163.667 122.685Z" fill="white"/>
<path fill-rule="evenodd" clip-rule="evenodd" d="M159.694 133.185C159.486 133.223 159.274 133.184 159.093 133.067C158.807 132.878 158.668 132.538 158.739 132.206C159.974 126.467 159.133 120.652 156.238 114.922C156.087 114.621 156.135 114.261 156.353 114.007C156.576 113.756 156.929 113.664 157.244 113.77C161.132 115.123 163.909 118.495 164.498 122.568C165.086 126.642 163.37 130.655 160.024 133.047C159.924 133.12 159.809 133.164 159.694 133.185ZM158.683 116.288C160.618 120.89 161.308 125.538 160.749 130.164C162.46 128.158 163.257 125.495 162.867 122.803C162.476 120.08 160.931 117.727 158.683 116.288Z" fill="#64EDFF"/>
<path d="M117.677 90.4614C135.697 87.1572 152.989 99.081 156.299 117.098C159.608 135.111 147.683 152.397 129.663 155.701C111.648 159.005 94.355 147.076 91.0457 129.064C87.7355 111.046 99.6619 93.7648 117.677 90.4614Z" fill="white"/>
<path d="M118.096 90.8917C136.359 87.5429 153.35 98.1494 157.503 115.693L157.953 116.431C159.04 118.425 158.767 117.509 159.761 122.917C160.754 128.326 158.538 139.376 151.591 145.452L150.807 146.275C127.862 165.819 95.819 158.657 90.6585 130.568C87.2575 112.056 99.8338 94.2404 118.096 90.8917Z" fill="white"/>
<path fill-rule="evenodd" clip-rule="evenodd" d="M129.702 157.467C123.115 158.675 116.566 158.211 110.686 156.12C99.6961 152.207 92.102 142.946 89.8545 130.713C88.1751 121.572 90.2094 112.288 95.5822 104.567C100.926 96.888 108.87 91.742 117.951 90.077C136.668 86.6449 153.981 97.5161 158.279 115.375L158.659 116.003C158.667 116.014 158.673 116.025 158.678 116.036C158.795 116.247 158.891 116.421 158.979 116.578C159.679 117.832 159.701 117.951 160.252 121.001C160.343 121.499 160.45 122.082 160.576 122.766C161.631 128.51 159.293 139.787 152.164 146.043L151.411 146.837C151.391 146.859 151.369 146.88 151.345 146.9C145.241 152.1 138.166 155.673 130.899 157.229C130.501 157.311 130.102 157.391 129.702 157.467ZM118.248 91.6961C100.171 95.0108 88.1604 112.381 91.4738 130.416C93.6127 142.058 100.817 150.861 111.236 154.569C123.651 158.987 138.596 155.581 150.245 145.674L150.998 144.884C151.013 144.866 151.031 144.849 151.052 144.833C157.654 139.057 159.918 128.295 158.957 123.063C158.831 122.379 158.723 121.792 158.632 121.293C158.108 118.393 158.108 118.393 157.543 117.38C157.455 117.223 157.355 117.049 157.244 116.842L156.805 116.115C156.759 116.041 156.726 115.961 156.706 115.878C152.668 98.8147 136.131 88.4169 118.248 91.6961Z" fill="#64EDFF"/>
<path d="M123.695 103.198C141.027 100.02 157.197 108.967 159.809 123.181C162.419 137.392 150.483 151.492 133.151 154.67C115.815 157.849 99.6489 148.902 97.0382 134.691C94.4267 120.477 106.359 106.377 123.695 103.198Z" fill="#00A4FF"/>
<path fill-rule="evenodd" clip-rule="evenodd" d="M133.279 155.347C115.599 158.589 99.0421 149.375 96.3674 134.817C93.6919 120.253 105.896 105.771 123.576 102.529C141.252 99.2879 157.812 108.496 160.488 123.059C163.163 137.618 150.955 152.105 133.279 155.347ZM123.823 103.875C106.888 106.98 95.1782 120.747 97.7176 134.569C100.256 148.387 116.097 157.102 133.031 153.997C149.966 150.891 161.676 137.124 159.138 123.307C156.598 109.485 140.758 100.769 123.823 103.875Z" fill="#64EDFF"/>
<path d="M132.599 151.619C147.803 148.831 158.332 136.796 156.117 124.737C153.901 112.679 139.78 105.163 124.577 107.951C109.373 110.739 98.8438 122.774 101.059 134.833C103.275 146.891 117.396 154.407 132.599 151.619Z" fill="#6C6C6C"/>
<path fill-rule="evenodd" clip-rule="evenodd" d="M132.739 152.435C117.11 155.301 102.532 147.476 100.239 134.991C97.9448 122.505 108.79 110.014 124.419 107.148C140.047 104.282 154.626 112.112 156.92 124.597C159.214 137.082 148.368 149.569 132.739 152.435ZM124.716 108.767C109.983 111.469 99.7278 123.1 101.858 134.694C103.987 146.283 117.708 153.517 132.441 150.816C147.174 148.114 157.43 136.484 155.301 124.894C153.171 113.3 139.449 106.066 124.716 108.767Z" fill="#6C6C6C"/>
<path d="M155.974 122.742C156.037 123.583 156.052 124.438 156.02 125.301C155.915 128.061 155.319 130.697 154.32 133.133C154.762 133.699 155.139 134.287 155.449 134.882C152.307 142.955 143.827 149.677 132.96 151.67C131.023 152.025 129.104 152.208 127.227 152.242C113.835 151.073 103.552 144.553 103.839 137.104C103.917 134.996 104.837 133.026 106.419 131.286C105.607 128.776 105.216 126.107 105.324 123.342C105.383 121.776 105.601 120.254 105.96 118.783C110.193 113.52 116.915 109.473 124.937 108.002C139.264 105.375 152.626 111.896 155.974 122.742Z" fill="#B0401E"/>
<path fill-rule="evenodd" clip-rule="evenodd" d="M133.081 152.35C131.144 152.705 129.178 152.906 127.237 152.938C127.213 152.939 127.188 152.938 127.163 152.933C113.174 151.713 102.85 144.9 103.147 137.084C103.23 134.976 104.07 132.97 105.648 131.13C104.877 128.599 104.536 125.976 104.638 123.326C104.698 121.741 104.919 120.164 105.29 118.632C105.317 118.531 105.36 118.442 105.423 118.366C109.9 112.793 116.966 108.775 124.811 107.337C131.853 106.045 138.973 106.888 144.869 109.71C150.765 112.537 154.946 117.097 156.627 122.549C156.643 122.601 156.653 122.652 156.656 122.703C156.72 123.576 156.737 124.462 156.702 125.335C156.6 127.985 156.063 130.574 155.098 133.04C155.468 133.542 155.786 134.058 156.055 134.579C156.147 134.754 156.157 134.957 156.086 135.143C154.471 139.288 151.51 143.078 147.515 146.109C143.428 149.212 138.437 151.367 133.081 152.35ZM127.249 151.567C129.104 151.533 130.985 151.343 132.834 151.004C143.075 149.126 151.419 142.981 154.694 134.938C154.435 134.47 154.127 134.011 153.775 133.561C153.626 133.369 153.591 133.106 153.686 132.879C154.678 130.458 155.23 127.903 155.332 125.281C155.364 124.486 155.348 123.677 155.297 122.879C151.955 112.233 138.976 106.135 125.059 108.687C117.589 110.056 110.869 113.847 106.59 119.105C106.258 120.502 106.061 121.938 106.007 123.38C105.909 125.998 106.262 128.592 107.071 131.084C107.146 131.316 107.088 131.573 106.925 131.754C105.4 133.433 104.592 135.241 104.521 137.138C104.256 144.086 114.236 150.419 127.249 151.567Z" fill="#6C6C6C"/>
<path d="M122.838 110.731C126.063 110.856 128.93 112.286 130.954 114.492C133.154 112.337 136.202 111.053 139.523 111.183C148.269 111.522 154.752 123.394 147.353 130.912C149.906 130.311 152.581 131.166 154.316 133.137C154.758 133.704 155.135 134.292 155.445 134.887C152.303 142.96 143.823 149.682 132.955 151.675C131.018 152.03 129.1 152.213 127.222 152.247C113.831 151.077 103.547 144.558 103.834 137.109C103.912 135.001 104.832 133.031 106.414 131.291C108.456 129.84 110.869 129.395 113.653 129.954C111.775 127.799 110.683 124.958 110.801 121.876C111.043 115.475 116.434 110.482 122.838 110.731Z" fill="#FFCAA1"/>
<path fill-rule="evenodd" clip-rule="evenodd" d="M133.066 152.219C131.138 152.573 129.176 152.769 127.244 152.804C127.226 152.804 127.206 152.803 127.184 152.801C113.269 151.586 103.001 144.831 103.295 137.093C103.38 134.902 104.294 132.824 106.02 130.925C106.045 130.896 106.074 130.871 106.107 130.849C107.922 129.559 110.035 129.016 112.398 129.222C110.913 127.072 110.164 124.505 110.262 121.865C110.519 115.169 116.175 109.932 122.872 110.19C125.955 110.309 128.816 111.559 130.984 113.729C133.345 111.608 136.365 110.521 139.553 110.643C144.105 110.816 148.405 114.064 150.249 118.715C151.839 122.728 151.263 126.915 148.73 130.184C150.997 130.106 153.206 131.037 154.74 132.781C154.747 132.789 154.755 132.798 154.763 132.809C155.224 133.404 155.624 134.019 155.944 134.644C156.015 134.782 156.027 134.948 155.968 135.096C154.362 139.216 151.416 142.99 147.441 146.004C143.373 149.089 138.4 151.241 133.066 152.219ZM127.252 151.703C129.116 151.671 131.005 151.48 132.867 151.139C143.179 149.248 151.581 143.046 154.852 134.931C154.585 134.446 154.268 133.962 153.904 133.495C152.303 131.682 149.843 130.902 147.491 131.456C147.254 131.509 147.007 131.403 146.885 131.189C146.764 130.978 146.802 130.711 146.97 130.535C149.999 127.457 150.843 123.189 149.229 119.121C147.54 114.866 143.637 111.896 139.512 111.736C136.444 111.619 133.544 112.739 131.348 114.889C131.244 114.994 131.099 115.048 130.948 115.044C130.802 115.043 130.657 114.979 130.56 114.869C128.547 112.675 125.804 111.4 122.831 111.283C116.741 111.05 111.591 115.816 111.36 121.906C111.25 124.735 112.217 127.467 114.077 129.598C114.21 129.747 114.248 129.954 114.186 130.139C114.096 130.392 113.819 130.548 113.558 130.496C110.926 129.97 108.714 130.367 106.794 131.709C105.275 133.396 104.465 135.223 104.392 137.133C104.123 144.16 114.165 150.555 127.252 151.703Z" fill="#6C6C6C"/>
<path d="M156.486 124.795C157.111 128.196 156.723 131.596 155.499 134.789C155.2 134.228 154.839 133.679 154.425 133.139C155.424 130.708 156.016 128.073 156.12 125.309C156.151 124.583 156.141 123.86 156.105 123.141C156.254 123.684 156.383 124.235 156.486 124.795Z" fill="#FFCAA1"/>
<path fill-rule="evenodd" clip-rule="evenodd" d="M155.621 135.464C155.594 135.469 155.567 135.472 155.54 135.474C155.27 135.492 155.016 135.351 154.891 135.114C154.612 134.591 154.274 134.069 153.88 133.562C153.73 133.366 153.692 133.109 153.787 132.882C154.779 130.461 155.336 127.906 155.433 125.284C155.461 124.59 155.454 123.885 155.416 123.18C155.397 122.828 155.641 122.519 155.987 122.465C156.333 122.41 156.663 122.619 156.761 122.956C156.921 123.529 157.054 124.102 157.159 124.671C157.792 128.121 157.448 131.609 156.135 135.037C156.049 135.262 155.854 135.421 155.621 135.464ZM155.202 133.037C155.239 133.091 155.278 133.145 155.318 133.198C155.492 132.622 155.637 132.045 155.753 131.468C155.589 131.997 155.405 132.52 155.202 133.037Z" fill="#6C6C6C"/>
<path d="M155.78 133.999C155.38 133.885 155.015 133.71 154.686 133.484C154.6 133.362 154.516 133.25 154.425 133.13C155.244 131.133 155.791 128.995 156.019 126.764C156.248 126.717 156.489 126.687 156.73 126.684C156.918 129.171 156.573 131.637 155.78 133.999Z" fill="#FF9999"/>
<path fill-rule="evenodd" clip-rule="evenodd" d="M155.888 134.684C155.787 134.702 155.681 134.699 155.575 134.668C155.113 134.534 154.674 134.332 154.277 134.054C154.214 134.01 154.163 133.956 154.115 133.896C154.035 133.783 153.951 133.671 153.866 133.559C153.717 133.367 153.683 133.109 153.774 132.883C154.583 130.906 155.104 128.827 155.32 126.703C155.352 126.405 155.573 126.164 155.862 126.102C156.144 126.046 156.425 126.012 156.702 126.007C157.066 126 157.372 126.277 157.398 126.641C157.589 129.173 157.255 131.724 156.411 134.228C156.328 134.471 156.122 134.641 155.888 134.684ZM155.199 133.018C155.244 133.046 155.288 133.073 155.332 133.099C155.487 132.568 155.62 132.038 155.729 131.507C155.567 132.017 155.39 132.521 155.199 133.018Z" fill="#6C6C6C"/>
<path d="M130.623 134.937C130.372 134.983 130.103 134.886 129.944 134.669C129.438 133.973 128.548 133.698 127.739 133.984C127.383 134.108 126.993 133.92 126.864 133.565C126.739 133.209 126.926 132.814 127.282 132.69C128.67 132.203 130.184 132.673 131.05 133.86C131.275 134.165 131.207 134.593 130.902 134.817C130.818 134.878 130.72 134.919 130.623 134.937Z" fill="#6C6C6C"/>
<path d="M130.626 134.943C130.427 134.979 130.218 134.931 130.054 134.788C129.768 134.544 129.734 134.112 129.977 133.821C130.92 132.722 132.501 132.364 133.821 132.948C134.169 133.103 134.326 133.507 134.175 133.854C134.019 134.197 133.615 134.358 133.268 134.203C132.493 133.862 131.57 134.072 131.022 134.715C130.917 134.839 130.776 134.915 130.626 134.943Z" fill="#6C6C6C"/>
<path fill-rule="evenodd" clip-rule="evenodd" d="M117.772 140.473C117.544 140.976 117.767 141.569 118.27 141.797L126.893 145.706C127.396 145.934 127.989 145.711 128.217 145.208C128.445 144.705 128.222 144.113 127.719 143.885L119.096 139.975C118.593 139.747 118 139.97 117.772 140.473Z" fill="#6C6C6C"/>
<path d="M130.306 139.377C130.256 139.386 130.206 139.389 130.157 139.386C129.776 139.373 129.48 139.054 129.493 138.677C129.571 136.57 129.615 135.718 129.724 134.102C129.751 133.724 130.076 133.436 130.455 133.462C130.834 133.489 131.118 133.819 131.091 134.194C130.983 135.791 130.943 136.638 130.866 138.727C130.853 139.053 130.615 139.32 130.306 139.377Z" fill="#6C6C6C"/>
<g opacity="0.3">
<g opacity="0.3">
<path opacity="0.3" d="M111.663 134.707C112.893 137.755 116.339 140.028 119.35 142.089C113.604 140.72 110.506 138.687 110.056 135.991C109.801 134.159 109.457 133.921 111.663 134.707Z" fill="#6C6C6C"/>
</g>
</g>
<path fill-rule="evenodd" clip-rule="evenodd" d="M133.081 152.35C131.144 152.705 129.178 152.906 127.237 152.938C127.213 152.939 127.188 152.938 127.163 152.933C113.174 151.713 102.85 144.9 103.147 137.084C103.23 134.976 104.07 132.97 105.648 131.13C104.877 128.599 104.536 125.976 104.638 123.326C104.698 121.741 104.919 120.164 105.29 118.632C105.317 118.531 105.36 118.442 105.423 118.366C109.9 112.793 116.966 108.775 124.811 107.337C131.853 106.045 138.973 106.888 144.869 109.71C150.765 112.537 154.946 117.097 156.627 122.549C156.643 122.601 156.653 122.652 156.656 122.703C156.72 123.576 156.737 124.462 156.702 125.335C156.6 127.985 156.063 130.574 155.098 133.04C155.468 133.542 155.786 134.058 156.055 134.579C156.147 134.754 156.157 134.957 156.086 135.143C154.471 139.288 151.51 143.078 147.515 146.109C143.428 149.212 138.437 151.367 133.081 152.35ZM127.249 151.567C129.104 151.533 130.985 151.343 132.834 151.004C143.075 149.126 151.419 142.981 154.694 134.938C154.435 134.47 154.127 134.011 153.775 133.561C153.626 133.369 153.591 133.106 153.686 132.879C154.678 130.458 155.23 127.903 155.332 125.281C155.364 124.486 155.348 123.677 155.297 122.879C151.955 112.233 138.976 106.135 125.059 108.687C117.589 110.056 110.869 113.847 106.59 119.105C106.258 120.502 106.061 121.938 106.007 123.38C105.909 125.998 106.262 128.592 107.071 131.084C107.146 131.316 107.088 131.573 106.925 131.754C105.4 133.433 104.592 135.241 104.521 137.138C104.256 144.086 114.236 150.419 127.249 151.567Z" fill="#6C6C6C"/>
<path d="M90.7353 119.231C94.3567 119.082 97.4362 122.389 97.6116 126.621C97.787 130.853 94.9956 134.402 91.3742 134.55C87.7536 134.704 84.6732 131.392 84.4978 127.16C84.3224 122.929 87.1183 119.379 90.7353 119.231Z" fill="white"/>
<path fill-rule="evenodd" clip-rule="evenodd" d="M92.3169 135.279C92.0168 135.334 91.7113 135.367 91.4002 135.378C89.4086 135.461 87.5015 134.638 86.0357 133.065C84.6037 131.526 83.7645 129.441 83.6722 127.201C83.4739 122.522 86.6314 118.582 90.6957 118.411C94.7652 118.244 98.2351 121.913 98.4289 126.592C98.5213 128.833 97.8575 130.979 96.5601 132.631C95.436 134.059 93.9538 134.978 92.3169 135.279ZM90.0905 120.132C87.2623 120.65 85.1696 123.633 85.3152 127.132C85.3907 128.983 86.074 130.691 87.2395 131.946C88.3748 133.16 89.828 133.797 91.3354 133.735C92.8384 133.674 94.237 132.92 95.265 131.614C96.3218 130.267 96.8607 128.508 96.7851 126.657C96.6262 122.887 93.9249 119.926 90.7649 120.054C90.5359 120.065 90.3111 120.091 90.0905 120.132Z" fill="#64EDFF"/>
<path d="M88.6304 133.988C86.3145 132.876 84.6273 130.272 84.4957 127.172C84.3529 123.664 86.2485 120.626 88.9614 119.604C89.1026 119.578 89.2507 119.565 89.4003 119.56C92.2838 119.442 94.7512 122.619 94.9234 126.66C95.0904 130.697 92.8914 134.069 90.0079 134.187C89.5332 134.21 89.0733 134.14 88.6304 133.988Z" fill="white"/>
<path fill-rule="evenodd" clip-rule="evenodd" d="M90.6755 134.797C90.4666 134.835 90.2566 134.858 90.0452 134.867C89.4976 134.89 88.9498 134.812 88.4194 134.631C88.3937 134.624 88.3675 134.613 88.3407 134.6C85.7295 133.346 83.9548 130.438 83.8193 127.193C83.6673 123.487 85.681 120.098 88.7268 118.952C88.7698 118.938 88.8149 118.926 88.8619 118.918C89.0392 118.89 89.2137 118.872 89.381 118.864C92.6317 118.733 95.4278 122.21 95.6136 126.622C95.702 128.717 95.1945 130.721 94.191 132.26C93.2767 133.663 92.0432 134.546 90.6755 134.797ZM88.8945 133.345C89.2534 133.461 89.6231 133.512 89.985 133.496C91.1525 133.446 92.2362 132.741 93.0412 131.513C93.8915 130.208 94.3197 128.492 94.2418 126.678C94.0899 123.021 91.9356 120.133 89.4369 120.235C89.3406 120.241 89.2434 120.249 89.1452 120.261C86.6822 121.228 85.0602 124.043 85.191 127.138C85.3047 129.867 86.7544 132.296 88.8945 133.345Z" fill="#64EDFF"/>
<path d="M112.079 98.4056C113.649 101.588 112.136 102.34 108.99 100.609C106.667 99.3342 104.134 98.9549 101.734 98.7977C99.1187 96.7051 101.332 93.0112 105.72 93.9076C107.903 94.2232 110.582 95.3737 112.079 98.4056Z" fill="white"/>
<path fill-rule="evenodd" clip-rule="evenodd" d="M112.081 102.305C111.225 102.462 110.057 102.138 108.595 101.33C106.303 100.072 103.814 99.7576 101.681 99.6196C101.514 99.6046 101.353 99.5431 101.22 99.4398C99.8718 98.3599 99.4327 96.7394 100.102 95.317C100.822 93.7757 102.885 92.4944 105.865 93.0973C107.693 93.3641 111.005 94.362 112.821 98.0421C113.702 99.8324 113.764 101.112 112.996 101.85C112.745 102.087 112.44 102.239 112.081 102.305ZM102.067 97.9939C104.203 98.1495 106.908 98.5245 109.389 99.8891C111.048 100.803 111.759 100.727 111.861 100.658C111.856 100.659 112.064 100.224 111.345 98.7689C109.855 95.7494 107.111 94.9392 105.607 94.7225C105.591 94.7193 105.576 94.7161 105.56 94.7129C103.442 94.2805 102.043 95.0569 101.589 96.0156C101.272 96.6985 101.443 97.4059 102.067 97.9939Z" fill="#64EDFF"/>
<path d="M148.4 99.2439C148.641 100.007 148.081 100.807 147.33 101.091C146.585 101.378 145.625 101.167 145.303 100.432C143.984 97.427 141.222 94.755 138.251 93.3024C141.521 90.6233 145.599 90.2039 148.4 99.2439Z" fill="white"/>
<path fill-rule="evenodd" clip-rule="evenodd" d="M147.167 101.988C146.165 102.172 144.998 101.802 144.543 100.764C143.349 98.041 140.796 95.463 137.886 94.0449C137.635 93.9221 137.463 93.6801 137.429 93.3989C137.397 93.1221 137.506 92.8468 137.724 92.6699C139.733 91.02 141.66 90.4571 143.445 90.9915C145.826 91.7088 147.757 94.4009 149.186 99.0002C149.536 100.135 148.85 101.392 147.622 101.859C147.478 101.917 147.321 101.96 147.167 101.988ZM139.789 93.2079C142.534 94.8662 144.872 97.4153 146.05 100.104C146.176 100.391 146.681 100.458 147.035 100.325C147.388 100.187 147.71 99.8044 147.611 99.4896C146.377 95.5022 144.769 93.1065 142.974 92.5693C142.017 92.2795 140.949 92.4981 139.789 93.2079Z" fill="#64EDFF"/>
<g opacity="0.3">
<g opacity="0.3">
<path opacity="0.3" d="M87.3823 127.284C87.4278 130.213 88.9169 132.931 91.3585 134.553C87.5287 134.312 84.5242 131.164 84.4622 127.327C84.4003 123.49 87.2985 120.25 91.122 119.886C88.7337 121.582 87.3361 124.351 87.3823 127.284Z" fill="#6C6C6C"/>
</g>
</g>
<g opacity="0.3">
<g opacity="0.3">
<path opacity="0.3" d="M144.725 100.912C142.596 98.5758 139.673 96.634 135.956 95.0872C134.156 92.4438 134.927 91.8465 138.272 93.2944C140.364 93.8593 142.518 96.3967 144.725 100.912Z" fill="#6C6C6C"/>
</g>
</g>
<g opacity="0.3">
<g opacity="0.3">
<path opacity="0.3" d="M101.153 95.1465C101.897 94.1299 103.29 93.8426 104.375 94.4828C103.647 94.297 102.897 94.6808 102.624 95.3785C102.356 96.0798 102.567 97.1037 103.305 97.2237C106.348 97.7282 109.313 98.6941 112.113 100.83C110.84 101.2 107.304 100.396 101.503 98.416C100.561 97.5809 100.41 96.163 101.153 95.1465Z" fill="#6C6C6C"/>
</g>
</g>
<g opacity="0.3">
<g opacity="0.3">
<path opacity="0.3" d="M139.848 92.4813C144.259 94.8767 146.5 97.6808 146.57 100.893C144.401 98.175 141.943 95.768 139.196 93.6725C139.116 93.6841 139.333 93.287 139.848 92.4813Z" fill="#6C6C6C"/>
</g>
</g>
<g opacity="0.3">
<g opacity="0.3">
<path opacity="0.3" d="M155.011 134.135C151.943 142.313 143.401 149.147 132.428 151.159C117.222 153.947 103.102 146.43 100.887 134.373C99.8789 128.884 101.508 123.4 105.022 118.793C103.835 121.943 103.466 125.299 104.082 128.652C106.298 140.709 120.422 148.225 135.627 145.437C137.913 145.018 140.092 144.39 142.137 143.582C141.391 143.441 140.624 143.262 139.838 143.032C142.715 142.553 145.574 141.591 148.416 140.146C148.4 140.208 148.379 140.267 148.367 140.324C150.994 138.561 153.244 136.46 155.011 134.135Z" fill="#6C6C6C"/>
</g>
</g>
<path fill-rule="evenodd" clip-rule="evenodd" d="M132.524 151.694C117.046 154.532 102.609 146.804 100.343 134.469C98.0764 122.134 108.825 109.788 124.304 106.95C139.783 104.111 154.219 111.839 156.486 124.174C158.752 136.51 148.003 148.856 132.524 151.694ZM124.502 108.026C109.619 110.755 99.2668 122.531 101.424 134.271C103.58 146.011 117.443 153.342 132.326 150.613C147.209 147.884 157.561 136.112 155.405 124.373C153.248 112.633 139.385 105.297 124.502 108.026Z" fill="#6C6C6C"/>
<path d="M143.216 126.81C142.774 129.445 141.048 131.248 139.359 130.837C137.673 130.426 136.659 127.958 137.1 125.323C137.542 122.688 139.268 120.885 140.957 121.296C142.647 121.707 143.657 124.175 143.216 126.81Z" fill="#6C6C6C"/>
<path d="M142.094 123.731C142.283 124.636 141.979 125.512 141.418 125.688C140.857 125.86 140.25 125.264 140.06 124.355C139.876 123.449 140.179 122.568 140.741 122.397C141.302 122.226 141.909 122.821 142.094 123.731Z" fill="white"/>
<path d="M139.308 128.372C139.494 128.812 139.425 129.308 139.156 129.48C138.882 129.649 138.508 129.43 138.323 128.99C138.137 128.55 138.205 128.054 138.479 127.881C138.749 127.713 139.122 127.931 139.308 128.372Z" fill="white"/>
<path d="M121.44 121.065C123.106 120.827 124.596 122.73 124.768 125.306C124.946 127.887 123.737 130.165 122.073 130.397C120.411 130.634 118.917 128.732 118.745 126.155C118.571 123.574 119.777 121.297 121.44 121.065Z" fill="#6C6C6C"/>
<path d="M121.549 122.128C122.072 122.347 122.283 123.22 122.016 124.076C121.749 124.932 121.11 125.451 120.585 125.228C120.062 125.009 119.851 124.136 120.118 123.28C120.385 122.424 121.025 121.91 121.549 122.128Z" fill="white"/>
<path d="M123.192 127.65C123.442 127.841 123.462 128.325 123.24 128.731C123.018 129.136 122.64 129.315 122.391 129.124C122.146 128.932 122.125 128.447 122.347 128.042C122.569 127.636 122.948 127.462 123.192 127.65Z" fill="white"/>
<g opacity="0.2">
<g opacity="0.2">
<g opacity="0.2">
<path opacity="0.2" d="M105.653 128.227C105.371 126.642 105.254 125.012 105.317 123.345C105.376 121.779 105.594 120.257 105.953 118.786C110.186 113.522 116.909 109.476 124.931 108.005C139.258 105.377 152.621 111.898 155.968 122.746C156.032 123.587 156.047 124.441 156.014 125.305C156.014 125.351 156.008 125.393 156.007 125.438C152.208 115.139 139.199 109.051 125.277 111.603C117.255 113.074 110.532 117.121 106.3 122.385C105.94 123.856 105.723 125.378 105.664 126.944C105.647 127.376 105.648 127.8 105.653 128.227Z" fill="#6C6C6C"/>
</g>
</g>
<g opacity="0.2">
<g opacity="0.2">
<path opacity="0.2" d="M155.379 134.754C155.405 134.799 155.432 134.845 155.454 134.891C155.262 135.385 155.051 135.874 154.82 136.357C155.025 135.831 155.214 135.295 155.379 134.754Z" fill="#6C6C6C"/>
</g>
</g>
<g opacity="0.2">
<g opacity="0.2">
<path opacity="0.2" d="M104.251 139.955C103.949 139.03 103.806 138.076 103.843 137.111C103.915 135.196 104.68 133.401 106.001 131.781C106.187 132.842 106.441 133.88 106.769 134.892C105.377 136.424 104.5 138.131 104.251 139.955Z" fill="#6C6C6C"/>
</g>
</g>
</g>
<path fill-rule="evenodd" clip-rule="evenodd" d="M121.795 83.1185C120.959 85.7563 121.226 88.4361 121.732 90.1218L123.273 89.6598C122.84 88.2192 122.609 85.8756 123.328 83.6039C124.035 81.3732 125.667 79.1728 129.058 77.9278L128.503 76.4184C124.62 77.8443 122.643 80.4396 121.795 83.1185Z" fill="#64EDFF"/>
<path d="M125.561 77.5057C125.839 79.0163 127.289 80.0161 128.8 79.7389C130.311 79.4617 131.311 78.0124 131.034 76.5019C130.756 74.9913 129.306 73.9914 127.795 74.2686C126.284 74.5458 125.284 75.9951 125.561 77.5057Z" fill="#64EDFF"/>
<path fill-rule="evenodd" clip-rule="evenodd" d="M114.982 79.5984C114.981 79.5982 114.983 79.6054 114.991 79.6205C114.987 79.6061 114.983 79.5986 114.982 79.5984ZM115.406 80.1489C115.773 80.1103 116.257 80.1027 116.861 80.1462C118.61 80.2721 120.998 80.7973 123.579 81.7254C126.161 82.6535 128.336 83.7687 129.764 84.785C130.258 85.1362 130.627 85.4504 130.885 85.7136C130.518 85.7522 130.034 85.7598 129.429 85.7163C127.681 85.5904 125.293 85.0652 122.712 84.1371C120.13 83.209 117.955 82.0938 116.526 81.0775C116.033 80.7264 115.664 80.4121 115.406 80.1489ZM131.562 85.5591C131.562 85.5587 131.554 85.5623 131.542 85.5708C131.557 85.5637 131.563 85.5594 131.562 85.5591ZM131.309 86.2641C131.309 86.2643 131.307 86.2571 131.3 86.242C131.304 86.2564 131.308 86.2639 131.309 86.2641ZM114.749 80.2917C114.734 80.2988 114.728 80.3031 114.729 80.3034C114.729 80.3038 114.737 80.3002 114.749 80.2917ZM122.167 85.6502C116.809 83.7239 112.904 80.945 113.444 79.4434C113.984 77.9418 118.765 78.286 124.123 80.2123C129.482 82.1386 133.387 84.9175 132.847 86.4191C132.307 87.9207 127.525 87.5765 122.167 85.6502Z" fill="#64EDFF"/>
</g>
<path d="M147.486 146.896L159.236 142.093C159.525 146.392 162.698 147.096 163.979 153.106L152.717 160.204L147.486 146.896Z" fill="#FC7135"/>
<path d="M153.417 141.701C153.444 141.659 153.467 141.624 153.485 141.596L156.429 138.571C156.457 138.529 156.491 138.492 156.532 138.459C157.23 137.841 158.31 137.828 159.052 138.428C159.247 138.585 159.416 138.784 159.537 139.011C159.75 139.416 159.798 139.893 159.714 140.344C159.635 140.65 159.486 140.97 159.254 141.236L157.603 143.048L156.436 144.342C156.245 144.545 156.025 144.7 155.798 144.821C155.158 145.119 154.41 145.08 153.816 144.665C153.76 144.629 153.702 144.581 153.641 144.522C153.445 144.365 153.276 144.166 153.177 143.953C152.786 143.224 152.851 142.344 153.417 141.701Z" fill="#FC7135"/>
<path d="M150.314 142.201L150.969 140.978L151.666 139.722L152.277 138.533C152.768 137.643 153.818 137.277 154.689 137.651C155.007 137.807 155.272 138.02 155.45 138.301C155.608 138.516 155.711 138.788 155.74 139.051C155.81 139.444 155.742 139.851 155.556 140.229L154.3 142.783L153.688 143.972C153.218 144.926 152.082 145.36 151.158 144.933C150.84 144.777 150.576 144.564 150.397 144.283C149.998 143.701 149.943 142.901 150.314 142.201Z" fill="url(#paint40_linear_29022_29893)"/>
<path d="M147.199 143.526L147.744 141.973L148.333 140.373L148.834 138.868C149.247 137.736 150.396 137.111 151.464 137.385C151.858 137.509 152.2 137.708 152.453 138.003C152.672 138.226 152.838 138.524 152.917 138.826C153.065 139.273 153.056 139.762 152.906 140.239L151.895 143.461L151.393 144.966C151.015 146.171 149.779 146.891 148.641 146.564C148.247 146.441 147.905 146.241 147.651 145.946C147.092 145.339 146.891 144.414 147.199 143.526Z" fill="url(#paint41_linear_29022_29893)"/>
<path d="M153.351 157.609C153.351 157.609 151.128 156.348 149.987 154.065C149.987 154.065 148.895 151.733 147.804 149.4C146.341 146.275 145.06 144.145 145.06 144.145C141.635 140.874 144.447 137.153 147.482 139.6L152.91 146.74C152.91 146.74 162.613 150.182 153.351 157.609Z" fill="url(#paint42_linear_29022_29893)"/>
<rect x="142.47" y="137.024" width="4.08098" height="19.2389" rx="2.04049" transform="rotate(-48.8072 142.47 137.024)" fill="#A584FF"/>
<path d="M161.816 140.405C162.336 140.911 162.572 141.628 162.411 142.321L161.373 146.308C161.113 147.35 160.053 147.919 158.983 147.638C158.684 147.567 158.407 147.422 158.174 147.219C158.119 147.179 158.078 147.148 158.05 147.128C158.024 147.078 157.982 147.047 157.962 147.032C157.47 146.487 157.249 145.751 157.466 145.069L158.621 141.139C158.787 140.569 159.215 140.164 159.751 139.959C159.817 139.927 159.89 139.901 159.969 139.88C160.264 139.827 160.565 139.809 160.884 139.895C161.259 139.993 161.577 140.168 161.816 140.405Z" fill="url(#paint43_linear_29022_29893)"/>
<path d="M155.047 144.759L155.087 144.503L155.565 140.544C155.61 140.038 155.856 139.585 156.206 139.274C156.366 139.139 156.54 139.025 156.729 138.932C156.984 138.804 157.252 138.738 157.534 138.735C158.044 138.733 158.488 138.903 158.829 139.251C159.069 139.492 159.229 139.801 159.325 140.158C159.37 140.339 159.382 140.538 159.361 140.755L158.982 144.946C158.884 146.048 157.948 146.908 156.907 146.898C156.484 146.902 156.114 146.755 155.824 146.54C155.786 146.511 155.747 146.483 155.708 146.454C155.67 146.426 155.631 146.397 155.592 146.368C155.193 145.977 154.965 145.396 155.047 144.759Z" fill="url(#paint44_linear_29022_29893)"/>
<path d="M155.524 137.34C155.972 137.672 156.3 138.167 156.335 138.76L156.74 143.03C156.849 144.12 156.055 145.107 154.95 145.234C154.469 145.286 154.016 145.172 153.655 144.936C153.599 144.926 153.558 144.896 153.538 144.88C153.048 144.518 152.695 143.972 152.67 143.324L152.412 139.068C152.388 138.546 152.552 138.068 152.844 137.717C153.145 137.31 153.579 137.065 154.111 136.987C154.628 136.928 155.101 137.058 155.524 137.34Z" fill="url(#paint45_linear_29022_29893)"/>
<path d="M151.852 137.425C152.301 137.758 152.629 138.253 152.663 138.846L153.068 143.116C153.177 144.205 152.383 145.192 151.278 145.319C150.797 145.372 150.345 145.258 149.983 145.021C149.927 145.011 149.886 144.981 149.866 144.966C149.376 144.604 149.023 144.058 148.998 143.409L148.74 139.153C148.716 138.631 148.88 138.154 149.172 137.803C149.473 137.396 149.908 137.151 150.44 137.072C150.956 137.014 151.429 137.144 151.852 137.425Z" fill="url(#paint46_linear_29022_29893)"/>
<path d="M125.729 128.323C128.343 135.282 136.103 138.804 143.062 136.19C150.021 133.576 153.544 125.816 150.93 118.857C148.316 111.898 140.555 108.376 133.596 110.99C126.637 113.604 123.115 121.364 125.729 128.323Z" fill="#FFDEC5"/>
<path d="M145.188 125.178C144.182 131.179 140.252 135.286 136.403 134.35C132.564 133.413 130.253 127.792 131.259 121.791C132.265 115.79 136.195 111.683 140.044 112.618C143.893 113.554 146.194 119.177 145.188 125.178Z" fill="#6C6C6C"/>
<path d="M142.65 118.164C143.081 120.225 142.388 122.221 141.111 122.622C139.832 123.012 138.451 121.655 138.018 119.585C137.598 117.522 138.289 115.516 139.568 115.125C140.846 114.735 142.228 116.091 142.65 118.164Z" fill="white"/>
<path d="M136.29 128.732C136.713 129.735 136.557 130.865 135.944 131.257C135.319 131.642 134.469 131.144 134.046 130.141C133.622 129.138 133.779 128.009 134.402 127.614C135.017 127.231 135.867 127.73 136.29 128.732Z" fill="white"/>
<path d="M154.955 117.333C158.385 126.465 153.763 136.648 144.631 140.078C135.499 143.508 125.316 138.886 121.886 129.754C118.455 120.623 123.078 110.439 132.209 107.009C141.341 103.579 151.524 108.201 154.955 117.333ZM125.923 128.238C128.516 135.139 136.212 138.633 143.114 136.04C150.016 133.448 153.509 125.751 150.917 118.85C148.324 111.948 140.628 108.455 133.726 111.047C126.824 113.64 123.331 121.336 125.923 128.238Z" fill="#A584FF"/>
<path d="M150.76 156.204L164.131 150.383L177.953 187.837C180.259 197.404 161.592 199.326 156.233 192.41L150.76 156.204Z" fill="#4B50BA"/>
<path d="M182.978 93.4886C185.088 94.8158 186.409 96.4744 186.942 98.4643C187.507 100.446 187.143 102.467 185.847 104.527C184.565 106.566 182.944 107.725 180.985 108.003C179.039 108.26 177.011 107.725 174.901 106.398L173.268 108.724L169.524 106.37L172.709 100.968L174.079 101.83C175.844 102.94 177.354 103.556 178.609 103.677C179.863 103.798 180.89 103.224 181.688 101.955C182.264 101.039 182.458 100.145 182.271 99.2725C182.104 98.4125 181.574 97.7017 180.681 97.1402C179.748 96.5532 178.854 96.3539 177.999 96.5423C177.165 96.7434 176.459 97.3017 175.884 98.2173L171.866 95.6905C172.644 94.4085 173.621 93.4404 174.797 92.7862C175.973 92.1321 177.265 91.8559 178.674 91.9577C180.102 92.0722 181.537 92.5825 182.978 93.4886ZM166.69 114.997C165.919 114.512 165.43 113.871 165.224 113.073C165.051 112.267 165.193 111.501 165.651 110.772C166.109 110.044 166.732 109.594 167.52 109.421C168.342 109.241 169.138 109.393 169.909 109.878C170.66 110.351 171.121 110.989 171.294 111.795C171.48 112.58 171.344 113.336 170.886 114.065C170.428 114.793 169.799 115.254 168.998 115.447C168.21 115.619 167.44 115.469 166.69 114.997Z" fill="white"/>
<path d="M179.194 112.337C179.673 112.984 179.875 113.639 179.801 114.3C179.738 114.963 179.39 115.528 178.758 115.995C178.132 116.457 177.508 116.615 176.886 116.468C176.271 116.317 175.724 115.917 175.245 115.269L174.48 115.777L173.631 114.628L175.225 113.378L175.535 113.798C175.936 114.34 176.317 114.703 176.681 114.887C177.044 115.071 177.42 115.019 177.81 114.732C178.091 114.524 178.254 114.278 178.301 113.993C178.352 113.715 178.276 113.439 178.073 113.165C177.862 112.878 177.616 112.713 177.337 112.669C177.062 112.631 176.784 112.716 176.504 112.924L175.592 111.691C175.977 111.397 176.385 111.221 176.816 111.162C177.247 111.104 177.668 111.173 178.08 111.369C178.496 111.572 178.867 111.894 179.194 112.337ZM171.763 116.889C171.588 116.653 171.516 116.402 171.548 116.138C171.591 115.875 171.724 115.662 171.947 115.496C172.171 115.331 172.411 115.269 172.669 115.31C172.937 115.352 173.159 115.492 173.333 115.729C173.504 115.959 173.567 116.206 173.525 116.468C173.488 116.726 173.358 116.938 173.135 117.103C172.911 117.268 172.668 117.333 172.404 117.296C172.147 117.256 171.933 117.12 171.763 116.889Z" fill="white"/>
<path d="M165.275 100.192C166.194 100.428 166.866 100.876 167.29 101.535C167.726 102.188 167.829 102.964 167.598 103.861C167.37 104.75 166.917 105.358 166.239 105.687C165.563 106.006 164.766 106.048 163.846 105.812L163.525 106.845L161.893 106.427L162.421 104.098L163.017 104.251C163.786 104.448 164.406 104.496 164.875 104.394C165.344 104.292 165.649 103.965 165.791 103.412C165.893 103.013 165.86 102.666 165.691 102.371C165.53 102.079 165.255 101.883 164.866 101.783C164.46 101.679 164.112 101.71 163.824 101.878C163.545 102.048 163.354 102.332 163.252 102.731L161.501 102.282C161.634 101.726 161.876 101.262 162.227 100.888C162.577 100.514 163.013 100.264 163.536 100.137C164.067 100.012 164.647 100.031 165.275 100.192ZM161.868 109.884C161.532 109.798 161.281 109.622 161.113 109.357C160.957 109.085 160.919 108.79 161.001 108.473C161.082 108.156 161.256 107.92 161.521 107.766C161.798 107.605 162.105 107.568 162.441 107.654C162.768 107.738 163.01 107.916 163.166 108.188C163.325 108.451 163.363 108.741 163.282 109.059C163.2 109.376 163.026 109.616 162.757 109.779C162.492 109.933 162.195 109.968 161.868 109.884Z" fill="white"/>
<path d="M42.9963 41.2833C45.6726 41.2833 48.2396 41.7517 50.6197 42.611L42.9963 62.4596L22.0349 55.6832C25.2702 47.2611 33.4351 41.2833 42.9963 41.2833Z" fill="#C7C0F4"/>
<path d="M42.9963 86.1769C38.2799 86.1769 33.9033 84.7224 30.2905 82.2374L42.9963 62.4596L51.8903 84.346C49.1631 85.5241 46.1559 86.1769 42.9963 86.1769Z" fill="#FEA056"/>
<path d="M42.9963 62.4596L50.6197 42.611C58.3704 45.4093 64.139 52.353 65.249 60.7655L42.9963 62.4596Z" fill="#ADD39D"/>
<path fill-rule="evenodd" clip-rule="evenodd" d="M59.8527 78.5535L42.9963 62.4596L51.8903 84.346C54.9597 83.02 57.6745 81.0285 59.8527 78.5535Z" fill="#A9E0FF"/>
<path d="M20.5494 63.7301C20.5494 60.8942 21.0753 58.1812 22.0349 55.6832L42.9963 62.4596L22.0349 71.7771C21.0753 69.2791 20.5494 66.566 20.5494 63.7301Z" fill="#5691DA"/>
<path d="M50.6197 42.611C48.2396 41.7517 45.6726 41.2833 42.9963 41.2833C33.4351 41.2833 25.2702 47.2611 22.0349 55.6832M50.6197 42.611L42.9963 62.4596M50.6197 42.611C58.3704 45.4093 64.139 52.353 65.249 60.7655L42.9963 62.4596M42.9963 62.4596L22.0349 55.6832M42.9963 62.4596L22.0349 71.7771C21.0753 69.2791 20.5494 66.566 20.5494 63.7301C20.5494 60.8942 21.0753 58.1812 22.0349 55.6832M42.9963 62.4596L30.2905 82.2374C33.9033 84.7224 38.2799 86.1769 42.9963 86.1769C46.1559 86.1769 49.1631 85.5241 51.8903 84.346M42.9963 62.4596L51.8903 84.346M42.9963 62.4596L59.8527 78.5535C57.6745 81.0285 54.9597 83.02 51.8903 84.346" stroke="#6C6C6C" stroke-width="0.496573" stroke-linejoin="round"/>
<path d="M16.5279 76.8593L37.4893 67.5417L24.7835 87.3196C21.0724 84.7669 18.1673 81.1269 16.5279 76.8593Z" fill="#E55F5B" stroke="#6C6C6C" stroke-width="0.496573" stroke-linejoin="round"/>
<path d="M71.3721 65.4243C71.3721 71.1054 69.2615 76.2937 65.7817 80.2476L48.9253 64.1537L71.178 62.4596C71.306 63.4297 71.3721 64.4192 71.3721 65.4243Z" fill="#FCCC80" stroke="#6C6C6C" stroke-width="0.496573" stroke-linejoin="round"/>
<circle cx="2.96467" cy="2.96467" r="2.96467" transform="matrix(-1 0 0 1 82.0938 103.248)" fill="#BEB5F0"/>
<rect width="26.2585" height="1.6941" transform="matrix(-1 0 0 1 73.625 103.247)" fill="white"/>
<rect width="26.2585" height="1.6941" transform="matrix(-1 0 0 1 73.625 106.636)" fill="white"/>
<circle cx="2.96467" cy="2.96467" r="2.96467" transform="matrix(-1 0 0 1 43.9609 103.247)" fill="#A7CE8B"/>
<rect width="26.2585" height="1.6941" transform="matrix(-1 0 0 1 35.4902 103.247)" fill="#6C6C6C"/>
<rect width="26.2585" height="1.6941" transform="matrix(-1 0 0 1 35.4902 106.635)" fill="#6C6C6C"/>
<circle cx="2.96467" cy="2.96467" r="2.96467" transform="matrix(-1 0 0 1 82.0938 115.106)" fill="#5791DA"/>
<rect width="26.2585" height="1.6941" transform="matrix(-1 0 0 1 73.625 115.106)" fill="white"/>
<rect width="26.2585" height="1.6941" transform="matrix(-1 0 0 1 73.625 118.494)" fill="white"/>
<circle cx="2.96467" cy="2.96467" r="2.96467" transform="matrix(-1 0 0 1 82.0938 126.965)" fill="#FEA056"/>
<rect width="26.2585" height="1.6941" transform="matrix(-1 0 0 1 73.625 126.965)" fill="white"/>
<rect width="26.2585" height="1.6941" transform="matrix(-1 0 0 1 73.625 130.353)" fill="white"/>
<circle cx="2.96467" cy="2.96467" r="2.96467" transform="matrix(-1 0 0 1 82.0938 138.823)" fill="#A9DBFC"/>
<rect width="26.2585" height="1.6941" transform="matrix(-1 0 0 1 73.625 138.823)" fill="white"/>
<rect width="26.2585" height="1.6941" transform="matrix(-1 0 0 1 73.625 142.212)" fill="white"/>
<path fill-rule="evenodd" clip-rule="evenodd" d="M258.761 135.845C258.974 135.842 259.17 135.96 259.266 136.15L270.654 158.534L275.851 149.996C275.952 149.83 276.133 149.728 276.327 149.728H281.689L284.397 143.925C284.488 143.729 284.685 143.603 284.902 143.603H295.212L297.184 140.505L295.831 140.186C295.53 140.253 295.233 140.064 295.166 139.763C295.099 139.463 295.289 139.165 295.589 139.099L298.255 139.125C298.556 139.058 298.853 139.248 298.92 139.548L300.008 142.214C300.075 142.515 299.885 142.812 299.585 142.879C299.284 142.946 298.987 142.756 298.92 142.456L298.124 141.103L295.988 144.46C295.886 144.62 295.708 144.718 295.518 144.718H285.257L282.548 150.521C282.457 150.717 282.26 150.842 282.043 150.842H276.64L271.086 159.966C270.981 160.139 270.791 160.241 270.589 160.233C270.387 160.226 270.206 160.109 270.114 159.929L258.787 137.666L251.923 152.157C251.791 152.435 251.459 152.554 251.181 152.422C250.903 152.29 250.784 151.958 250.916 151.68L258.266 136.164C258.357 135.972 258.549 135.848 258.761 135.845Z" fill="#9AA4CD"/>
<path fill-rule="evenodd" clip-rule="evenodd" d="M303.148 143.7C303.448 143.63 303.748 143.815 303.818 144.115L304.967 146.767C305.037 147.067 304.851 147.367 304.552 147.437C304.252 147.508 303.952 147.322 303.882 147.022L303.042 145.679L298.441 153.11C298.34 153.274 298.161 153.374 297.968 153.374H290.587L287.46 161.19C287.381 161.39 287.193 161.526 286.978 161.54C286.764 161.553 286.561 161.442 286.456 161.254L284.902 158.456L283.347 161.254C283.279 161.376 283.168 161.468 283.036 161.512L273.424 164.716L270.672 169.041C270.57 169.201 270.393 169.299 270.202 169.299H251.419C251.112 169.299 250.862 169.049 250.862 168.742C250.862 168.434 251.112 168.184 251.419 168.184H269.896L272.59 163.951C272.659 163.843 272.763 163.762 272.884 163.722L282.478 160.523L284.415 157.038C284.513 156.861 284.699 156.752 284.902 156.752C285.104 156.752 285.29 156.861 285.389 157.038L286.861 159.689L289.692 152.61C289.777 152.399 289.982 152.26 290.21 152.26H297.657L302.094 145.093L300.751 144.819C300.452 144.889 300.152 144.704 300.081 144.404C300.011 144.105 300.196 143.805 300.496 143.734L303.148 143.7Z" fill="#FDBD64"/>
<path fill-rule="evenodd" clip-rule="evenodd" d="M302.784 152.266C303.088 152.22 303.372 152.429 303.418 152.733L304.174 155.462C304.221 155.766 304.012 156.05 303.708 156.096C303.404 156.143 303.119 155.934 303.073 155.63L302.52 154.231L293.108 167.03C293.003 167.173 292.837 167.257 292.66 167.257H284.4L282.113 171.07C282.019 171.226 281.854 171.327 281.672 171.339C281.49 171.351 281.314 171.274 281.2 171.131L278.343 167.561L275.108 171.156C275.002 171.273 274.852 171.34 274.694 171.34H270.092L268.624 173.542C268.521 173.697 268.347 173.79 268.16 173.79H251.419C251.112 173.79 250.862 173.541 250.862 173.233C250.862 172.925 251.112 172.676 251.419 172.676H267.862L269.33 170.474C269.434 170.319 269.607 170.226 269.794 170.226H274.445L277.954 166.327C278.064 166.206 278.221 166.138 278.385 166.143C278.548 166.148 278.701 166.224 278.804 166.352L281.57 169.81L283.607 166.413C283.708 166.246 283.889 166.143 284.085 166.143H292.378L301.622 153.571L300.223 153.01C299.919 153.056 299.635 152.847 299.589 152.543C299.542 152.239 299.751 151.955 300.055 151.908L302.784 152.266Z" fill="#E0615D"/>
<path fill-rule="evenodd" clip-rule="evenodd" d="M251.025 127.298C251.243 127.08 251.595 127.08 251.813 127.298L254.244 130.844C254.462 131.061 254.462 131.414 254.244 131.631C254.027 131.849 253.674 131.849 253.456 131.631L251.976 129.037V175.534H305.823L303.229 172.94C303.011 172.722 303.011 172.369 303.229 172.152C303.446 171.934 303.799 171.934 304.017 172.152L307.562 175.697C307.78 175.915 307.78 176.268 307.562 176.485L304.017 180.031C303.799 180.248 303.446 180.248 303.229 180.031C303.011 179.813 303.011 179.46 303.229 179.243L305.823 176.648H251.419C251.111 176.648 250.862 176.399 250.862 176.091V129.037L249.382 131.631C249.164 131.849 248.811 131.849 248.594 131.631C248.376 131.414 248.376 131.061 248.594 130.844L251.025 127.298Z" fill="white"/>
<rect width="5.23033" height="35.5663" transform="matrix(-1 0 0 1 271.479 48.0248)" fill="#FDBD64"/>
<rect width="5.23033" height="42.8887" transform="matrix(-1 0 0 1 261.017 40.702)" fill="#E0615D"/>
<rect width="5.23033" height="31.382" transform="matrix(-1 0 0 1 250.557 52.2087)" fill="#9AA4CD"/>
<rect width="5.23033" height="39.7505" transform="matrix(-1 0 0 1 240.096 43.8403)" fill="#ADD39D"/>
<rect width="5.23033" height="21.9674" transform="matrix(-1 0 0 1 229.637 61.6235)" fill="#F28A62"/>
<rect width="5.23033" height="28.2438" transform="matrix(-1 0 0 1 219.175 55.347)" fill="#9FD9FE"/>
<path d="M272.001 101.489V103.466C269.434 103.466 267.26 101.786 266.519 99.4646L268.408 98.8795C268.899 100.394 270.322 101.489 272.001 101.489Z" fill="#FFCB7F"/>
<path fill-rule="evenodd" clip-rule="evenodd" d="M274.939 95.3414L276.341 93.9367C277.221 94.9472 277.754 96.2679 277.754 97.7131C277.754 100.891 275.178 103.466 272.001 103.466V101.489C274.086 101.489 275.777 99.7987 275.777 97.7131C275.777 96.8148 275.463 95.9897 274.939 95.3414Z" fill="#E0615D"/>
<path d="M266.247 97.7131C266.247 94.5356 268.823 91.9597 272.001 91.9597C273.733 91.9597 275.286 92.7254 276.341 93.9367L274.939 95.3414C274.247 94.4846 273.188 93.9367 272.001 93.9367C269.915 93.9367 268.224 95.6275 268.224 97.7131C268.224 98.1201 268.289 98.5121 268.408 98.8795L266.519 99.4646C266.342 98.9123 266.247 98.3238 266.247 97.7131Z" fill="#ADD39D"/>
<rect width="12.5528" height="2.09213" transform="matrix(-1 0 0 1 263.109 95.098)" fill="white"/>
<rect width="20.9213" height="2.09213" transform="matrix(-1 0 0 1 263.109 99.282)" fill="white"/>
<path d="M239.05 97.7128C239.05 100.89 236.474 103.466 233.296 103.466C230.73 103.466 228.555 101.785 227.815 99.4644C227.638 98.9121 227.543 98.3236 227.543 97.7128H229.52C229.52 98.1199 229.584 98.5119 229.704 98.8792C230.195 100.394 231.618 101.489 233.296 101.489C235.382 101.489 237.073 99.7985 237.073 97.7128H239.05Z" fill="#ADD39D"/>
<path d="M227.543 97.7128C227.543 94.5353 230.119 91.9595 233.296 91.9595C235.029 91.9595 236.582 92.7251 237.637 93.9365C238.517 94.947 239.05 96.2677 239.05 97.7128H237.073C237.073 96.8145 236.759 95.9894 236.235 95.3412C235.543 94.4844 234.484 93.9365 233.296 93.9365C231.211 93.9365 229.52 95.6272 229.52 97.7128H227.543Z" fill="#F28A62"/>
<rect width="12.5528" height="2.09213" transform="matrix(-1 0 0 1 224.405 95.0979)" fill="white"/>
<rect width="20.9213" height="2.09213" transform="matrix(-1 0 0 1 224.405 99.282)" fill="white"/>
<path d="M119.777 203.737L109.053 202.333L111.381 192.871L124.648 193.962L132.467 195.301C135.624 197.116 141.569 204.226 141.265 204.8C140.974 205.352 139.842 205.533 139.041 204.841C139.007 204.812 138.973 204.781 138.941 204.748C138.63 205.613 137.926 205.662 136.61 204.987C136.3 205.852 135.137 205.826 134.279 205.225C133.969 206.09 133.097 206.071 131.954 205.173C131.954 205.173 128.312 202.605 125.621 202.414C123.287 202.249 119.777 203.737 119.777 203.737Z" fill="url(#paint47_linear_29022_29893)"/>
<path fill-rule="evenodd" clip-rule="evenodd" d="M138.94 204.747C136.213 201.686 133.686 199.875 130.387 197.288C130.103 196.991 130.4 196.707 130.684 197.004C134.005 199.609 135.908 201.069 138.663 204.16C138.865 204.425 138.909 204.35 138.94 204.747ZM136.609 204.986C133.735 202.231 131.972 200.939 128.468 198.955C128.17 198.786 128.036 198.398 128.327 198.405C131.856 200.404 133.411 201.599 136.332 204.398C136.497 204.556 136.524 204.732 136.609 204.986ZM126.539 200.399C130.079 201.956 131.624 202.454 134.002 204.636C134.13 204.754 134.198 204.994 134.279 205.224C131.962 203.097 129.922 202.205 126.422 200.665C126.245 200.393 126.247 200.393 126.539 200.399Z" fill="#D7631E"/>
<g opacity="0.2" filter="url(#filter6_f_29022_29893)">
<path d="M143.381 213.923L132.08 208.272V206.658L182.53 202.218L197.059 205.043V206.797L143.381 213.923Z" fill="black"/>
</g>
<path d="M143.381 213.923L132.08 208.272V206.658L182.53 202.218L197.059 205.043V206.797L143.381 213.923Z" fill="#E4E1E1"/>
<path d="M143.381 212.308L132.08 206.658L182.53 200.604L197.059 205.183L143.381 212.308Z" fill="#F8F8F8"/>
<g opacity="0.3" filter="url(#filter7_f_29022_29893)">
<ellipse cx="32.4847" cy="1.29939" rx="32.4847" ry="1.29939" transform="matrix(0.998211 -0.0597916 -0.0597916 -0.998211 183.54 214.239)" fill="black"/>
</g>
<path d="M248.371 133.035H182.526C182.062 133.035 181.667 133.371 181.594 133.829L171.234 198.21C171.141 198.784 171.585 199.304 172.166 199.304H239.612L248.371 133.035Z" fill="#F6F7FB"/>
<path d="M252.27 133.035H185.863C185.4 133.035 185.006 133.371 184.932 133.828L174.484 198.208C174.391 198.783 174.835 199.304 175.416 199.304H243.437L252.27 133.035Z" fill="#D9DEED"/>
<path d="M212.311 170.717H206.139L208.737 199.304H220.432L223.68 170.717H212.311Z" fill="#6B7179"/>
<path fill-rule="evenodd" clip-rule="evenodd" d="M223.681 170.717H212.312L216.21 202.227C216.859 208.724 213.936 210.998 207.764 212.298H227.255C234.726 211.973 237.65 204.176 235.376 198.004L223.681 170.717Z" fill="#F6F7FB"/>
<path d="M212.312 170.717H206.14V172.991H210.038C210.687 172.991 211.012 173.316 211.012 173.966L213.611 202.877C213.611 206.126 211.012 209.699 207.439 209.699H190.547V212.298H207.764C213.936 210.998 216.859 208.724 216.21 202.227L212.312 170.717Z" fill="#AFB9C8"/>
<path d="M83.4576 198.026C80.028 182.402 81.1712 147.724 98.7005 147.724C102.971 150.778 105.179 152.678 105.179 161.062C105.179 169.446 102.892 184.307 102.892 184.307L120.803 193.453L116.992 204.885C102.942 202.832 84.6008 204.885 83.4576 198.026Z" fill="url(#paint48_linear_29022_29893)"/>
<defs>
<filter id="filter0_f_29022_29893" x="138.757" y="71.0424" width="196.537" height="261.933" filterUnits="userSpaceOnUse" color-interpolation-filters="sRGB">
<feFlood flood-opacity="0" result="BackgroundImageFix"/>
<feBlend mode="normal" in="SourceGraphic" in2="BackgroundImageFix" result="shape"/>
<feGaussianBlur stdDeviation="0.993145" result="effect1_foregroundBlur_29022_29893"/>
</filter>
<filter id="filter1_f_29022_29893" x="-17.8481" y="32.1265" width="184.889" height="183.524" filterUnits="userSpaceOnUse" color-interpolation-filters="sRGB">
<feFlood flood-opacity="0" result="BackgroundImageFix"/>
<feBlend mode="normal" in="SourceGraphic" in2="BackgroundImageFix" result="shape"/>
<feGaussianBlur stdDeviation="0.248286" result="effect1_foregroundBlur_29022_29893"/>
</filter>
<filter id="filter2_f_29022_29893" x="-46.1358" y="202.005" width="512.418" height="124.188" filterUnits="userSpaceOnUse" color-interpolation-filters="sRGB">
<feFlood flood-opacity="0" result="BackgroundImageFix"/>
<feBlend mode="normal" in="SourceGraphic" in2="BackgroundImageFix" result="shape"/>
<feGaussianBlur stdDeviation="0.132829" result="effect1_foregroundBlur_29022_29893"/>
</filter>
<filter id="filter3_f_29022_29893" x="-47.8564" y="200.284" width="515.859" height="127.629" filterUnits="userSpaceOnUse" color-interpolation-filters="sRGB">
<feFlood flood-opacity="0" result="BackgroundImageFix"/>
<feBlend mode="normal" in="SourceGraphic" in2="BackgroundImageFix" result="shape"/>
<feGaussianBlur stdDeviation="0.993145" result="effect1_foregroundBlur_29022_29893"/>
</filter>
<filter id="filter4_f_29022_29893" x="-8.84762" y="24.1847" width="278.79" height="132.308" filterUnits="userSpaceOnUse" color-interpolation-filters="sRGB">
<feFlood flood-opacity="0" result="BackgroundImageFix"/>
<feBlend mode="normal" in="SourceGraphic" in2="BackgroundImageFix" result="shape"/>
<feGaussianBlur stdDeviation="0.993145" result="effect1_foregroundBlur_29022_29893"/>
</filter>
<filter id="filter5_f_29022_29893" x="83.4487" y="74.0082" width="81.377" height="84.3299" filterUnits="userSpaceOnUse" color-interpolation-filters="sRGB">
<feFlood flood-opacity="0" result="BackgroundImageFix"/>
<feBlend mode="normal" in="SourceGraphic" in2="BackgroundImageFix" result="shape"/>
<feGaussianBlur stdDeviation="0.107186" result="effect1_foregroundBlur_29022_29893"/>
</filter>
<filter id="filter6_f_29022_29893" x="130.192" y="200.33" width="68.7558" height="15.4806" filterUnits="userSpaceOnUse" color-interpolation-filters="sRGB">
<feFlood flood-opacity="0" result="BackgroundImageFix"/>
<feBlend mode="normal" in="SourceGraphic" in2="BackgroundImageFix" result="shape"/>
<feGaussianBlur stdDeviation="0.944066" result="effect1_foregroundBlur_29022_29893"/>
</filter>
<filter id="filter7_f_29022_29893" x="180.63" y="205.831" width="70.5179" height="10.336" filterUnits="userSpaceOnUse" color-interpolation-filters="sRGB">
<feFlood flood-opacity="0" result="BackgroundImageFix"/>
<feBlend mode="normal" in="SourceGraphic" in2="BackgroundImageFix" result="shape"/>
<feGaussianBlur stdDeviation="1.4161" result="effect1_foregroundBlur_29022_29893"/>
</filter>
<linearGradient id="paint0_linear_29022_29893" x1="38.1117" y1="23.0381" x2="227.712" y2="260.438" gradientUnits="userSpaceOnUse">
<stop stop-color="#8264D4"/>
<stop offset="1" stop-color="#644E9F"/>
</linearGradient>
<linearGradient id="paint1_linear_29022_29893" x1="38.1117" y1="23.0381" x2="227.712" y2="260.438" gradientUnits="userSpaceOnUse">
<stop stop-color="#8264D4"/>
<stop offset="1" stop-color="#644E9F"/>
</linearGradient>
<linearGradient id="paint2_linear_29022_29893" x1="38.1117" y1="23.0381" x2="227.712" y2="260.438" gradientUnits="userSpaceOnUse">
<stop stop-color="#8264D4"/>
<stop offset="1" stop-color="#644E9F"/>
</linearGradient>
<linearGradient id="paint3_linear_29022_29893" x1="38.1117" y1="23.0381" x2="227.712" y2="260.438" gradientUnits="userSpaceOnUse">
<stop stop-color="#8264D4"/>
<stop offset="1" stop-color="#644E9F"/>
</linearGradient>
<linearGradient id="paint4_linear_29022_29893" x1="38.1117" y1="23.0381" x2="227.712" y2="260.438" gradientUnits="userSpaceOnUse">
<stop stop-color="#8264D4"/>
<stop offset="1" stop-color="#644E9F"/>
</linearGradient>
<linearGradient id="paint5_linear_29022_29893" x1="38.1117" y1="23.0381" x2="227.712" y2="260.438" gradientUnits="userSpaceOnUse">
<stop stop-color="#8264D4"/>
<stop offset="1" stop-color="#644E9F"/>
</linearGradient>
<radialGradient id="paint6_radial_29022_29893" cx="0" cy="0" r="1" gradientUnits="userSpaceOnUse" gradientTransform="translate(74.598 123.889) rotate(-10.0594) scale(91.9517 91.2313)">
<stop stop-color="#FEE7CA"/>
<stop offset="1" stop-color="#FEE7CA" stop-opacity="0"/>
</radialGradient>
<linearGradient id="paint7_linear_29022_29893" x1="60.8327" y1="9.79251" x2="168.065" y2="106.89" gradientUnits="userSpaceOnUse">
<stop offset="0.137" stop-color="#3F7BDC"/>
<stop offset="1" stop-color="#F7D3A1"/>
</linearGradient>
<linearGradient id="paint8_linear_29022_29893" x1="210.481" y1="210.559" x2="210.481" y2="347.874" gradientUnits="userSpaceOnUse">
<stop stop-color="white"/>
<stop offset="1" stop-color="#709CFA"/>
</linearGradient>
<radialGradient id="paint9_radial_29022_29893" cx="0" cy="0" r="1" gradientUnits="userSpaceOnUse" gradientTransform="translate(206.213 202.065) scale(97.3168 97.1854)">
<stop stop-color="#372D98"/>
<stop offset="1" stop-color="#131724"/>
</radialGradient>
<radialGradient id="paint10_radial_29022_29893" cx="0" cy="0" r="1" gradientUnits="userSpaceOnUse" gradientTransform="translate(216.878 237.274) scale(19.9867 19.9597)">
<stop stop-color="#372D98"/>
<stop offset="1" stop-color="#131724"/>
</radialGradient>
<radialGradient id="paint11_radial_29022_29893" cx="0" cy="0" r="1" gradientUnits="userSpaceOnUse" gradientTransform="translate(223.059 237.001) scale(19.9867 19.9597)">
<stop stop-color="#372D98"/>
<stop offset="1" stop-color="#131724"/>
</radialGradient>
<radialGradient id="paint12_radial_29022_29893" cx="0" cy="0" r="1" gradientUnits="userSpaceOnUse" gradientTransform="translate(248.063 195.683) scale(78.5032 78.3972)">
<stop stop-color="#372D98"/>
<stop offset="1" stop-color="#131724"/>
</radialGradient>
<radialGradient id="paint13_radial_29022_29893" cx="0" cy="0" r="1" gradientUnits="userSpaceOnUse" gradientTransform="translate(248.06 193.068) scale(78.5032 78.3972)">
<stop stop-color="#372D98"/>
<stop offset="1" stop-color="#131724"/>
</radialGradient>
<radialGradient id="paint14_radial_29022_29893" cx="0" cy="0" r="1" gradientUnits="userSpaceOnUse" gradientTransform="translate(248.056 193.383) scale(80.2174 80.1092)">
<stop stop-color="#372D98"/>
<stop offset="1" stop-color="#131724"/>
</radialGradient>
<radialGradient id="paint15_radial_29022_29893" cx="0" cy="0" r="1" gradientUnits="userSpaceOnUse" gradientTransform="translate(248.057 191.804) scale(81.526 81.4159)">
<stop stop-color="#372D98"/>
<stop offset="1" stop-color="#131724"/>
</radialGradient>
<radialGradient id="paint16_radial_29022_29893" cx="0" cy="0" r="1" gradientUnits="userSpaceOnUse" gradientTransform="translate(248.056 187.751) scale(87.3461 87.2282)">
<stop stop-color="#372D98"/>
<stop offset="1" stop-color="#131724"/>
</radialGradient>
<radialGradient id="paint17_radial_29022_29893" cx="0" cy="0" r="1" gradientUnits="userSpaceOnUse" gradientTransform="translate(248.061 191.539) scale(82.6539 82.5423)">
<stop stop-color="#372D98"/>
<stop offset="1" stop-color="#131724"/>
</radialGradient>
<radialGradient id="paint18_radial_29022_29893" cx="0" cy="0" r="1" gradientUnits="userSpaceOnUse" gradientTransform="translate(128.499 235.425) scale(24.6789 24.6456)">
<stop stop-color="#372D98"/>
<stop offset="1" stop-color="#131724"/>
</radialGradient>
<radialGradient id="paint19_radial_29022_29893" cx="0" cy="0" r="1" gradientUnits="userSpaceOnUse" gradientTransform="translate(263.528 206.408) scale(24.9495 24.9159)">
<stop stop-color="#372D98"/>
<stop offset="1" stop-color="#131724"/>
</radialGradient>
<radialGradient id="paint20_radial_29022_29893" cx="0" cy="0" r="1" gradientUnits="userSpaceOnUse" gradientTransform="translate(273.318 216.59) scale(10.6024 10.5881)">
<stop stop-color="#372D98"/>
<stop offset="1" stop-color="#131724"/>
</radialGradient>
<radialGradient id="paint21_radial_29022_29893" cx="0" cy="0" r="1" gradientUnits="userSpaceOnUse" gradientTransform="translate(288.071 237.991) scale(10.6025 10.5881)">
<stop stop-color="#372D98"/>
<stop offset="1" stop-color="#131724"/>
</radialGradient>
<radialGradient id="paint22_radial_29022_29893" cx="0" cy="0" r="1" gradientUnits="userSpaceOnUse" gradientTransform="translate(302.463 223.802) scale(10.6024 10.5881)">
<stop stop-color="#372D98"/>
<stop offset="1" stop-color="#131724"/>
</radialGradient>
<radialGradient id="paint23_radial_29022_29893" cx="0" cy="0" r="1" gradientUnits="userSpaceOnUse" gradientTransform="translate(315.996 245.697) scale(11.0085 10.9937)">
<stop stop-color="#372D98"/>
<stop offset="1" stop-color="#131724"/>
</radialGradient>
<radialGradient id="paint24_radial_29022_29893" cx="0" cy="0" r="1" gradientUnits="userSpaceOnUse" gradientTransform="translate(312.027 225.016) scale(17.009 16.9861)">
<stop stop-color="#372D98"/>
<stop offset="1" stop-color="#131724"/>
</radialGradient>
<radialGradient id="paint25_radial_29022_29893" cx="0" cy="0" r="1" gradientUnits="userSpaceOnUse" gradientTransform="translate(266.643 231.731) scale(16.9188 16.896)">
<stop stop-color="#372D98"/>
<stop offset="1" stop-color="#131724"/>
</radialGradient>
<radialGradient id="paint26_radial_29022_29893" cx="0" cy="0" r="1" gradientUnits="userSpaceOnUse" gradientTransform="translate(165.312 221.683) scale(14.9337 14.9135)">
<stop stop-color="#372D98"/>
<stop offset="1" stop-color="#131724"/>
</radialGradient>
<radialGradient id="paint27_radial_29022_29893" cx="0" cy="0" r="1" gradientUnits="userSpaceOnUse" gradientTransform="translate(163.102 238.532) scale(14.9336 14.9135)">
<stop stop-color="#372D98"/>
<stop offset="1" stop-color="#131724"/>
</radialGradient>
<radialGradient id="paint28_radial_29022_29893" cx="0" cy="0" r="1" gradientUnits="userSpaceOnUse" gradientTransform="translate(169.326 237.361) scale(9.29406 9.28149)">
<stop stop-color="#372D98"/>
<stop offset="1" stop-color="#131724"/>
</radialGradient>
<radialGradient id="paint29_radial_29022_29893" cx="0" cy="0" r="1" gradientUnits="userSpaceOnUse" gradientTransform="translate(156.151 215.106) scale(9.29406 9.2815)">
<stop stop-color="#372D98"/>
<stop offset="1" stop-color="#131724"/>
</radialGradient>
<radialGradient id="paint30_radial_29022_29893" cx="0" cy="0" r="1" gradientUnits="userSpaceOnUse" gradientTransform="translate(139.183 237.361) scale(9.29406 9.28149)">
<stop stop-color="#372D98"/>
<stop offset="1" stop-color="#131724"/>
</radialGradient>
<radialGradient id="paint31_radial_29022_29893" cx="0" cy="0" r="1" gradientUnits="userSpaceOnUse" gradientTransform="translate(180.243 214.696) scale(24.6789 24.6456)">
<stop stop-color="#372D98"/>
<stop offset="1" stop-color="#131724"/>
</radialGradient>
<radialGradient id="paint32_radial_29022_29893" cx="0" cy="0" r="1" gradientUnits="userSpaceOnUse" gradientTransform="translate(190.935 216.636) scale(9.29406 9.28149)">
<stop stop-color="#372D98"/>
<stop offset="1" stop-color="#131724"/>
</radialGradient>
<radialGradient id="paint33_radial_29022_29893" cx="0" cy="0" r="1" gradientUnits="userSpaceOnUse" gradientTransform="translate(140.135 219.43) scale(9.29406 9.2815)">
<stop stop-color="#372D98"/>
<stop offset="1" stop-color="#131724"/>
</radialGradient>
<linearGradient id="paint34_linear_29022_29893" x1="120.791" y1="144.395" x2="120.791" y2="204.223" gradientUnits="userSpaceOnUse">
<stop stop-color="#4C51BA"/>
<stop offset="1" stop-color="#787CD2"/>
</linearGradient>
<linearGradient id="paint35_linear_29022_29893" x1="125.902" y1="211.819" x2="116.93" y2="237.659" gradientUnits="userSpaceOnUse">
<stop stop-color="#D9DEED"/>
<stop offset="1" stop-color="#B8BECF"/>
</linearGradient>
<linearGradient id="paint36_linear_29022_29893" x1="197.68" y1="201.77" x2="204.499" y2="245.196" gradientUnits="userSpaceOnUse">
<stop stop-color="#B5B9C6"/>
<stop offset="1" stop-color="#C9CDDA"/>
</linearGradient>
<linearGradient id="paint37_linear_29022_29893" x1="150.665" y1="198.181" x2="297.092" y2="198.54" gradientUnits="userSpaceOnUse">
<stop stop-color="#C6CBDB"/>
<stop offset="1" stop-color="#E4EBFF"/>
</linearGradient>
<linearGradient id="paint38_linear_29022_29893" x1="110.74" y1="246.048" x2="124.453" y2="303.574" gradientUnits="userSpaceOnUse">
<stop stop-color="#CCD3E8"/>
<stop offset="1" stop-color="#B4BBD1"/>
</linearGradient>
<linearGradient id="paint39_linear_29022_29893" x1="227.603" y1="243.754" x2="248.564" y2="307.163" gradientUnits="userSpaceOnUse">
<stop stop-color="#D9DEED"/>
<stop offset="1" stop-color="#B3B8C8"/>
</linearGradient>
<linearGradient id="paint40_linear_29022_29893" x1="151.182" y1="140.435" x2="154.622" y2="142.128" gradientUnits="userSpaceOnUse">
<stop stop-color="#FC5E49"/>
<stop offset="1" stop-color="#FB9F02"/>
</linearGradient>
<linearGradient id="paint41_linear_29022_29893" x1="147.897" y1="141.298" x2="152.154" y2="142.634" gradientUnits="userSpaceOnUse">
<stop stop-color="#FC5E49"/>
<stop offset="1" stop-color="#FB9F02"/>
</linearGradient>
<linearGradient id="paint42_linear_29022_29893" x1="145.354" y1="147.042" x2="157.505" y2="154.923" gradientUnits="userSpaceOnUse">
<stop stop-color="#FC5E49"/>
<stop offset="1" stop-color="#FB9F02"/>
</linearGradient>
<linearGradient id="paint43_linear_29022_29893" x1="157.747" y1="142.139" x2="162.196" y2="145.436" gradientUnits="userSpaceOnUse">
<stop stop-color="#FC5E49"/>
<stop offset="1" stop-color="#FB9F02"/>
</linearGradient>
<linearGradient id="paint44_linear_29022_29893" x1="154.845" y1="141.043" x2="159.636" y2="144.593" gradientUnits="userSpaceOnUse">
<stop stop-color="#FC5E49"/>
<stop offset="1" stop-color="#FB9F02"/>
</linearGradient>
<linearGradient id="paint45_linear_29022_29893" x1="151.816" y1="139.099" x2="157.293" y2="143.156" gradientUnits="userSpaceOnUse">
<stop stop-color="#FC5E49"/>
<stop offset="1" stop-color="#FB9F02"/>
</linearGradient>
<linearGradient id="paint46_linear_29022_29893" x1="148.145" y1="139.185" x2="153.621" y2="143.242" gradientUnits="userSpaceOnUse">
<stop stop-color="#FC5E49"/>
<stop offset="1" stop-color="#FB9F02"/>
</linearGradient>
<linearGradient id="paint47_linear_29022_29893" x1="125.379" y1="193.979" x2="125.117" y2="205.673" gradientUnits="userSpaceOnUse">
<stop stop-color="#FE6C17"/>
<stop offset="1" stop-color="#FA9E57"/>
</linearGradient>
<linearGradient id="paint48_linear_29022_29893" x1="97.9384" y1="173.256" x2="69.3579" y2="179.353" gradientUnits="userSpaceOnUse">
<stop stop-color="#4449A3"/>
<stop offset="1" stop-color="#9DA0E6"/>
</linearGradient>
</defs>
</svg>
