<svg width="1100" height="120" viewBox="0 0 1100 120" fill="none" xmlns="http://www.w3.org/2000/svg">
<g clip-path="url(#clip0_31559_10916)">
<rect width="1100" height="120" fill="white"/>
<rect width="1100" height="120" fill="#C4BCF7"/>
<g opacity="0.2" filter="url(#filter0_f_31559_10916)">
<path d="M78 28.5C43.6808 36.0838 -12 28.5 -12 28.5C-12 28.5 56.2913 104.289 134.5 94C172.486 89.0027 223.709 60.7869 262 62.1136C295.776 63.2839 345.295 106.631 379 109.114C424.033 112.43 446.845 84.5721 492 84.6136C536.964 84.655 559.866 114.547 604.5 109.114C647.159 103.921 661.16 65.5047 704 62.1136C755.625 58.0271 776.639 115.741 828 109.114C854.181 105.735 865.168 90.0489 891 84.6136C923.674 77.7387 946.984 100.223 976.5 84.6136C996.892 73.8294 999.245 56.3407 1017 41.6136C1045.51 17.965 1100.5 -3.38637 1100.5 -3.38637C1100.5 -3.38637 1082.84 -12.3859 1071 -16.8864C964.267 -57.4458 900.247 89.9014 789.5 62.1136C766.734 56.4012 755.694 47.6069 733 41.6136C646.753 18.8368 579.132 36.5057 547.5 28.5C515.868 20.4943 456.132 49.6194 424.5 41.6136C392.868 33.6079 389.51 27.9008 323.5 18.5C292.88 14.1392 196.879 -16.2545 166 -14.5C127.812 -12.3302 115.348 20.2468 78 28.5Z" fill="white"/>
</g>
<g opacity="0.5" filter="url(#filter1_f_31559_10916)">
<circle cx="740.836" cy="203.836" r="174.836" fill="#AAF8FB"/>
</g>
<g opacity="0.5" filter="url(#filter2_f_31559_10916)">
<circle cx="441.46" cy="123.46" r="124.46" fill="#E6AAFB"/>
</g>
<g opacity="0.2" filter="url(#filter3_f_31559_10916)">
<circle cx="92.875" cy="66.875" r="4.125" fill="white"/>
</g>
<circle cx="92.875" cy="66.875" r="1.0312" fill="white"/>
<g opacity="0.2" filter="url(#filter4_f_31559_10916)">
<circle cx="197.125" cy="23.125" r="4.125" fill="white"/>
</g>
<circle cx="197.125" cy="23.125" r="1.0312" fill="white"/>
<g opacity="0.2" filter="url(#filter5_f_31559_10916)">
<circle cx="423.125" cy="82.125" r="4.125" fill="white"/>
</g>
<circle cx="423.125" cy="82.125" r="1.0312" fill="white"/>
<g opacity="0.2" filter="url(#filter6_f_31559_10916)">
<circle cx="499.125" cy="40.125" r="4.125" fill="white"/>
</g>
<circle cx="499.125" cy="40.125" r="1.0312" fill="white"/>
<g opacity="0.2" filter="url(#filter7_f_31559_10916)">
<circle cx="521.125" cy="20.125" r="4.125" fill="white"/>
</g>
<circle cx="521.125" cy="20.125" r="1.0312" fill="white"/>
<g opacity="0.2" filter="url(#filter8_f_31559_10916)">
<circle cx="55.125" cy="92.125" r="4.125" fill="white"/>
</g>
<circle cx="55.125" cy="92.125" r="1.0312" fill="white"/>
<g opacity="0.2" filter="url(#filter9_f_31559_10916)">
<circle cx="675.125" cy="74.125" r="4.125" fill="white"/>
</g>
<circle cx="675.125" cy="74.125" r="1.0312" fill="white"/>
<g opacity="0.2" filter="url(#filter10_f_31559_10916)">
<circle cx="312.125" cy="59.125" r="4.125" fill="white"/>
</g>
<circle cx="312.125" cy="59.125" r="1.0312" fill="white"/>
<g opacity="0.2" filter="url(#filter11_f_31559_10916)">
<circle cx="230.125" cy="86.125" r="4.125" fill="white"/>
</g>
<circle cx="230.125" cy="86.125" r="1.0312" fill="white"/>
<g opacity="0.2" filter="url(#filter12_f_31559_10916)">
<circle cx="632.125" cy="30.125" r="4.125" fill="white"/>
</g>
<circle cx="632.125" cy="30.125" r="1.0312" fill="white"/>
<g opacity="0.2" filter="url(#filter13_f_31559_10916)">
<circle cx="979.125" cy="35.125" r="4.125" fill="white"/>
</g>
<circle cx="979.125" cy="35.125" r="1.0312" fill="white"/>
<g opacity="0.2" filter="url(#filter14_f_31559_10916)">
<circle cx="1056.12" cy="93.125" r="4.125" fill="white"/>
</g>
<circle cx="1056.12" cy="93.125" r="1.0312" fill="white"/>
<g opacity="0.2" filter="url(#filter15_f_31559_10916)">
<circle cx="834.125" cy="39.125" r="4.125" fill="white"/>
</g>
<circle cx="834.125" cy="39.125" r="1.0312" fill="white"/>
<g opacity="0.2" filter="url(#filter16_f_31559_10916)">
<circle cx="895.125" cy="101.125" r="4.125" fill="white"/>
</g>
<circle cx="895.125" cy="101.125" r="1.0312" fill="white"/>
<g opacity="0.2" filter="url(#filter17_f_31559_10916)">
<circle cx="29.125" cy="26.125" r="4.125" fill="white"/>
</g>
<circle cx="29.125" cy="26.125" r="1.0312" fill="white"/>
<path opacity="0.5" d="M761.4 -21.7627L651.58 54.8671C650.404 55.6867 648.74 55.6713 647.862 54.833C646.984 53.993 647.224 52.6485 648.399 51.8289C648.422 51.8125 648.454 51.7901 648.476 51.7754L761.226 -21.936C761.295 -21.9802 761.387 -21.9776 761.434 -21.9283C761.48 -21.8806 761.464 -21.8075 761.4 -21.7627Z" fill="url(#paint0_linear_31559_10916)"/>
<path opacity="0.5" d="M229.4 33.1318L119.58 109.762C118.404 110.581 116.74 110.566 115.862 109.727C114.984 108.888 115.224 107.543 116.399 106.723C116.422 106.707 116.454 106.685 116.476 106.67L229.226 32.9585C229.295 32.9143 229.387 32.9169 229.434 32.9662C229.48 33.0139 229.464 33.0871 229.4 33.1318Z" fill="url(#paint1_linear_31559_10916)"/>
<path opacity="0.5" d="M1093.4 56.2373L983.58 132.867C982.404 133.687 980.74 133.671 979.862 132.833C978.984 131.993 979.224 130.648 980.399 129.829C980.422 129.813 980.454 129.79 980.476 129.775L1093.23 56.064C1093.29 56.0198 1093.39 56.0224 1093.43 56.0717C1093.48 56.1194 1093.46 56.1925 1093.4 56.2373Z" fill="url(#paint2_linear_31559_10916)"/>
<path d="M243.235 66.7235C243.235 67.1005 243.64 67.0837 243.64 66.7235C243.64 66.7235 243.827 63.3748 244.742 61.96C245.677 60.5149 247.939 60.1255 247.939 60.1255C248.02 60.08 248.02 59.9047 247.939 59.8592C247.939 59.8592 245.731 59.4967 244.798 58.1089C243.845 56.6915 243.686 53.2611 243.686 53.2611C243.765 52.8836 243.358 52.9436 243.358 53.2611C243.358 53.2611 243.155 56.6915 242.202 58.1089C241.269 59.4967 239.061 59.8592 239.061 59.8592C238.98 59.9047 238.98 60.08 239.061 60.1255C239.061 60.1255 241.323 60.5149 242.258 61.96C243.173 63.3748 243.235 66.7235 243.235 66.7235Z" fill="white"/>
<path d="M117.294 92.763C117.294 93.0861 117.609 93.0718 117.609 92.763C117.609 92.763 117.754 89.8927 118.466 88.68C119.193 87.4414 120.952 87.1076 120.952 87.1076C121.016 87.0685 121.016 86.9183 120.952 86.8793C120.952 86.8793 119.235 86.5686 118.509 85.3791C117.768 84.1641 117.644 81.2238 117.644 81.2238C117.706 80.9002 117.39 80.9517 117.39 81.2238C117.39 81.2238 117.232 84.1641 116.491 85.3791C115.765 86.5686 114.048 86.8793 114.048 86.8793C113.984 86.9183 113.984 87.0685 114.048 87.1076C114.048 87.1076 115.807 87.4414 116.534 88.68C117.246 89.8927 117.294 92.763 117.294 92.763Z" fill="white"/>
<path d="M904.059 49.5655C904.059 50.1579 904.734 50.1316 904.734 49.5655C904.734 49.5655 905.045 44.3033 906.57 42.08C908.128 39.8092 911.898 39.1972 911.898 39.1972C912.034 39.1257 912.034 38.8502 911.898 38.7787C911.898 38.7787 908.218 38.2091 906.663 36.0283C905.074 33.8009 904.81 28.4104 904.81 28.4104C904.941 27.817 904.264 27.9114 904.264 28.4104C904.264 28.4104 903.926 33.8009 902.337 36.0283C900.782 38.2091 897.102 38.7787 897.102 38.7787C896.966 38.8502 896.966 39.1257 897.102 39.1972C897.102 39.1972 900.872 39.8092 902.43 42.08C903.955 44.3033 904.059 49.5655 904.059 49.5655Z" fill="white"/>
<g filter="url(#filter18_f_31559_10916)">
<g opacity="0.9" filter="url(#filter19_f_31559_10916)">
<path d="M259.895 33.7517C251.27 57.7114 263.841 84.1722 287.963 92.8556C312.091 101.541 338.637 89.1616 347.262 65.2019C355.885 41.2483 343.32 14.7896 319.192 6.10401C295.07 -2.57935 268.518 9.79804 259.895 33.7517Z" fill="url(#paint3_radial_31559_10916)"/>
<path d="M269.347 33.8109C265.061 45.7186 267.473 58.4208 274.652 67.8189C277.2 71.1748 280.351 74.1093 284.024 76.43C286.257 77.8657 288.684 79.0657 291.283 80.001C300.276 83.2384 309.701 82.7317 317.836 79.2679C320.643 78.0841 323.297 76.5463 325.722 74.6747C328.072 72.8781 330.213 70.7888 332.071 68.421C334.397 65.4746 336.285 62.1121 337.625 58.3895C338.881 54.9013 339.566 51.3439 339.724 47.8273C340.27 35.2867 334.15 23.1926 323.563 16.1545C321.16 14.5627 318.524 13.2197 315.69 12.1994C308.664 9.67049 301.362 9.43291 294.642 11.1103C293.836 11.2958 293.028 11.5278 292.247 11.7767C282.078 15.0179 273.49 22.7008 269.509 33.4003C269.447 33.5343 269.397 33.6726 269.347 33.8109Z" fill="#F4B8BE"/>
<g opacity="0.4">
<path d="M317.836 79.2679C320.222 78.2617 322.497 76.9997 324.616 75.4944C324.616 75.4944 313.972 74.2692 307.373 72.4859C301.47 70.8904 298.598 68.5571 292.639 67.1821C289.122 66.3704 287.047 66.4545 283.509 65.7387C278.669 64.7594 271.283 62.5096 271.283 62.5096C272.248 64.3686 273.374 66.1461 274.652 67.8189C276.74 70.569 279.233 73.036 282.086 75.1142C282.086 75.1142 292.549 74.2027 298.628 76.4495C302.581 77.9109 307.937 81.9121 307.937 81.9121C311.363 81.5015 314.696 80.6051 317.836 79.2679Z" fill="white"/>
<path fill-rule="evenodd" clip-rule="evenodd" d="M287.79 43.1555C283.324 36.5978 267.713 40.0483 267.713 40.0483C267.538 41.0869 267.411 42.126 267.33 43.1633C267.167 45.2452 267.19 47.3191 267.387 49.3638C267.387 49.3638 273.105 48.8854 276.58 47.794C277.247 47.5845 277.941 47.4991 278.603 47.4176C280.074 47.2366 281.392 47.0746 281.917 45.6138C282.459 44.1097 277.106 41.5741 273.421 41.5068C270.956 41.4617 267.33 43.1633 267.33 43.1633C267.33 43.1633 269.086 41.1686 270.583 40.4853C274.026 38.9136 276.906 40.3878 280.07 42.4639C280.51 42.7531 281.014 43.0426 281.528 43.3377C283.634 44.5473 285.902 45.8505 284.643 47.6067C283.881 48.6698 282.795 48.5183 281.579 48.349C280.915 48.2565 280.213 48.1586 279.505 48.2505C274.79 48.8617 267.447 49.9372 267.447 49.9372C267.498 50.3908 267.558 50.8429 267.627 51.2932C267.627 51.2932 273.945 50.9927 277.659 52.3024C279.545 52.9677 280.739 54.0602 281.928 55.1489C283.143 56.2604 284.353 57.3677 286.291 58.0119C288.161 58.6336 289.692 58.5727 291.263 58.5102C292.619 58.4563 294.004 58.4012 295.663 58.7834C299.24 59.6082 301.552 61.2432 303.952 62.9406C305.895 64.3143 307.895 65.7289 310.671 66.7882C317.813 69.5139 329.773 71.0625 329.773 71.0625C330.03 70.7963 330.282 70.5257 330.53 70.2507C330.53 70.2507 324.35 68.5311 323.308 65.2665C322.787 63.6336 322.485 62.3765 323.316 60.8773C324.643 58.482 327.476 59.8395 330.126 61.1095C330.645 61.3586 331.158 61.6044 331.651 61.8178C333.096 62.4434 335.091 63.9233 335.091 63.9233C335.394 63.3873 335.684 62.8411 335.961 62.2851C335.961 62.2851 322.909 54.3635 313.663 51.5478C310.036 50.4431 306.289 50.9442 302.776 51.414C297.592 52.1072 292.916 52.7325 289.884 48.0295C289.335 47.1772 289.101 46.4017 288.868 45.6312C288.626 44.8277 288.385 44.0297 287.79 43.1555ZM332.071 68.421C331.815 68.7475 331.553 69.0687 331.287 69.3846C331.287 69.3846 323.502 64.9964 326.055 63.0561C327.436 62.0065 328.829 62.5045 330.398 63.0659C330.74 63.1882 331.091 63.3135 331.451 63.4265C332.719 63.8236 334.513 64.908 334.513 64.908C333.765 66.1364 332.95 67.3084 332.071 68.421Z" fill="white"/>
<path fill-rule="evenodd" clip-rule="evenodd" d="M338.196 35.8212C339.368 39.6678 339.903 43.7236 339.724 47.8273C339.724 47.8273 328.454 51.9606 322.918 48.4282C321.414 47.4684 320.689 46.2377 319.954 44.9915C319.267 43.8252 318.571 42.6453 317.222 41.6614C313.946 39.2723 309.13 41.0665 304.863 42.6558C300.24 44.378 296.262 45.8597 295.589 41.5179C295.446 40.5934 295.618 39.8521 295.788 39.1176C295.967 38.3418 296.145 37.5737 295.948 36.6054C295.194 32.8956 289.086 35.0262 284.155 36.7462C280.007 38.1933 276.691 39.3497 278.099 36.4927C278.432 35.8179 278.904 35.4001 279.364 34.9926C279.9 34.5187 280.419 34.0589 280.685 33.2251C282.009 29.0658 269.509 33.4003 269.509 33.4003C270.079 31.8686 270.743 30.3986 271.493 28.9947C271.493 28.9947 276.034 27.9926 278.725 26.7731C279.395 26.4696 280.114 26.2791 280.803 26.0963C282.422 25.6676 283.878 25.2817 284.157 23.5787C284.676 20.4193 276.045 22.3933 276.045 22.3933C276.434 21.9478 276.833 21.5129 277.241 21.0889C277.241 21.0889 292.832 18.7338 300.087 24.0545C301.511 25.0989 302.256 26.4755 302.971 27.7957C303.877 29.4679 304.733 31.0495 306.858 31.7503C308.806 32.3931 310.315 31.8993 311.942 31.367C313.056 31.0023 314.226 30.6195 315.631 30.5715C324.673 30.2624 338.196 35.8212 338.196 35.8212ZM337.002 32.4947C334.29 25.9556 329.67 20.214 323.563 16.1545C321.16 14.5627 318.524 13.2197 315.69 12.1994C308.664 9.67049 301.362 9.43291 294.642 11.1103C293.836 11.2958 293.028 11.5278 292.247 11.7767C288.502 12.9705 284.971 14.7667 281.806 17.0942C281.806 17.0942 303.005 10.6425 308.082 19.6141C308.477 20.3112 308.639 20.9465 308.798 21.5665C308.986 22.3013 309.169 23.0146 309.726 23.7836C311.615 26.3949 314.287 25.5253 317.24 24.5645C319.528 23.8198 321.985 23.0203 324.377 23.7449C330.118 25.4848 337.002 32.4947 337.002 32.4947ZM326.462 40.5421C326.241 39.6749 326.219 39.0722 326.581 38.2538C327.522 36.1264 331.092 36.6125 332.534 38.4377C333.421 39.5598 333.709 40.71 333.186 42.0412C332.203 44.5459 327.126 43.1495 326.462 40.5421Z" fill="white"/>
</g>
</g>
<g opacity="0.7" filter="url(#filter20_f_31559_10916)">
<path d="M392.567 83.8572C389.428 92.5775 346.208 85.0047 296.033 66.9429C245.859 48.8811 207.729 27.1699 210.868 18.4496C213.288 11.7253 239.541 14.6891 274.438 24.6795L271.791 28.4176C249.637 22.775 233.717 21.5273 232.077 26.0844C229.671 32.7689 258.899 49.4116 297.36 63.2568C335.822 77.102 368.951 82.9069 371.358 76.2224C372.997 71.6687 359.955 62.4936 339.315 52.7298L339.611 48.1406C372.869 62.6842 394.987 77.1329 392.567 83.8572Z" fill="white"/>
<path d="M297.761 62.1437C332.775 74.7478 362.93 80.045 365.115 73.9753C366.521 70.0692 356.001 62.4074 338.99 54.0823L338.056 58.0342C345.212 62.2404 349.206 65.8561 348.444 67.9739C346.833 72.4475 324.608 68.5433 298.801 59.2536C272.995 49.9639 253.381 38.8066 254.991 34.333C255.752 32.2197 261.113 31.976 269.28 33.2865L271.03 29.6298C252.669 25.224 239.723 24.4326 238.32 28.3316C236.135 34.4014 262.747 49.5395 297.761 62.1437Z" fill="white"/>
<path d="M299.162 58.8533C324.528 67.9844 346.321 71.9702 347.838 67.7559C348.543 65.7958 344.739 62.4072 337.915 58.4243L337.182 60.4623C339.815 62.439 341.121 64.0867 340.722 65.1944C339.44 68.7559 321.024 65.3876 299.588 57.6711C278.152 49.9547 261.814 40.8121 263.096 37.2507C263.477 36.1918 265.373 35.7455 268.413 35.8439L269.164 33.7567C261.599 32.55 256.674 32.7638 255.981 34.6893C254.464 38.9036 273.797 49.7223 299.162 58.8533Z" fill="white"/>
</g>
</g>
<g filter="url(#filter21_f_31559_10916)">
<path d="M1125.24 160.345L641.974 253.555L568.054 261.467C653.124 143.269 749.329 75.6426 859.187 54.4534C961.326 34.7531 1118.45 67.5159 1195.48 140.45L1125.24 160.345Z" fill="url(#paint4_linear_31559_10916)" style="mix-blend-mode:screen"/>
<path style="mix-blend-mode:screen" d="M698.442 129.647C739.407 95.7101 794.383 69.5774 857.223 57.457C917.894 45.7549 976.535 48.9161 1026.17 63.7257C1036.04 73.3861 1038.96 84.7187 1025.79 95.7161C992.581 123.532 930.456 106.77 851.115 129.738C771.722 152.783 700.317 163.383 697.856 138.615C697.61 135.623 697.822 132.608 698.442 129.647Z" fill="url(#paint5_radial_31559_10916)"/>
<path style="mix-blend-mode:screen" fill-rule="evenodd" clip-rule="evenodd" d="M975.197 69.6183C975.528 75.1054 965.071 79.8977 951.854 80.3322C938.702 80.7545 927.773 76.5846 927.507 71.0853C927.176 65.5982 937.633 60.8059 950.786 60.3837C964.002 59.9491 974.918 64.0552 975.197 69.6183ZM762.972 103.151C765.805 107.891 759.021 117.658 747.922 124.953C736.823 132.248 725.582 134.35 722.749 129.61C719.992 124.921 726.776 115.154 737.875 107.859C748.974 100.564 760.215 98.4622 762.972 103.151ZM798.426 105.828C800.339 109.226 795.372 116.065 787.283 121.127C779.246 126.114 771.158 127.409 769.246 124.012C767.333 120.614 772.3 113.775 780.389 108.712C788.426 103.726 796.514 102.43 798.426 105.828ZM808.304 76.7636C809.662 79.3432 805.728 84.3313 799.587 87.8285C793.433 91.2621 787.426 92.0242 786.056 89.3809C784.699 86.8013 788.645 81.877 794.786 78.3797C800.927 74.8824 806.934 74.1203 808.304 76.7636ZM1023.2 77.6724C1022.62 80.4937 1016.58 81.3955 1009.68 79.6193C1002.78 77.7794 997.681 74.0044 998.261 71.183C998.83 68.298 1004.89 67.4599 1011.78 69.2361C1018.68 71.0123 1023.77 74.7873 1023.2 77.6724ZM998.933 91.4726C999.24 94.7834 993.026 97.8984 985.058 98.444C977.09 98.9895 970.43 96.7058 970.122 93.395C969.878 90.072 976.081 86.8932 984.061 86.4114C992.028 85.8658 998.689 88.1495 998.933 91.4726Z" fill="url(#paint6_radial_31559_10916)"/>
<path style="mix-blend-mode:screen" fill-rule="evenodd" clip-rule="evenodd" d="M751.547 123.853C746.503 127.205 741.378 129.449 737.012 130.489C740.475 129.227 744.221 127.381 747.921 124.949C759.02 117.654 765.804 107.887 762.971 103.147C761.486 100.592 757.476 100.044 752.345 101.232C759.154 98.7951 764.81 98.9597 766.61 102.115C769.431 106.791 762.646 116.558 751.547 123.853ZM802.052 104.728C803.977 108.19 799.01 115.029 790.909 120.028C787.312 122.307 783.631 123.81 780.518 124.477C782.677 123.664 784.978 122.559 787.282 121.124C795.371 116.061 800.338 109.222 798.425 105.824C797.343 103.985 794.467 103.482 790.779 104.26C796.157 102.297 800.655 102.289 802.052 104.728ZM940.135 61.7732C944.095 60.3486 949.02 59.4648 954.475 59.2717C967.628 58.8494 978.556 63.0193 978.822 68.5187C979.037 72.376 973.902 75.9436 966.193 77.8271C971.826 75.8154 975.352 72.8226 975.196 69.6146C974.917 64.0515 964.001 59.9454 950.785 60.38C946.962 60.4566 943.352 60.9545 940.135 61.7732ZM1026.83 76.5727C1026.52 78.0851 1024.66 79.04 1021.88 79.378C1022.58 78.9117 1023.07 78.355 1023.2 77.6687C1023.77 74.7837 1018.67 71.0086 1011.78 69.2324C1008.58 68.3968 1005.56 68.186 1003.21 68.3741C1005.39 66.9632 1010.19 66.8295 1015.41 68.1365C1022.31 69.9764 1027.41 73.7514 1026.83 76.5727ZM1002.56 90.373C1002.79 92.9706 998.979 95.4906 993.517 96.6763C996.967 95.3501 999.109 93.4172 998.931 91.4689C998.688 88.1458 992.027 85.8621 984.06 86.4077C982.352 86.4728 980.681 86.729 979.226 87.0757C981.564 86.1621 984.486 85.5324 987.686 85.3117C995.654 84.7662 1002.31 87.0499 1002.56 90.373ZM811.93 75.664C813.288 78.2436 809.417 83.2193 803.276 86.7166C800.589 88.226 797.996 89.1888 795.699 89.6317C796.977 89.1651 798.272 88.5628 799.586 87.8249C805.727 84.3276 809.661 79.3395 808.303 76.7599C807.55 75.2533 805.221 74.8434 802.286 75.4094C806.911 73.6583 810.874 73.6209 811.93 75.664Z" fill="url(#paint7_radial_31559_10916)"/>
<path opacity="0.5" d="M985.061 98.4397C981.274 98.7074 977.824 98.3156 975.154 97.509C977.588 95.7179 981.891 94.3592 986.863 94.0611C990.649 93.7934 994.099 94.1852 996.769 94.9918C994.336 96.7829 990.032 98.1416 985.061 98.4397Z" fill="url(#paint8_radial_31559_10916)"/>
<path opacity="0.5" d="M951.855 80.3247C943.112 80.6233 935.365 78.8796 931.052 76.0769C933.657 71.7419 942.664 68.3526 953.65 68.0178C962.393 67.7192 970.14 69.4628 974.453 72.2655C971.848 76.6006 962.841 79.9899 951.855 80.3247Z" fill="url(#paint9_radial_31559_10916)"/>
<path opacity="0.5" d="M1014.58 76.8859C1017.17 77.5774 1019.53 78.5092 1021.39 79.6032C1019.04 80.7839 1014.56 80.8562 1009.68 79.6151C1007.1 78.9236 1004.8 77.9794 1002.87 76.8977C1005.29 75.7047 1009.71 75.6448 1014.58 76.8859Z" fill="url(#paint10_radial_31559_10916)"/>
<path opacity="0.5" d="M740.675 115.504C749.418 109.721 758.266 107.221 762.995 108.754C761.228 113.655 755.615 119.891 747.921 124.944C739.165 130.664 730.329 133.227 725.6 131.694C727.368 126.793 732.981 120.557 740.675 115.504Z" fill="url(#paint11_radial_31559_10916)"/>
<path opacity="0.5" d="M805.865 82.9769C804.273 84.6717 802.146 86.3375 799.587 87.8223C796.657 89.4446 793.745 90.4689 791.372 90.8605C792.9 89.178 795.015 87.4485 797.586 86.0274C800.503 84.3414 803.48 83.3048 805.865 82.9769Z" fill="url(#paint12_radial_31559_10916)"/>
<path opacity="0.5" d="M783.202 116.426C788.514 113.089 793.877 111.393 797.431 111.633C795.51 114.713 791.956 118.24 787.284 121.123C781.973 124.461 776.66 126.08 773.119 125.904C774.964 122.773 778.531 119.31 783.202 116.426Z" fill="url(#paint13_radial_31559_10916)"/>
<path opacity="0.3" d="M935.414 55.814C935.501 57.978 931.435 59.8855 926.248 60.0931C920.997 60.313 916.663 58.77 916.576 56.606C916.426 54.4543 920.555 52.5345 925.742 52.3269C930.93 52.1194 935.264 53.6624 935.414 55.814Z" fill="url(#paint14_radial_31559_10916)"/>
<path opacity="0.3" d="M1049.51 77.8844C1048.85 79.9289 1044.34 79.8737 1039.38 77.8557C1034.49 75.8255 1031.09 72.5834 1031.75 70.5389C1032.43 68.5581 1036.94 68.6133 1041.82 70.5798C1046.77 72.5978 1050.19 75.9036 1049.51 77.8844Z" fill="url(#paint15_radial_31559_10916)"/>
<path opacity="0.3" d="M947.825 55.6653C947.933 56.5695 946.181 57.4361 943.95 57.5359C941.784 57.6234 939.928 56.9239 939.884 56.0074C939.776 55.1031 941.54 54.3003 943.77 54.2005C945.937 54.113 947.78 54.7487 947.825 55.6653Z" fill="url(#paint16_radial_31559_10916)"/>
<path opacity="0.3" d="M974.588 81.891C974.633 82.8076 972.869 83.6104 970.702 83.6979C968.471 83.7977 966.628 83.162 966.584 82.2454C966.539 81.3289 968.291 80.4624 970.458 80.3748C972.688 80.275 974.544 80.9745 974.588 81.891Z" fill="url(#paint17_radial_31559_10916)"/>
<path opacity="0.3" d="M991.003 57.9133C991.111 58.8176 989.347 59.6204 987.117 59.7202C984.95 59.8077 983.107 59.172 983.063 58.2554C982.954 57.3512 984.719 56.5484 986.949 56.4485C989.116 56.361 990.959 56.9968 991.003 57.9133Z" fill="url(#paint18_radial_31559_10916)"/>
<path opacity="0.3" d="M1014.14 85.8941C1014.04 86.7715 1012.11 87.077 1009.91 86.6425C1007.76 86.132 1006.1 85.0648 1006.26 84.175C1006.42 83.2853 1008.27 82.9284 1010.48 83.4266C1012.68 83.8611 1014.29 85.0043 1014.14 85.8941Z" fill="url(#paint19_radial_31559_10916)"/>
<path opacity="0.3" d="M1005.04 62.7348C1004.99 64.1979 1002.05 65.0948 998.484 64.7913C994.918 64.4878 992.113 62.9804 992.238 61.5686C992.286 60.1055 995.223 59.2086 998.789 59.5121C1002.29 59.8279 1005.15 61.2593 1005.04 62.7348Z" fill="url(#paint20_radial_31559_10916)"/>
<path opacity="0.3" d="M944.132 84.2015C944.159 85.7161 941.348 86.9192 937.792 87.0103C934.236 87.1013 931.301 85.9494 931.286 84.4985C931.195 82.9962 934.007 81.7931 937.562 81.702C941.13 81.6747 944.053 82.7629 944.132 84.2015Z" fill="url(#paint21_radial_31559_10916)"/>
<path opacity="0.3" d="M802.351 93.2389C802.852 94.4639 801.015 96.6025 798.112 98.0214C795.274 99.428 792.469 99.6385 791.968 98.4135C791.403 97.2008 793.304 95.05 796.143 93.6434C799.045 92.2245 801.786 92.0263 802.351 93.2389Z" fill="url(#paint22_radial_31559_10916)"/>
<path opacity="0.3" d="M803.832 117.731C804.333 118.956 802.483 121.03 799.581 122.449C796.755 123.92 793.938 124.066 793.385 122.917C792.884 121.693 794.785 119.542 797.624 118.135C800.526 116.716 803.267 116.518 803.832 117.731Z" fill="url(#paint23_radial_31559_10916)"/>
<path opacity="0.3" d="M808.891 110.678C809.242 111.469 808.099 112.747 806.284 113.626C804.544 114.556 802.773 114.634 802.434 113.906C802.095 113.178 803.29 111.825 805.105 110.946C806.857 110.079 808.616 109.938 808.891 110.678Z" fill="url(#paint24_radial_31559_10916)"/>
<path opacity="0.3" d="M784.191 82.801C784.542 83.5924 783.399 84.8702 781.596 85.8127C779.78 86.6915 778.072 86.7566 777.734 86.029C777.395 85.3014 778.589 83.9476 780.341 83.0811C782.157 82.2022 783.852 82.0734 784.191 82.801Z" fill="url(#paint25_radial_31559_10916)"/>
<path opacity="0.3" d="M766.338 118.887C766.689 119.678 765.546 120.956 763.73 121.835C761.927 122.777 760.219 122.843 759.88 122.115C759.541 121.387 760.736 120.034 762.488 119.167C764.303 118.288 765.999 118.159 766.338 118.887Z" fill="url(#paint26_radial_31559_10916)"/>
<path opacity="0.3" d="M828.009 84.9201C828.964 86.7844 826.096 90.4433 821.503 93.0472C816.974 95.6389 812.511 96.1694 811.544 94.2414C810.525 92.3894 813.456 88.7182 817.985 86.1266C822.514 83.5349 827.041 82.9921 828.009 84.9201Z" fill="url(#paint27_radial_31559_10916)"/>
<path opacity="0.3" d="M833.86 75.4671C834.211 76.2584 833.068 77.5362 831.252 78.415C829.449 79.3576 827.741 79.4226 827.402 78.695C827.063 77.9674 828.258 76.6136 830.01 75.7471C831.825 74.8683 833.521 74.7394 833.86 75.4671Z" fill="url(#paint28_radial_31559_10916)"/>
<path opacity="0.3" d="M762.8 93.3379C763.139 94.0655 761.932 95.3556 760.193 96.2858C758.377 97.1647 756.681 97.2935 756.33 96.5021C755.991 95.7745 757.122 94.433 758.938 93.5542C760.753 92.6754 762.449 92.5466 762.8 93.3379Z" fill="url(#paint29_radial_31559_10916)"/>
</g>
<circle cx="75.3907" cy="48.2653" r="30.4279" transform="rotate(13.9677 75.3907 48.2653)" fill="white"/>
<circle cx="42.4991" cy="57.9313" r="30.4279" transform="rotate(13.9677 42.4991 57.9313)" fill="#C9C1FA"/>
<circle cx="41.9747" cy="58.0465" r="30.4279" transform="rotate(13.9677 41.9747 58.0465)" fill="white"/>
<circle cx="196.648" cy="72.9723" r="30.4279" transform="rotate(13.9677 196.648 72.9723)" fill="white"/>
<circle cx="169.437" cy="71.1989" r="20.7945" transform="rotate(13.9677 169.437 71.1989)" fill="white"/>
<circle cx="110.854" cy="37.6155" r="13.7113" transform="rotate(13.9677 110.854 37.6155)" fill="white"/>
<circle cx="210.873" cy="117.33" r="30.4279" transform="rotate(13.9677 210.873 117.33)" fill="white"/>
<circle cx="251.965" cy="137.3" r="30.4279" transform="rotate(13.9677 251.965 137.3)" fill="white"/>
<circle cx="167.586" cy="114.078" r="30.4279" transform="rotate(13.9677 167.586 114.078)" fill="white"/>
<circle cx="132.111" cy="65.8727" r="30.4279" transform="rotate(13.9677 132.111 65.8727)" fill="white"/>
<circle cx="135.11" cy="97.8727" r="30.4279" transform="rotate(13.9677 135.11 97.8727)" fill="white"/>
<circle cx="103.873" cy="112.873" r="30.4279" transform="rotate(13.9677 103.873 112.873)" fill="white"/>
<circle cx="21.9734" cy="99.9736" r="55.2675" transform="rotate(13.9677 21.9734 99.9736)" fill="white"/>
<circle cx="6.24536" cy="38.2452" r="15.0562" transform="rotate(13.9677 6.24536 38.2452)" fill="white"/>
<circle cx="29.2451" cy="25.2451" r="21.9931" transform="rotate(13.9677 29.2451 25.2451)" fill="white"/>
<circle cx="51.2454" cy="29.2452" r="15.0562" transform="rotate(13.9677 51.2454 29.2452)" fill="white"/>
<circle cx="64.1104" cy="93.8727" r="30.4279" transform="rotate(13.9677 64.1104 93.8727)" fill="white"/>
<circle cx="98.002" cy="77.9352" r="30.4279" transform="rotate(13.9677 98.002 77.9352)" fill="#C4BCF7"/>
<circle cx="96.835" cy="77.6442" r="30.4279" transform="rotate(13.9677 96.835 77.6442)" fill="white"/>
<circle cx="70.588" cy="63.1801" r="15.7551" transform="rotate(13.9677 70.588 63.1801)" fill="#C4BCF7"/>
<circle cx="69.9258" cy="63.2621" r="15.7551" transform="rotate(13.9677 69.9258 63.2621)" fill="white"/>
<circle cx="191.898" cy="83.6898" r="15.7551" transform="rotate(13.9677 191.898 83.6898)" fill="#C4BCF7"/>
<circle cx="191.293" cy="83.5394" r="15.7551" transform="rotate(13.9677 191.293 83.5394)" fill="white"/>
<circle cx="10.2518" cy="10.2518" r="10.2518" transform="matrix(-0.111993 -0.993709 -0.993709 0.111993 200.101 80.123)" fill="#C4BCF7"/>
<circle cx="10.2518" cy="10.2518" r="10.2518" transform="matrix(-0.111993 -0.993709 -0.993709 0.111993 200.146 80.5273)" fill="white"/>
</g>
<defs>
<filter id="filter0_f_31559_10916" x="-20" y="-32" width="1128.5" height="149.773" filterUnits="userSpaceOnUse" color-interpolation-filters="sRGB">
<feFlood flood-opacity="0" result="BackgroundImageFix"/>
<feBlend mode="normal" in="SourceGraphic" in2="BackgroundImageFix" result="shape"/>
<feGaussianBlur stdDeviation="4" result="effect1_foregroundBlur_31559_10916"/>
</filter>
<filter id="filter1_f_31559_10916" x="435.404" y="-101.596" width="610.865" height="610.864" filterUnits="userSpaceOnUse" color-interpolation-filters="sRGB">
<feFlood flood-opacity="0" result="BackgroundImageFix"/>
<feBlend mode="normal" in="SourceGraphic" in2="BackgroundImageFix" result="shape"/>
<feGaussianBlur stdDeviation="65.298" result="effect1_foregroundBlur_31559_10916"/>
</filter>
<filter id="filter2_f_31559_10916" x="209.098" y="-108.902" width="464.724" height="464.725" filterUnits="userSpaceOnUse" color-interpolation-filters="sRGB">
<feFlood flood-opacity="0" result="BackgroundImageFix"/>
<feBlend mode="normal" in="SourceGraphic" in2="BackgroundImageFix" result="shape"/>
<feGaussianBlur stdDeviation="53.9512" result="effect1_foregroundBlur_31559_10916"/>
</filter>
<filter id="filter3_f_31559_10916" x="85.067" y="59.067" width="15.6161" height="15.6161" filterUnits="userSpaceOnUse" color-interpolation-filters="sRGB">
<feFlood flood-opacity="0" result="BackgroundImageFix"/>
<feBlend mode="normal" in="SourceGraphic" in2="BackgroundImageFix" result="shape"/>
<feGaussianBlur stdDeviation="1.84152" result="effect1_foregroundBlur_31559_10916"/>
</filter>
<filter id="filter4_f_31559_10916" x="189.317" y="15.317" width="15.6161" height="15.6161" filterUnits="userSpaceOnUse" color-interpolation-filters="sRGB">
<feFlood flood-opacity="0" result="BackgroundImageFix"/>
<feBlend mode="normal" in="SourceGraphic" in2="BackgroundImageFix" result="shape"/>
<feGaussianBlur stdDeviation="1.84152" result="effect1_foregroundBlur_31559_10916"/>
</filter>
<filter id="filter5_f_31559_10916" x="415.317" y="74.317" width="15.6161" height="15.6161" filterUnits="userSpaceOnUse" color-interpolation-filters="sRGB">
<feFlood flood-opacity="0" result="BackgroundImageFix"/>
<feBlend mode="normal" in="SourceGraphic" in2="BackgroundImageFix" result="shape"/>
<feGaussianBlur stdDeviation="1.84152" result="effect1_foregroundBlur_31559_10916"/>
</filter>
<filter id="filter6_f_31559_10916" x="491.317" y="32.317" width="15.6161" height="15.6161" filterUnits="userSpaceOnUse" color-interpolation-filters="sRGB">
<feFlood flood-opacity="0" result="BackgroundImageFix"/>
<feBlend mode="normal" in="SourceGraphic" in2="BackgroundImageFix" result="shape"/>
<feGaussianBlur stdDeviation="1.84152" result="effect1_foregroundBlur_31559_10916"/>
</filter>
<filter id="filter7_f_31559_10916" x="513.317" y="12.317" width="15.6161" height="15.6161" filterUnits="userSpaceOnUse" color-interpolation-filters="sRGB">
<feFlood flood-opacity="0" result="BackgroundImageFix"/>
<feBlend mode="normal" in="SourceGraphic" in2="BackgroundImageFix" result="shape"/>
<feGaussianBlur stdDeviation="1.84152" result="effect1_foregroundBlur_31559_10916"/>
</filter>
<filter id="filter8_f_31559_10916" x="47.317" y="84.317" width="15.6161" height="15.6161" filterUnits="userSpaceOnUse" color-interpolation-filters="sRGB">
<feFlood flood-opacity="0" result="BackgroundImageFix"/>
<feBlend mode="normal" in="SourceGraphic" in2="BackgroundImageFix" result="shape"/>
<feGaussianBlur stdDeviation="1.84152" result="effect1_foregroundBlur_31559_10916"/>
</filter>
<filter id="filter9_f_31559_10916" x="667.317" y="66.317" width="15.6161" height="15.6161" filterUnits="userSpaceOnUse" color-interpolation-filters="sRGB">
<feFlood flood-opacity="0" result="BackgroundImageFix"/>
<feBlend mode="normal" in="SourceGraphic" in2="BackgroundImageFix" result="shape"/>
<feGaussianBlur stdDeviation="1.84152" result="effect1_foregroundBlur_31559_10916"/>
</filter>
<filter id="filter10_f_31559_10916" x="304.317" y="51.317" width="15.6161" height="15.6161" filterUnits="userSpaceOnUse" color-interpolation-filters="sRGB">
<feFlood flood-opacity="0" result="BackgroundImageFix"/>
<feBlend mode="normal" in="SourceGraphic" in2="BackgroundImageFix" result="shape"/>
<feGaussianBlur stdDeviation="1.84152" result="effect1_foregroundBlur_31559_10916"/>
</filter>
<filter id="filter11_f_31559_10916" x="222.317" y="78.317" width="15.6161" height="15.6161" filterUnits="userSpaceOnUse" color-interpolation-filters="sRGB">
<feFlood flood-opacity="0" result="BackgroundImageFix"/>
<feBlend mode="normal" in="SourceGraphic" in2="BackgroundImageFix" result="shape"/>
<feGaussianBlur stdDeviation="1.84152" result="effect1_foregroundBlur_31559_10916"/>
</filter>
<filter id="filter12_f_31559_10916" x="624.317" y="22.317" width="15.6161" height="15.6161" filterUnits="userSpaceOnUse" color-interpolation-filters="sRGB">
<feFlood flood-opacity="0" result="BackgroundImageFix"/>
<feBlend mode="normal" in="SourceGraphic" in2="BackgroundImageFix" result="shape"/>
<feGaussianBlur stdDeviation="1.84152" result="effect1_foregroundBlur_31559_10916"/>
</filter>
<filter id="filter13_f_31559_10916" x="971.317" y="27.317" width="15.6161" height="15.6161" filterUnits="userSpaceOnUse" color-interpolation-filters="sRGB">
<feFlood flood-opacity="0" result="BackgroundImageFix"/>
<feBlend mode="normal" in="SourceGraphic" in2="BackgroundImageFix" result="shape"/>
<feGaussianBlur stdDeviation="1.84152" result="effect1_foregroundBlur_31559_10916"/>
</filter>
<filter id="filter14_f_31559_10916" x="1048.32" y="85.317" width="15.6161" height="15.6161" filterUnits="userSpaceOnUse" color-interpolation-filters="sRGB">
<feFlood flood-opacity="0" result="BackgroundImageFix"/>
<feBlend mode="normal" in="SourceGraphic" in2="BackgroundImageFix" result="shape"/>
<feGaussianBlur stdDeviation="1.84152" result="effect1_foregroundBlur_31559_10916"/>
</filter>
<filter id="filter15_f_31559_10916" x="826.317" y="31.317" width="15.6161" height="15.6161" filterUnits="userSpaceOnUse" color-interpolation-filters="sRGB">
<feFlood flood-opacity="0" result="BackgroundImageFix"/>
<feBlend mode="normal" in="SourceGraphic" in2="BackgroundImageFix" result="shape"/>
<feGaussianBlur stdDeviation="1.84152" result="effect1_foregroundBlur_31559_10916"/>
</filter>
<filter id="filter16_f_31559_10916" x="887.317" y="93.317" width="15.6161" height="15.6161" filterUnits="userSpaceOnUse" color-interpolation-filters="sRGB">
<feFlood flood-opacity="0" result="BackgroundImageFix"/>
<feBlend mode="normal" in="SourceGraphic" in2="BackgroundImageFix" result="shape"/>
<feGaussianBlur stdDeviation="1.84152" result="effect1_foregroundBlur_31559_10916"/>
</filter>
<filter id="filter17_f_31559_10916" x="21.317" y="18.317" width="15.6161" height="15.6161" filterUnits="userSpaceOnUse" color-interpolation-filters="sRGB">
<feFlood flood-opacity="0" result="BackgroundImageFix"/>
<feBlend mode="normal" in="SourceGraphic" in2="BackgroundImageFix" result="shape"/>
<feGaussianBlur stdDeviation="1.84152" result="effect1_foregroundBlur_31559_10916"/>
</filter>
<filter id="filter18_f_31559_10916" x="210.049" y="2.69201" width="183.337" height="93.5769" filterUnits="userSpaceOnUse" color-interpolation-filters="sRGB">
<feFlood flood-opacity="0" result="BackgroundImageFix"/>
<feBlend mode="normal" in="SourceGraphic" in2="BackgroundImageFix" result="shape"/>
<feGaussianBlur stdDeviation="0.319036" result="effect1_foregroundBlur_31559_10916"/>
</filter>
<filter id="filter19_f_31559_10916" x="256.218" y="2.37297" width="94.7204" height="94.215" filterUnits="userSpaceOnUse" color-interpolation-filters="sRGB">
<feFlood flood-opacity="0" result="BackgroundImageFix"/>
<feBlend mode="normal" in="SourceGraphic" in2="BackgroundImageFix" result="shape"/>
<feGaussianBlur stdDeviation="0.478554" result="effect1_foregroundBlur_31559_10916"/>
</filter>
<filter id="filter20_f_31559_10916" x="210.049" y="14.192" width="183.337" height="73.9246" filterUnits="userSpaceOnUse" color-interpolation-filters="sRGB">
<feFlood flood-opacity="0" result="BackgroundImageFix"/>
<feBlend mode="normal" in="SourceGraphic" in2="BackgroundImageFix" result="shape"/>
<feGaussianBlur stdDeviation="0.319036" result="effect1_foregroundBlur_31559_10916"/>
</filter>
<filter id="filter21_f_31559_10916" x="566.073" y="46.8386" width="631.392" height="216.61" filterUnits="userSpaceOnUse" color-interpolation-filters="sRGB">
<feFlood flood-opacity="0" result="BackgroundImageFix"/>
<feBlend mode="normal" in="SourceGraphic" in2="BackgroundImageFix" result="shape"/>
<feGaussianBlur stdDeviation="0.990847" result="effect1_foregroundBlur_31559_10916"/>
</filter>
<linearGradient id="paint0_linear_31559_10916" x1="621.532" y1="79.6387" x2="738.647" y2="-24.0065" gradientUnits="userSpaceOnUse">
<stop stop-color="white"/>
<stop offset="1" stop-color="white" stop-opacity="0"/>
</linearGradient>
<linearGradient id="paint1_linear_31559_10916" x1="89.5325" y1="134.533" x2="206.647" y2="30.888" gradientUnits="userSpaceOnUse">
<stop stop-color="white"/>
<stop offset="1" stop-color="white" stop-opacity="0"/>
</linearGradient>
<linearGradient id="paint2_linear_31559_10916" x1="953.532" y1="157.639" x2="1070.65" y2="53.9935" gradientUnits="userSpaceOnUse">
<stop stop-color="white"/>
<stop offset="1" stop-color="white" stop-opacity="0"/>
</linearGradient>
<radialGradient id="paint3_radial_31559_10916" cx="0" cy="0" r="1" gradientUnits="userSpaceOnUse" gradientTransform="translate(303.579 49.4796) rotate(19.7978) scale(46.4264 46.1025)">
<stop stop-color="white"/>
<stop offset="1" stop-color="white" stop-opacity="0"/>
</radialGradient>
<linearGradient id="paint4_linear_31559_10916" x1="854.298" y1="55.4767" x2="891.749" y2="249.645" gradientUnits="userSpaceOnUse">
<stop stop-color="white"/>
<stop offset="1" stop-color="#709CFA"/>
</linearGradient>
<radialGradient id="paint5_radial_31559_10916" cx="0" cy="0" r="1" gradientUnits="userSpaceOnUse" gradientTransform="translate(845.948 44.6312) rotate(-10.917) scale(140.146 139.957)">
<stop stop-color="#372D98"/>
<stop offset="1" stop-color="#131724"/>
</radialGradient>
<radialGradient id="paint6_radial_31559_10916" cx="0" cy="0" r="1" gradientUnits="userSpaceOnUse" gradientTransform="translate(870.634 91.5042) rotate(-10.917) scale(28.7829 28.744)">
<stop stop-color="#372D98"/>
<stop offset="1" stop-color="#131724"/>
</radialGradient>
<radialGradient id="paint7_radial_31559_10916" cx="0" cy="0" r="1" gradientUnits="userSpaceOnUse" gradientTransform="translate(879.3 89.4325) rotate(-10.917) scale(28.7829 28.744)">
<stop stop-color="#372D98"/>
<stop offset="1" stop-color="#131724"/>
</radialGradient>
<radialGradient id="paint8_radial_31559_10916" cx="0" cy="0" r="1" gradientUnits="userSpaceOnUse" gradientTransform="translate(903.378 24.1922) rotate(-10.917) scale(113.053 112.9)">
<stop stop-color="#372D98"/>
<stop offset="1" stop-color="#131724"/>
</radialGradient>
<radialGradient id="paint9_radial_31559_10916" cx="0" cy="0" r="1" gradientUnits="userSpaceOnUse" gradientTransform="translate(902.664 20.4937) rotate(-10.917) scale(113.053 112.9)">
<stop stop-color="#372D98"/>
<stop offset="1" stop-color="#131724"/>
</radialGradient>
<radialGradient id="paint10_radial_31559_10916" cx="0" cy="0" r="1" gradientUnits="userSpaceOnUse" gradientTransform="translate(902.752 20.943) rotate(-10.917) scale(115.521 115.365)">
<stop stop-color="#372D98"/>
<stop offset="1" stop-color="#131724"/>
</radialGradient>
<radialGradient id="paint11_radial_31559_10916" cx="0" cy="0" r="1" gradientUnits="userSpaceOnUse" gradientTransform="translate(902.319 18.7083) rotate(-10.917) scale(117.406 117.247)">
<stop stop-color="#372D98"/>
<stop offset="1" stop-color="#131724"/>
</radialGradient>
<radialGradient id="paint12_radial_31559_10916" cx="0" cy="0" r="1" gradientUnits="userSpaceOnUse" gradientTransform="translate(901.213 12.977) rotate(-10.917) scale(125.787 125.617)">
<stop stop-color="#372D98"/>
<stop offset="1" stop-color="#131724"/>
</radialGradient>
<radialGradient id="paint13_radial_31559_10916" cx="0" cy="0" r="1" gradientUnits="userSpaceOnUse" gradientTransform="translate(902.247 18.3311) rotate(-10.917) scale(119.03 118.869)">
<stop stop-color="#372D98"/>
<stop offset="1" stop-color="#131724"/>
</radialGradient>
<radialGradient id="paint14_radial_31559_10916" cx="0" cy="0" r="1" gradientUnits="userSpaceOnUse" gradientTransform="translate(928.184 35.1376) rotate(-10.917) scale(35.9298 35.8814)">
<stop stop-color="#372D98"/>
<stop offset="1" stop-color="#131724"/>
</radialGradient>
<radialGradient id="paint15_radial_31559_10916" cx="0" cy="0" r="1" gradientUnits="userSpaceOnUse" gradientTransform="translate(1050.33 56.0521) rotate(-10.917) scale(36.6445 36.5951)">
<stop stop-color="#372D98"/>
<stop offset="1" stop-color="#131724"/>
</radialGradient>
<radialGradient id="paint16_radial_31559_10916" cx="0" cy="0" r="1" gradientUnits="userSpaceOnUse" gradientTransform="translate(944.804 46.8645) rotate(-10.917) scale(15.2686 15.2479)">
<stop stop-color="#372D98"/>
<stop offset="1" stop-color="#131724"/>
</radialGradient>
<radialGradient id="paint17_radial_31559_10916" cx="0" cy="0" r="1" gradientUnits="userSpaceOnUse" gradientTransform="translate(971.504 73.1025) rotate(-10.917) scale(15.2687 15.248)">
<stop stop-color="#372D98"/>
<stop offset="1" stop-color="#131724"/>
</radialGradient>
<radialGradient id="paint18_radial_31559_10916" cx="0" cy="0" r="1" gradientUnits="userSpaceOnUse" gradientTransform="translate(987.982 49.1125) rotate(-10.917) scale(15.2686 15.248)">
<stop stop-color="#372D98"/>
<stop offset="1" stop-color="#131724"/>
</radialGradient>
<radialGradient id="paint19_radial_31559_10916" cx="0" cy="0" r="1" gradientUnits="userSpaceOnUse" gradientTransform="translate(1013.09 76.3809) rotate(-10.917) scale(15.8534 15.832)">
<stop stop-color="#372D98"/>
<stop offset="1" stop-color="#131724"/>
</radialGradient>
<radialGradient id="paint20_radial_31559_10916" cx="0" cy="0" r="1" gradientUnits="userSpaceOnUse" gradientTransform="translate(1001.84 48.2188) rotate(-10.917) scale(24.4947 24.4617)">
<stop stop-color="#372D98"/>
<stop offset="1" stop-color="#131724"/>
</radialGradient>
<radialGradient id="paint21_radial_31559_10916" cx="0" cy="0" r="1" gradientUnits="userSpaceOnUse" gradientTransform="translate(939.492 70.096) rotate(-10.917) scale(24.3648 24.3319)">
<stop stop-color="#372D98"/>
<stop offset="1" stop-color="#131724"/>
</radialGradient>
<radialGradient id="paint22_radial_31559_10916" cx="0" cy="0" r="1" gradientUnits="userSpaceOnUse" gradientTransform="translate(793.463 83.5213) rotate(-10.917) scale(21.506 21.4769)">
<stop stop-color="#372D98"/>
<stop offset="1" stop-color="#131724"/>
</radialGradient>
<radialGradient id="paint23_radial_31559_10916" cx="0" cy="0" r="1" gradientUnits="userSpaceOnUse" gradientTransform="translate(794.931 107.949) rotate(-10.917) scale(21.5059 21.4769)">
<stop stop-color="#372D98"/>
<stop offset="1" stop-color="#131724"/>
</radialGradient>
<radialGradient id="paint24_radial_31559_10916" cx="0" cy="0" r="1" gradientUnits="userSpaceOnUse" gradientTransform="translate(803.417 104.597) rotate(-10.917) scale(13.3844 13.3663)">
<stop stop-color="#372D98"/>
<stop offset="1" stop-color="#131724"/>
</radialGradient>
<radialGradient id="paint25_radial_31559_10916" cx="0" cy="0" r="1" gradientUnits="userSpaceOnUse" gradientTransform="translate(778.717 76.7201) rotate(-10.917) scale(13.3844 13.3663)">
<stop stop-color="#372D98"/>
<stop offset="1" stop-color="#131724"/>
</radialGradient>
<radialGradient id="paint26_radial_31559_10916" cx="0" cy="0" r="1" gradientUnits="userSpaceOnUse" gradientTransform="translate(760.8 112.818) rotate(-10.917) scale(13.3844 13.3663)">
<stop stop-color="#372D98"/>
<stop offset="1" stop-color="#131724"/>
</radialGradient>
<radialGradient id="paint27_radial_31559_10916" cx="0" cy="0" r="1" gradientUnits="userSpaceOnUse" gradientTransform="translate(812.675 69.5733) rotate(-10.917) scale(35.5401 35.4921)">
<stop stop-color="#372D98"/>
<stop offset="1" stop-color="#131724"/>
</radialGradient>
<radialGradient id="paint28_radial_31559_10916" cx="0" cy="0" r="1" gradientUnits="userSpaceOnUse" gradientTransform="translate(828.322 69.3984) rotate(-10.917) scale(13.3844 13.3663)">
<stop stop-color="#372D98"/>
<stop offset="1" stop-color="#131724"/>
</radialGradient>
<radialGradient id="paint29_radial_31559_10916" cx="0" cy="0" r="1" gradientUnits="userSpaceOnUse" gradientTransform="translate(757.25 87.2055) rotate(-10.917) scale(13.3844 13.3663)">
<stop stop-color="#372D98"/>
<stop offset="1" stop-color="#131724"/>
</radialGradient>
<clipPath id="clip0_31559_10916">
<rect width="1100" height="120" fill="white"/>
</clipPath>
</defs>
</svg>
